<svg width="125" height="58" viewBox="0 0 125 58" fill="none" xmlns="http://www.w3.org/2000/svg"><g clip-path="url(#clip0_92_271)" fill="#EBA400"><path d="M13.11 26.436C15.415 7.98 31.852 3.847 39.542 5.289 6.38 8.173 12.148 46.14 31.373 50.946c11.28 2.82 19.668-1.38 24.793-5.647h.579c-6.17 6.22-21.002 17.255-38.83 8.531C-.154 44.987-1.148 25.474.614 16.823c-1.539 29.99 20.826 37.808 32.2 37.968-12.303-1.922-18.904-9.13-20.666-12.495 8.074 8.459 17.142 10.733 20.666 10.573-7.53-.961-22.012-7.978-19.705-26.433zm6.73 7.69c1.602 4.966 7.69 14.898 19.223 14.898 5.037 0 9.036-1.589 12.075-3.725h2.319c-3.05 3.115-7.684 5.647-14.394 5.647-13.072 0-18.262-11.213-19.223-16.82zM6.38 21.63c.16.961.77 3.268 1.922 4.806 1.442 1.922 3.845 3.364 3.845 6.728-1.442.32-4.421 0-4.805-3.845-.385-3.844-.802-6.728-.962-7.69zm16.822 3.364c-.961.961-2.019 2.5-2.403 4.806-.385 2.307-2.724 2.884-3.845 2.884-.48-1.442.211-4.19 2.403-5.286 1.922-.962 3.364-1.923 3.845-2.404zM8.916 15.382c-.053.973.038 3.357.828 5.11.988 2.19 3.02 4.121 2.286 7.404-1.477-.001-4.315-.963-3.853-4.8.464-3.835.686-6.741.739-7.714zm15.533 6.506c-.727.511-1.728 1.183-3.312 3.379-1.198 1.66-3.697 1.947-4.664 1.649-.042-1.333 1.873-3.685 4.041-4.042 1.727-.284 3.355-.578 3.935-.986zm2.135-3.876c-.79.408-1.873.936-3.74 2.896-1.414 1.483-4.493 1.628-5.41 1.201.14-1.326 2.92-3.598 5.117-3.656 1.75-.046 3.403-.116 4.033-.441zm-13.451-9.18c-.31.924-.852 3.249-.552 5.15.375 2.376 1.826 4.78.248 7.75-1.428-.395-3.915-2.08-2.452-5.656 1.463-3.576 2.446-6.32 2.755-7.244zm6.704 8.473c.47-1.248 1.974-3.167 4.805-2.495 2.403.572 4.448.156 5.14 0-.868.195-2.836 1.072-5.14 2.495-1.742 1.076-4.026.645-4.805 0zM17.108 5.498c-.392.66-1.198 2.359-1.284 3.872-.108 1.892.92 5.43-.791 7.453-1.033-.543-2.98-3.7-1.256-6.209 1.724-2.508 2.939-4.456 3.331-5.116zm5.613 7.48c.7-.903 2.522-2.371 4.672-1.108 1.825 1.073 3.604 1.246 4.21 1.293-.76-.059-2.792.19-5.037.777-1.698.443-3.368-.237-3.845-.961zM21.638 2.886c-.44.545-1.392 1.976-1.669 3.333-.345 1.696-.244 4.674-2.055 6.279-.863-.626-2.126-3.075.043-5.423 1.887-2.042 3.24-3.644 3.681-4.19zm5 6.816c.78-.658 2.53-1.505 4.17 0 1.393 1.278 4.114 1.236 4.634 1.39-.653-.193-3.48.322-5.55.414-1.566.069-2.975-1.082-3.255-1.804zm4.07-1.919c.71-.32 2.297-.636 3.066.39.851 1.134 3.014 1.7 3.364 1.922-1.922-.48-2.403 0-4.415-.307-1.183-.18-1.96-1.415-2.015-2.005zm-4.503-5.858c-.5.402-1.623 1.497-2.131 2.656-.635 1.45-1.117 4.13-3.044 5.216-.65-.725-1.309-3.156 1.08-4.837 2.078-1.462 3.596-2.633 4.095-3.035zm8.208 4.94c.632-.285 2.404-.559 3.207.827.859 1.483 1.61 1.245 1.922 1.442-1.922-.48-1.95.006-3.364-.48-1.008-.347-1.716-1.265-1.765-1.789zm3.503-.625c.527-.238 2.006-.466 2.676.69.716 1.238 1.308 1.315 1.568 1.48-1.604-.402-1.48-.126-2.66-.532-.84-.29-1.543-1.2-1.584-1.638zM31.369.78c-.497.265-1.647 1.026-2.276 1.944-.785 1.147-1.64 3.383-3.482 4.005-.443-.732-.614-2.94 1.725-4A78.882 78.882 0 0031.369.78zm8.79 4.324c.41-.408 1.714-1.142 2.748-.295 1.107.905 1.688.768 1.99.83-1.643.19-1.43.403-2.677.44-.888.025-1.868-.58-2.06-.975zM36.094.501c-.488.176-1.64.717-2.336 1.47-.87.943-1.947 2.87-3.711 3.191-.307-.727-.168-2.764 2.107-3.42a72.816 72.816 0 003.94-1.241zm2.028 3.883c.051-.73 1.315-2.6 3.47-2.19 1.873.357 3.297.564 3.775.623-.478-.058-1.656-.093-2.546.239-1.113.414-3.106 1.8-4.7 1.328zM41.379.683c-.515.07-1.753.362-2.59.955-1.046.741-2.742 2.74-4.534 2.69-.15-.775.65-3.077 3.012-3.247A72.498 72.498 0 0041.38.683z"/><path d="M44.48 25.15c-1.067 0-2.007-.242-2.82-.727-.807-.484-1.437-1.171-1.89-2.062-.454-.89-.68-1.948-.68-3.172 0-1.25.232-2.323.695-3.219.469-.896 1.104-1.58 1.906-2.055.802-.479 1.711-.718 2.727-.718.646 0 1.245.094 1.797.281a4.754 4.754 0 011.484.805c.433.344.787.752 1.063 1.226.281.474.468.995.562 1.563h-2.148a3.035 3.035 0 00-.39-.828 2.422 2.422 0 00-.595-.625 2.43 2.43 0 00-.78-.399 3.328 3.328 0 00-.97-.133 2.99 2.99 0 00-1.664.477c-.49.313-.875.773-1.156 1.383-.276.604-.414 1.344-.414 2.219 0 .88.138 1.625.414 2.234.276.61.662 1.073 1.156 1.39.495.313 1.068.47 1.72.47.588 0 1.098-.113 1.53-.337a2.418 2.418 0 001-.968c.235-.417.352-.91.352-1.477l.484.078H44.7v-1.648h4.727v1.39c0 1-.211 1.862-.633 2.586a4.335 4.335 0 01-1.758 1.68c-.745.39-1.596.586-2.554.586zm6.383-.156V13.353h4.367c.896 0 1.646.156 2.25.469.61.312 1.07.75 1.383 1.312.313.558.469 1.206.469 1.946 0 .744-.159 1.39-.477 1.937-.312.547-.776.969-1.39 1.266-.615.297-1.37.445-2.266.445h-3.101v-1.742h2.812c.526 0 .956-.073 1.29-.219.338-.146.585-.36.741-.64.162-.287.243-.636.243-1.047 0-.412-.081-.763-.243-1.055a1.536 1.536 0 00-.742-.672c-.333-.156-.765-.234-1.297-.234h-1.93v9.875h-2.109zm6.54 0l-2.821-5.282h2.297l2.883 5.282h-2.36zm4.773 0h-2.258l4.11-11.641h2.593l4.102 11.64h-2.25l-3.11-9.25h-.094l-3.093 9.25zm.078-4.563h6.133v1.688h-6.133V20.43zm18.984-7.078v11.64h-1.89l-5.477-7.929h-.102v7.93H71.66V13.353h1.89l5.477 7.93h.102v-7.93h2.11zm5.641 11.641h-2.953v-1.828h2.843c.808 0 1.482-.146 2.024-.438a2.788 2.788 0 001.226-1.336c.277-.594.415-1.336.415-2.226 0-.891-.136-1.63-.407-2.22a2.772 2.772 0 00-1.21-1.32c-.537-.296-1.201-.445-1.993-.445h-2.96v-1.828h3.085c1.157 0 2.149.232 2.977.695a4.69 4.69 0 011.922 2c.448.87.671 1.91.671 3.118s-.223 2.25-.671 3.125a4.713 4.713 0 01-1.938 2.007c-.838.464-1.849.696-3.031.696zm-1.844-11.641v11.64h-2.11v-11.64h2.11zm8.875 11.641V13.353h7.578v1.766h-5.469v3.125h5.063v1.742h-5.063v3.242h5.501v1.766h-7.61zm16.469-11.641h2.101v7.602c0 .833-.195 1.567-.585 2.203-.391.63-.941 1.125-1.649 1.484-.708.354-1.536.531-2.484.531s-1.776-.177-2.485-.53c-.708-.36-1.26-.855-1.656-1.485-.391-.636-.586-1.37-.586-2.203v-7.602h2.11v7.43c0 .49.106.922.32 1.297.213.375.515.672.906.89.396.214.859.32 1.391.32.531 0 .992-.106 1.383-.32.39-.218.692-.515.906-.89.219-.375.328-.808.328-1.297v-7.43zm3.797 11.641V13.353h4.367c.896 0 1.646.156 2.25.469.609.312 1.07.75 1.383 1.312.312.558.469 1.206.469 1.946 0 .744-.159 1.39-.477 1.937-.313.547-.776.969-1.391 1.266-.614.297-1.369.445-2.265.445h-3.102v-1.742h2.813c.526 0 .955-.073 1.289-.219.338-.146.586-.36.742-.64.161-.287.242-.636.242-1.047 0-.412-.081-.763-.242-1.055a1.54 1.54 0 00-.742-.672c-.334-.156-.766-.234-1.297-.234h-1.93v9.875h-2.109zm6.539 0l-2.82-5.282h2.296l2.883 5.282h-2.359zM44.418 41.15c-1.02 0-1.935-.237-2.742-.711-.802-.474-1.435-1.156-1.899-2.047-.458-.89-.687-1.96-.687-3.21 0-1.256.232-2.329.695-3.22.469-.895 1.104-1.58 1.906-2.054.808-.474 1.717-.711 2.727-.711.64 0 1.24.09 1.797.273.562.183 1.062.45 1.5.805.437.349.794.779 1.07 1.289.281.505.466 1.08.555 1.727h-2.125a2.543 2.543 0 00-.946-1.625 2.424 2.424 0 00-.82-.43 3.22 3.22 0 00-.992-.149c-.635 0-1.198.16-1.688.477-.49.313-.872.776-1.148 1.39-.276.61-.414 1.352-.414 2.227 0 .886.138 1.633.414 2.242.281.605.664 1.063 1.148 1.375.49.308 1.05.461 1.68.461.35 0 .675-.044.977-.133.302-.093.575-.231.82-.414.25-.187.456-.411.617-.672a2.67 2.67 0 00.352-.913h2.125a4.607 4.607 0 01-1.547 2.851 4.745 4.745 0 01-1.484.86 5.454 5.454 0 01-1.891.312zm11.336 0c-1.016 0-1.93-.237-2.742-.711-.808-.474-1.446-1.156-1.914-2.047-.464-.89-.696-1.96-.696-3.21 0-1.256.232-2.329.696-3.22.468-.895 1.106-1.58 1.914-2.054.812-.474 1.726-.711 2.742-.711 1.02 0 1.932.237 2.734.71.802.475 1.438 1.16 1.907 2.055.468.891.703 1.964.703 3.22 0 1.25-.235 2.32-.703 3.21-.47.89-1.105 1.573-1.907 2.047-.802.474-1.713.71-2.734.71zm0-1.89c.63 0 1.187-.157 1.672-.47.484-.312.864-.77 1.14-1.374.276-.61.414-1.355.414-2.235 0-.885-.138-1.633-.414-2.242-.276-.61-.656-1.07-1.14-1.383-.485-.312-1.042-.469-1.672-.469-.63 0-1.19.157-1.68.47-.484.312-.864.773-1.14 1.382-.276.61-.414 1.357-.414 2.242 0 .88.138 1.625.414 2.235.276.604.656 1.062 1.14 1.375.49.312 1.05.468 1.68.468zm6.734-9.907h2.586l3.453 8.43h.133l3.461-8.43h2.617v11.64h-2.07v-8h-.094l-3.234 7.962h-1.516l-3.195-7.977h-.11v8.016h-2.03V29.353zm13.938 11.641V29.353h4.367c.896 0 1.646.167 2.25.5a3.35 3.35 0 011.383 1.375c.312.583.468 1.245.468 1.984 0 .745-.158 1.41-.476 1.993a3.353 3.353 0 01-1.39 1.367c-.615.328-1.37.492-2.266.492h-2.89V35.33h2.6c.527 0 .956-.089 1.29-.266a1.69 1.69 0 00.742-.75 2.43 2.43 0 00.242-1.102c0-.416-.08-.78-.242-1.093a1.61 1.61 0 00-.742-.735c-.334-.177-.766-.265-1.297-.265h-1.93v9.875h-2.11zm9.906 0h-2.258l4.11-11.641h2.593l4.102 11.64h-2.25l-3.11-9.25h-.093l-3.094 9.25zm.078-4.563h6.133v1.688H86.41V36.43zm18.985-7.078v11.64h-1.891l-5.477-7.929h-.101v7.93h-2.11V29.353h1.891l5.477 7.93h.101v-7.93h2.11zm.89 0h2.383l2.844 5.156h.125l2.843-5.156h2.383l-4.242 7.297v4.344h-2.101V36.65l-4.235-7.297z"/></g><defs><clipPath id="clip0_92_271"><path fill="#fff" transform="translate(0 .5)" d="M0 0h125v57H0z"/></clipPath></defs></svg>