<svg width="365" height="280" viewBox="0 0 365 280" fill="none" xmlns="http://www.w3.org/2000/svg"><g clip-path="url(#clip0_106_684)"><path fill="#EBA400" d="M0 0h365v280H0z"/><path fill-rule="evenodd" clip-rule="evenodd" d="M257.007 18.527l-5.868 21.485c2.025 5.03 4.317 13.268 4.799 22.134.405 7.44-.462 15.416-3.912 22.314a48.83 48.83 0 011.995-1.224c4.133-4.93 11.624-11.738 9.247-23.649l1.964-.392c2.003 10.034-2.488 16.856-6.452 21.6 3.272-1.474 6.891-2.711 10.888-3.652l1.127-.265.101 1.153c.627 7.178-1.332 22.389-12.918 32.211 2.973-.769 6.189-1.366 9.665-1.764l1.122-.128-.007 1.131c-.027 4.144-1.048 10.776-4.013 17.336-2.326 5.148-5.869 10.292-11.104 14.139a56.629 56.629 0 018.324-.394l1.018.022-.04 1.02c-.165 4.105-1.385 10.709-4.494 17.323-2.43 5.171-6.036 10.386-11.232 14.406 2.99-.502 6.197-.789 9.634-.829l1.045-.014-.033 1.045c-.141 4.692-1.513 12.077-5.164 19.113-2.744 5.288-6.794 10.41-12.603 14.022 2.814-.323 5.905-.534 9.314-.61l.94-.021.081.937c.822 9.5-6.165 30.712-39.036 42.954-2.094 13.482-6.218 40.204-6.68 43.892-.294 2.339-.795 6.583-1.622 10.657-.414 2.037-.915 4.057-1.52 5.791-.596 1.704-1.332 3.252-2.276 4.239l-.138.142-.181.081c-.761.335-1.712.407-2.627-.083-.893-.477-1.601-1.407-2.093-2.757-.975-2.671-1.275-7.427-.122-15.476 1.98-13.821 5.794-40.443 9.908-57.9-11.854-7.38-31.975-29.126-22.015-60.496l.295-.932.939.273c3.051.889 7.075 2.639 11.145 5.345-4.964-8.614-9.576-23.254-3.611-39.316l.281-.757.801.114c3.163.455 7.609 1.991 12.076 5.083-4.765-9.129-9.614-24.838-4.419-40.892l.285-.881.9.213c3.305.785 8.033 2.79 12.678 6.355-1.822-3.466-3.549-7.637-4.697-12.208-2.054-8.178-2.275-17.72 2.211-26.804l.419-.849.871.371c2.223.946 5.003 2.558 7.842 4.845-1.932-7.933-2.288-17.493 3.329-24.94l1.6 1.207c-5.741 7.61-4.704 17.885-2.187 26.15a40.475 40.475 0 015.36 6.33c-1.05-11.83 2.156-31.804 21.055-47.226L255.075 18l1.932.527zm-8.524 189.563c-5.934.18-10.827.78-14.912 1.672-10.092 2.206-15.308 6.213-19.151 10.247-1.105 1.16-2.1 2.326-3.079 3.476-.519.609-1.105 1.673-1.732 3.2-.619 1.508-1.249 3.395-1.882 5.59a135.114 135.114 0 00-1.567 5.997c-4.152 17.327-8.029 44.386-10.041 58.428-1.144 7.985-.775 12.323.021 14.505.392 1.076.847 1.512 1.156 1.678.23.123.463.141.697.077.585-.69 1.159-1.834 1.689-3.351.564-1.614 1.042-3.537 1.447-5.529.809-3.984 1.302-8.146 1.598-10.507.474-3.779 4.719-31.275 6.778-44.528v-.005l.101-.57c1.159-6.106 6.251-18.893 18.541-25.91l.993 1.739c-10.858 6.199-15.809 17.232-17.3 23.321 30.099-11.62 36.842-30.722 36.643-39.53zm-64.838-28.511c-8.727 29.155 9.536 49.528 20.896 56.879.418-1.687.839-3.275 1.262-4.74.644-2.233 1.296-4.194 1.952-5.793.573-1.396 1.173-2.576 1.808-3.423-.115-2.753.015-5.929.49-9.318-.309-11.193-5.569-19.367-11.785-24.964-4.99-4.494-10.573-7.302-14.623-8.641zm72.163-5.052c-5.049.138-9.545.831-13.544 1.959-9.103 2.568-15.675 7.405-20.349 13.179a41.217 41.217 0 00-2.719 3.781 45.052 45.052 0 00-3.017 5.576c-2.188 4.81-3.482 9.781-4.13 14.352a52.126 52.126 0 00-.52 6.828c.461-.522.939-1.049 1.44-1.575 4.077-4.279 9.622-8.504 20.105-10.808 8.743-3.07 14.365-9.382 17.848-16.094 3.231-6.228 4.592-12.751 4.886-17.198zm-63.413-29.662c-6.651 18.987 2.025 35.812 7.27 41.918 5.271 4.764 9.923 11.346 11.67 19.967a52.983 52.983 0 013.019-8.557 47.32 47.32 0 012.973-5.537c-.352-4.605-.152-10.319.992-16.257-1.617-10.934-6.112-18.396-11.152-23.327-5.157-5.045-10.902-7.458-14.772-8.207zm68.481-2.315c-4.513-.029-8.554.451-12.169 1.343-8.693 2.145-14.977 6.678-19.459 12.31a38.78 38.78 0 00-2.326 3.263 42.916 42.916 0 00-2.732 5.002c-1.831 3.939-3.078 8.085-3.872 12.138a61.723 61.723 0 00-1.125 13.307 42.38 42.38 0 011.164-1.507c4.903-6.057 11.788-11.121 21.249-13.816 7.303-3.908 12.056-10.188 15.03-16.515 2.736-5.822 3.937-11.629 4.24-15.525zm-59.716-34.092c-5.535 18.479 2.599 36.45 7.479 43.251 4.592 4.517 8.687 10.968 10.803 19.908a52.433 52.433 0 012.932-7.993 45.227 45.227 0 012.653-4.907c-.858-5.301-.778-12.476 1.399-19.768-1.231-8.418-4.643-14.817-8.745-19.557-5.45-6.298-12.125-9.674-16.521-10.934zm65.559 2.151c-5.588.724-10.436 1.981-14.63 3.638-6.658 2.629-11.687 6.269-15.445 10.401a36.84 36.84 0 00-4.16 5.542 38.25 38.25 0 00-1.823 3.34 40.285 40.285 0 00-2.253 5.779c-1.853 6.088-2.163 12.106-1.684 16.905.31-.424.628-.845.957-1.259 4.721-5.933 11.342-10.708 20.429-12.977 7.339-3.615 11.985-9.734 14.81-15.985 2.577-5.703 3.611-11.462 3.799-15.384zm-54.425-35.235c-3.786 8.276-3.558 16.954-1.649 24.555 1.976 7.869 5.738 14.505 8.578 18.184 3.731 4.321 6.903 9.93 8.531 17.042a40.338 40.338 0 012.848-5.722c-.481-5.006-.073-11.882 2.126-19.062.327-7.085-1.192-13.084-3.626-18.042-2.129-4.335-4.962-7.886-7.89-10.669a38.568 38.568 0 00-1.097-1.005c-2.787-2.455-5.573-4.208-7.821-5.28zm56.677 4.003c-5.302 1.35-9.87 3.239-13.797 5.504a45.569 45.569 0 00-5.932 4.07c-4.584 3.718-8.019 8.03-10.548 12.516a47.878 47.878 0 00-4.013 9.368c-1.788 5.784-2.363 11.359-2.244 15.819a38.797 38.797 0 012.725-3.355c3.958-4.351 9.226-8.154 16.128-10.89 14.945-8.169 18.019-24.697 17.681-33.032zm-19.315-37.653c-20.614 17.399-21.079 40.379-18.707 49.824 1.912 3.925 3.278 8.455 3.694 13.598a48.655 48.655 0 012.306-4.662c2.621-4.648 6.178-9.128 10.919-12.997 5.187-7.192 6.547-16.455 6.07-25.233-.439-8.074-2.428-15.62-4.282-20.53zM105.761 160.545c18.383 9.445 24.771 25.294 26.154 35.475a34.997 34.997 0 013.174-5.794c.634-7.369-.344-16.099-6.477-21.409l1.312-1.515c5.994 5.19 7.467 13.125 7.324 20.057 1.911-2.285 3.871-4.038 5.512-5.186l.773-.541.586.741c5.431 6.862 6.957 14.95 6.689 22.207-.141 3.813-.779 7.419-1.618 10.534 3.181-3.583 6.637-5.971 9.189-7.177l.835-.394.461.799c8.907 15.427 4.992 33.108 1.917 40.076-.875 2.144-2.123 5.543-3.019 8.755-.448 1.607-.803 3.145-.981 4.443-.185 1.345-.155 2.267.019 2.748 1.046 2.903 7.929 20.598 11.246 29.102l.003.008.004.01c2.413 6.558 3.023 10.635 2.674 13.088-.176 1.243-.616 2.187-1.318 2.778-.721.606-1.579.721-2.314.568l-.194-.041-.165-.112c-.997-.678-1.907-1.867-2.716-3.196-.825-1.356-1.61-2.969-2.324-4.609-1.429-3.279-2.613-6.759-3.278-8.669-1.041-2.99-9.178-24.389-13.383-35.413-10.55.876-32.614-5.003-44.229-34.796l-.482-1.235 1.32-.127a61.493 61.493 0 017.874-.266c-11.176-6.3-15.44-18.492-16.187-24.562L94 195.744l1.158.024c3.315.072 6.397.422 9.26 1.002-4.095-3.286-8.773-8.207-8.878-16.721l2.003-.025c.128 10.331 7.564 14.668 11.948 18.083.477.157.947.318 1.409.488-3.955-5.137-6.035-11.533-7.002-17.705-1.18-7.523-.729-14.841.074-19.443l-8.765-16.949 1.78-.92 8.774 16.967zm52.642 49.626c-3.45 1.86-8.371 5.847-11.781 12.01-2.591 4.682-4.311 10.627-3.851 17.871 3.172 5.808 4.52 11.893 4.724 16.529 4.124 10.809 12.554 32.973 13.625 36.051.673 1.931 1.831 5.334 3.223 8.529.696 1.598 1.44 3.12 2.199 4.367.703 1.155 1.37 1.984 1.956 2.447.16 0 .304-.05.433-.158.195-.164.489-.574.624-1.526.274-1.935-.179-5.61-2.564-12.097-3.294-8.442-10.142-26.051-11.249-29.109-1.6-3.337-3.609-8.983-4.507-15.229-.901-6.268-.705-13.269 2.278-19.154l1.787.905c-2.719 5.366-2.956 11.892-2.084 17.963.558 3.876 1.563 7.513 2.612 10.46.208-1.078.491-2.233.815-3.395.922-3.306 2.199-6.78 3.094-8.974l.011-.028.277-.651c2.823-6.899 6.002-22.783-1.622-36.811zm-41.826 13.899c-3.725-.624-7.907-.82-12.592-.468 11.313 27.639 31.827 32.989 41.464 32.299-.304-4.308-1.627-9.825-4.54-15.082a34.491 34.491 0 00-2.919-4.432 32.565 32.565 0 00-2.125-2.47 31.53 31.53 0 00-4.475-3.894c-3.886-2.786-8.755-4.936-14.813-5.953zm26.558-39.683c-1.668 1.294-3.646 3.223-5.504 5.717-.25.335-.498.68-.742 1.035-1.959 2.847-3.703 6.319-4.715 10.32-1.156 4.569-1.362 9.848.169 15.707 3.129 5.629 4.707 11.321 5.204 15.619a34.518 34.518 0 013.161 3.921c.167-6.095 1.818-11.247 4.142-15.46 1.726-3.58 3.7-9.802 3.956-16.739.245-6.66-1.094-13.905-5.671-20.12zm-46.826 13.425c1.261 7.07 6.808 20.154 20.666 24.293 6.32 1.07 11.453 3.331 15.581 6.29a33.35 33.35 0 012.599 2.063c-.725-3.671-2.184-8.069-4.625-12.43a40.913 40.913 0 00-5.038-7.124 37.338 37.338 0 00-11.082-8.596 39.05 39.05 0 00-5.705-2.35c-3.655-1.183-7.771-1.946-12.396-2.146zm9.471-34.993c-.661 4.439-.959 11.02.098 17.76 1.165 7.436 3.956 14.929 9.571 20.013a39.32 39.32 0 0111.542 8.984 41.673 41.673 0 012.47 3.076 32.454 32.454 0 01.744-11.571c.301-8.293-4.162-27.35-24.425-38.262z" fill="#fff"/></g><defs><clipPath id="clip0_106_684"><path fill="#fff" d="M0 0h365v280H0z"/></clipPath></defs></svg>