<svg width="365" height="280" viewBox="0 0 365 280" fill="none" xmlns="http://www.w3.org/2000/svg"><path fill="#EBA400" d="M0 0h365v280H0z"/><path d="M225.558 68.05c0-1.134-.205-3.22-.398-6.056-.191-2.789-.362-6.203-.277-9.849.17-7.25 1.355-15.585 5.576-21.731l.283-.424c1.327-2.059 1.378-3.169 1.149-3.704-.234-.545-1.008-1.044-2.711-1.222-3.284-.343-8.367.697-12.12 1.815l.001.001c-52.737 16.037-68.514 57.2-69.84 75.617l-.019.278-.161.228c-20.527 29.012-14.094 60.445-8.353 72.461l.12.252-.027.277c-1.992 20.056 5.635 35.883 15.701 47.221 10.092 11.367 22.583 18.161 30.137 20.128l2.362.629c10.333 2.81 21.766 6.639 28.21 8.916l2.635.944.037.018c1.403.646 5.425 2.219 9.577.024l.194-.111c.426-.264.675-.566.824-.89.177-.387.25-.892.189-1.558-.125-1.371-.784-3.115-1.698-5.217-.889-2.044-2.003-4.389-2.876-6.781-.877-2.401-1.553-4.95-1.553-7.478 0-6.939-.677-25.149-4.014-37.14-1.643-5.909-6.118-13.622-10.356-20.646-2.101-3.483-4.141-6.792-5.692-9.56-.776-1.385-1.441-2.655-1.936-3.759-.486-1.085-.843-2.087-.947-2.914-.184-1.468-.088-3.165.119-5.021.208-1.853.54-3.966.853-6.233.59-4.283 1.136-9.29.792-14.947l-.081-1.139c-.412-5.078-.042-9.081.602-12.039.638-2.929 1.56-4.895 2.309-5.847l.06-.075.072-.064c22.275-19.252 21.257-39.764 21.257-44.404zm-17.273-24.657c-37.541 11.431-48.474 44.634-49.248 59.758l-.013.276-.156.23c-19.753 29.317-14.203 58.591-9.039 69.45l.102.218-.007.241c-.666 22.357 7.514 37.646 17.964 47.704 10.48 10.088 23.281 14.947 31.827 16.323l-.319 1.972c-8.893-1.432-22.084-6.448-32.897-16.856-10.806-10.402-19.2-26.157-18.581-48.966-5.366-11.517-10.765-41.242 9.137-70.973.92-15.779 12.267-49.602 50.647-61.288l.583 1.911zM227.56 68.05c0 4.792 1.003 26.021-21.866 45.842-.494.665-1.293 2.287-1.878 4.973-.599 2.749-.961 6.554-.563 11.452l.084 1.181c.356 5.854-.211 11.012-.808 15.339-.32 2.324-.641 4.361-.845 6.183-.203 1.819-.277 3.325-.123 4.552.065.521.32 1.301.788 2.345.459 1.026 1.092 2.237 1.855 3.6 1.53 2.73 3.542 5.993 5.66 9.503 4.2 6.962 8.839 14.92 10.571 21.143 3.414 12.273 4.086 30.718 4.086 37.675 0 2.191.59 4.487 1.432 6.793.846 2.317 1.906 4.543 2.831 6.669.9 2.069 1.698 4.095 1.857 5.831.081.888.004 1.771-.364 2.572-.328.716-.857 1.302-1.579 1.752l-.321.184c-4.982 2.633-9.739.761-11.308.044-5.492-2.002-18.79-6.568-30.61-9.782l-2.346-.626c-7.973-2.077-20.799-9.101-31.128-20.735-10.308-11.611-18.182-27.876-16.221-48.468-5.912-12.619-12.243-44.497 8.484-73.998 1.513-19.231 17.837-60.87 71.231-77.106l.005-.001.728-.212c3.727-1.054 8.701-2.041 12.176-1.678 1.793.187 3.64.783 4.343 2.422.648 1.512.095 3.406-1.326 5.602l-.295.443c-3.88 5.65-5.058 13.492-5.226 20.648-.083 3.558.083 6.905.272 9.666.186 2.715.404 4.968.404 6.192z" fill="#fff"/><path d="M199.963 193.887c-3.461-5.778-8.305-9.897-13.255-11.938-4.95-2.041-9.873-1.967-13.765.357-3.891 2.324-6.285 6.619-6.825 11.939-.541 5.32.802 11.529 4.264 17.307 3.461 5.779 8.305 9.898 13.255 11.939 4.95 2.041 9.872 1.967 13.764-.357l1.027 1.715-.43.247c-8.958 4.944-21.715-.315-28.987-11.95l-.347-.568c-7.321-12.221-5.865-26.542 3.252-31.987l.431-.247c9.102-5.024 22.127.487 29.334 12.518l.337.574c6.937 12.093 5.385 26.054-3.59 31.413l-1.027-1.715c3.892-2.323 6.286-6.619 6.826-11.939.541-5.32-.802-11.529-4.264-17.308zm-15.729-48.711c1.667-6.524 1.182-12.858-.856-17.803s-5.56-8.381-9.953-9.5c-4.394-1.119-9.133.212-13.295 3.577-4.162 3.366-7.627 8.693-9.295 15.217-1.667 6.524-1.181 12.858.856 17.803 2.038 4.945 5.559 8.38 9.953 9.5l-.495 1.936-.479-.131c-9.825-2.862-15.077-15.606-11.933-28.956l.159-.646c3.527-13.799 14.73-22.859 25.023-20.237l.48.132c9.984 2.908 15.245 16.019 11.774 29.602l-.171.643c-3.705 13.436-14.72 22.175-24.853 19.593l.495-1.936c4.393 1.119 9.133-.212 13.295-3.577 4.162-3.366 7.627-8.693 9.295-15.217zm18.741-57.701c3.102-5.978 4.064-12.257 3.2-17.534-.865-5.278-3.517-9.42-7.543-11.502-4.026-2.083-8.944-1.857-13.76.482-4.817 2.338-9.399 6.744-12.502 12.723-3.102 5.978-4.064 12.257-3.2 17.534.865 5.277 3.516 9.42 7.542 11.502l-.92 1.774-.437-.236c-8.922-5.007-11.151-18.606-5.063-30.9l.301-.594c6.562-12.644 19.527-18.939 28.96-14.06l.437.237c9.066 5.087 11.221 19.047 4.762 31.494l-.312.588c-6.653 12.25-19.363 18.274-28.648 13.471l.92-1.774c4.027 2.083 8.945 1.857 13.761-.481 4.817-2.339 9.4-6.745 12.502-12.724z" fill="#fff"/></svg>