<svg width="365" height="280" viewBox="0 0 365 280" fill="none" xmlns="http://www.w3.org/2000/svg"><path fill="#EBA400" d="M0 0h365v280H0z"/><path d="M178.066 29.53c3.283-.752 6.547-.709 9.693.163l.72.215a20.831 20.831 0 014.874 2.307l.574.375c2.874 1.924 5.823 4.575 8.69 8.034l.553.678c2.757 3.439 5.428 7.639 7.875 12.676l.452.948c2.25 4.785 4.298 10.303 6.028 16.616l.286 1.058c1.41 5.327 2.596 11.208 3.492 17.681l.275 2.08c.527 4.173.933 8.585 1.206 13.244 11.867-13.33 23.702-20.258 31.911-22.557l3.305-.926-2.297 2.559c-11.092 12.354-12.703 29.303-13.082 48.282-.371 18.567.439 39.014-5.813 58.162l-.303.91c-7.765 22.899-22.673 33.478-34.311 37.565-2.177 1.66-3.539 5.045-3.834 10.677-.072 1.387-.093 2.818-.349 4.077-.268 1.312-.804 2.541-1.956 3.562-1.126.997-2.753 1.716-5.045 2.211-2.297.496-5.344.784-9.389.861-8.04.153-12.251-1.186-14.279-3.999-1.005-1.393-1.382-3.031-1.526-4.724-.142-1.668-.065-3.551-.065-5.396 0-5.352-2.067-6.837-2.882-7.117l-.303-.072c-17.886-4.447-28.653-15.01-34.718-29.437-6.036-14.359-7.402-32.511-6.66-52.197l.06-1.781c.51-18.23-1.905-30.963-5.133-39.481-3.347-8.834-7.521-13.024-10.115-14.24l.397-1.904.593-.01c11.756-.04 22.615 7.335 32.075 17.985.248-4.77.849-11.252 1.961-18.351l.37-2.276c.906-5.35 2.101-10.985 3.65-16.454l.34-1.178c1.728-5.875 3.88-11.541 6.542-16.42l.541-.976c2.717-4.834 5.639-8.964 8.687-12.364l.485-.534c5.02-5.453 10.395-8.97 15.768-10.373l.657-.16zm-68.284 63.24c2.709 2.457 5.715 6.754 8.197 13.303 3.341 8.818 5.777 21.824 5.262 40.248l-.06 1.8c-.739 19.604.642 37.398 6.505 51.346 5.831 13.872 16.107 23.973 33.33 28.263.149.025.302.061.458.11 4.868 1.175 10.293 1.894 16.334 2.103-8.307-5.313-22.698-18.376-34.262-41.442l1.781-.898c13.127 26.182 29.855 39.121 36.624 42.404 1.847-.006 3.748-.057 5.705-.153a74.127 74.127 0 01-1.064-2.054l-.721-1.484a129.88 129.88 0 01-3.525-8.157l-.534-1.374a154.834 154.834 0 01-1.577-4.311l-.523-1.524c-1.887-5.595-3.693-11.991-5.065-18.886l-.269-1.385c-.837-4.44-2.539-10.69-4.999-17.923l-.501-1.46a239.864 239.864 0 00-3.338-8.995l-.53-1.336c-.281-.702-.567-1.407-.858-2.116l-.891-2.138c-.339-.804-.685-1.611-1.037-2.422l-1.074-2.44c-3.055-6.831-6.551-13.809-10.424-20.468l-.78-1.327c-3.664-6.177-7.648-12.04-11.899-17.216l-.854-1.027c-8.938-10.598-18.894-17.952-29.411-19.04zm142.185-6.695c-7.653 2.99-17.858 9.67-28.145 21.365l-1.144 1.323c-.212.248-.424.498-.635.751l-.634.763c-4.279 5.197-8.536 11.276-12.591 18.331l-.808 1.424c-3.386 6.041-6.622 12.778-9.601 20.263l-.593 1.508c-.213.548-.425 1.101-.635 1.657l-.626 1.682a210.815 210.815 0 00-4.575 13.975l-.603 2.119c-3.258 11.659-5.907 24.713-7.702 39.289.374 1.104.753 2.175 1.13 3.212 10.787-25.301 33.006-76.099 42.914-93.906l1.74.976c-10.102 18.156-33.182 71.042-43.639 95.637a133.47 133.47 0 003.372 7.993c11.637-7.6 34.424-31.852 38.405-73.094l1.984.193c-4.066 42.128-27.457 66.956-39.521 74.719a69.057 69.057 0 001.811 3.491c2.544-.12 5.841-.705 9.519-1.981l1.052-.381c10.975-4.128 24.828-14.324 32.175-35.992l.298-.894c6.131-18.778 5.337-38.825 5.712-57.575.352-17.633 1.742-34.181 11.34-46.848zm-120.903 63.242c-.48 36.493 19.625 62.524 29.653 70.918l-1.278 1.536c-10.384-8.691-30.858-35.26-30.369-72.48l1.994.026zm6.335-29.246c6.758 26.478 30.024 74.931 40.844 95.896l-1.771.92c-10.805-20.937-34.181-69.588-41.004-96.321l1.931-.495zm35.818 51.895c2.506 7.35 4.254 13.749 5.12 18.341l.265 1.366a148.636 148.636 0 003.642 14.413c1.71-12.48 4.051-23.826 6.864-34.12h-15.891zm-6.055-19.527c.002 1.217.007 2.443.013 3.68.581 1.38 1.144 2.747 1.685 4.101l.535 1.346a242.437 242.437 0 013.129 8.4h17.141a214.33 214.33 0 014.976-15.4c.083-.7.162-1.409.236-2.127h-27.715zm.162-21.896c-.112 6.292-.169 12.92-.164 19.896h27.91c.558-6.157.817-12.869.841-19.896h-28.587zm-12.778 0c3.764 6.486 7.167 13.259 10.156 19.896h.464c-.005-6.974.053-13.602.164-19.896h-10.784zm43.358 0c-.02 6.003-.21 11.781-.61 17.188 2.56-6.242 5.299-11.961 8.155-17.188h-7.545zm-.474-19.902c.289 6.073.458 12.084.474 17.902h8.657c3.853-6.813 7.899-12.755 11.99-17.902H197.43zm-29.537 0a882.546 882.546 0 00-.531 17.902h28.55a401.98 401.98 0 00-.476-17.902h-27.543zm-26.929.177c4.451 5.319 8.603 11.365 12.403 17.725h12c.125-6.306.306-12.269.531-17.902h-24.927l-.007.177zm55.203-19.4c.47 5.712.868 11.489 1.164 17.223h22.842c.243-.294.486-.585.73-.872-.287-5.833-.784-11.276-1.461-16.35h-23.275zm-27.253 0a701.845 701.845 0 00-.939 17.223h27.36c-.297-5.733-.7-11.51-1.172-17.222h-25.249zm-26.048 0c-1.013 6.66-1.568 12.719-1.805 17.223h24.919a704.84 704.84 0 01.935-17.222h-24.049zm51.505-18.61a698.16 698.16 0 011.627 16.61h23.168c-.882-6.073-2.024-11.598-3.365-16.61h-21.43zm-23.892 0a524.52 524.52 0 00-1.428 16.61h24.945a703.087 703.087 0 00-1.631-16.61h-21.886zm-23.716 0c-1.532 5.532-2.702 11.227-3.58 16.61h23.87a523.06 523.06 0 011.421-16.61h-21.711zm45.5-17.392a761.07 761.07 0 011.887 15.392h21.099c-1.67-5.844-3.615-10.954-5.728-15.392h-17.258zm-19.59 0a319.729 319.729 0 00-1.439 10.59 404.567 404.567 0 00-.544 4.802h21.453a764.252 764.252 0 00-1.892-15.392h-17.578zm-19.273 0c-2.43 4.57-4.434 9.858-6.067 15.392h21.351c.186-1.74.376-3.419.57-5.04.45-3.76.922-7.207 1.402-10.352H153.4zm36.992-13.152a706.165 706.165 0 011.601 11.152h16.541c-2.259-4.419-4.683-8.113-7.156-11.152h-10.986zm-15.311.126c-.691 3.076-1.398 6.737-2.092 11.026h16.992c-.539-3.962-1.079-7.7-1.606-11.152h-13.264l-.03.126zm-12.735-.126c-2.722 3.09-5.359 6.81-7.841 11.152h16.464c.693-4.317 1.402-8.021 2.098-11.152h-10.721zm26.412-10.14c.42 2.454.865 5.18 1.325 8.14h9.578c-2.297-2.53-4.607-4.515-6.84-6.01l-.539-.352a19.176 19.176 0 00-3.524-1.777zm-2.137-.658c-2.674-.637-5.449-.618-8.269.051-.79 1.695-1.75 4.553-2.773 8.747h12.487a511.01 511.01 0 00-1.445-8.798zm-10.742.801c-3.888 1.437-7.841 4.098-11.674 7.997h9.323c.819-3.422 1.617-6.07 2.351-7.997zm-8.134 204.602c0 1.969-.075 3.671.057 5.226.131 1.529.454 2.751 1.155 3.722 1.382 1.917 4.599 3.324 12.626 3.171 3.988-.075 6.89-.359 9.007-.816 2.122-.458 3.376-1.074 4.145-1.755.742-.657 1.115-1.45 1.322-2.464.217-1.067.233-2.268.312-3.78.207-3.957.935-7.163 2.307-9.502-2.787.719-5.293 1.054-7.344 1.095-1.967.119-3.883.196-5.749.227l-1.858.017c-6.356.008-12.115-.505-17.328-1.495.793 1.451 1.348 3.523 1.348 6.354z" fill="#fff"/></svg>