<svg width="365" height="280" viewBox="0 0 365 280" fill="none" xmlns="http://www.w3.org/2000/svg"><path fill="#EBA400" d="M0 0h365v280H0z"/><path d="M229.957 123.166l.002-.033c.147-2.243-.133-6.068-1.477-10.107-1.301-3.906-3.578-7.954-7.366-10.984l-.371-.29c-6.095-4.646-10.727-8.501-13.505-10.915h-50.48c-2.418 2.102-6.243 5.296-11.214 9.153l-2.291 1.762c-4.011 3.058-6.394 7.242-7.737 11.274-1.344 4.039-1.624 7.864-1.477 10.107l.002.033v103.205c0 8.698 2.52 13.876 5.515 16.852 3.014 2.994 6.609 3.863 8.936 3.77h67.013c2.327.093 5.922-.776 8.935-3.77 2.995-2.976 5.515-8.154 5.515-16.852V123.166zm-87.385 101.042V123.211c-.103-1.661.067-4.317.895-7.08.837-2.793 2.371-5.778 5.06-7.923l.626.781.627.78c-2.268 1.809-3.626 4.385-4.39 6.935-.765 2.552-.909 4.996-.813 6.428l.002.033v101.043c0 2.303.098 4.15.401 5.619.301 1.46.788 2.465 1.506 3.165.714.696 1.76 1.193 3.381 1.434 1.634.242 3.783.213 6.616-.092l1.746-.182c8.829-.89 18.951-1.483 23.417-1.676l.044-.002.044.002c4.759.206 16.58.866 25.783 1.858l1.031.102c2.331.206 4.155.202 5.585-.01 1.621-.241 2.668-.737 3.382-1.434.718-.7 1.205-1.705 1.506-3.165.303-1.469.4-3.316.4-5.619V123.165l.002-.033c.096-1.432-.047-3.876-.812-6.428-.764-2.55-2.123-5.126-4.391-6.935l.627-.78.626-.781c2.689 2.145 4.223 5.13 5.06 7.923.828 2.763.998 5.419.895 7.08v100.997c0 2.329-.096 4.344-.442 6.022-.348 1.687-.965 3.115-2.068 4.191-1.107 1.08-2.597 1.702-4.491 1.983-1.646.244-3.646.237-6.063.023l-1.062-.105c-9.114-.982-20.842-1.639-25.613-1.846-4.465.194-14.507.784-23.255 1.666l-1.736.18c-2.9.313-5.244.361-7.125.082-1.894-.281-3.384-.903-4.491-1.983-1.103-1.076-1.72-2.504-2.068-4.191-.346-1.678-.442-3.693-.442-6.022zm58.257-161.79h-37.658V77.79c0 5.248-2.614 9.393-3.984 10.872l-.024.025-.026.025-.136.125h45.998l-.136-.125-.026-.025-.024-.025c-1.37-1.48-3.984-5.624-3.984-10.872V62.418zm2.479-10.502h-42.615v5.796c0 .696.289 1.303.702 1.806.341.414.738.72 1.034.9h39.142c.296-.18.694-.485 1.035-.9.413-.503.702-1.11.702-1.806v-5.796zm2.478-13.974c0-.638-.224-1.64-.891-2.46-.632-.778-1.732-1.482-3.683-1.482h-38.424c-1.951 0-3.051.704-3.683 1.482a4.095 4.095 0 00-.891 2.46v8.34c0 1.877.371 2.813.693 3.245.291.391.562.407.671.395l.056-.006h44.732l.056.006c.109.012.381-.003.672-.395.322-.432.692-1.368.692-3.245v-8.34zm2.007 8.34c0 2.086-.404 3.518-1.089 4.438-.406.545-.894.883-1.39 1.057v5.934c0 1.28-.537 2.321-1.157 3.075a6.26 6.26 0 01-1.322 1.198V77.79c0 4.606 2.312 8.267 3.43 9.49.435.407 1.11 1.018 2.011 1.805l1.107.959c2.8 2.401 7.091 5.935 12.58 10.119l.409.32c4.168 3.333 6.628 7.75 8.014 11.913 1.421 4.269 1.734 8.332 1.577 10.829v103.146c0 9.093-2.645 14.83-6.105 18.268-3.426 3.404-7.555 4.455-10.391 4.353l-66.934.001c-2.836.102-6.965-.95-10.391-4.354-3.46-3.438-6.105-9.175-6.105-18.268V123.225c-.158-2.497.156-6.56 1.577-10.829 1.431-4.297 4.006-8.866 8.423-12.233l2.278-1.751c5.141-3.99 9.042-7.259 11.409-9.327l1.201-1.064c.326-.293.596-.541.809-.74 1.118-1.223 3.431-4.885 3.431-9.49V61.983a6.256 6.256 0 01-1.321-1.198c-.62-.754-1.157-1.794-1.157-3.075v-5.934c-.496-.174-.985-.512-1.391-1.057-.685-.92-1.089-2.352-1.089-4.438v-8.34c0-1.01.333-2.48 1.339-3.718 1.041-1.281 2.731-2.224 5.242-2.224h38.424c2.511 0 4.201.943 5.242 2.224a6.092 6.092 0 011.339 3.718v8.34z" fill="#fff"/><path d="M212.53 167.061c0-20.728-14.119-36.92-30.84-36.92-16.722 0-30.84 16.192-30.841 36.92 0 20.729 14.119 36.922 30.841 36.922v2l-.848-.013c-17.467-.524-31.546-17.206-31.988-37.904l-.011-1.005c0-21.495 14.706-38.92 32.847-38.92l.847.012c17.749.533 31.999 17.749 32 38.908l-.011 1.005c-.45 21.032-14.979 37.917-32.836 37.917v-2c16.721 0 30.84-16.193 30.84-36.922z" fill="#fff"/><path d="M169.427 160.587c8.579-11.239 17.996-13.305 22.262-12.793l.397.057.344.059.233.26c3.717 4.141 9.079 15.474 1.347 28.063-7.679 12.503-17.693 12.645-21.993 10.907l-.145-.058-.12-.1c-2.302-1.912-5.152-5.501-6.297-10.128-1.157-4.679-.549-10.344 3.972-16.267zm22.376-10.318c-18.104 16.105-19.828 29.998-18.58 35.18 3.646 1.188 12.186.961 19.077-10.26 6.696-10.903 2.748-20.703-.497-24.92zm-2.438-.496c-4.189.376-11.447 2.992-18.342 12.025-4.155 5.444-4.632 10.488-3.62 14.577.686 2.772 2.067 5.138 3.516 6.908-.328-6.978 3.233-19.544 18.446-33.51z" fill="#fff"/></svg>