<svg width="365" height="280" viewBox="0 0 365 280" fill="none" xmlns="http://www.w3.org/2000/svg"><path fill="#EBA400" d="M0 0h365v280H0z"/><path d="M182.81 37.032c4.65-.317 10.153 1.685 15.907 8.103 2.71.516 6.706 1.674 10.36 3.581 3.563 1.86 6.992 4.53 8.404 8.181 1.989.181 4.682.923 7.117 2.63 2.674 1.874 5.014 4.898 5.76 9.522l4.361 2.737c10.906 1.107 16.821 3.607 19.972 6.437 3.044 2.735 3.403 5.677 3.294 7.606l-.028.372c-.115 1.268.056 4.974.335 9.213.275 4.19.645 8.778.903 11.722l.027.314-.156.274c-1.509 2.633-4.084 4.835-7.42 6.686 2.662 9.442 5.967 25.061 7.517 42.307 1.577 17.539 1.348 36.848-3.267 53.067 2.88 3.772 6.654 9.46 8.971 14.773 1.196 2.744 2.043 5.473 2.126 7.825.085 2.38-.621 4.549-2.717 5.797-1.887 1.122-4.413 1.573-7.148 1.632-2.755.059-5.835-.278-8.914-.827-5.965-1.063-12.041-2.941-15.969-4.403-16.813 7.151-36.931 8.981-55.505 8.28-18.539-.7-35.629-3.926-46.526-6.975-4.028 1.552-10.225 3.486-16.144 4.392-3.035.465-6.042.667-8.665.389-2.603-.276-4.97-1.041-6.565-2.642-1.665-1.672-2.047-4.003-1.746-6.446.301-2.443 1.3-5.163 2.618-7.854 2.546-5.197 6.402-10.526 9.294-13.997-3.27-14.549-3.538-33.466-2.512-51.373 1.012-17.684 3.291-34.466 5.226-45.237-4.45-2.008-6.317-5.801-6.816-9.67-.505-3.923.373-7.995 1.36-10.645-.194-2.139-.239-5.36.244-8.402.251-1.58.65-3.15 1.265-4.507.613-1.353 1.473-2.565 2.687-3.326 2.121-1.331 5.657-2.495 9.105-3.407a106.323 106.323 0 018.958-1.938c1.702-1.262 3.633-2.193 5.762-2.489.451-1.854 1.473-4.286 3.27-6.391 1.971-2.309 4.883-4.225 8.951-4.523 1.672-3.586 6.465-9.891 14.614-10.846 1.587-2.395 5.709-6.046 11.948-5.104 1.966-2.214 5.38-4.54 9.742-4.838zm-69.194 76.831c-1.907 10.711-4.133 27.222-5.128 44.608-1.034 18.056-.737 36.968 2.574 51.296l.2.845a66.152 66.152 0 001.601 5.58l-1.892.644a66.372 66.372 0 01-1.378-4.663c-2.677 3.353-5.9 7.969-8.089 12.437-1.275 2.602-2.167 5.091-2.429 7.215-.262 2.125.12 3.722 1.177 4.783 1.127 1.131 2.957 1.81 5.363 2.065 2.388.253 5.208.075 8.154-.376 4.967-.76 10.17-2.278 14.03-3.654a63.485 63.485 0 01-4.115-2.645c-2.176-1.53-4.381-3.33-5.484-4.993l1.661-1.112c.875 1.319 2.794 2.934 4.968 4.462a61.597 61.597 0 005.712 3.542c10.743 3.026 27.78 6.261 46.274 6.96 18.566.701 38.509-1.158 55.013-8.275l.831-.364c4.143-1.844 8.057-4.026 11.667-6.587l1.152 1.637c-3.31 2.348-6.859 4.38-10.587 6.131 3.753 1.289 8.761 2.737 13.672 3.612 3.006.535 5.945.851 8.523.796 2.598-.056 4.719-.489 6.172-1.353 1.243-.74 1.808-2.048 1.739-4-.07-1.979-.8-4.435-1.96-7.093-2.017-4.627-5.216-9.608-7.898-13.254-1.572 4.418-3.169 7-3.92 7.862l-.75-.661-.752-.66c.594-.682 2.415-3.555 4.125-8.947 4.647-15.969 4.915-35.198 3.332-52.804-1.517-16.883-4.73-32.19-7.34-41.553-6.949 3.348-16.852 5.584-28.283 7.029-11.317 1.431-24.219 2.1-37.401 2.279l-2.639.03c-34.589.302-56.101-6.418-67.895-10.819zm75.727 40.485c5.443-.249 9.549 2.508 10.453 6.687.225 1.037.25 2.512.113 4.214-.139 1.723-.451 3.749-.94 5.923-.978 4.342-2.681 9.332-5.198 13.708-2.509 4.365-5.886 8.216-10.253 10.12-4.42 1.928-9.69 1.791-15.788-1.511l-.123-.067-.099-.097c-2.066-2.017-4.355-5.799-4.669-10.682-.316-4.922 1.38-10.848 7.103-17.105l.662-.712c6.838-7.216 13.459-10.237 18.739-10.478zm.09 2.002c-4.607.21-10.775 2.885-17.38 9.855l-.64.689c-5.41 5.913-6.857 11.32-6.581 15.619.216 3.36 1.49 6.113 2.866 7.978 2.278-8.192 9.541-23.257 24.491-30.761l.893 1.793c-14.953 7.506-21.925 23.043-23.734 30.55 5.351 2.711 9.758 2.666 13.375 1.089 3.819-1.666 6.919-5.111 9.319-9.284 2.393-4.162 4.033-8.953 4.978-13.149.472-2.095.768-4.027.898-5.642.132-1.636.089-2.878-.073-3.626-.641-2.963-3.649-5.329-8.412-5.111zm-63.731-82.559c-1.723.352-3.684.794-5.628 1.308-3.45.912-6.718 2.015-8.556 3.168-.765.48-1.409 1.313-1.928 2.457-.516 1.14-.875 2.519-1.109 3.992-.468 2.948-.41 6.119-.21 8.125l.025.239-.087.224c-.939 2.43-1.789 6.278-1.324 9.886.458 3.558 2.168 6.799 6.313 8.374l2.25.84c11.853 4.335 32.846 10.563 66.045 10.273l2.632-.03c13.138-.178 25.959-.845 37.176-2.263 11.991-1.516 22.049-3.88 28.705-7.365l.646-.347c3.039-1.682 5.233-3.581 6.525-5.689a591.44 591.44 0 01-.877-11.437c-.274-4.16-.464-8.062-.331-9.526l.021-.294c.09-1.518-.167-3.796-2.631-6.01-2.478-2.225-7.278-4.47-16.46-5.66a269.61 269.61 0 014.557 5.22 97.855 97.855 0 012.849 3.494c.382.499.714.953.969 1.337l.01.016 4.076-2.302.979 1.748-4.948 2.795-.001-.001c-6.626 3.798-28.991 10.716-67.049 9.507l-1.825-.064c-29.455-1.123-47.072-5.834-55.851-9.752l-.821-.377c-2.443-1.148-4.164-2.24-5.193-3.168l1.336-1.49c.703.635 1.924 1.453 3.745 2.374 1.132-2.756 3.169-6.552 5.97-9.602zm71.752-27.069c-5.543-6.29-10.571-7.958-14.508-7.69-3.988.273-7.089 2.544-8.708 4.552l-.378.468-.588-.114c-5.885-1.136-9.599 2.552-10.696 4.48l-.259.456-.521.046c-7.892.7-12.433 7.12-13.698 10.245l-.244.605-.651.02c-3.761.114-6.37 1.794-8.132 3.858-1.785 2.09-2.693 4.572-2.976 6.182l-.136.775-.782.05c-1.898.124-3.679.886-5.319 2.07l-.326.243c-3.814 2.915-6.625 7.913-7.993 11.281 8.484 3.772 25.81 8.439 55.052 9.553l1.817.064c36.257 1.151 57.912-5.133 65.113-8.776-.21-.307-.477-.678-.798-1.097a95.777 95.777 0 00-2.788-3.42 287.62 287.62 0 00-6.194-7.036l-5.229-3.282-.063-.465c-.578-4.3-2.656-6.981-4.994-8.62-2.371-1.661-5.037-2.264-6.724-2.311l-.714-.02-.213-.685c-.992-3.21-4.016-5.764-7.647-7.659-3.597-1.877-7.579-2.998-10.128-3.45l-.344-.06-.231-.263zm14.616 32.554c.831-.32 2.147-.532 3.473-.124 1.386.426 2.673 1.495 3.392 3.517l-1.88.675c-.517-1.456-1.343-2.043-2.096-2.274-.812-.25-1.663-.12-2.172.077l-.717-1.87zm-64.897-2.79l.218.978c-.79.176-1.271.638-1.575 1.177-.32.567-.427 1.2-.427 1.571h-1.997c0-.663.171-1.646.686-2.559.531-.94 1.442-1.825 2.879-2.146l.216.98zm33.93-1.705a3.653 3.653 0 012.637.3c.877.457 1.658 1.273 2.338 2.456l-1.73 1.002c-.556-.967-1.09-1.45-1.527-1.678a1.663 1.663 0 00-1.229-.136c-.896.228-1.801 1.072-2.362 1.885l-1.641-1.143c.676-.98 1.936-2.286 3.514-2.686zm-21.466-9.503c1.504-1.023 3.686-1.427 6.66-.627l-.516 1.937c-2.566-.69-4.116-.268-5.025.35-.94.639-1.362 1.598-1.462 2.248l-.987-.151-.987-.153c.169-1.108.843-2.603 2.317-3.604zm42.515-.586c.976-.403 2.541-.776 3.975-.409.744.19 1.472.587 2.028 1.294.551.702.87 1.63.941 2.773l-1.993.126c-.053-.844-.275-1.35-.516-1.657-.238-.303-.557-.492-.954-.594-.849-.217-1.944 0-2.72.321l-.761-1.854zm-15.745-12.181c.899-.068 1.841.136 2.66.803.801.654 1.384 1.672 1.75 3.042l-1.929.519c-.297-1.114-.708-1.7-1.08-2.004-.355-.29-.767-.398-1.253-.361-1.057.079-2.298.835-3.145 1.606l-1.342-1.485c.973-.885 2.625-1.992 4.339-2.12z" fill="#fff"/><path d="M215.379 175.84c0-18.441-14.891-33.39-33.259-33.39-18.369 0-33.259 14.95-33.259 33.39 0 18.441 14.89 33.39 33.259 33.39v2.005l-.91-.011c-18.749-.477-33.86-15.648-34.334-34.47l-.012-.914c0-19.548 15.785-35.394 35.256-35.395l.91.012c19.051.484 34.346 16.14 34.346 35.383l-.011.914c-.482 19.126-16.078 34.481-35.245 34.481v-2.005c18.369 0 33.259-14.949 33.259-33.39z" fill="#fff"/></svg>