<svg width="44" height="45" viewBox="0 0 44 45" fill="none" xmlns="http://www.w3.org/2000/svg">
<mask id="path-1-inside-1_194_955" fill="white">
<path d="M8.80455 0.165741C8.52079 0.262482 8.09946 0.499939 7.8587 0.684631C7.62654 0.878113 5.88103 2.61947 3.98074 4.57191C1.04003 7.5885 0.498318 8.19534 0.283354 8.64388L0.0339949 9.17156L0.0081992 25.7057C-0.00899796 43.9636 -0.0519909 42.6971 0.532713 43.5678C0.928247 44.1571 1.55594 44.632 2.22663 44.8343C2.77694 45.0102 3.0091 45.0102 17.6181 44.9926L32.4506 44.9662L32.9838 44.7111C33.5771 44.4385 34.2563 43.7701 34.5401 43.1984C34.8754 42.5212 35.0216 41.0701 34.8067 40.5776C34.6089 40.1291 33.921 40.0939 33.706 40.516C33.6544 40.6128 33.6115 40.947 33.6115 41.2724C33.6115 42.1782 33.4739 42.6004 33.0182 43.0841C32.7516 43.3567 32.5022 43.5326 32.2701 43.5942C32.0121 43.6646 27.7214 43.6821 17.257 43.6734L2.59637 43.647L2.18364 43.3831C1.87409 43.1896 1.69352 42.9874 1.52155 42.6444L1.28079 42.1782V25.9168V9.66407L4.48806 9.63768C7.35139 9.6113 7.72113 9.59371 8.03067 9.453C8.42621 9.2683 8.86474 8.86374 9.13129 8.42401C9.31186 8.12498 9.32046 8.01945 9.36345 4.73021L9.40645 1.34423L20.662 1.31785C28.6157 1.30906 32.0207 1.32664 32.2701 1.397C32.7602 1.52893 33.3793 2.19733 33.5083 2.73381C33.5771 3.01524 33.6115 4.52794 33.6115 7.71163C33.6115 12.1794 33.62 12.3025 33.7834 12.4696C34.0414 12.7334 34.4971 12.7071 34.7207 12.4168C34.9012 12.1882 34.9012 12.1002 34.9012 7.62368C34.9012 2.90091 34.8754 2.46996 34.5401 1.79277C34.2563 1.22111 33.5771 0.552708 32.9838 0.280071L32.4506 0.0250244L20.8856 0.00743484C9.40645 -0.0101547 9.32046 -0.0101547 8.80455 0.165741ZM7.93609 7.86994C7.66953 8.30088 7.42018 8.33606 4.70302 8.33606H2.18364L5.10716 5.34584L8.03067 2.35563L8.05647 5.00285C8.07367 7.30708 8.05647 7.68525 7.93609 7.86994Z"/>
</mask>
<path d="M8.80455 0.165741C8.52079 0.262482 8.09946 0.499939 7.8587 0.684631C7.62654 0.878113 5.88103 2.61947 3.98074 4.57191C1.04003 7.5885 0.498318 8.19534 0.283354 8.64388L0.0339949 9.17156L0.0081992 25.7057C-0.00899796 43.9636 -0.0519909 42.6971 0.532713 43.5678C0.928247 44.1571 1.55594 44.632 2.22663 44.8343C2.77694 45.0102 3.0091 45.0102 17.6181 44.9926L32.4506 44.9662L32.9838 44.7111C33.5771 44.4385 34.2563 43.7701 34.5401 43.1984C34.8754 42.5212 35.0216 41.0701 34.8067 40.5776C34.6089 40.1291 33.921 40.0939 33.706 40.516C33.6544 40.6128 33.6115 40.947 33.6115 41.2724C33.6115 42.1782 33.4739 42.6004 33.0182 43.0841C32.7516 43.3567 32.5022 43.5326 32.2701 43.5942C32.0121 43.6646 27.7214 43.6821 17.257 43.6734L2.59637 43.647L2.18364 43.3831C1.87409 43.1896 1.69352 42.9874 1.52155 42.6444L1.28079 42.1782V25.9168V9.66407L4.48806 9.63768C7.35139 9.6113 7.72113 9.59371 8.03067 9.453C8.42621 9.2683 8.86474 8.86374 9.13129 8.42401C9.31186 8.12498 9.32046 8.01945 9.36345 4.73021L9.40645 1.34423L20.662 1.31785C28.6157 1.30906 32.0207 1.32664 32.2701 1.397C32.7602 1.52893 33.3793 2.19733 33.5083 2.73381C33.5771 3.01524 33.6115 4.52794 33.6115 7.71163C33.6115 12.1794 33.62 12.3025 33.7834 12.4696C34.0414 12.7334 34.4971 12.7071 34.7207 12.4168C34.9012 12.1882 34.9012 12.1002 34.9012 7.62368C34.9012 2.90091 34.8754 2.46996 34.5401 1.79277C34.2563 1.22111 33.5771 0.552708 32.9838 0.280071L32.4506 0.0250244L20.8856 0.00743484C9.40645 -0.0101547 9.32046 -0.0101547 8.80455 0.165741ZM7.93609 7.86994C7.66953 8.30088 7.42018 8.33606 4.70302 8.33606H2.18364L5.10716 5.34584L8.03067 2.35563L8.05647 5.00285C8.07367 7.30708 8.05647 7.68525 7.93609 7.86994Z" fill="#180113"/>
<path d="M7.8587 0.684631L6.57827 -0.851761L6.60932 -0.87764L6.6414 -0.902241L7.8587 0.684631ZM3.98074 4.57191L5.41397 5.96685L5.41285 5.96799L3.98074 4.57191ZM0.283354 8.64388L-1.52494 7.78936L-1.52021 7.7795L0.283354 8.64388ZM0.0339949 9.17156L-1.966 9.16844L-1.96531 8.72132L-1.77427 8.31706L0.0339949 9.17156ZM0.0081992 25.7057L-1.9918 25.7038L-1.9918 25.7026L0.0081992 25.7057ZM0.532713 43.5678L2.19306 42.4528L2.19329 42.4531L0.532713 43.5678ZM2.22663 44.8343L2.80414 42.9195L2.81988 42.9242L2.83554 42.9292L2.22663 44.8343ZM17.6181 44.9926L17.6216 46.9926L17.6205 46.9926L17.6181 44.9926ZM32.4506 44.9662L33.3138 46.7703L32.9061 46.9654L32.4542 46.9662L32.4506 44.9662ZM32.9838 44.7111L32.1206 42.907L32.1346 42.9003L32.1487 42.8938L32.9838 44.7111ZM34.5401 43.1984L36.3324 44.086L36.3315 44.0877L34.5401 43.1984ZM34.8067 40.5776L36.6367 39.7707L36.6397 39.7775L34.8067 40.5776ZM33.706 40.516L35.4883 41.4236L35.4797 41.4404L35.4708 41.4572L33.706 40.516ZM33.0182 43.0841L34.4738 44.4556L34.4612 44.469L34.4482 44.4823L33.0182 43.0841ZM32.2701 43.5942L31.7438 41.6646L31.7574 41.661L32.2701 43.5942ZM17.257 43.6734L17.2553 45.6734L17.2534 45.6733L17.257 43.6734ZM2.59637 43.647L2.59277 45.647L2.01009 45.6459L1.51915 45.3321L2.59637 43.647ZM2.18364 43.3831L3.2437 41.6872L3.25231 41.6925L3.26086 41.698L2.18364 43.3831ZM1.52155 42.6444L3.29851 41.7265L3.30403 41.7372L3.30941 41.748L1.52155 42.6444ZM1.28079 42.1782L-0.49617 43.0961L-0.719211 42.6643V42.1782H1.28079ZM1.28079 9.66407H-0.719211V7.68045L1.26434 7.66413L1.28079 9.66407ZM4.48806 9.63768L4.50649 11.6376L4.50451 11.6376L4.48806 9.63768ZM8.03067 9.453L8.87685 11.2652L8.86761 11.2695L8.85834 11.2737L8.03067 9.453ZM9.13129 8.42401L10.8434 9.45787L10.8416 9.46075L9.13129 8.42401ZM9.36345 4.73021L11.3633 4.75561L11.3633 4.75635L9.36345 4.73021ZM9.40645 1.34423L7.40661 1.31884L7.43162 -0.651142L9.40176 -0.655758L9.40645 1.34423ZM20.662 1.31785L20.6573 -0.682144L20.6598 -0.682148L20.662 1.31785ZM32.2701 1.397L31.7502 3.32827L31.7386 3.32513L31.727 3.32185L32.2701 1.397ZM33.5083 2.73381L31.5654 3.20868L31.5637 3.20132L33.5083 2.73381ZM34.7207 12.4168L33.1362 11.1963L33.1436 11.1868L33.1511 11.1773L34.7207 12.4168ZM34.5401 1.79277L36.3315 0.903549L36.3324 0.905235L34.5401 1.79277ZM32.9838 0.280071L32.1487 2.09738L32.1346 2.09092L32.1206 2.08423L32.9838 0.280071ZM32.4506 0.0250244L32.4537 -1.97497L32.9059 -1.97429L33.3138 -1.77914L32.4506 0.0250244ZM20.8856 0.00743484L20.8825 2.00743H20.8825L20.8856 0.00743484ZM7.93609 7.86994L6.23517 6.81785L6.24764 6.7977L6.26058 6.77785L7.93609 7.86994ZM2.18364 8.33606V10.3361H-2.56881L0.753567 6.93789L2.18364 8.33606ZM8.03067 2.35563L6.6006 0.957458L9.98343 -2.50254L10.0306 2.33614L8.03067 2.35563ZM8.05647 5.00285L10.0564 4.98336L10.0564 4.98792L8.05647 5.00285ZM9.44994 2.05874C9.46585 2.05332 9.45502 2.05616 9.41564 2.07451C9.3795 2.09135 9.33403 2.11439 9.28366 2.14225C9.2336 2.16995 9.18605 2.19834 9.14564 2.22418C9.10337 2.25122 9.08062 2.26796 9.07601 2.2715L6.6414 -0.902241C7.02394 -1.19569 7.63546 -1.54872 8.15915 -1.72726L9.44994 2.05874ZM9.13914 2.22102C9.15693 2.20618 9.07136 2.2836 8.82032 2.52907C8.602 2.74255 8.30866 3.03338 7.96013 3.38223C7.26381 4.07919 6.3585 4.9964 5.41397 5.96685L2.54752 3.17696C3.50328 2.19498 4.42086 1.2653 5.13041 0.555099C5.78865 -0.103748 6.37191 -0.679775 6.57827 -0.851761L9.13914 2.22102ZM5.41285 5.96799C3.93683 7.48211 3.09287 8.36098 2.59203 8.91377C2.0655 9.49492 2.05671 9.57129 2.08692 9.50826L-1.52021 7.7795C-1.27504 7.26793 -0.905487 6.81661 -0.37225 6.22806C0.186691 5.61115 1.08394 4.67831 2.54863 3.17582L5.41285 5.96799ZM2.09162 9.49837L1.84226 10.0261L-1.77427 8.31706L-1.52491 7.78938L2.09162 9.49837ZM2.03399 9.17468L2.0082 25.7088L-1.9918 25.7026L-1.966 9.16844L2.03399 9.17468ZM2.0082 25.7076C1.99957 34.866 1.98486 39.064 2.0439 41.0989C2.05849 41.6016 2.07682 41.939 2.0974 42.1704C2.11869 42.4097 2.13749 42.4741 2.1327 42.4564C2.09627 42.3213 1.84646 41.9367 2.19306 42.4528L-1.12764 44.6828C-1.13564 44.6709 -1.14435 44.6587 -1.1779 44.6133C-1.20385 44.5782 -1.27 44.4898 -1.33605 44.388C-1.50178 44.1326 -1.63486 43.8482 -1.72936 43.4977C-1.87837 42.9452 -1.92535 42.2167 -1.95442 41.215C-2.01575 39.101 -2.00037 34.8033 -1.9918 25.7038L2.0082 25.7076ZM2.19329 42.4531C2.34273 42.6758 2.59561 42.8566 2.80414 42.9195L1.64913 46.7491C0.516277 46.4074 -0.486232 45.6384 -1.12786 44.6825L2.19329 42.4531ZM2.83554 42.9292C2.87495 42.9418 2.8513 42.9334 2.82369 42.9281C2.81026 42.9255 2.83966 42.9324 2.95832 42.9412C3.21299 42.9603 3.6897 42.9761 4.67062 42.9861C6.60888 43.0057 10.3028 43.0014 17.6157 42.9926L17.6205 46.9926C10.3244 47.0013 6.59774 47.0058 4.63009 46.9859C2.77158 46.967 2.24001 46.9382 1.61772 46.7393L2.83554 42.9292ZM17.6145 42.9926L32.4471 42.9662L32.4542 46.9662L17.6216 46.9926L17.6145 42.9926ZM31.5875 43.162L32.1206 42.907L33.8469 46.5153L33.3138 46.7703L31.5875 43.162ZM32.1487 42.8938C32.1483 42.894 32.1511 42.8927 32.1569 42.8896C32.1627 42.8865 32.1709 42.882 32.1813 42.8757C32.2026 42.863 32.2301 42.8451 32.263 42.8212C32.33 42.7726 32.4055 42.7093 32.4814 42.6354C32.5572 42.5614 32.6225 42.4872 32.673 42.4213C32.6978 42.389 32.7165 42.3618 32.7299 42.3409C32.7434 42.3197 32.7488 42.3089 32.7486 42.3092L36.3315 44.0877C36.0622 44.6303 35.6645 45.1182 35.2747 45.4985C34.8849 45.8788 34.3818 46.2698 33.8189 46.5284L32.1487 42.8938ZM32.7478 42.3109C32.742 42.3227 32.7714 42.2608 32.809 42.1046C32.8434 41.9613 32.8724 41.7905 32.8899 41.6171C32.9078 41.4408 32.9104 41.2968 32.9056 41.2041C32.9032 41.1585 32.9 41.1455 32.9025 41.1594C32.9035 41.1647 32.9181 41.2504 32.9736 41.3777L36.6397 39.7775C36.8387 40.2335 36.8849 40.7044 36.9001 40.9952C36.9178 41.3343 36.9033 41.6877 36.8695 42.0204C36.8073 42.6342 36.6532 43.4381 36.3324 44.086L32.7478 42.3109ZM32.9766 41.3845C33.2379 41.9771 33.7759 42.1969 34.1548 42.2174C34.5291 42.2376 35.1568 42.0746 35.4883 41.4236L31.9238 39.6085C32.4703 38.5353 33.5494 38.1788 34.3708 38.2232C35.1968 38.2679 36.1776 38.7296 36.6367 39.7707L32.9766 41.3845ZM35.4708 41.4572C35.5088 41.3858 35.5353 41.3249 35.5524 41.2822C35.5701 41.2382 35.5827 41.2014 35.5913 41.1746C35.608 41.1226 35.6169 41.0851 35.6204 41.0694C35.6274 41.0389 35.6269 41.0332 35.6237 41.0588C35.6174 41.1087 35.6115 41.1899 35.6115 41.2724H31.6115C31.6115 41.0295 31.627 40.7809 31.6551 40.5581C31.6691 40.4475 31.6891 40.3197 31.7185 40.1891C31.738 40.1028 31.7966 39.8462 31.9413 39.5749L35.4708 41.4572ZM35.6115 41.2724C35.6115 41.8017 35.5754 42.3814 35.3865 42.9585C35.1815 43.5852 34.8478 44.0586 34.4738 44.4556L31.5625 41.7126C31.6118 41.6603 31.62 41.6439 31.6127 41.6555C31.6023 41.672 31.5911 41.6955 31.5849 41.7146C31.5802 41.7288 31.5878 41.7121 31.5959 41.6417C31.6044 41.5676 31.6115 41.4525 31.6115 41.2724H35.6115ZM34.4482 44.4823C34.0931 44.8455 33.5354 45.3278 32.7827 45.5274L31.7574 41.661C31.6736 41.6832 31.6105 41.7098 31.5695 41.7299C31.5286 41.7498 31.5047 41.7657 31.4979 41.7704C31.4878 41.7774 31.518 41.7576 31.5881 41.6859L34.4482 44.4823ZM32.7963 45.5237C32.5753 45.584 32.363 45.598 32.3391 45.5999C32.2543 45.607 32.1611 45.6121 32.0686 45.6162C31.8809 45.6245 31.6315 45.6313 31.3249 45.6371C30.7084 45.6488 29.8094 45.6574 28.601 45.6634C26.1814 45.6756 22.4872 45.6777 17.2553 45.6734L17.2586 41.6734C22.4911 41.6777 26.1745 41.6755 28.5809 41.6635C29.7855 41.6574 30.6616 41.649 31.2491 41.6378C31.5446 41.6322 31.7545 41.6262 31.8916 41.6201C31.9616 41.617 31.9972 41.6146 32.0087 41.6136C32.0812 41.6076 31.9326 41.6132 31.7438 41.6647L32.7963 45.5237ZM17.2534 45.6733L2.59277 45.647L2.59997 41.647L17.2606 41.6734L17.2534 45.6733ZM1.51915 45.3321L1.10642 45.0682L3.26086 41.698L3.67359 41.9619L1.51915 45.3321ZM1.12358 45.0791C0.483747 44.6792 0.0599793 44.1916 -0.266316 43.5408L3.30941 41.748C3.3251 41.7792 3.33122 41.7878 3.32758 41.7822C3.323 41.7752 3.31076 41.7578 3.29095 41.7356C3.27091 41.7132 3.25189 41.6959 3.2383 41.6848C3.22596 41.6747 3.225 41.6755 3.2437 41.6872L1.12358 45.0791ZM-0.25541 43.5622L-0.49617 43.0961L3.05775 41.2604L3.29851 41.7265L-0.25541 43.5622ZM-0.719211 42.1782V25.9168H3.28079V42.1782H-0.719211ZM-0.719211 25.9168V9.66407H3.28079V25.9168H-0.719211ZM1.26434 7.66413L4.47161 7.63775L4.50451 11.6376L1.29724 11.664L1.26434 7.66413ZM4.46963 7.63777C5.91978 7.6244 6.67735 7.61345 7.11377 7.59088C7.55234 7.56821 7.40665 7.53971 7.20301 7.63229L8.85834 11.2737C8.34515 11.507 7.85981 11.5577 7.3203 11.5855C6.77863 11.6136 5.91967 11.6246 4.50649 11.6376L4.46963 7.63777ZM7.1845 7.64082C7.16137 7.65162 7.16214 7.65378 7.18357 7.63875C7.2037 7.62463 7.23259 7.60195 7.26623 7.57062C7.33874 7.50309 7.39326 7.43299 7.42098 7.38726L10.8416 9.46075C10.3976 10.1932 9.67615 10.8919 8.87685 11.2652L7.1845 7.64082ZM7.41924 7.39015C7.42039 7.38823 7.34495 7.51501 7.30207 7.67994C7.27918 7.76795 7.28981 7.77964 7.30297 7.57196C7.329 7.16112 7.34172 6.38 7.36363 4.70407L11.3633 4.75635C11.3422 6.36966 11.3291 7.28593 11.295 7.82492C11.278 8.09216 11.25 8.39187 11.1733 8.68657C11.0767 9.05817 10.9325 9.31027 10.8433 9.45787L7.41924 7.39015ZM7.36362 4.70482L7.40661 1.31884L11.4063 1.36963L11.3633 4.75561L7.36362 4.70482ZM9.40176 -0.655758L20.6573 -0.682144L20.6667 3.31785L9.41114 3.34423L9.40176 -0.655758ZM20.6598 -0.682148C24.6364 -0.686543 27.483 -0.684361 29.368 -0.672211C30.309 -0.666149 31.0207 -0.657547 31.5173 -0.645714C31.7637 -0.639839 31.9718 -0.632847 32.1344 -0.624016C32.2145 -0.619663 32.3001 -0.614006 32.3818 -0.605968C32.4174 -0.602463 32.6073 -0.585945 32.8132 -0.527843L31.727 3.32185C31.8382 3.35324 31.923 3.36578 31.9412 3.3685C31.9714 3.37303 31.9899 3.37479 31.9902 3.37482C31.9907 3.37487 31.9699 3.37294 31.9174 3.3701C31.815 3.36454 31.654 3.35868 31.4219 3.35315C30.9614 3.34217 30.2779 3.33373 29.3423 3.32771C27.4741 3.31567 24.6413 3.31345 20.6642 3.31785L20.6598 -0.682148ZM32.7899 -0.53426C33.5503 -0.32959 34.1376 0.17218 34.4919 0.554634C34.8599 0.951923 35.2805 1.5492 35.4529 2.26629L31.5637 3.20132C31.5785 3.26297 31.5946 3.30346 31.6025 3.32184C31.6108 3.34103 31.6154 3.34799 31.6129 3.34377C31.6064 3.33284 31.5874 3.3052 31.5573 3.27276C31.5267 3.23969 31.507 3.22577 31.5111 3.22866C31.5145 3.23102 31.5326 3.24336 31.5664 3.26022C31.599 3.2765 31.6608 3.3042 31.7502 3.32827L32.7899 -0.53426ZM35.4511 2.25894C35.5197 2.53974 35.5394 2.87555 35.5503 3.07118C35.5651 3.33582 35.5764 3.677 35.5852 4.09198C35.6029 4.92496 35.6115 6.11603 35.6115 7.71163H31.6115C31.6115 6.12354 31.6028 4.96641 31.5861 4.17675C31.5777 3.78042 31.5675 3.49168 31.5565 3.29404C31.5416 3.0274 31.5312 3.06859 31.5655 3.20868L35.4511 2.25894ZM35.6115 7.71163C35.6115 9.96889 35.614 11.0666 35.6348 11.6294C35.6463 11.9402 35.6604 11.9397 35.6381 11.8416C35.6204 11.7636 35.5761 11.6037 35.4703 11.4165C35.3599 11.221 35.2375 11.0959 35.2135 11.0714L32.3533 13.8678C32.2885 13.8015 32.1301 13.636 31.9879 13.3844C31.8504 13.141 31.7786 12.9091 31.7372 12.7263C31.6673 12.4185 31.6486 12.0767 31.6375 11.7773C31.6132 11.1198 31.6115 9.9221 31.6115 7.71163H35.6115ZM35.2135 11.0714C34.8982 10.749 34.494 10.6347 34.1515 10.6542C33.8095 10.6736 33.416 10.8332 33.1362 11.1963L36.3051 13.6373C35.3343 14.8975 33.4553 14.9948 32.3533 13.8678L35.2135 11.0714ZM33.1511 11.1773C33.1572 11.1696 33.0809 11.2627 33.0081 11.4017C32.9316 11.548 32.8938 11.6751 32.876 11.7524C32.8545 11.846 32.8688 11.8442 32.88 11.5393C32.9008 10.977 32.9012 9.88919 32.9012 7.62368H36.9012C36.9012 9.83471 36.9016 11.0291 36.8773 11.6871C36.866 11.9924 36.8464 12.3352 36.7741 12.6495C36.6627 13.1336 36.4556 13.447 36.2903 13.6563L33.1511 11.1773ZM32.9012 7.62368C32.9012 5.23215 32.8938 4.02001 32.8502 3.31448C32.8132 2.71526 32.7656 2.71612 32.7478 2.6803L36.3324 0.905235C36.65 1.54661 36.7829 2.10154 36.8426 3.06778C36.8958 3.92772 36.9012 5.29245 36.9012 7.62368H32.9012ZM32.7486 2.68199C32.7488 2.68232 32.7434 2.67155 32.7299 2.65028C32.7165 2.62936 32.6978 2.60222 32.673 2.56988C32.6225 2.50398 32.5572 2.4298 32.4814 2.35585C32.4055 2.28189 32.33 2.21856 32.263 2.16997C32.2301 2.14614 32.2026 2.12821 32.1813 2.11549C32.1709 2.10923 32.1627 2.10468 32.1569 2.1016C32.1511 2.0985 32.1483 2.09723 32.1487 2.09738L33.8189 -1.53724C34.3818 -1.27855 34.8849 -0.887554 35.2747 -0.507278C35.6645 -0.126957 36.0622 0.360947 36.3315 0.903549L32.7486 2.68199ZM32.1206 2.08423L31.5875 1.82919L33.3138 -1.77914L33.8469 -1.52409L32.1206 2.08423ZM32.4476 2.02502L20.8825 2.00743L20.8886 -1.99256L32.4537 -1.97497L32.4476 2.02502ZM20.8825 2.00743C15.1321 1.99862 12.2619 1.99432 10.7599 2.01386C9.99558 2.02381 9.6525 2.03958 9.48295 2.05553C9.4085 2.06254 9.46158 2.05478 9.44994 2.05874L8.15915 -1.72726C8.76563 -1.93403 9.23407 -1.96663 10.7078 -1.9858C12.2476 -2.00583 15.1599 -2.00134 20.8886 -1.99256L20.8825 2.00743ZM9.637 8.92202C9.49965 9.14409 9.23658 9.52619 8.75258 9.82554C8.31169 10.0982 7.85879 10.1959 7.5235 10.2442C6.91029 10.3325 5.99011 10.3361 4.70302 10.3361V6.33606C5.38394 6.33606 5.88608 6.33378 6.26804 6.32443C6.66254 6.31477 6.85878 6.29865 6.95356 6.28501C7.05358 6.27061 6.88281 6.27873 6.64856 6.42361C6.37119 6.59516 6.23925 6.81126 6.23517 6.81785L9.637 8.92202ZM4.70302 10.3361H2.18364V6.33606H4.70302V10.3361ZM0.753567 6.93789L3.67708 3.94767L6.53723 6.74402L3.61371 9.73423L0.753567 6.93789ZM3.67708 3.94767L6.6006 0.957458L9.46075 3.75381L6.53723 6.74402L3.67708 3.94767ZM10.0306 2.33614L10.0564 4.98336L6.05657 5.02234L6.03077 2.37512L10.0306 2.33614ZM10.0564 4.98792C10.0649 6.12339 10.0658 6.84969 10.0461 7.31593C10.0315 7.65876 10.0128 8.34652 9.6116 8.96203L6.26058 6.77785C6.10736 7.01292 6.05679 7.22253 6.04237 7.29942C6.03379 7.3452 6.04219 7.32284 6.04967 7.14651C6.0643 6.80143 6.06525 6.18654 6.05653 5.01778L10.0564 4.98792Z" fill="#180113" mask="url(#path-1-inside-1_194_955)"/>
<path d="M18.9029 8.5876C18.9028 8.58764 18.9048 8.58811 18.9091 8.58893C18.9052 8.58798 18.903 8.58757 18.9029 8.5876Z" fill="#180113" stroke="#180113" stroke-width="2"/>
<path d="M33.4546 15.1131L33.4634 15.1097C33.5897 15.0613 33.9599 15.0022 34.256 15.0022H34.2617V15.0022C34.5917 14.9984 34.8353 15.0466 35.0611 15.1508C35.2943 15.2583 35.5409 15.4404 35.8549 15.7534L35.8557 15.7542C36.1467 16.043 36.4243 16.2847 36.7763 16.3968C37.1332 16.5104 37.4933 16.468 37.8858 16.3913L37.8865 16.3911C38.1856 16.3323 38.4101 16.3218 38.6141 16.3489C38.8177 16.376 39.0286 16.4442 39.2958 16.577L39.2964 16.5773C39.9314 16.8918 40.3377 17.4725 40.4672 18.4466L40.4672 18.4467C40.5147 18.8028 40.6262 19.1244 40.8473 19.4114C41.063 19.6914 41.3566 19.9037 41.7096 20.0892C42.0325 20.2607 42.2225 20.3893 42.3654 20.5256C42.5049 20.6587 42.6218 20.8205 42.7671 21.0895L42.7694 21.0938C42.8737 21.2825 42.9067 21.3658 42.9257 21.4589C42.9484 21.57 42.9564 21.7207 42.9564 22.0568C42.9564 22.4017 42.9482 22.5488 42.9219 22.6681C42.8974 22.7794 42.8519 22.8895 42.7193 23.1476L42.7179 23.1502C42.5189 23.5435 42.3803 23.9044 42.3803 24.2984C42.3803 24.6931 42.5194 25.0522 42.719 25.442L42.7193 25.4426C42.8529 25.7026 42.8977 25.8097 42.9221 25.9194C42.9482 26.037 42.9564 26.1835 42.9564 26.5333C42.9564 27.1079 42.9156 27.2341 42.8146 27.4292L42.8134 27.4316C42.5567 27.9341 42.2534 28.229 41.8362 28.4319L41.8359 28.432C41.4644 28.6129 41.1556 28.7947 40.9294 29.0465C40.6888 29.3144 40.5807 29.616 40.5153 29.9541C40.3261 30.8863 40.2624 31.0616 40.0915 31.3211C39.9726 31.4961 39.7903 31.6834 39.5833 31.8409C39.3721 32.0014 39.1687 32.1054 39.0204 32.1448L39.0113 32.1472L39.0113 32.1473L38.6416 32.2528L38.2819 32.3555L38.2788 32.7295L38.253 35.895C38.253 35.8952 38.253 35.8954 38.253 35.8956C38.2401 37.2757 38.2294 38.0665 38.2063 38.5413C38.1835 39.012 38.1481 39.0883 38.1456 39.0928C38.1454 39.0931 38.1454 39.093 38.1455 39.0928L38.1415 39.0999L38.1377 39.1072C37.9925 39.3857 37.811 39.5257 37.5519 39.5934L37.5402 39.5964L37.5402 39.5966C37.4483 39.623 37.3952 39.629 37.3495 39.6271C37.303 39.6251 37.2341 39.6135 37.1165 39.5666C36.8603 39.4643 36.4786 39.2401 35.7625 38.7846L35.7624 38.7845C35.4402 38.5797 35.136 38.3938 34.9038 38.2581C34.7884 38.1906 34.6869 38.1333 34.6083 38.0917C34.5699 38.0714 34.5307 38.0515 34.4954 38.0356C34.4782 38.0278 34.4546 38.0176 34.4282 38.0084C34.4279 38.0083 34.4275 38.0081 34.4269 38.0079C34.4144 38.0034 34.3399 37.9765 34.2474 37.9765C34.1586 37.9765 34.0876 38.0008 34.0718 38.0062C34.0712 38.0064 34.0707 38.0066 34.0702 38.0067C34.0423 38.0161 34.0173 38.0267 33.9987 38.0348C33.9608 38.0517 33.919 38.0726 33.8782 38.0941C33.7949 38.1379 33.6879 38.1982 33.5666 38.2689C33.3228 38.4111 33.0039 38.6055 32.6655 38.8185L32.6644 38.8192C31.9661 39.2611 31.5921 39.4795 31.3412 39.58C31.2258 39.6262 31.1583 39.6379 31.1134 39.6402C31.0702 39.6424 31.0205 39.6373 30.9348 39.6134C30.7441 39.5591 30.6369 39.5013 30.5653 39.4419C30.4966 39.3848 30.4307 39.3014 30.3633 39.147L30.3632 39.1468C30.3255 39.0607 30.2894 38.9745 30.268 38.5253C30.2462 38.0651 30.2417 37.2855 30.2417 35.8381C30.2417 34.3807 30.2397 33.5805 30.2197 33.147C30.2104 32.9449 30.1959 32.7652 30.1544 32.6302C30.1327 32.5596 30.0847 32.4347 29.9668 32.3336C29.834 32.2198 29.6891 32.1995 29.6026 32.1985C29.6037 32.1984 29.6043 32.1984 29.6043 32.1983C29.6044 32.1975 29.5704 32.1924 29.4931 32.1624C29.4071 32.1291 29.3011 32.0782 29.1872 32.0142C28.9521 31.8819 28.7366 31.7234 28.6249 31.6061L28.6203 31.6013L28.6203 31.6013C28.3003 31.274 28.1184 30.8889 28.0175 30.2306L28.0171 30.2277L28.0171 30.2277C27.9552 29.839 27.8738 29.4949 27.6736 29.2025C27.4683 28.9028 27.1789 28.7155 26.8395 28.5419L26.8385 28.5414C26.1351 28.1836 25.727 27.7068 25.5602 27.1917C25.3934 26.6763 25.4443 26.0489 25.8022 25.344L33.4546 15.1131ZM33.4546 15.1131L33.4457 15.1162M33.4546 15.1131L33.4457 15.1162M33.4457 15.1162C33.4458 15.1161 33.4457 15.1162 33.4453 15.1163C33.4444 15.1166 33.4423 15.1175 33.4387 15.1189C33.4337 15.1211 33.4267 15.1242 33.4178 15.1286C33.3998 15.1374 33.3767 15.1498 33.3486 15.1663C33.2922 15.1995 33.224 15.2443 33.1478 15.2992C32.995 15.4093 32.825 15.5491 32.6732 15.6925L32.6711 15.6944M33.4457 15.1162L32.6711 15.6944M32.6711 15.6944C32.3307 16.012 32.0313 16.2641 31.6737 16.3828C31.303 16.5058 30.9372 16.4643 30.5321 16.393L30.5321 16.393M32.6711 15.6944L30.5321 16.393M30.5321 16.393L30.5274 16.3921M30.5321 16.393L30.5274 16.3921M30.5274 16.3921C29.6623 16.2313 28.858 16.5641 28.4389 17.1968L28.4389 17.1968M30.5274 16.3921L28.4389 17.1968M28.4389 17.1968L28.4364 17.2006M28.4389 17.1968L28.4364 17.2006M28.4364 17.2006C28.2824 17.4285 28.2051 17.5695 28.1513 17.7178C28.0957 17.8712 28.0561 18.0573 28.0099 18.3882L28.0098 18.3891M28.4364 17.2006L28.0098 18.3891M28.0098 18.3891C27.9565 18.7661 27.8822 19.1043 27.671 19.3974M28.0098 18.3891L27.671 19.3974M41.5024 20.3377C41.8453 20.5153 42.1363 20.7068 42.3446 20.9715C42.5635 21.2497 42.6534 21.5593 42.6896 21.8981L42.6897 21.8987C42.7111 22.1016 42.7112 22.2916 42.6475 22.522C42.5906 22.7279 42.487 22.9486 42.346 23.2241C42.1947 23.5248 42.1384 23.6582 42.1096 23.7762C42.0816 23.8905 42.0734 24.0144 42.0733 24.3133C42.0776 24.5943 42.0888 24.7235 42.1176 24.8394C42.1469 24.9571 42.2011 25.0871 42.3371 25.3567C42.6271 25.9225 42.7973 26.4788 42.6578 27.0108C42.5146 27.5573 42.0864 27.9276 41.5573 28.2198C41.0734 28.4875 40.7621 28.7509 40.5559 29.0393C40.3525 29.3238 40.2265 29.6673 40.1695 30.1369C40.126 30.5068 40.0363 30.8423 39.8533 31.1279C39.6641 31.4231 39.402 31.6236 39.0866 31.765L39.0867 31.7651L39.0827 31.7668C38.906 31.8443 38.7259 31.9205 38.5109 31.938C38.3057 31.9547 38.1029 31.9148 37.8839 31.8683L37.8839 31.8683L37.881 31.8677C37.0428 31.6845 36.3027 31.9143 35.738 32.5133C35.5048 32.7612 35.2798 32.9615 35.0274 33.0952C34.7613 33.2361 34.4971 33.2864 34.213 33.2864C33.9435 33.2864 33.6877 33.2574 33.413 33.1045C33.1698 32.9691 32.9426 32.7518 32.6747 32.4735C32.3999 32.1886 32.1532 32.0186 31.9081 31.9233C31.6657 31.8291 31.3916 31.7951 31.0417 31.8324C30.5504 31.8853 30.1788 31.9099 29.8903 31.8901C29.5871 31.8694 29.3345 31.7973 29.113 31.6282C28.8764 31.4504 28.6845 31.249 28.5453 30.9802C28.4106 30.72 28.3425 30.429 28.3003 30.1C28.1746 29.2045 27.7849 28.6614 27.0811 28.311C26.7742 28.165 26.5192 28.0268 26.3184 27.8341C26.1052 27.6296 25.9871 27.3978 25.8828 27.1368C25.7686 26.8661 25.7171 26.5951 25.7745 26.2712C25.8263 25.9792 25.963 25.6715 26.1489 25.313C26.2616 25.0865 26.3032 24.9827 26.3265 24.8757C26.3514 24.7613 26.3612 24.6166 26.3612 24.2995C26.3612 23.9883 26.3516 23.8397 26.3251 23.7162C26.2996 23.5974 26.2532 23.4773 26.1357 23.2326C25.9613 22.8717 25.8343 22.5968 25.7784 22.3533C25.7121 22.064 25.7486 21.8403 25.8099 21.6053L25.8104 21.6034C25.9778 20.9711 26.4398 20.5929 27.131 20.2536L27.1333 20.2525C27.7759 19.9412 28.173 19.3886 28.3003 18.4988C28.3424 18.1661 28.4107 17.8728 28.5496 17.6103C28.6929 17.3393 28.8912 17.1391 29.1328 16.96C29.2724 16.8547 29.4249 16.7693 29.6321 16.729C29.8135 16.6936 30.0121 16.6986 30.2281 16.7119L30.2285 16.7119C31.5185 16.7922 31.7516 16.7472 32.042 16.5987L32.0486 16.5953L32.0552 16.5922C32.225 16.5116 32.5372 16.2738 32.7223 16.077L32.7222 16.0769L32.7291 16.0699C32.9797 15.8136 33.197 15.6032 33.448 15.4757C33.7223 15.3363 33.9902 15.3173 34.2737 15.3127L34.2736 15.3126H34.2818L34.2961 15.3126C34.5005 15.3125 34.7346 15.3124 34.9839 15.4441C35.1861 15.5509 35.3829 15.7395 35.6215 15.9681L35.6406 15.9864C35.6409 15.9867 35.6412 15.987 35.6415 15.9872C35.981 16.3093 36.2347 16.4946 36.4661 16.6036C36.6877 16.7081 36.9153 16.7549 37.2225 16.7549C37.5209 16.7549 37.9317 16.7286 38.1183 16.6933L38.1259 16.6919L38.1336 16.6906C38.6598 16.6078 39.1538 16.7405 39.5302 17.083C39.8962 17.4161 40.1036 17.9035 40.1695 18.453L40.1699 18.4564C40.2225 18.9215 40.3538 19.2769 40.5584 19.566C40.7639 19.8563 41.0648 20.1098 41.5024 20.3377ZM41.5024 20.3377L41.2724 20.7816L41.5032 20.3381C41.5029 20.3379 41.5027 20.3378 41.5024 20.3377ZM27.671 19.3974C27.4633 19.6858 27.1634 19.8736 26.814 20.0612M27.671 19.3974L26.814 20.0612M26.814 20.0612L26.5775 19.6207M26.814 20.0612L26.5775 19.6207M26.5775 19.6207L26.8151 20.0606C26.3323 20.3214 26.0053 20.615 25.7968 20.9348M26.5775 19.6207C27.2654 19.2513 27.4115 19.049 27.5147 18.3191L25.7968 20.9348M26.5775 19.6207C25.5026 20.2011 24.9867 21.0015 24.9781 22.0656L26.5775 19.6207ZM25.7968 20.9348C25.5909 21.2508 25.4821 21.6205 25.4781 22.0677M25.7968 20.9348L25.4781 22.0677M25.4781 22.0677C25.4782 22.2896 25.4904 22.4115 25.5218 22.5347C25.5557 22.668 25.6179 22.8253 25.7499 23.113C25.9458 23.5316 26.0848 23.8947 26.097 24.2666C26.1097 24.6562 25.9824 24.9894 25.8023 25.3437L25.4781 22.0677ZM37.8573 39.037C37.8432 39.0621 37.7882 39.1583 37.6696 39.2265C37.57 39.2839 37.4771 39.2924 37.4341 39.2941C37.3833 39.2961 37.342 39.2902 37.3181 39.286C37.2702 39.2774 37.2304 39.2639 37.2083 39.2559C37.1604 39.2385 37.1113 39.2157 37.0692 39.1949C36.9812 39.1516 36.8688 39.0898 36.7435 39.0179C36.4903 38.8725 36.1551 38.6685 35.7956 38.4425L35.7956 38.4425L35.7926 38.4406C35.1127 38.0065 34.7119 37.7802 34.4371 37.6771C34.2014 37.5887 34.1138 37.6101 34.0224 37.6471L34.0225 37.6472L34.0137 37.6505C34.0144 37.6503 34.0135 37.6507 34.0109 37.652C34.0004 37.6571 33.9627 37.6757 33.8869 37.7175C33.8034 37.7635 33.695 37.8258 33.5679 37.9005C33.3151 38.0492 32.9973 38.242 32.6737 38.4423C32.3477 38.6512 32.038 38.8409 31.801 38.9795C31.6827 39.0487 31.5789 39.1074 31.4987 39.1499C31.4593 39.1707 31.4197 39.1909 31.3841 39.207C31.3669 39.2148 31.3432 39.225 31.317 39.2343C31.3168 39.2344 31.3164 39.2345 31.3158 39.2347C31.3042 39.239 31.2285 39.2667 31.1347 39.2667C30.8831 39.2667 30.7473 39.097 30.7071 39.0378C30.6609 38.9697 30.6391 38.9038 30.6295 38.8721C30.6082 38.8019 30.5969 38.7256 30.5894 38.6626C30.5735 38.5282 30.5625 38.3374 30.5544 38.0918C30.5379 37.5955 30.5315 36.8182 30.5315 35.6886V32.6105V32.1105H31.0315H31.2551C31.3678 32.1105 31.4859 32.1297 31.5875 32.1557C31.6833 32.1802 31.7988 32.2194 31.903 32.2794C32.0085 32.3368 32.1419 32.4412 32.2512 32.5312C32.3816 32.6387 32.532 32.7715 32.6737 32.907C33.0291 33.2401 33.2236 33.3814 33.4084 33.4571C33.5892 33.5312 33.807 33.5616 34.256 33.5616C34.6924 33.5616 34.9235 33.5239 35.1024 33.4471C35.2792 33.3713 35.456 33.2353 35.7375 32.9307L35.7374 32.9307L35.7401 32.9279C36.1869 32.4518 36.6976 32.1105 37.2655 32.1105H37.4804H37.9804V32.6105V35.6798C37.9804 36.5306 37.974 37.3078 37.9631 37.8759C37.9577 38.1593 37.9512 38.3939 37.9436 38.5606C37.9399 38.6428 37.9357 38.7148 37.9306 38.7699C37.9282 38.7957 37.9246 38.8292 37.9188 38.8619C37.9162 38.8762 37.9103 38.9075 37.8984 38.9438C37.8927 38.961 37.8802 38.9963 37.8573 39.037Z" fill="#180113" stroke="#180113"/>
<mask id="path-5-inside-2_194_955" fill="white">
<path d="M32.9064 18.9423C31.8832 19.1886 30.6622 20.0065 30.0087 20.8684C29.2176 21.915 28.8564 22.9967 28.8564 24.2984C28.8564 25.8375 29.3466 27.0248 30.473 28.1769C31.2297 28.9596 31.995 29.417 33.0096 29.672C33.7749 29.8655 35.1679 29.8039 35.9331 29.5401C37.5755 28.9684 38.8309 27.6316 39.4242 25.8375C39.6392 25.1954 39.6478 23.4541 39.4414 22.8032C38.8137 20.8244 37.3949 19.4084 35.5462 18.9335C34.9185 18.7664 33.5685 18.7752 32.9064 18.9423ZM35.9589 20.4902C37.5325 21.2554 38.4353 22.8384 38.315 24.6062C38.2548 25.4505 37.9968 26.1453 37.4981 26.8313C36.0535 28.7749 33.259 29.0388 31.5048 27.4029C30.4644 26.4267 30.0087 25.1603 30.1806 23.7091C30.3612 22.1876 31.522 20.7804 32.9924 20.2879C33.3707 20.156 33.6889 20.1296 34.3854 20.1472C35.2281 20.1648 35.3312 20.1912 35.9589 20.4902Z"/>
</mask>
<path d="M32.9064 18.9423C31.8832 19.1886 30.6622 20.0065 30.0087 20.8684C29.2176 21.915 28.8564 22.9967 28.8564 24.2984C28.8564 25.8375 29.3466 27.0248 30.473 28.1769C31.2297 28.9596 31.995 29.417 33.0096 29.672C33.7749 29.8655 35.1679 29.8039 35.9331 29.5401C37.5755 28.9684 38.8309 27.6316 39.4242 25.8375C39.6392 25.1954 39.6478 23.4541 39.4414 22.8032C38.8137 20.8244 37.3949 19.4084 35.5462 18.9335C34.9185 18.7664 33.5685 18.7752 32.9064 18.9423ZM35.9589 20.4902C37.5325 21.2554 38.4353 22.8384 38.315 24.6062C38.2548 25.4505 37.9968 26.1453 37.4981 26.8313C36.0535 28.7749 33.259 29.0388 31.5048 27.4029C30.4644 26.4267 30.0087 25.1603 30.1806 23.7091C30.3612 22.1876 31.522 20.7804 32.9924 20.2879C33.3707 20.156 33.6889 20.1296 34.3854 20.1472C35.2281 20.1648 35.3312 20.1912 35.9589 20.4902Z" fill="#180113"/>
<path d="M32.9064 18.9423L33.3958 20.8815L33.3851 20.8842L33.3744 20.8868L32.9064 18.9423ZM30.0087 20.8684L28.4132 19.6624L28.415 19.66L30.0087 20.8684ZM30.473 28.1769L31.9031 26.7787L31.9109 26.7868L30.473 28.1769ZM33.0096 29.672L33.4972 27.7323L33.4998 27.733L33.0096 29.672ZM35.9331 29.5401L36.5906 31.4289L36.585 31.4309L35.9331 29.5401ZM39.4242 25.8375L37.5253 25.2095L37.5277 25.2025L39.4242 25.8375ZM39.4414 22.8032L41.3478 22.1985L41.3478 22.1987L39.4414 22.8032ZM35.5462 18.9335L35.0486 20.8706L35.0401 20.8684L35.0317 20.8662L35.5462 18.9335ZM35.9589 20.4902L36.8191 18.6846L36.8263 18.6881L36.8335 18.6916L35.9589 20.4902ZM38.315 24.6062L40.3104 24.7421L40.3099 24.7484L38.315 24.6062ZM37.4981 26.8313L39.1158 28.0073L39.1096 28.0159L39.1033 28.0243L37.4981 26.8313ZM31.5048 27.4029L30.1408 28.8656L30.1363 28.8614L31.5048 27.4029ZM30.1806 23.7091L28.1945 23.4737L28.1946 23.4734L30.1806 23.7091ZM32.9924 20.2879L33.6509 22.1764L33.6393 22.1805L33.6276 22.1844L32.9924 20.2879ZM34.3854 20.1472L34.3436 22.1468L34.3349 22.1466L34.3854 20.1472ZM33.3744 20.8868C32.8234 21.0194 31.9917 21.5632 31.6024 22.0767L28.415 19.66C29.3326 18.4497 30.9429 17.3577 32.4384 16.9978L33.3744 20.8868ZM31.6042 22.0744C31.0755 22.7737 30.8564 23.4321 30.8564 24.2984H26.8564C26.8564 22.5614 27.3596 21.0562 28.4132 19.6624L31.6042 22.0744ZM30.8564 24.2984C30.8564 25.2947 31.1277 25.9857 31.9031 26.7787L29.0429 29.5751C27.5654 28.0639 26.8564 26.3802 26.8564 24.2984H30.8564ZM31.9109 26.7868C32.4273 27.321 32.8701 27.5747 33.4972 27.7323L32.522 31.6117C31.1199 31.2592 30.032 30.5983 29.035 29.567L31.9109 26.7868ZM33.4998 27.733C33.6179 27.7629 33.9408 27.7993 34.3818 27.7795C34.8203 27.7599 35.1493 27.6948 35.2813 27.6493L36.585 31.4309C35.9517 31.6492 35.2016 31.7468 34.5609 31.7755C33.9228 31.8041 33.1665 31.7746 32.5194 31.611L33.4998 27.733ZM35.2757 27.6512C36.2699 27.3052 37.1062 26.4771 37.5253 25.2095L41.3231 26.4654C40.5556 28.7861 38.881 30.6317 36.5906 31.4289L35.2757 27.6512ZM37.5277 25.2025C37.5124 25.248 37.535 25.1884 37.5576 24.9743C37.5773 24.7878 37.5895 24.557 37.5908 24.3128C37.5921 24.0687 37.5824 23.837 37.5647 23.6485C37.5446 23.4336 37.5224 23.3684 37.5349 23.4078L41.3478 22.1987C41.5523 22.8436 41.5941 23.7113 41.5908 24.3345C41.5874 24.9544 41.5369 25.8267 41.3207 26.4725L37.5277 25.2025ZM37.535 23.408C37.0921 22.0116 36.1567 21.1553 35.0486 20.8706L36.0438 16.9964C38.6331 17.6616 40.5353 19.6373 41.3478 22.1985L37.535 23.408ZM35.0317 20.8662C35.0372 20.8677 35.0185 20.8625 34.9696 20.8549C34.9228 20.8475 34.861 20.8398 34.7845 20.833C34.6302 20.8193 34.4448 20.8117 34.248 20.8126C33.8159 20.8145 33.4983 20.8556 33.3958 20.8815L32.417 17.0031C32.9766 16.8619 33.6651 16.8151 34.2304 16.8126C34.7854 16.8102 35.4896 16.8488 36.0607 17.0008L35.0317 20.8662ZM36.8335 18.6916C39.1562 19.821 40.4848 22.1796 40.3103 24.7421L36.3196 24.4703C36.3859 23.4973 35.9088 22.6897 35.0843 22.2888L36.8335 18.6916ZM40.3099 24.7484C40.2226 25.9736 39.8298 27.0251 39.1158 28.0073L35.8804 25.6552C36.1638 25.2654 36.287 24.9274 36.32 24.464L40.3099 24.7484ZM39.1033 28.0243C36.9574 30.9115 32.7794 31.3263 30.1408 28.8656L32.8689 25.9403C33.7385 26.7512 35.1496 26.6383 35.8929 25.6382L39.1033 28.0243ZM30.1363 28.8614C28.6217 27.4403 27.9496 25.5403 28.1945 23.4737L32.1667 23.9445C32.0677 24.7802 32.3071 25.4131 32.8733 25.9444L30.1363 28.8614ZM28.1946 23.4734C28.4684 21.1661 30.1701 19.1241 32.3572 18.3915L33.6276 22.1844C32.874 22.4368 32.254 23.2091 32.1667 23.9448L28.1946 23.4734ZM32.3339 18.3994C33.0643 18.1447 33.6796 18.1287 34.4359 18.1478L34.3349 22.1466C34.004 22.1382 33.8509 22.1435 33.764 22.152C33.711 22.1572 33.6926 22.1619 33.6509 22.1764L32.3339 18.3994ZM34.4271 18.1476C34.8142 18.1557 35.2492 18.1644 35.6831 18.26C36.1471 18.3622 36.5245 18.5443 36.8191 18.6846L35.0988 22.2958C34.7656 22.1371 34.7776 22.1564 34.8225 22.1663C34.8432 22.1709 34.8352 22.1666 34.7594 22.1613C34.6749 22.1554 34.5538 22.1512 34.3436 22.1468L34.4271 18.1476Z" fill="#180113" mask="url(#path-5-inside-2_194_955)"/>
<path d="M21.8927 16.2682C21.8981 16.2679 21.9004 16.2677 21.9002 16.2677C21.9001 16.2676 21.8974 16.2678 21.8927 16.2682ZM22.0514 17.0541C22.0515 17.0541 22.0499 17.0537 22.0466 17.0531C22.0497 17.0538 22.0514 17.0541 22.0514 17.0541Z" fill="#180113" stroke="#180113" stroke-width="2"/>
<mask id="path-8-inside-3_194_955" fill="white">
<path d="M5.1755 20.6651C4.76277 20.8674 4.73697 21.571 5.1411 21.7821C5.25289 21.8525 7.97003 21.8789 13.7741 21.8789H22.235L22.4156 21.6766C22.6822 21.3863 22.665 20.9729 22.3812 20.7442C22.149 20.5595 22.1233 20.5595 13.7569 20.5683C8.06461 20.5683 5.30448 20.6035 5.1755 20.6651Z"/>
</mask>
<path d="M5.1755 20.6651C4.76277 20.8674 4.73697 21.571 5.1411 21.7821C5.25289 21.8525 7.97003 21.8789 13.7741 21.8789H22.235L22.4156 21.6766C22.6822 21.3863 22.665 20.9729 22.3812 20.7442C22.149 20.5595 22.1233 20.5595 13.7569 20.5683C8.06461 20.5683 5.30448 20.6035 5.1755 20.6651Z" fill="#180113"/>
<path d="M5.1755 20.6651L4.29522 18.8692L4.30453 18.8646L4.31388 18.8602L5.1755 20.6651ZM5.1411 21.7821L6.06711 20.0094L6.13847 20.0467L6.20659 20.0896L5.1411 21.7821ZM22.235 21.8789L23.7271 23.2107L23.1307 23.8789H22.235V21.8789ZM22.4156 21.6766L20.9235 20.3448L20.9329 20.3343L20.9425 20.3238L22.4156 21.6766ZM22.3812 20.7442L23.6265 19.1791L23.6363 19.187L22.3812 20.7442ZM13.7569 20.5683L13.759 22.5683H13.7569V20.5683ZM6.05578 22.4609C6.69263 22.1487 6.84137 21.5744 6.85089 21.2864C6.86034 21.0004 6.7462 20.3642 6.06711 20.0094L4.2151 23.5549C3.13188 22.989 2.82857 21.8954 2.85307 21.1542C2.87764 20.411 3.24564 19.3837 4.29522 18.8692L6.05578 22.4609ZM6.20659 20.0896C5.91905 19.9086 5.65464 19.8509 5.63676 19.8465C5.5603 19.8277 5.50321 19.819 5.48516 19.8163C5.44543 19.8105 5.43027 19.8101 5.46043 19.8125C5.5135 19.8166 5.61758 19.8222 5.78943 19.8281C6.12639 19.8397 6.63889 19.8494 7.34469 19.857C8.75171 19.8723 10.8726 19.8789 13.7741 19.8789V23.8789C10.8715 23.8789 8.73179 23.8723 7.30129 23.8568C6.58832 23.8491 6.03783 23.839 5.65251 23.8258C5.46322 23.8193 5.29134 23.8114 5.15175 23.8005C5.08557 23.7954 4.99491 23.7873 4.90026 23.7733C4.85476 23.7666 4.77536 23.7538 4.68171 23.7308C4.64663 23.7222 4.37015 23.6601 4.07561 23.4747L6.20659 20.0896ZM13.7741 19.8789H22.235V23.8789H13.7741V19.8789ZM20.7429 20.5471L20.9235 20.3448L23.9077 23.0084L23.7271 23.2107L20.7429 20.5471ZM20.9425 20.3238C20.5255 20.778 20.4016 21.7174 21.1262 22.3014L23.6363 19.187C24.9283 20.2284 24.8388 21.9947 23.8887 23.0294L20.9425 20.3238ZM21.136 22.3093C21.1177 22.2948 21.2594 22.414 21.4667 22.5073C21.6514 22.5903 21.7911 22.6117 21.8043 22.6137C21.8167 22.6156 21.779 22.6094 21.6457 22.602C21.519 22.595 21.3383 22.5886 21.0787 22.5833C20.0252 22.5619 17.9584 22.5639 13.759 22.5683L13.7548 18.5683C17.9217 18.5639 20.051 18.5616 21.16 18.5841C21.684 18.5948 22.1014 18.6117 22.4202 18.6614C22.5992 18.6893 22.8443 18.7409 23.1075 18.8593C23.3933 18.9878 23.5866 19.1475 23.6264 19.1792L21.136 22.3093ZM13.7569 22.5683C10.9129 22.5683 8.80909 22.5771 7.40322 22.5935C6.69839 22.6017 6.18011 22.6116 5.83561 22.6229C5.66068 22.6286 5.54854 22.6341 5.48603 22.6384C5.45207 22.6408 5.45615 22.6412 5.48231 22.6379C5.4942 22.6364 5.53655 22.6309 5.59505 22.619C5.61135 22.6157 5.80758 22.5795 6.03712 22.4699L4.31388 18.8602C4.55148 18.7467 4.76091 18.7068 4.79557 18.6997C4.87242 18.684 4.93829 18.6749 4.97887 18.6697C5.06241 18.6591 5.14458 18.6525 5.20955 18.648C5.3449 18.6386 5.51404 18.6313 5.70494 18.625C6.09213 18.6124 6.64383 18.602 7.35669 18.5937C8.78619 18.5771 10.9085 18.5683 13.7569 18.5683V22.5683Z" fill="#180113" mask="url(#path-8-inside-3_194_955)"/>
<mask id="path-10-inside-4_194_955" fill="white">
<path d="M5.12417 25.3184C4.72864 25.5559 4.78023 26.2947 5.21015 26.4619C5.33053 26.5058 8.9247 26.541 13.7829 26.541C22.1234 26.541 22.1492 26.541 22.3814 26.3563C22.6737 26.1188 22.6909 25.679 22.4072 25.4152L22.2094 25.2217H13.7399C7.98747 25.2305 5.22735 25.2569 5.12417 25.3184Z"/>
</mask>
<path d="M5.12417 25.3184C4.72864 25.5559 4.78023 26.2947 5.21015 26.4619C5.33053 26.5058 8.9247 26.541 13.7829 26.541C22.1234 26.541 22.1492 26.541 22.3814 26.3563C22.6737 26.1188 22.6909 25.679 22.4072 25.4152L22.2094 25.2217H13.7399C7.98747 25.2305 5.22735 25.2569 5.12417 25.3184Z" fill="#180113"/>
<path d="M5.12417 25.3184L4.09466 23.6037L4.09934 23.601L5.12417 25.3184ZM5.21015 26.4619L4.52386 28.3404L4.50463 28.3334L4.48555 28.326L5.21015 26.4619ZM22.3814 26.3563L23.6424 27.9087L23.6345 27.9151L23.6266 27.9214L22.3814 26.3563ZM22.4072 25.4152L21.0452 26.8798L21.0266 26.8625L21.0084 26.8447L22.4072 25.4152ZM22.2094 25.2217V23.2217H23.0251L23.6081 23.7921L22.2094 25.2217ZM13.7399 25.2217L13.7368 23.2217H13.7399V25.2217ZM6.15367 27.0331C6.80831 26.6401 6.87013 26.0148 6.85229 25.7707C6.83452 25.5275 6.6766 24.8861 5.93475 24.5977L4.48555 28.326C3.31378 27.8705 2.9151 26.7761 2.86293 26.0623C2.8107 25.3477 3.04449 24.2343 4.09466 23.6038L6.15367 27.0331ZM5.89644 24.5833C5.74677 24.5286 5.62532 24.5055 5.59415 24.4995C5.54481 24.4901 5.50657 24.4849 5.48827 24.4825C5.4675 24.4798 5.45201 24.4782 5.44418 24.4775C5.43576 24.4766 5.43044 24.4762 5.42911 24.4761C5.42895 24.4761 5.44927 24.4775 5.50043 24.4798C5.5984 24.484 5.75099 24.4886 5.96136 24.4933C6.37862 24.5025 6.98121 24.5109 7.73863 24.518C9.25128 24.5322 11.3577 24.541 13.7829 24.541V28.541C11.3498 28.541 9.23012 28.5322 7.70104 28.5178C6.93761 28.5107 6.31545 28.5021 5.87313 28.4923C5.65371 28.4874 5.4678 28.4821 5.3272 28.476C5.25907 28.4731 5.18508 28.4692 5.11668 28.4639C5.08415 28.4613 5.03287 28.4569 4.97483 28.4494C4.94605 28.4457 4.89899 28.4391 4.84251 28.4283C4.8042 28.421 4.6773 28.3965 4.52386 28.3404L5.89644 24.5833ZM13.7829 24.541C17.9694 24.541 20.0297 24.5409 21.0799 24.5184C21.3387 24.5128 21.5188 24.5062 21.6449 24.4991C21.7777 24.4916 21.8151 24.4853 21.8025 24.4873C21.789 24.4894 21.6496 24.5109 21.4654 24.594C21.259 24.687 21.1178 24.8058 21.1362 24.7912L23.6266 27.9214C23.5869 27.953 23.3941 28.1122 23.1093 28.2406C22.8466 28.359 22.602 28.4108 22.4231 28.4389C22.1047 28.4889 21.688 28.5063 21.1656 28.5175C20.0597 28.5412 17.9369 28.541 13.7829 28.541V24.541ZM21.1203 24.8039C20.4622 25.3386 20.446 26.3226 21.0452 26.8798L23.7691 23.9506C24.9358 25.0355 24.8852 26.8991 23.6424 27.9087L21.1203 24.8039ZM21.0084 26.8447L20.8107 26.6512L23.6081 23.7921L23.8059 23.9856L21.0084 26.8447ZM22.2094 27.2217H13.7399V23.2217H22.2094V27.2217ZM13.7429 27.2217C10.8672 27.2261 8.74711 27.2349 7.33521 27.2501C6.62726 27.2578 6.10924 27.267 5.767 27.2776C5.59283 27.283 5.48376 27.2882 5.42505 27.2923C5.3922 27.2945 5.40178 27.2946 5.43471 27.2903C5.44905 27.2884 5.50119 27.2815 5.57193 27.2659C5.57269 27.2658 5.84958 27.2146 6.14899 27.0359L4.09934 23.601C4.40521 23.4184 4.69373 23.3635 4.71134 23.3596C4.79893 23.3403 4.87313 23.3297 4.91475 23.3243C5.00226 23.3128 5.08734 23.306 5.15107 23.3017C5.28553 23.2924 5.45395 23.2854 5.64293 23.2795C6.027 23.2676 6.57789 23.2581 7.29191 23.2504C8.72397 23.2349 10.8602 23.2261 13.7368 23.2217L13.7429 27.2217Z" fill="#180113" mask="url(#path-10-inside-4_194_955)"/>
<mask id="path-12-inside-5_194_955" fill="white">
<path d="M4.98626 30.1115C4.7541 30.4194 4.7627 30.6129 5.01206 30.9119L5.21842 31.1582H13.7482H22.278L22.4414 30.9471C22.6564 30.6832 22.6478 30.2786 22.4328 30.0587C22.2608 29.8828 22.149 29.8828 13.7138 29.8828H5.15823L4.98626 30.1115Z"/>
</mask>
<path d="M4.98626 30.1115C4.7541 30.4194 4.7627 30.6129 5.01206 30.9119L5.21842 31.1582H13.7482H22.278L22.4414 30.9471C22.6564 30.6832 22.6478 30.2786 22.4328 30.0587C22.2608 29.8828 22.149 29.8828 13.7138 29.8828H5.15823L4.98626 30.1115Z" fill="#180113"/>
<path d="M4.98626 30.1115L6.58474 31.3135L6.58309 31.3157L4.98626 30.1115ZM5.01206 30.9119L3.47908 32.1964L3.47598 32.1927L5.01206 30.9119ZM5.21842 31.1582V33.1582H4.28497L3.68545 32.4427L5.21842 31.1582ZM22.278 31.1582L23.8597 32.3823L23.2592 33.1582H22.278V31.1582ZM22.4414 30.9471L20.8597 29.723L20.875 29.7033L20.8908 29.6839L22.4414 30.9471ZM5.15823 29.8828L3.55976 28.6808L4.15982 27.8828H5.15823V29.8828ZM6.58309 31.3157C6.58534 31.3127 6.59935 31.294 6.61917 31.2614C6.63906 31.2287 6.66889 31.1754 6.69944 31.1031C6.76429 30.9497 6.82697 30.7227 6.81739 30.4458C6.80787 30.1708 6.73071 29.954 6.66188 29.8153C6.62918 29.7494 6.59883 29.7018 6.57974 29.6739C6.56067 29.6461 6.54824 29.6312 6.54813 29.6311L3.47598 32.1927C3.26324 31.9376 2.84746 31.384 2.81979 30.5842C2.79166 29.7715 3.17893 29.1864 3.38944 28.9073L6.58309 31.3157ZM6.54503 29.6274L6.7514 29.8737L3.68545 32.4427L3.47908 32.1964L6.54503 29.6274ZM5.21842 29.1582H13.7482V33.1582H5.21842V29.1582ZM13.7482 29.1582H22.278V33.1582H13.7482V29.1582ZM20.6964 29.9341L20.8597 29.723L24.0231 32.1712L23.8597 32.3823L20.6964 29.9341ZM20.8908 29.6839C20.6764 29.9471 20.595 30.2472 20.5985 30.513C20.6019 30.7717 20.6911 31.1381 21.0026 31.4568L23.863 28.6606C24.8673 29.6881 24.7761 31.2478 23.992 32.2103L20.8908 29.6839ZM21.0026 31.4568C21.0465 31.5017 21.224 31.6797 21.5073 31.8122C21.6221 31.8659 21.7189 31.8958 21.7812 31.9121C21.8419 31.928 21.8823 31.9341 21.8901 31.9353C21.8992 31.9367 21.857 31.9303 21.7175 31.923C21.5853 31.916 21.3983 31.9097 21.1322 31.9044C20.0542 31.8829 17.9465 31.8828 13.7138 31.8828V27.8828C17.9164 27.8828 20.0822 27.8827 21.2119 27.9052C21.7454 27.9158 22.1652 27.9323 22.4781 27.9788C22.6425 28.0032 22.9123 28.0535 23.2022 28.1891C23.5575 28.3553 23.7761 28.5718 23.863 28.6606L21.0026 31.4568ZM13.7138 31.8828H5.15823V27.8828H13.7138V31.8828ZM6.75671 31.0848L6.58474 31.3135L3.38779 28.9095L3.55976 28.6808L6.75671 31.0848Z" fill="#180113" mask="url(#path-12-inside-5_194_955)"/>
<path d="M5.42296 36.9071C5.42249 36.9072 5.42849 36.9084 5.44237 36.9103C5.43037 36.9078 5.42343 36.9069 5.42296 36.9071Z" fill="#180113" stroke="#180113" stroke-width="2"/>
</svg>
