<svg width="15" height="15" viewBox="0 0 15 15" fill="none" xmlns="http://www.w3.org/2000/svg">
<path fill-rule="evenodd" clip-rule="evenodd" d="M3.55999 7.11926C3.55999 7.3954 3.78385 7.61926 4.05999 7.61926C4.33613 7.61926 4.55999 7.3954 4.55999 7.11926L4.55999 5.32172C4.64186 5.32165 4.72621 5.32164 4.81314 5.32164H9.18844C9.27509 5.32164 9.35918 5.32165 9.4408 5.32172V7.11925C9.4408 7.3954 9.66466 7.61926 9.9408 7.61926C10.2169 7.61926 10.4408 7.3954 10.4408 7.11925V5.33269C10.7194 5.34129 10.9579 5.35658 11.167 5.38377C11.6229 5.44306 11.8704 5.55169 12.0521 5.71946C12.2338 5.88722 12.3619 6.12526 12.4574 6.57499C12.5559 7.03876 12.6062 7.65547 12.6773 8.54223L12.9445 11.8795C12.9862 12.3996 13.0122 12.7379 12.9977 12.9882C12.9841 13.2241 12.9377 13.2976 12.9 13.3384C12.8623 13.3792 12.7928 13.4314 12.5588 13.4638C12.3104 13.4981 11.9711 13.4992 11.4493 13.4992H2.55225C2.0305 13.4992 1.69121 13.4981 1.44283 13.4638C1.20874 13.4314 1.13926 13.3792 1.10157 13.3384C1.06388 13.2976 1.01745 13.2241 1.00385 12.9882C0.989425 12.7379 1.01539 12.3996 1.05704 11.8795L1.32431 8.54223C1.39533 7.65547 1.44572 7.03876 1.54419 6.57499C1.63969 6.12526 1.76773 5.88722 1.94947 5.71946C2.13121 5.55169 2.37871 5.44306 2.83463 5.38377C3.04351 5.35661 3.28172 5.34132 3.55999 5.33271L3.55999 7.11926ZM4.55999 4.32168C4.63152 4.32164 4.70427 4.32164 4.77826 4.32164H4.77827L4.81314 4.32164H9.18844L9.22332 4.32164H9.22333C9.29705 4.32164 9.36953 4.32164 9.4408 4.32168V3.94126C9.4408 2.59346 8.3482 1.50085 7.0004 1.50085C5.6526 1.50085 4.55999 2.59346 4.55999 3.94126V4.32168ZM10.4408 4.33228V3.94126C10.4408 2.04118 8.90048 0.500854 7.0004 0.500854C5.10031 0.500854 3.55999 2.04117 3.55999 3.94126V4.3323C3.24289 4.34165 2.95882 4.3592 2.70568 4.39212C2.14187 4.46543 1.66404 4.62201 1.27118 4.98467C0.878316 5.34732 0.684093 5.81113 0.566 6.36728C0.452443 6.90207 0.397848 7.58389 0.330288 8.42764L0.327505 8.4624L0.0602304 11.7997L0.0574739 11.8341C0.0193271 12.3101 -0.0133745 12.7181 0.00550937 13.0458C0.0256769 13.3957 0.107498 13.7358 0.366777 14.0167C0.626056 14.2976 0.958578 14.4063 1.30577 14.4543C1.63087 14.4993 2.04022 14.4993 2.51774 14.4992L2.55225 14.4992H11.4493L11.4838 14.4992C11.9614 14.4993 12.3707 14.4993 12.6958 14.4543C13.043 14.4063 13.3755 14.2976 13.6348 14.0167C13.8941 13.7358 13.9759 13.3957 13.9961 13.0458C14.015 12.7181 13.9823 12.31 13.9441 11.834L13.9413 11.7997L13.6741 8.4624L13.6713 8.42762C13.6037 7.58389 13.5491 6.90207 13.4356 6.36728C13.3175 5.81113 13.1233 5.34732 12.7304 4.98467C12.3375 4.62201 11.8597 4.46543 11.2959 4.39212C11.0426 4.35917 10.7582 4.34162 10.4408 4.33228Z" fill="#180113"/>
</svg>
