<svg width="62" height="45" viewBox="0 0 62 45" fill="none" xmlns="http://www.w3.org/2000/svg">
<path d="M0 1.04541V2.09082H1.0166H2.0332V1.04541V0H1.0166H0V1.04541Z" fill="#180113"/>
<path d="M4.06641 1.04541V2.09082L11.2184 2.06622L18.3584 2.02933L18.3943 1.00851L18.4302 0H11.2423H4.06641V1.04541Z" fill="#180113"/>
<path d="M0.298997 4.48711L0 4.78223V21.9486V39.1273L0.346837 39.4839L0.693673 39.8405H4.473H8.24036L8.43172 40.5414C9.00579 42.5704 10.7161 44.2797 12.7253 44.833C13.5147 45.0544 15.0694 45.0544 15.8588 44.833C17.8202 44.292 19.4707 42.6811 20.1046 40.6767L20.3677 39.8405H31.6458H42.924L43.0675 40.357C43.5938 42.4351 45.3279 44.2059 47.409 44.8207C48.3538 45.1035 50.1358 45.0298 51.1046 44.6609C52.8507 44.0091 54.2739 42.4351 54.848 40.5537L55.0633 39.8405H57.8021H60.5409L60.8878 39.4839L61.2346 39.1273V33.0527V26.978L60.8399 26.3017C59.632 24.2604 51.9537 12.062 51.7145 11.8037L51.4275 11.4963L46.1053 11.4594L40.7832 11.4225V8.10238V4.78223L40.4842 4.48711L40.1972 4.17969H20.3916H0.586034L0.298997 4.48711ZM38.75 7.31538V8.36061H21.4082H4.06636V9.40584V10.4511H21.4082H38.75V22.0101V33.5691H30.0791H21.4082V34.6143V35.6596H30.0791H38.75V36.7048V37.75H29.5648H20.3796L20.1165 36.9016C19.1238 33.7536 16.0143 31.909 12.9406 32.6469C10.7519 33.1756 8.88619 35.0201 8.35996 37.1844L8.2284 37.75H5.13079H2.03318V36.7048V35.6596L4.58063 35.635L7.11613 35.5981L7.15201 34.5775L7.18789 33.5691H4.60455H2.03318V19.9196V6.27015H20.3916H38.75V7.31538ZM51.0567 14.509C51.3916 15.0624 51.6667 15.5543 51.6667 15.6157C51.6667 15.6895 50.1239 15.7387 47.5644 15.7387H43.4502L43.1632 16.0584L42.8762 16.3781V21.4567V26.5353L43.1632 26.855L43.4502 27.1748H51.1883C57.0367 27.1748 58.9503 27.2117 59.0579 27.3223C59.1655 27.433 59.2014 28.3061 59.2014 30.5195V33.5691H57.6466H56.0799L56.1158 34.5775L56.1516 35.5981L57.6825 35.635L59.2014 35.6719V36.7048V37.75H57.1204H55.0394L54.9078 37.1844C54.6567 36.176 54.0587 35.1431 53.2334 34.3069C51.3318 32.3763 48.593 31.9336 46.1891 33.1879C44.7778 33.9257 43.6296 35.3399 43.1632 36.9016L42.9121 37.75H41.9074H40.9028V25.6377V13.5253H45.6748H50.4468L51.0567 14.509ZM55.1948 21.1124C56.3191 22.9078 57.3237 24.5432 57.4433 24.7277L57.6705 25.0843H51.26H44.8496V21.4567V17.8292H49.0116L53.1617 17.8415L55.1948 21.1124ZM16.0023 34.9833C17.9637 35.9055 18.8966 38.4264 18.0116 40.4185C17.6169 41.2792 16.8874 42.0785 16.086 42.5212C15.5478 42.8163 15.3565 42.8532 14.2921 42.8532C13.2276 42.8532 13.0363 42.8163 12.4981 42.5212C11.3619 41.9064 10.6443 40.9718 10.3333 39.7175C9.79514 37.5533 11.0988 35.3522 13.2635 34.7127C14.0409 34.4914 15.189 34.6021 16.0023 34.9833ZM50.6501 34.971C51.9298 35.5735 52.8746 36.877 53.0421 38.2911C53.1975 39.5454 52.5039 41.3038 51.571 42.017C50.6501 42.718 50.2315 42.8532 48.9757 42.8532C47.6003 42.8532 47.086 42.6565 46.1891 41.7588C45.316 40.9103 44.9452 39.9635 44.9572 38.66C44.9811 35.6965 48.0189 33.729 50.6501 34.971Z" fill="#180113"/>
<path d="M13.2754 38.7954V39.8408H14.292H15.3085V38.7954V37.75H14.292H13.2754V38.7954Z" fill="#180113"/>
<path d="M47.959 38.7954V39.8408H48.9756H49.9922V38.7954V37.75H48.9756H47.959V38.7954Z" fill="#180113"/>
</svg>
