<svg width="45" height="45" viewBox="0 0 45 45" fill="none" xmlns="http://www.w3.org/2000/svg">
<path d="M21.7964 0.106641C21.3709 0.344057 21.3622 0.449575 21.3535 3.48322C21.3535 5.77824 21.3796 6.36738 21.4751 6.56962C21.7791 7.14997 22.6649 7.14997 22.9689 6.56962C23.1339 6.24427 23.1513 0.827681 22.9863 0.467161C22.7952 0.0450892 22.222 -0.130774 21.7964 0.106641Z" fill="#180113"/>
<path d="M13.1108 1.86408C12.7027 2.09273 12.5637 2.60281 12.7895 3.04252C12.9979 3.44706 16.5067 6.91203 16.7759 6.97359C17.436 7.14069 18.0005 6.56905 17.8355 5.89189C17.7747 5.62806 14.3528 2.07515 13.9533 1.86408C13.6667 1.71458 13.3801 1.71458 13.1108 1.86408Z" fill="#180113"/>
<path d="M30.4285 1.90827C29.9595 2.20726 26.6679 5.63691 26.6071 5.89194C26.4421 6.56907 27.0066 7.14068 27.6754 6.9736C27.9359 6.91204 31.4447 3.44721 31.6531 3.04269C31.8789 2.60299 31.74 2.08415 31.3318 1.8643C31.0017 1.69721 30.7412 1.70601 30.4285 1.90827Z" fill="#180113"/>
<path d="M7.39648 10.649C7.14461 10.7897 0.0837083 19.7416 0.0229133 19.9966C-0.0118267 20.1109 -0.00314172 20.3044 0.0229133 20.4275C0.0837083 20.6649 21.3967 44.6011 21.7702 44.8473C22.0654 45.0496 22.3781 45.0496 22.6734 44.8473C23.0468 44.6011 44.3598 20.6649 44.4206 20.4275C44.4467 20.3044 44.4554 20.1109 44.4206 19.9966C44.3598 19.7416 37.2989 10.7897 37.0471 10.649C36.7691 10.4907 7.6744 10.4907 7.39648 10.649ZM15.213 12.7243C15.0827 12.9529 14.1534 14.5358 13.1459 16.2329L11.3221 19.3195L6.99697 19.3283H2.66315L3.04529 18.8534C3.25373 18.5896 4.49569 17.0068 5.80712 15.336L8.1955 12.3022H11.8258L15.4648 12.2934L15.213 12.7243ZM29.0134 15.7932L31.0805 19.2843L26.6511 19.3107C24.2106 19.3195 20.2329 19.3195 17.7924 19.3107L13.3631 19.2843L15.4301 15.7932L17.4884 12.3022H22.2218H26.9551L29.0134 15.7932ZM38.6364 15.336C39.9479 17.0068 41.1898 18.5896 41.3983 18.8534L41.7804 19.3283H37.4466L33.1214 19.3195L31.2976 16.2329C30.2988 14.5358 29.3608 12.9529 29.2306 12.7243L28.9787 12.2934L32.6177 12.3022H36.248L38.6364 15.336ZM15.2043 30.206C17.3929 35.2183 19.1733 39.3337 19.156 39.3425C19.1386 39.3601 3.86168 22.3005 3.16688 21.4827L2.83685 21.087H7.03171H11.2352L15.2043 30.206ZM31.2542 21.1486C31.2542 21.2629 22.2739 41.8399 22.2218 41.8399C22.1697 41.8399 13.1894 21.2629 13.1894 21.1486C13.1894 21.1134 17.254 21.087 22.2218 21.087C27.1896 21.087 31.2542 21.1134 31.2542 21.1486ZM41.268 21.4739C40.5298 22.3445 25.3049 39.3601 25.2876 39.3425C25.2702 39.3337 27.0506 35.2183 29.2393 30.206L33.2083 21.087H37.4031H41.6067L41.268 21.4739Z" fill="#180113"/>
<path d="M17.08 22.9857C16.7847 23.144 16.6631 23.3639 16.6631 23.7244C16.6631 24.0938 16.7934 24.3136 17.0973 24.4719C17.4621 24.6654 24.0193 24.6654 24.3841 24.4807C24.9573 24.1729 24.9573 23.2759 24.3841 22.9681C24.0193 22.7835 17.4187 22.7923 17.08 22.9857Z" fill="#180113"/>
<path d="M27.0076 22.9674C26.252 23.3896 26.5733 24.6035 27.4332 24.6035C27.8761 24.6035 28.3017 24.1725 28.3017 23.7327C28.3017 23.073 27.5808 22.642 27.0076 22.9674Z" fill="#180113"/>
</svg>
