<svg width="48" height="45" viewBox="0 0 48 45" fill="none" xmlns="http://www.w3.org/2000/svg">
<path d="M22.3317 0.16744C21.322 0.43944 20.5994 0.861511 19.812 1.66813C19.0061 2.47476 18.5985 3.19697 18.3299 4.25683C17.9964 5.57932 18.1631 7.01436 18.8116 8.26181C19.2006 9.02154 20.3308 10.1658 21.0811 10.5597C21.3961 10.7286 21.9611 10.9443 22.3317 11.0475C22.7022 11.1413 22.9894 11.2257 22.9616 11.2351C22.9338 11.2351 22.5355 11.3195 22.0816 11.4133C18.932 12.0698 16.4772 14.4147 15.6342 17.5661C15.449 18.2321 15.4212 18.6166 15.3841 20.9239C15.3563 22.8654 15.3749 23.6064 15.4582 23.8128C15.6991 24.3849 15.3749 24.3661 23.7027 24.3661C32.0305 24.3661 31.7063 24.3849 31.9471 23.8128C32.0305 23.6064 32.049 22.8654 32.0212 20.9239C31.9842 18.6166 31.9564 18.2321 31.7711 17.5661C31.1134 15.0994 29.4738 13.1203 27.195 12.0229C26.5095 11.6946 25.2497 11.3289 24.8143 11.3289C24.3326 11.3289 24.453 11.1975 25.0922 11.0381C26.0834 10.7849 26.8059 10.3534 27.5933 9.54678C28.3992 8.74016 28.8068 8.01795 29.0755 6.95808C29.4089 5.6356 29.2422 4.20056 28.5938 2.9531C28.2047 2.19338 27.0746 1.0491 26.3242 0.655165C25.1014 0.00798988 23.6286 -0.170218 22.3317 0.16744ZM25.2219 2.21214C26.0648 2.60607 26.6021 3.15007 27.019 3.99421C27.3432 4.66952 27.3617 4.75394 27.3617 5.60746C27.3617 6.46098 27.3432 6.54539 27.019 7.22071C26.6021 8.07422 26.0648 8.59947 25.2033 9.01216C24.6383 9.28416 24.4993 9.3123 23.7027 9.3123C22.906 9.3123 22.7671 9.28416 22.2205 9.02154C21.3405 8.59009 20.8032 8.07422 20.3956 7.22071C20.0621 6.54539 20.0436 6.46098 20.0436 5.61684C20.0436 4.80083 20.0714 4.66014 20.34 4.08801C20.7106 3.29076 21.2386 2.70924 21.9334 2.34345C22.6559 1.94951 23.0635 1.85572 23.9065 1.89324C24.4715 1.92138 24.7587 1.99641 25.2219 2.21214ZM24.9347 13.2422C26.8985 13.6268 28.5938 14.9493 29.483 16.7876C30.0574 17.9788 30.1871 18.7104 30.1871 20.802V22.4903H23.7027H17.2183V20.8114C17.2183 18.6916 17.348 17.96 17.9223 16.7689C18.2836 16.0279 18.4966 15.7371 19.1543 15.0712C19.812 14.4053 20.0992 14.1896 20.831 13.8238C22.1835 13.1484 23.4896 12.9702 24.9347 13.2422Z" fill="#180113"/>
<path d="M2.82333 9.45278C2.23973 9.60284 1.40603 10.1093 0.99844 10.5501C0.794645 10.7752 0.488953 11.2442 0.331476 11.5912L0.0350471 12.2196L0.0072569 19.3947C-0.0112699 25.5756 -0.00200649 26.7105 0.127681 27.5922C0.600114 30.8749 2.44353 33.9044 5.10212 35.8084C5.47266 36.0804 6.97333 36.9057 8.44621 37.6467L11.1048 38.9973V41.6235C11.1048 43.4524 11.1419 44.3153 11.216 44.4841C11.4475 45 11.4012 45 16.9407 45C22.4803 45 22.4339 45 22.6655 44.4841C22.8415 44.0902 22.823 31.7565 22.6377 30.8843C22.4432 29.937 21.8503 28.7927 21.1926 28.0705C20.1366 26.9263 19.1825 26.4667 17.3298 26.1947C15.9588 25.9977 14.8565 25.6694 13.8838 25.1911C13.1705 24.8347 12.9297 24.6283 11.3271 23.0339C9.4096 21.1299 8.91864 20.7829 7.89967 20.6516L7.40871 20.5953L7.38092 16.4028L7.35313 12.2103L7.01038 11.4974C6.38047 10.2219 5.26886 9.46215 3.89788 9.3965C3.50882 9.37774 3.02712 9.40588 2.82333 9.45278ZM4.71306 11.5537C4.90759 11.6757 5.1577 11.9476 5.27813 12.1446L5.50045 12.501L5.52824 16.8342C5.54677 19.4698 5.51898 21.1768 5.4634 21.1768C5.41708 21.1768 5.16697 21.3738 4.90759 21.6082C4.58337 21.899 4.324 22.2648 4.09241 22.7525C3.75893 23.4278 3.7404 23.5122 3.7404 24.3657C3.7404 25.2192 3.75893 25.3036 4.08315 25.9696C4.39811 26.598 4.66674 26.9075 7.09375 29.3555C9.74308 32.0285 9.77087 32.0567 10.1507 32.0567C10.6787 32.0567 11.0029 31.7659 11.077 31.2313L11.1326 30.828L8.43695 28.0893C5.65793 25.2568 5.54677 25.1161 5.54677 24.3751C5.54677 23.3903 6.43605 22.4899 7.40871 22.4899C8.10346 22.4899 8.33505 22.6587 10.0858 24.4126C11.04 25.3693 12.0589 26.2978 12.3832 26.5042C13.5225 27.2451 15.0417 27.7422 17.2186 28.0705C18.7934 28.3144 19.7012 28.8865 20.396 30.087C20.9147 30.9875 20.924 31.1188 20.924 37.3747V43.1242H16.9407H12.9575V40.6856C12.9575 39.0161 12.9204 38.1813 12.8463 38.0125C12.763 37.8249 12.1053 37.4497 9.72456 36.2304C7.56619 35.1237 6.47311 34.514 5.90804 34.0826C4.01831 32.6382 2.8048 30.7811 2.13784 28.3144L1.89699 27.414L1.85994 20.1732C1.84141 15.1178 1.85994 12.8105 1.93404 12.5479C2.05447 12.0883 2.63806 11.4693 3.06418 11.338C3.55514 11.1879 4.31474 11.2817 4.71306 11.5537Z" fill="#180113"/>
<path d="M42.841 9.45278C42.2574 9.60284 41.4237 10.1093 41.0161 10.5501C40.8123 10.7752 40.5067 11.2442 40.3492 11.5912L40.0527 12.2196L40.025 16.4028L39.9972 20.5953L39.5062 20.6516C38.4872 20.7829 37.987 21.1299 36.0787 23.0339C34.6336 24.4689 34.189 24.8628 33.661 25.1348C32.8273 25.5756 31.7527 25.8852 30.0668 26.1853C29.3257 26.3166 28.5013 26.5136 28.2419 26.6167C26.5837 27.2827 25.1479 29.046 24.7681 30.8843C24.5828 31.7565 24.5643 44.0902 24.7403 44.4841C24.9719 45 24.9256 45 30.4651 45C36.0046 45 35.9583 45 36.1899 44.4841C36.264 44.3153 36.3011 43.4524 36.3011 41.6235V38.9973L37.9036 38.1907C38.7744 37.7499 39.571 37.2903 39.6544 37.1871C39.7471 37.0746 39.8212 36.8213 39.8212 36.6244C39.8212 36.1554 39.4228 35.7146 38.9967 35.7146C38.8114 35.7146 37.9499 36.0991 36.6901 36.7369C35.1061 37.5435 34.6522 37.8155 34.5595 38.0031C34.4854 38.1813 34.4484 38.9879 34.4484 40.6856V43.1242H30.4651H26.4818V37.3747C26.4818 31.0719 26.4818 31.0156 27.0376 30.0402C27.3619 29.4586 28.0659 28.774 28.6124 28.4926C28.8533 28.3707 29.5573 28.1924 30.3169 28.0611C32.6605 27.6485 34.05 27.1795 35.1617 26.4292C35.4025 26.2603 36.3752 25.3505 37.32 24.4126C39.0708 22.6587 39.3117 22.4899 39.9972 22.4899C40.9698 22.4899 41.8591 23.3903 41.8591 24.3751C41.8591 25.1161 41.748 25.2568 38.9689 28.0893L36.2733 30.828L36.3288 31.2313C36.403 31.7659 36.7272 32.0567 37.2552 32.0567C37.635 32.0567 37.6628 32.0285 40.3121 29.3555C42.7391 26.9075 43.0078 26.598 43.3227 25.9696C43.647 25.3036 43.6655 25.2192 43.6655 24.3657C43.6655 23.5122 43.647 23.4278 43.3135 22.7525C43.0819 22.2648 42.8225 21.899 42.4983 21.6082C42.2389 21.3738 41.9888 21.1768 41.9425 21.1768C41.8869 21.1768 41.8591 19.4698 41.8776 16.8342L41.9054 12.501L42.1278 12.1446C42.2482 11.9476 42.5168 11.6757 42.7206 11.535C43.0356 11.3286 43.2023 11.2817 43.7025 11.2817C44.4343 11.2817 44.8883 11.5162 45.2681 12.1071L45.5182 12.4916V19.9481V27.414L45.2681 28.3238C45.1291 28.8209 44.8327 29.665 44.6103 30.1996C44.1379 31.2876 44.1287 31.5502 44.564 31.916C44.879 32.188 45.3329 32.2255 45.6386 32.0004C46.074 31.6909 46.8706 29.7306 47.1948 28.1643C47.3616 27.3765 47.3708 26.8137 47.3708 19.7605V12.2103L47.0281 11.4974C46.3982 10.2219 45.2866 9.46215 43.9156 9.3965C43.5265 9.37774 43.0448 9.40588 42.841 9.45278Z" fill="#180113"/>
<path d="M42.0534 33.6887C41.2475 34.139 41.5903 35.4336 42.5073 35.4336C42.9798 35.4336 43.4337 34.9739 43.4337 34.5048C43.4337 33.8012 42.6648 33.3416 42.0534 33.6887Z" fill="#180113"/>
</svg>
