<svg width="48" height="45" viewBox="0 0 48 45" fill="none" xmlns="http://www.w3.org/2000/svg">
<path d="M2.50042 0.0790291C1.73191 0.325638 1.00043 0.885254 0.574504 1.58714C-0.036604 2.5641 0.000432863 1.40693 0.000432863 19.1629C0.000432863 35.0028 0.00043286 35.2684 0.185617 35.8565C0.518949 36.9377 1.22265 37.6965 2.30598 38.1423L2.82449 38.3605L10.5282 38.389C14.7689 38.4079 18.2411 38.4459 18.2411 38.4838C18.2411 38.7494 17.3522 41.6613 17.1763 41.9743C16.88 42.496 16.2874 43.0271 15.6578 43.3306L15.1392 43.5772L12.0837 43.6057C8.66705 43.6436 8.70409 43.6342 8.70409 44.2886C8.70409 44.5257 8.76891 44.6965 8.89853 44.8198C9.09298 45 9.46335 45 23.704 45C37.9447 45 38.315 45 38.5095 44.8198C38.6391 44.6965 38.7039 44.5257 38.7039 44.2886C38.7039 43.6342 38.741 43.6436 35.3243 43.6057L32.2688 43.5772L31.7503 43.3306C31.1206 43.0271 30.528 42.496 30.2318 41.9743C30.0558 41.6613 29.1669 38.7494 29.1669 38.4838C29.1669 38.4459 32.6391 38.4079 36.8799 38.389L44.5835 38.3605L45.1021 38.1423C46.1854 37.6965 46.8891 36.9377 47.2224 35.8565C47.4076 35.2684 47.4076 35.0028 47.4076 19.1534C47.4076 3.30393 47.4076 3.03835 47.2224 2.45028C46.8891 1.36899 46.1576 0.581734 45.1298 0.183361C44.6298 -0.00633621 44.5187 -0.00633621 23.6762 0.00314713C12.1578 0.00314713 2.63005 0.0410881 2.50042 0.0790291ZM45.1021 1.74839C45.3521 1.9286 45.602 2.22264 45.7595 2.54513L46.0187 3.04783V15.7483V28.4487H23.704H1.38931V15.7862C1.38931 4.62234 1.40783 3.07629 1.5282 2.77277C1.75042 2.22264 2.08376 1.83375 2.51894 1.6156L2.91708 1.41641L23.8151 1.43538L44.7039 1.46384L45.1021 1.74839ZM46.0187 32.5652V35.2589L45.7595 35.7616C45.4261 36.4161 44.9446 36.767 44.2132 36.8903C43.4539 37.0136 3.95412 37.0136 3.19486 36.8903C2.46338 36.767 1.9819 36.4161 1.64857 35.7616L1.38931 35.2589V32.5652V29.8714H23.704H46.0187V32.5652ZM27.8614 39.0434C27.9632 39.4038 28.1855 40.2006 28.3614 40.8266C28.7595 42.2493 28.8707 42.5149 29.2966 43.084C29.4818 43.3306 29.6299 43.5488 29.6299 43.5772C29.6299 43.6057 26.9633 43.6247 23.704 43.6247C20.4448 43.6247 17.7781 43.6057 17.7781 43.5772C17.7781 43.5488 17.9263 43.3306 18.1115 43.084C18.5374 42.5149 18.6485 42.2493 19.0466 40.8266C19.2226 40.2006 19.4448 39.4038 19.5466 39.0434L19.7318 38.4079H23.704H27.6762L27.8614 39.0434Z" fill="#180113"/>
<path d="M2.9635 3.04656C2.77832 3.24574 2.77832 3.35008 2.77832 8.48145C2.77832 13.6128 2.77832 13.7171 2.9635 13.9163C3.09313 14.0491 3.26906 14.125 3.47276 14.125C3.67646 14.125 3.85238 14.0491 3.98201 13.9163C4.1672 13.7171 4.1672 13.6128 4.1672 8.98415V4.26064H23.704H43.2409V14.9312V25.6018H23.704H4.1672V20.8309C4.1672 16.1548 4.1672 16.0504 3.98201 15.8513C3.85238 15.7185 3.67646 15.6426 3.47276 15.6426C3.26906 15.6426 3.09313 15.7185 2.9635 15.8513C2.77832 16.0504 2.77832 16.1548 2.77832 21.2767C2.78758 26.9107 2.76906 26.7305 3.27832 26.9297C3.63016 27.0625 43.7779 27.0625 44.1298 26.9297C44.6483 26.721 44.6205 27.4324 44.6298 14.8743C44.6298 3.31214 44.6298 3.25523 44.4446 3.04656L44.2501 2.83789H23.704H3.15795L2.9635 3.04656Z" fill="#180113"/>
<path d="M22.8244 31.4547C22.0651 31.8626 21.667 32.5265 21.667 33.3801C21.667 34.6132 22.5003 35.4668 23.704 35.4668C24.9077 35.4668 25.741 34.6132 25.741 33.3801C25.741 32.5265 25.3521 31.8626 24.6114 31.4737C24.1762 31.2461 23.2225 31.2366 22.8244 31.4547ZM24.1854 32.8774C24.3984 33.0671 24.4077 33.6362 24.1947 33.8734C24.0095 34.0915 23.454 34.101 23.2225 33.8828C23.0096 33.6931 23.0003 33.1241 23.2133 32.8869C23.3984 32.6688 23.954 32.6593 24.1854 32.8774Z" fill="#180113"/>
</svg>
