<svg width="45" height="45" viewBox="0 0 45 45" fill="none" xmlns="http://www.w3.org/2000/svg">
<path fill-rule="evenodd" clip-rule="evenodd" d="M22.2475 45.001C34.5578 45.001 44.4951 34.9037 44.4951 22.5005C44.4951 10.0973 34.5578 0 22.2475 0C9.93722 0 0 10.0973 0 22.5005C0 34.9037 9.93722 45.001 22.2475 45.001ZM42.4951 22.5005C42.4951 33.8226 33.4299 43.001 22.2475 43.001C11.0651 43.001 2 33.8226 2 22.5005C2 11.1784 11.0651 2 22.2475 2C33.4299 2 42.4951 11.1784 42.4951 22.5005ZM23.2468 13.5293C23.2468 12.977 22.799 12.5293 22.2468 12.5293C21.6945 12.5293 21.2468 12.977 21.2468 13.5293V22.248C21.2468 22.9384 21.8064 23.498 22.4968 23.498H33.6359C34.1882 23.498 34.6359 23.0503 34.6359 22.498C34.6359 21.9458 34.1882 21.498 33.6359 21.498H23.2468V13.5293Z" fill="#180113"/>
</svg>
