<svg width="23" height="23" viewBox="0 0 23 23" fill="none" xmlns="http://www.w3.org/2000/svg">
<path d="M4.2649 13.3286L10.9278 19.5877C11.1436 19.7904 11.2515 19.8918 11.3767 19.9235C11.4574 19.944 11.542 19.944 11.6227 19.9235C11.7479 19.8918 11.8558 19.7904 12.0715 19.5877L18.7344 13.3286C20.6091 11.5676 20.8368 8.66958 19.2601 6.6374L18.9636 6.25529C17.0774 3.82423 13.2914 4.23193 11.9661 7.00883C11.7789 7.40109 11.2205 7.40109 11.0333 7.00883C9.70795 4.23193 5.92191 3.82422 4.03574 6.25529L3.73927 6.6374C2.16258 8.66958 2.39024 11.5676 4.2649 13.3286Z" stroke="#180113"/>
</svg>
