<svg width="24" height="24" viewBox="0 0 24 24" fill="none" xmlns="http://www.w3.org/2000/svg">
<path d="M8.53333 15.4667C5.79542 12.7288 4.52735 10.207 4.1373 9.32869C4.04127 9.11244 4 8.87888 4 8.64226V6.82843C4 6.29799 4.21071 5.78929 4.58579 5.41421L5.58579 4.41421C6.36683 3.63317 7.63317 3.63317 8.41421 4.41421L9.84062 5.84062C10.5148 6.51475 10.6193 7.57099 10.0905 8.36424L9.64381 9.03429C9.24569 9.63146 9.19507 10.3983 9.56019 11.0162C9.94122 11.661 10.4706 12.4706 11 13C11.5294 13.5294 12.339 14.0588 12.9838 14.4398C13.6017 14.8049 14.3685 14.7543 14.9657 14.3562L15.6358 13.9095C16.429 13.3807 17.4852 13.4852 18.1594 14.1594L19.5858 15.5858C20.3668 16.3668 20.3668 17.6332 19.5858 18.4142L18.5858 19.4142C18.2107 19.7893 17.702 20 17.1716 20H15.3577C15.1211 20 14.8876 19.9587 14.6713 19.8627C13.793 19.4727 11.2712 18.2046 8.53333 15.4667Z" fill="#02A081"/>
<path d="M4.1373 9.32869L3.68033 9.53162H3.68033L4.1373 9.32869ZM8.53333 15.4667L8.17978 15.8202L8.53333 15.4667ZM14.6713 19.8627L14.4684 20.3197H14.4684L14.6713 19.8627ZM4.58579 5.41421L4.23223 5.06066L4.23223 5.06066L4.58579 5.41421ZM5.58579 4.41421L5.93934 4.76777L5.58579 4.41421ZM8.41421 4.41421L8.76777 4.06066L8.41421 4.41421ZM9.84062 5.84062L10.1942 5.48707L9.84062 5.84062ZM10.0905 8.36424L10.5065 8.64159L10.0905 8.36424ZM9.64381 9.03429L9.22778 8.75694L9.64381 9.03429ZM14.9657 14.3562L15.2431 14.7722H15.2431L14.9657 14.3562ZM15.6358 13.9095L15.3584 13.4935H15.3584L15.6358 13.9095ZM18.1594 14.1594L18.5129 13.8058H18.5129L18.1594 14.1594ZM18.5858 19.4142L18.9393 19.7678H18.9393L18.5858 19.4142ZM9.56019 11.0162L9.12973 11.2705H9.12973L9.56019 11.0162ZM12.9838 14.4398L13.2382 14.0093H13.2382L12.9838 14.4398ZM3.68033 9.53162C4.08876 10.4513 5.38834 13.0288 8.17978 15.8202L8.88689 15.1131C6.20251 12.4287 4.96593 9.96267 4.59427 9.12576L3.68033 9.53162ZM8.17978 15.8202C10.9712 18.6117 13.5487 19.9112 14.4684 20.3197L14.8742 19.4057C14.0373 19.0341 11.5713 17.7975 8.88689 15.1131L8.17978 15.8202ZM4.5 8.64226V6.82843H3.5V8.64226H4.5ZM4.93934 5.76777L5.93934 4.76777L5.23223 4.06066L4.23223 5.06066L4.93934 5.76777ZM8.06066 4.76777L9.48707 6.19418L10.1942 5.48707L8.76777 4.06066L8.06066 4.76777ZM9.67448 8.08689L9.22778 8.75694L10.0598 9.31164L10.5065 8.64159L9.67448 8.08689ZM15.2431 14.7722L15.9131 14.3255L15.3584 13.4935L14.6884 13.9402L15.2431 14.7722ZM17.8058 14.5129L19.2322 15.9393L19.9393 15.2322L18.5129 13.8058L17.8058 14.5129ZM19.2322 18.0607L18.2322 19.0607L18.9393 19.7678L19.9393 18.7678L19.2322 18.0607ZM17.1716 19.5H15.3577V20.5H17.1716V19.5ZM9.12973 11.2705C9.51376 11.9204 10.0696 12.7767 10.6464 13.3536L11.3536 12.6464C10.8716 12.1645 10.3687 11.4015 9.99065 10.7618L9.12973 11.2705ZM10.6464 13.3536C11.2233 13.9304 12.0796 14.4862 12.7295 14.8703L13.2382 14.0093C12.5985 13.6313 11.8355 13.1284 11.3536 12.6464L10.6464 13.3536ZM18.2322 19.0607C17.9509 19.342 17.5694 19.5 17.1716 19.5V20.5C17.8346 20.5 18.4705 20.2366 18.9393 19.7678L18.2322 19.0607ZM19.2322 15.9393C19.818 16.5251 19.818 17.4749 19.2322 18.0607L19.9393 18.7678C20.9156 17.7915 20.9157 16.2085 19.9393 15.2322L19.2322 15.9393ZM15.9131 14.3255C16.508 13.9289 17.3002 14.0073 17.8058 14.5129L18.5129 13.8058C17.6703 12.9632 16.35 12.8324 15.3584 13.4935L15.9131 14.3255ZM14.6884 13.9402C14.2365 14.2414 13.6764 14.2683 13.2382 14.0093L12.7295 14.8703C13.5271 15.3416 14.5006 15.2672 15.2431 14.7722L14.6884 13.9402ZM9.22778 8.75694C8.73278 9.49944 8.6584 10.4729 9.12973 11.2705L9.99065 10.7618C9.73174 10.3236 9.75861 9.76348 10.0598 9.31164L9.22778 8.75694ZM5.93934 4.76777C6.52513 4.18198 7.47487 4.18198 8.06066 4.76777L8.76777 4.06066C7.79146 3.08435 6.20854 3.08435 5.23223 4.06066L5.93934 4.76777ZM4.5 6.82843C4.5 6.4306 4.65804 6.04907 4.93934 5.76777L4.23223 5.06066C3.76339 5.5295 3.5 6.16539 3.5 6.82843H4.5ZM14.4684 20.3197C14.7588 20.4487 15.0634 20.5 15.3577 20.5V19.5C15.1788 19.5 15.0163 19.4688 14.8742 19.4057L14.4684 20.3197ZM9.48707 6.19418C9.99267 6.69977 10.0711 7.49195 9.67448 8.08689L10.5065 8.64159C11.1676 7.65003 11.0368 6.32973 10.1942 5.48707L9.48707 6.19418ZM4.59427 9.12576C4.53118 8.9837 4.5 8.8212 4.5 8.64226H3.5C3.5 8.93655 3.55135 9.24117 3.68033 9.53162L4.59427 9.12576Z" fill="#02A081"/>
</svg>
