<svg width="18" height="18" viewBox="0 0 18 18" fill="none" xmlns="http://www.w3.org/2000/svg">
<g clip-path="url(#clip0_110_399)">
<path d="M4.57383 5.05542L0 9.08432L0.084375 9.18979C0.126562 9.24956 0.249609 9.35151 0.355078 9.41479C0.534375 9.52729 0.558984 9.53081 0.826172 9.52026C1.06875 9.5062 1.14258 9.48862 1.35703 9.37612C1.54336 9.27768 2.51367 8.47612 5.36484 6.0644C7.43203 4.31362 9.13359 2.88276 9.14766 2.88276C9.16172 2.88276 10.7297 4.27846 12.6316 5.98354C14.5934 7.74135 16.1824 9.14057 16.2984 9.21089C16.7062 9.45698 17.1809 9.5519 17.4762 9.44995C17.6555 9.39018 17.8418 9.26362 17.9262 9.1476L18 9.04214L15.075 6.39487C13.4648 4.93588 11.475 3.13237 10.6488 2.38354L9.14766 1.02651L4.57383 5.05542Z" fill="#C0C0C0"/>
<path d="M14.0977 3.91982V4.98857L14.959 5.71982C15.4336 6.1206 15.8379 6.45458 15.8555 6.46162C15.8766 6.46865 15.8906 5.79716 15.8906 4.66162V2.84755H14.9941H14.0977V3.91982Z" fill="#C0C0C0"/>
<path d="M5.77282 6.81328L2.46462 9.58008V13.1414C2.4611 17.0613 2.45056 16.8609 2.67556 16.9418C2.7529 16.9699 3.48766 16.9805 5.06266 16.9805H7.33727L7.35837 15.532C7.37243 14.734 7.38298 13.834 7.38298 13.5352C7.38298 13.057 7.39001 12.9762 7.45329 12.8777C7.59391 12.6457 7.63259 12.6387 8.80681 12.6387C9.38688 12.6387 9.92126 12.6527 9.99157 12.6668C10.1533 12.702 10.3291 12.8461 10.3924 12.9973C10.431 13.0887 10.4416 13.4895 10.4416 15.0293V16.9453H12.7267C15.2509 16.9453 15.1595 16.9523 15.2826 16.7238C15.3424 16.6184 15.3459 16.3793 15.3564 13.1133L15.3634 9.61172L12.2662 6.85547C10.5611 5.33672 9.14431 4.08516 9.12321 4.07109C9.09509 4.05352 7.84352 5.08008 5.77282 6.81328Z" fill="#C0C0C0"/>
</g>
<defs>
<clipPath id="clip0_110_399">
<rect width="18" height="18" fill="white"/>
</clipPath>
</defs>
</svg>
