<svg width="17" height="16" viewBox="0 0 17 16" fill="none" xmlns="http://www.w3.org/2000/svg">
<g clip-path="url(#clip0_110_192)">
<path d="M0.500977 4C0.500977 3.46957 0.71169 2.96086 1.08676 2.58579C1.46184 2.21071 1.97054 2 2.50098 2H14.501C15.0314 2 15.5401 2.21071 15.9152 2.58579C16.2903 2.96086 16.501 3.46957 16.501 4V12C16.501 12.5304 16.2903 13.0391 15.9152 13.4142C15.5401 13.7893 15.0314 14 14.501 14H2.50098C1.97054 14 1.46184 13.7893 1.08676 13.4142C0.71169 13.0391 0.500977 12.5304 0.500977 12V4ZM2.50098 3C2.23576 3 1.98141 3.10536 1.79387 3.29289C1.60633 3.48043 1.50098 3.73478 1.50098 4V4.217L8.50098 8.417L15.501 4.217V4C15.501 3.73478 15.3956 3.48043 15.2081 3.29289C15.0205 3.10536 14.7662 3 14.501 3H2.50098ZM15.501 5.383L10.743 8.238L15.501 11.114V5.384V5.383ZM15.467 12.261L9.77198 8.82L8.50098 9.583L7.22898 8.82L1.53498 12.26C1.59217 12.4724 1.71782 12.6601 1.89246 12.7938C2.0671 12.9276 2.28098 13.0001 2.50098 13H14.501C14.7208 13.0001 14.9346 12.9278 15.1092 12.7942C15.2839 12.6607 15.4096 12.4732 15.467 12.261ZM1.50098 11.114L6.25898 8.238L1.50098 5.383V11.113V11.114Z" fill="#252B42"/>
</g>
<defs>
<clipPath id="clip0_110_192">
<rect width="17" height="16" fill="white" transform="translate(0.000976562)"/>
</clipPath>
</defs>
</svg>
