<svg width="16" height="16" viewBox="0 0 16 16" fill="none" xmlns="http://www.w3.org/2000/svg">
<path d="M4.35355 7.02006C4.15829 7.21532 3.84171 7.21532 3.64645 7.02006C3.45118 6.8248 3.45118 6.50821 3.64645 6.31295L4.35355 7.02006ZM8 2.6665L7.64645 2.31295L8 1.9594L8.35355 2.31295L8 2.6665ZM12.3536 6.31295C12.5488 6.50821 12.5488 6.8248 12.3536 7.02006C12.1583 7.21532 11.8417 7.21532 11.6464 7.02006L12.3536 6.31295ZM8.5 12.6665C8.5 12.9426 8.27614 13.1665 8 13.1665C7.72386 13.1665 7.5 12.9426 7.5 12.6665L8.5 12.6665ZM3.64645 6.31295L7.64645 2.31295L8.35355 3.02006L4.35355 7.02006L3.64645 6.31295ZM8.35355 2.31295L12.3536 6.31295L11.6464 7.02006L7.64645 3.02006L8.35355 2.31295ZM8.5 2.6665L8.5 12.6665L7.5 12.6665L7.5 2.6665L8.5 2.6665Z" fill="white"/>
</svg>
