<svg width="16" height="28" viewBox="0 0 16 28" fill="none" xmlns="http://www.w3.org/2000/svg">
<g clip-path="url(#clip0_110_366)">
<path fill-rule="evenodd" clip-rule="evenodd" d="M15.6209 0.505247C15.5214 0.40855 15.4032 0.331831 15.273 0.279486C15.1429 0.22714 15.0034 0.200195 14.8625 0.200195C14.7216 0.200195 14.5821 0.22714 14.4519 0.279486C14.3218 0.331831 14.2036 0.40855 14.1041 0.505247L1.25024 12.9653C1.15049 13.0618 1.07134 13.1764 1.01734 13.3025C0.963344 13.4287 0.935547 13.5639 0.935547 13.7005C0.935547 13.837 0.963344 13.9723 1.01734 14.0984C1.07134 14.2246 1.15049 14.3392 1.25024 14.4356L14.1041 26.8957C14.3052 27.0907 14.578 27.2002 14.8625 27.2002C15.1469 27.2002 15.4197 27.0907 15.6209 26.8957C15.822 26.7007 15.935 26.4363 15.935 26.1605C15.935 25.8848 15.822 25.6204 15.6209 25.4254L3.52323 13.7005L15.6209 1.97554C15.7206 1.87908 15.7998 1.7645 15.8538 1.63835C15.9078 1.5122 15.9355 1.37697 15.9355 1.24039C15.9355 1.10381 15.9078 0.968578 15.8538 0.84243C15.7998 0.716282 15.7206 0.6017 15.6209 0.505247Z" fill="white"/>
</g>
<defs>
<clipPath id="clip0_110_366">
<rect width="16" height="28" fill="white" transform="matrix(-1 0 0 1 16 0)"/>
</clipPath>
</defs>
</svg>
