<svg width="17" height="16" viewBox="0 0 17 16" fill="none" xmlns="http://www.w3.org/2000/svg">
<g clip-path="url(#clip0_110_189)">
<path d="M16.502 8.05C16.502 3.604 12.92 0 8.502 0C4.082 0.001 0.5 3.604 0.5 8.051C0.5 12.068 3.426 15.398 7.25 16.002V10.377H5.22V8.051H7.252V6.276C7.252 4.259 8.447 3.145 10.274 3.145C11.15 3.145 12.065 3.302 12.065 3.302V5.282H11.056C10.063 5.282 9.753 5.903 9.753 6.54V8.05H11.971L11.617 10.376H9.752V16.001C13.576 15.397 16.502 12.067 16.502 8.05Z" fill="#252B42"/>
</g>
<defs>
<clipPath id="clip0_110_189">
<rect width="17" height="16" fill="white"/>
</clipPath>
</defs>
</svg>
