<svg width="16" height="16" viewBox="0 0 16 16" fill="none" xmlns="http://www.w3.org/2000/svg">
<g clip-path="url(#clip0_110_226)">
<path d="M11.7424 10.3441C12.7107 9.02279 13.1444 7.38459 12.9567 5.75725C12.769 4.12991 11.9738 2.63344 10.7302 1.56723C9.48653 0.501022 7.88616 -0.0562959 6.24925 0.00677721C4.61233 0.0698504 3.05959 0.748663 1.90168 1.90741C0.743761 3.06615 0.0660601 4.61938 0.00415825 6.25633C-0.0577436 7.89329 0.500719 9.49326 1.56782 10.7361C2.63492 11.979 4.13195 12.7732 5.75943 12.9597C7.3869 13.1462 9.02479 12.7113 10.3454 11.7421H10.3444C10.3744 11.7821 10.4064 11.8201 10.4424 11.8571L14.2924 15.7071C14.4799 15.8947 14.7343 16.0002 14.9996 16.0003C15.2648 16.0004 15.5193 15.8951 15.7069 15.7076C15.8946 15.5201 16 15.2657 16.0001 15.0005C16.0002 14.7352 15.8949 14.4807 15.7074 14.2931L11.8574 10.4431C11.8217 10.4069 11.7832 10.3735 11.7424 10.3431V10.3441ZM12.0004 6.5001C12.0004 7.22237 11.8581 7.93757 11.5817 8.60486C11.3053 9.27215 10.9002 9.87847 10.3895 10.3892C9.87877 10.8999 9.27246 11.305 8.60517 11.5814C7.93788 11.8578 7.22268 12.0001 6.50041 12.0001C5.77814 12.0001 5.06294 11.8578 4.39565 11.5814C3.72836 11.305 3.12204 10.8999 2.61132 10.3892C2.1006 9.87847 1.69547 9.27215 1.41907 8.60486C1.14267 7.93757 1.00041 7.22237 1.00041 6.5001C1.00041 5.04141 1.57987 3.64246 2.61132 2.61101C3.64277 1.57956 5.04172 1.0001 6.50041 1.0001C7.9591 1.0001 9.35805 1.57956 10.3895 2.61101C11.4209 3.64246 12.0004 5.04141 12.0004 6.5001Z" fill="#02A081"/>
</g>
<defs>
<clipPath id="clip0_110_226">
<rect width="16.0006" height="16.0003" fill="white" transform="translate(-0.000488281)"/>
</clipPath>
</defs>
</svg>
