<svg width="24" height="24" viewBox="0 0 24 24" fill="none" xmlns="http://www.w3.org/2000/svg">
<path fill-rule="evenodd" clip-rule="evenodd" d="M17.5 8.83333C17.5 10.9894 15.0366 14.3652 13.4071 16.3625C12.6701 17.2658 11.3299 17.2658 10.5929 16.3625C8.96336 14.3652 6.5 10.9894 6.5 8.83333C6.5 5.61167 8.96243 3 12 3C15.0376 3 17.5 5.61167 17.5 8.83333ZM12 10C12.8284 10 13.5 9.32843 13.5 8.5C13.5 7.67157 12.8284 7 12 7C11.1716 7 10.5 7.67157 10.5 8.5C10.5 9.32843 11.1716 10 12 10Z" fill="#02A081"/>
<path fill-rule="evenodd" clip-rule="evenodd" d="M12 3.5C9.26589 3.5 7 5.85969 7 8.83333C7 9.76198 7.54689 11.0409 8.36389 12.3998C9.16593 13.7339 10.1725 15.0563 10.9803 16.0464C11.5172 16.7045 12.4828 16.7045 13.0197 16.0464C13.8275 15.0563 14.8341 13.7339 15.6361 12.3998C16.4531 11.0409 17 9.76198 17 8.83333C17 5.85969 14.7341 3.5 12 3.5ZM6 8.83333C6 5.36365 8.65898 2.5 12 2.5C15.341 2.5 18 5.36365 18 8.83333C18 10.0608 17.3152 11.5478 16.4931 12.9151C15.6561 14.3073 14.6162 15.6714 13.7945 16.6786C12.8575 17.8271 11.1425 17.8271 10.2055 16.6786C9.38377 15.6714 8.34389 14.3073 7.50686 12.9151C6.6848 11.5478 6 10.0608 6 8.83333ZM12 7.5C11.4477 7.5 11 7.94772 11 8.5C11 9.05228 11.4477 9.5 12 9.5C12.5523 9.5 13 9.05228 13 8.5C13 7.94772 12.5523 7.5 12 7.5ZM10 8.5C10 7.39543 10.8954 6.5 12 6.5C13.1046 6.5 14 7.39543 14 8.5C14 9.60457 13.1046 10.5 12 10.5C10.8954 10.5 10 9.60457 10 8.5ZM6.48523 16.5159C6.55185 16.7839 6.38862 17.0552 6.12064 17.1218C5.22345 17.3449 4.52807 17.6106 4.0693 17.8895C3.58201 18.1858 3.5 18.4073 3.5 18.5C3.5 18.5848 3.56718 18.7829 3.98174 19.0552C4.37594 19.3141 4.97939 19.5664 5.76986 19.786C7.34377 20.2232 9.54664 20.5 12 20.5C14.4534 20.5 16.6562 20.2232 18.2301 19.786C19.0206 19.5664 19.6241 19.3141 20.0183 19.0552C20.4328 18.7829 20.5 18.5848 20.5 18.5C20.5 18.4073 20.418 18.1858 19.9307 17.8895C19.4719 17.6106 18.7765 17.3449 17.8794 17.1218C17.6114 17.0552 17.4481 16.7839 17.5148 16.5159C17.5814 16.2479 17.8527 16.0847 18.1206 16.1513C19.0647 16.386 19.8693 16.6818 20.4502 17.0351C21.0026 17.3709 21.5 17.8522 21.5 18.5C21.5 19.1056 21.0635 19.5651 20.5672 19.891C20.0506 20.2303 19.336 20.5167 18.4978 20.7495C16.8143 21.2171 14.5172 21.5 12 21.5C9.4828 21.5 7.18566 21.2171 5.50222 20.7495C4.66401 20.5167 3.94944 20.2303 3.43279 19.891C2.9365 19.5651 2.5 19.1056 2.5 18.5C2.5 17.8522 2.99737 17.3709 3.54976 17.0351C4.13068 16.6818 4.9353 16.386 5.87936 16.1513C6.14735 16.0847 6.4186 16.2479 6.48523 16.5159Z" fill="#02A081"/>
</svg>
