<svg width="16" height="28" viewBox="0 0 16 28" fill="none" xmlns="http://www.w3.org/2000/svg">
<g clip-path="url(#clip0_110_364)">
<path fill-rule="evenodd" clip-rule="evenodd" d="M0.380121 0.505247C0.479622 0.40855 0.597825 0.331831 0.72796 0.279486C0.858095 0.22714 0.997605 0.200195 1.1385 0.200195C1.27939 0.200195 1.4189 0.22714 1.54904 0.279486C1.67917 0.331831 1.79738 0.40855 1.89688 0.505247L14.7507 12.9653C14.8505 13.0618 14.9296 13.1764 14.9836 13.3025C15.0376 13.4287 15.0654 13.5639 15.0654 13.7005C15.0654 13.837 15.0376 13.9723 14.9836 14.0984C14.9296 14.2246 14.8505 14.3392 14.7507 14.4356L1.89688 26.8957C1.69574 27.0907 1.42295 27.2002 1.1385 27.2002C0.854052 27.2002 0.581255 27.0907 0.380121 26.8957C0.178987 26.7007 0.0659905 26.4363 0.0659905 26.1605C0.0659905 25.8848 0.178987 25.6204 0.380121 25.4254L12.4777 13.7005L0.380121 1.97554C0.280368 1.87908 0.201225 1.7645 0.147225 1.63835C0.0932248 1.5122 0.0654297 1.37697 0.0654297 1.24039C0.0654297 1.10381 0.0932248 0.968578 0.147225 0.84243C0.201225 0.716282 0.280368 0.6017 0.380121 0.505247Z" fill="white"/>
</g>
<defs>
<clipPath id="clip0_110_364">
<rect width="16" height="28" fill="white"/>
</clipPath>
</defs>
</svg>
