<svg width="110" height="20" viewBox="0 0 110 20" fill="none" xmlns="http://www.w3.org/2000/svg">
<path d="M9.52546 17.0001L8.73346 14.2461H4.28746L3.49546 17.0001H0.147461L4.52146 4.09411H8.44546L12.8735 17.0001H9.52546ZM7.29346 9.11611C7.23346 8.90011 7.14946 8.61211 7.04146 8.25211C6.94546 7.88011 6.84346 7.50211 6.73546 7.11811C6.63946 6.73411 6.56146 6.41011 6.50146 6.14611C6.45346 6.41011 6.37546 6.74011 6.26746 7.13611C6.17146 7.52011 6.07546 7.89811 5.97946 8.27011C5.88346 8.63011 5.80546 8.91211 5.74546 9.11611L4.98946 11.6901H8.04946L7.29346 9.11611Z" fill="black" fill-opacity="0.5"/>
<path d="M18.13 1.80811V9.51211H15.862V5.94811C15.862 5.80411 15.868 5.60611 15.88 5.35411C15.892 5.09011 15.904 4.83811 15.916 4.59811C15.928 4.34611 15.94 4.17811 15.952 4.09411C15.88 4.20211 15.784 4.32211 15.664 4.45411C15.544 4.57411 15.436 4.67611 15.34 4.76011L14.638 5.31811L13.54 4.04011L16.348 1.80811H18.13Z" fill="black" fill-opacity="0.5"/>
<path d="M46.075 8.42233C46.095 6.01233 44.0425 3.80316 41.5 3.49733C41.4451 3.49048 41.3903 3.48214 41.3358 3.47233C41.208 3.44786 41.0784 3.43393 40.9483 3.43066C40.4267 3.43066 40.2875 3.79733 40.2508 4.01483C40.215 4.22733 40.2492 4.4065 40.3517 4.54566C40.5242 4.77983 40.8283 4.8215 41.0725 4.85483C41.1433 4.86483 41.2108 4.874 41.2675 4.8865C43.5525 5.39733 44.3217 6.19983 44.6975 8.46566C44.7067 8.52066 44.7108 8.589 44.7158 8.6615C44.7325 8.93233 44.7658 9.49566 45.3717 9.49566C45.4217 9.49566 45.4767 9.4915 45.5333 9.48316C46.0967 9.39733 46.0792 8.88233 46.0708 8.63483C46.0683 8.56483 46.0658 8.499 46.0725 8.45483C46.0738 8.44377 46.0744 8.43263 46.0742 8.4215L46.075 8.42233Z" fill="black" fill-opacity="0.5"/>
<path d="M40.7999 2.61333C40.8683 2.61833 40.9316 2.62333 40.9849 2.63083C44.7374 3.20833 46.4633 4.98583 46.9408 8.7675C46.9491 8.83167 46.9508 8.91 46.9516 8.9925C46.9566 9.28833 46.9666 9.90333 47.6266 9.91583H47.6466C47.8541 9.91583 48.0183 9.85333 48.1366 9.73C48.3416 9.51583 48.3283 9.19667 48.3158 8.94C48.3133 8.87667 48.3108 8.8175 48.3108 8.765C48.3591 4.89833 45.0108 1.39083 41.1474 1.26083C41.1308 1.26083 41.1158 1.26083 41.1008 1.26333C41.0856 1.26525 41.0702 1.26609 41.0549 1.26583C41.0158 1.26583 40.9691 1.2625 40.9183 1.25917C40.8583 1.255 40.7891 1.25 40.7183 1.25C40.1033 1.25 39.9866 1.6875 39.9716 1.94833C39.9374 2.55083 40.5199 2.59333 40.7999 2.61333ZM46.7599 13.655C46.6794 13.5938 46.5997 13.5316 46.5208 13.4683C46.1108 13.1383 45.6749 12.835 45.2541 12.5408L44.9916 12.3575C44.4516 11.9783 43.9666 11.7942 43.5083 11.7942C42.8899 11.7942 42.3516 12.1358 41.9066 12.8083C41.7099 13.1067 41.4708 13.2517 41.1766 13.2517C40.9723 13.2445 40.7718 13.1943 40.5883 13.1042C38.8466 12.3142 37.6016 11.1025 36.8899 9.50333C36.5458 8.73 36.6574 8.225 37.2624 7.81333C37.6066 7.58 38.2458 7.14583 38.2016 6.31333C38.1499 5.36917 36.0658 2.52667 35.1874 2.20417C34.8119 2.0672 34.4004 2.06602 34.0241 2.20083C33.0149 2.54 32.2916 3.13667 31.9291 3.92417C31.5791 4.68583 31.5958 5.58 31.9741 6.51C33.0699 9.19917 34.6099 11.5442 36.5524 13.4792C38.4533 15.3733 40.7899 16.9242 43.4966 18.09C43.7408 18.195 43.9966 18.2525 44.1841 18.2942C44.2474 18.3083 44.3024 18.3208 44.3424 18.3317C44.3644 18.3376 44.3871 18.3407 44.4099 18.3408H44.4316C45.7049 18.3408 47.2341 17.1775 47.7033 15.8517C48.1149 14.69 47.3633 14.1158 46.7599 13.655ZM41.3633 5.68583C41.1458 5.69083 40.6916 5.7025 40.5324 6.16417C40.4574 6.38083 40.4666 6.5675 40.5591 6.72167C40.6941 6.94667 40.9533 7.01667 41.1883 7.055C42.0424 7.19167 42.4816 7.66333 42.5691 8.54083C42.6099 8.94917 42.8858 9.235 43.2383 9.235C43.265 9.23496 43.2917 9.23329 43.3183 9.23C43.7433 9.18 43.9491 8.8675 43.9308 8.30167C43.9374 7.71167 43.6291 7.04167 43.1033 6.50833C42.5766 5.97333 41.9416 5.67167 41.3633 5.68583Z" fill="black" fill-opacity="0.5"/>
<path d="M70.625 18.75C69.0104 18.75 67.4935 18.3594 66.0742 17.5781L60 20L62.4219 13.9258C61.6406 12.5065 61.25 10.9896 61.25 9.375C61.25 8.09896 61.4974 6.88477 61.9922 5.73242C62.487 4.58008 63.1543 3.58398 63.9941 2.74414C64.834 1.9043 65.8301 1.23698 66.9824 0.742188C68.1348 0.247396 69.349 0 70.625 0C71.901 0 73.1152 0.247396 74.2676 0.742188C75.4199 1.23698 76.416 1.9043 77.2559 2.74414C78.0957 3.58398 78.763 4.58008 79.2578 5.73242C79.7526 6.88477 80 8.09896 80 9.375C80 10.651 79.7526 11.8652 79.2578 13.0176C78.763 14.1699 78.0957 15.166 77.2559 16.0059C76.416 16.8457 75.4199 17.513 74.2676 18.0078C73.1152 18.5026 71.901 18.75 70.625 18.75ZM73.75 11.25H72.5L71.7969 11.875C71.2109 11.7188 70.4915 11.2142 69.6387 10.3613C68.7858 9.50846 68.2812 8.78906 68.125 8.20312L68.75 7.5V6.25C68.75 6.02865 68.6719 5.80729 68.5156 5.58594C68.3594 5.36458 68.1868 5.20508 67.998 5.10742C67.8092 5.00977 67.6758 5 67.5977 5.07812L66.6797 5.99609C66.1719 6.50391 66.097 7.29492 66.4551 8.36914C66.8132 9.44336 67.4967 10.485 68.5059 11.4941C69.515 12.5033 70.5566 13.1868 71.6309 13.5449C72.7051 13.903 73.4961 13.8281 74.0039 13.3203L74.9219 12.4023C75 12.3242 74.9902 12.1908 74.8926 12.002C74.7949 11.8132 74.6354 11.6406 74.4141 11.4844C74.1927 11.3281 73.9714 11.25 73.75 11.25Z" fill="black" fill-opacity="0.5"/>
<g opacity="0.85">
<g clip-path="url(#clip0)">
<path fill-rule="evenodd" clip-rule="evenodd" d="M110.037 20.0356H90V0H110.037V20.0356ZM105.909 11.5569C105.909 7.14848 102.866 2.05783 100.019 2.05783C97.1708 2.05783 94.1309 7.14848 94.1309 11.5569C94.1309 15.0196 96.1611 17.9735 100.019 17.9735C103.873 17.9735 105.909 15.0196 105.909 11.5569Z" fill="black" fill-opacity="0.5"/>
</g>
</g>
<defs>
<clipPath id="clip0">
<rect x="90" width="20" height="20" rx="1" fill="white"/>
</clipPath>
</defs>
</svg>
