<svg width="11" height="15" viewBox="0 0 11 15" fill="none" xmlns="http://www.w3.org/2000/svg">
<path d="M5.42531 2.17371C4.90338 2.17371 4.39317 2.32848 3.9592 2.61845C3.52523 2.90842 3.18699 3.32056 2.98725 3.80276C2.78752 4.28496 2.73526 4.81557 2.83708 5.32747C2.93891 5.83937 3.19024 6.30958 3.5593 6.67864C3.92836 7.04771 4.39858 7.29904 4.91048 7.40086C5.42238 7.50269 5.95298 7.45043 6.43519 7.25069C6.91739 7.05096 7.32953 6.71272 7.6195 6.27875C7.90947 5.84478 8.06424 5.33457 8.06424 4.81264C8.06424 4.11275 7.78621 3.44153 7.29132 2.94663C6.79642 2.45174 6.1252 2.17371 5.42531 2.17371ZM5.42531 6.53048C5.08555 6.53048 4.75343 6.42973 4.47093 6.24097C4.18843 6.05221 3.96825 5.78392 3.83823 5.47003C3.70821 5.15613 3.6742 4.81073 3.74048 4.4775C3.80676 4.14428 3.97037 3.83819 4.21061 3.59794C4.45086 3.3577 4.75695 3.19409 5.09018 3.12781C5.4234 3.06152 5.7688 3.09554 6.0827 3.22556C6.39659 3.35558 6.66488 3.57576 6.85364 3.85826C7.0424 4.14075 7.14315 4.47288 7.14315 4.81264C7.14193 5.26744 6.9604 5.70319 6.63838 6.02436C6.31635 6.34552 5.88011 6.52587 5.42531 6.52587V6.53048Z" fill="#EF7F1A"/>
<path d="M5.42524 4.55905e-10C3.99073 0.00119815 2.61498 0.570012 1.59847 1.58221C0.58196 2.5944 0.00729981 3.96772 0 5.40221C0 7.55296 1.20663 9.3537 2.09088 10.6663L2.25207 10.9057C3.13184 12.1808 4.07564 13.4105 5.07983 14.5901L5.42984 15L5.77986 14.5901C6.78392 13.4104 7.72771 12.1807 8.60761 10.9057L8.76881 10.6617C9.64845 9.34909 10.8551 7.55296 10.8551 5.40221C10.8478 3.96692 10.2725 2.59291 9.25498 1.58058C8.23748 0.568258 6.86055 -1.85859e-05 5.42524 4.55905e-10ZM7.99969 10.132L7.8339 10.3761C7.04176 11.5643 5.99171 12.8953 5.42524 13.5539C4.88179 12.8953 3.80872 11.5643 3.01658 10.3761L2.85539 10.132C2.04022 8.91618 0.921093 7.25361 0.921093 5.38379C0.921093 4.7923 1.0376 4.2066 1.26395 3.66013C1.49031 3.11366 1.82208 2.61713 2.24033 2.19888C2.65858 1.78063 3.15511 1.44886 3.70158 1.2225C4.24804 0.996147 4.83375 0.879644 5.42524 0.879644C6.01673 0.879644 6.60243 0.996147 7.1489 1.2225C7.69537 1.44886 8.1919 1.78063 8.61015 2.19888C9.0284 2.61713 9.36017 3.11366 9.58653 3.66013C9.81288 4.2066 9.92938 4.7923 9.92938 5.38379C9.92938 7.27203 8.81486 8.9346 7.99969 10.132Z" fill="#EF7F1A"/>
</svg>
