<svg width="70" height="70" viewBox="0 0 70 70" fill="none" xmlns="http://www.w3.org/2000/svg">
<g clip-path="url(#clip0_49_71)">
<g filter="url(#filter0_d_49_71)">
<path d="M54.4453 32.2686L23.2944 1.11828C22.5739 0.397233 21.6122 0 20.5866 0C19.5611 0 18.5993 0.397233 17.8789 1.11828L15.5848 3.41176C14.0921 4.90622 14.0921 7.33514 15.5848 8.82733L41.743 34.9855L15.5558 61.1727C14.8353 61.8937 14.4375 62.8549 14.4375 63.8799C14.4375 64.906 14.8353 65.8672 15.5558 66.5888L17.8498 68.8817C18.5709 69.6028 19.5321 70 20.5576 70C21.5831 70 22.5449 69.6028 23.2654 68.8817L54.4453 37.7029C55.1675 36.9796 55.5642 36.0139 55.5619 34.9872C55.5642 33.9566 55.1675 32.9914 54.4453 32.2686Z" fill="white"/>
</g>
</g>
<defs>
<filter id="filter0_d_49_71" x="4.4375" y="-10" width="61.1245" height="90" filterUnits="userSpaceOnUse" color-interpolation-filters="sRGB">
<feFlood flood-opacity="0" result="BackgroundImageFix"/>
<feColorMatrix in="SourceAlpha" type="matrix" values="0 0 0 0 0 0 0 0 0 0 0 0 0 0 0 0 0 0 127 0" result="hardAlpha"/>
<feOffset/>
<feGaussianBlur stdDeviation="5"/>
<feComposite in2="hardAlpha" operator="out"/>
<feColorMatrix type="matrix" values="0 0 0 0 0 0 0 0 0 0 0 0 0 0 0 0 0 0 0.1 0"/>
<feBlend mode="normal" in2="BackgroundImageFix" result="effect1_dropShadow_49_71"/>
<feBlend mode="normal" in="SourceGraphic" in2="effect1_dropShadow_49_71" result="shape"/>
</filter>
<clipPath id="clip0_49_71">
<rect width="70" height="70" fill="white"/>
</clipPath>
</defs>
</svg>
