<svg width="35" height="38" viewBox="0 0 35 38" fill="none" xmlns="http://www.w3.org/2000/svg">
<path d="M34.2348 21.6128C35.3452 12.2457 33.7013 6.33205 30.736 3.65731L30.7375 3.65576C25.9515 -0.91198 9.78812 -1.58805 4.06224 3.86091C1.49086 6.52633 0.585142 10.4382 0.485885 15.281C0.386628 20.1254 0.26876 29.2003 8.70715 31.6621H8.71491L8.70715 35.4216C8.70715 35.4216 8.64977 36.9447 9.62063 37.2509C10.7311 37.6115 11.2336 36.9043 14.6874 32.7702C20.4629 33.2722 24.8984 32.1221 25.4025 31.9543C26.5688 31.5626 33.1678 30.6876 34.2348 21.6128ZM15.2566 30.125C15.2566 30.125 11.6011 34.6927 10.4643 35.8786C10.0921 36.264 9.68421 36.2283 9.69042 35.4636C9.69042 34.9616 9.71833 29.222 9.71833 29.222C2.56408 27.1674 2.98592 19.44 3.06346 15.3976C3.14101 11.3536 3.87923 8.04165 6.05668 5.8114C11.08 1.09136 25.2505 2.14665 28.861 5.54719C33.2748 9.46839 31.7038 20.5466 31.7131 20.9243C30.8058 28.4993 25.4583 28.9796 24.4751 29.3075C24.0548 29.4474 20.1543 30.4529 15.2566 30.125Z" fill="#8E24AA"/>
<path d="M17.2774 6.69873C16.6803 6.69873 16.6803 7.63124 17.2774 7.63901C21.9099 7.67476 25.7251 10.9106 25.767 16.846C25.767 17.4723 26.682 17.4645 26.6743 16.8382H26.6727C26.6231 10.4427 22.4574 6.73448 17.2774 6.69873Z" fill="#8E24AA"/>
<path d="M23.3715 15.8621C23.3575 16.4807 24.271 16.5102 24.2787 15.8839C24.3547 12.3574 22.185 9.45266 18.1077 9.14648C17.5106 9.10297 17.4486 10.0432 18.0441 10.0868C21.5802 10.3556 23.4428 12.7739 23.3715 15.8621Z" fill="#8E24AA"/>
<path d="M22.3963 19.8739C21.6301 19.4294 20.85 19.706 20.5274 20.1428L19.8528 21.0178C19.5101 21.4623 18.8695 21.4032 18.8695 21.4032C14.1952 20.1645 12.9451 15.2626 12.9451 15.2626C12.9451 15.2626 12.8878 14.599 13.3158 14.2431L14.1595 13.5437C14.5813 13.208 14.8481 12.3998 14.4185 11.6057C13.2708 9.52772 12.5 8.81125 12.1077 8.26107C11.6951 7.74353 11.0748 7.62696 10.4296 7.97665H10.4156C9.07413 8.76307 7.60544 10.2349 8.07536 11.7502C8.87717 13.3479 10.3505 18.4409 15.0466 22.2891C17.2535 24.109 20.7461 25.9741 22.2288 26.4046L22.2427 26.4263C23.7037 26.9143 25.1243 25.385 25.8827 24.0002V23.9894C26.2192 23.3195 26.1075 22.6854 25.6159 22.2704C24.7443 21.4188 23.4291 20.4785 22.3963 19.8739Z" fill="#8E24AA"/>
<path d="M18.746 12.6156C20.2364 12.7026 20.9592 13.4828 21.0367 15.0852C21.0646 15.7115 21.9719 15.668 21.944 15.0417C21.8447 12.9497 20.756 11.7841 18.7957 11.6753C18.1986 11.6396 18.1427 12.5798 18.746 12.6156Z" fill="#8E24AA"/>
</svg>
