<svg width="35" height="35" viewBox="0 0 35 35" fill="none" xmlns="http://www.w3.org/2000/svg">
<g clip-path="url(#clip0_121:27)">
<path d="M17.1255 27.4007H19.2169C19.2169 27.4007 19.8491 27.3307 20.1707 26.9828C20.4682 26.6634 20.4573 26.064 20.4573 26.064C20.4573 26.064 20.4157 23.2573 21.7196 22.8438C23.0037 22.4369 24.6532 25.5565 26.4012 26.7575C27.7225 27.6654 28.7266 27.4663 28.7266 27.4663L33.4017 27.4007C33.4017 27.4007 35.8475 27.2497 34.688 25.3268C34.5939 25.1693 34.012 23.9048 31.2118 21.3059C28.2804 18.5844 28.6741 19.0263 32.205 14.3207C34.3555 11.4548 35.2152 9.70468 34.9462 8.9565C34.6902 8.24333 33.1085 8.43146 33.1085 8.43146L27.8494 8.46209C27.8494 8.46209 27.46 8.40959 27.169 8.58241C26.8868 8.75305 26.7052 9.14683 26.7052 9.14683C26.7052 9.14683 25.8717 11.3651 24.7604 13.2509C22.4174 17.2302 21.4789 17.4403 21.0961 17.1931C20.2057 16.6177 20.4288 14.8785 20.4288 13.6447C20.4288 9.78782 21.013 8.17988 19.2891 7.76423C18.7159 7.6264 18.2959 7.53452 16.8323 7.51921C14.9553 7.49952 13.3649 7.52577 12.4658 7.96549C11.8664 8.25864 11.4048 8.91275 11.687 8.94994C12.0348 8.99588 12.8224 9.16214 13.2402 9.73094C13.7806 10.4638 13.7609 12.1133 13.7609 12.1133C13.7609 12.1133 14.0715 16.6527 13.0367 17.2171C12.3258 17.6043 11.3523 16.8146 9.26304 13.2028C8.19327 11.3542 7.38384 9.30872 7.38384 9.30872C7.38384 9.30872 7.22851 8.92806 6.95068 8.72461C6.61378 8.47741 6.14125 8.39865 6.14125 8.39865L1.14026 8.42928C1.14026 8.42928 0.389892 8.45115 0.114247 8.77712C-0.130771 9.06807 0.0945577 9.66749 0.0945577 9.66749C0.0945577 9.66749 4.01047 18.8272 8.44267 23.4454C12.5095 27.6785 17.1255 27.4007 17.1255 27.4007Z" fill="#333333"/>
</g>
<defs>
<clipPath id="clip0_121:27">
<rect width="35" height="35" fill="white"/>
</clipPath>
</defs>
</svg>
