<svg width="50" height="49" fill="none" xmlns="http://www.w3.org/2000/svg"><path d="M8.187 35a.783.783 0 01.781.779v1.773l1.566-.893a.785.785 0 011.05.298.775.775 0 01-.275 1.052l-1.547.88 1.547.88a.778.778 0 01-.775 1.351l-1.566-.89V42a.776.776 0 01-.78.778.783.783 0 01-.782-.778v-1.773l-1.566.893a.785.785 0 01-1.05-.298.775.775 0 01.275-1.052l1.547-.88-1.547-.88a.778.778 0 01-.275-1.053.78.78 0 011.05-.298l1.566.89v-1.77A.776.776 0 018.187 35zm8.595 6.223a.783.783 0 01.781.777v1.774l1.563-.893a.785.785 0 011.067.288.775.775 0 01-.289 1.062l-1.547.88 1.547.88a.778.778 0 01-.775 1.35l-1.566-.889v1.77a.776.776 0 01-.781.778.783.783 0 01-.781-.778V46.45l-1.566.893a.785.785 0 01-1.05-.298.774.774 0 01.275-1.052l1.547-.88-1.547-.881a.778.778 0 01.775-1.35l1.566.89V42a.775.775 0 01.781-.778zm17.19 0a.783.783 0 01.781.777v1.774l1.563-.893a.782.782 0 011.143.878.778.778 0 01-.365.472l-1.547.88 1.547.88a.778.778 0 01.275 1.053.78.78 0 01-1.05.298l-1.566-.89v1.77a.776.776 0 01-.781.778.783.783 0 01-.782-.778V46.45l-1.565.893a.785.785 0 01-1.05-.298.774.774 0 01.274-1.052l1.547-.88-1.547-.881a.778.778 0 01.776-1.35l1.565.89V42a.776.776 0 01.782-.778zM25.377 35a.783.783 0 01.781.778v1.773l1.563-.893a.785.785 0 011.067.288.775.775 0 01-.289 1.062l-1.547.88 1.547.88a.778.778 0 01.275 1.053.781.781 0 01-1.05.298l-1.566-.89V42a.776.776 0 01-.781.778.783.783 0 01-.782-.778v-1.773l-1.565.893a.785.785 0 01-1.05-.298.775.775 0 01.274-1.052l1.548-.88-1.547-.88a.778.778 0 01-.275-1.053.78.78 0 011.05-.298l1.565.89v-1.77a.776.776 0 01.782-.778zm17.19 0a.783.783 0 01.78.778v1.773l1.563-.893a.785.785 0 011.068.288.775.775 0 01-.29 1.062l-1.546.88 1.547.88a.778.778 0 01-.775 1.351l-1.566-.89V42a.776.776 0 01-.782.778.783.783 0 01-.78-.778v-1.773l-1.567.893a.783.783 0 01-1.179-.572.774.774 0 01.404-.778l1.547-.88-1.547-.88a.778.778 0 01.775-1.351l1.566.89v-1.77a.776.776 0 01.782-.778zm-.688-22.47a15.54 15.54 0 00-4.79-8.46 15.69 15.69 0 00-18.436-1.94 15.58 15.58 0 00-6.462 7.276A10.988 10.988 0 003.9 11.89a10.896 10.896 0 00-2.74 3.453A10.849 10.849 0 002.977 27.69a10.94 10.94 0 003.618 2.527c1.366.588 2.838.893 4.327.895h29.691a9.4 9.4 0 006.409-2.51 9.304 9.304 0 00.867-12.723 9.387 9.387 0 00-6.01-3.349z" fill="#fff"/></svg>