<svg width="50" height="50" fill="none" xmlns="http://www.w3.org/2000/svg"><path d="M25.006 0h-.012C11.209 0 0 11.213 0 25a24.814 24.814 0 004.76 14.653l-3.116 9.288 9.61-3.072A24.784 24.784 0 0025.005 50C38.791 50 50 38.784 50 25S38.79 0 25.006 0z" fill="#2DB1E6"/><path d="M39.553 35.303c-.603 1.703-2.997 3.116-4.906 3.528-1.306.279-3.013.5-8.756-1.88-7.347-3.045-12.078-10.51-12.447-10.995-.353-.484-2.969-3.953-2.969-7.54 0-3.588 1.822-5.335 2.556-6.085.603-.615 1.6-.896 2.556-.896.31 0 .588.015.838.028.734.03 1.103.075 1.587 1.234.604 1.453 2.072 5.04 2.247 5.41.178.368.357.868.107 1.353-.235.5-.441.721-.81 1.146-.369.425-.719.75-1.087 1.207-.338.397-.719.822-.294 1.556.425.719 1.894 3.116 4.056 5.04 2.79 2.485 5.053 3.279 5.863 3.616.603.25 1.322.19 1.762-.278.56-.603 1.25-1.603 1.953-2.587.5-.707 1.132-.794 1.794-.544.675.234 4.247 2 4.981 2.365.735.37 1.22.544 1.397.854.175.309.175 1.762-.428 3.468z" fill="#FAFAFA"/><path d="M25.274 10.134c.233-.222.383-.235 1.184-.304a11.336 11.336 0 011.36-.017c1.67.057 2.743.216 4.256.791 1.513.575 2.47 1.148 3.822 2.191 1.247 1.002 1.921 1.8 2.74 3.092 1.111 1.77 1.798 3.88 2.107 6.274.12.796.087 1-.092 1.269-.311.48-1.117.5-1.465-.025-.113-.141-.126-.292-.233-.938-.136-.997-.243-1.643-.463-2.431-.815-3.007-2.53-5.33-5.084-6.874-2.129-1.278-3.929-1.677-6.65-1.643-.951.082-1.101.095-1.319-.088-.422-.215-.483-.916-.163-1.297z" fill="#fff"/><path d="M30.773 15.963c-.999-.469-2.49-.794-3.8-.78-.455-.012-.764-.086-.932-.273-.322-.225-.361-.675-.187-.993.216-.422.612-.507 1.78-.406 2.94.149 5.31 1.305 6.998 3.328.955 1.128 1.582 2.536 1.862 4.025.098.546.185 1.548.152 1.752-.037.155-.216.422-.412.49-.191.117-.592.152-.805.02-.368-.17-.54-.408-.61-1.209-.103-1.202-.516-2.477-1.204-3.427a6.92 6.92 0 00-2.842-2.527z" fill="#fff"/><path d="M32.597 22.462a.905.905 0 01-1.101.096c-.263-.128-.33-.324-.424-.82a5.123 5.123 0 00-.48-1.472c-.48-.867-1.27-1.252-2.534-1.294-.605.002-.764-.085-.982-.268-.385-.37-.291-1.034.138-1.324.191-.117.241-.121.646-.106.25-.022.605-.002.81.03.969.119 1.7.408 2.398.903.867.681 1.391 1.493 1.654 2.782.174.842.154 1.197-.125 1.473z" fill="#fff"/></svg>