<svg width="50" height="50" fill="none" xmlns="http://www.w3.org/2000/svg"><path d="M3.794 37.37v8.836h8.836l26.06-26.084-8.836-8.835L3.794 37.37zM50 39.986L39.986 50 27.733 37.747l4.17-4.17 2.357 2.356 5.82-5.843 3.346 3.345-3.44 3.346 2.498 2.357 3.345-3.3L50 39.987zM12.3 22.243L0 10.014 10.014 0l4.147 4.17-5.82 5.844 2.521 2.498 5.797-5.844 3.346 3.346-3.346 3.322 2.356 2.357-6.715 6.55zm33.223-9.024c.919-.92.919-2.357 0-3.323l-5.514-5.42c-.871-.918-2.403-.918-3.322 0L32.352 8.79l8.836 8.836 4.335-4.406z" fill="#2DB1E6"/></svg>