<svg width="25" height="25" fill="none" xmlns="http://www.w3.org/2000/svg"><path d="M1.897 18.685v4.418h4.418l13.03-13.042-4.418-4.418-13.03 13.042zM25 19.993L19.993 25l-6.126-6.126 2.085-2.086 1.178 1.178 2.91-2.921 1.673 1.673-1.72 1.673 1.249 1.178 1.673-1.65L25 19.993zM6.15 11.122L0 5.007 5.007 0l2.074 2.085-2.91 2.922 1.26 1.249L8.33 3.334l1.673 1.673L8.33 6.668l1.179 1.178-3.358 3.276zm16.61-4.513c.46-.46.46-1.178 0-1.66l-2.756-2.71c-.436-.46-1.202-.46-1.662 0l-2.167 2.155 4.418 4.418 2.168-2.203z" fill="#fff"/></svg>