<svg width="15" height="21" fill="none" xmlns="http://www.w3.org/2000/svg"><g clip-path="url(#clip0_292:10)"><path d="M10.204 10.037h0a3.736 3.736 0 01-2.612 1.053c-.942 0-1.889-.35-2.611-1.053h5.223zm0 0a3.56 3.56 0 000-5.121h0m0 5.121V4.916m0 0a3.725 3.725 0 00-2.612-1.054 3.72 3.72 0 00-2.611 1.054m5.223 0H4.98m0 0a3.56 3.56 0 000 5.121V4.916zM7.594 20.46a56.616 56.616 0 01-3.333-4.45c-.93-1.384-1.853-2.914-2.542-4.403C1.026 10.108.592 8.698.592 7.542c0-3.736 3.128-6.8 7-6.8 3.873 0 7 3.064 7 6.8 0 1.091-.43 2.468-1.124 3.959-.688 1.478-1.61 3.018-2.539 4.418a61.525 61.525 0 01-3.335 4.541z" stroke="#1C3F97"/></g><defs><clipPath id="clip0_292:10"><path fill="#fff" d="M0 0h15v21H0z"/></clipPath></defs></svg>