<svg width="22" height="22" fill="none" xmlns="http://www.w3.org/2000/svg"><path d="M10.105 11a.895.895 0 111.79 0 .895.895 0 01-1.79 0z" stroke="#1C3F97" stroke-width="6"/><mask id="path-2-inside-1_292:42" fill="#fff"><path d="M15.924 7.274a1.958 1.958 0 00-.473-.726 1.956 1.956 0 00-.726-.472c-.222-.087-.557-.19-1.173-.218-.666-.03-.865-.037-2.552-.037s-1.886.007-2.552.037c-.616.028-.95.131-1.173.218a1.954 1.954 0 00-.726.472c-.21.204-.372.452-.473.726-.087.223-.19.557-.217 1.173-.03.666-.037.866-.037 2.553 0 1.686.006 1.886.037 2.552.028.616.13.95.217 1.173.101.274.263.522.472.726.204.21.452.371.727.473.222.086.557.19 1.173.217.666.03.865.037 2.552.037s1.886-.006 2.552-.037c.616-.028.95-.13 1.173-.217a2.093 2.093 0 001.199-1.2c.086-.222.19-.556.218-1.172.03-.666.036-.866.036-2.552 0-1.687-.006-1.887-.037-2.553-.028-.616-.13-.95-.217-1.173zM11 14.243a3.243 3.243 0 110-6.487 3.243 3.243 0 010 6.487zm3.372-5.857a.758.758 0 110-1.516.758.758 0 010 1.516z"/></mask><path d="M15.451 6.548l-4.304 4.18.061.063.063.061 4.18-4.304zm-.726-.472l-2.172 5.593.048.018.048.018 2.076-5.63zm-1.173-.218l-.273 5.994.273-5.994zm-5.104 0L8.174-.136l.274 5.994zm-1.173.218l2.076 5.629.049-.018.048-.019-2.173-5.592zm-.726.472l4.18 4.304.064-.062.061-.063-4.304-4.18zm-.473.726l5.593 2.173.018-.047.017-.046-5.628-2.08zm-.217 1.173l5.993.274-5.993-.274zm0 5.105l5.993-.273-5.993.273zm.217 1.173l5.628-2.08-.017-.046-.018-.046-5.593 2.172zm.472.726l4.304-4.18-.06-.063-.063-.061-4.18 4.304zm.727.473l2.176-5.592-.05-.02-.05-.018-2.076 5.63zm1.173.217l.273-5.994-.273 5.994zm5.104 0l-.272-5.994h-.001l.273 5.994zm1.173-.217l-2.16-5.598-.007.003-.009.003 2.176 5.592zm1.199-1.2l-5.593-2.171-.005.012 5.598 2.16zm.218-1.172l5.993.275v-.002l-5.994-.273zm0-5.105l-5.994.273 5.994-.273zm-1.012-.82l6 .003v-.002h-6zm6.423-2.43a7.958 7.958 0 00-1.921-2.953l-8.36 8.608a4.042 4.042 0 01-.977-1.5l11.258-4.155zm-1.797-2.83A7.955 7.955 0 0016.8.448l-4.15 11.256a4.044 4.044 0 01-1.502-.977l8.609-8.36zM16.897.484c-.819-.319-1.794-.56-3.072-.619l-.545 11.988c.021.001-.07-.002-.24-.038a3.176 3.176 0 01-.487-.145L16.897.483zm-3.071-.619C13.02-.172 12.713-.179 11-.179v12c.85 0 1.275.002 1.564.007.254.004.4.01.715.024l.547-11.988zM11-.179c-1.712 0-2.02.007-2.826.043l.547 11.988c.314-.014.46-.02.714-.024.29-.005.715-.007 1.565-.007v-12zm-2.827.043c-1.276.059-2.252.3-3.072.62l4.347 11.184a3.24 3.24 0 01-.487.146c-.17.036-.261.039-.239.038L8.173-.136zM5.2.446A7.954 7.954 0 002.243 2.37l8.611 8.357a4.042 4.042 0 01-1.503.978L5.199.446zM2.37 2.244A7.958 7.958 0 00.447 5.195l11.256 4.159a4.04 4.04 0 01-.975 1.498l-8.36-8.608zM.482 5.102c-.318.82-.56 1.795-.618 3.072l11.987.546c.001-.022-.002.07-.038.24a3.132 3.132 0 01-.145.487L.483 5.102zm-.618 3.072C-.172 8.978-.178 9.286-.178 11h12c0-.85.001-1.275.006-1.565.004-.253.01-.4.024-.714L-.135 8.174zM-.178 11c0 1.713.006 2.02.043 2.825l11.987-.546c-.014-.315-.02-.461-.024-.715-.005-.29-.006-.715-.006-1.564h-12zm.043 2.825c.058 1.278.3 2.253.618 3.072l11.186-4.344a3.292 3.292 0 01.145.486c.037.17.04.262.038.24l-11.987.546zm.583 2.98a7.958 7.958 0 001.92 2.95l8.36-8.608c.435.422.768.934.976 1.499L.448 16.804zm1.796 2.826a7.956 7.956 0 002.954 1.922l4.153-11.259c.568.21 1.081.544 1.501.977l-8.608 8.36zM5.1 21.515c.822.32 1.799.562 3.076.62l.545-11.988c-.022 0 .07.002.241.038a3.146 3.146 0 01.49.147L5.099 21.515zm3.075.62c.805.037 1.114.043 2.826.043v-12c-.85 0-1.275-.002-1.565-.006-.254-.004-.4-.01-.714-.025l-.547 11.988zm2.826.043c1.712 0 2.02-.006 2.826-.043l-.547-11.988c-.314.015-.46.02-.714.025-.29.004-.715.006-1.565.006v12zm2.825-.043c1.277-.058 2.254-.3 3.076-.62L12.55 10.332a3.222 3.222 0 01.49-.147c.17-.036.262-.039.24-.038l.546 11.988zm3.06-.613a8.091 8.091 0 004.637-4.638l-11.196-4.319a3.908 3.908 0 012.24-2.24l4.318 11.197zm4.632-4.625c.318-.819.56-1.793.618-3.07l-11.987-.55c-.001.023.002-.068.038-.239a3.126 3.126 0 01.145-.485l11.186 4.344zm.618-3.071c.037-.806.043-1.114.043-2.826h-12c0 .85-.002 1.275-.006 1.565-.004.253-.01.4-.024.714l11.987.546zM22.178 11c0-1.712-.006-2.021-.043-2.826l-11.987.547c.014.314.02.46.024.714.005.29.006.715.006 1.565h12zm-.043-2.826c-.058-1.277-.3-2.253-.62-3.076L10.332 9.45a3.224 3.224 0 01-.146-.49c-.037-.17-.04-.262-.038-.24l11.987-.546zM11 8.243a2.757 2.757 0 012.756 2.756h-12A9.243 9.243 0 0011 20.243v-12zm2.756 2.756A2.757 2.757 0 0111 13.756v-12A9.243 9.243 0 001.756 11h12zM11 13.756A2.757 2.757 0 018.243 11h12A9.243 9.243 0 0011 1.756v12zM8.243 11A2.757 2.757 0 0111 8.243v12A9.243 9.243 0 0020.244 11h-12zm6.129-8.613a5.242 5.242 0 015.242 5.242h-12a6.758 6.758 0 006.758 6.758v-12zm5.242 5.242a5.242 5.242 0 01-5.242 5.242v-12a6.758 6.758 0 00-6.758 6.758h12zm-5.242 5.242A5.242 5.242 0 019.13 7.628h12A6.758 6.758 0 0014.372.87v12zM9.13 7.625a5.242 5.242 0 015.242-5.24v12A6.758 6.758 0 0021.13 7.63l-12-.005z" fill="#1C3F97" mask="url(#path-2-inside-1_292:42)"/><mask id="path-4-inside-2_292:42" fill="#fff"><path d="M11 0C4.926 0 0 4.926 0 11s4.926 11 11 11 11-4.926 11-11S17.074 0 11 0zm6.278 13.604c-.03.673-.137 1.132-.293 1.533a3.23 3.23 0 01-1.848 1.848c-.401.156-.86.263-1.533.293-.673.031-.888.038-2.604.038-1.715 0-1.93-.007-2.604-.038-.672-.03-1.132-.137-1.533-.293a3.095 3.095 0 01-1.12-.729 3.095 3.095 0 01-.728-1.119c-.156-.401-.263-.86-.293-1.533-.031-.673-.038-.889-.038-2.604s.007-1.93.038-2.604c.03-.673.137-1.132.293-1.533.159-.422.407-.804.729-1.12.315-.32.697-.57 1.119-.728.401-.156.86-.263 1.533-.293.673-.031.889-.038 2.604-.038s1.93.007 2.604.038c.673.03 1.132.137 1.533.293.422.159.804.407 1.12.729.32.315.57.697.728 1.119.156.401.263.86.294 1.533.03.673.037.889.037 2.604s-.007 1.93-.038 2.604z"/></mask><path d="M16.985 15.137l-5.593-2.172-.003.008 5.596 2.164zm-1.848 1.848l-2.164-5.596-.009.003 2.173 5.593zm-1.533.293l.274 5.994-.274-5.994zm-5.208 0l-.274 5.994.274-5.994zm-1.533-.293l2.173-5.593-.03-.012-.03-.011-2.113 5.616zm-1.12-.729l4.282-4.203-.038-.04-.04-.038-4.203 4.281zm-.728-1.119l5.616-2.113-.011-.03-.012-.03-5.593 2.173zm-.293-1.533l5.994-.272v-.004l-5.994.276zm0-5.208l5.993.275v-.003l-5.993-.272zm.293-1.533l5.593 2.172.011-.03.012-.03-5.616-2.112zm.729-1.12l4.202 4.284.04-.04.04-.04-4.282-4.203zm1.119-.728l2.113 5.616.03-.011.03-.012-2.173-5.593zm1.533-.293l-.273-5.994.273 5.994zm5.208 0l-.275 5.994h.003l.272-5.994zm1.533.293l-2.17 5.594.028.01.03.012 2.112-5.616zm1.12.729l-4.282 4.203.038.04.039.037 4.204-4.28zm.728 1.119l-5.617 2.111.012.032.013.031 5.592-2.174zm.294 1.533l5.993-.273-5.993.273zM11-6C1.612-6-6 1.612-6 11H6c0-2.76 2.24-5 5-5V-6zM-6 11c0 9.388 7.612 17 17 17V16c-2.76 0-5-2.24-5-5H-6zm17 17c9.388 0 17-7.612 17-17H16c0 2.76-2.24 5-5 5v12zm17-17c0-9.388-7.612-17-17-17V6c2.76 0 5 2.24 5 5h12zm-16.715 2.332c-.004.08-.008.054.011-.042a1.904 1.904 0 01.096-.325l11.186 4.345c.419-1.08.638-2.19.694-3.433l-11.987-.545zm.104-.359a2.77 2.77 0 011.584-1.584l4.329 11.192a9.23 9.23 0 005.279-5.28l-11.192-4.328zm1.575-1.58a2.064 2.064 0 01.326-.097c.096-.02.121-.015.04-.011l.548 11.987c1.24-.057 2.352-.274 3.433-.695l-4.347-11.185zm.367-.109c-.537.025-.646.032-2.33.032v12c1.745 0 2.067-.007 2.877-.044l-.547-11.987zm-2.33.032c-1.686 0-1.795-.007-2.332-.032l-.546 11.988c.81.037 1.131.044 2.877.044v-12zm-2.331-.031c-.08-.004-.056-.008.04.011a1.942 1.942 0 01.326.096L4.69 22.577c1.082.42 2.192.638 3.433.695l.548-11.987zm.305.084a2.89 2.89 0 011.05.684l-8.563 8.406a9.095 9.095 0 003.288 2.142l4.225-11.232zm.972.606c.303.296.536.655.684 1.05L-.6 17.25a9.096 9.096 0 002.14 3.287l8.407-8.563zm.66.989a2.07 2.07 0 01.097.326c.02.096.015.122.012.042l-11.988.545c.057 1.242.275 2.354.695 3.434l11.185-4.347zm.109.364c-.025-.535-.032-.641-.032-2.328h-12c0 1.744.007 2.068.044 2.88l11.988-.552zM10.684 11c0-1.687.007-1.794.031-2.33l-11.987-.549c-.037.812-.044 1.135-.044 2.879h12zm.032-2.332c.003-.08.007-.055-.012.041a1.927 1.927 0 01-.096.326L-.578 4.69c-.42 1.08-.638 2.192-.694 3.434l11.988.544zm-.085.308a2.907 2.907 0 01-.685 1.05L1.542 1.462A9.094 9.094 0 00-.6 4.75l11.23 4.227zm-.604.97a2.905 2.905 0 01-1.051.685L4.749-.6a9.094 9.094 0 00-3.288 2.142l8.566 8.404zm-.992.662a2.071 2.071 0 01-.325.096c-.096.02-.121.015-.04.011L8.122-1.272c-1.241.057-2.351.275-3.432.694l4.345 11.186zm-.366.107c.537-.024.646-.031 2.331-.031v-12c-1.746 0-2.067.007-2.877.044l.546 11.988zM11 10.684c.863 0 1.299.002 1.596.006.262.005.414.01.733.026l.55-11.988c-.811-.037-1.134-.044-2.879-.044v12zm2.332.032c.08.003.055.007-.04-.012a1.904 1.904 0 01-.325-.095L17.308-.58c-1.08-.418-2.19-.637-3.431-.693l-.545 11.988zm-.308-.085a2.904 2.904 0 01-1.05-.684l8.564-8.406A9.097 9.097 0 0017.25-.6l-4.227 11.23zm-.972-.607a2.906 2.906 0 01-.684-1.05l11.233-4.223a9.095 9.095 0 00-2.14-3.288l-8.41 8.561zm-.66-.987a2.06 2.06 0 01-.096-.327c-.019-.096-.015-.121-.011-.04l11.987-.548c-.056-1.241-.274-2.352-.695-3.434l-11.184 4.35zm-.107-.368c.024.537.031.645.031 2.331h12c0-1.744-.007-2.067-.044-2.877l-11.987.546zM11.316 11c0 1.687-.007 1.794-.031 2.33l11.987.549c.037-.812.044-1.135.044-2.879h-12z" fill="#1C3F97" mask="url(#path-4-inside-2_292:42)"/></svg>