<svg width="50" height="50" fill="none" xmlns="http://www.w3.org/2000/svg"><path d="M9.375 7.813a7.813 7.813 0 0115.625 0 7.813 7.813 0 0115.625 0v.018c0 .219 0 .844-.119 1.544h6.369A3.125 3.125 0 0150 12.5v3.125a3.125 3.125 0 01-3.125 3.125H3.125A3.125 3.125 0 010 15.625V12.5a3.125 3.125 0 013.125-3.125h6.369a9.275 9.275 0 01-.119-1.544v-.019zm3.338 1.562h9.162V7.812a4.687 4.687 0 10-9.375 0c0 .266.006.857.14 1.344.02.075.043.148.072.219zm15.412 0h9.163c.028-.071.052-.144.071-.219.135-.487.141-1.078.141-1.344a4.688 4.688 0 00-9.375 0v1.563zm18.75 12.5v23.438A4.688 4.688 0 0142.187 50H28.126V21.875h18.75zM7.812 50a4.688 4.688 0 01-4.687-4.688V21.875h18.75V50H7.812z" fill="#2DB1E6"/></svg>