<svg width="50" height="58" fill="none" xmlns="http://www.w3.org/2000/svg"><path d="M49.332 11.134a2.456 2.456 0 00-.801-.595 2.49 2.49 0 00-.977-.23c-5.251-.135-11.897-5.662-16.29-7.832C28.55 1.142 26.758.261 25.413.03a2.847 2.847 0 00-.824.002c-1.345.232-3.137 1.113-5.849 2.449-4.393 2.167-11.039 7.694-16.29 7.83a2.498 2.498 0 00-1.78.824 2.604 2.604 0 00-.666 1.878c1.128 22.578 9.354 36.55 23.789 44.67.375.21.791.318 1.206.318.414 0 .83-.108 1.208-.318 14.434-8.12 22.658-22.092 23.789-44.67a2.59 2.59 0 00-.664-1.878zm-11.478 8.88l-12.18 17.693c-.437.635-1.124 1.056-1.803 1.056-.682 0-1.44-.367-1.918-.838l-8.586-8.453a1.466 1.466 0 01-.437-1.043c0-.391.157-.766.437-1.043l2.121-2.093a1.518 1.518 0 011.06-.429c.397 0 .778.154 1.06.43l5.583 5.495 9.7-14.094a1.523 1.523 0 012.082-.39l2.483 1.659a1.461 1.461 0 01.398 2.05z" fill="#fff"/></svg>