<svg width="50" height="43" fill="none" xmlns="http://www.w3.org/2000/svg"><path fill-rule="evenodd" clip-rule="evenodd" d="M5.474 13.727h-.21a5.306 5.306 0 00-3.722 1.518A5.142 5.142 0 000 18.909v5.181a5.14 5.14 0 001.542 3.664 5.305 5.305 0 003.721 1.518h.21c.76 0 1.51.161 2.2.473.69.313 1.304.768 1.798 1.335l9.584 11.012c1.59 1.823 4.63.717 4.63-1.687V2.595c0-2.405-3.04-3.511-4.632-1.685l-9.58 11.006a5.256 5.256 0 01-1.798 1.337 5.335 5.335 0 01-2.201.474zM41.148 1.486a2.668 2.668 0 00-3.755.061 2.556 2.556 0 00.132 3.695c9.618 8.996 9.618 23.52 0 32.515a2.56 2.56 0 00-.132 3.695c.24.25.53.45.85.589a2.667 2.667 0 002.905-.527c11.803-11.037 11.803-28.992 0-40.028zM33.392 8.74a2.655 2.655 0 00-1.88-.712 2.651 2.651 0 00-1.84.805 2.57 2.57 0 00-.724 1.851c.018.687.312 1.34.818 1.813 5.334 4.987 5.334 13.018 0 18.006a2.59 2.59 0 00-.592.826 2.558 2.558 0 00.497 2.837 2.668 2.668 0 003.721.093c7.52-7.031 7.52-18.488 0-25.52z" fill="#fff"/></svg>