<svg width="50" height="50" fill="none" xmlns="http://www.w3.org/2000/svg"><path d="M25 37.5a12.5 12.5 0 100-25 12.5 12.5 0 000 25zM25 0a1.563 1.563 0 011.563 1.563v6.25a1.563 1.563 0 11-3.125 0v-6.25A1.563 1.563 0 0125 0zm0 40.625a1.563 1.563 0 011.563 1.563v6.25a1.563 1.563 0 01-3.125 0v-6.25A1.563 1.563 0 0125 40.624zM50 25a1.563 1.563 0 01-1.563 1.563h-6.25a1.563 1.563 0 010-3.125h6.25A1.563 1.563 0 0150 25zM9.375 25a1.563 1.563 0 01-1.563 1.563h-6.25a1.563 1.563 0 110-3.125h6.25A1.563 1.563 0 019.376 25zM42.678 7.322a1.563 1.563 0 010 2.21l-4.419 4.421a1.564 1.564 0 01-2.209-2.212l4.419-4.42a1.562 1.562 0 012.21 0zM13.95 36.05a1.563 1.563 0 010 2.21l-4.419 4.418a1.563 1.563 0 01-2.21-2.21l4.42-4.418a1.563 1.563 0 012.209 0zm28.728 6.628a1.562 1.562 0 01-2.21 0L36.05 38.26a1.563 1.563 0 012.21-2.209l4.418 4.419a1.562 1.562 0 010 2.21zM13.95 13.953a1.563 1.563 0 01-2.21 0L7.323 9.531a1.563 1.563 0 112.21-2.21l4.418 4.42a1.562 1.562 0 010 2.212z" fill="#fff"/></svg>