<svg width="22" height="22" fill="none" xmlns="http://www.w3.org/2000/svg"><mask id="path-1-inside-1_292:38" fill="#fff"><path d="M11 0C4.926 0 0 4.926 0 11s4.926 11 11 11 11-4.926 11-11S17.074 0 11 0zm.233 17.404h-.003a6.582 6.582 0 01-3.146-.8l-3.49.915.934-3.411a6.567 6.567 0 01-.879-3.29 6.592 6.592 0 016.584-6.581c1.761 0 3.414.686 4.657 1.93a6.541 6.541 0 011.927 4.656 6.592 6.592 0 01-6.584 6.581z"/></mask><path d="M11.23 17.404l-.003 7h.003v-7zm-3.146-.8l3.351-6.146-2.439-1.33-2.688.704 1.776 6.771zm-3.49.915l-6.751-1.85-3.204 11.697L6.37 24.29l-1.775-6.771zm.934-3.411l6.752 1.849.772-2.818-1.462-2.531-6.062 3.5zm-.879-3.29l7 .003-7-.003zm6.584-6.581l.003-7h-.003v7zm4.657 1.93l-4.952 4.947 4.952-4.947zm1.927 4.656l7 .003-7-.003zM11-7C1.06-7-7 1.06-7 11H7c0-2.208 1.792-4 4-4V-7zM-7 11c0 9.94 8.06 18 18 18V15c-2.208 0-4-1.792-4-4H-7zm18 18c9.94 0 18-8.06 18-18H15c0 2.208-1.792 4-4 4v14zm18-18c0-9.94-8.06-18-18-18V7c2.208 0 4 1.792 4 4h14zm-17.767-.595v14-14zm0 0h-.003v14h.003v-14zm0 0a.42.42 0 01.202.053L4.733 22.749a13.58 13.58 0 006.494 1.655l.007-14zm-4.925-.573l-3.49.916L6.37 24.29l3.49-.916L6.308 9.832zm5.037 9.536l.935-3.411-13.503-3.698-.934 3.41 13.502 3.699zm.245-8.76c.041.07.06.147.06.213l-14-.006a13.567 13.567 0 001.816 6.793l12.124-7zm.06.213a.438.438 0 01-.12.296.438.438 0 01-.297.12v-14C3.74-2.763-2.347 3.32-2.35 10.815l14 .006zm-.42.416a.424.424 0 01-.154-.035.433.433 0 01-.138-.088l9.904-9.895a13.542 13.542 0 00-9.606-3.982l-.006 14zm-.292-.123a.43.43 0 01-.086-.136.43.43 0 01-.035-.158l14 .006a13.541 13.541 0 00-3.975-9.607l-9.903 9.895zm-.121-.294c0-.123.057-.234.12-.296a.438.438 0 01.296-.12v14c7.494 0 13.58-6.085 13.584-13.578l-14-.006z" fill="#1C3F97" mask="url(#path-1-inside-1_292:38)"/><path d="M11.863 12.43l.078-.156.248.088.03.026-.03-.026.04.015-.01.011c-.095.11-.191.124-.356.042zm0 0l.078-.156-.021-.008-.068.158a.64.64 0 01.011.006zm2.44-4.059h0a4.405 4.405 0 00-.505-.152 3.854 3.854 0 00-.391-.07 3.964 3.964 0 00-.132-.322 61.348 61.348 0 01-.162-.39l-.101-.247-.193-.467 1.485 1.648zm-1.227 1.74c.009.118.01.233.007.345a5.349 5.349 0 01-.194-.073l.164-.329.023.058zm-.24.379c.026-.004.117-.012.245.001a3.323 3.323 0 01-.066.534l-.001.004a3.32 3.32 0 01-.067.264l-.048-.322v-.005l-.07-.464.006-.012zm.061.48l.049.326a3.312 3.312 0 01-.133.365.35.35 0 00-.073.083 7.645 7.645 0 01-.41.517h-.002l-.098.115-.041-.014-.203-.178.071-.141v-.001l.283-.565.315-.628.002-.003.17-.34.07.46v.004zm.062.65l.029-.044.007.05a.33.33 0 00-.036-.006zm-1.04.646l-.068.158a3.148 3.148 0 00-.097-.044 4.397 4.397 0 01-.618-.318.908.908 0 01.022-.068l.762.272zm-1.47-1.423c-.138.086-.28.157-.424.216a5.233 5.233 0 01-.4-.585c-.047-.081-.048-.142-.028-.194.017-.042.047-.077.077-.113 0 0 0 0 0 0l.035.03.157.137h0l.583.509zm-.736-.65l-.035-.031.02-.024c.074-.092.15-.188.216-.276a3.32 3.32 0 00.162-.23l.06-.043s0 0 0 0l.044-.031.129.118h0l.043.039.223.205h0l.463.424c-.02.028-.038.05-.05.065a2.83 2.83 0 01-.471.39s0 0 0 0a2.756 2.756 0 01-.064.042l-.582-.51h0l-.158-.138zm.596-.517l-.129-.118a3.28 3.28 0 011.18-.505 1.61 1.61 0 01.024.395v.001a1.695 1.695 0 01-.346.895l-.462-.424h0l-.224-.205-.042-.038h0zm1.112-.635a3.389 3.389 0 01.537-.058c.043.018.086.036.128.056 0 0 0 0 0 0 .168.082.325.187.467.317l-.447.501a5.13 5.13 0 01-.488-.544s0 0 0 0a3.28 3.28 0 01-.125-.168l-.036-.052-.027-.037v-.002l-.01-.013zm-.094 2.568l.636.556-.043.1-.762-.272c.05-.143.109-.27.169-.384zm.614.664l-.02-.007.043-.101.022.02-.045.088zm.045-.089l-.022-.02.063-.146h0l.251-.582.275-.637.002-.004.12-.277c.046-.01.096-.019.15-.027l.002.013-.171.342-.002.003-.314.628-.283.565h0l-.07.142zm.288-1.546a2.13 2.13 0 01.4-.12l-.12.277-.001.003-.275.638-.251.581v.001l-.063.146-.636-.557a2.48 2.48 0 01.058-.105V11.5a2.625 2.625 0 01.38-.502c.142-.145.258-.224.311-.258.054-.034.11-.065.175-.093l.003-.002.019-.008zm.482-.31c-.172-.075-.4-.234-.65-.47l.448-.502.074.07.128.901zm.078.162l-.005.01-.002-.01h.007zm-.893 1.783l.045-.088.203.177-.248-.089zm-.629-3.391a.284.284 0 000 0zm1.677 2.692l.107-.172-.1.224-.007-.052z" stroke="#1C3F97" stroke-width="7"/></svg>