<svg width="1440" height="866" viewBox="0 0 1440 866" fill="none" xmlns="http://www.w3.org/2000/svg">
<g clip-path="url(#clip0_1_3691)">
<circle opacity="0.6" cx="1290" cy="166" r="203" fill="url(#paint0_linear_1_3691)"/>
<circle opacity="0.6" cx="913" cy="548" r="84" fill="url(#paint1_linear_1_3691)"/>
<g filter="url(#filter0_b_1_3691)">
<path d="M0 0H1440V572L0 752V0Z" fill="#FFF7F2" fill-opacity="0.7"/>
</g>
<path d="M1260 594.005L1680 541.488V605.488L1260 658.005V594.005Z" fill="url(#paint2_linear_1_3691)"/>
<path d="M737 595.808L1455 505V569.5L737 659.808V595.808Z" fill="url(#paint3_linear_1_3691)"/>
<path d="M875 511L1463 442V506L875 578.5V511Z" fill="url(#paint4_linear_1_3691)"/>
<path d="M0 688.016L509 624.016V688.016L0 752.016V688.016Z" fill="url(#paint5_linear_1_3691)"/>
<path d="M-152 771.005L268 718.488V782.488L-152 835.005V771.005Z" fill="url(#paint6_linear_1_3691)"/>
</g>
<defs>
<filter id="filter0_b_1_3691" x="-100" y="-100" width="1640" height="952" filterUnits="userSpaceOnUse" color-interpolation-filters="sRGB">
<feFlood flood-opacity="0" result="BackgroundImageFix"/>
<feGaussianBlur in="BackgroundImage" stdDeviation="50"/>
<feComposite in2="SourceAlpha" operator="in" result="effect1_backgroundBlur_1_3691"/>
<feBlend mode="normal" in="SourceGraphic" in2="effect1_backgroundBlur_1_3691" result="shape"/>
</filter>
<linearGradient id="paint0_linear_1_3691" x1="1640.44" y1="-1331.13" x2="653.274" y2="-787.739" gradientUnits="userSpaceOnUse">
<stop offset="0.25" stop-color="#FF3389"/>
<stop offset="1" stop-color="#FF624B"/>
</linearGradient>
<linearGradient id="paint1_linear_1_3691" x1="1058.01" y1="-71.5" x2="649.527" y2="153.349" gradientUnits="userSpaceOnUse">
<stop offset="0.25" stop-color="#FF3389"/>
<stop offset="1" stop-color="#FF624B"/>
</linearGradient>
<linearGradient id="paint2_linear_1_3691" x1="1260" y1="540.838" x2="1268.34" y2="682.267" gradientUnits="userSpaceOnUse">
<stop stop-color="#FDE6DE"/>
<stop offset="1" stop-color="#F8C7B6"/>
</linearGradient>
<linearGradient id="paint3_linear_1_3691" x1="1715.75" y1="11.5485" x2="1413.16" y2="784.041" gradientUnits="userSpaceOnUse">
<stop offset="0.25" stop-color="#FF3389"/>
<stop offset="1" stop-color="#FF624B"/>
</linearGradient>
<linearGradient id="paint4_linear_1_3691" x1="875" y1="441.238" x2="883.18" y2="607.096" gradientUnits="userSpaceOnUse">
<stop stop-color="#FDE6DE"/>
<stop offset="1" stop-color="#F8C7B6"/>
</linearGradient>
<linearGradient id="paint5_linear_1_3691" x1="3.05864e-06" y1="623.301" x2="8.30558" y2="778.765" gradientUnits="userSpaceOnUse">
<stop stop-color="#FDE6DE"/>
<stop offset="1" stop-color="#F8C7B6"/>
</linearGradient>
<linearGradient id="paint6_linear_1_3691" x1="420.526" y1="347.09" x2="150.999" y2="881.876" gradientUnits="userSpaceOnUse">
<stop offset="0.25" stop-color="#FF3389"/>
<stop offset="1" stop-color="#FF624B"/>
</linearGradient>
<clipPath id="clip0_1_3691">
<rect width="1440" height="866" fill="white"/>
</clipPath>
</defs>
</svg>
