<svg width="280" height="68" viewBox="0 0 280 68" fill="none" xmlns="http://www.w3.org/2000/svg">
<g clip-path="url(#clip0_13_1807)">
<path d="M68.6478 20.0301H75.0778L81.2691 31.7233H81.5342L87.7255 20.0301H94.1554L84.252 37.5832V47.1816H78.5513V37.5832L68.6478 20.0301ZM102.12 47.5794C100.061 47.5794 98.2796 47.1419 96.7771 46.2669C95.2834 45.383 94.13 44.1545 93.3169 42.5813C92.5037 40.9992 92.0972 39.1652 92.0972 37.0794C92.0972 34.9758 92.5037 33.1374 93.3169 31.5642C94.13 29.9821 95.2834 28.7536 96.7771 27.8786C98.2796 26.9948 100.061 26.5529 102.12 26.5529C104.179 26.5529 105.956 26.9948 107.449 27.8786C108.952 28.7536 110.11 29.9821 110.923 31.5642C111.736 33.1374 112.143 34.9758 112.143 37.0794C112.143 39.1652 111.736 40.9992 110.923 42.5813C110.11 44.1545 108.952 45.383 107.449 46.2669C105.956 47.1419 104.179 47.5794 102.12 47.5794ZM102.146 43.2044C103.083 43.2044 103.865 42.9392 104.493 42.4089C105.121 41.8698 105.593 41.1362 105.912 40.2082C106.239 39.2801 106.402 38.2239 106.402 37.0396C106.402 35.8553 106.239 34.7991 105.912 33.871C105.593 32.943 105.121 32.2094 104.493 31.6703C103.865 31.1311 103.083 30.8616 102.146 30.8616C101.201 30.8616 100.405 31.1311 99.7601 31.6703C99.1237 32.2094 98.642 32.943 98.315 33.871C97.9968 34.7991 97.8377 35.8553 97.8377 37.0396C97.8377 38.2239 97.9968 39.2801 98.315 40.2082C98.642 41.1362 99.1237 41.8698 99.7601 42.4089C100.405 42.9392 101.201 43.2044 102.146 43.2044ZM124.989 55.2422C123.16 55.2422 121.591 54.9904 120.283 54.4866C118.984 53.9916 117.949 53.3155 117.181 52.4582C116.412 51.6008 115.912 50.6374 115.682 49.568L120.906 48.8654C121.065 49.2719 121.317 49.652 121.662 50.0055C122.006 50.359 122.461 50.6419 123.027 50.854C123.602 51.0749 124.3 51.1854 125.122 51.1854C126.35 51.1854 127.362 50.8849 128.158 50.2839C128.962 49.6917 129.364 48.6974 129.364 47.301V43.5756H129.126C128.878 44.1412 128.507 44.676 128.012 45.1797C127.517 45.6835 126.881 46.0945 126.103 46.4127C125.325 46.7309 124.397 46.89 123.319 46.89C121.79 46.89 120.398 46.5364 119.143 45.8294C117.896 45.1135 116.902 44.0219 116.16 42.5547C115.426 41.0787 115.059 39.2138 115.059 36.96C115.059 34.6532 115.435 32.7265 116.186 31.1797C116.937 29.633 117.936 28.4752 119.182 27.7063C120.437 26.9373 121.812 26.5529 123.306 26.5529C124.446 26.5529 125.4 26.7473 126.169 27.1362C126.938 27.5162 127.557 27.9935 128.025 28.568C128.502 29.1337 128.869 29.6905 129.126 30.2385H129.338V26.818H134.946V47.3805C134.946 49.1128 134.521 50.5623 133.673 51.729C132.824 52.8957 131.649 53.7707 130.146 54.354C128.653 54.9462 126.934 55.2422 124.989 55.2422ZM125.109 42.6475C126.019 42.6475 126.788 42.4222 127.415 41.9714C128.052 41.5118 128.538 40.8578 128.874 40.0093C129.218 39.152 129.391 38.1267 129.391 36.9335C129.391 35.7404 129.223 34.7063 128.887 33.8313C128.551 32.9474 128.065 32.2624 127.429 31.7763C126.792 31.2902 126.019 31.0472 125.109 31.0472C124.181 31.0472 123.398 31.2991 122.762 31.8029C122.126 32.2978 121.644 32.9872 121.317 33.871C120.99 34.7549 120.826 35.7757 120.826 36.9335C120.826 38.109 120.99 39.1255 121.317 39.9828C121.653 40.8313 122.134 41.4897 122.762 41.9582C123.398 42.4178 124.181 42.6475 125.109 42.6475ZM146.944 47.5131C145.397 47.5131 143.996 47.1154 142.741 46.3199C141.495 45.5156 140.505 44.3357 139.771 42.7801C139.047 41.2157 138.684 39.2978 138.684 37.0263C138.684 34.693 139.06 32.753 139.811 31.2063C140.562 29.6507 141.561 28.4885 142.807 27.7195C144.062 26.9417 145.437 26.5529 146.931 26.5529C148.071 26.5529 149.021 26.7473 149.781 27.1362C150.55 27.5162 151.169 27.9935 151.637 28.568C152.114 29.1337 152.477 29.6905 152.724 30.2385H152.896V26.818H158.531V47.1816H152.963V43.9203H152.724C152.459 44.4859 152.083 45.0472 151.597 45.604C151.12 46.152 150.497 46.6071 149.728 46.9695C148.968 47.3319 148.04 47.5131 146.944 47.5131ZM148.734 43.0188C149.644 43.0188 150.413 42.7713 151.04 42.2763C151.677 41.7725 152.163 41.0699 152.499 40.1684C152.843 39.2669 153.016 38.2107 153.016 36.9998C153.016 35.789 152.848 34.7372 152.512 33.8445C152.176 32.9518 151.69 32.2624 151.054 31.7763C150.417 31.2902 149.644 31.0472 148.734 31.0472C147.806 31.0472 147.023 31.2991 146.387 31.8029C145.751 32.3066 145.269 33.0049 144.942 33.8975C144.615 34.7902 144.451 35.8243 144.451 36.9998C144.451 38.1842 144.615 39.2315 144.942 40.1419C145.278 41.0434 145.759 41.7505 146.387 42.2631C147.023 42.7669 147.806 43.0188 148.734 43.0188ZM171.921 47.1816V20.0301H189.898V24.7631H177.662V31.2328H188.705V35.9657H177.662V47.1816H171.921ZM193.654 20.0301H199.301V41.0832C199.31 41.7284 199.425 42.1968 199.646 42.4885C199.876 42.7713 200.265 42.9127 200.813 42.9127C201.095 42.9039 201.316 42.8862 201.476 42.8597C201.635 42.8332 201.767 42.7978 201.873 42.7536L202.775 46.8635C202.483 46.9518 202.125 47.0446 201.701 47.1419C201.285 47.2303 200.724 47.2877 200.017 47.3142C197.852 47.3938 196.252 46.9872 195.218 46.0945C194.184 45.193 193.662 43.7744 193.654 41.8388V20.0301ZM214.083 47.5794C212.024 47.5794 210.243 47.1419 208.741 46.2669C207.247 45.383 206.094 44.1545 205.28 42.5813C204.467 40.9992 204.061 39.1652 204.061 37.0794C204.061 34.9758 204.467 33.1374 205.28 31.5642C206.094 29.9821 207.247 28.7536 208.741 27.8786C210.243 26.9948 212.024 26.5529 214.083 26.5529C216.143 26.5529 217.919 26.9948 219.413 27.8786C220.916 28.7536 222.073 29.9821 222.886 31.5642C223.7 33.1374 224.106 34.9758 224.106 37.0794C224.106 39.1652 223.7 40.9992 222.886 42.5813C222.073 44.1545 220.916 45.383 219.413 46.2669C217.919 47.1419 216.143 47.5794 214.083 47.5794ZM214.11 43.2044C215.047 43.2044 215.829 42.9392 216.457 42.4089C217.084 41.8698 217.557 41.1362 217.875 40.2082C218.202 39.2801 218.366 38.2239 218.366 37.0396C218.366 35.8553 218.202 34.7991 217.875 33.871C217.557 32.943 217.084 32.2094 216.457 31.6703C215.829 31.1311 215.047 30.8616 214.11 30.8616C213.164 30.8616 212.369 31.1311 211.724 31.6703C211.087 32.2094 210.606 32.943 210.279 33.871C209.96 34.7991 209.801 35.8553 209.801 37.0396C209.801 38.2239 209.96 39.2801 210.279 40.2082C210.606 41.1362 211.087 41.8698 211.724 42.4089C212.369 42.9392 213.164 43.2044 214.11 43.2044ZM231.285 47.1816L225.743 26.818H231.458L234.613 40.4998H234.798L238.086 26.818H243.694L247.035 40.4203H247.208L250.31 26.818H256.011L250.482 47.1816H244.503L241.003 34.3748H240.751L237.251 47.1816H231.285Z" fill="white"/>
<path fill-rule="evenodd" clip-rule="evenodd" d="M23.4939 0.828385C22.3902 -0.276128 20.6008 -0.276128 19.4971 0.828385C18.3935 1.9329 18.3935 3.72367 19.4971 4.82818L37.3101 22.6547C38.8552 24.201 38.8552 26.7081 37.3101 28.2544L19.4971 46.0809C18.3935 47.1854 18.3935 48.9762 19.4971 50.0807C20.6008 51.1852 22.3902 51.1852 23.4939 50.0807L41.3068 32.2542C45.0593 28.4989 45.0593 22.4102 41.3069 18.6549L23.4939 0.828385ZM20.6273 67.0504C21.731 68.1549 23.5204 68.1549 24.6241 67.0504C25.7277 65.9459 25.7277 64.1551 24.6241 63.0506L6.81112 45.2241C5.26598 43.6778 5.26597 41.1707 6.81112 39.6244L24.6241 21.7979C25.7277 20.6934 25.7277 18.9026 24.6241 17.7981C23.5204 16.6936 21.731 16.6936 20.6273 17.7981L2.81437 35.6246C-0.938117 39.3799 -0.938127 45.4685 2.81436 49.2239L20.6273 67.0504Z" fill="url(#paint0_linear_13_1807)"/>
</g>
<defs>
<linearGradient id="paint0_linear_13_1807" x1="60.1442" y1="-216.364" x2="-63.7755" y2="-172.026" gradientUnits="userSpaceOnUse">
<stop offset="0.25" stop-color="#FF3389"/>
<stop offset="1" stop-color="#FF624B"/>
</linearGradient>
<clipPath id="clip0_13_1807">
<rect width="280" height="67.8788" fill="white"/>
</clipPath>
</defs>
</svg>
