<svg width="165" height="40" viewBox="0 0 165 40" fill="none" xmlns="http://www.w3.org/2000/svg">
<path d="M40.4531 12H44.2422L47.8906 18.8906H48.0469L51.6953 12H55.4844L49.6484 22.3437V28H46.2891V22.3437L40.4531 12ZM60.1777 28.2344C58.9642 28.2344 57.9147 27.9766 57.0293 27.4609C56.1491 26.9401 55.4694 26.2161 54.9902 25.2891C54.5111 24.3568 54.2715 23.276 54.2715 22.0469C54.2715 20.8073 54.5111 19.724 54.9902 18.7969C55.4694 17.8646 56.1491 17.1406 57.0293 16.625C57.9147 16.1042 58.9642 15.8438 60.1777 15.8438C61.3913 15.8438 62.4382 16.1042 63.3184 16.625C64.2038 17.1406 64.8861 17.8646 65.3652 18.7969C65.8444 19.724 66.084 20.8073 66.084 22.0469C66.084 23.276 65.8444 24.3568 65.3652 25.2891C64.8861 26.2161 64.2038 26.9401 63.3184 27.4609C62.4382 27.9766 61.3913 28.2344 60.1777 28.2344ZM60.1934 25.6562C60.7454 25.6562 61.2064 25.5 61.5762 25.1875C61.946 24.8698 62.2246 24.4375 62.4121 23.8906C62.6048 23.3437 62.7012 22.7214 62.7012 22.0234C62.7012 21.3255 62.6048 20.7031 62.4121 20.1562C62.2246 19.6094 61.946 19.1771 61.5762 18.8594C61.2064 18.5417 60.7454 18.3828 60.1934 18.3828C59.6361 18.3828 59.1673 18.5417 58.7871 18.8594C58.4121 19.1771 58.1283 19.6094 57.9355 20.1562C57.748 20.7031 57.6543 21.3255 57.6543 22.0234C57.6543 22.7214 57.748 23.3437 57.9355 23.8906C58.1283 24.4375 58.4121 24.8698 58.7871 25.1875C59.1673 25.5 59.6361 25.6562 60.1934 25.6562ZM73.6543 32.75C72.5762 32.75 71.6517 32.6016 70.8809 32.3047C70.1152 32.013 69.5059 31.6146 69.0527 31.1094C68.5996 30.6042 68.3053 30.0365 68.1699 29.4062L71.248 28.9922C71.3418 29.2318 71.4902 29.4557 71.6934 29.6641C71.8965 29.8724 72.1647 30.0391 72.498 30.1641C72.8366 30.2943 73.248 30.3594 73.7324 30.3594C74.4564 30.3594 75.0527 30.1823 75.5215 29.8281C75.9954 29.4792 76.2324 28.8932 76.2324 28.0703V25.875H76.0918C75.946 26.2083 75.7272 26.5234 75.4355 26.8203C75.1439 27.1172 74.7689 27.3594 74.3105 27.5469C73.8522 27.7344 73.3053 27.8281 72.6699 27.8281C71.7689 27.8281 70.9486 27.6198 70.209 27.2031C69.4746 26.7812 68.8887 26.138 68.4512 25.2734C68.0189 24.4036 67.8027 23.3047 67.8027 21.9766C67.8027 20.6172 68.0241 19.4818 68.4668 18.5703C68.9095 17.6589 69.498 16.9766 70.2324 16.5234C70.972 16.0703 71.7819 15.8438 72.6621 15.8438C73.334 15.8438 73.8965 15.9583 74.3496 16.1875C74.8027 16.4115 75.1673 16.6927 75.4434 17.0312C75.7246 17.3646 75.9408 17.6927 76.0918 18.0156H76.2168V16H79.5215V28.1172C79.5215 29.138 79.2715 29.9922 78.7715 30.6797C78.2715 31.3672 77.5788 31.8828 76.6934 32.2266C75.8132 32.5755 74.8001 32.75 73.6543 32.75ZM73.7246 25.3281C74.2611 25.3281 74.7142 25.1953 75.084 24.9297C75.459 24.6589 75.7454 24.2734 75.9434 23.7734C76.1465 23.2682 76.248 22.6641 76.248 21.9609C76.248 21.2578 76.1491 20.6484 75.9512 20.1328C75.7533 19.612 75.4668 19.2083 75.0918 18.9219C74.7168 18.6354 74.2611 18.4922 73.7246 18.4922C73.1777 18.4922 72.7168 18.6406 72.3418 18.9375C71.9668 19.2292 71.6829 19.6354 71.4902 20.1562C71.2975 20.6771 71.2012 21.2786 71.2012 21.9609C71.2012 22.6536 71.2975 23.2526 71.4902 23.7578C71.6882 24.2578 71.972 24.6458 72.3418 24.9219C72.7168 25.1927 73.1777 25.3281 73.7246 25.3281ZM86.5918 28.1953C85.6803 28.1953 84.8548 27.9609 84.1152 27.4922C83.3809 27.0182 82.7975 26.3229 82.3652 25.4062C81.9382 24.4844 81.7246 23.3542 81.7246 22.0156C81.7246 20.6406 81.946 19.4974 82.3887 18.5859C82.8314 17.6693 83.4199 16.9844 84.1543 16.5313C84.8939 16.0729 85.7038 15.8438 86.584 15.8438C87.2559 15.8438 87.8158 15.9583 88.2637 16.1875C88.7168 16.4115 89.0814 16.6927 89.3574 17.0312C89.6387 17.3646 89.8522 17.6927 89.998 18.0156H90.0996V16H93.4199V28H90.1387V26.0781H89.998C89.8418 26.4115 89.6204 26.7422 89.334 27.0703C89.0527 27.3932 88.6855 27.6615 88.2324 27.875C87.7845 28.0885 87.2376 28.1953 86.5918 28.1953ZM87.6465 25.5469C88.1829 25.5469 88.6361 25.401 89.0059 25.1094C89.3809 24.8125 89.6673 24.3984 89.8652 23.8672C90.0684 23.3359 90.1699 22.7135 90.1699 22C90.1699 21.2865 90.071 20.6667 89.873 20.1406C89.6751 19.6146 89.3887 19.2083 89.0137 18.9219C88.6387 18.6354 88.1829 18.4922 87.6465 18.4922C87.0996 18.4922 86.6387 18.6406 86.2637 18.9375C85.8887 19.2344 85.6048 19.6458 85.4121 20.1719C85.2194 20.6979 85.123 21.3073 85.123 22C85.123 22.6979 85.2194 23.3151 85.4121 23.8516C85.61 24.3828 85.8939 24.7995 86.2637 25.1016C86.6387 25.3984 87.0996 25.5469 87.6465 25.5469ZM101.311 28V12H111.904V14.7891H104.693V18.6016H111.201V21.3906H104.693V28H101.311ZM114.117 12H117.445V24.4062C117.451 24.7865 117.518 25.0625 117.648 25.2344C117.784 25.401 118.013 25.4844 118.336 25.4844C118.503 25.4792 118.633 25.4687 118.727 25.4531C118.82 25.4375 118.898 25.4167 118.961 25.3906L119.492 27.8125C119.32 27.8646 119.109 27.9193 118.859 27.9766C118.615 28.0286 118.284 28.0625 117.867 28.0781C116.591 28.125 115.648 27.8854 115.039 27.3594C114.43 26.8281 114.122 25.9922 114.117 24.8516V12ZM126.156 28.2344C124.943 28.2344 123.893 27.9766 123.008 27.4609C122.128 26.9401 121.448 26.2161 120.969 25.2891C120.49 24.3568 120.25 23.276 120.25 22.0469C120.25 20.8073 120.49 19.724 120.969 18.7969C121.448 17.8646 122.128 17.1406 123.008 16.625C123.893 16.1042 124.943 15.8438 126.156 15.8438C127.37 15.8438 128.417 16.1042 129.297 16.625C130.182 17.1406 130.865 17.8646 131.344 18.7969C131.823 19.724 132.063 20.8073 132.063 22.0469C132.063 23.276 131.823 24.3568 131.344 25.2891C130.865 26.2161 130.182 26.9401 129.297 27.4609C128.417 27.9766 127.37 28.2344 126.156 28.2344ZM126.172 25.6562C126.724 25.6562 127.185 25.5 127.555 25.1875C127.924 24.8698 128.203 24.4375 128.391 23.8906C128.583 23.3437 128.68 22.7214 128.68 22.0234C128.68 21.3255 128.583 20.7031 128.391 20.1562C128.203 19.6094 127.924 19.1771 127.555 18.8594C127.185 18.5417 126.724 18.3828 126.172 18.3828C125.615 18.3828 125.146 18.5417 124.766 18.8594C124.391 19.1771 124.107 19.6094 123.914 20.1562C123.727 20.7031 123.633 21.3255 123.633 22.0234C123.633 22.7214 123.727 23.3437 123.914 23.8906C124.107 24.4375 124.391 24.8698 124.766 25.1875C125.146 25.5 125.615 25.6562 126.172 25.6562ZM136.293 28L133.027 16H136.395L138.254 24.0625H138.363L140.301 16H143.605L145.574 24.0156H145.676L147.504 16H150.863L147.605 28H144.082L142.02 20.4531H141.871L139.809 28H136.293Z" fill="#18191F"/>
<path fill-rule="evenodd" clip-rule="evenodd" d="M13.8446 0.488155C13.1942 -0.162718 12.1398 -0.162718 11.4894 0.488155C10.839 1.13903 10.839 2.1943 11.4894 2.84518L21.9863 13.3501C22.8968 14.2613 22.8968 15.7387 21.9863 16.6499L11.4894 27.1548C10.839 27.8057 10.839 28.861 11.4894 29.5118C12.1398 30.1627 13.1942 30.1627 13.8446 29.5118L24.3415 19.0069C26.5528 16.794 26.5528 13.206 24.3415 10.9931L13.8446 0.488155ZM12.1554 39.5118C12.8058 40.1627 13.8602 40.1627 14.5106 39.5118C15.161 38.861 15.161 37.8057 14.5106 37.1548L4.01369 26.6499C3.10316 25.7387 3.10316 24.2613 4.0137 23.3501L14.5106 12.8452C15.161 12.1943 15.161 11.139 14.5106 10.4882C13.8602 9.83728 12.8058 9.83728 12.1554 10.4882L1.65847 20.9931C-0.552819 23.206 -0.552825 26.794 1.65846 29.0069L12.1554 39.5118Z" fill="url(#paint0_linear_1_3715)"/>
<defs>
<linearGradient id="paint0_linear_1_3715" x1="35.4421" y1="-127.5" x2="-37.582" y2="-101.373" gradientUnits="userSpaceOnUse">
<stop offset="0.25" stop-color="#FF3389"/>
<stop offset="1" stop-color="#FF624B"/>
</linearGradient>
</defs>
</svg>
