<svg width="1068" height="870" viewBox="0 0 1068 870" fill="none" xmlns="http://www.w3.org/2000/svg"><path d="M850.931 257.069c15.051-65.024-25.46-129.939-90.485-144.99-65.024-15.051-129.939 25.46-144.99 90.484-15.051 65.025 25.46 129.939 90.485 144.991 65.024 15.051 129.938-25.46 144.99-90.485z" fill="#9B8AF5"/><path d="M519.625 392.737H383.367l.084-.306 3.03-15.235 7.062-35.448 6.311-31.416h103.284l6.284 31.416 7.089 35.448 3.031 15.235.083.306z" fill="#838093"/><path d="M509.449 341.748H393.57l6.284-31.416h103.284l6.311 31.416z" fill="#605A77"/><path d="M669.006 274.745H237.324V49.632c0-5.978 4.866-10.843 10.843-10.843h409.997c5.977 0 10.842 4.865 10.842 10.843v225.113z" fill="#14111B"/><path d="M669.006 274.75H237.324v28.414c0 11.176 9.064 20.24 20.24 20.24h400.6c5.977 0 10.842-4.866 10.842-10.843V274.75z" fill="#838093"/><path d="M544.598 400.027H358.436a3.712 3.712 0 01-3.698-4.087l1.557-15.291a3.712 3.712 0 013.698-3.337h183.02a3.731 3.731 0 013.698 3.337l1.557 15.291c.25 2.168-1.473 4.087-3.67 4.087z" fill="#14111B"/><path d="M532.059 392.737H395.801l.083-.306 3.031-15.235 7.061-35.448 6.311-31.416h103.257l6.311 31.416 7.09 35.448 3.03 15.235.084.306z" fill="#AFABC4"/><path d="M521.872 341.748H405.965l6.311-31.416H515.56l6.312 31.416z" fill="#887FA8"/><path d="M681.432 274.745H249.75V49.632c0-5.978 4.865-10.843 10.843-10.843h409.996c5.978 0 10.843 4.865 10.843 10.843v225.113z" fill="#39304C"/><path d="M668.058 262.599H263.149a.985.985 0 01-.973-.973V52.36c0-.528.445-.973.973-.973h404.909c.528 0 .973.445.973.973v209.266c-.028.528-.445.973-.973.973z" fill="#fff"/><path d="M681.432 274.75H249.75v28.414c0 11.176 9.063 20.24 20.24 20.24h400.599c5.978 0 10.843-4.866 10.843-10.843V274.75z" fill="#AFABC4"/><path d="M489.573 308.605h-51.295a3.156 3.156 0 01-3.141-3.142v-1.278a3.156 3.156 0 013.141-3.142h51.295a3.157 3.157 0 013.142 3.142v1.278a3.157 3.157 0 01-3.142 3.142zm67.447 91.422H370.858a3.712 3.712 0 01-3.698-4.087l1.557-15.291a3.711 3.711 0 013.698-3.337h183.02a3.732 3.732 0 013.698 3.337l1.557 15.291c.222 2.168-1.474 4.087-3.67 4.087z" fill="#39304C"/><path d="M417.178 411.301H161.566v85.852h255.612v-85.852z" fill="#E1B494"/><path d="M417.178 411.301H161.566v85.852h255.612v-85.852z" fill="#A8858F"/><path d="M483.764 411.301H228.152v85.852h255.612v-85.852z" fill="#E1B494"/><path d="M483.764 423.008H228.152v18.711h255.612v-18.711z" fill="#A8858F"/><path d="M476.009 411.301H237.273v78.096h238.736v-78.096z" stroke="#A8858F" stroke-width=".78" stroke-miterlimit="10"/><path d="M352.458 466.709a8.368 8.368 0 100-16.736 8.367 8.367 0 00-8.368 8.368 8.367 8.367 0 008.368 8.368z" fill="#14111B"/><path d="M358.049 449.973h-5.588v16.736h5.588v-16.736z" fill="#14111B"/><path d="M358.04 466.709a8.368 8.368 0 100-16.736 8.368 8.368 0 000 16.736z" fill="#542A30"/><path d="M229.571 416.895h-22.77v420.116h22.77V416.895z" fill="#817C92"/><path d="M229.571 416.895h-22.77v24.827h22.77v-24.827z" fill="#887FA8"/><path d="M229.571 822.055h-22.77v20.267h22.77v-20.267z" fill="#39304C"/><path d="M959.645 416.891h-22.77v420.116h22.77V416.891z" fill="#817C92"/><path d="M959.645 416.891h-22.77v24.827h22.77v-24.827z" fill="#887FA8"/><path d="M959.645 822.051h-22.77v20.267h22.77v-20.267z" fill="#39304C"/><path d="M894.399 416.891h-22.77v420.116h22.77V416.891z" fill="#615D6D"/><path d="M894.399 416.891h-22.77v24.827h22.77v-24.827z" fill="#6A6383"/><path d="M894.399 822.051h-22.77v20.267h22.77v-20.267z" fill="#1E1927"/><path d="M161.567 416.891h-22.77v420.116h22.77V416.891z" fill="#615D6D"/><path d="M161.567 416.891h-22.77v24.827h22.77v-24.827z" fill="#6A6383"/><path d="M161.567 822.051h-22.77v20.267h22.77v-20.267z" fill="#1E1927"/><path d="M1005.97 423.003H86v-18.322a5.09 5.09 0 015.088-5.087h909.792a5.09 5.09 0 015.09 5.087v18.322z" fill="#B89379"/><path d="M1006 416.891H86v6.116h920v-6.116z" fill="#7F656C"/><path d="M1005.97 423.003H181.645v-18.322a5.089 5.089 0 015.087-5.087h814.158c2.8 0 5.08 2.279 5.08 5.087v18.322z" fill="#E1B494"/><path d="M839.127 399.583h-43.26v-9.092c0-9.925 8.035-17.96 17.96-17.96h7.312c9.926 0 17.96 8.035 17.96 17.96v9.092h.028z" fill="#605A77"/><path d="M796.145 390.828a21.865 21.865 0 00-.278 3.336v5.45h43.232v-5.45c0-1.14-.111-2.252-.278-3.336h-42.676z" fill="#605A77"/><path d="M850.701 399.583h-43.232v-9.092c0-9.925 8.035-17.96 17.96-17.96h7.312c9.925 0 17.96 8.035 17.96 17.96v9.092z" fill="#AFABC4"/><path d="M807.469 390.828v8.786h43.232v-5.45c0-1.14-.111-2.252-.278-3.336h-42.954z" fill="#887FA8"/><path d="M506.39 381.246h-14.179v9.62h14.179v-9.62z" fill="#AAA6BF"/><path d="M512.503 381.246h-14.179v9.62h14.179v-9.62z" fill="#D6D2F0"/><path d="M529.386 381.246h-14.179v9.62h14.179v-9.62z" fill="#AAA6BF"/><path d="M535.499 381.246H521.32v9.62h14.179v-9.62z" fill="#D6D2F0"/><path d="M552.402 381.246h-14.179v9.62h14.179v-9.62z" fill="#AAA6BF"/><path d="M558.515 381.246h-14.179v9.62h14.179v-9.62z" fill="#D6D2F0"/><path d="M575.394 381.246h-14.179v9.62h14.179v-9.62z" fill="#AAA6BF"/><path d="M625.49 381.246h-58.162v9.62h58.162v-9.62z" fill="#D6D2F0"/><path d="M644.425 381.246h-14.179v9.62h14.179v-9.62z" fill="#AAA6BF"/><path d="M650.538 381.246h-14.179v9.62h14.179v-9.62z" fill="#D6D2F0"/><path d="M667.421 381.246h-14.179v9.62h14.179v-9.62z" fill="#AAA6BF"/><path d="M673.535 381.246h-14.18v9.62h14.18v-9.62z" fill="#D6D2F0"/><path d="M690.441 381.246h-14.179v9.62h14.179v-9.62z" fill="#AAA6BF"/><path d="M696.554 381.246h-14.179v9.62h14.179v-9.62z" fill="#D6D2F0"/><path d="M713.433 381.246h-14.179v9.62h14.179v-9.62z" fill="#AAA6BF"/><path d="M719.546 381.246h-14.179v9.62h14.179v-9.62z" fill="#D6D2F0"/><path d="M736.452 381.246h-14.179v9.62h14.179v-9.62z" fill="#AAA6BF"/><path d="M742.566 381.246h-14.179v9.62h14.179v-9.62z" fill="#D6D2F0"/><path d="M759.445 381.246h-14.179v9.62h14.179v-9.62z" fill="#AAA6BF"/><path d="M765.558 381.246h-14.179v9.62h14.179v-9.62z" fill="#D6D2F0"/><path d="M766.258 386.062H461.742v13.957h304.516v-13.957z" fill="#838093"/><path d="M777.77 386.062H473.254v13.957H777.77v-13.957z" fill="#AFABC4"/><path d="M712.461 761.332v65.502h65.307l-4.699-.807c-27.301-4.698-49.432-24.716-56.883-51.378l-3.725-13.317zm-22.99 0v65.502h-65.307l4.699-.807c27.301-4.698 49.432-24.716 56.883-51.378l3.725-13.317z" fill="#817C92"/><path d="M689.471 761.332s1.445 51.184-32.64 65.502h-32.64l4.699-.807c27.302-4.698 49.432-24.716 56.883-51.378l3.698-13.317z" fill="#6A6383"/><path d="M712.465 540.121h-22.992v286.723h22.992V540.121z" fill="#817C92"/><path d="M712.465 540.121h-22.992v36.782h22.992v-36.782z" fill="#6A6383"/><path d="M748.606 701.98H633.172v16.181h115.434V701.98z" fill="#817C92"/><path d="M748.606 701.98H633.172v16.181h115.434V701.98z" fill="#6A6383"/><path d="M769.207 701.98H653.773v16.181h115.434V701.98z" fill="#615D6D"/><path d="M760.42 826.836H616.238v16.181H760.42v-16.181z" fill="#817C92"/><path d="M760.42 826.836H616.238v16.181H760.42v-16.181z" fill="#6A6383"/><path d="M786.142 826.836H641.961v16.181h144.181v-16.181z" fill="#615D6D"/><path d="M771.988 516.846H585.27v-23.27c0-14.847 12.038-26.857 26.856-26.857H771.96v50.127h.028z" fill="#766CAD"/><path d="M815.499 516.846H646.852v-23.27c0-14.847 12.038-26.857 26.856-26.857h114.934c14.846 0 26.857 12.038 26.857 26.857v23.27z" fill="#9B8AF5"/><path d="M772.011 515.098H585.293v19.155h186.718v-19.155z" fill="#615D6D"/><path d="M772.011 515.098H585.293v19.155h186.718v-19.155z" fill="#6A6383"/><path d="M815.527 515.098H646.852v19.155h168.675v-19.155z" fill="#615D6D"/><path d="M769.203 559.746H618.767a21.817 21.817 0 01-14.708-5.699l-18.766-19.656h183.938v25.355h-.028zM422.922 195h-9.033v-16.211h-33.301v-8.008l33.301-44.873h9.033v44.873h9.473v8.008h-9.473V195zm-9.033-56.592l-24.073 32.373h24.073v-32.373zm61.767 56.153c-2.995 1.237-6.331 1.855-10.01 1.855-3.678 0-7.014-.618-10.009-1.855s-5.518-2.946-7.569-5.127c-2.018-2.181-3.727-4.786-5.127-7.813-1.367-3.06-2.36-6.348-2.978-9.863-.619-3.516-.928-7.276-.928-11.279 0-4.004.309-7.764.928-11.28.618-3.515 1.611-6.787 2.978-9.814 1.4-3.06 3.109-5.681 5.127-7.862 2.051-2.181 4.574-3.89 7.569-5.127 2.995-1.269 6.331-1.904 10.009-1.904 3.679 0 7.015.635 10.01 1.904 2.995 1.237 5.502 2.946 7.52 5.127 2.051 2.181 3.76 4.802 5.127 7.862 1.399 3.027 2.409 6.299 3.027 9.814.619 3.516.928 7.276.928 11.28 0 4.003-.309 7.763-.928 11.279-.618 3.515-1.628 6.803-3.027 9.863-1.367 3.027-3.076 5.632-5.127 7.813-2.018 2.181-4.525 3.89-7.52 5.127zm-10.01-6.153c3.191 0 5.941-.748 8.252-2.246 2.344-1.497 4.167-3.581 5.469-6.25 1.335-2.669 2.311-5.599 2.93-8.789.618-3.223.928-6.771.928-10.644 0-3.874-.31-7.406-.928-10.596-.619-3.223-1.595-6.169-2.93-8.838-1.302-2.669-3.125-4.753-5.469-6.25-2.311-1.53-5.061-2.295-8.252-2.295-3.19 0-5.957.765-8.3 2.295-2.344 1.497-4.183 3.581-5.518 6.25-1.302 2.669-2.262 5.615-2.881 8.838-.618 3.222-.927 6.754-.927 10.596 0 3.059.179 5.924.537 8.593a40.807 40.807 0 001.855 7.569c.879 2.408 1.986 4.476 3.32 6.201 1.335 1.693 3.011 3.043 5.03 4.053 2.018 1.009 4.313 1.513 6.884 1.513zM541.574 195h-9.033v-16.211H499.24v-8.008l33.301-44.873h9.033v44.873h9.473v8.008h-9.473V195zm-9.033-56.592l-24.072 32.373h24.072v-32.373z" fill="#14111B"/></svg>