<svg width="192" height="24" viewBox="0 0 192 24" fill="none" xmlns="http://www.w3.org/2000/svg"><path d="M16.54 23H13.3L3.61 12.14V23H.91V1.58h2.7v10.38l9.45-10.38h3.06l-9.3 10.41L16.54 23zm14.435-8.07c0 1.34-.18 2.53-.54 3.57-.34 1.02-.84 1.89-1.5 2.61-.64.72-1.43 1.27-2.37 1.65-.92.36-1.95.54-3.09.54-1.06 0-2.04-.18-2.94-.54-.9-.38-1.68-.93-2.34-1.65-.66-.72-1.18-1.59-1.56-2.61-.36-1.04-.54-2.23-.54-3.57 0-1.78.3-3.28.9-4.5.6-1.24 1.46-2.18 2.58-2.82 1.12-.66 2.45-.99 3.99-.99 1.46 0 2.74.33 3.84.99 1.12.64 1.99 1.58 2.61 2.82.64 1.22.96 2.72.96 4.5zm-12.15 0c0 1.26.16 2.36.48 3.3.34.92.86 1.63 1.56 2.13.7.5 1.59.75 2.67.75 1.08 0 1.97-.25 2.67-.75s1.21-1.21 1.53-2.13c.34-.94.51-2.04.51-3.3 0-1.28-.17-2.37-.51-3.27-.34-.9-.86-1.59-1.56-2.07-.68-.5-1.57-.75-2.67-.75-1.64 0-2.83.54-3.57 1.62-.74 1.08-1.11 2.57-1.11 4.47zm31.484-8.01V23h-2.37V12.74c0-.42.01-.86.03-1.32l.12-1.35h-.09L42.749 23h-2.22l-5.1-12.93h-.09c.04.44.06.89.06 1.35.02.46.03.93.03 1.41V23h-2.37V6.92h3.51l5.07 12.93 5.16-12.93h3.51zm16.623 0V23h-2.64V9.17h-8.31V23h-2.64V6.92h13.59zM82.202 23h-2.67V9.11h-4.74c-.2 2.54-.45 4.71-.75 6.51-.3 1.78-.68 3.23-1.14 4.35-.46 1.12-1.01 1.94-1.65 2.46-.64.52-1.39.78-2.25.78-.26 0-.52-.02-.78-.06-.24-.02-.44-.07-.6-.15v-1.98c.12.04.25.07.39.09.14.02.28.03.42.03.44 0 .84-.18 1.2-.54.36-.36.68-.91.96-1.65.3-.74.57-1.67.81-2.79.24-1.14.45-2.48.63-4.02.18-1.54.34-3.28.48-5.22h9.69V23zm9.214-16.38c1.38 0 2.56.3 3.54.9 1 .6 1.76 1.45 2.28 2.55.54 1.08.81 2.35.81 3.81v1.59h-11.01c.04 1.82.5 3.21 1.38 4.17.9.94 2.15 1.41 3.75 1.41 1.02 0 1.92-.09 2.7-.27.8-.2 1.62-.48 2.46-.84v2.31c-.82.36-1.63.62-2.43.78-.8.18-1.75.27-2.85.27-1.52 0-2.87-.31-4.05-.93-1.16-.62-2.07-1.54-2.73-2.76-.64-1.24-.96-2.75-.96-4.53 0-1.76.29-3.27.87-4.53.6-1.26 1.43-2.23 2.49-2.91 1.08-.68 2.33-1.02 3.75-1.02zm-.03 2.16c-1.26 0-2.26.41-3 1.23-.72.8-1.15 1.92-1.29 3.36h8.19c0-.92-.14-1.72-.42-2.4-.28-.68-.71-1.21-1.29-1.59-.56-.4-1.29-.6-2.19-.6zm18.164-1.86h2.88l-6.87 7.74L113 23h-3.06l-7.26-8.16V23h-2.64V6.92h2.64v7.8l6.87-7.8zm15.369 2.22h-5.25V23h-2.61V9.14h-5.19V6.92h13.05v2.22zM143.692 23l-2.58-6.63h-8.49l-2.55 6.63h-2.73l8.37-21.51h2.43l8.34 21.51h-2.79zm-5.79-15.51c-.06-.16-.16-.45-.3-.87-.14-.42-.28-.85-.42-1.29-.12-.46-.22-.81-.3-1.05-.1.4-.21.81-.33 1.23-.1.4-.21.77-.33 1.11-.1.34-.19.63-.27.87l-2.43 6.48h6.78l-2.4-6.48zm22.07-7.23c-.08 1-.33 1.84-.75 2.52-.4.68-1 1.19-1.8 1.53-.8.34-1.84.51-3.12.51-1.3 0-2.35-.17-3.15-.51-.78-.34-1.35-.84-1.71-1.5-.36-.68-.58-1.53-.66-2.55h2.46c.1 1.08.38 1.81.84 2.19.48.36 1.24.54 2.28.54.92 0 1.64-.19 2.16-.57.54-.4.86-1.12.96-2.16h2.49zm-10.53 16.47c0 .18-.01.44-.03.78 0 .32-.01.67-.03 1.05l-.06 1.05c-.02.32-.04.58-.06.78l8.61-13.47h3.24V23h-2.46V12.26l.06-1.53c.02-.52.04-.91.06-1.17L150.222 23h-3.27V6.92h2.49v9.81zM171.27 23h-2.7V3.95h-6.69V1.58h16.05v2.37h-6.66V23zm8.425-6.27c0 .18-.01.44-.03.78 0 .32-.01.67-.03 1.05l-.06 1.05c-.02.32-.04.58-.06.78l8.61-13.47h3.24V23h-2.46V12.26l.06-1.53c.02-.52.04-.91.06-1.17L180.475 23h-3.27V6.92h2.49v9.81z" fill="#000"/></svg>