<svg width="267" height="360" viewBox="0 0 267 360" fill="none" xmlns="http://www.w3.org/2000/svg">
<g filter="url(#filter0_i_719_1691)">
<path fill-rule="evenodd" clip-rule="evenodd" d="M90.9364 234.336C71.7738 276.473 52.9514 317.939 34.129 359.516L34.2423 359.404C34.3557 359.516 34.4691 359.628 34.5825 359.628C34.8093 359.292 35.1494 358.956 35.4896 358.62C59.5266 328.139 83.5919 297.658 107.657 267.176C131.725 236.692 155.793 206.208 179.833 175.724V175.499L179.606 175.275C175.297 176.732 170.96 178.217 166.623 179.702C162.286 181.187 157.949 182.672 153.64 184.129C145.022 187.155 136.405 190.18 127.787 192.982C127.744 192.897 127.701 192.827 127.664 192.768C127.604 192.672 127.561 192.603 127.561 192.534C148.575 163.467 169.588 134.377 190.634 105.243C215.921 70.2379 241.254 35.169 266.688 0C266.309 0.102042 265.993 0.183438 265.721 0.253586C265.096 0.414559 264.702 0.516305 264.307 0.672414C244.805 7.34001 225.332 14.0076 205.859 20.6752C186.384 27.3438 166.908 34.0123 147.404 40.6809C145.93 41.1292 145.022 41.9137 144.342 43.2585C128.921 72.9567 113.387 102.655 97.853 132.353C77.103 171.913 56.4664 211.361 35.8298 250.922L35.8286 250.924C35.4888 251.708 35.1488 252.492 34.5825 253.723L38.0152 252.538C55.6565 246.446 73.0464 240.44 90.9364 234.336ZM50.1175 99.517C47.5096 93.5773 44.9017 87.6377 42.1804 81.6981L42.067 81.586H0C0.340164 83.4912 44.108 181.775 46.4891 185.81C46.9425 185.138 47.2825 184.578 47.6226 184.017L47.623 184.017C49.9886 179.532 52.3542 175.035 54.7244 170.528C59.2841 161.859 63.8607 153.158 68.4864 144.456C69.2801 143 69.0533 141.879 68.4864 140.534L50.1175 99.517Z" fill="url(#paint0_linear_719_1691)"/>
</g>
<path fill-rule="evenodd" clip-rule="evenodd" d="M90.9364 234.336C71.7738 276.473 52.9514 317.939 34.129 359.516L34.2423 359.404C34.3557 359.516 34.4691 359.628 34.5825 359.628C34.8093 359.292 35.1494 358.956 35.4896 358.62C59.5262 328.139 83.5911 297.659 107.656 267.178C131.724 236.693 155.793 206.208 179.833 175.724V175.499L179.606 175.275C175.297 176.732 170.96 178.217 166.622 179.702C162.285 181.187 157.949 182.672 153.64 184.129C145.022 187.155 136.405 190.18 127.787 192.982C127.744 192.897 127.701 192.827 127.664 192.768C127.604 192.672 127.561 192.603 127.561 192.534C148.573 163.469 169.586 134.38 190.631 105.248C215.919 70.241 241.253 35.1706 266.688 0C266.309 0.102037 265.993 0.183428 265.721 0.253574C265.096 0.414554 264.702 0.516301 264.307 0.672414C244.803 7.34095 225.327 14.0095 205.851 20.678C186.378 27.3456 166.905 34.0133 147.404 40.6809C145.93 41.1292 145.022 41.9137 144.342 43.2585C128.921 72.9567 113.387 102.655 97.853 132.353C77.103 171.913 56.4664 211.361 35.8298 250.922L35.8286 250.924C35.4888 251.708 35.1488 252.492 34.5825 253.723L38.0146 252.538C55.6561 246.446 73.0462 240.44 90.9364 234.336ZM50.1175 99.517C47.5096 93.5773 44.9017 87.6377 42.1804 81.6981L42.067 81.586H0C0.340164 83.4912 44.108 181.775 46.4891 185.81C46.9425 185.138 47.2825 184.578 47.6226 184.017L47.623 184.017C49.9888 179.532 52.3547 175.034 54.7251 170.527C59.2847 161.858 63.861 153.157 68.4864 144.456C69.2801 143 69.0533 141.879 68.4864 140.534L50.1175 99.517Z" fill="url(#paint1_linear_719_1691)" fill-opacity="0.4"/>
<defs>
<filter id="filter0_i_719_1691" x="0" y="0" width="266.688" height="359.628" filterUnits="userSpaceOnUse" color-interpolation-filters="sRGB">
<feFlood flood-opacity="0" result="BackgroundImageFix"/>
<feBlend mode="normal" in="SourceGraphic" in2="BackgroundImageFix" result="shape"/>
<feColorMatrix in="SourceAlpha" type="matrix" values="0 0 0 0 0 0 0 0 0 0 0 0 0 0 0 0 0 0 127 0" result="hardAlpha"/>
<feOffset/>
<feGaussianBlur stdDeviation="10"/>
<feComposite in2="hardAlpha" operator="arithmetic" k2="-1" k3="1"/>
<feColorMatrix type="matrix" values="0 0 0 0 0.991832 0 0 0 0 0.873534 0 0 0 0 0.806991 0 0 0 1 0"/>
<feBlend mode="normal" in2="shape" result="effect1_innerShadow_719_1691"/>
</filter>
<linearGradient id="paint0_linear_719_1691" x1="203" y1="17.5" x2="24.5" y2="323" gradientUnits="userSpaceOnUse">
<stop stop-color="#F1D022"/>
<stop offset="0.370315" stop-color="#DE7E60"/>
<stop offset="0.702442" stop-color="#CF14D2"/>
<stop offset="1" stop-color="#5D14D2"/>
</linearGradient>
<linearGradient id="paint1_linear_719_1691" x1="98.5" y1="-112" x2="331" y2="329.5" gradientUnits="userSpaceOnUse">
<stop offset="0.389203" stop-color="white"/>
<stop offset="0.389302" stop-color="white" stop-opacity="0"/>
</linearGradient>
</defs>
</svg>
