<svg width="267" height="360" viewBox="0 0 267 360" fill="none" xmlns="http://www.w3.org/2000/svg">
<path fill-rule="evenodd" clip-rule="evenodd" d="M90.9364 234.336C71.7738 276.473 52.9514 317.939 34.129 359.516L34.2423 359.404C34.3557 359.516 34.4691 359.628 34.5825 359.628C34.8093 359.292 35.1494 358.956 35.4896 358.62C59.5266 328.139 83.5919 297.658 107.657 267.176C131.725 236.692 155.793 206.208 179.833 175.724V175.499L179.606 175.275C175.297 176.732 170.96 178.217 166.623 179.702C162.286 181.187 157.949 182.672 153.64 184.129C145.022 187.155 136.405 190.18 127.787 192.982C127.744 192.897 127.701 192.827 127.664 192.768C127.604 192.672 127.561 192.603 127.561 192.534C148.573 163.47 169.584 134.383 190.628 105.251C215.917 70.2433 241.252 35.1717 266.688 0C266.309 0.102042 265.993 0.183438 265.721 0.253586C265.096 0.414559 264.702 0.516305 264.307 0.672414C244.805 7.34009 225.332 14.0078 205.859 20.6754C186.383 27.3439 166.908 34.0124 147.404 40.6809C145.93 41.1292 145.022 41.9137 144.342 43.2585C128.921 72.9566 113.387 102.655 97.8532 132.353L97.853 132.353C77.103 171.913 56.4664 211.361 35.8298 250.922L35.8286 250.924C35.4888 251.708 35.1488 252.492 34.5825 253.723L38.0152 252.538C55.6565 246.446 73.0464 240.44 90.9364 234.336ZM50.1175 99.517C47.5096 93.5773 44.9017 87.6377 42.1804 81.6981L42.067 81.586H0C0.340164 83.4912 44.108 181.775 46.4891 185.81C46.9424 185.138 47.2825 184.578 47.6224 184.018L47.623 184.017C49.9887 179.532 52.3544 175.034 54.7247 170.528C59.2844 161.859 63.8608 153.158 68.4864 144.456C69.2801 143 69.0533 141.879 68.4864 140.534L50.1175 99.517Z" fill="url(#paint0_linear_609_127)"/>
<defs>
<linearGradient id="paint0_linear_609_127" x1="224" y1="-12" x2="24.5" y2="323" gradientUnits="userSpaceOnUse">
<stop stop-color="#F1D022"/>
<stop offset="0.321493" stop-color="#DE7E60"/>
<stop offset="0.702442" stop-color="#A24CCA"/>
<stop offset="1" stop-color="#234FEA"/>
</linearGradient>
</defs>
</svg>
