<svg width="118" height="165" viewBox="0 0 118 165" fill="none" xmlns="http://www.w3.org/2000/svg">
<path d="M0.113388 0.468995C9.63798 0.468995 19.1626 0.356932 28.6872 0.244864C36.7377 0.244864 44.9017 0.244858 52.9522 0.0207211C64.291 -0.203416 75.2897 1.36555 85.608 5.96037C103.637 14.0293 114.295 27.7017 116.79 47.2016C118.037 57.2878 117.357 67.2619 114.635 77.0119C109.986 93.8222 99.1011 104.805 82.4331 110.408C75.2897 112.874 67.9194 114.219 60.3224 114.667C53.9727 115.003 47.623 115.003 41.2732 115.115C40.7063 115.115 40.1394 115.115 39.3456 115.115V164.313C38.6653 164.425 38.2118 164.65 37.7582 164.65C25.2855 164.65 12.8128 164.65 0.453552 164.65C0.340164 164.65 0.113388 164.65 0 164.65C0 109.96 0 55.2706 0 0.581066L0.113388 0.468995ZM39.5724 39.0206V78.5809C39.5724 78.5809 40.026 78.805 40.1394 78.805C47.056 78.805 53.9727 79.0291 60.776 78.805C69.0533 78.4688 74.7227 74.2102 77.444 66.3654C79.485 60.3137 79.0315 54.2619 76.4235 48.5464C73.7022 42.4947 68.8265 39.5809 62.25 39.2447C60.209 39.1327 58.1681 39.2447 56.1271 39.2447C50.7978 39.2447 45.3552 39.2447 39.6858 39.2447L39.5724 39.0206Z" fill="white"/>
</svg>
