<svg width="115" height="171" viewBox="0 0 115 171" fill="none" xmlns="http://www.w3.org/2000/svg">
<path d="M105.791 13.112C100.575 24.6551 95.4728 36.0861 90.3703 47.7412C89.9167 47.405 89.4632 47.2929 89.2364 47.0688C78.5779 39.8964 66.6722 37.3188 53.9727 38.3275C51.4782 38.5516 48.9836 39.3361 46.6025 40.1206C45.2418 40.5688 43.9945 41.3533 42.8607 42.1378C38.6653 45.2757 37.8716 50.8791 41.0465 55.1377C43.0875 57.9395 46.0355 59.7326 48.9836 61.3015C53.7459 63.767 58.735 65.4481 63.8374 66.905C67.9194 68.1377 72.1148 69.1463 76.1968 70.267C91.6176 74.5256 103.41 83.379 110.44 97.8359C114.635 106.353 115.429 115.431 114.409 124.62C113.728 130.448 112.368 136.051 109.76 141.318C104.997 151.293 97.2869 158.353 87.4222 163.172C79.485 167.094 70.8676 168.999 62.1367 169.896C41.1599 171.913 21.7705 166.87 3.28826 157.232C2.26777 156.672 1.24727 156.112 0 155.439C5.21585 143.896 10.3183 132.353 15.3074 121.034C19.6161 122.827 23.5847 124.732 27.6667 126.301C35.6038 129.215 43.6544 131.232 52.1585 132.017C56.5806 132.465 61.0027 132.353 65.4249 131.232C70.3006 130 73.8156 127.31 75.2897 122.379C76.1968 119.129 75.8566 116.103 73.5888 113.525C71.888 111.732 69.8471 110.051 67.8061 108.707C63.2706 105.793 58.0547 104.112 52.9522 102.543C47.1694 100.75 41.2732 99.1807 35.4904 97.3876C27.8934 94.9221 20.8634 91.3359 14.8539 86.0687C6.57652 78.8963 1.92761 69.7067 0.680344 58.9481C-0.340149 50.8791 0.113407 42.8102 2.72133 35.0775C7.59702 20.8448 17.4617 11.2069 31.2951 5.37929C40.8197 1.34482 50.9113 0 61.2296 0C77.1039 0 91.7309 4.37067 105.111 12.5517C105.337 12.6638 105.451 12.8879 105.791 13.112Z" fill="white"/>
</svg>
