<svg width="4" height="8" viewBox="0 0 4 8" fill="none" xmlns="http://www.w3.org/2000/svg"><path d="M1.244 5.463c-.085-.405-.118-.736-.098-.992.023-.26.1-.478.23-.657.13-.18.318-.356.563-.532.336-.24.56-.445.67-.614a.993.993 0 00.167-.558c0-.326-.103-.568-.308-.73-.206-.164-.495-.246-.867-.246a1.98 1.98 0 00-1.317.477L0 .608C.108.502.251.404.43.312c.18-.095.388-.17.623-.224C1.288.029 1.54 0 1.812 0c.417 0 .791.077 1.12.23A1.753 1.753 0 014 1.89c0 .223-.036.433-.108.63a1.81 1.81 0 01-.357.581c-.17.194-.402.4-.695.62a1.963 1.963 0 00-.46.443.975.975 0 00-.167.51c-.013.197.003.46.049.789H1.244zM1.797 8a.736.736 0 01-.539-.225.792.792 0 01-.225-.586.85.85 0 01.103-.427.747.747 0 01.661-.389c.212 0 .393.074.543.224.15.146.225.344.225.592 0 .16-.035.303-.107.427a.722.722 0 01-.28.28.721.721 0 01-.381.104z" fill="#6D6E6B"/></svg>