<svg width="78" height="76" viewBox="0 0 78 76" fill="none" xmlns="http://www.w3.org/2000/svg">
<path fill-rule="evenodd" clip-rule="evenodd" d="M39.0001 3.35303C30.7634 3.35303 23.4345 7.27129 18.7461 13.3603L8.70447 4.80428H0.99707L11.8585 24.9489L8.66175 32.9841L13.28 34.4926L10.5654 41.3336C10.5654 41.3336 12.2885 42.9655 14.1393 44.6738C15.5749 45.9982 17.0873 47.3676 17.9322 48.0567L20.0297 60.2683C20.5869 60.6275 34.5871 69.702 39.0001 72.6471C43.4131 69.702 57.4132 60.6275 57.9704 60.2683L60.0679 48.0567C62.0021 46.4786 67.4347 41.3336 67.4347 41.3336L64.7202 34.4926L69.3384 32.9841L66.1417 24.9489L77.0031 4.80428H69.2957L59.254 13.3603C54.5657 7.27129 47.2367 3.35303 39.0001 3.35303ZM39.0001 39.3907L18.7438 31.5542L19.6473 37.8104L39.0001 48.8008L58.3529 37.8104L59.2564 31.5542L39.0001 39.3907Z" fill="black"/>
</svg>
