<svg width="63" height="64" viewBox="0 0 63 64" fill="none" xmlns="http://www.w3.org/2000/svg">
<path d="M59.0635 38.4127H37.4127V60.0635H59.0635V38.4127ZM17.1151 5.93652L29.2937 27.5873H4.93652L17.1151 5.93652ZM48.2381 27.5873C51.1092 27.5873 53.8627 26.4468 55.8928 24.4166C57.923 22.3865 59.0635 19.633 59.0635 16.7619C59.0635 13.8908 57.923 11.1374 55.8928 9.10721C53.8627 7.07705 51.1092 5.93652 48.2381 5.93652C45.367 5.93652 42.6136 7.07705 40.5834 9.10721C38.5532 11.1374 37.4127 13.8908 37.4127 16.7619C37.4127 19.633 38.5532 22.3865 40.5834 24.4166C42.6136 26.4468 45.367 27.5873 48.2381 27.5873Z" fill="black" stroke="black" stroke-width="5.5"/>
<path d="M4.93652 38.4126L26.5873 60.0634L4.93652 38.4126ZM26.5873 38.4126L4.93652 60.0634L26.5873 38.4126Z" fill="black"/>
<path d="M4.93652 38.4126L26.5873 60.0634M26.5873 38.4126L4.93652 60.0634" stroke="black" stroke-width="5.5" stroke-linecap="square"/>
</svg>
