<svg width="164" height="98" viewBox="0 0 164 98" fill="none" xmlns="http://www.w3.org/2000/svg"><path fill-rule="evenodd" clip-rule="evenodd" d="M0 53.007h65.36V51.69H0v1.317zM66.894 39.55c.162.308.581.817.656 1.096.569 0 2.367-.545 3.594.638 1.173 1.13 1.114 3.33.61 4.82-.491 1.455-1.936 2.294-3.402 2.294H19.768v1.316h48.875c1.28 0 2.547-.688 3.375-1.516.961-.961 1.267-2.257 1.371-3.599.113-1.451-.066-2.746-.962-3.872-1.113-1.399-2.911-1.73-4.64-1.452-.35.055-.55.193-.895.273l.002.001zM3.356 60.613h58.577v-1.317H3.356v1.317zm7.951 3.804h42.237c1.555 0 2.84 1.323 2.919 3.072.038.849.08 1.661-.394 2.458-.844 1.421-2.474.998-3.327.979-.17.254-.588.804-.656 1.096 1.586.842 4.637.32 5.445-2.074.779-2.306.095-5.313-2.014-6.338-.465-.227-1.14-.51-1.825-.51H11.309v1.316h-.002zm0-7.607H60.91v-1.317H11.307v1.317zm50.626-27.573l-2.9-2.87-.95.912 2.919 2.964-4.176.018v1.317h4.158l-2.936 2.98.875.913c.355-.107.568-.458.802-.693.462-.464 1.9-1.97 2.207-2.176v3.291c-.006 1.015-.207.878 1.167.878.366 0 .218-1.298.218-1.974v-2.195l2.9 2.87.984-.95-2.954-2.925 4.176-.018v-1.316h-4.158l2.936-2.981-.95-.912-2.916 2.886-.018-4.114h-1.385v4.096-.001zm-21.374-.074l-2.974-2.943-.984.95 2.954 2.925-4.175.018v1.316h4.157l-2.862 2.908c.082.26.667.817.893.968l2.974-2.943.018 4.26c1.636 0 1.313.361 1.313-1.974v-2.195l2.9 2.87c.259-.082.815-.67.966-.895l-2.935-2.982 4.175-.018v-1.316h-4.157l2.934-2.981c-.14-.201-.27-.31-.436-.475-.176-.178-.27-.351-.53-.42l-2.9 2.87-.016-3.309c.005-1.028.23-.878-1.314-.878v4.242l-.001.002zm-21.447-.218c-.536-.36-2.555-2.736-2.99-2.853l-.894.86 2.953 2.998-4.176.018v1.317h4.158l-2.936 2.981.876.913c.326-.1 1.229-1.123 1.531-1.425.37-.37 1.11-1.199 1.477-1.445v4.096h1.313v-4.169l2.974 2.944.983-.95-2.954-2.925 4.176-.018V29.97h-4.158l2.936-2.981-.95-.912-2.989 2.96-.018-4.26h-1.103c-.346.082-.21.466-.21 1.974v2.194z" fill="#FEFEFE"/><mask id="mask0_1215_2087" style="mask-type:alpha" maskUnits="userSpaceOnUse" x="82" y="0" width="165" height="98"><path fill-rule="evenodd" clip-rule="evenodd" d="M116.629 54.727H86.274v34.726h.101v-.101h.1v-.102h.102v-.101h.1v-.203h.102v-.102h.1v-.1h.102v-.102h.1v-.102h.101v-.1h.101v-.102h.101v-.203h.101v-.102h.101v-.101h.101v-.101h.101v-.102h.101v-.1h.1v-.102h.102v-.101h.1v-.204h.102v-.101h.1v-.101h.102v-.102h.1v-.1h.101v-.102h.101v-.101h.101v-.204H89v-.101h.101v-.101h.101v-.102h.101v-.1h.1v-.102h.102v-.102h.1V85.6h.102v-.1h.1v-.101h.102v-.102h.1v-.1h.101v-.102h.101v-.101h.101v-.204h.101v-.101h.101v-.101h.101v-.102h.101v-.101h.1v-.101h.102v-.102h.1v-.203h.102v-.101h.1v-.102h.102v-.1h.1v-.102h.101v-.101h.101v-.102h.101v-.203h.101v-.101h.101v-.102h.101v-.1h.101v-.102h.101v-.101h.1v-.102h.102v-.1h.1v-.204h.102v-.102h.1v-.1h.102v-.102h.1v-.101h.101v-.102h.101v-.101h.101v-.203h.101v-.102h.101v-.1h.101v-.102h.101v-.101h.1v-.102h.102v-.101h.1v-.203h.102v-.102h.1v-.1h.102v-.102h.1v-.101h.101v-.102h.101v-.101h.101v-.203h.101v-.102h.101v-.101h.101v-.101h.101v-.102h.1v-.1h.102v-.102h.1v-.203h.102v-.102h.1v-.101h.102v-.101h.1v-.102h.101v-.1h.101v-.102h.101V78.2h.101v-.1h.101v-.102h.101v-.101h.101v-.102h.101v-.1h.1v-.102h.102v-.204h.1v-.1h.102v-.102h.1v-.101h.102v-.102h.1v-.101h.101v-.101h.101v-.102h.101v-.203h.101v-.101h.101v-.101h.101v-.102h.101v-.101h.1v-.101h.102v-.102h.1v-.203h.102v-.101h.1v-.101h.102v-.102h.1v-.101h.101v-.101h.101v-.102h.101v-.203h.101v-.101h.101v-.102h.101v-.1h.101v-.102h.1v-.101h.102v-.102h.1v-.203h.102v-.101h.1v-.102h.102v-.1h.1v-.102h.101v-.101h.101v-.102h.101v-.203h.101v-.101h.101v-.102h.101v-.1h.101v-.102h.101v-.102h.101v-.1h.101v-.204h.101v-.101h.101v-.102h.101v-.1h.101v-.102h.1v-.102h.101v-.1h.101v-.102h.101v-.203h.101v-.102h.101v-.101h.101v-.101h.101v-.102h.101v-.1h.101V70.9h.101v-.203h.101v-.102h.101v-.101h.101v-.101h.1v-.102h.101v-.1h.101v-.102h.101v-.204h.101v-.1h.101v-.102h.101v-.101h.101v-.102h.101v-.1h.101v-.102h.101v-.204h.101v-.1h.101v-.102h.101v-.101h.1v-.102h.101v-.101h.101v-.101h.101v-.204h.101v-.1h.101v-.102h.101v-.102h.101v-.1h.101v-.102h.101v-.101h.101v-.204h.101v-.1h.101v-.102h.101v-.102h.101v-.1h.1v-.102h.101v-.101h.101v-.204h.101v-.101h.101v-.101h.101v-.102h.101v-.1h.101v-.102h.101v-.101h.101v-.102h.101v-.203h.101v-.101h.101v-.102h.101v-.1h.1v-.102h.101v-.101h.101v-.102h.101v-.203h.101v-.101h.101v-.102h.101v-.1h.101v-.102h.101v-.102h.101v-.1h.101v-.204h.101v-.101h.101v-.102h.101v-.101h.1v-.101h.101V63.6h.101v-.1h.101v-.204h.101v-.101h.101v-.102h.101v-.101h.101v-.101h.101v-.102h.101v-.1h.101v-.204h.101v-.101h.101v-.102h.101v-.101h.101v-.101h.1v-.102h.101v-.1h.101v-.204h.101v-.101h.101v-.102h.101v-.101h.101v-.101h.101v-.102h.101v-.101h.101v-.203h.101v-.102h.101v-.1h.101v-.102h.101v-.101h.1v-.102h.101v-.101h.101v-.101h.101v-.204h.101v-.1h.101v-.102h.101v-.102h.101v-.1h.101v-.102h.101v-.101h.101v-.204h.101v-.101h.101v-.101h.101v-.102h.1v-.1h.101v-.102h.101v-.101h.101v-.204h.101v-.101h.101v-.101h.101v-.102h.101v-.1h.101v-.102h.101v-.101h.101v-.204h.101v-.101h.101v-.101h.101v-.102h.101v-.1h.1v-.102h.101v-.102h.101v-.203h.101v-.101h.101v-.101h.101v-.102h.101v-.101h.101V56.2h.101v-.102h.101v-.203h.101v-.101h.101v-.101h.101v-.102h.101v-.101h.1v-.101h.101v-.102h.101v-.1h.101v-.204h.101v-.102h.101v-.1l.076-.055zm94.909.304h.101v.102h.101v.101h.101v.101h.101v.102h.101v.1h.101v.102h.101v.101h.101v.204h.101v.101h.101v.101h.1v.102h.101v.1h.101v.102h.101v.101h.101v.204h.101v.101h.101v.101h.101v.102h.101v.1h.101v.102h.101v.101h.101v.204h.101v.101h.101v.101h.101v.102h.1v.1h.101v.102h.101v.101h.101v.204h.101v.101h.101v.101h.101v.102h.101v.101h.101v.101h.101v.102h.101v.203h.101v.101h.101v.102h.101v.1h.1v.102h.101v.101h.101v.102h.101v.203h.101v.101h.101v.102h.101v.1h.101v.102h.101v.101h.101v.102h.101v.203h.101v.101h.101v.102h.101v.1h.1v.102h.101v.101h.101v.102h.101v.101h.101v.203h.101v.102h.101v.1h.101v.102h.101v.101h.101v.102h.101v.101h.101v.203h.101v.102h.101v.1h.101v.102h.1v.101h.101v.102h.101v.101h.101v.203h.101v.102h.101v.101h.101v.101h.101v.101h.101v.102h.101v.101h.101v.204h.101v.1h.101v.102h.101v.101h.1v.102h.101v.1h.101v.102h.101v.203h.101v.102h.101v.101h.101v.101h.101v.102h.101v.1h.101v.102h.101v.204h.101v.1h.101v.102h.101v.101h.1v.102h.101v.101h.101v.101h.101v.204h.101v.1h.101v.102h.101v.101h.101v.102h.101v.101h.101v.101h.101v.102h.101v.203h.101v.101h.101v.102h.101v.1h.1v.102h.101v.101h.101v.102h.101v.203h.101v.101h.101v.102h.101v.1h.101v.102h.101v.101h.101v.102h.101v.203h.101v.101h.101v.102h.101v.1h.1v.102h.101v.101h.101v.102h.101v.203h.101v.101h.101v.102h.101v.1h.101v.102h.101v.102h.101v.1h.101v.204h.101v.101h.101v.102h.101v.101h.1v.101h.101v.101h.101v.102h.101v.203h.101v.101h.101v.102h.101v.101h.101v.101h.101v.102h.101v.1h.101v.102h.101v.204h.101v.1h.101v.102h.1v.101h.101v.102h.101v.1h.101v.102h.101v.204h.101v.1h.101v.102h.101v.101h.101v.102h.101v.1h.101v.102h.101v.204h.101v.1h.101v.102h.101v.101h.1v.102h.101v.101h.101v.101h.101v.204h.101v.1h.101v.102h.101v.102h.101v.1h.101v.102h.101v.101h.101v.204h.101v.1h.101v.102h.101v.101h.1v.102h.101v.101h.101v.101h.101v.204h.101v.101h.101v.101h.101v.102h.101v.1h.101v.102h.101v.101h.101v.204h.101v.101h.101v.101h.101v.102h.1v.1h.101v.102h.101v.102h.101v.1h.101v.204h.101v.101h.101v.102h.101v.1h.101v.102h.101v.102h.101v.1h.101v.204h.101v.101h.101v.102h.101v.101h.1v.101h.101v.102h.101v.1h.101v.204h.101v.102h.101v.1h.101v.102h.101v.101h.101v.102h.101v.1h.101v.204h.101v.101h.101v.102h.101v.101h.1v.101h.101v.102h.101v.1h.101v.204h.101v.102h.101v.1h.101v.102h.101v.101h.101v.102h.101v.101h.101v.203h.101v.102h.101v.1h.101v.102h.1v.101h.101v.102h.101v.101h.101v.101h.101v.204h.101v.1h.101v.102h.101v.102h.101v.1h.101v.102h.101v.101h.101v.204h.101v.101h.101v.101h.101v.102h.1v.1h.101v.102h.101v.101h.101v.204h.101v.101h.101v.101h.101v.102h.101v.1h.101v.102h.101v.101h.101v.204h.101v.101h.101v.101h.101v.102h.1v.1h.101v.102h.101v.102h.101v.203h.101v.101h.101v.101h.101v.102h.101v.101h.101v.101h.101v.102h.101v.203h.101v.101h.101v.101h.101v.102h.1v.101h.101v.101h.101v.102h.101v.203h.101v.101h.101v.102h.101v.1h.101v.102h.101v.101h.101v.102h.101v.1h.101v.204h.101v.102h.101v.1h.101v.102h.1v.101h.101V54.672h-30.354v.102h.101v.203l.075.054zm-92.38-9.748h-.101v-6.498h-.101v-6.498h-.101v-2.234h-.101v.101h-.202v.102h-.101v.101h-.203v.101h-.101v.102h-.101v.1h-.202v.102h-.101v.101h-.101v.102h-.203v.101h-.101v.101h-.202v.102h-.101v.1h-.101v.102h-.203v.102h-.101v.1h-.101v.102h-.202v.101h-.101v.102h-.203v.1h-.101v.102h-.101v.101h-.202v.102h-.101v.101h-.101v.101h-.203v.102h-.101v.1h-.202v.102h-.101v.101h-.101v.102h-.203v.101h-.101v.101h-.202v.102h-.101v.1h-.101v.102h-.203v.101h-.101v.102h-.101v.101h-.202v.101h-.101v.102h-.203v.1h-.101v.102h-.101v.101h-.202v.102h-.101v.101h-.101v.101h-.203v.102h-.101v.1h-.202v.102h-.101v.101h-.101v.102h-.203v.101h-.101v.101h-.101v.102h-.202v.1h-.101v.102h-.203v.101h-.101v.102h-.101v.101h-.202v.101h-.101v.102h-.101v.1h-.203v.102h-.101v.101h-.202v.102h-.101v.101h-.101v.101h-.203v.102h-.101v.1h-.202v.102h-.101v.101h-.101v.102h-.203v.101h-.101v.101h-.101v.102h-.202v.1h-.101v.102h-.203v.101h-.101v.102h-.101v.101h-.202v.101h-.101v.102h-.101v.1h-.203v.102h-.101v.101h-.203v.102h-.1v.101h-.101v.101h-.203v.102h-.101v.1h-.101v.102h-.202v.101h-.101v.102h-.203v.1h-.101v.102h-.101v.102h-.203v.1h-.1v.102h-.101v.101h-.203v.102h-.101v.1h-.203v.102h-.101v.102h-.1v.1h-.203v.102h-.101v.101h-.203v.102h-.101v.1h-.1v.102h-.203v.101h-.101v.102h-.101v.101h-.203v.101h-.101v.102h-.202v.1h-.101v.102h-.101v.102h-.203v.1h-.101v.102h-.1v.101h-.203v.102h-.101v.1h-.203v.102h-.101v.101h-.101v.102h-.202v.101h-.101v.101h-.101v.102h-.203v.1h-.101v.102h-.202v.102h-.101v.1h-.101v.102h-.203v.101h-.101v.102h-.202v.1h-.101v.102h-.101v.102h-.203v.1h-.1v.102h-.102v.101h-.202v.102h-.101v.1h-.203v.102h-.1v.102h-.102v.1h-.202v.102h-.101v.101h-.101v.102h-.203v.1h-.1v.102h-.203v.102h-.101v.1h-.101v.102h-.203v.101h-.1v.102h-.102v.1h-.202v.102h-.101v.102h-.203v.1h-.1v.102H96.3v.101h-.2v.102h-.101v.1h-.101v.102h-.203v.102h-.1v.1h-.203v.102h-.101v.101h-.101v.102h-.203v.1h-.1v.102h-.203v.101h-.101v.102h-.101v.101h-.203v.101h-.1v.102h-.102v.1h-.202v.102h-.101v.101h-.203v.102h-.1v.101h-.102v.101h-.202v.102h-.101v.1h-.101v.102h-.203v.101h-.1v.102h-.203v.101h-.101v.101h-.101v.102h-.203v.1h-.1v.102h-.102v.101h-.202v.102h-.101v.101h-.203v.101h-.1v.102h-.102v.1h-.202v.102h-.101v.101h28.331v-5.178l-.013.05zm118.08 5.077h-.101v-.101h-.203v-.102h-.101v-.1h-.202v-.102h-.101v-.101h-.101v-.102h-.203v-.101h-.101v-.101h-.1v-.102h-.203v-.1h-.101v-.102h-.203v-.101h-.101v-.102h-.101v-.101h-.202v-.101h-.101v-.102h-.101v-.1h-.203v-.102h-.101v-.101h-.202v-.102h-.101v-.101h-.101v-.101h-.203v-.101h-.101v-.102h-.101v-.101h-.202v-.101h-.101v-.102h-.203v-.101h-.101v-.101h-.101v-.102h-.202v-.1h-.101v-.102h-.203v-.101h-.101v-.102h-.101v-.101h-.202v-.101h-.101v-.102h-.101v-.1h-.203v-.102h-.101v-.101h-.202v-.102h-.101v-.101h-.101v-.101h-.203v-.102h-.101v-.1h-.101V45.7h-.202v-.1h-.101v-.102h-.203v-.1h-.101v-.102h-.101v-.102h-.202v-.1h-.101v-.102h-.101v-.101h-.203v-.102h-.101v-.1h-.202v-.102h-.101v-.102h-.101v-.1h-.203v-.102h-.101v-.101h-.101v-.102h-.202v-.1h-.101v-.102h-.203v-.102h-.101v-.1h-.101v-.102h-.202v-.101h-.101v-.102h-.203v-.1h-.101v-.102h-.101v-.101h-.202v-.102h-.101v-.101h-.101v-.101h-.203v-.102h-.101v-.1h-.202v-.102h-.101v-.102h-.101v-.1h-.203v-.102h-.101v-.101h-.101v-.102h-.202v-.1h-.101v-.102h-.203v-.101h-.101v-.102H225v-.101h-.202v-.101h-.101v-.102h-.101v-.1h-.203v-.102h-.101v-.102h-.202v-.1h-.101v-.102h-.101v-.101h-.203v-.102h-.101v-.1h-.203v-.102h-.1v-.102h-.101v-.1h-.203v-.102h-.101v-.101h-.101v-.102h-.202v-.1h-.101v-.102h-.203v-.102h-.101v-.1h-.101v-.102h-.203v-.101h-.1v-.102h-.101v-.1h-.203v-.102h-.101v-.101h-.203v-.102h-.1v-.101h-.101v-.101h-.203v-.102h-.101v-.1h-.101v-.102h-.203v-.101h-.1v-.102h-.203v-.101h-.101v-.101h-.101v-.102h-.203v-.1h-.1v-.102h-.101v-.101h-.203v-.102h-.101v-.101h-.203v-.101h-.101v-.102h-.1v-.1h-.203v-.102h-.101v-.101h-.203v-.102h-.101v-.101h-.101v-.101h-.202v-.102h-.101v-.1h-.101v-.102h-.203v-.101h-.101v-.102h-.202v-.101h-.101v-.101h-.101v-.102h-.203v-.1h-.101v-.102h-.101v-.101h-.202v-.102h-.101v-.101h-.203v-.101h-.101v-.102h-.101v-.1h-.202v-.102h-.101v-.101h-.101v-.102h-.203v-.101h-.101v-.101h-.202v-.102h-.101v-.1h-.101v-.102h-.203v-.101h-.101v-.102h-.101v-.101h-.202v-.101h-.101v-.101h-.203v-.102h-.101v-.101h-.101v-.101h-.202v-.102h-.101v-.101h-.203v-.101h-.101v-.102h-.101v-.1h-.202v-.102h-.101v-.101h-.101v-.102h-.203v-.101h-.101v-.101h-.202v-.101h-.101v-.102h-.101v-.101h-.203v-.101h-.101v-.102h-.101v-.101h-.202v-.101h-.101v-.102h-.203v-.1h-.101v-.102h-.101v-.101h-.202v-.102h-.101v-.1h-.101v-.102h-.203v-.101h-.101v-.102h-.202v-.101h-.101v-.101h-.101v-.102h-.203v-.1h-.101v1.42h-.101v6.5h-.101v6.396h-.101v6.093h28.332v-.102l-.013-.051zm-106.14-4.163h.202v-.1h.203v-.102h.304v-.101h.202v-.102h.203v-.101h.303v-.101h.203v-.102h.304v-.1h.202v-.102h.203v-.102h.303v-.1h.203v-.102h.304v-.101h.202v-.102h.203v-.1h.303v-.102h.203v-.102h.303v-.1h.203v-.102h.203v-.101h.303v-.102h.203v-.1h.203v-.102h.303v-.102h.203v-.1h.303v-.102h.203v-.101h.303v-.102h.203v-.1h.203v-.102h.303v-.102h.203v-.1h.203v-.102h.303v-.101h.203v-.102h.303v-.1h.203v-.102h.203v-.102h.303v-.1h.203v-.102h.303v-.101h.203v-.102h.202v-.1h.304v-.102h.203v-.102h.303v-.1h.203v-.102h.202v-.101h.304v-.102h.203v-.1h.202v-.102h.304v-.101h.202v-.102h.304v-.101h.203v-.101h.303v-.102h.203v-.1h.202v-.102h.304v-.101h.203v-.102h.202v-.101h.304v-.101h.202v-.102h.304v-.1h.203v-.102h.202v-.101h.304v-.102h.202v-.101h.304v-.101h.203v-.102h.202v-.1h.304v-.102h.202v-.101h.304v-.102h.203v-.101h.202V38.5h.304v-.102h.202v-.1h.203v-.102h.304v-.101h.202v-.102h.304v-.101h.202v-.101h.203v-.102h.304v-.1h.202v-.102h.304v-.101h.202v-.102h.203v-.101h.304v-.101h.202v-.102h.304v-.1h.202v-.102h.203v-.101h.304v-.102h.202v-.101h.304v-.101h.202v-.101h.203v-.102h.303v-.101h.203v-.101h.203v-.102h.303v-.101h.203v-.101h.303v-.102h.203v-.203h-.506v-.101h-.506v-.101h-.506v-.102h-.507v-.101h-.404v-.101h-.506v-.102h-.506v-.1h-.507v-.102h-.506v-.101h-.506v-.102h-.506v-.101h-.506v-.101h-.507v-.102h-.506v-.1h-.404v-.102h-.506v-.101h-.507v-.102h-.506v-.101h-.506v-.101h-.506v-.102h-.506v-.1h-.506v-.102h-.507v-.101h-.404v-.102h-.506v-.101h-.506v-.101h-.507v-.102h-.506v-.1h-.506v-.102h-.506v-.101h-.405v-.102h-.607v-.101h-.404v-.101h-.506v-.102h-.507v-.1h-.506v-.102h-.506v-.101h-.506v-.102h-.506v-.101h-.405v-.101h-.506v-.102h-.506v-.1h-.506v-.102h-.507v-.101h-.506V30.8h-.506v-.1h-.506v-.101h-.506v-.102h-.506v-.1h-.405v-.102h-.506v-.101h-.506v-.102h-.506v-.101h-.507v-.101h-.506v-.102h-.506v-.1h-.506v-.102h-.506v-.101h-.405v-.102h-.506v-.101h-.506v-.101h-.506v-.102h-.507v-.1h-.506v-.102h-.506v-.101h-.404v-.102h-.608v-.101h-.404v4.061h.101v6.499h.101v6.498h.101v3.858h.101v-.101h.303v-.102h.203v-.1h.202v-.102h.304v-.101h.203v-.102h.303v-.1h.203v-.102h.202v-.101h.304v-.102h.203v-.101h.303v-.101h.203v-.102h.202v-.1h.304v-.102h.203v-.101h.303v-.102h.203v-.101h.202v-.101h.304v-.102h.203v-.1h.303v-.102h.203v-.101h.202v-.102h.304v-.101h.203v-.101h.202v-.102h.304v-.1h.202v-.102h.304v-.101h.203v-.102h.303v-.101l-.008-.05zm72.345-17.362h-.404v.101h-.506v.101h-.507v.102h-.506v.1h-.506v.102h-.506v.101h-.506v.102h-.405v.101h-.607v.101h-.404v.102h-.507v.1h-.506v.102h-.506v.101h-.506v.102h-.506v.101h-.507v.101h-.404v.102h-.506v.1h-.506v.102h-.507v.101h-.506v.102h-.506v.101h-.506v.101h-.506v.101h-.506v.102h-.507v.101h-.404v.101h-.506v.102h-.506v.101h-.507v.101h-.506v.101h-.506v.102h-.506v.101h-.506v.101h-.507v.102h-.404v.1h-.506v.102h-.506v.102h-.507v.1h-.506v.102h-.506v.101h-.506v.102h-.405v.1h-.607v.102h-.404v.102h-.506v.1h-.507v.102h-.506v.101h-.506v.102h-.506v.1h-.506V34h-.405v.102h-.506v.1h-.506v.102h-.506v.101h-.506v.102h-.507v.1h-.506v.102h-.506v.101h-.506v.102h-.506v.101h-.405v.101h-.506v.102h-.506v.1h-.506v.204h.202v.101h.304v.102h.202v.101h.203v.101h.304v.102h.202v.101h.203v.101h.303v.102h.203v.1h.304v.102h.202v.101h.304v.102h.202v.101h.203v.101h.304v.101h.202v.102h.203v.101h.303v.101h.203v.102h.304v.101h.202v.101h.203v.102h.303v.1h.203v.102h.304v.101h.202v.102h.203v.1h.303v.102h.203v.102h.304v.1h.202v.102h.203v.101h.303v.102h.203v.1h.203v.102h.303v.102h.203v.1h.303v.102h.203v.101h.303v.102h.203v.1h.203v.102h.303v.102h.203v.1h.203v.102h.303v.101h.203v.102H183v.1h.203v.102h.203v.102h.303v.1h.203v.102h.303v.101h.203v.102h.203v.1h.303v.102h.203v.102h.303v.1h.203v.102h.202v.101h.304v.102h.203v.1h.303v.102h.203v.101h.202v.102h.304v.101h.203v.101h.202v.102h.304v.1h.202v.102h.304v.102h.203v.1h.202v.102h.304v.101h.202v.102h.304v.1h.203v.102h.202v.101h.304v.102h.202v.101h.304v.101h.203v.102h.202v.1h.304v.102h.202v.102h.203v.1h.304v.102h.202v.101h.304v.102h.202v.1h.304v.102h.203v.102h.202v.1h.304v.102h.202v.101h.203v.102h.304v.1h.202v.102h.304v.101h.202v.102h.203v.101h.304v.101h.202v.102h.304v.1h.202v.102h.203v.101h.304v.102h.202v.101h.304v.101h.202v.102h.203v.1h.304v.102h.202v.101h.203v.102h.303v.101h.203v.101h.304v.102h.202v.1h.304v.102h.202v.101h.203v.102h.303v.101h.203v.101h.203v.102h.303v.1h.203v.102h.303v.101h.203v.102h.203v.101h.303v.101h.203v.102h.303v.1h.203v.102h.203v.101h.303v.102h.203v.101h.303v.101h.101v-4.772h.101v-6.498h.101v-6.397h.101v-3.25h-.506v.102h-.506v.101h-.506v.101l-.009.052zM99.63 31.982h-.506v.102h-.507v.1h-.607v.102h-.506v.101h-.607v.102h-.506v.1h-.607v.102h-.507v.101h-.607v.102h-.506v.101h-.506v.101h-.607v.102h-.607v.1h-.506v.102h-.507v.102h-.607v.1h-.506v.102h-.607v.101h-.506v.102h-.607v.1h-.506v.102h-.608v.102h-.506v.1h-.607v.102h-.1v14.013h.1v-.102h.203v-.1h.1v-.102h.102v-.102h.202v-.1h.101v-.102h.101v-.101h.203v-.102h.1v-.1h.203v-.102h.101v-.101h.101v-.102h.203v-.101h.1v-.101h.102v-.102h.202v-.1h.101v-.102h.203v-.102h.1v-.1h.102V46.4h.202v-.101h.101v-.102h.101v-.1h.203v-.102h.1v-.101h.203v-.102h.101v-.101h.101v-.101h.203v-.102h.1v-.1h.102v-.102h.202v-.102h.101v-.1h.203v-.102h.1v-.101h.102v-.102h.202v-.1h.101v-.102h.203v-.102h.1v-.1h.102v-.102h.202v-.101h.101v-.102h.101v-.1h.203v-.102h.1v-.102h.203v-.1h.101v-.102h.101v-.101h.203v-.102h.1v-.1h.102v-.102h.202v-.102h.101v-.1h.203v-.102h.1v-.101h.102v-.102h.203v-.1h.1v-.102h.101v-.102h.203v-.1h.1v-.102h.204v-.101h.1v-.102h.101v-.1h.203v-.102h.1v-.102h.102v-.1h.203v-.102h.1v-.101h.203v-.102h.101v-.1h.1v-.102h.204v-.101h.1v-.102h.203v-.101h.101v-.101h.1v-.102h.204v-.1h.1v-.102h.101v-.101h.203v-.102h.101v-.101h.203v-.101h.1v-.102h.102v-.1h.202v-.102h.101v-.101h.101v-.102h.203v-.101h.1v-.101h.203v-.102h.101v-.1h.101v-.102h.203v-.101h.1v-.102h.102v-.101h.202V38.5h.101v-.102h.203v-.1h.101v-.102h.101v-.101h.202v-.102h.101v-.101h.203v-.101h.101v-.102h.101v-.1h.202v-.102h.101v-.101h.101v-.102h.203v-.101h.101v-.101h.202v-.102h.101v-.1h.101v-.102h.203v-.101h.101v-.102h.101v-.101h.202v-.101h.101v-.101h.203v-.102h.101v-.101h.101v-.101h.202v-.102h.101v-.101h.101v-.101h.203v-.102h.101v-.1h.202v-.102h.101v-.101h.101v-.102h.203v-.101h.101v-.101h.101v-.102h.202v-.1h.101v-.102h.203v-.101h.101v-.102h.101v-.101h.202v-.101h.101v-.102h.203v-.1h.101v-.102h.101v-.101h.202v-.102h.101v-.1h.101v-.102h.203v-.102h.101v-.1h.202v-.102h.101v-.101h.101v-.102h.203v-.1h.101v-.102h.101v-.102h.202v-.1h.101v-.102h.203v-.101h.101v-.102h.101v-.1h.202v-.102h.101v-.102h.101v-.1h.203v-.102h.101v-.101h.202v-.102h.101v-.1h.101v-.102h.203v-.102h.101v-.1h.101v-.102h.202v-.101h.101v-.102h.203v-.1h.101V30.7h.101v-.102h.202v-.1h.101v-.102h.203v-.101h.101v-.102h.101v-.1h.202v-.102h.101v-.102h.101v-.1h-.607v.1h-.506v.102h-.607v.101h-.506v.101h-.607v.102h-.507v.1h-.506v.102h-.607v.101h-.506v.102h-.607v.101h-.506v.101h-.607v.102h-.507v.1h-.607v.102h-.506v.101h-.607v.102h-.506v.101h-.607v.101h-.506v.102h-.507v.1h-.607v.102h-.607v.101l.018-.035zm12.243-2.233h.202v-.102h-.202v.102zm114.336 1.827v-.101h-.607v-.101h-.607v-.102h-.506v-.1h-.507v-.102h-.607v-.101h-.506v-.102h-.607v-.101h-.506v-.101h-.607v-.102h-.506v-.1h-.607v-.102h-.507v-.101h-.506v-.102h-.607v-.101h-.607v-.101h-.506v-.101h-.506v-.102h-.608v-.101h-.202v.101h.101v.102h.202v.1h.101v.102h.203v.101h.101v.102h.101v.1h.202v.102h.101v.101h.101v.102h.203v.101h.101v.101h.202v.102h.101v.1h.101v.102h.203v.101h.101v.102h.203v.101h.1v.101h.101v.102h.203v.1h.101v.102h.101v.101h.202v.102h.101v.101h.203v.101h.101v.102h.101v.1h.203v.102h.1v.101h.101v.102h.203v.101h.101v.101h.203v.102h.1v.1h.101v.102h.203v.101h.101v.102h.101v.101h.203v.101h.1v.102h.203v.1h.101v.102h.101v.101h.203v.102h.101v.101h.1v.101h.203v.102h.101v.1h.203v.102h.101v.101h.1v.102h.203v.101h.101v.101h.203v.101h.101v.102h.101v.101h.202v.101h.101v.102h.101v.101h.203v.101h.101v.102h.202v.1h.101v.102h.101v.101h.203v.102h.101v.101h.101v.101h.202v.102h.101v.1h.203v.102h.101v.101H226v.102h.202v.101h.101v.101h.101v.102h.203v.1h.101v.102h.202v.101h.101v.102h.101v.1h.203v.102h.101v.102h.101v.1h.202v.102h.101v.101h.203v.102h.101v.1h.101v.102h.202v.102h.101v.1h.203v.102h.101v.101h.101v.102h.202v.1h.101v.102h.101v.102h.203v.1h.101v.102h.202v.101h.101v.102h.101v.1h.203v.102h.101v.101h.101v.102h.202v.101h.101v.101h.203v.102h.101v.1h.101v.102h.202v.102h.101v.1h.101v.102h.203v.101h.101v.102h.202v.1h.101v.102h.101v.101h.203v.102h.101v.101h.202v.101h.101v.102h.101v.1h.203v.102h.101v.102h.101v.1h.202v.102h.101v.101h.203v.102h.101v.1h.101v.102h.202v.102h.101v.1h.101v.102h.203v.101h.101v.102h.202v.1h.101v.102h.101v.102h.203v.1h.101v.102h.101v.101h.202v.102h.101v.1h.203v.102h.101v.102h.101v.1h.202v.102h.101v.101h.101v.102h.203v.1h.101v.102h.203v.101h.1v.102h.101v.101h.203v.101h.101v.102h.203v.1h.1v.102h.101v.101h.203v.102h.101v.101h.101v.101h.203v.102h.1v.1h.203v.102h.101v.101h.101v.102h.203v.101h.1v.101h.101v.102h.203v.1h.101v.102h.203v.101h.101v.102h.1v.101h.203v.101h.101v.102h.101v.1h.203v.102h.1v.101h.203v.102h.101v.101h.101v.101h.203v.102h.101V34.377h-.203v-.101h-.506v-.102h-.607v-.1h-.507v-.102h-.506v-.102h-.607v-.1h-.506v-.102h-.607v-.101h-.506v-.102h-.607v-.1h-.507v-.102h-.607v-.101h-.506v-.102h-.607v-.101h-.506v-.101h-.607v-.102h-.506v-.1h-.507v-.102h-.607v-.101h-.506v-.102h-.607v-.101h-.506v-.101h-.607v-.102h-.507v-.1h-.607v-.102h-.506v-.101h-.607v-.102h-.506v-.101h-.506l.018.035zm-130.728-3.25h-.101v.102h.1v-.101zm137.204 0h-.101v.102h.101v-.101zm-96.428-1.522v.1h.608v.102h.404v.102h.506v.1h.506v.102h.507v.101h.506v.102h.506v.1h.506v.102h.405v.102h.506v.1h.506v.102h.506v.101h.506v.102h.506v.1h.507v.102h.506v.102h.506v.1h.506v.102h.405v.101h.506v.102h.506v.1h.506v.102h.506v.102h.507v.1h.506v.102h.506v.101h.506v.102h.405v.1h.506v.102h.506v.102h.506v.1h.506v.102h.506v.101h.507v.102h.404v.1h.607v.102h.405v.102h.506v.1h.506v.102h.506v.101h.506v.102h.507v.1h.506v.102h.404v.101h.506v.102h.507v.101h.506v.101h.506v.102h.506v.1h.506v.102h.507v.101h.303V16.941h-.101v.102h-.303v.101h-.405v.101h-.404v.102h-.405v.1h-.303v.102h-.405v.101h-.404v.102h-.304v.101h-.404v.101h-.405v.101h-.303v.102h-.405v.101h-.404v.101h-.405v.102h-.303v.101h-.405v.101h-.404v.102h-.304v.1h-.404v.102h-.405v.101h-.404v.102h-.304v.101h-.404v.101h-.405v.102h-.303v.1h-.405v.102h-.404v.101h-.405v.102h-.303v.101h-.405v.101h-.404v.102h-.304v.1h-.405v.102h-.404v.101h-.304v.102h-.404v.1h-.405v.102h-.303v.102h-.405v.1h-.404v.102h-.405v.101h-.303v.102h-.405v.1h-.404v.102h-.405v.102h-.303v.1h-.405v.102h-.404v.101h-.304v.102h-.404v.1h-.405v.102h-.303v.102h-.405v.1h-.404v.102h-.304v.101h-.404v.102h-.405v.1h-.404v.102h-.304v.101h-.404v.102h-.405v.101h-.404v.101h-.304v.102h-.404v.1h-.405v.102h-.303v.101h-.405v.102h-.404v.101h-.304v.101h-.404v.102h-.405v.1h-.303v.102h-.405v.101h-.404v.102h-.405v.101h-.303v.101h-.405v.102h-.404v.1h-.405v.102h-.303v.101h-.405v.102h-.404v.101h-.304v.101h-.404v.102h.101v.1h.506v.102h.506v.102h.506v.1h.506v.102h.405v.101h.506v.102h.506v.1h.506v.102h.507v.102h.506v.1h.506v.102h.404l-.026.038zm60.811-1.422v-.102h-.405v-.1h-.404v-.102h-.405v-.101h-.303v-.102h-.405v-.1h-.404v-.102h-.405v-.101h-.303v-.102h-.405v-.101h-.404v-.101h-.304v-.102h-.404v-.1h-.405v-.102h-.303v-.101h-.405v-.102H191v-.101h-.304v-.101h-.404v-.102h-.405v-.1h-.404v-.102h-.304v-.101h-.404v-.102h-.405v-.101h-.404v-.101h-.304v-.102h-.404v-.1h-.405v-.102h-.303v-.101h-.405v-.102h-.404v-.101h-.304v-.101h-.404v-.102h-.405v-.1h-.303v-.102h-.405v-.101h-.404v-.102h-.405v-.101h-.303v-.101h-.405v-.102h-.404v-.1h-.405v-.102h-.303v-.101h-.405v-.102h-.404v-.101h-.304v-.101h-.404v-.102h-.405v-.1h-.303v-.102h-.405v-.101h-.404v-.102h-.304v-.101h-.404v-.101h-.405v-.102h-.404v-.1h-.304v-.102h-.404v-.101h-.405v-.102h-.404v-.101h-.304v-.101h-.404v-.102h-.405v-.1h-.304V19h-.404v-.1h-.405v-.102h-.303v-.101h-.405v-.101h-.404v-.102h-.304v-.1h-.404v-.102h-.405v-.101h-.404v-.102h-.304v-.101h-.404v-.101h-.405v-.102h-.404v-.1h-.304v-.102h-.404v-.101h-.405v-.102h-.303v-.101h-.405v-.101h-.404v-.102h-.304v-.1h-.101v.1h-.101v15.028h.405v-.101h.506v-.101h.506V31.8h.507v-.1h.506v-.102h.404v-.101h.607v-.102h.405v-.101h.506v-.101h.506v-.102h.506v-.1h.506v-.102h.507v-.101h.506v-.102h.404v-.101h.507v-.101h.506v-.102h.506v-.1h.506v-.102h.506v-.102h.506v-.1h.507v-.102h.506v-.101h.404v-.102h.506v-.1h.507v-.102h.506v-.102h.506v-.1h.506v-.102h.506v-.101h.507v-.102h.506v-.1h.506v-.102h.404v-.102h.507v-.1h.506v-.102h.506v-.101h.506v-.102h.506v-.1h.506v-.102h.405v-.102h.607v-.1h.405v-.102h.506v-.101h.506v-.102h.506v-.1h.506v-.102h.506v-.102h.507v-.1h.404v-.102h.506v-.101h.506v-.102h.507v-.1h.506v-.102h.506v-.102h.506v-.1h.506v-.102h.507v-.101h.404v-.102h.506v-.1h.506v-.102h.507v-.101h.506v-.102h.506v-.101h.101v-.101h-.405v-.102h-.303l-.026-.037zm-78.214-11.068h-.203v.101h-.101v.102h-.202v.101h-.203v.101h-.101v.102h-.203v.1h-.202v.102h-.101v.101h-.203v.102h-.202v.101h-.101v.101h-.203v.102h-.202v.1h-.101v.102h-.203v.101h-.203v.102h-.101v.101h-.202v.101h-.203v.102h-.101v.1h-.202v.102h-.203v.101h-.101v.102h-.203v.101h-.202v.101h-.101v.102h-.203v.1h-.202v.102h-.101v.101h-.203v.102h-.203v.101h-.1v.101h-.203v.102h-.203v.1h-.101v.102h-.202v.101h-.203v.102h-.101v.101h-.202v.101h-.203v.102h-.101v.1h-.203v.102h-.202v.101h-.101v.102h-.203v.101h-.202v.101h-.101v.102h-.203v.1h-.203v.102h-.101v.101h-.202v.102h-.203v.101h-.101v.101h-.202v.102h-.203v.1h-.101v.102h-.203v.101h-.202v.102h-.101v.1h-.203v.102h-.202v.102h-.203v.1h-.101v.102h-.203v.101h-.202v.102h-.101v.1h-.203v.102h-.202v.101h-.101v.102h-.203v.101h-.203v.101h-.1v.102h-.203v.1h-.203v.102h-.101v.101h-.202v.102h-.203v.101h-.101v.101h-.202v.102h-.203v.1h-.101v.102h-.203v.101h-.202v.102h-.101v.101h-.203v.101h-.202v.102h-.101v.1h-.203v.102h-.203v.101h-.101v.102h-.202v.101h-.203v.101h-.101v.102h-.202v.1h-.203v.102h-.101v.102h-.203v.1h-.202v.102h-.101v.101h-.203v.102h-.202v.1h-.101v.102h-.203v.102h-.203v.1h-.1v.102h-.203v.101h-.203v.102h-.101v.1h-.202v.102h-.203v.102h-.101v.1h-.202v.102h-.203v.101h-.101v.102h-.203v.1h-.202v.102h-.101v.102h-.203v.1h-.202v.102h-.101v.101h-.203v.102h-.203v.1h-.1v.102h-.203v.102h-.203v.1h-.1v.102h-.203v.101h-.203v.102h-.1v.1h-.204v.102h-.202v.101h-.101v.102h-.203v.101h-.202v.101h-.101v.102h-.203v.1h-.203v.102h-.1v.101h.404v-.1h.607v-.102h.506v-.101h.608v-.102h.506v-.101h.607v-.101h.506v-.102h.607v-.1h.506v-.102h.506v-.101h.608v-.102h.506v-.101h.607v-.101h.506v-.102h.607v-.1h.506v-.102h.607v-.101h.507v-.102h.607v-.101h.506v-.101h.607v-.101h.506v-.102h.607v-.101h.506v-.101h.507v-.102h.607v-.101h.506v-.101h.607v-.101h.506v-.102h.607v-.101h.506v-.101h.608v-.102h.506v-.101h.607v-.101h.506v-.101h.607v-.102h.506v-.101h.507v-.101h.607v-.102h.506v-.1h.607v-.102h.506v-.101h.203V14.29l.006.024zm104.825 12.388v.1h.607v.102h.607v.101h.506v.102h.507v.101h.607v.101h.506v.102h.607v.1h.506v.102h.607v.101h.506v.102h.607v.101h.507v.101h.607v.102h.506v.1h.607v.102h.405v-.101h-.101v-.101h-.203v-.102h-.203v-.101h-.101v-.101h-.202v-.102h-.203v-.1h-.101v-.102h-.202v-.101h-.203v-.102h-.101v-.101h-.203v-.101h-.202v-.102h-.101v-.1h-.203v-.102h-.202v-.101h-.101V26.6h-.203v-.1h-.203v-.101h-.1v-.102h-.203v-.1h-.203v-.102h-.101v-.101h-.202v-.102h-.203v-.101h-.101v-.101h-.202v-.102h-.203v-.1h-.101v-.102h-.203v-.101h-.202v-.102h-.101v-.101h-.203v-.101h-.202v-.102h-.101v-.1h-.203v-.102h-.203v-.101h-.101v-.102h-.202v-.101h-.203v-.101h-.101v-.102h-.202v-.1h-.203v-.102h-.101v-.101h-.203v-.102h-.202v-.101h-.203v-.101h-.101v-.102h-.202v-.1h-.203v-.102h-.101v-.101h-.203v-.102h-.202v-.101h-.101v-.101h-.203v-.102h-.202v-.1h-.101v-.102h-.203v-.101h-.202v-.102h-.101v-.101h-.203v-.101h-.203v-.101h-.101v-.102h-.202v-.101h-.203v-.101h-.101v-.102h-.202v-.1h-.203v-.102h-.101v-.101h-.203v-.102h-.202v-.101h-.101v-.101h-.203v-.102h-.202v-.1h-.101v-.102h-.203v-.101h-.203v-.102h-.1v-.101h-.203v-.101h-.203v-.102h-.101v-.1h-.202v-.102h-.203v-.101h-.101v-.102h-.202v-.101h-.203v-.101h-.101v-.102h-.203v-.1h-.202v-.102h-.101v-.102h-.203v-.1h-.202v-.102h-.101v-.101h-.203V18.8h-.203v-.1h-.101v-.102h-.202v-.102h-.203v-.1h-.101v-.102h-.202v-.101h-.203v-.102h-.101v-.1h-.203v-.102h-.202v-.102h-.101v-.1h-.203v-.102h-.202v-.101h-.101v-.102h-.203v-.1h-.203v-.102h-.1v-.102h-.203v-.1h-.203v-.102h-.101v-.101h-.202v-.102h-.203v-.1h-.101v-.102h-.202v-.102h-.203v-.1h-.101v-.102h-.203v-.101h-.202v-.102h-.101v-.1h-.203v-.102h-.202v-.101h-.203v-.102h-.101v-.101h-.203v-.101h-.202v-.102h-.101v-.1h-.203v-.102h-.101v-.101h-.202v-.102h-.203v-.101h-.203v-.101h-.101v-.102h-.202v-.1h-.203v-.102h-.101v9.748h.203v.101h.506v.101h.506v.102h.607v.1h.507v.102h.607v.101h.506v.102h.607v.101h.506v.101h.607v.102h.506v.1h.608v.102h.506v.101h.607v.102h.506v.101h.506v.101h.607v.102h.506v.1h.608v.102h.506v.101h.607v.102h.506v.101h.607v.101h.506v.102h.607v.1h.507v.102h.506l.006-.024zm-43.812-10.459v.101h.404v.102h.405v.101h.404v.101h.304v.102h.404v.1h.405v.102h.303v.101h.405v.102h.404v.101h.405v.101h.303v.102h.405v.1h.404v.102h.304v.101h.404v.102h.405v.101h.404v.101h.304v.102h.404v.1h.405v.102h.303v.101h.405v.102h.404v.101h.304v.101h.404v.102h.405v.1h.404v.102h.304v.101h.404v.102h.405v.101h.304v.101h.404v.102h.404v.1h.405v.102h.304v.101h.404v.102h.405v.101h.303v.101h.405v.102h.404v.1h.304v.102h.404v.101h.405v.102h.303v.101h.405v.101h.404v.101h.405v.102h.303v.101h.405v.101h.404v.102h.405v.101h.303v.101h.405v.101h.404v.102h.304v.101h.404v.101h.405v.102h.303v.101h.405v.101h.404v.102h.304v.1h.404v.102h.405v.101h.404v.102h.304v.101h.404v.101h.304V12.875h-.81v.102h-1.214v.101h-1.214v.101h-1.215v.102h-1.113v.1h-1.315v.102h-1.113v.101h-1.215v.102h-1.214v.101h-1.214v.101h-1.214v.102h-1.214v.1h-1.215v.102h-1.113v.101h-1.214v.102h-1.315v.101h-1.114v.101h-1.214v.102h-1.214v.1h-1.214v.102h-1.215v.101h-1.214v.102h-1.113v.101h-1.214v.203h.404v.102h.405v.1h.303v.102h.405v.101h.404v.102h.304v.101h.404v.101h.405v.102h.303l.015.024zm-40.27-1.929v-.101h-1.316v-.101h-1.113v-.102h-1.214v-.101h-1.214v-.101h-1.215v-.102h-1.214v-.1h-1.214v-.102h-1.214v-.101h-1.114V13.3h-1.315v-.1h-1.214v-.101h-1.113v-.102h-1.214v-.1h-.911V23.05h.404v-.101h.304v-.102h.404v-.1h.405v-.102h.404v-.101h.304v-.102h.404v-.101h.405v-.101h.303v-.102h.405v-.1h.404v-.102h.405v-.102h.304v-.1h.404v-.102h.404v-.101h.304v-.102h.405v-.1h.404v-.102h.304v-.102h.404v-.1h.405v-.102h.404v-.101h.304v-.102h.404v-.1h.405v-.102h.303v-.101h.405v-.102h.404v-.101h.405v-.101h.303v-.102h.405v-.1h.404v-.102h.304v-.101h.404v-.102h.405v-.101h.404v-.101h.304v-.102h.404v-.1h.405V19.1h.303v-.101h.405v-.102h.404v-.101h.304v-.101h.404v-.102h.405v-.1h.303v-.102h.405v-.101h.404v-.102h.405v-.101h.303v-.101h.405v-.102h.404v-.1h.405v-.102h.303v-.101h.405v-.102h.404v-.101h.304v-.101h.404v-.102h.405v-.1h.303v-.102h.405v-.101h.404v-.102h.304v-.101h.404v-.101h.405v-.102h.404v-.1h.304v-.102h.404v-.101h.405v-.102h.404v-.101h.304v-.101h.404v-.101h.405v-.102h.303v-.101h.405v-.101h.404v-.102h.101v-.101h-1.315v-.101h-1.214v-.101h-1.113v-.102h-1.215v-.101h-1.214v-.101h-1.214v-.102h-1.214v-.101h-1.215v-.101h-1.214v-.102h-1.113l.015-.025zm8.397-3.655v.101h1.316v.101h1.113v.101h1.214v.102h1.214v.101h1.214v.101h1.215v.102h1.214v.101h1.214v.101h1.113v.101h1.316v.102h1.214v.101h.506V4.767h-.405v.1h-.607v.102h-.506v.101h-.506v.102h-.506v.101h-.506v.101h-.607v.102h-.507v.1h-.506v.102h-.506v.101h-.506v.102h-.506v.1h-.507v.102h-.607v.102h-.506v.1h-.506v.102h-.506v.101h-.506v.102h-.507v.1h-.506v.102h-.607v.102h-.506v.1h-.506v.102h-.506v.101h-.507V7.3h-.607v.1h-.506v.102h-.506v.101h-.506v.102h-.506v.101h-.507v.101h-.506v.102h-.506v.1h-.607v.102h-.506v.101h-.506v.102h-.507v.101h-.506v.101h-.506v.102h-.607v.1h-.506v.102h-.506v.101h-.507v.102h-.506v.101h-.506v.101h-.607v.102h-.506v.1h-.506v.102h-.507v.101h.911v.102h1.214v.101h1.114v.101h1.214v.102h1.214v.1h1.214v.102h1.214v.101h1.215v.102h1.214v.101h1.113l.009.018zm42.194-1.219v-.1h-.607v-.101h-.507v-.102h-.506v-.1h-.506v-.102h-.506v-.102h-.607v-.1h-.506V8.63h-.507v-.101h-.506v-.102h-.506v-.1h-.506v-.102h-.506v-.101h-.607v-.102h-.507v-.101h-.506V7.82h-.506v-.102h-.506v-.1h-.506v-.102h-.607v-.101h-.507v-.102h-.506v-.101h-.506V7.11h-.506v-.102h-.506v-.1h-.607v-.102h-.507v-.101h-.506v-.102h-.506v-.101h-.506v-.101h-.506V6.3h-.506v-.1h-.608v-.102h-.506v-.101h-.506v-.102h-.506v-.101h-.506v-.101h-.507V5.59h-.607v-.1h-.506v-.102h-.506v-.101h-.506v-.102h-.506v-.101h-.507v-.101h-.607v-.102h-.506v-.1h-.506v7.107h.607v-.102h1.315v-.1h1.114v-.102h1.214v-.102h1.214v-.1h1.214v-.102h1.214v-.101h1.215v-.102h1.113v-.1h1.214v-.102h1.315v-.101h1.114v-.102h1.214v-.101h1.214v-.101h1.214v-.102h1.214v-.1h1.215v-.102h1.214v-.101h1.113v-.102h1.315v-.101h1.114v-.101h.91V9.66h-.506v-.1h-.506v-.102h-.506l.01-.018zM168.534.81v.1h.608v.102h.506v.101h.506v.102h.506v.1h.506v.102h.607v.101h.507v.102h.506v.101h.506v.101h.506v.102h.506v.1h.506v.102h.608v.102h.506v.1h.506v.102h.506v.101h.506v.102h.506v.1h.608v.102h.506v.101h.506v.102h.506v.101h.506v.101h.506v.102h.507v.1h.607v.102h.506v.101h.506v.102h.506v.101h.506v.101h.507v.102h.506v.1h.607v.102h.506v.101h.506v.102h.506v.101h.507v.101h.607v.102h.506v.1h.506v.102h.506v.101h.506v.102h.507v.101h.506v.101h.607v.102h.506v.1h.506v.102h.506v.101h.507v.102h.506v.101h.607v.101h.506v.102h.506v.1h.506v.102h.507v.101h.506v.102h.506v.101h.607v.101h.506v.102h.506v.1h.507v.102h.506v.101h.506v.102h.506v.101h.607v.101h.506v.102h.507v.1h.506v.102h.506V7.9h.607v.102h.506v.101h.506v.101h.507v.102h.506v.1h.506v.102h.304v.101h.303v.102h.101v.101h.203v.101h.101v.102h.202v.1h.203v.102h.101v.101h.202v.102h.203v.101h.101v.101h.203v.102h.202v.1h.101v.102h.203v.101h.202v.102h.101v.101h.203v.101h.203v.102h.101v.1h.202v.102h.203v.101h.101v.102h.202v.101h.203v.101h.101v.102h.203v.1h.202v.102h.101v.101h.203v.102h.202v.101h.101v.101h.203v.102h.203v.1h.1v.102h.203v.101h.203v.102h.101v.101h.202v.101h.203v.101h.101v.102h.202v.101h.203v.101h.101v.102h.203v.101h.202v.101h.101v.101h.203v.102h.202v.101h.101v.101h.203v.102h.203v.101h.101v.101h.202v.101h.203v.102h.101v.101h.202v.101h.203v.102h.101v.101h.202v.101h.203v.101h.101v.102h.203v.101h.202v.101h.101v.102h.203v.1h.202v.102h.101v.102h.203v.1h.203v.102h.101v.101h.202v.102h.203v.1h.101v.102h.202v.102h.203v.1h.101v.102h.203v.101h.202v.102h.101v.1h.203v.102h.202v.102h.101v.1h.203v.102h.203v.101h.1v.102h.203v.1h.203v.102h.101v.101h.202v.102h.203v.101h.101v.101h.202v.102h.203v.1h.101v.102h.203v.101h.202v.102h.101v.101h.203v.101h.202v.102h.101v.1h.203v.102h.203v.101h.101v.102h.202v.101h.203v.101h.101v.102h.202v.1h.203v.102h.101v.101h.203v.102h.202v.101h.101v.101h.203v.102h.202v.1h.101v.102h.203v.102h.203v.1h.1v.102h.203v.101h.203v.102h.101v.1h.202v.102h.203v.102h.101v.1h.202v.102h.203v.101h.101v.102h.203v.1h.202v.102h.203v.102h.101v.1h.202v.102h.203v.101h.101v.102h.203v.1h.202v.102h.101v.102h.203v.1h.202v.102h.101v.101h.203v.102h.203v.1h.101v.102h.202v.101h.203v.102h.101v.101h.202v.101h.203v.102h.101v.1h.203v.102h.202v.101h.101v.102h.203v.101h.202v.101h.101v.102h.203v.1h.202v.102h.101v.101h.203v.102h.203v.101h.101v.101h.202v.102h.203v.1h.101v.102h.202v.101h.203v.102h.101v.101h.203v.101h.202v.102h.101v.1h.203v.102h.202v.101h.101v.102h.203v.101h.203v.101h.101v.102h.202v.1h.203v.102h.101v.101h.202v.102h.203v.101h.101v.101h.202v.101h.203v.102h.101v.101h.203v.101h.202v.102h.101v.101h.203v.101h.202v.101h.101v.102h.203v.101h.203v.101h.101v.102h.202v.101h.203v.101h.101v.101h.202v.102h.203v.101h.101v.101h.203v.102h.202v.101h.101v.101h.203v.101h.202v.102h.101v.101h.203v.101h.203v.102h.1v.101h.203v.101h.203v.102h.101v.1h.202v.102h.203v.101h.101v.102h.202v.1h.203v.102h.101v.102h.203v.1h.101v.102h.202v.101h.101v.204h.101v.101h.101v.101h.101v.204h.101v.304h.101v.406h.101v62.954h-.101v.508h-.101v.203h-.101v.204h-.101v.1h-.101v.204h-.101v.102h-.101v.1h-.101v.102h-.202v.101h-.203v.102h-.203v.101h-.303v.101h-.911v-.101h-.303v-.101h-.203v-.102h-.203v-.1h-.101v-.102h-.1v-.102h-.101v-.1h-.101v-.102h-.101v-.101h-.101v-.102h-.101v-.1h-.101v-.102h-.101v-.102h-.101v-.1h-.101v-.204h-.101v-.101h-.101v-.102h-.101v-.1h-.101v-.102h-.101v-.102h-.1v-.1h-.101v-.204h-.101v-.101h-.101v-.102h-.101v-.101h-.101v-.101h-.101v-.102h-.101v-.1h-.101v-.204h-.101v-.101h-.101v-.102h-.101v-.101h-.101v-.101h-.101v-.102h-.1v-.1h-.101v-.204h-.101v-.102h-.101v-.1h-.101v-.102h-.101v-.101h-.101v-.102h-.101v-.1h-.101v-.204h-.101v-.102h-.101v-.1h-.101v-.102h-.101v-.101h-.101v-.102h-.1v-.101h-.101v-.101h-.101v-.204h-.101v-.1h-.101v-.102h-.101v-.102h-.101v-.1h-.101v-.102h-.101v-.101h-.101v-.204h-.101v-.1h-.101v-.102h-.101V90.3h-.101v-.1h-.101v-.102h-.1v-.101h-.101v-.204h-.101v-.101h-.101v-.101h-.101v-.102h-.101v-.1h-.101v-.102h-.101v-.101h-.101v-.204h-.101v-.101h-.101v-.101h-.101v-.102h-.101v-.1h-.101v-.102h-.1v-.101h-.101v-.204h-.101v-.101h-.101v-.101h-.101v-.102h-.101v-.1h-.101v-.102h-.101v-.102h-.101v-.203h-.101v-.101h-.101v-.101h-.101v-.102h-.101v-.101h-.101v-.101h-.1v-.102h-.101v-.1h-.101v-.204h-.101v-.101h-.101v-.102h-.101v-.101h-.101v-.101h-.101v-.102h-.101v-.1h-.101v-.204h-.101v-.102h-.101v-.1h-.101v-.102h-.101v-.101h-.101v-.102h-.1v-.1h-.101v-.204h-.101v-.102h-.101v-.1h-.101v-.102h-.101v-.101h-.101v-.102h-.101v-.101h-.101v-.203h-.101v-.102h-.101v-.1h-.101v-.102h-.101v-.101h-.101v-.102h-.1v-.101h-.101v-.203h-.101v-.102h-.101v-.1h-.101V82.9h-.101v-.102h-.101v-.1h-.101v-.102h-.101v-.203h-.101v-.102h-.101v-.101h-.101v-.101h-.101v-.102h-.101v-.1h-.1v-.102h-.101v-.203h-.101v-.102h-.101v-.101h-.101v-.101h-.101v-.102h-.101v-.1h-.101v-.102h-.101v-.101h-.101v-.204h-.101v-.101h-.101v-.101h-.101v-.102h-.101v-.1h-.1v-.102h-.101v-.102h-.101v-.203h-.101v-.101h-.101v-.101h-.101v-.102h-.101v-.1h-.101v-.102h-.101v-.102h-.101v-.203h-.101v-.101h-.101v-.101h-.101v-.102h-.101v-.101h-.101v-.101h-.1v-.102h-.101v-.203h-.101v-.101h-.101v-.102h-.101v-.1h-.101v-.102h-.101v-.101h-.101v-.102h-.101v-.203h-.101v-.101h-.101v-.102h-.101v-.1h-.101v-.102h-.101v-.101h-.1v-.102h-.101v-.203h-.101v-.101h-.101v-.102h-.101v-.1h-.101v-.102h-.101v-.101h-.101v-.102h-.101v-.203h-.101v-.101h-.101V75.6h-.101v-.1h-.101v-.102h-.101v-.102h-.1v-.1h-.101v-.102h-.101v-.203h-.101v-.102h-.101v-.1h-.101v-.102h-.101v-.101h-.101v-.102h-.101v-.101h-.101v-.203h-.101v-.102h-.101v-.101h-.101v-.101h-.101v-.102h-.101v-.1h-.1v-.102h-.101v-.204h-.101v-.1h-.101v-.102h-.101v-.101h-.101v-.102h-.101v-.1h-.101v-.102h-.101v-.204h-.101v-.1h-.101v-.102h-.101v-.101h-.101v-.102h-.101v-.1h-.1v-.102h-.101v-.204h-.101v-.1h-.101v-.102h-.101v-.101h-.101v-.102h-.101v-.101h-.101v-.101h-.101v-.204h-.101v-.1h-.101v-.102h-.101v-.101h-.101v-.102h-.101v-.101h-.1v-.101h-.101v-.102h-.101v-.203h-.101v-.101h-.101v-.101h-.101v-.102h-.101v-.101h-.101v-.101h-.101v-.102h-.101v-.203h-.101v-.101h-.101v-.102h-.101v-.1h-.101v-.102h-.101v-.101h-.1v-.102h-.101v-.203h-.101V68.2h-.101v-.102h-.101V68h-.101v-.102h-.101v-.101h-.101v-.102h-.101v-.203h-.101v-.101h-.101v-.102h-.101v-.1h-.101v-.102h-.101v-.102h-.1v-.1h-.101v-.204h-.101v-.101h-.101v-.102h-.101v-.101h-.101v-.101h-.101v-.102h-.101v-.1h-.101v-.204h-.101v-.101h-.101v-.102h-.101v-.101h-.101v-.101h-.101v-.102h-.1v-.1h-.101v-.204h-.101v-.102h-.101v-.1h-.101v-.102h-.101v-.101h-.101v-.102h-.101v-.1h-.101v-.102h-.101v-.204h-.101v-.1h-.101v-.102h-.101v-.101h-.101v-.102h-.1v-.1h-.101v-.102h-.101v-.204h-.101v-.1h-.101v-.102h-.101v-.101h-.101v-.102h-.101v-.101h-.101v-.101h-.101v-.204h-.101v-.1h-.101v-.102h-.101v-.102h-.101v-.1h-.101v-.102h-.1v-.101h-.101v-.204h-.101v-.1h-.101v-.102h-.101v-.102h-.101v-.1h-.101v-.102h-.101v-.101h-.101V60.9h-.101v-.1h-.101v-.101h-.101v-.102h-.101v-.1h-.101v-.102h-.1v-.101h-.101v-.204h-.101v-.101h-.101v-.101h-.101v-.102h-.101v-.1h-.101v-.102h-.101v-.102h-.101v-.203h-.101v-.101h-.101v-.101h-.101v-.102h-.101v-.1h-.101v-.102h-.1v-.102h-.101v-.1h-.101v-.204h-.101v-.101h-.101v-.102h-.101v-.101h-.101v-.101h-.101v-.102h-.101v-.1h-.101v-.204h-.101v-.101h-.101v-.102h-.101v-.101h-.101v-.101h-.101v-.102h-.1v-.1h-.101v-.204h-.101v-.101h-.101v-.102h-.101v-.101h-.101v-.101h-.101v-.102h-.101v-.1h-.101v-.204h-.101v-.101h-.101v-.102h-.101v-.101h-.101v-.101h-.101v-.102h-.1v-.101h-.101v-.203h-.101v-.102h-.101v-.1h-.101v-.102h-.101v-.101h-.101v-.102h-.101v-.101h-.101v-.101h-.101v-.102h-.202v-.1h-.304v-.102h-.203v-.101h-.202v-.102h-.304v-.101h-.202v-.101h-.304v-.102h-.203v-.1h-.202V53.4h-.304v-.1h-.202v-.102h-.304v-.101h-.203v-.101h-.202v-.102h-.304v-.1h-.202v-.102h-.203v-.101h-.304v-.102h-.202v-.101h-.304v-.101h-.202v-.102h-.304v-.1h-.203v-.102h-.202v-.101h-.304v-.102h-.202v-.101h-.203v-.101h-.304v-.102h-.202v-.1h-.304v-.102h-.202v-.101h-.203v-.102h-.304v-.101h-.202v-.101h-.304v-.102h-.202v-.1h-.203v-.102h-.304v-.101h-.202v-.102h-.304v-.101h-.202v-.101h-.203v-.101h-.304v-.102h-.202v-.101h-.304v-.101h-.202v-.102h-.203v-.101h-.304v-.101h-.202v-.102h-.203v-.1h-.303v-.102h-.203v-.101h-.303v-.102h-.203v-.101h-.203v-.101h-.303v-.101h-.203v-.102h-.303v-.101h-.203v-.101h-.203v-.102h-.303v-.101h-.203v-.101h-.303v-.102h-.203v-.1h-.203v-.102h-.303v-.101h-.203v-.102h-.203v-.1h-.303v-.102h-.203v-.102h-.303v-.1h-.203v-.102h-.303v-.101h-.203v-.102h-.203v-.1h-.303v-.102h-.203v-.102h-.202v-.1h-.304v-.102h-.203v-.101h-.303v-.102h-.203v-.1h-.202v-.102h-.304v-.102h-.203v-.1h-.303v-.102h-.203V45.5h-.202v-.102h-.304v-.1h-.203v-.102h-.303v-.102h-.203v-.1h-.202v-.102h-.304v-.101h-.203v-.102h-.202v-.1h-.304v-.102h-.202v-.102h-.304v-.1h-.203v-.102h-.303v-.101h-.203v-.102h-.202v-.1h-.304v-.102h-.203v-.102h-.202v-.1h-.304v-.102h-.202v-.101h-.304v-.102h-.203v-.1h-.202v-.102h-.304v-.102h-.202v-.1h-.304v-.102h-.203v-.101h-.202v-.102h-.304v-.1h-.202v-.102h-.304v-.101h-.203v-.102h-.202v-.101h-.304v-.101h-.202v-.102h-.304v-.1h-.203v-.102h-.202v-.102h-.304v-.1h-.202v-.102h-.203v-.101h-.303v-.102h-.203v-.1h-.304v-.102h-.202v-.101h-.203v-.102h-.303v-.101h-.203v-.101h-.304v-.102h-.202v-.1h-.203v-.102h-.303v-.102h-.203v-.1h-.304v-.102h-.202v-.101h-.203v-.102h-.303v-.1h-.203v-.102h-.203v-.101h-.303v-.102h-.203v-.101h-.303v-.101h-.203v-.102h-.304v-.1h-.202v-.102h-.203v-.101h-.303v-.102h-.203v-.101h-.203v-.101h-.303v-.102h-.203v-.1h-.303v-.102h-.203v-.101h-.203v-.102h-.303v-.101h-.203v-.101h-.303V37.6h-.203v-.1h-.203v-.102h-.303v-.101h-.203v-.102h-.303v-.101h-.405v.101h-.202v.102h-.203v.1h-.304v.102h-.202v.101h-.304v.102h-.202v.101h-.203v.101h-.304v.102h-.202v.1h-.203v.102h-.303v.101h-.203v.102h-.304v.101h-.202v.101h-.203v.102h-.303v.1h-.203v.102h-.304v.101h-.202v.102h-.203v.101h-.303v.101h-.203v.102h-.304v.1h-.202v.102h-.203v.101h-.303v.102h-.203v.101h-.304v.101h-.202v.102h-.203v.1h-.303v.102h-.203v.101h-.203v.102h-.303v.101h-.203v.101h-.303v.102h-.203v.1h-.304v.102h-.202v.101h-.203v.102h-.303v.101h-.203v.101h-.203v.102h-.303v.1h-.203v.102h-.303v.101h-.203v.102h-.203v.101h-.303v.101h-.203v.102h-.303v.1h-.203v.102h-.203v.101h-.303v.102h-.203v.101h-.303v.101h-.203v.102h-.203v.1h-.303v.102h-.203v.101h-.202v.102h-.304v.1h-.203v.102h-.303v.102h-.203v.1h-.303v.102h-.203v.101h-.203v.102h-.303v.1h-.203v.102h-.202v.102h-.304v.1h-.203v.102h-.303v.101h-.203v.102h-.202v.1h-.304v.102h-.202v.102h-.304v.1h-.203v.102h-.202v.101h-.304v.102h-.202v.1h-.304v.102h-.203v.101h-.202v.102h-.304v.101h-.202v.101h-.203v.102h-.304v.1h-.202v.102h-.304v.102h-.202v.1h-.203v.102h-.304v.101h-.202v.102h-.304v.1h-.202v.102h-.203v.101h-.304v.102h-.202v.101h-.304v.101h-.202v.102h-.203v.1h-.304v.102h-.202v.102h-.304v.1h-.202v.102h-.203v.101h-.304v.102h-.202v.1h-.304v.102h-.202v.102h-.203v.1h-.304v.102h-.202v.101h-.203v.102h-.303v.1h-.203v.102h-.304v.102h-.202v.1h-.203v.102h-.303v.101h-.203v.102h-.304v.1h-.202v.102h-.203v.102h-.303v.1h-.203v.102h-.304v.101h-.202v.102h-.203v.1h-.303v.102h-.203v.102h-.303v.1h-.203v.102h-.203v.101h-.303v.102h-.203v.1h-.203v.102h-.303v.101h-.203v.102h-.303v.101h-.203v.101h-.303v.102h-.203v.1h-.203v.102h-.303v.101h-.203v.102h-.203v.101h-.303v.101h-.203v.102h-.303v.1h-.203v.102h-.203v.101h-.303v.102h-.203v.101h-.303v.101h-.203v.102h-.202v.1h-.304v.102h-.203v.101h-.303v.102h-.203v.101h-.202v.101h-.304v.102h-.203v.1h-.202v.102h-.304v.101h-.202v.102h-.203v.203h-.101v.101h-.101v.102h-.101v.1h-.101v.102h-.101v.102h-.101v.1h-.101v.204h-.101v.101h-.1v.102h-.101v.1h-.101v.102h-.101v.102h-.101v.1h-.101v.204h-.101v.101h-.101v.102h-.101v.101h-.101v.101h-.101v.102h-.101v.1h-.101v.204h-.101v.102h-.1v.1h-.101v.102h-.101v.101h-.101v.102h-.101v.1h-.101v.204h-.101v.102h-.101v.1h-.101v.102h-.101v.101h-.101v.102h-.101v.1h-.101v.204h-.101v.102h-.101v.1h-.1v.102h-.101v.101h-.101v.102h-.101v.101h-.101v.101h-.101v.204h-.101v.1h-.101v.102h-.101v.102h-.101v.1h-.101v.102h-.101v.101h-.101v.204h-.101v.1h-.1v.102h-.101v.102h-.101v.1h-.101v.102h-.101v.101h-.101v.204h-.101v.101h-.101v.101h-.101v.102h-.101v.1h-.101v.102h-.101v.101h-.101v.204h-.101v.101h-.1v.101h-.101v.102h-.101v.1h-.101v.102h-.101v.101h-.101v.204h-.101v.101h-.101v.101h-.101v.102H115v.1h-.101v.102h-.101v.102h-.101v.203h-.101v.101h-.1v.101h-.101v.102h-.101v.101h-.101v.101h-.101v.102h-.101v.203h-.101v.101h-.101v.101h-.101v.102h-.101v.101h-.101v.101h-.101v.102h-.101v.1h-.101v.204h-.101v.102h-.1v.1h-.101v.102h-.101v.101h-.101v.102h-.101v.1h-.101v.204h-.101v.101h-.101v.102h-.101v.101h-.101v.101h-.101v.102h-.101v.101h-.101v.203h-.101v.102h-.1v.1h-.101v.102h-.101v.101h-.101v.102h-.101v.101h-.101v.203h-.101v.102h-.101v.1h-.101v.102h-.101v.102h-.101v.1h-.101v.102h-.101v.203h-.101v.102h-.1v.101h-.101v.101h-.101v.102h-.101v.1h-.101v.102h-.101v.203h-.101v.102h-.101v.101h-.101v.101h-.101v.102h-.101v.1h-.101v.102h-.101v.101h-.101v.204h-.101v.101h-.1v.101h-.101v.102h-.101v.1h-.101v.102h-.101v.102h-.101v.203h-.101v.101h-.101v.101h-.101v.102h-.101v.1h-.101v.102h-.101v.102h-.101v.203h-.101v.101h-.1v.101h-.101v.102h-.101v.101h-.101v.101h-.101v.102h-.101v.203h-.101v.101h-.101v.102h-.101v.1h-.101v.102h-.101v.101h-.101v.102h-.101v.203h-.101v.101h-.1v.102h-.101v.1h-.101v.102h-.101v.101h-.101v.102h-.101v.203h-.101v.101h-.101v.102h-.101v.1h-.101v.102h-.101v.101h-.101v.102h-.101v.203h-.101v.101h-.101v.102h-.1v.1h-.101v.102h-.101v.102h-.101v.1h-.101v.102h-.101v.203h-.101v.102h-.101v.1h-.101v.102h-.101v.102h-.101v.1h-.101v.102h-.101v.203h-.101v.102h-.1v.101h-.101v.101h-.101v.102h-.101v.1h-.101v.102h-.101v.203h-.101v.102h-.101v.101h-.101v.101h-.101v.102h-.101v.1h-.101v.102h-.101v.204h-.101v.1h-.1v.102h-.101v.101h-.101v.102h-.101v.1h-.101v.102h-.101v.203h-.101v.102h-.101v.101h-.101v.101h-.101v.102h-.101v.101h-.101v.101h-.101v.204h-.101v.1h-.1v.102h-.101v.101h-.101v.102h-.101v.101h-.101v.101h-.101v.102h-.101v.203h-.101v.101h-.1v.102h-.102v.1h-.1v.102h-.102v.101h-.1v.102h-.102v.203h-.1v.101h-.101v.102h-.101v.1h-.101v.102h-.101v.101h-.101v.102h-.101v.203h-.101v.101h-.101v.102h-.1v.1h-.102v.102h-.1v.101h-.102v.102h-.1v.203h-.101v.101h-.102v.102h-.1v.1h-.101v.102h-.101v.101h-.101v.102h-.101v.203h-.101v.101h-.101v.102h-.1v.101h-.102v.101h-.1v.102h-.102v.1h-.1v.204h-.102v.101h-.1v.102h-.101v.101h-.101v.101h-.101v.102h-.101v.1h-.101v.204h-.101v.102h-.101v.1h-.1v.102h-.102v.101h-.1v.102h-.102v.1h-.1v.102h-.102v.204h-.1v.1h-.101v.102h-.101v.101h-.101v.102h-.101v.1h-.101v.102h-.101v.204h-.101v.1h-.1v.102H93.4v.101h-.1v.102h-.102v.101h-.1v.101h-.102v.204h-.1v.1h-.102v.102h-.1v.101h-.101v.102h-.101v.101h-.101v.101h-.101v.204h-.101v.1h-.101v.102h-.1v.102h-.102v.1h-.1v.102h-.102v.101h-.1v.204h-.102v.101h-.1v.101h-.101v.102h-.101v.1h-.101v.102h-.101v.101h-.101v.204h-.101v.101h-.101v.101h-.1v.102h-.102v.1h-.1v.102h-.102v.101h-.1v.204h-.102v.101h-.1v.101h-.101v.102h-.101v.1h-.101v.102h-.101v.102h-.101v.1h-.101v.204h-.101v.101h-.1v.102h-.102v.101h-.1v.101h-.102v.102h-.1v.1h-.102v.204h-.1v.102h-.101v.1h-.101v.102h-.101v.101h-.101v.102h-.101v.1h-.101v.204h-.101v.102h-.101v.1h-.1v.102h-.102v.101h-.1v.102h-.102v.1h-.1v.204h-.102v.102h-.1v.1h-.101v.102h-.101v.101h-.101v.102h-.101v.101h-.101v.203h-.101v.102h-.101v.1h-.1v.102h-.102v.101h-.1v.102h-.102v.101h-.1v.101h-.102v.102h-.1v.1h-.101v.102h-.203v.101h-.203v.102h-.303v.101h-.91v-.101h-.405v-.102h-.203v-.1h-.1v-.102h-.204v-.101h-.1v-.102h-.101v-.101h-.101v-.101h-.101v-.204h-.101v-.203h-.101v-.203h-.101v-.406h-.101V32.212h.1v-.406h.102v-.204h.1V31.4h.102v-.203h.1v-.102h.102v-.1h.1v-.102h.203v-.101h.101v-.102h.203v-.101h.1v-.101h.203v-.102h.203v-.1h.1v-.102h.203v-.101h.203v-.102h.101v-.101h.203v-.101h.202v-.102h.101v-.1h.203v-.102h.202v-.101h.101v-.102h.203v-.101h.203v-.101h.1v-.102h.203v-.1h.203v-.102h.1v-.101h.203v-.102h.203v-.101h.1v-.101h.204v-.102h.202v-.1h.101v-.102h.203v-.101h.202v-.102h.101v-.101h.203v-.101h.203v-.102h.1v-.1h.203v-.102h.203v-.101h.1v-.102h.203v-.101h.203v-.101h.1v-.102h.203v-.1h.203v-.102h.101v-.101h.203v-.102h.202v-.101h.101v-.101h.203v-.102h.202v-.1h.101v-.102h.203v-.101h.203v-.102h.1v-.101h.203v-.101h.203v-.102h.1v-.1h.203v-.102h.203v-.101h.1v-.102h.204v-.1h.202v-.102h.101v-.102h.203v-.1h.202v-.102h.101v-.101h.203v-.102h.203v-.1h.1v-.102h.203v-.102h.203v-.1h.1v-.102h.203V23.7h.203v-.102h.1v-.1h.203v-.102h.203v-.101h.1v-.102h.204v-.101h.202v-.101h.101v-.102h.203v-.1h.202v-.102h.101v-.101h.203v-.102h.203v-.101h.1v-.101h.203v-.102h.203v-.1h.1v-.102h.203v-.101h.203v-.102h.1v-.101h.203v-.101h.203v-.102h.101v-.1h.203v-.102h.202v-.101h.101v-.102h.203v-.101h.202v-.101h.101v-.102h.203v-.1h.203v-.102h.101v-.102h.202v-.1h.203v-.102h.101v-.101h.202v-.102h.203v-.1h.101v-.102h.203v-.102h.202v-.1h.101v-.102h.203v-.101h.202v-.102h.101v-.1h.203v-.102h.203v-.102h.1v-.1h.203v-.102h.203v-.101h.101v-.102h.202v-.1h.203v-.102h.101v-.102h.202v-.1h.203v-.102h.101v-.101h.203v-.102h.202v-.1h.101v-.102h.203v-.102h.202v-.1h.101v-.102h.203v-.101h.203v-.102h.101v-.1h.202v-.102h.203v-.101h.101v-.102h.202v-.101h.203v-.101h.101v-.102h.203v-.1h.202v-.102h.101v-.101h.203v-.102h.202v-.101h.101v-.101h.203V15.8h.202v-.1h.101v-.102h.203v-.101h.203v-.102h.101v-.101h.202v-.101h.203v-.102h.101v-.1h.202v-.102h.203v-.101h.101v-.102h.203v-.101h.202v-.101h.101v-.102h.203v-.1h.202v-.102h.101v-.101h.203v-.102h.203v-.101h.101v-.101h.202v-.102h.203v-.1h.101v-.102h.202v-.101h.203v-.102h.101v-.101h.202v-.101h.203v-.102h.101v-.1h.203v-.102h.202v-.101h.101v-.102h.203v-.101h.202v-.101h.101v-.101h.203v-.102h.203v-.101h.101v-.101h.202v-.102h.203v-.101h.101v-.101h.202v-.101h.203v-.102h.101v-.101h.203v-.101h.202v-.102h.101v-.101h.203v-.101h.202v-.101h.101v-.102h.203v-.101h.203v-.101h.1v-.102h.203v-.101h.203v-.101h.101v-.101h.202v-.102h.203v-.101h.101v-.101h.202v-.102h.203v-.101h.101v-.101h.203v-.102h.202v-.1h.101v-.102h.203v-.101h.202v-.102h.101v-.1h.203v-.102h.203V8.71h.101v-.1h.202v-.102h.405v-.101h.506v-.102h.506v-.1h.506v-.102h.506v-.101h.507V7.9h.506v-.1h.607v-.101h.506v-.102h.506v-.1h.506v-.102h.507v-.101h.506V7.19h.607v-.1h.506v-.101h.506v-.102h.506v-.1h.507v-.102h.506v-.101h.607v-.102h.506v-.101h.506V6.28h.506v-.102h.507v-.1h.506v-.102h.506v-.101h.607v-.102h.506v-.101h.506V5.57h.507v-.102h.506v-.1h.607v-.102h.506v-.101h.506v-.102h.506v-.101h.507v-.101h.506V4.76h.506v-.1h.506v-.102h.607v-.101h.506v-.102h.507v-.101h.506v-.101h.506V4.05h.506v-.1h.607v-.102h.506v-.101h.507v-.102h.506v-.101h.506v-.101h.506v-.102h.607v-.1h.506V3.14h.507v-.101h.506v-.102h.506v-.101h.506v-.101h.506v-.102h.607v-.1h.507V2.43h.506v-.1h.506v-.102h.506v-.101h.607v-.101h.506v-.102h.507v-.1h.506v-.102h.506V1.62h.506v-.102h.506v-.101h.507v-.101h.607v-.102h.506v-.1h.506v-.102h.506v-.1h.506V.81h.507v-.1h.607V.608h.506V.506h.506v-.1h.506V.303h.506v-.1h.507V.1h.506V0h.91v.101h.507v.102h.506v.1h.506v.102h.506v.101h.506v.102h.506v.101h.507V.81h.506-.207z" fill="#D5B378"/></mask><g mask="url(#mask0_1215_2087)"><path d="M164-7.669h-323.281v396.432H164V-7.669z" fill="#D5B378"/></g></svg>