<svg width="164" height="98" viewBox="0 0 164 98" fill="none" xmlns="http://www.w3.org/2000/svg"><path d="M59.84 55.793l44.137 31.76m-44.158-.029l44.179-31.7" stroke="#FEFEFE" stroke-width="1.77" stroke-miterlimit="2.613"/><path fill-rule="evenodd" clip-rule="evenodd" d="M129.538 54.807h30.376v34.778h-.101v-.102h-.101v-.101h-.101v-.102h-.101v-.203h-.101v-.102h-.101v-.101h-.101v-.102h-.101v-.101h-.101v-.102h-.101v-.101h-.101v-.204h-.101v-.101h-.101v-.102h-.101v-.1h-.101v-.102h-.101v-.102h-.101v-.101h-.101v-.102h-.101v-.203h-.101v-.102h-.101v-.101h-.101v-.102h-.101v-.101h-.101v-.101h-.101v-.102h-.101v-.204h-.101v-.1h-.101v-.102h-.101v-.102h-.101v-.101h-.101v-.102h-.101v-.101h-.101v-.204h-.101v-.101h-.101v-.102h-.101v-.101h-.101v-.102h-.101v-.1h-.101v-.102h-.101v-.204h-.101v-.101h-.101v-.102h-.101v-.101h-.101v-.102h-.101v-.101h-.101v-.102h-.101v-.203h-.101V84h-.101v-.1h-.101v-.102h-.101v-.101h-.101v-.101h-.101v-.102h-.101v-.203h-.101v-.102h-.101v-.101h-.101v-.102h-.101v-.101h-.101v-.102h-.101v-.101h-.101v-.102h-.101v-.203h-.101v-.102h-.101v-.101h-.101v-.101h-.101v-.102h-.101v-.101h-.101v-.102h-.101v-.203h-.101v-.102h-.101v-.101h-.101v-.102h-.101v-.101h-.101v-.102h-.101v-.101h-.101v-.204h-.101v-.101h-.101v-.102h-.101v-.1h-.101v-.102h-.101v-.102h-.101v-.101h-.101v-.204h-.101v-.101h-.101v-.102h-.101v-.101h-.101v-.102h-.101v-.101h-.101v-.102h-.101v-.203h-.101v-.102h-.101v-.101h-.101v-.101h-.101v-.102h-.101v-.101h-.101v-.102h-.101v-.203h-.101v-.102h-.101v-.101h-.101v-.102h-.101v-.101h-.101v-.102h-.101v-.1h-.101v-.205h-.101v-.101h-.101V77.3h-.101v-.102h-.101v-.101h-.101v-.102h-.101v-.101h-.101v-.102h-.101v-.203h-.101v-.102h-.101v-.101h-.101v-.102h-.101v-.101h-.101v-.101h-.101v-.102h-.101v-.204h-.101v-.1h-.101v-.102h-.101v-.102h-.101v-.101h-.101v-.102h-.101v-.101h-.101v-.204h-.101v-.101h-.101v-.102h-.101v-.101h-.101v-.102h-.101v-.1h-.101v-.102h-.101v-.204h-.101v-.101h-.101v-.102h-.101v-.101h-.101v-.102h-.101v-.101h-.101v-.102h-.101v-.203h-.101v-.102h-.101v-.101h-.101v-.102h-.101v-.1h-.101v-.102h-.101v-.102h-.101v-.203h-.101v-.102h-.101v-.101h-.101v-.102h-.101v-.101h-.101v-.102h-.101v-.101h-.101v-.102h-.101v-.203h-.101v-.102h-.101v-.101h-.101v-.101h-.101v-.102h-.101v-.101h-.101v-.102h-.101v-.203h-.101V70.7h-.101v-.1h-.101v-.102h-.101v-.101h-.101v-.102h-.101v-.101h-.101v-.204h-.101v-.101h-.101v-.102h-.101v-.1h-.101v-.102h-.101v-.102h-.101v-.101h-.101v-.204h-.101v-.101h-.101v-.102h-.101v-.101h-.101v-.102h-.101v-.101h-.101v-.101h-.101v-.204h-.101v-.102h-.101v-.101h-.101v-.101h-.101v-.102h-.101v-.101h-.101v-.102h-.101v-.203h-.101v-.102h-.101v-.101h-.101v-.102h-.101v-.101h-.101v-.102h-.101v-.1h-.101v-.205h-.101v-.101h-.101v-.101h-.101v-.102h-.101v-.101h-.101v-.102h-.101v-.101h-.101v-.102h-.101v-.203h-.101v-.102h-.101v-.101h-.101v-.102h-.101v-.101h-.101v-.101h-.101v-.102h-.101v-.204h-.101v-.1h-.101v-.102h-.101v-.102h-.101v-.101h-.101v-.102h-.101v-.101h-.101v-.204h-.101v-.101h-.101V64h-.101v-.101h-.101v-.102h-.101v-.1h-.101v-.102h-.101v-.204h-.101v-.101h-.101v-.102h-.101v-.101h-.101v-.102h-.101v-.101h-.101v-.102h-.101v-.203h-.101v-.102h-.101v-.101h-.101v-.102h-.101v-.1h-.101v-.102h-.101v-.102h-.101v-.203h-.101v-.102h-.101v-.101h-.101v-.102h-.101v-.101h-.101v-.102h-.101v-.101h-.101v-.204h-.101v-.101h-.101v-.101h-.101v-.102h-.101v-.101h-.101v-.102h-.101v-.101h-.101v-.102h-.101v-.203h-.101v-.102h-.101v-.101h-.101v-.102h-.101v-.101h-.101v-.102h-.101v-.101h-.101v-.204h-.101v-.101h-.101v-.101h-.101v-.102h-.101v-.101h-.101v-.102h-.101v-.101h-.101v-.204h-.101v-.101h-.101v-.102h-.101v-.101h-.101v-.102h-.101v-.101h-.101v-.101h-.101v-.204h-.101V57.5h-.101v-.1h-.101v-.102h-.101v-.102h-.101v-.101h-.101v-.102h-.101v-.203h-.101v-.102h-.101v-.101h-.101v-.102h-.101v-.101h-.101v-.102h-.101v-.1h-.101v-.205h-.101v-.101h-.101v-.101h-.101v-.102h-.101v-.101h-.101v-.102h-.101v-.101h-.101v-.102h-.101v-.203h-.101v-.102h-.101v-.101l-.076-.055zm-94.977.305h-.101v.102h-.101v.101h-.101v.102h-.101v.101h-.101v.102h-.101v.101h-.101v.102h-.101v.203h-.101v.101h-.101v.102h-.101v.101h-.101v.102h-.101v.101h-.101v.102h-.101v.203h-.101v.102h-.101v.101h-.101v.102h-.101v.101h-.101v.102h-.101v.1h-.101v.205h-.101v.101h-.101v.101h-.101v.102h-.101v.101h-.101v.102h-.101v.101h-.101v.204h-.101v.101h-.101v.102h-.101v.101h-.101v.102h-.101v.101h-.101v.101h-.101v.204h-.101v.102h-.101v.1h-.101v.102h-.101v.102h-.101v.101h-.101v.102h-.101v.203h-.101v.102h-.101v.101h-.101v.102h-.101v.101h-.101v.101h-.101v.102h-.101v.204h-.101v.1h-.101v.101h-.101v.102h-.101v.101h-.101v.102h-.101v.101h-.101v.102h-.101v.203h-.101v.102H28.5v.101h-.1v.102h-.101v.1h-.101v.102h-.101v.102h-.101v.203h-.101v.102h-.101v.101h-.101v.102h-.101v.101h-.101v.102h-.101v.101h-.101v.204h-.101v.101h-.101v.102h-.101v.101h-.101v.101h-.101v.102h-.101v.101h-.101v.204h-.101v.101h-.101v.102h-.101v.101h-.101v.102h-.101v.101h-.101v.102h-.101v.203h-.101v.102h-.101v.101h-.101v.102h-.101v.1h-.101v.102h-.101v.102h-.101v.203h-.101v.102h-.101v.101h-.101v.102h-.101v.101h-.101v.102h-.101v.101h-.101v.204h-.101v.101h-.101v.102h-.101v.1h-.101v.102h-.101v.102h-.101v.101h-.101v.102h-.101v.203h-.101v.102h-.101v.101h-.101v.102h-.101v.101h-.101v.102h-.101v.1h-.101v.205h-.101v.101h-.101v.101h-.101v.102h-.101v.101h-.101v.102h-.101v.101h-.101v.204h-.101v.101h-.101v.102h-.101v.101h-.101v.102h-.101v.101h-.101v.101h-.101v.204h-.101v.101h-.101v.102h-.101v.101h-.101v.102h-.101v.101h-.101v.102h-.101v.203h-.101v.102h-.101v.101h-.101v.102h-.101v.101h-.101v.101h-.101v.102h-.101v.204h-.101v.101h-.101v.101h-.101v.102h-.101v.101h-.101v.102h-.101v.101h-.101v.102h-.101v.203h-.101v.102h-.101v.101h-.101v.101h-.101v.102h-.101v.101h-.101v.102h-.101v.203h-.101v.102H18.4v.101h-.1v.102h-.101v.101h-.101v.102h-.101v.101h-.101v.204h-.101v.101h-.101v.102h-.101v.101h-.101v.101h-.101v.102h-.101v.101h-.101v.204h-.101v.101h-.101v.102h-.101v.101h-.101v.102h-.101v.101h-.101v.102h-.101v.203h-.101v.102h-.101v.101h-.101v.102h-.101v.1h-.101v.102h-.101v.102h-.101v.203h-.101v.102h-.101v.101h-.101v.102h-.101v.101h-.101v.102h-.101v.101h-.101v.204h-.101v.101h-.101v.102h-.101v.1h-.101v.102h-.101v.102h-.101v.101h-.101v.102h-.101v.203h-.101v.102h-.101v.101h-.101v.102h-.101v.101h-.101v.102h-.101v.1h-.101v.204h-.101v.102h-.101v.101h-.101v.102h-.101v.101h-.101v.102h-.101v.101h-.101v.204h-.101v.101h-.101v.102h-.101v.101h-.101v.102h-.101v.101h-.101v.101h-.101v.204h-.101v.101h-.101v.102h-.101v.101h-.101v.102h-.101v.101h-.101v.102h-.101v.203h-.101v.102h-.101v.101h-.101v.102h-.101v.101h-.101v.101h-.101v.102h-.101v.204h-.101v.1h-.101v.102h-.101v.102h-.102v.101h-.1v.102h-.102v.101h-.1v.102h-.101v.203h-.101v.102h-.101v.101h-.101v.101h-.101v.102h-.101v.101H9.31v.102h-.1v.203h-.101v.102h-.101v.101h-.101v.102h-.101v.101h-.101v.102h-.101v.101h-.101v.204h-.101v.101H8.3v.102h-.1v.101h-.101v.101h-.102v.102h-.1v.101h-.102v.204h-.1v.101h-.102v.102h-.1v.101H7.39v.102h-.1v.101h-.102v.101h-.1v.204h-.102v.102h-.1v.101h-.102v.101h-.1v.102h-.102v.101h-.1v.102H6.38v.203h-.1v.102h-.102v.101h-.1v.102h-.102v.101h-.1v.102h-.102v.101h-.1v.204h-.102v.101h-.1v.102H5.37v.1h-.1v.102h-.102v.102h-.1v.101h-.102v.102h-.1v.203h-.102v.102h-.1v.101h-.102v.102h-.1v.101H4.36V54.753h30.377v.101h-.101v.204l-.076.054zm92.446-9.762h.101v-6.508h.101v-6.508h.101v-2.237h.101v.102h.202v.101h.101v.102h.203v.101h.101v.102h.101v.101h.203v.102h.101v.1h.101v.102h.203v.102h.101v.101h.202v.102h.101v.101h.101v.101h.203v.102h.101v.101h.101v.102h.203v.101h.101v.102h.203v.101h.101v.102h.101v.101h.203v.101h.101v.102h.101v.101h.202v.102h.101v.101h.203v.102h.101v.101h.101v.102h.203v.1h.101v.102h.203v.102h.101v.101h.101v.102h.202v.101h.101v.101h.101v.102h.203v.101h.101v.102h.203v.101h.101v.102h.101v.101h.203v.101h.101v.102h.101v.101h.203v.102h.1v.101h.203v.102h.101v.101h.101v.102h.203v.101h.101v.101h.101v.102h.203v.101h.101v.102h.203v.101h.101v.102h.101v.101h.202v.102h.101v.1h.101v.102h.203v.102h.101v.101h.203v.102h.101v.101h.101v.102h.203v.1h.101v.102h.202v.102h.101v.101h.101v.102h.203v.101h.101v.101h.101v.102h.203v.101h.101v.102h.203v.101h.101v.102h.101v.101h.203v.102h.101v.101h.101v.102h.202v.1h.101v.102h.203v.102h.101v.101h.101v.102h.203v.101h.101v.102h.101v.1h.203v.102h.101v.102h.202v.101h.101v.102h.101v.101h.203v.102h.101v.101h.101v.101h.203v.102h.101v.101h.203v.102h.101v.101h.101v.102h.202v.101h.101v.101h.203v.102h.101v.101h.101v.102h.203v.101h.101v.102h.101v.101h.203v.102h.101v.1h.203v.102h.101v.102h.101v.101h.202v.102h.101v.101h.101v.102h.203v.1h.101v.102h.203v.102h.101v.101h.101v.102h.203v.101h.101v.102h.101v.101h.202v.101h.101v.102h.203v.101h.101v.102h.101v.101h.203v.102h.101v.101h.203v.101h.101v.102h.101v.101h.202v.102h.102v.101h.101v.102h.202v.101h.101v.102h.203v.1h.101v.102h.101v.102h.203v.101h.101v.102h.101v.101h.203v.102h.101v.101h.202v.101h.101v.102h.101v.101h.203v.102h.101v.101h.101v.102h.203v.101h.101v.101h.203v.102h.101v.101h.101v.102h.202v.101h.101v.102h.101v.101h.203v.101h.101v.102h.203v.101h.101v.102h.101v.101h.203v.102h.101v.101h.203v.102h.101v.1h.101v.102h.202v.102h.101v.101h.101v.102h.203v.101h.101v.102h.203v.101h.101v.101h.101v.102h.203v.101h.101v.102h.101v.101h.202v.102h.101v.101h.203v.101h.101v.102h.101v.101h.203v.102h.101v.101h.101v.102h.203v.101h.101v.101h.202v.102h.101v.101h.101v.102h.203v.101h.101v.102h-28.351V45.3l.013.05zM8.843 50.434h.101v-.101h.203v-.102h.1v-.101h.204v-.102h.1v-.101h.102v-.101h.202v-.102h.101v-.101h.101v-.102h.203v-.101h.101v-.102h.203v-.101h.1v-.102h.102v-.1h.203v-.102h.1v-.102h.102v-.101h.202v-.102h.101v-.101h.203v-.101h.101v-.102h.101v-.101h.203V48.1h.1V48h.102v-.102h.203v-.101h.1v-.101h.204v-.102h.1v-.101h.101v-.102h.203v-.101h.101v-.102h.203v-.101h.101v-.102h.101v-.101h.203v-.102h.1v-.1h.102v-.102h.203v-.102h.1v-.101h.203v-.102h.101v-.101h.101v-.102h.203v-.1h.101v-.102h.101v-.102h.203v-.101h.1v-.102h.204v-.101h.1v-.102h.102v-.101h.202v-.101h.101v-.102h.101v-.101h.203v-.102h.101v-.101h.203v-.102h.101v-.101h.101v-.101h.203v-.102h.1v-.101h.102v-.102h.202v-.101h.102v-.102h.202v-.101h.101v-.102h.101v-.1h.203v-.102h.101v-.102h.203v-.101h.1v-.102h.102v-.101h.203v-.102h.1v-.1h.102v-.102h.202v-.102h.101v-.101h.203v-.102h.101v-.101h.101v-.102h.203v-.101h.1v-.101h.102v-.102h.203v-.101h.1v-.102h.203v-.101h.101v-.102h.102v-.101h.202v-.102h.101v-.1h.101v-.102h.203v-.102h.101v-.101h.203v-.102h.1v-.101h.102v-.102h.203v-.1h.1v-.102h.203v-.102h.101v-.101h.101v-.102h.203v-.101h.101v-.102h.101v-.101h.203v-.101h.1v-.102h.204v-.101h.1v-.102h.102v-.101h.202v-.102h.101v-.101h.101v-.101h.203v-.102h.101v-.101h.203v-.102h.1v-.101h.102v-.102h.203v-.101h.1v-.102h.102v-.1h.203v-.102h.1v-.102h.203v-.101h.101v-.102h.101v-.101h.203v-.102h.101v-.1h.101v-.102h.203v-.102h.1v-.101h.204v-.102h.1v-.101h.102v-.102h.202v-.101h.101v-.101h.203v-.102h.101v-.101h.101v-.102h.203v-.101h.1v-.102h.102v-.101h.203v-.101h.1v-.102h.203v-.101h.101v-.102h.101v-.101h.203v-.102h.101v-.101h.101v-.101h.203v-.102h.101v-.101h.203v-.102h.1v-.101h.102v-.102h.203v-.101h.1v-.102h.101v-.101h.203v-.101h.101v-.102h.203v-.101h.101v-.102h.101v-.101h.203V33.9h.1v-.1h.102v-.101h.203v-.102h.1v-.101h.203v-.102h.101v-.101h.101v-.102h.203v-.101h.101v-.102h.203v-.1h.1v-.102h.102v-.102h.203v-.101h.1v-.102h.102v-.101h.203v-.101h.1v-.102h.203v-.101h.101v-.102h.101v-.101h.203v-.102h.101v-.101h.101v-.102h.203v-.101h.1v-.101h.204v-.102h.1v-.101h.102v-.102h.202v-.101h.101v-.102h.101v-.101h.203v-.101h.101v-.102h.203v-.101h.1v-.102h.102v-.101h.203v-.102h.1v1.424h.102v6.508h.1v6.407h.102v6.101H8.83v-.101l.013-.052zm106.216-4.169h-.203v-.101h-.203v-.102h-.304v-.1h-.203v-.102h-.202v-.102h-.304v-.101h-.203v-.102h-.304v-.101h-.202v-.102h-.203v-.1h-.304v-.102h-.203v-.102h-.303v-.101h-.203v-.102h-.203v-.101h-.304v-.102h-.203v-.101h-.303v-.101h-.203v-.102h-.203v-.101h-.304v-.102h-.202v-.101h-.203v-.102h-.304v-.101h-.203v-.102h-.303v-.1h-.203v-.102h-.304v-.102h-.203v-.101h-.203v-.102h-.303v-.101h-.203v-.102h-.203v-.1h-.304v-.102h-.202v-.102h-.304v-.101h-.203v-.102h-.203v-.101h-.303v-.102h-.203v-.101h-.304v-.101h-.203v-.102h-.203v-.101h-.303v-.102h-.203v-.101h-.304v-.102h-.203v-.101h-.202v-.101h-.304v-.102h-.203v-.101h-.203v-.102h-.303v-.101h-.203v-.102h-.304v-.101h-.203v-.101h-.304v-.102h-.202v-.101h-.203v-.102h-.304v-.101h-.203v-.102h-.202v-.101h-.304v-.102h-.203v-.1h-.304v-.102h-.202v-.102h-.203v-.101h-.304v-.102h-.203v-.101h-.303v-.102h-.203v-.101h-.203v-.101h-.304v-.102h-.203v-.101h-.303v-.102h-.203v-.101h-.203v-.102h-.304v-.101h-.202v-.102h-.203v-.1h-.304v-.102h-.203v-.102H95.2v-.101h-.203v-.102h-.203v-.101h-.304v-.101h-.203v-.102h-.303v-.101h-.203v-.102h-.203v-.101h-.304v-.102h-.202v-.101h-.304v-.101h-.203v-.102h-.203v-.101h-.303v-.102h-.203v-.101h-.304v-.102h-.203v-.101h-.203v-.102h-.303v-.101h-.203v-.101h-.203v-.102h-.304v-.101h-.202v-.102h-.304v-.101h-.203v-.204h.507v-.101h.506v-.102h.507v-.101h.506v-.102h.405v-.101h.507v-.101h.506V34.7h.507v-.1h.506v-.102h.507v-.101h.506v-.102h.507v-.101h.506v-.101h.507v-.102h.405v-.101h.506v-.102h.507v-.101h.506v-.102h.507v-.101h.506v-.102h.507v-.1h.506v-.102h.507v-.102h.405v-.101h.506v-.102h.507v-.101h.506v-.102h.507v-.101h.506v-.101h.507v-.102h.405v-.101h.607v-.102h.405v-.101h.507v-.102h.506v-.101h.507v-.101h.506v-.102h.507v-.101h.506v-.102h.405v-.101h.507v-.102h.506v-.101h.507v-.102h.506v-.1h.507v-.102h.506v-.102h.507v-.101h.506v-.102h.507v-.101h.405v-.101h.506v-.102h.507v-.101h.506v-.102h.507v-.101h.506v-.102h.507v-.101h.506v-.102h.507v-.101h.405v-.101h.506v-.102h.507v-.101h.506v-.102h.507v-.101h.506v-.102h.507v-.101h.405v-.101h.607v-.102h.405v4.067h-.101v6.508h-.101v6.508h-.101v3.864h-.101v-.101h-.304v-.102h-.203v-.101h-.202v-.102h-.304v-.101h-.203v-.102h-.304v-.101h-.202v-.101h-.203v-.102h-.304v-.101h-.203v-.102h-.303v-.101h-.203v-.102h-.203v-.101h-.304v-.102h-.203v-.101h-.303v-.101h-.203v-.102h-.203v-.101h-.304v-.102h-.202v-.101h-.304v-.102h-.203v-.101h-.203v-.101h-.303v-.102h-.203v-.101h-.203v-.102h-.304v-.101h-.203v-.102h-.303v-.101h-.203v-.102h-.304v-.1l.009-.052zM42.662 28.877h.404v.102h.507v.101h.507v.102h.506v.1h.507v.102h.506v.102h.507v.101h.404v.102h.608v.101h.405v.102h.506v.1h.507v.102h.506v.102h.507v.101h.507v.102h.506v.101h.405v.102h.506v.101h.507v.101h.507v.102h.506v.101h.506v.102h.507v.101h.507v.102h.506v.101h.507v.101h.404v.102h.507v.101h.507v.102h.506v.101h.507v.102h.506v.101h.507v.102h.506v.1h.507v.102h.405v.102h.506v.101h.507v.102h.506v.101h.507v.102h.506v.1h.507v.102h.405v.102h.607v.101h.405v.102h.506v.101h.507v.102h.507v.101h.506v.101h.507v.102h.506v.101h.405v.102h.506v.101h.507v.102h.507v.101h.506v.101h.507v.102h.506v.101h.507v.102h.506v.101h.507v.102h.404v.101h.507v.102h.507v.1h.506v.205h-.203v.101h-.303v.101h-.203v.102h-.203v.101h-.304v.102h-.203v.101h-.202v.102h-.304v.101h-.203v.102h-.304v.1h-.202v.102h-.304v.102h-.203v.101h-.203v.102h-.303v.101h-.203v.102h-.203v.1h-.304v.102h-.203v.102h-.303v.101h-.203v.102h-.203v.101h-.304v.102h-.202v.101h-.304v.101h-.203v.102h-.203v.101h-.303v.102h-.203v.101h-.304v.102h-.203v.101h-.203v.102h-.303v.1h-.203v.102h-.203v.102h-.304v.101h-.202v.102h-.304v.101h-.203v.102h-.304v.1h-.202v.102h-.203v.102h-.304v.101h-.203v.102h-.203v.101h-.303v.102h-.203v.101h-.304v.101h-.203v.102h-.202v.101h-.304v.102h-.203v.101h-.304v.102h-.202v.101h-.203v.101h-.304v.102h-.203v.101h-.303v.102h-.203v.101h-.203v.102h-.304v.101h-.203v.102h-.303v.1h-.203v.102h-.203v.102h-.304v.101h-.202v.102h-.203v.101h-.304v.102h-.203v.1h-.303v.102h-.203v.102h-.203v.101h-.304v.102h-.203v.101h-.303v.102h-.203v.101h-.203v.101h-.304v.102h-.202v.101h-.304v.102h-.203v.101h-.203v.102h-.303v.101h-.203v.101H54v.102h-.304v.101h-.203v.102h-.303v.101h-.203v.102h-.304v.101h-.203v.102h-.202v.1h-.304v.102h-.203v.102h-.203v.101h-.303v.102h-.203v.101h-.304v.102h-.203v.101h-.203v.101h-.303v.102h-.203v.101h-.304v.102h-.203v.101h-.202v.102h-.304v.101h-.203v.101h-.304v.102h-.203v.101h-.202v.102h-.304v.101h-.203v.102h-.203v.101h-.303v.101h-.203v.102H46.4v.101h-.203v.102h-.303v.101h-.203v.102h-.203v.101h-.304v.102h-.203v.1h-.202v.102h-.304v.102h-.203v.101h-.304v.102h-.202v.101h-.203v.102h-.304v.101h-.203v.101h-.303v.102h-.203v.101h-.203v.102h-.304v.101h-.202v.102h-.304v.101h-.101V44.69h-.101v-6.508h-.101v-6.406h-.101V28.52h.506v.102h.507v.101h.506v.102l.009.051zm103.887 3.152h.506v.102h.507v.101h.608v.102h.506v.101h.608v.101h.506v.102h.608v.101h.506v.102h.608v.101h.506v.102h.507v.101h.607v.101h.608v.102h.506v.101h.507v.102h.608v.101h.506v.102h.608v.101h.506v.102h.608v.101h.506v.101h.608v.102h.506v.101h.608v.102h.101v14.033h-.101v-.102h-.203v-.1h-.101v-.102h-.101v-.102h-.203v-.101h-.101v-.102h-.101v-.101h-.202v-.102h-.101v-.101h-.203v-.101h-.101v-.102h-.101v-.101h-.203v-.102h-.101v-.101h-.101v-.102h-.203v-.101h-.101v-.101h-.203v-.102h-.101v-.101h-.101v-.102h-.202v-.101h-.101v-.102h-.101v-.101h-.203v-.102h-.101v-.1h-.203v-.102h-.101v-.102h-.101v-.101h-.203v-.102h-.101v-.101h-.101v-.102h-.202v-.1h-.101v-.102h-.203v-.102h-.101v-.101h-.101v-.102h-.203v-.101h-.101v-.102h-.203v-.101h-.101v-.101h-.101v-.102h-.202v-.101h-.101v-.102h-.101v-.101h-.203v-.102h-.101v-.101h-.203v-.102h-.101v-.1h-.101v-.102h-.203v-.102h-.101v-.101h-.101v-.102h-.203v-.101h-.101v-.102h-.202v-.1h-.101v-.102h-.101v-.102h-.203v-.101h-.101v-.102h-.101v-.101h-.203v-.102h-.101v-.101h-.203v-.101h-.101v-.102h-.101v-.101h-.202v-.102h-.101v-.101h-.101v-.102h-.203v-.101h-.101v-.101h-.203v-.102h-.101v-.101h-.101v-.102h-.203v-.101h-.101v-.102h-.202v-.101h-.102v-.101h-.101v-.102h-.202v-.101h-.101v-.102h-.101v-.101h-.203v-.102h-.101v-.101h-.203v-.102h-.101v-.1h-.101v-.102h-.203v-.102h-.101v-.101h-.101v-.102h-.202v-.101h-.101v-.102h-.203v-.101h-.101v-.101h-.101v-.102h-.203v-.101h-.101v-.102h-.101v-.101h-.203v-.102h-.101v-.101h-.202v-.102h-.101v-.1h-.101v-.102h-.203v-.102h-.101v-.101h-.203v-.102h-.101v-.101h-.101v-.101h-.203v-.102h-.101v-.101h-.101v-.102h-.203v-.101h-.101v-.102h-.202v-.101h-.101v-.101h-.101v-.102h-.203v-.101h-.101v-.102h-.101v-.101h-.203v-.102h-.101v-.101h-.203v-.102h-.101v-.101h-.101v-.101h-.202v-.102h-.101v-.101h-.101v-.102h-.203v-.101h-.101v-.102h-.203v-.101h-.101v-.102h-.101v-.1h-.203v-.102h-.101v-.102h-.101v-.101h-.202v-.102h-.101v-.101h-.203V34.6h-.101v-.1h-.101v-.102h-.203v-.102h-.101v-.101h-.203v-.102h-.101v-.101h-.101v-.101h-.203v-.102h-.101v-.101h-.101v-.102h-.202v-.101h-.101v-.102h-.203v-.101h-.101v-.102h-.101v-.101h-.203v-.102h-.101v-.1h-.101v-.102h-.203v-.102h-.101v-.101h-.202v-.102h-.101v-.101h-.101v-.102h-.203v-.1h-.101v-.102h-.101v-.102h-.203v-.101h-.101v-.102h-.203v-.101h-.101v-.101h-.101v-.102h-.203v-.101h-.101v-.102h-.101v-.101h-.202v-.102h-.101v-.101h-.203v-.102h-.101v-.101h-.101v-.101h-.203v-.102h-.101v-.101h-.203v-.102h-.101v-.101h-.101v-.102h-.202v-.101h-.101v-.102h-.101v-.1h.607v.1h.507v.102h.607v.101h.507v.102h.607v.101h.507v.102h.506v.101h.608v.102h.506v.101h.608v.101h.507v.102h.607v.101h.507v.102h.607v.101h.507v.102h.607v.101h.507v.102h.607v.1h.507v.102h.506v.102h.608v.101h.608v.102l-.018-.036zm-12.252-2.237h-.203v-.101h.203v.101zM19.88 31.622v-.1h.607v-.102h.608v-.102h.506v-.1h.507v-.102h.607v-.102h.507v-.101h.607v-.102h.507v-.101h.608v-.102h.506v-.101h.608v-.101h.506v-.102h.507v-.101h.607V30.1h.608V30h.506v-.102h.507v-.101h.608v-.102h.202v.102h-.1v.101h-.204V30h-.1v.101h-.203v.102H29.4v.101h-.1v.102h-.203v.101h-.101v.101h-.101v.102h-.203v.101h-.1v.102h-.204v.101h-.1v.102h-.102v.101h-.202v.102h-.101v.1h-.203v.102h-.101v.102h-.101v.101h-.203v.102h-.1v.101h-.102v.102h-.203v.101h-.1v.101h-.203v.102h-.102v.101h-.1v.102h-.203v.101h-.101v.102h-.101v.101h-.203v.101h-.101v.102h-.203v.101h-.1v.102h-.102v.101h-.203v.102h-.1v.101h-.102v.102h-.202v.1h-.101v.102h-.203v.102h-.101v.101h-.101v.102h-.203v.101h-.1v.102h-.102v.1h-.203v.102h-.1v.102h-.203v.101h-.101v.102h-.101v.101h-.203v.102h-.101v.101h-.203v.101h-.101v.102h-.101v.101h-.203v.102h-.1v.101h-.102v.102h-.203v.101h-.1v.101h-.203v.102h-.101v.101h-.101v.102H21v.101h-.101v.102h-.101v.101h-.203v.101h-.1v.102h-.204v.101h-.1V37h-.102v.101h-.202v.102h-.101v.101h-.101v.102h-.203v.101h-.101v.101h-.203v.102h-.1v.101h-.102v.102h-.203v.101h-.1v.102h-.102v.101h-.203v.101h-.1v.102h-.203v.101h-.101v.102h-.101v.101h-.203v.102h-.101v.101h-.203v.102h-.1v.1h-.102v.102h-.203v.102h-.1v.101h-.101v.102h-.203v.101h-.101v.101h-.203v.102h-.101v.101h-.101v.102h-.203v.101h-.1v.102h-.102v.101h-.203v.102h-.1v.101h-.203v.101h-.101v.102h-.101v.101h-.203v.102h-.101v.101h-.101v.102h-.203v.101h-.1v.101h-.204v.102h-.1v.101h-.102v.102h-.203v.101h-.1v.102h-.203v.101h-.101v.102h-.101v.1h-.203v.102h-.101v.102h-.101v.101h-.203v.102h-.1v.101h-.204v.102h-.1v.101h-.102v.101h-.202v.102h-.101v.101h-.101v.102h-.203v.101h-.101v.102h-.203v.101h-.1v.101h-.102v.102h-.203v.101h-.1v.102h-.102v.101h-.202v.102h-.101v.101h-.203v.102h-.101v.1h-.101v.102h-.203v.102h-.101v.101h-.101v.102h-.203v.101h-.1v.102h-.204v.1h-.1v.102h-.102v.102H8.45v.101h-.101v.102h-.203v.101h-.101v.102h-.101v.101H7.74v.101h-.1v.102h-.102v.101h-.203v.102h-.1v.101h-.203v.102h-.101v.101H6.83v.101h-.203v.102h-.101v.101h-.101v.102h-.203v.101h-.1v.102h-.204v.101h-.1v.102h-.102v.1h-.202v.102h-.101v.102h-.101v.101H5.11v.102h-.101v.101h-.203v.102h-.101v.101h-.101v.101h-.203v.102h-.1V34.428h.202v-.102h.507v-.101h.607v-.102h.507v-.101h.506v-.102h.608v-.101h.506v-.101h.608v-.102h.506v-.101h.608v-.102h.506v-.101h.608v-.102h.506v-.101h.608v-.102h.506v-.1h.608v-.102h.507v-.102h.506v-.101h.608V32.5h.506v-.1h.608v-.102h.506v-.101h.608v-.101h.506v-.102h.608v-.101h.506v-.102h.608v-.101h.507v-.102h.506l-.018.036zM150.7 28.37h.101v.1h-.101v-.1zm-137.301 0h.1v.1h-.1v-.1zm96.495-1.526v.102h-.607v.101h-.405v.101h-.507v.102h-.506v.101h-.507v.102h-.506v.101h-.507v.102h-.506v.101h-.405v.101h-.507v.102h-.506v.101h-.507v.102h-.506v.101h-.507v.102h-.506v.101h-.507v.101h-.506v.102h-.507v.101h-.405v.102h-.506v.101h-.507v.102h-.506v.101h-.507v.102h-.506v.1h-.507v.102h-.507v.102h-.506v.101h-.405v.102h-.506v.101h-.507v.102H94.5v.101h-.507v.101h-.507v.102h-.506v.101h-.405v.102h-.607v.101h-.405v.102h-.507v.101h-.506v.102h-.507v.1h-.506v.102h-.507v.102h-.506v.101h-.405v.102h-.507v.101h-.506v.101h-.507v.102h-.506v.101h-.507v.102h-.506v.101h-.507v.102h-.304V16.966h.101v.102h.304v.101h.405v.102h.405v.101h.404v.102h.304v.101h.405v.101h.405v.102h.303v.101h.405v.102h.405v.101h.304v.102h.405v.101h.404v.101h.405v.102h.304v.101h.405v.102h.405v.101h.303v.102h.405v.101h.405v.101h.404v.102h.304v.101h.405v.102h.405v.101h.304v.102h.404v.101h.405v.102h.405v.1h.304v.102h.404v.102h.405v.101h.304v.102h.405v.101h.405v.102h.303v.101h.405v.101h.405v.102h.304v.101h.404v.102h.405v.101h.405v.102h.304v.101h.405v.102h.404v.1h.405v.102h.304v.102h.405v.101h.404v.102h.304v.101h.405v.102h.405v.1h.303v.102h.405v.102h.405v.101h.304v.102h.405v.101h.404v.101h.405v.102h.304v.101h.405v.102h.404v.101h.405v.102h.304v.101h.405v.102h.404v.101h.304v.101h.405v.102h.405v.101h.304v.102h.404v.101h.405v.102h.304v.101h.405v.102h.404v.1h.405v.102h.304v.102h.405v.101h.405v.102h.404v.101h.304v.102h.405v.1h.405v.102h.303v.102h.405v.101h-.101v.102h-.506v.101h-.507v.101h-.506v.102h-.507v.101h-.405v.102h-.506v.101h-.507v.102h-.506v.101h-.507v.102h-.506v.101h-.507v.101h-.405l.026.038zM49.042 25.42v-.101h.404v-.102h.405v-.101h.405v-.102h.304v-.101h.405v-.101h.404v-.102h.405v-.101h.304v-.102h.405v-.101h.404v-.102h.304v-.101h.405V24.1h.405V24h.303v-.102h.405v-.102h.405v-.101h.304v-.102h.405v-.101h.404v-.102h.405v-.1h.304v-.102h.405v-.102h.404v-.101h.405v-.102h.304v-.101h.405v-.102h.404v-.101h.304v-.101h.405v-.102h.405v-.101h.304v-.102h.404v-.101h.405v-.102h.304v-.101h.405v-.101h.404v-.102h.405v-.101h.304v-.102h.405v-.101h.405v-.102h.404v-.101h.304v-.101h.405v-.102h.405v-.101h.303v-.102h.405v-.101h.405v-.102h.304v-.101h.404v-.102h.405v-.1h.304v-.102h.405v-.102h.405v-.101h.404v-.102h.304v-.101h.405v-.102h.405v-.101h.404v-.101h.304v-.102h.405v-.101h.405v-.102h.303v-.101h.405v-.102h.405v-.101h.304v-.102h.405v-.1h.404v-.102h.304v-.102h.405v-.101h.405v-.102h.404v-.101h.304v-.101h.405v-.102h.405v-.101h.405v-.102h.303v-.101h.405v-.102h.405v-.101h.304v-.101h.404v-.102h.405v-.101h.304V17h.101v.102h.101v15.05h-.405v-.102H79.1v-.101h-.507v-.102h-.506v-.101h-.507v-.102h-.405v-.101h-.607v-.102h-.405v-.101h-.507v-.101h-.506v-.102h-.507v-.101h-.506v-.102h-.507v-.101h-.506v-.102h-.405v-.101h-.507v-.101h-.506v-.102h-.507v-.101h-.506v-.102h-.507v-.101h-.506v-.102h-.507v-.101h-.506v-.102h-.405v-.1h-.507v-.102h-.506v-.102h-.507v-.101h-.506v-.102h-.507v-.101h-.506v-.102h-.507v-.101h-.506v-.101h-.507v-.102h-.405v-.101h-.506V28.6h-.507v-.1h-.506v-.102h-.507v-.101h-.506v-.101h-.507v-.102h-.405v-.101h-.607v-.102h-.405v-.101h-.507v-.102h-.506v-.101h-.507v-.102h-.506v-.1h-.507v-.102h-.506v-.102h-.405v-.101h-.507v-.102h-.506v-.101h-.507v-.101h-.506v-.102h-.507v-.101h-.506v-.102h-.507v-.101h-.506v-.102h-.405v-.101h-.507v-.102h-.506v-.101h-.507v-.101h-.506v-.102h-.507v-.101h-.1v-.102h.404v-.101h.304l.026-.038zm78.269-11.084h.203v.102h.101v.101h.203v.101h.202v.102h.101v.101h.203v.102h.203v.101h.101v.102h.203v.101h.203v.102h.101v.101h.202v.101h.203v.102h.101v.101h.203v.102h.203v.101h.101v.102h.202v.101h.203v.101h.101v.102h.203v.101h.203v.102h.101v.101h.202v.102h.203v.101h.101v.102h.203v.1h.203v.102h.101v.102h.203v.101h.202v.102h.101v.101h.203v.102h.203v.101h.101v.101h.203v.102h.202v.101h.101v.102h.203v.101h.203v.102h.101v.101h.203v.101h.202v.102h.101v.101h.203v.102h.203V19h.101v.102h.203v.101h.203v.101h.101v.102h.202v.101h.203v.102h.101v.101h.203v.102h.203v.101h.101v.101h.202v.102h.203v.101h.101v.102h.203v.101h.203v.102h.202v.101h.101v.102h.203v.101h.203v.101h.101v.102h.203v.101h.203v.102h.101v.101h.202v.102h.203v.101h.101v.102h.203v.1h.203v.102h.101v.102h.202v.101h.203v.102h.101v.101h.203v.102h.203v.1h.101v.102h.202v.102h.203v.101h.101v.102h.203v.101h.203v.101h.101v.102h.203v.101h.202v.102h.101v.101h.203v.102h.203v.101h.101v.102h.203v.101h.202v.101h.101v.102h.203v.101h.203v.102h.101v.101h.203v.102h.202v.101h.101v.102h.203v.1h.203v.102h.101v.102h.203v.101h.203v.102h.101v.101h.202v.102h.203v.101h.101v.101h.203v.102h.203v.101h.101v.102h.202V26h.203v.102h.101v.101h.203v.101h.203v.102h.101v.101h.202v.102h.203v.101h.101v.102h.203v.101h.203v.102h.101v.1h.203v.102h.202v.102h.101v.101h.203v.102h.203v.101h.101v.101h.203v.102h.202v.101h.101v.102h.203v.101h.203v.102h.101v.101h-.405v-.101h-.607v-.102h-.507v-.101h-.607v-.102h-.507v-.101h-.608v-.102h-.506v-.1h-.608v-.102h-.506v-.102h-.507v-.101h-.607v-.102h-.507v-.101h-.607v-.101h-.507v-.102h-.607v-.101h-.507v-.102h-.607v-.101h-.507v-.102h-.608v-.101h-.506v-.102h-.608v-.101h-.506v-.101h-.608V26h-.506v-.1h-.507v-.102h-.607v-.101h-.507v-.102h-.607v-.101h-.507v-.101h-.607v-.102h-.507v-.101h-.608v-.102h-.506v-.101h-.608v-.102h-.506v-.101h-.608v-.102h-.506v-.101h-.507v-.101h-.607v-.102h-.507v-.101h-.607v-.102h-.507v-.101h-.203V14.31l-.006.024zm-104.9 12.406v.101h-.607v.102h-.607v.101h-.507v.102h-.507v.101h-.607v.101h-.507v.102h-.607v.101h-.507v.102h-.607v.101h-.507v.102h-.607v.101h-.507v.102h-.607v.101h-.507v.101h-.607v.102H13.6v-.102h.1v-.101h.204v-.102h.202v-.1h.101v-.102h.203v-.102h.203v-.101h.1v-.102h.204v-.101h.202v-.102h.101v-.1h.203v-.102h.203v-.102h.101v-.101h.203v-.102h.203v-.101h.1v-.101h.203v-.102h.203v-.101h.101v-.102h.203v-.101h.203v-.102h.1v-.101h.203v-.102h.203v-.101h.101v-.101h.203v-.102h.203v-.101h.1v-.102h.203v-.101h.203v-.102h.101v-.101h.203v-.101h.203v-.102h.1v-.101h.204v-.102h.202v-.101h.101v-.102h.203v-.101h.203v-.102h.1v-.1h.204v-.102h.202v-.102h.101v-.101h.203V23.8h.203v-.101h.203v-.102h.1v-.101h.203v-.101h.203v-.102h.101v-.101h.203v-.102h.203v-.101h.1v-.102h.203v-.101h.203v-.102h.101v-.1h.203v-.102h.203v-.102h.1v-.101h.204v-.102h.202v-.101h.101v-.101h.203v-.102h.203v-.101h.1v-.102h.204v-.101h.202v-.102h.101v-.101h.203v-.101h.203v-.102h.101v-.101h.203v-.102h.203v-.101h.1v-.102h.203v-.101h.203v-.102h.101v-.101h.203v-.101h.203v-.102h.1v-.101h.203v-.102h.203v-.101h.101v-.102h.203v-.101h.203v-.102h.1v-.1h.203v-.102h.203v-.102h.101v-.101h.203v-.102H29v-.101h.1v-.102h.203v-.1h.203v-.102h.101v-.102h.203v-.101h.203v-.102h.1v-.101h.204v-.101h.202v-.102h.101v-.101h.203v-.102h.203v-.101h.1v-.102h.204v-.101h.202v-.102h.101v-.101h.203v-.101h.203v-.102h.101v-.101h.203v-.102h.202v-.101h.102V16.8h.202v-.1h.203v-.102h.101v-.1h.203v-.102h.203v-.102h.1v-.101h.203v-.102h.203v-.101h.101v-.102h.203v-.101h.203v-.101h.202v-.102h.101v-.101h.203v-.102h.203v-.101h.101v-.102h.203v-.101h.1v-.101h.203v-.102h.203v-.101h.203v-.102h.101v-.101h.203v-.102h.203v-.101h.1v9.762H36.7v.102h-.507v.101h-.506v.102h-.608v.1h-.506v.102h-.608v.102h-.506v.101h-.608v.102h-.507v.101h-.607v.101h-.507v.102h-.607v.101h-.507v.102h-.607v.101H29v.102h-.506v.101h-.608v.102h-.506v.101h-.608v.101h-.506v.102h-.608v.101h-.506v.102h-.608v.101h-.507v.102h-.607v.101h-.507v.101h-.506l-.006-.024zm43.844-10.474v.102h-.405v.1h-.405v.102h-.404v.102h-.304v.101h-.405v.102h-.405v.101h-.304v.102h-.404v.101h-.405v.101h-.405v.102h-.304v.101h-.404v.102h-.405v.101h-.304v.102h-.405v.101h-.405v.101h-.404v.102h-.304v.101h-.405v.102h-.405v.101h-.303v.102h-.405v.101h-.405v.101h-.304v.102h-.404v.101h-.405v.102h-.405v.101h-.304v.102h-.404v.101h-.405v.102h-.304v.101h-.405v.101h-.405v.102h-.404v.101h-.304v.102h-.405v.101h-.405v.102h-.303v.101h-.405v.101h-.405v.102h-.304v.101h-.405v.102h-.404v.101h-.304v.102h-.405v.101h-.405v.102h-.404v.1h-.304v.102h-.405v.102h-.405v.101h-.404v.102h-.304v.101h-.405v.101h-.405v.102h-.304v.101h-.404v.102h-.405v.101h-.304v.102h-.405v.101h-.405v.101h-.303v.102h-.405v.101h-.405v.102h-.405v.101h-.303v.102h-.405v.101h-.304v-10.17h.81v.102h1.215v.101h1.216v.102h1.215v.101h1.114v.102h1.316v.101h1.114v.101h1.215v.102h1.215v.101H52.8v.102h1.215v.101h1.215v.102h1.215v.101h1.114v.102h1.216v.1h1.316v.102h1.114v.102h1.215v.101h1.215v.102h1.215v.101h1.215v.101h1.215v.102h1.114v.101h1.215v.204h-.404v.102H68.8v.1h-.304v.102h-.405v.102h-.404v.101h-.304v.102h-.405v.101h-.405v.102h-.304l-.014.024zm40.299-1.932v-.101h1.316v-.102h1.114v-.101h1.215v-.101h1.215v-.102h1.215v-.101h1.215v-.102h1.215v-.101h1.215v-.102h1.114v-.101h1.317v-.101h1.215v-.102h1.114v-.101h1.215v-.102h.911v10.169h-.405v-.101h-.303v-.102h-.405v-.101h-.405v-.102h-.405v-.101h-.303v-.102h-.405v-.101h-.405v-.102h-.304v-.101h-.405v-.101h-.404v-.102h-.405v-.101h-.304v-.102h-.405v-.101h-.404v-.102h-.304v-.101h-.405v-.101h-.405v-.102h-.304v-.101h-.404v-.102h-.405v-.101h-.405v-.102h-.304v-.101h-.404v-.102h-.405v-.1h-.304v-.102h-.405v-.102h-.404v-.101h-.405v-.102h-.304v-.101h-.405v-.102h-.405v-.101h-.303v-.101h-.405v-.102h-.405v-.101h-.405v-.102h-.303v-.101h-.405v-.102h-.405v-.101h-.304v-.102h-.405v-.1h-.404v-.102h-.304v-.102h-.405v-.101h-.405v-.102h-.303v-.101h-.405v-.101h-.405v-.102h-.405v-.101h-.303v-.102h-.405v-.101h-.405v-.102h-.405v-.101h-.304v-.101h-.404v-.102h-.405v-.101h-.304v-.102h-.405v-.101h-.404V17.1h-.304v-.101h-.405v-.102h-.405v-.101h-.303v-.101h-.405v-.102h-.405v-.101h-.405v-.102h-.304v-.101h-.404v-.102h-.405v-.101h-.405v-.102h-.304v-.1h-.404v-.102h-.405v-.102h-.304v-.101h-.405v-.102h-.404v-.101h-.102v-.101h1.317v-.102h1.215v-.101h1.114v-.102h1.215v-.101h1.215v-.102h1.215v-.101h1.215v-.101h1.215v-.102h1.215v-.101h1.114l-.014-.026zm-8.404-3.66v.1h-1.316v.102H95.72v.102h-1.215v.101H93.29v.102h-1.215v.101h-1.216v.101h-1.215v.102H88.43v.101h-1.114v.102H86v.101h-1.215v.102h-.507V4.774h.405v.101h.608v.101h.506v.102h.507v.101h.507v.102h.506v.101h.608v.102h.506v.101h.507v.101h.506v.102h.507v.101h.506v.102h.507v.101h.607v.102h.507v.101h.506v.101h.507v.102h.507v.101h.506v.102h.507v.101h.607v.102h.507v.101h.506v.102h.507v.101h.506v.101h.608v.102h.506v.101h.507v.102h.506v.101h.507v.102h.506v.101h.507v.101h.507v.102h.607v.101h.507v.102h.506v.101h.507v.102h.506v.101h.507v.101h.607v.102h.507v.101h.506v.102h.507v.101h.506v.102h.507v.101h.608v.102h.506v.1h.507v.102h.506v.102h-.911v.101h-1.215v.102h-1.114v.101h-1.215v.101h-1.215v.102h-1.216v.101h-1.215v.102h-1.215v.101h-1.215v.102H98.16l-.009.017zm-42.223-1.22v-.102h.607V9.25h.507v-.1h.506v-.102h.507v-.101h.506v-.101h.608v-.102h.506v-.101h.507V8.54h.507v-.1h.506v-.102h.507v-.101h.506v-.102h.608v-.101h.506v-.101h.507V7.83h.506v-.1h.507v-.102h.506v-.101h.608v-.102h.506v-.101h.507v-.101h.507V7.12h.506v-.1h.507v-.102h.607v-.101h.507v-.102h.506v-.101h.507v-.101h.506V6.41h.507v-.1h.506v-.102h.608v-.101h.506v-.102h.507v-.101h.507v-.102h.506v-.1h.507V5.6h.607v-.102h.507v-.101h.506v-.102h.507v-.101h.506v-.102h.507v-.101h.607V4.89h.507v-.102h.507v7.118h-.608v-.101h-1.316v-.102h-1.114v-.101h-1.215V11.5h-1.215v-.102h-1.215v-.101h-1.216v-.102h-1.215v-.101h-1.114v-.102h-1.215v-.101h-1.316v-.102h-1.114v-.101h-1.215v-.101h-1.215v-.102h-1.215v-.101h-1.215v-.102h-1.215v-.101h-1.215v-.102h-1.115V9.98h-1.316v-.101h-1.114v-.102h-.911v-.101h.506v-.102h.507v-.101h.507l-.01-.018zM77.595.81v.101h-.607v.102h-.507v.101h-.506v.101h-.507v.102h-.506v.101h-.608v.102h-.506v.101h-.507v.102h-.506v.101h-.507v.101h-.507v.102h-.506v.101h-.608v.102h-.506v.101h-.507v.102h-.506v.101h-.507v.102h-.506v.101h-.608v.101h-.506v.102h-.507v.101h-.507v.102h-.506v.101h-.507v.102h-.506v.101h-.608v.101h-.506v.102h-.507v.101h-.506v.102h-.507v.101h-.506v.102h-.507v.101h-.608v.101h-.506v.102h-.507v.101h-.506v.102h-.507v.101h-.607v.102h-.507v.101h-.506v.101h-.507v.102h-.506v.101h-.507v.102h-.506v.101h-.608v.102h-.507v.101h-.506v.102h-.506v.101h-.507v.101h-.507v.102h-.607v.101h-.507v.102h-.506v.101h-.507v.102h-.506v.101h-.507v.101h-.506v.102h-.608v.101H46.7v.102h-.506v.101h-.507V7.1h-.506v.1h-.507v.101h-.506v.102h-.608v.101h-.506v.102h-.507v.101h-.506v.102h-.507v.101h-.607v.102h-.507v.1h-.506v.102h-.507v.102H38.9v.101h-.506v.102h-.304v.101h-.304v.102h-.1v.101h-.203v.101h-.101v.102h-.203v.101h-.203v.102h-.101v.101h-.203v.102h-.203v.101h-.1v.101h-.203v.102h-.203v.101h-.101v.102h-.203v.101h-.203v.102h-.1v.101h-.203v.101h-.203v.102h-.101v.101h-.203v.102h-.203v.101h-.1v.102h-.203v.101h-.203v.101h-.101v.102h-.203v.101h-.203v.102h-.1v.101h-.203v.102h-.203v.101h-.101v.102h-.203v.101h-.203v.101h-.1v.102h-.204v.101h-.202v.102h-.101v.101h-.203v.102h-.203v.101h-.1v.101H31.1v.102h-.202v.101h-.101v.102h-.203v.101h-.203v.102h-.101v.101h-.203v.101h-.202v.102h-.102v.101h-.202v.102h-.203v.101h-.101v.102h-.203v.101h-.203v.101h-.1v.102h-.203v.101h-.203v.102h-.101v.101h-.203v.102h-.203v.101h-.1v.102h-.203v.101h-.203v.101h-.101v.102h-.203v.101h-.203v.102h-.1v.101h-.203v.102h-.203v.101h-.101v.102h-.203v.1h-.203v.102h-.1v.102h-.204v.101h-.202v.102h-.101v.101h-.203v.102h-.203v.101h-.1v.101h-.204v.102h-.202v.101h-.101v.102h-.203v.101h-.203v.102h-.101v.101h-.203v.101h-.203v.102h-.1v.101h-.203v.102h-.203v.101h-.101v.102h-.203v.101h-.203v.102h-.1v.1h-.203v.102h-.203v.102h-.101v.101h-.203v.102h-.203v.101h-.1v.102h-.203v.1h-.203v.102h-.101v.102h-.203v.101h-.203v.102h-.1v.101h-.203v.101h-.203v.102h-.101v.101h-.203v.102h-.203v.101h-.1v.102h-.204v.101h-.202v.102h-.101v.101h-.203v.101h-.203v.102h-.1v.101h-.204v.102h-.202v.101h-.101v.102h-.203v.101h-.203v.102h-.101v.1h-.203v.102h-.203v.102h-.1v.101h-.203v.102h-.203v.101h-.203v.102h-.1v.101H15.7v.101h-.202v.102h-.101v.101h-.203v.102h-.203v.101h-.1v.102h-.204v.101h-.202v.101h-.101v.102h-.203v.101h-.203v.102h-.101v.101h-.203v.102h-.202v.101h-.101v.101h-.203v.102h-.203v.101h-.101v.102h-.203v.101h-.203v.102h-.1v.101h-.203v.101h-.203v.102h-.101v.101h-.203v.102h-.203v.101h-.1v.102h-.203v.101h-.203v.102h-.101v.101h-.203v.101h-.203v.102h-.1v.101h-.204v.102h-.202v.101h-.101v.102h-.203v.101h-.203v.101h-.1v.102h-.204v.101h-.202v.102h-.101v.101h-.203v.102h-.203v.101h-.1v.102h-.204v.1H7.9v.102h-.101v.102h-.203v.101h-.203v.102h-.101v.101h-.203v.101h-.203v.102h-.1v.101h-.203v.102H6.38v.101h-.101v.102h-.203v.101h-.203v.102h-.1v.101H5.57v.101h-.203v.102h-.101v.101h-.203v.102H4.86v.101h-.1v.102h-.203v.101h-.203v.102h-.101v.1H4.05v.102h-.203v.102h-.1v.101h-.204v.102h-.202v.101H3.24v.102h-.203v.1h-.203v.102h-.1v.102H2.53v.101h-.202v.102h-.101v.101h-.203v.102H1.82v.101h-.1v.101h-.204v.102h-.202v.101h-.101v.102H1.01v.101h-.1v.102H.707v.101H.606v.204H.505v.101H.404v.102H.303v.203H.202v.305H.101v.407H0v63.046h.101v.509h.101v.204h.101v.203h.101v.102h.101v.203h.101v.102h.101v.101h.101v.102h.203v.101h.203v.102h.202v.1h.304v.102h.911v-.101h.304v-.102h.203v-.1h.203v-.102h.1v-.102h.102v-.101h.1v-.102h.102v-.101h.1v-.102h.102v-.101h.1v-.101h.102v-.102h.1v-.101h.102v-.102h.1v-.203h.102v-.102h.1v-.101h.102v-.102h.1v-.101h.102v-.102h.1v-.1h.102V94.9h.1v-.1h.102v-.102h.1v-.1h.102v-.102h.1v-.102h.102v-.101h.1v-.204h.102v-.101h.1v-.102h.102v-.101h.1v-.102h.102v-.101h.1v-.101h.102v-.204h.1v-.102h.102v-.1h.1v-.102h.102v-.102h.1v-.101h.102v-.102h.1v-.203h.102v-.102h.1v-.101h.102v-.102h.1v-.101h.102v-.102h.1v-.1h.102v-.102h.1v-.204h.102v-.101h.1v-.102h.102v-.101h.1v-.102h.102v-.101h.1v-.102h.102v-.203h.1v-.102h.102v-.101h.1v-.102H9.2v-.101h.1v-.101h.102v-.102h.1v-.203h.102v-.102h.1v-.101h.102v-.102h.1v-.101h.102v-.102h.1v-.101h.102v-.204h.1v-.101h.102v-.102h.1v-.101h.102v-.101h.1v-.102h.102v-.101h.1v-.204h.102v-.101h.1v-.102h.102v-.101h.1v-.102h.102v-.101h.1v-.102h.102v-.203h.1v-.102h.102v-.101h.1v-.102h.102v-.1h.1v-.102h.102v-.102h.1v-.101h.102v-.204h.1v-.101h.102v-.102h.1v-.101h.102v-.102h.1v-.101h.102v-.102h.1v-.203h.102v-.102h.1v-.101h.102v-.101h.1v-.102h.102v-.101h.1v-.102h.102v-.203h.1v-.102h.102v-.101h.1v-.102h.102v-.101h.1v-.102h.102v-.1h.1v-.205h.102v-.101h.1v-.101h.102v-.102h.1v-.101h.102v-.102h.1v-.101h.102v-.204h.1v-.101h.102v-.102h.1v-.101h.102v-.102h.1v-.101h.102v-.101h.1v-.204h.102v-.102h.1v-.1h.102v-.102h.1v-.102h.102v-.101h.1v-.102h.102v-.203h.1V81.6h.102v-.1h.1v-.102h.102v-.101h.1v-.102h.102v-.1h.1v-.102h.102v-.204h.101v-.101h.101v-.102h.101v-.101h.101v-.102h.101v-.101h.101v-.102h.101v-.203h.101v-.102h.101v-.101h.101v-.102h.101v-.1h.101v-.102h.101v-.102h.101v-.203h.101v-.102h.101v-.101h.101v-.102h.101v-.101h.101v-.102h.101v-.101h.101v-.204h.101v-.101h.101v-.102h.101v-.101h.101v-.101h.101v-.102h.101v-.101h.101v-.204h.101v-.101h.101v-.102h.101v-.101h.101v-.102h.101v-.101h.101v-.102h.101v-.203h.101v-.102h.101v-.101h.101v-.102h.101v-.1h.101v-.102h.101v-.102h.101v-.203h.101v-.102h.101v-.101h.101v-.102h.101v-.101h.101v-.102h.101v-.101h.101v-.101h.101v-.204h.101V74.9h.101v-.1h.101v-.102h.101v-.102h.101v-.101h.101v-.102h.101v-.203h.101v-.102h.101v-.101h.101v-.102h.101v-.101h.101v-.102h.101v-.1h.101v-.205h.101v-.101h.101v-.101h.101v-.102h.101v-.101h.101v-.102h.101v-.101h.101v-.204h.101v-.101h.101v-.102h.101v-.101h.101v-.102h.101v-.101h.101v-.101h.101v-.204h.101v-.102h.101v-.1h.101v-.102h.101v-.102h.101v-.101h.101v-.102h.101v-.203h.101v-.102h.101v-.101h.101v-.102h.101v-.101h.101v-.101h.101v-.102h.101v-.101h.101v-.204h.101v-.101h.101v-.102h.101v-.101h.101v-.102h.101v-.101h.101v-.102h.101v-.203h.101v-.102h.101v-.101h.101v-.102h.101v-.1h.101v-.102h.101v-.102h.101v-.203h.101V68.3h.101v-.1h.101v-.102h.101v-.101h.101v-.102h.101v-.101h.101v-.204h.101v-.101h.101v-.102h.101v-.101h.101v-.101h.101v-.102h.101v-.101h.101v-.204h.101v-.101h.101v-.102h.101v-.101h.101v-.102h.101v-.101h.101v-.102h.101v-.203h.101v-.102h.101v-.101h.101v-.101h.101v-.102h.101v-.101h.101v-.102h.101v-.203h.101v-.102h.101v-.101h.101v-.102h.101v-.101h.101v-.102h.101v-.101h.101v-.101h.101v-.204h.101v-.102h.101v-.1h.101v-.102h.101v-.102h.101v-.101h.101v-.102h.101v-.203h.101v-.102h.101v-.101h.101v-.102h.101v-.101h.101v-.102h.101v-.1h.101v-.205h.101v-.101h.101v-.101h.101v-.102h.101v-.101h.101v-.102h.101v-.101h.101v-.204h.101v-.101h.101V61.6h.101v-.1h.101v-.102h.101v-.1h.101v-.102h.101v-.204h.101v-.102h.101v-.1h.101v-.102h.101v-.102h.101v-.101h.101v-.102h.101v-.203h.101v-.102h.101v-.101h.101v-.102h.101v-.101h.101v-.101h.101v-.102h.101v-.203h.101v-.102h.101v-.101h.101v-.102h.101v-.101h.101v-.102h.101v-.101h.101v-.102h.101v-.203h.101v-.102h.101v-.101h.101v-.102h.101v-.1h.101v-.102h.101v-.102h.101v-.203h.101v-.102h.101v-.101h.101v-.102h.101v-.101h.101v-.102h.101v-.101h.101v-.204h.101v-.101h.101v-.101h.101v-.102h.101v-.101h.101v-.102h.101v-.101h.101v-.204h.101v-.101h.101v-.102h.101v-.101h.101v-.102h.101v-.101h.101v-.102h.101v-.203h.101v-.102h.101v-.101h.101V54.9h.101v-.102h.101v-.101h.101v-.102h.101v-.101h.101v-.102h.203v-.101h.304v-.101h.203v-.102h.202v-.101h.304v-.102h.203v-.101h.304v-.102h.203v-.101h.202v-.102h.304v-.1h.203v-.102h.304v-.102h.202v-.101h.203v-.102h.304v-.101h.203v-.102h.202v-.101h.304v-.101h.203v-.102h.304v-.101h.203v-.102h.303v-.101h.203v-.102h.203v-.101h.304v-.102h.202v-.1h.203v-.102h.304v-.102h.203v-.101h.303v-.102h.203v-.101h.203v-.101h.304v-.102h.203v-.101h.303v-.102h.203v-.101h.203v-.102h.304v-.101h.202v-.101h.304v-.102h.203v-.101h.203v-.102h.303v-.101h.203v-.102h.304v-.101h.203v-.102h.203v-.101h.303v-.101h.203v-.102h.203v-.101h.304v-.102h.202v-.101h.304v-.102h.203v-.101h.203v-.102h.303v-.1h.203v-.102h.304v-.102h.203v-.101h.203v-.102h.303v-.101h.203v-.102h.304v-.1h.203V47.9h.202v-.102h.304v-.101h.203v-.102h.203v-.101h.303v-.101h.203v-.102h.304v-.101h.203v-.102h.304v-.101h.202v-.102h.203v-.101h.304v-.102h.203v-.101h.202v-.101h.304v-.102h.203v-.101h.304v-.102h.202v-.101h.203v-.102h.304v-.101h.203v-.102h.303v-.1h.203v-.102h.203v-.102h.304v-.101h.203v-.102h.303v-.101h.203v-.102h.203v-.101h.304v-.101h.202v-.102h.203v-.101h.304v-.102h.203v-.101h.304v-.102h.202v-.101h.304v-.101h.203v-.102h.203v-.101h.303v-.102h.203v-.101h.203v-.102h.304v-.101h.202v-.102h.304v-.1h.203v-.102h.203v-.102h.303v-.101h.203v-.102h.304v-.101h.203v-.102h.203v-.1h.303v-.102h.203v-.102h.304v-.101h.203v-.102h.202v-.101h.304v-.102h.203v-.101h.304v-.101h.203v-.102h.202v-.101h.304v-.102h.203v-.101h.203v-.102h.303v-.101h.203v-.101h.304v-.102h.203v-.101h.202V40.8h.304v-.1h.203v-.102h.304v-.101h.203v-.102h.202v-.1h.304v-.102h.203v-.102h.304v-.101h.202v-.102h.203v-.101h.304v-.102h.203v-.101h.202v-.101h.304v-.102h.203v-.101h.304v-.102h.203v-.101h.303v-.102h.203v-.101h.203v-.101h.304v-.102h.202v-.101h.203v-.102h.304v-.101h.203v-.102h.303v-.101h.203v-.101h.203v-.102h.304v-.101h.203v-.102h.303v-.101h.203v-.102h.203v-.101h.304v-.102h.202v-.1h.304v-.102h.405v.101h.203v.102h.202v.1h.304v.102h.203v.102h.304v.101h.203v.102h.202v.101h.304v.102h.203v.101h.203v.101h.303v.102h.203v.101h.304v.102h.203v.101h.202v.102h.304v.101h.203v.101h.304v.102h.203v.101h.202v.102h.304v.101h.203v.102h.304v.101h.202v.102h.203v.1h.304v.102h.203v.102h.303v.101h.203v.102h.203v.101h.304v.102h.203v.101h.202v.101h.304v.102h.203v.101h.304v.102h.202v.101h.304v.102h.203v.101h.203v.101h.303v.102h.203v.101h.203v.102h.304v.101h.203v.102h.303v.101h.203v.102h.203v.1h.304v.102h.202v.102h.304v.101h.203v.102h.203v.101h.303v.102h.203v.1h.304v.102h.203v.102h.203v.101h.303v.102h.203v.101h.203v.102h.304v.101h.202v.101h.304v.102h.203v.101h.304v.102h.202v.101h.203v.102h.304v.101h.203v.101h.202v.102h.304v.101h.203v.102h.304v.101h.203v.102h.202v.101h.304v.101h.203v.102h.304v.101h.202v.102h.203v.101h.304v.102h.203v.101h.304v.102h.202v.1h.203v.102h.304v.102h.203v.101h.202v.102h.304v.101h.203v.102h.304v.101h.202v.101h.203v.102h.304v.101h.203v.102h.304v.101h.202v.102h.203v.101h.304v.102h.203v.1h.303v.102h.203v.102h.203v.101h.304v.102h.202v.101h.304v.101h.203v.102h.203v.101h.304v.102h.202v.101h.304v.102h.203v.101h.203v.101h.303v.102h.203v.101h.203v.102h.304v.101h.202v.102h.304v.101h.203v.102h.203v.101h.304v.101h.202v.102h.304v.101h.203v.102h.203v.101h.303v.102h.203v.101h.304v.102h.203v.1h.202v.102h.304v.102h.203v.101h.304v.102h.203v.101h.202v.102h.304v.1h.203v.102h.203v.102h.303v.101h.203v.102h.304v.101h.203v.101h.303v.102h.203v.101h.203v.102h.304v.101h.203v.102h.202v.101h.304v.102h.203v.101h.304v.102h.202v.1h.203v.102h.304v.102h.203v.101h.303v.102h.203v.101h.203v.102h.304v.1h.203v.102h.303v.102h.203v.101h.203v.102h.304v.101h.202v.102h.203v.101h.304v.101h.203v.102h.202v.203h.101v.102h.101v.101h.101v.102h.101v.101h.101v.102h.101v.101h.101v.204h.101v.101h.101v.102h.101v.101h.101v.101h.101v.102h.101v.101h.101v.204h.101v.101h.101v.102h.101v.101h.101v.102h.101v.101h.101v.102h.101v.203h.101v.102h.101v.101h.101v.101h.101v.102h.101v.101h.101v.102h.101v.203h.101v.102h.102v.101h.1v.102h.102v.101h.101v.102h.101v.101h.101v.204h.101v.101h.101v.102h.101v.101h.101v.101h.101v.102h.101v.101h.101v.102h.101v.203h.101v.102h.101v.101h.101v.102h.101v.101h.101v.101h.101v.102h.101v.204h.101v.101h.101v.101h.101v.102h.101v.101h.101v.102h.101v.101h.101v.204h.101v.101h.101v.102h.101v.101h.101v.102h.101v.101h.101v.101h.101v.204h.101v.102h.101v.1h.101v.102h.101v.102h.101v.101h.101v.102h.101v.203h.101v.102h.101v.101h.101v.102h.101v.101h.101v.102h.101v.1h.101v.204h.101v.102h.101v.101h.101v.102h.101v.101h.101v.102h.101v.101h.101v.204h.101v.101h.101v.102h.101v.101h.101v.102h.101v.1h.101v.102h.101v.102h.101v.204h.101v.1h.101v.102h.101v.102h.101v.101h.101v.102h.101v.101h.101v.204h.101v.101h.101v.102h.101v.101h.101v.101h.101v.102h.101v.101h.101v.204h.101v.101h.101v.102h.101v.101h.101v.102h.101v.101h.101v.102h.101v.203h.101v.102h.101v.101h.101v.102h.101v.1h.101v.102h.101v.102h.101v.203h.101v.102h.101v.101h.101v.102h.101v.101h.101v.102h.101v.101h.101v.204h.101v.101h.101v.102h.101v.101h.101v.101h.101v.102h.101v.101h.101v.102h.101v.203h.101v.102h.101v.101h.101v.102h.101v.101h.101v.102h.101v.1h.101v.205h.101v.101h.101v.101h.101v.102h.101v.101h.101v.102h.101v.101h.101v.204h.101v.101h.101v.102h.101v.101h.101v.102h.101v.101h.101v.101h.101v.204h.101v.102h.101v.1h.101v.102h.101v.102h.101v.101h.101v.102h.101v.203h.101v.102h.101v.101h.101v.102h.101v.101h.101v.102h.101v.1h.101v.205h.101v.101h.101v.101h.101v.102h.101v.101h.101v.102h.101v.101h.101v.204h.101v.101h.101v.102h.101v.101h.101v.102h.101v.1h.101v.102h.101v.102h.101v.203h.101v.102h.101v.101h.101v.102h.101v.101h.101v.102h.101v.101h.101v.204h.101v.101h.101v.102h.101v.101h.101v.101h.101v.102h.101v.101h.101v.204h.101v.101h.101v.102h.101v.101h.101v.102h.101v.101h.101v.102h.101v.203h.101v.102h.101v.101h.101v.102h.101v.1h.101v.102h.101v.102h.101v.203h.101v.102h.101v.101h.101v.102h.101v.101h.101v.102h.101v.101h.101v.204h.101v.101h.101v.102h.101v.1h.101v.102h.101v.102h.101v.101h.101v.102h.101v.203h.101v.102h.101v.101h.101v.102h.101v.101h.101v.102h.101v.1h.101v.204h.101v.102h.101v.101h.101v.102h.101v.101h.101v.102h.101v.101h.101v.204h.101v.101h.101v.102h.101v.101h.101v.102h.101v.101h.101v.101h.101v.204h.101v.102h.101v.1h.101v.102h.101v.102h.101v.101h.101v.102h.101v.203h.101v.102h.101v.101h.101v.102h.101v.101h.101v.101h.101v.102h.101v.203h.101v.102h.101v.101h.101v.102h.101v.101h.101v.102h.101v.101h.101v.204h.101v.101h.101v.102h.101v.101h.101v.102h.101v.1h.101v.102h.101v.102h.101v.203h.101v.102h.101v.101h.101v.102h.101v.101h.101v.102h.101v.101h.101v.204h.101v.101h.101V88h.101v.101h.101v.101h.101v.102h.101v.101h.101v.204h.101v.101h.101v.102h.101v.101h.101v.102h.101v.101h.101v.102h.101v.203h.101v.102h.101v.101h.101v.101h.101v.102h.101v.101h.101v.102h.101v.203h.101v.102h.101v.101h.101v.102h.101v.101h.101v.102h.101v.101h.101v.204h.101v.101h.101v.102h.101v.1h.101v.102h.101v.102h.101v.101h.101v.204h.101v.101h.101v.102h.101v.101h.101v.102h.101v.101h.101v.102h.101v.1h.101v.204h.101v.102h.101v.101h.101v.102h.101v.101h.101v.102h.101v.101h.101v.204h.101v.101h.101v.102h.101v.101h.101v.102h.101v.1h.101v.102h.101v.204h.101v.101h.101v.102h.101v.101h.101v.102h.101v.101h.101v.102h.101v.203h.101v.102h.101v.101h.101v.102h.101v.101h.101v.101h.101v.102h.101v.203h.101v.102h.101v.101h.101v.102h.101v.101h.101v.102h.101v.101h.101v.102h.101v.101h.101v.101h.101v.102h.203v.101h.203v.102h.303v.101h.912v-.101h.404v-.102h.203v-.101h.101v-.102h.203v-.101h.101v-.102h.101v-.1h.101v-.102h.101v-.204h.101v-.204h.101v-.203h.101v-.407h.1V32.26h-.101v-.406h-.101v-.204h-.101v-.204h-.101v-.203h-.101v-.102h-.101v-.101h-.101v-.102h-.203v-.101h-.101v-.101h-.203v-.102h-.101v-.101h-.202v-.102h-.203v-.101h-.101v-.102h-.203v-.101h-.203v-.102h-.101v-.101h-.202v-.101h-.203v-.102h-.101v-.101h-.203v-.102h-.203v-.101h-.101v-.102h-.202v-.101h-.203v-.102h-.101v-.1h-.203v-.102h-.203v-.102h-.101v-.101h-.203v-.102h-.202v-.101h-.101V28.4h-.203v-.1h-.203v-.102h-.101v-.102h-.203v-.101h-.202v-.102h-.101v-.101h-.203v-.101h-.203v-.102h-.101v-.101h-.203v-.102h-.202v-.101h-.101v-.102h-.203v-.101h-.203v-.102h-.101v-.101h-.203v-.101h-.203v-.102h-.101v-.101h-.202v-.102h-.203v-.101h-.101v-.102h-.203v-.101h-.203v-.102h-.101v-.1h-.202v-.102h-.203v-.102h-.101v-.101h-.203v-.102h-.203v-.101h-.101v-.102h-.202v-.101h-.203v-.101h-.101v-.102h-.203v-.101h-.203v-.102h-.101v-.101h-.203v-.102h-.202v-.101h-.101v-.101h-.203v-.102h-.203v-.101h-.101v-.102h-.203v-.101h-.202v-.102h-.101v-.101h-.203v-.102h-.203v-.1h-.101v-.102h-.203v-.102h-.202v-.101h-.101v-.102h-.203v-.101h-.203v-.101h-.101v-.102h-.203v-.101h-.203v-.102h-.101v-.101h-.202v-.102h-.203v-.101h-.101v-.102h-.203v-.101h-.203v-.101h-.101v-.102h-.202v-.101h-.203v-.102h-.101v-.101h-.203v-.102h-.203v-.101h-.101v-.101h-.202V21.3h-.203v-.1h-.101v-.102h-.203v-.101h-.203v-.102h-.101v-.101h-.203v-.102h-.202v-.1h-.101v-.102h-.203v-.102h-.203v-.101h-.101v-.102h-.203v-.101h-.202v-.101h-.101v-.102h-.203v-.101h-.203v-.102h-.101v-.101h-.203v-.102h-.202v-.101h-.101v-.102h-.203v-.101h-.203v-.101h-.101v-.102h-.203v-.101h-.203v-.102h-.101v-.101h-.202v-.102h-.203v-.101h-.101v-.101h-.203v-.102h-.203v-.101h-.101v-.102h-.202v-.101h-.203v-.102h-.101v-.101h-.203v-.102h-.203v-.1h-.101v-.102h-.202v-.102h-.203v-.101h-.101v-.102h-.203v-.101h-.203v-.102h-.101v-.101h-.203v-.101h-.202v-.102h-.101v-.101h-.203v-.102h-.203v-.101h-.101v-.102h-.203v-.101h-.202v-.101h-.101v-.102h-.203v-.101h-.203v-.102h-.101v-.101h-.203v-.102h-.202v-.101h-.101v-.101h-.203v-.102h-.203v-.101h-.101v-.102h-.203v-.101h-.203v-.102h-.101v-.101h-.202v-.101h-.203v-.102h-.101v-.101h-.203v-.102h-.203v-.101h-.101v-.102h-.202v-.101h-.203v-.102h-.101v-.101h-.203v-.101h-.203v-.102h-.101v-.101h-.202v-.102h-.203v-.101h-.101v-.102h-.203v-.101h-.203v-.102h-.101v-.1h-.203v-.102h-.202v-.102h-.101v-.101h-.203v-.102h-.203v-.101h-.101v-.101h-.203v-.102h-.202v-.101h-.101v-.102h-.203v-.101h-.203v-.102h-.101v-.101h-.203v-.101h-.202v-.102h-.101v-.101h-.203v-.102h-.203v-.101h-.101v-.102h-.203v-.101h-.203v-.102h-.101v-.101h-.202v-.101h-.203v-.102h-.101v-.101h-.203v-.102h-.203v-.101h-.101v-.102h-.202v-.101h-.203v-.101h-.101v-.102h-.203v-.101h-.203v-.102h-.101v-.101h-.202v-.102h-.203v-.101h-.101V9.23h-.203v-.1h-.203v-.101h-.101v-.102h-.203v-.101h-.202v-.102h-.101v-.101h-.203V8.52h-.405v-.1h-.506v-.101h-.507v-.102h-.506v-.101h-.507v-.102h-.507v-.101h-.506V7.81h-.608v-.1h-.506v-.101h-.507v-.102h-.506v-.101h-.507v-.102h-.506v-.101h-.608V7.1h-.506V7h-.507v-.101h-.507v-.102h-.506v-.101h-.507v-.102h-.607v-.101h-.507V6.39h-.506v-.1h-.507v-.102h-.506v-.101h-.507v-.101h-.506v-.102h-.608v-.101h-.506V5.68h-.507v-.1h-.507v-.102h-.506v-.101h-.608v-.101h-.506v-.102h-.507v-.101h-.506V4.97h-.507v-.1h-.506v-.102h-.507v-.101h-.506v-.101h-.608v-.102h-.506v-.101h-.507V4.26h-.507v-.1h-.506v-.102h-.507v-.101h-.607v-.102h-.507v-.101h-.506v-.101h-.507V3.55h-.506v-.1h-.507v-.102h-.607v-.101h-.507v-.102h-.507v-.101h-.506v-.101h-.507V2.84h-.506v-.1h-.507v-.102h-.607v-.101h-.507v-.102h-.506v-.101h-.507v-.101h-.506V2.13h-.608v-.1h-.506v-.102h-.507v-.101h-.507v-.102h-.506v-.101h-.507v-.101h-.506V1.42h-.507v-.1h-.607v-.102h-.507v-.101h-.506v-.102h-.507V.913h-.506V.81h-.507v-.1h-.607V.609h-.507V.507h-.507V.406h-.506V.304h-.507V.203h-.506V.1h-.507V0h-.91v.101h-.507v.102h-.507v.101h-.507v.102h-.506v.101h-.507V.61h-.506v.1h-.507v.101h-.506.206z" fill="#D5B378"/><path fill-rule="evenodd" clip-rule="evenodd" d="M92.073 96.42a.919.919 0 00-.919-.92h-.913v-3.674a1.836 1.836 0 00-1.831-1.837V52.4l.776-4.67h1.052a.919.919 0 000-1.837H73.763a.919.919 0 100 1.837h1.052l.776 4.67v37.588c-1.01 0-1.831.824-1.831 1.837V95.5h-.913a.919.919 0 100 1.837h18.308a.919.919 0 00.919-.919zm-7.326-39.502v33.07h1.832l.01-33.07h-1.842zm.916-1.838a.918.918 0 000-1.837.918.918 0 000 1.837zm-3.663 0a.918.918 0 000-1.837.918.918 0 000 1.837zm-3.663 0a.918.918 0 000-1.837.918.918 0 000 1.837zm.916 1.838H77.42v33.07h1.832v-33.07zm3.663 0h-1.832v33.07h1.832v-33.07zm-5.645-5.512h9.448l.61-3.675H76.67l.602 3.675zm11.139 40.42H75.59V95.5h12.82v-3.675z" fill="#FEFEFE"/></svg>