<svg width="164" height="98" viewBox="0 0 164 98" fill="none" xmlns="http://www.w3.org/2000/svg"><path fill-rule="evenodd" clip-rule="evenodd" d="M129.538 54.807h30.376v34.778h-.101v-.102h-.101v-.101h-.101v-.102h-.101v-.203h-.101v-.102h-.101v-.101h-.101v-.102h-.101v-.101h-.101v-.102h-.101v-.101h-.101v-.204h-.101v-.101h-.101v-.102h-.101v-.1h-.101v-.102h-.101v-.102h-.101v-.101h-.101v-.102h-.101v-.203h-.101v-.102h-.101v-.101h-.101v-.102h-.101v-.101h-.101v-.101h-.101v-.102h-.101v-.204h-.101v-.1h-.101v-.102h-.101v-.102h-.101v-.101h-.101v-.102h-.101v-.101h-.101v-.204h-.101v-.101h-.101v-.102h-.101v-.101h-.101v-.102h-.101v-.1h-.101v-.102h-.101v-.204h-.101v-.101h-.101v-.102h-.101v-.101h-.101v-.102h-.101v-.101h-.101v-.102h-.101v-.203h-.101V84h-.101v-.1h-.101v-.102h-.101v-.101h-.101v-.101h-.101v-.102h-.101v-.203h-.101v-.102h-.101v-.101h-.101v-.102h-.101v-.101h-.101v-.102h-.101v-.101h-.101v-.102h-.101v-.203h-.101v-.102h-.101v-.101h-.101v-.101h-.101v-.102h-.101v-.101h-.101v-.102h-.101v-.203h-.101v-.102h-.101v-.101h-.101v-.102h-.101v-.101h-.101v-.102h-.101v-.101h-.101v-.204h-.101v-.101h-.101v-.102h-.101v-.1h-.101v-.102h-.101v-.102h-.101v-.101h-.101v-.204h-.101v-.101h-.101v-.102h-.101v-.101h-.101v-.102h-.101v-.101h-.101v-.102h-.101v-.203h-.101v-.102h-.101v-.101h-.101v-.101h-.101v-.102h-.101v-.101h-.101v-.102h-.101v-.203h-.101v-.102h-.101v-.101h-.101v-.102h-.101v-.101h-.101v-.102h-.101v-.1h-.101v-.205h-.101v-.101h-.101V77.3h-.101v-.102h-.101v-.101h-.101v-.102h-.101v-.101h-.101v-.102h-.101v-.203h-.101v-.102h-.101v-.101h-.101v-.102h-.101v-.101h-.101v-.101h-.101v-.102h-.101v-.204h-.101v-.1h-.101v-.102h-.101v-.102h-.101v-.101h-.101v-.102h-.101v-.101h-.101v-.204h-.101v-.101h-.101v-.102h-.101v-.101h-.101v-.102h-.101v-.1h-.101v-.102h-.101v-.204h-.101v-.101h-.101v-.102h-.101v-.101h-.101v-.102h-.101v-.101h-.101v-.102h-.101v-.203h-.101v-.102h-.101v-.101h-.101v-.102h-.101v-.1h-.101v-.102h-.101v-.102h-.101v-.203h-.101v-.102h-.101v-.101h-.101v-.102h-.101v-.101h-.101v-.102h-.101v-.101h-.101v-.102h-.101v-.203h-.101v-.102h-.101v-.101h-.101v-.101h-.101v-.102h-.101v-.101h-.101v-.102h-.101v-.203h-.101V70.7h-.101v-.1h-.101v-.102h-.101v-.101h-.101v-.102h-.101v-.101h-.101v-.204h-.101v-.101h-.101v-.102h-.101v-.1h-.101v-.102h-.101v-.102h-.101v-.101h-.101v-.204h-.101v-.101h-.101v-.102h-.101v-.101h-.101v-.102h-.101v-.101h-.101v-.101h-.101v-.204h-.101v-.102h-.101v-.101h-.101v-.101h-.101v-.102h-.101v-.101h-.101v-.102h-.101v-.203h-.101v-.102h-.101v-.101h-.101v-.102h-.101v-.101h-.101v-.102h-.101v-.1h-.101v-.205h-.101v-.101h-.101v-.101h-.101v-.102h-.101v-.101h-.101v-.102h-.101v-.101h-.101v-.102h-.101v-.203h-.101v-.102h-.101v-.101h-.101v-.102h-.101v-.101h-.101v-.101h-.101v-.102h-.101v-.204h-.101v-.1h-.101v-.102h-.101v-.102h-.101v-.101h-.101v-.102h-.101v-.101h-.101v-.204h-.101v-.101h-.101V64h-.101v-.101h-.101v-.102h-.101v-.1h-.101v-.102h-.101v-.204h-.101v-.101h-.101v-.102h-.101v-.101h-.101v-.102h-.101v-.101h-.101v-.102h-.101v-.203h-.101v-.102h-.101v-.101h-.101v-.102h-.101v-.1h-.101v-.102h-.101v-.102h-.101v-.203h-.101v-.102h-.101v-.101h-.101v-.102h-.101v-.101h-.101v-.102h-.101v-.101h-.101v-.204h-.101v-.101h-.101v-.101h-.101v-.102h-.101v-.101h-.101v-.102h-.101v-.101h-.101v-.102h-.101v-.203h-.101v-.102h-.101v-.101h-.101v-.102h-.101v-.101h-.101v-.102h-.101v-.101h-.101v-.204h-.101v-.101h-.101v-.101h-.101v-.102h-.101v-.101h-.101v-.102h-.101v-.101h-.101v-.204h-.101v-.101h-.101v-.102h-.101v-.101h-.101v-.102h-.101v-.101h-.101v-.101h-.101v-.204h-.101V57.5h-.101v-.1h-.101v-.102h-.101v-.102h-.101v-.101h-.101v-.102h-.101v-.203h-.101v-.102h-.101v-.101h-.101v-.102h-.101v-.101h-.101v-.102h-.101v-.1h-.101v-.205h-.101v-.101h-.101v-.101h-.101v-.102h-.101v-.101h-.101v-.102h-.101v-.101h-.101v-.102h-.101v-.203h-.101v-.102h-.101v-.101l-.076-.055zm-94.977.305h-.101v.102h-.101v.101h-.101v.102h-.101v.101h-.101v.102h-.101v.101h-.101v.102h-.101v.203h-.101v.101h-.101v.102h-.101v.101h-.101v.102h-.101v.101h-.101v.102h-.101v.203h-.101v.102h-.101v.101h-.101v.102h-.101v.101h-.101v.102h-.101v.1h-.101v.205h-.101v.101h-.101v.101h-.101v.102h-.101v.101h-.101v.102h-.101v.101h-.101v.204h-.101v.101h-.101v.102h-.101v.101h-.101v.102h-.101v.101h-.101v.101h-.101v.204h-.101v.102h-.101v.1h-.101v.102h-.101v.102h-.101v.101h-.101v.102h-.101v.203h-.101v.102h-.101v.101h-.101v.102h-.101v.101h-.101v.101h-.101v.102h-.101v.204h-.101v.1h-.101v.101h-.101v.102h-.101v.101h-.101v.102h-.101v.101h-.101v.102h-.101v.203h-.101v.102H28.5v.101h-.1v.102h-.101v.1h-.101v.102h-.101v.102h-.101v.203h-.101v.102h-.101v.101h-.101v.102h-.101v.101h-.101v.102h-.101v.101h-.101v.204h-.101v.101h-.101v.102h-.101v.101h-.101v.101h-.101v.102h-.101v.101h-.101v.204h-.101v.101h-.101v.102h-.101v.101h-.101v.102h-.101v.101h-.101v.102h-.101v.203h-.101v.102h-.101v.101h-.101v.102h-.101v.1h-.101v.102h-.101v.102h-.101v.203h-.101v.102h-.101v.101h-.101v.102h-.101v.101h-.101v.102h-.101v.101h-.101v.204h-.101v.101h-.101v.102h-.101v.1h-.101v.102h-.101v.102h-.101v.101h-.101v.102h-.101v.203h-.101v.102h-.101v.101h-.101v.102h-.101v.101h-.101v.102h-.101v.1h-.101v.205h-.101v.101h-.101v.101h-.101v.102h-.101v.101h-.101v.102h-.101v.101h-.101v.204h-.101v.101h-.101v.102h-.101v.101h-.101v.102h-.101v.101h-.101v.101h-.101v.204h-.101v.101h-.101v.102h-.101v.101h-.101v.102h-.101v.101h-.101v.102h-.101v.203h-.101v.102h-.101v.101h-.101v.102h-.101v.101h-.101v.101h-.101v.102h-.101v.204h-.101v.101h-.101v.101h-.101v.102h-.101v.101h-.101v.102h-.101v.101h-.101v.102h-.101v.203h-.101v.102h-.101v.101h-.101v.101h-.101v.102h-.101v.101h-.101v.102h-.101v.203h-.101v.102H18.4v.101h-.1v.102h-.101v.101h-.101v.102h-.101v.101h-.101v.204h-.101v.101h-.101v.102h-.101v.101h-.101v.101h-.101v.102h-.101v.101h-.101v.204h-.101v.101h-.101v.102h-.101v.101h-.101v.102h-.101v.101h-.101v.102h-.101v.203h-.101v.102h-.101v.101h-.101v.102h-.101v.1h-.101v.102h-.101v.102h-.101v.203h-.101v.102h-.101v.101h-.101v.102h-.101v.101h-.101v.102h-.101v.101h-.101v.204h-.101v.101h-.101v.102h-.101v.1h-.101v.102h-.101v.102h-.101v.101h-.101v.102h-.101v.203h-.101v.102h-.101v.101h-.101v.102h-.101v.101h-.101v.102h-.101v.1h-.101v.204h-.101v.102h-.101v.101h-.101v.102h-.101v.101h-.101v.102h-.101v.101h-.101v.204h-.101v.101h-.101v.102h-.101v.101h-.101v.102h-.101v.101h-.101v.101h-.101v.204h-.101v.101h-.101v.102h-.101v.101h-.101v.102h-.101v.101h-.101v.102h-.101v.203h-.101v.102h-.101v.101h-.101v.102h-.101v.101h-.101v.101h-.101v.102h-.101v.204h-.101v.1h-.101v.102h-.101v.102h-.102v.101h-.1v.102h-.102v.101h-.1v.102h-.101v.203h-.101v.102h-.101v.101h-.101v.101h-.101v.102h-.101v.101H9.31v.102h-.1v.203h-.101v.102h-.101v.101h-.101v.102h-.101v.101h-.101v.102h-.101v.101h-.101v.204h-.101v.101H8.3v.102h-.1v.101h-.101v.101h-.102v.102h-.1v.101h-.102v.204h-.1v.101h-.102v.102h-.1v.101H7.39v.102h-.1v.101h-.102v.101h-.1v.204h-.102v.102h-.1v.101h-.102v.101h-.1v.102h-.102v.101h-.1v.102H6.38v.203h-.1v.102h-.102v.101h-.1v.102h-.102v.101h-.1v.102h-.102v.101h-.1v.204h-.102v.101h-.1v.102H5.37v.1h-.1v.102h-.102v.102h-.1v.101h-.102v.102h-.1v.203h-.102v.102h-.1v.101h-.102v.102h-.1v.101H4.36V54.753h30.377v.101h-.101v.204l-.076.054zm92.446-9.762h.101v-6.508h.101v-6.508h.101v-2.237h.101v.102h.202v.101h.101v.102h.203v.101h.101v.102h.101v.101h.203v.102h.101v.1h.101v.102h.203v.102h.101v.101h.202v.102h.101v.101h.101v.101h.203v.102h.101v.101h.101v.102h.203v.101h.101v.102h.203v.101h.101v.102h.101v.101h.203v.101h.101v.102h.101v.101h.202v.102h.101v.101h.203v.102h.101v.101h.101v.102h.203v.1h.101v.102h.203v.102h.101v.101h.101v.102h.202v.101h.101v.101h.101v.102h.203v.101h.101v.102h.203v.101h.101v.102h.101v.101h.203v.101h.101v.102h.101v.101h.203v.102h.1v.101h.203v.102h.101v.101h.101v.102h.203v.101h.101v.101h.101v.102h.203v.101h.101v.102h.203v.101h.101v.102h.101v.101h.202v.102h.101v.1h.101v.102h.203v.102h.101v.101h.203v.102h.101v.101h.101v.102h.203v.1h.101v.102h.202v.102h.101v.101h.101v.102h.203v.101h.101v.101h.101v.102h.203v.101h.101v.102h.203v.101h.101v.102h.101v.101h.203v.102h.101v.101h.101v.102h.202v.1h.101v.102h.203v.102h.101v.101h.101v.102h.203v.101h.101v.102h.101v.1h.203v.102h.101v.102h.202v.101h.101v.102h.101v.101h.203v.102h.101v.101h.101v.101h.203v.102h.101v.101h.203v.102h.101v.101h.101v.102h.202v.101h.101v.101h.203v.102h.101v.101h.101v.102h.203v.101h.101v.102h.101v.101h.203v.102h.101v.1h.203v.102h.101v.102h.101v.101h.202v.102h.101v.101h.101v.102h.203v.1h.101v.102h.203v.102h.101v.101h.101v.102h.203v.101h.101v.102h.101v.101h.202v.101h.101v.102h.203v.101h.101v.102h.101v.101h.203v.102h.101v.101h.203v.101h.101v.102h.101v.101h.202v.102h.102v.101h.101v.102h.202v.101h.101v.102h.203v.1h.101v.102h.101v.102h.203v.101h.101v.102h.101v.101h.203v.102h.101v.101h.202v.101h.101v.102h.101v.101h.203v.102h.101v.101h.101v.102h.203v.101h.101v.101h.203v.102h.101v.101h.101v.102h.202v.101h.101v.102h.101v.101h.203v.101h.101v.102h.203v.101h.101v.102h.101v.101h.203v.102h.101v.101h.203v.102h.101v.1h.101v.102h.202v.102h.101v.101h.101v.102h.203v.101h.101v.102h.203v.101h.101v.101h.101v.102h.203v.101h.101v.102h.101v.101h.202v.102h.101v.101h.203v.101h.101v.102h.101v.101h.203v.102h.101v.101h.101v.102h.203v.101h.101v.101h.202v.102h.101v.101h.101v.102h.203v.101h.101v.102h-28.351V45.3l.013.05zM8.843 50.434h.101v-.101h.203v-.102h.1v-.101h.204v-.102h.1v-.101h.102v-.101h.202v-.102h.101v-.101h.101v-.102h.203v-.101h.101v-.102h.203v-.101h.1v-.102h.102v-.1h.203v-.102h.1v-.102h.102v-.101h.202v-.102h.101v-.101h.203v-.101h.101v-.102h.101v-.101h.203V48.1h.1V48h.102v-.102h.203v-.101h.1v-.101h.204v-.102h.1v-.101h.101v-.102h.203v-.101h.101v-.102h.203v-.101h.101v-.102h.101v-.101h.203v-.102h.1v-.1h.102v-.102h.203v-.102h.1v-.101h.203v-.102h.101v-.101h.101v-.102h.203v-.1h.101v-.102h.101v-.102h.203v-.101h.1v-.102h.204v-.101h.1v-.102h.102v-.101h.202v-.101h.101v-.102h.101v-.101h.203v-.102h.101v-.101h.203v-.102h.101v-.101h.101v-.101h.203v-.102h.1v-.101h.102v-.102h.202v-.101h.102v-.102h.202v-.101h.101v-.102h.101v-.1h.203v-.102h.101v-.102h.203v-.101h.1v-.102h.102v-.101h.203v-.102h.1v-.1h.102v-.102h.202v-.102h.101v-.101h.203v-.102h.101v-.101h.101v-.102h.203v-.101h.1v-.101h.102v-.102h.203v-.101h.1v-.102h.203v-.101h.101v-.102h.102v-.101h.202v-.102h.101v-.1h.101v-.102h.203v-.102h.101v-.101h.203v-.102h.1v-.101h.102v-.102h.203v-.1h.1v-.102h.203v-.102h.101v-.101h.101v-.102h.203v-.101h.101v-.102h.101v-.101h.203v-.101h.1v-.102h.204v-.101h.1v-.102h.102v-.101h.202v-.102h.101v-.101h.101v-.101h.203v-.102h.101v-.101h.203v-.102h.1v-.101h.102v-.102h.203v-.101h.1v-.102h.102v-.1h.203v-.102h.1v-.102h.203v-.101h.101v-.102h.101v-.101h.203v-.102h.101v-.1h.101v-.102h.203v-.102h.1v-.101h.204v-.102h.1v-.101h.102v-.102h.202v-.101h.101v-.101h.203v-.102h.101v-.101h.101v-.102h.203v-.101h.1v-.102h.102v-.101h.203v-.101h.1v-.102h.203v-.101h.101v-.102h.101v-.101h.203v-.102h.101v-.101h.101v-.101h.203v-.102h.101v-.101h.203v-.102h.1v-.101h.102v-.102h.203v-.101h.1v-.102h.101v-.101h.203v-.101h.101v-.102h.203v-.101h.101v-.102h.101v-.101h.203V33.9h.1v-.1h.102v-.101h.203v-.102h.1v-.101h.203v-.102h.101v-.101h.101v-.102h.203v-.101h.101v-.102h.203v-.1h.1v-.102h.102v-.102h.203v-.101h.1v-.102h.102v-.101h.203v-.101h.1v-.102h.203v-.101h.101v-.102h.101v-.101h.203v-.102h.101v-.101h.101v-.102h.203v-.101h.1v-.101h.204v-.102h.1v-.101h.102v-.102h.202v-.101h.101v-.102h.101v-.101h.203v-.101h.101v-.102h.203v-.101h.1v-.102h.102v-.101h.203v-.102h.1v1.424h.102v6.508h.1v6.407h.102v6.101H8.83v-.101l.013-.052zm106.216-4.169h-.203v-.101h-.203v-.102h-.304v-.1h-.203v-.102h-.202v-.102h-.304v-.101h-.203v-.102h-.304v-.101h-.202v-.102h-.203v-.1h-.304v-.102h-.203v-.102h-.303v-.101h-.203v-.102h-.203v-.101h-.304v-.102h-.203v-.101h-.303v-.101h-.203v-.102h-.203v-.101h-.304v-.102h-.202v-.101h-.203v-.102h-.304v-.101h-.203v-.102h-.303v-.1h-.203v-.102h-.304v-.102h-.203v-.101h-.203v-.102h-.303v-.101h-.203v-.102h-.203v-.1h-.304v-.102h-.202v-.102h-.304v-.101h-.203v-.102h-.203v-.101h-.303v-.102h-.203v-.101h-.304v-.101h-.203v-.102h-.203v-.101h-.303v-.102h-.203v-.101h-.304v-.102h-.203v-.101h-.202v-.101h-.304v-.102h-.203v-.101h-.203v-.102h-.303v-.101h-.203v-.102h-.304v-.101h-.203v-.101h-.304v-.102h-.202v-.101h-.203v-.102h-.304v-.101h-.203v-.102h-.202v-.101h-.304v-.102h-.203v-.1h-.304v-.102h-.202v-.102h-.203v-.101h-.304v-.102h-.203v-.101h-.303v-.102h-.203v-.101h-.203v-.101h-.304v-.102h-.203v-.101h-.303v-.102h-.203v-.101h-.203v-.102h-.304v-.101h-.202v-.102h-.203v-.1h-.304v-.102h-.203v-.102H95.2v-.101h-.203v-.102h-.203v-.101h-.304v-.101h-.203v-.102h-.303v-.101h-.203v-.102h-.203v-.101h-.304v-.102h-.202v-.101h-.304v-.101h-.203v-.102h-.203v-.101h-.303v-.102h-.203v-.101h-.304v-.102h-.203v-.101h-.203v-.102h-.303v-.101h-.203v-.101h-.203v-.102h-.304v-.101h-.202v-.102h-.304v-.101h-.203v-.204h.507v-.101h.506v-.102h.507v-.101h.506v-.102h.405v-.101h.507v-.101h.506V34.7h.507v-.1h.506v-.102h.507v-.101h.506v-.102h.507v-.101h.506v-.101h.507v-.102h.405v-.101h.506v-.102h.507v-.101h.506v-.102h.507v-.101h.506v-.102h.507v-.1h.506v-.102h.507v-.102h.405v-.101h.506v-.102h.507v-.101h.506v-.102h.507v-.101h.506v-.101h.507v-.102h.405v-.101h.607v-.102h.405v-.101h.507v-.102h.506v-.101h.507v-.101h.506v-.102h.507v-.101h.506v-.102h.405v-.101h.507v-.102h.506v-.101h.507v-.102h.506v-.1h.507v-.102h.506v-.102h.507v-.101h.506v-.102h.507v-.101h.405v-.101h.506v-.102h.507v-.101h.506v-.102h.507v-.101h.506v-.102h.507v-.101h.506v-.102h.507v-.101h.405v-.101h.506v-.102h.507v-.101h.506v-.102h.507v-.101h.506v-.102h.507v-.101h.405v-.101h.607v-.102h.405v4.067h-.101v6.508h-.101v6.508h-.101v3.864h-.101v-.101h-.304v-.102h-.203v-.101h-.202v-.102h-.304v-.101h-.203v-.102h-.304v-.101h-.202v-.101h-.203v-.102h-.304v-.101h-.203v-.102h-.303v-.101h-.203v-.102h-.203v-.101h-.304v-.102h-.203v-.101h-.303v-.101h-.203v-.102h-.203v-.101h-.304v-.102h-.202v-.101h-.304v-.102h-.203v-.101h-.203v-.101h-.303v-.102h-.203v-.101h-.203v-.102h-.304v-.101h-.203v-.102h-.303v-.101h-.203v-.102h-.304v-.1l.009-.052zM42.662 28.877h.404v.102h.507v.101h.507v.102h.506v.1h.507v.102h.506v.102h.507v.101h.404v.102h.608v.101h.405v.102h.506v.1h.507v.102h.506v.102h.507v.101h.507v.102h.506v.101h.405v.102h.506v.101h.507v.101h.507v.102h.506v.101h.506v.102h.507v.101h.507v.102h.506v.101h.507v.101h.404v.102h.507v.101h.507v.102h.506v.101h.507v.102h.506v.101h.507v.102h.506v.1h.507v.102h.405v.102h.506v.101h.507v.102h.506v.101h.507v.102h.506v.1h.507v.102h.405v.102h.607v.101h.405v.102h.506v.101h.507v.102h.507v.101h.506v.101h.507v.102h.506v.101h.405v.102h.506v.101h.507v.102h.507v.101h.506v.101h.507v.102h.506v.101h.507v.102h.506v.101h.507v.102h.404v.101h.507v.102h.507v.1h.506v.205h-.203v.101h-.303v.101h-.203v.102h-.203v.101h-.304v.102h-.203v.101h-.202v.102h-.304v.101h-.203v.102h-.304v.1h-.202v.102h-.304v.102h-.203v.101h-.203v.102h-.303v.101h-.203v.102h-.203v.1h-.304v.102h-.203v.102h-.303v.101h-.203v.102h-.203v.101h-.304v.102h-.202v.101h-.304v.101h-.203v.102h-.203v.101h-.303v.102h-.203v.101h-.304v.102h-.203v.101h-.203v.102h-.303v.1h-.203v.102h-.203v.102h-.304v.101h-.202v.102h-.304v.101h-.203v.102h-.304v.1h-.202v.102h-.203v.102h-.304v.101h-.203v.102h-.203v.101h-.303v.102h-.203v.101h-.304v.101h-.203v.102h-.202v.101h-.304v.102h-.203v.101h-.304v.102h-.202v.101h-.203v.101h-.304v.102h-.203v.101h-.303v.102h-.203v.101h-.203v.102h-.304v.101h-.203v.102h-.303v.1h-.203v.102h-.203v.102h-.304v.101h-.202v.102h-.203v.101h-.304v.102h-.203v.1h-.303v.102h-.203v.102h-.203v.101h-.304v.102h-.203v.101h-.303v.102h-.203v.101h-.203v.101h-.304v.102h-.202v.101h-.304v.102h-.203v.101h-.203v.102h-.303v.101h-.203v.101H54v.102h-.304v.101h-.203v.102h-.303v.101h-.203v.102h-.304v.101h-.203v.102h-.202v.1h-.304v.102h-.203v.102h-.203v.101h-.303v.102h-.203v.101h-.304v.102h-.203v.101h-.203v.101h-.303v.102h-.203v.101h-.304v.102h-.203v.101h-.202v.102h-.304v.101h-.203v.101h-.304v.102h-.203v.101h-.202v.102h-.304v.101h-.203v.102h-.203v.101h-.303v.101h-.203v.102H46.4v.101h-.203v.102h-.303v.101h-.203v.102h-.203v.101h-.304v.102h-.203v.1h-.202v.102h-.304v.102h-.203v.101h-.304v.102h-.202v.101h-.203v.102h-.304v.101h-.203v.101h-.303v.102h-.203v.101h-.203v.102h-.304v.101h-.202v.102h-.304v.101h-.101V44.69h-.101v-6.508h-.101v-6.406h-.101V28.52h.506v.102h.507v.101h.506v.102l.009.051zm103.887 3.152h.506v.102h.507v.101h.608v.102h.506v.101h.608v.101h.506v.102h.608v.101h.506v.102h.608v.101h.506v.102h.507v.101h.607v.101h.608v.102h.506v.101h.507v.102h.608v.101h.506v.102h.608v.101h.506v.102h.608v.101h.506v.101h.608v.102h.506v.101h.608v.102h.101v14.033h-.101v-.102h-.203v-.1h-.101v-.102h-.101v-.102h-.203v-.101h-.101v-.102h-.101v-.101h-.202v-.102h-.101v-.101h-.203v-.101h-.101v-.102h-.101v-.101h-.203v-.102h-.101v-.101h-.101v-.102h-.203v-.101h-.101v-.101h-.203v-.102h-.101v-.101h-.101v-.102h-.202v-.101h-.101v-.102h-.101v-.101h-.203v-.102h-.101v-.1h-.203v-.102h-.101v-.102h-.101v-.101h-.203v-.102h-.101v-.101h-.101v-.102h-.202v-.1h-.101v-.102h-.203v-.102h-.101v-.101h-.101v-.102h-.203v-.101h-.101v-.102h-.203v-.101h-.101v-.101h-.101v-.102h-.202v-.101h-.101v-.102h-.101v-.101h-.203v-.102h-.101v-.101h-.203v-.102h-.101v-.1h-.101v-.102h-.203v-.102h-.101v-.101h-.101v-.102h-.203v-.101h-.101v-.102h-.202v-.1h-.101v-.102h-.101v-.102h-.203v-.101h-.101v-.102h-.101v-.101h-.203v-.102h-.101v-.101h-.203v-.101h-.101v-.102h-.101v-.101h-.202v-.102h-.101v-.101h-.101v-.102h-.203v-.101h-.101v-.101h-.203v-.102h-.101v-.101h-.101v-.102h-.203v-.101h-.101v-.102h-.202v-.101h-.102v-.101h-.101v-.102h-.202v-.101h-.101v-.102h-.101v-.101h-.203v-.102h-.101v-.101h-.203v-.102h-.101v-.1h-.101v-.102h-.203v-.102h-.101v-.101h-.101v-.102h-.202v-.101h-.101v-.102h-.203v-.101h-.101v-.101h-.101v-.102h-.203v-.101h-.101v-.102h-.101v-.101h-.203v-.102h-.101v-.101h-.202v-.102h-.101v-.1h-.101v-.102h-.203v-.102h-.101v-.101h-.203v-.102h-.101v-.101h-.101v-.101h-.203v-.102h-.101v-.101h-.101v-.102h-.203v-.101h-.101v-.102h-.202v-.101h-.101v-.101h-.101v-.102h-.203v-.101h-.101v-.102h-.101v-.101h-.203v-.102h-.101v-.101h-.203v-.102h-.101v-.101h-.101v-.101h-.202v-.102h-.101v-.101h-.101v-.102h-.203v-.101h-.101v-.102h-.203v-.101h-.101v-.102h-.101v-.1h-.203v-.102h-.101v-.102h-.101v-.101h-.202v-.102h-.101v-.101h-.203V34.6h-.101v-.1h-.101v-.102h-.203v-.102h-.101v-.101h-.203v-.102h-.101v-.101h-.101v-.101h-.203v-.102h-.101v-.101h-.101v-.102h-.202v-.101h-.101v-.102h-.203v-.101h-.101v-.102h-.101v-.101h-.203v-.102h-.101v-.1h-.101v-.102h-.203v-.102h-.101v-.101h-.202v-.102h-.101v-.101h-.101v-.102h-.203v-.1h-.101v-.102h-.101v-.102h-.203v-.101h-.101v-.102h-.203v-.101h-.101v-.101h-.101v-.102h-.203v-.101h-.101v-.102h-.101v-.101h-.202v-.102h-.101v-.101h-.203v-.102h-.101v-.101h-.101v-.101h-.203v-.102h-.101v-.101h-.203v-.102h-.101v-.101h-.101v-.102h-.202v-.101h-.101v-.102h-.101v-.1h.607v.1h.507v.102h.607v.101h.507v.102h.607v.101h.507v.102h.506v.101h.608v.102h.506v.101h.608v.101h.507v.102h.607v.101h.507v.102h.607v.101h.507v.102h.607v.101h.507v.102h.607v.1h.507v.102h.506v.102h.608v.101h.608v.102l-.018-.036zm-12.252-2.237h-.203v-.101h.203v.101zM19.88 31.622v-.1h.607v-.102h.608v-.102h.506v-.1h.507v-.102h.607v-.102h.507v-.101h.607v-.102h.507v-.101h.608v-.102h.506v-.101h.608v-.101h.506v-.102h.507v-.101h.607V30.1h.608V30h.506v-.102h.507v-.101h.608v-.102h.202v.102h-.1v.101h-.204V30h-.1v.101h-.203v.102H29.4v.101h-.1v.102h-.203v.101h-.101v.101h-.101v.102h-.203v.101h-.1v.102h-.204v.101h-.1v.102h-.102v.101h-.202v.102h-.101v.1h-.203v.102h-.101v.102h-.101v.101h-.203v.102h-.1v.101h-.102v.102h-.203v.101h-.1v.101h-.203v.102h-.102v.101h-.1v.102h-.203v.101h-.101v.102h-.101v.101h-.203v.101h-.101v.102h-.203v.101h-.1v.102h-.102v.101h-.203v.102h-.1v.101h-.102v.102h-.202v.1h-.101v.102h-.203v.102h-.101v.101h-.101v.102h-.203v.101h-.1v.102h-.102v.1h-.203v.102h-.1v.102h-.203v.101h-.101v.102h-.101v.101h-.203v.102h-.101v.101h-.203v.101h-.101v.102h-.101v.101h-.203v.102h-.1v.101h-.102v.102h-.203v.101h-.1v.101h-.203v.102h-.101v.101h-.101v.102H21v.101h-.101v.102h-.101v.101h-.203v.101h-.1v.102h-.204v.101h-.1V37h-.102v.101h-.202v.102h-.101v.101h-.101v.102h-.203v.101h-.101v.101h-.203v.102h-.1v.101h-.102v.102h-.203v.101h-.1v.102h-.102v.101h-.203v.101h-.1v.102h-.203v.101h-.101v.102h-.101v.101h-.203v.102h-.101v.101h-.203v.102h-.1v.1h-.102v.102h-.203v.102h-.1v.101h-.101v.102h-.203v.101h-.101v.101h-.203v.102h-.101v.101h-.101v.102h-.203v.101h-.1v.102h-.102v.101h-.203v.102h-.1v.101h-.203v.101h-.101v.102h-.101v.101h-.203v.102h-.101v.101h-.101v.102h-.203v.101h-.1v.101h-.204v.102h-.1v.101h-.102v.102h-.203v.101h-.1v.102h-.203v.101h-.101v.102h-.101v.1h-.203v.102h-.101v.102h-.101v.101h-.203v.102h-.1v.101h-.204v.102h-.1v.101h-.102v.101h-.202v.102h-.101v.101h-.101v.102h-.203v.101h-.101v.102h-.203v.101h-.1v.101h-.102v.102h-.203v.101h-.1v.102h-.102v.101h-.202v.102h-.101v.101h-.203v.102h-.101v.1h-.101v.102h-.203v.102h-.101v.101h-.101v.102h-.203v.101h-.1v.102h-.204v.1h-.1v.102h-.102v.102H8.45v.101h-.101v.102h-.203v.101h-.101v.102h-.101v.101H7.74v.101h-.1v.102h-.102v.101h-.203v.102h-.1v.101h-.203v.102h-.101v.101H6.83v.101h-.203v.102h-.101v.101h-.101v.102h-.203v.101h-.1v.102h-.204v.101h-.1v.102h-.102v.1h-.202v.102h-.101v.102h-.101v.101H5.11v.102h-.101v.101h-.203v.102h-.101v.101h-.101v.101h-.203v.102h-.1V34.428h.202v-.102h.507v-.101h.607v-.102h.507v-.101h.506v-.102h.608v-.101h.506v-.101h.608v-.102h.506v-.101h.608v-.102h.506v-.101h.608v-.102h.506v-.101h.608v-.102h.506v-.1h.608v-.102h.507v-.102h.506v-.101h.608V32.5h.506v-.1h.608v-.102h.506v-.101h.608v-.101h.506v-.102h.608v-.101h.506v-.102h.608v-.101h.507v-.102h.506l-.018.036zM150.7 28.37h.101v.1h-.101v-.1zm-137.301 0h.1v.1h-.1v-.1zm96.495-1.526v.102h-.607v.101h-.405v.101h-.507v.102h-.506v.101h-.507v.102h-.506v.101h-.507v.102h-.506v.101h-.405v.101h-.507v.102h-.506v.101h-.507v.102h-.506v.101h-.507v.102h-.506v.101h-.507v.101h-.506v.102h-.507v.101h-.405v.102h-.506v.101h-.507v.102h-.506v.101h-.507v.102h-.506v.1h-.507v.102h-.507v.102h-.506v.101h-.405v.102h-.506v.101h-.507v.102H94.5v.101h-.507v.101h-.507v.102h-.506v.101h-.405v.102h-.607v.101h-.405v.102h-.507v.101h-.506v.102h-.507v.1h-.506v.102h-.507v.102h-.506v.101h-.405v.102h-.507v.101h-.506v.101h-.507v.102h-.506v.101h-.507v.102h-.506v.101h-.507v.102h-.304V16.966h.101v.102h.304v.101h.405v.102h.405v.101h.404v.102h.304v.101h.405v.101h.405v.102h.303v.101h.405v.102h.405v.101h.304v.102h.405v.101h.404v.101h.405v.102h.304v.101h.405v.102h.405v.101h.303v.102h.405v.101h.405v.101h.404v.102h.304v.101h.405v.102h.405v.101h.304v.102h.404v.101h.405v.102h.405v.1h.304v.102h.404v.102h.405v.101h.304v.102h.405v.101h.405v.102h.303v.101h.405v.101h.405v.102h.304v.101h.404v.102h.405v.101h.405v.102h.304v.101h.405v.102h.404v.1h.405v.102h.304v.102h.405v.101h.404v.102h.304v.101h.405v.102h.405v.1h.303v.102h.405v.102h.405v.101h.304v.102h.405v.101h.404v.101h.405v.102h.304v.101h.405v.102h.404v.101h.405v.102h.304v.101h.405v.102h.404v.101h.304v.101h.405v.102h.405v.101h.304v.102h.404v.101h.405v.102h.304v.101h.405v.102h.404v.1h.405v.102h.304v.102h.405v.101h.405v.102h.404v.101h.304v.102h.405v.1h.405v.102h.303v.102h.405v.101h-.101v.102h-.506v.101h-.507v.101h-.506v.102h-.507v.101h-.405v.102h-.506v.101h-.507v.102h-.506v.101h-.507v.102h-.506v.101h-.507v.101h-.405l.026.038zM49.042 25.42v-.101h.404v-.102h.405v-.101h.405v-.102h.304v-.101h.405v-.101h.404v-.102h.405v-.101h.304v-.102h.405v-.101h.404v-.102h.304v-.101h.405V24.1h.405V24h.303v-.102h.405v-.102h.405v-.101h.304v-.102h.405v-.101h.404v-.102h.405v-.1h.304v-.102h.405v-.102h.404v-.101h.405v-.102h.304v-.101h.405v-.102h.404v-.101h.304v-.101h.405v-.102h.405v-.101h.304v-.102h.404v-.101h.405v-.102h.304v-.101h.405v-.101h.404v-.102h.405v-.101h.304v-.102h.405v-.101h.405v-.102h.404v-.101h.304v-.101h.405v-.102h.405v-.101h.303v-.102h.405v-.101h.405v-.102h.304v-.101h.404v-.102h.405v-.1h.304v-.102h.405v-.102h.405v-.101h.404v-.102h.304v-.101h.405v-.102h.405v-.101h.404v-.101h.304v-.102h.405v-.101h.405v-.102h.303v-.101h.405v-.102h.405v-.101h.304v-.102h.405v-.1h.404v-.102h.304v-.102h.405v-.101h.405v-.102h.404v-.101h.304v-.101h.405v-.102h.405v-.101h.405v-.102h.303v-.101h.405v-.102h.405v-.101h.304v-.101h.404v-.102h.405v-.101h.304V17h.101v.102h.101v15.05h-.405v-.102H79.1v-.101h-.507v-.102h-.506v-.101h-.507v-.102h-.405v-.101h-.607v-.102h-.405v-.101h-.507v-.101h-.506v-.102h-.507v-.101h-.506v-.102h-.507v-.101h-.506v-.102h-.405v-.101h-.507v-.101h-.506v-.102h-.507v-.101h-.506v-.102h-.507v-.101h-.506v-.102h-.507v-.101h-.506v-.102h-.405v-.1h-.507v-.102h-.506v-.102h-.507v-.101h-.506v-.102h-.507v-.101h-.506v-.102h-.507v-.101h-.506v-.101h-.507v-.102h-.405v-.101h-.506V28.6h-.507v-.1h-.506v-.102h-.507v-.101h-.506v-.101h-.507v-.102h-.405v-.101h-.607v-.102h-.405v-.101h-.507v-.102h-.506v-.101h-.507v-.102h-.506v-.1h-.507v-.102h-.506v-.102h-.405v-.101h-.507v-.102h-.506v-.101h-.507v-.101h-.506v-.102h-.507v-.101h-.506v-.102h-.507v-.101h-.506v-.102h-.405v-.101h-.507v-.102h-.506v-.101h-.507v-.101h-.506v-.102h-.507v-.101h-.1v-.102h.404v-.101h.304l.026-.038zm78.269-11.084h.203v.102h.101v.101h.203v.101h.202v.102h.101v.101h.203v.102h.203v.101h.101v.102h.203v.101h.203v.102h.101v.101h.202v.101h.203v.102h.101v.101h.203v.102h.203v.101h.101v.102h.202v.101h.203v.101h.101v.102h.203v.101h.203v.102h.101v.101h.202v.102h.203v.101h.101v.102h.203v.1h.203v.102h.101v.102h.203v.101h.202v.102h.101v.101h.203v.102h.203v.101h.101v.101h.203v.102h.202v.101h.101v.102h.203v.101h.203v.102h.101v.101h.203v.101h.202v.102h.101v.101h.203v.102h.203V19h.101v.102h.203v.101h.203v.101h.101v.102h.202v.101h.203v.102h.101v.101h.203v.102h.203v.101h.101v.101h.202v.102h.203v.101h.101v.102h.203v.101h.203v.102h.202v.101h.101v.102h.203v.101h.203v.101h.101v.102h.203v.101h.203v.102h.101v.101h.202v.102h.203v.101h.101v.102h.203v.1h.203v.102h.101v.102h.202v.101h.203v.102h.101v.101h.203v.102h.203v.1h.101v.102h.202v.102h.203v.101h.101v.102h.203v.101h.203v.101h.101v.102h.203v.101h.202v.102h.101v.101h.203v.102h.203v.101h.101v.102h.203v.101h.202v.101h.101v.102h.203v.101h.203v.102h.101v.101h.203v.102h.202v.101h.101v.102h.203v.1h.203v.102h.101v.102h.203v.101h.203v.102h.101v.101h.202v.102h.203v.101h.101v.101h.203v.102h.203v.101h.101v.102h.202V26h.203v.102h.101v.101h.203v.101h.203v.102h.101v.101h.202v.102h.203v.101h.101v.102h.203v.101h.203v.102h.101v.1h.203v.102h.202v.102h.101v.101h.203v.102h.203v.101h.101v.101h.203v.102h.202v.101h.101v.102h.203v.101h.203v.102h.101v.101h-.405v-.101h-.607v-.102h-.507v-.101h-.607v-.102h-.507v-.101h-.608v-.102h-.506v-.1h-.608v-.102h-.506v-.102h-.507v-.101h-.607v-.102h-.507v-.101h-.607v-.101h-.507v-.102h-.607v-.101h-.507v-.102h-.607v-.101h-.507v-.102h-.608v-.101h-.506v-.102h-.608v-.101h-.506v-.101h-.608V26h-.506v-.1h-.507v-.102h-.607v-.101h-.507v-.102h-.607v-.101h-.507v-.101h-.607v-.102h-.507v-.101h-.608v-.102h-.506v-.101h-.608v-.102h-.506v-.101h-.608v-.102h-.506v-.101h-.507v-.101h-.607v-.102h-.507v-.101h-.607v-.102h-.507v-.101h-.203V14.31l-.006.024zm-104.9 12.406v.101h-.607v.102h-.607v.101h-.507v.102h-.507v.101h-.607v.101h-.507v.102h-.607v.101h-.507v.102h-.607v.101h-.507v.102h-.607v.101h-.507v.102h-.607v.101h-.507v.101h-.607v.102H13.6v-.102h.1v-.101h.204v-.102h.202v-.1h.101v-.102h.203v-.102h.203v-.101h.1v-.102h.204v-.101h.202v-.102h.101v-.1h.203v-.102h.203v-.102h.101v-.101h.203v-.102h.203v-.101h.1v-.101h.203v-.102h.203v-.101h.101v-.102h.203v-.101h.203v-.102h.1v-.101h.203v-.102h.203v-.101h.101v-.101h.203v-.102h.203v-.101h.1v-.102h.203v-.101h.203v-.102h.101v-.101h.203v-.101h.203v-.102h.1v-.101h.204v-.102h.202v-.101h.101v-.102h.203v-.101h.203v-.102h.1v-.1h.204v-.102h.202v-.102h.101v-.101h.203V23.8h.203v-.101h.203v-.102h.1v-.101h.203v-.101h.203v-.102h.101v-.101h.203v-.102h.203v-.101h.1v-.102h.203v-.101h.203v-.102h.101v-.1h.203v-.102h.203v-.102h.1v-.101h.204v-.102h.202v-.101h.101v-.101h.203v-.102h.203v-.101h.1v-.102h.204v-.101h.202v-.102h.101v-.101h.203v-.101h.203v-.102h.101v-.101h.203v-.102h.203v-.101h.1v-.102h.203v-.101h.203v-.102h.101v-.101h.203v-.101h.203v-.102h.1v-.101h.203v-.102h.203v-.101h.101v-.102h.203v-.101h.203v-.102h.1v-.1h.203v-.102h.203v-.102h.101v-.101h.203v-.102H29v-.101h.1v-.102h.203v-.1h.203v-.102h.101v-.102h.203v-.101h.203v-.102h.1v-.101h.204v-.101h.202v-.102h.101v-.101h.203v-.102h.203v-.101h.1v-.102h.204v-.101h.202v-.102h.101v-.101h.203v-.101h.203v-.102h.101v-.101h.203v-.102h.202v-.101h.102V16.8h.202v-.1h.203v-.102h.101v-.1h.203v-.102h.203v-.102h.1v-.101h.203v-.102h.203v-.101h.101v-.102h.203v-.101h.203v-.101h.202v-.102h.101v-.101h.203v-.102h.203v-.101h.101v-.102h.203v-.101h.1v-.101h.203v-.102h.203v-.101h.203v-.102h.101v-.101h.203v-.102h.203v-.101h.1v9.762H36.7v.102h-.507v.101h-.506v.102h-.608v.1h-.506v.102h-.608v.102h-.506v.101h-.608v.102h-.507v.101h-.607v.101h-.507v.102h-.607v.101h-.507v.102h-.607v.101H29v.102h-.506v.101h-.608v.102h-.506v.101h-.608v.101h-.506v.102h-.608v.101h-.506v.102h-.608v.101h-.507v.102h-.607v.101h-.507v.101h-.506l-.006-.024zm43.844-10.474v.102h-.405v.1h-.405v.102h-.404v.102h-.304v.101h-.405v.102h-.405v.101h-.304v.102h-.404v.101h-.405v.101h-.405v.102h-.304v.101h-.404v.102h-.405v.101h-.304v.102h-.405v.101h-.405v.101h-.404v.102h-.304v.101h-.405v.102h-.405v.101h-.303v.102h-.405v.101h-.405v.101h-.304v.102h-.404v.101h-.405v.102h-.405v.101h-.304v.102h-.404v.101h-.405v.102h-.304v.101h-.405v.101h-.405v.102h-.404v.101h-.304v.102h-.405v.101h-.405v.102h-.303v.101h-.405v.101h-.405v.102h-.304v.101h-.405v.102h-.404v.101h-.304v.102h-.405v.101h-.405v.102h-.404v.1h-.304v.102h-.405v.102h-.405v.101h-.404v.102h-.304v.101h-.405v.101h-.405v.102h-.304v.101h-.404v.102h-.405v.101h-.304v.102h-.405v.101h-.405v.101h-.303v.102h-.405v.101h-.405v.102h-.405v.101h-.303v.102h-.405v.101h-.304v-10.17h.81v.102h1.215v.101h1.216v.102h1.215v.101h1.114v.102h1.316v.101h1.114v.101h1.215v.102h1.215v.101H52.8v.102h1.215v.101h1.215v.102h1.215v.101h1.114v.102h1.216v.1h1.316v.102h1.114v.102h1.215v.101h1.215v.102h1.215v.101h1.215v.101h1.215v.102h1.114v.101h1.215v.204h-.404v.102H68.8v.1h-.304v.102h-.405v.102h-.404v.101h-.304v.102h-.405v.101h-.405v.102h-.304l-.014.024zm40.299-1.932v-.101h1.316v-.102h1.114v-.101h1.215v-.101h1.215v-.102h1.215v-.101h1.215v-.102h1.215v-.101h1.215v-.102h1.114v-.101h1.317v-.101h1.215v-.102h1.114v-.101h1.215v-.102h.911v10.169h-.405v-.101h-.303v-.102h-.405v-.101h-.405v-.102h-.405v-.101h-.303v-.102h-.405v-.101h-.405v-.102h-.304v-.101h-.405v-.101h-.404v-.102h-.405v-.101h-.304v-.102h-.405v-.101h-.404v-.102h-.304v-.101h-.405v-.101h-.405v-.102h-.304v-.101h-.404v-.102h-.405v-.101h-.405v-.102h-.304v-.101h-.404v-.102h-.405v-.1h-.304v-.102h-.405v-.102h-.404v-.101h-.405v-.102h-.304v-.101h-.405v-.102h-.405v-.101h-.303v-.101h-.405v-.102h-.405v-.101h-.405v-.102h-.303v-.101h-.405v-.102h-.405v-.101h-.304v-.102h-.405v-.1h-.404v-.102h-.304v-.102h-.405v-.101h-.405v-.102h-.303v-.101h-.405v-.101h-.405v-.102h-.405v-.101h-.303v-.102h-.405v-.101h-.405v-.102h-.405v-.101h-.304v-.101h-.404v-.102h-.405v-.101h-.304v-.102h-.405v-.101h-.404V17.1h-.304v-.101h-.405v-.102h-.405v-.101h-.303v-.101h-.405v-.102h-.405v-.101h-.405v-.102h-.304v-.101h-.404v-.102h-.405v-.101h-.405v-.102h-.304v-.1h-.404v-.102h-.405v-.102h-.304v-.101h-.405v-.102h-.404v-.101h-.102v-.101h1.317v-.102h1.215v-.101h1.114v-.102h1.215v-.101h1.215v-.102h1.215v-.101h1.215v-.101h1.215v-.102h1.215v-.101h1.114l-.014-.026zm-8.404-3.66v.1h-1.316v.102H95.72v.102h-1.215v.101H93.29v.102h-1.215v.101h-1.216v.101h-1.215v.102H88.43v.101h-1.114v.102H86v.101h-1.215v.102h-.507V4.774h.405v.101h.608v.101h.506v.102h.507v.101h.507v.102h.506v.101h.608v.102h.506v.101h.507v.101h.506v.102h.507v.101h.506v.102h.507v.101h.607v.102h.507v.101h.506v.101h.507v.102h.507v.101h.506v.102h.507v.101h.607v.102h.507v.101h.506v.102h.507v.101h.506v.101h.608v.102h.506v.101h.507v.102h.506v.101h.507v.102h.506v.101h.507v.101h.507v.102h.607v.101h.507v.102h.506v.101h.507v.102h.506v.101h.507v.101h.607v.102h.507v.101h.506v.102h.507v.101h.506v.102h.507v.101h.608v.102h.506v.1h.507v.102h.506v.102h-.911v.101h-1.215v.102h-1.114v.101h-1.215v.101h-1.215v.102h-1.216v.101h-1.215v.102h-1.215v.101h-1.215v.102H98.16l-.009.017zm-42.223-1.22v-.102h.607V9.25h.507v-.1h.506v-.102h.507v-.101h.506v-.101h.608v-.102h.506v-.101h.507V8.54h.507v-.1h.506v-.102h.507v-.101h.506v-.102h.608v-.101h.506v-.101h.507V7.83h.506v-.1h.507v-.102h.506v-.101h.608v-.102h.506v-.101h.507v-.101h.507V7.12h.506v-.1h.507v-.102h.607v-.101h.507v-.102h.506v-.101h.507v-.101h.506V6.41h.507v-.1h.506v-.102h.608v-.101h.506v-.102h.507v-.101h.507v-.102h.506v-.1h.507V5.6h.607v-.102h.507v-.101h.506v-.102h.507v-.101h.506v-.102h.507v-.101h.607V4.89h.507v-.102h.507v7.118h-.608v-.101h-1.316v-.102h-1.114v-.101h-1.215V11.5h-1.215v-.102h-1.215v-.101h-1.216v-.102h-1.215v-.101h-1.114v-.102h-1.215v-.101h-1.316v-.102h-1.114v-.101h-1.215v-.101h-1.215v-.102h-1.215v-.101h-1.215v-.102h-1.215v-.101h-1.215v-.102h-1.115V9.98h-1.316v-.101h-1.114v-.102h-.911v-.101h.506v-.102h.507v-.101h.507l-.01-.018zM77.595.81v.101h-.607v.102h-.507v.101h-.506v.101h-.507v.102h-.506v.101h-.608v.102h-.506v.101h-.507v.102h-.506v.101h-.507v.101h-.507v.102h-.506v.101h-.608v.102h-.506v.101h-.507v.102h-.506v.101h-.507v.102h-.506v.101h-.608v.101h-.506v.102h-.507v.101h-.507v.102h-.506v.101h-.507v.102h-.506v.101h-.608v.101h-.506v.102h-.507v.101h-.506v.102h-.507v.101h-.506v.102h-.507v.101h-.608v.101h-.506v.102h-.507v.101h-.506v.102h-.507v.101h-.607v.102h-.507v.101h-.506v.101h-.507v.102h-.506v.101h-.507v.102h-.506v.101h-.608v.102h-.507v.101h-.506v.102h-.506v.101h-.507v.101h-.507v.102h-.607v.101h-.507v.102h-.506v.101h-.507v.102h-.506v.101h-.507v.101h-.506v.102h-.608v.101H46.7v.102h-.506v.101h-.507V7.1h-.506v.1h-.507v.101h-.506v.102h-.608v.101h-.506v.102h-.507v.101h-.506v.102h-.507v.101h-.607v.102h-.507v.1h-.506v.102h-.507v.102H38.9v.101h-.506v.102h-.304v.101h-.304v.102h-.1v.101h-.203v.101h-.101v.102h-.203v.101h-.203v.102h-.101v.101h-.203v.102h-.203v.101h-.1v.101h-.203v.102h-.203v.101h-.101v.102h-.203v.101h-.203v.102h-.1v.101h-.203v.101h-.203v.102h-.101v.101h-.203v.102h-.203v.101h-.1v.102h-.203v.101h-.203v.101h-.101v.102h-.203v.101h-.203v.102h-.1v.101h-.203v.102h-.203v.101h-.101v.102h-.203v.101h-.203v.101h-.1v.102h-.204v.101h-.202v.102h-.101v.101h-.203v.102h-.203v.101h-.1v.101H31.1v.102h-.202v.101h-.101v.102h-.203v.101h-.203v.102h-.101v.101h-.203v.101h-.202v.102h-.102v.101h-.202v.102h-.203v.101h-.101v.102h-.203v.101h-.203v.101h-.1v.102h-.203v.101h-.203v.102h-.101v.101h-.203v.102h-.203v.101h-.1v.102h-.203v.101h-.203v.101h-.101v.102h-.203v.101h-.203v.102h-.1v.101h-.203v.102h-.203v.101h-.101v.102h-.203v.1h-.203v.102h-.1v.102h-.204v.101h-.202v.102h-.101v.101h-.203v.102h-.203v.101h-.1v.101h-.204v.102h-.202v.101h-.101v.102h-.203v.101h-.203v.102h-.101v.101h-.203v.101h-.203v.102h-.1v.101h-.203v.102h-.203v.101h-.101v.102h-.203v.101h-.203v.102h-.1v.1h-.203v.102h-.203v.102h-.101v.101h-.203v.102h-.203v.101h-.1v.102h-.203v.1h-.203v.102h-.101v.102h-.203v.101h-.203v.102h-.1v.101h-.203v.101h-.203v.102h-.101v.101h-.203v.102h-.203v.101h-.1v.102h-.204v.101h-.202v.102h-.101v.101h-.203v.101h-.203v.102h-.1v.101h-.204v.102h-.202v.101h-.101v.102h-.203v.101h-.203v.102h-.101v.1h-.203v.102h-.203v.102h-.1v.101h-.203v.102h-.203v.101h-.203v.102h-.1v.101H15.7v.101h-.202v.102h-.101v.101h-.203v.102h-.203v.101h-.1v.102h-.204v.101h-.202v.101h-.101v.102h-.203v.101h-.203v.102h-.101v.101h-.203v.102h-.202v.101h-.101v.101h-.203v.102h-.203v.101h-.101v.102h-.203v.101h-.203v.102h-.1v.101h-.203v.101h-.203v.102h-.101v.101h-.203v.102h-.203v.101h-.1v.102h-.203v.101h-.203v.102h-.101v.101h-.203v.101h-.203v.102h-.1v.101h-.204v.102h-.202v.101h-.101v.102h-.203v.101h-.203v.101h-.1v.102h-.204v.101h-.202v.102h-.101v.101h-.203v.102h-.203v.101h-.1v.102h-.204v.1H7.9v.102h-.101v.102h-.203v.101h-.203v.102h-.101v.101h-.203v.101h-.203v.102h-.1v.101h-.203v.102H6.38v.101h-.101v.102h-.203v.101h-.203v.102h-.1v.101H5.57v.101h-.203v.102h-.101v.101h-.203v.102H4.86v.101h-.1v.102h-.203v.101h-.203v.102h-.101v.1H4.05v.102h-.203v.102h-.1v.101h-.204v.102h-.202v.101H3.24v.102h-.203v.1h-.203v.102h-.1v.102H2.53v.101h-.202v.102h-.101v.101h-.203v.102H1.82v.101h-.1v.101h-.204v.102h-.202v.101h-.101v.102H1.01v.101h-.1v.102H.707v.101H.606v.204H.505v.101H.404v.102H.303v.203H.202v.305H.101v.407H0v63.046h.101v.509h.101v.204h.101v.203h.101v.102h.101v.203h.101v.102h.101v.101h.101v.102h.203v.101h.203v.102h.202v.1h.304v.102h.911v-.101h.304v-.102h.203v-.1h.203v-.102h.1v-.102h.102v-.101h.1v-.102h.102v-.101h.1v-.102h.102v-.101h.1v-.101h.102v-.102h.1v-.101h.102v-.102h.1v-.203h.102v-.102h.1v-.101h.102v-.102h.1v-.101h.102v-.102h.1v-.1h.102V94.9h.1v-.1h.102v-.102h.1v-.1h.102v-.102h.1v-.102h.102v-.101h.1v-.204h.102v-.101h.1v-.102h.102v-.101h.1v-.102h.102v-.101h.1v-.101h.102v-.204h.1v-.102h.102v-.1h.1v-.102h.102v-.102h.1v-.101h.102v-.102h.1v-.203h.102v-.102h.1v-.101h.102v-.102h.1v-.101h.102v-.102h.1v-.1h.102v-.102h.1v-.204h.102v-.101h.1v-.102h.102v-.101h.1v-.102h.102v-.101h.1v-.102h.102v-.203h.1v-.102h.102v-.101h.1v-.102H9.2v-.101h.1v-.101h.102v-.102h.1v-.203h.102v-.102h.1v-.101h.102v-.102h.1v-.101h.102v-.102h.1v-.101h.102v-.204h.1v-.101h.102v-.102h.1v-.101h.102v-.101h.1v-.102h.102v-.101h.1v-.204h.102v-.101h.1v-.102h.102v-.101h.1v-.102h.102v-.101h.1v-.102h.102v-.203h.1v-.102h.102v-.101h.1v-.102h.102v-.1h.1v-.102h.102v-.102h.1v-.101h.102v-.204h.1v-.101h.102v-.102h.1v-.101h.102v-.102h.1v-.101h.102v-.102h.1v-.203h.102v-.102h.1v-.101h.102v-.101h.1v-.102h.102v-.101h.1v-.102h.102v-.203h.1v-.102h.102v-.101h.1v-.102h.102v-.101h.1v-.102h.102v-.1h.1v-.205h.102v-.101h.1v-.101h.102v-.102h.1v-.101h.102v-.102h.1v-.101h.102v-.204h.1v-.101h.102v-.102h.1v-.101h.102v-.102h.1v-.101h.102v-.101h.1v-.204h.102v-.102h.1v-.1h.102v-.102h.1v-.102h.102v-.101h.1v-.102h.102v-.203h.1V81.6h.102v-.1h.1v-.102h.102v-.101h.1v-.102h.102v-.1h.1v-.102h.102v-.204h.101v-.101h.101v-.102h.101v-.101h.101v-.102h.101v-.101h.101v-.102h.101v-.203h.101v-.102h.101v-.101h.101v-.102h.101v-.1h.101v-.102h.101v-.102h.101v-.203h.101v-.102h.101v-.101h.101v-.102h.101v-.101h.101v-.102h.101v-.101h.101v-.204h.101v-.101h.101v-.102h.101v-.101h.101v-.101h.101v-.102h.101v-.101h.101v-.204h.101v-.101h.101v-.102h.101v-.101h.101v-.102h.101v-.101h.101v-.102h.101v-.203h.101v-.102h.101v-.101h.101v-.102h.101v-.1h.101v-.102h.101v-.102h.101v-.203h.101v-.102h.101v-.101h.101v-.102h.101v-.101h.101v-.102h.101v-.101h.101v-.101h.101v-.204h.101V74.9h.101v-.1h.101v-.102h.101v-.102h.101v-.101h.101v-.102h.101v-.203h.101v-.102h.101v-.101h.101v-.102h.101v-.101h.101v-.102h.101v-.1h.101v-.205h.101v-.101h.101v-.101h.101v-.102h.101v-.101h.101v-.102h.101v-.101h.101v-.204h.101v-.101h.101v-.102h.101v-.101h.101v-.102h.101v-.101h.101v-.101h.101v-.204h.101v-.102h.101v-.1h.101v-.102h.101v-.102h.101v-.101h.101v-.102h.101v-.203h.101v-.102h.101v-.101h.101v-.102h.101v-.101h.101v-.101h.101v-.102h.101v-.101h.101v-.204h.101v-.101h.101v-.102h.101v-.101h.101v-.102h.101v-.101h.101v-.102h.101v-.203h.101v-.102h.101v-.101h.101v-.102h.101v-.1h.101v-.102h.101v-.102h.101v-.203h.101V68.3h.101v-.1h.101v-.102h.101v-.101h.101v-.102h.101v-.101h.101v-.204h.101v-.101h.101v-.102h.101v-.101h.101v-.101h.101v-.102h.101v-.101h.101v-.204h.101v-.101h.101v-.102h.101v-.101h.101v-.102h.101v-.101h.101v-.102h.101v-.203h.101v-.102h.101v-.101h.101v-.101h.101v-.102h.101v-.101h.101v-.102h.101v-.203h.101v-.102h.101v-.101h.101v-.102h.101v-.101h.101v-.102h.101v-.101h.101v-.101h.101v-.204h.101v-.102h.101v-.1h.101v-.102h.101v-.102h.101v-.101h.101v-.102h.101v-.203h.101v-.102h.101v-.101h.101v-.102h.101v-.101h.101v-.102h.101v-.1h.101v-.205h.101v-.101h.101v-.101h.101v-.102h.101v-.101h.101v-.102h.101v-.101h.101v-.204h.101v-.101h.101V61.6h.101v-.1h.101v-.102h.101v-.1h.101v-.102h.101v-.204h.101v-.102h.101v-.1h.101v-.102h.101v-.102h.101v-.101h.101v-.102h.101v-.203h.101v-.102h.101v-.101h.101v-.102h.101v-.101h.101v-.101h.101v-.102h.101v-.203h.101v-.102h.101v-.101h.101v-.102h.101v-.101h.101v-.102h.101v-.101h.101v-.102h.101v-.203h.101v-.102h.101v-.101h.101v-.102h.101v-.1h.101v-.102h.101v-.102h.101v-.203h.101v-.102h.101v-.101h.101v-.102h.101v-.101h.101v-.102h.101v-.101h.101v-.204h.101v-.101h.101v-.101h.101v-.102h.101v-.101h.101v-.102h.101v-.101h.101v-.204h.101v-.101h.101v-.102h.101v-.101h.101v-.102h.101v-.101h.101v-.102h.101v-.203h.101v-.102h.101v-.101h.101V54.9h.101v-.102h.101v-.101h.101v-.102h.101v-.101h.101v-.102h.203v-.101h.304v-.101h.203v-.102h.202v-.101h.304v-.102h.203v-.101h.304v-.102h.203v-.101h.202v-.102h.304v-.1h.203v-.102h.304v-.102h.202v-.101h.203v-.102h.304v-.101h.203v-.102h.202v-.101h.304v-.101h.203v-.102h.304v-.101h.203v-.102h.303v-.101h.203v-.102h.203v-.101h.304v-.102h.202v-.1h.203v-.102h.304v-.102h.203v-.101h.303v-.102h.203v-.101h.203v-.101h.304v-.102h.203v-.101h.303v-.102h.203v-.101h.203v-.102h.304v-.101h.202v-.101h.304v-.102h.203v-.101h.203v-.102h.303v-.101h.203v-.102h.304v-.101h.203v-.102h.203v-.101h.303v-.101h.203v-.102h.203v-.101h.304v-.102h.202v-.101h.304v-.102h.203v-.101h.203v-.102h.303v-.1h.203v-.102h.304v-.102h.203v-.101h.203v-.102h.303v-.101h.203v-.102h.304v-.1h.203V47.9h.202v-.102h.304v-.101h.203v-.102h.203v-.101h.303v-.101h.203v-.102h.304v-.101h.203v-.102h.304v-.101h.202v-.102h.203v-.101h.304v-.102h.203v-.101h.202v-.101h.304v-.102h.203v-.101h.304v-.102h.202v-.101h.203v-.102h.304v-.101h.203v-.102h.303v-.1h.203v-.102h.203v-.102h.304v-.101h.203v-.102h.303v-.101h.203v-.102h.203v-.101h.304v-.101h.202v-.102h.203v-.101h.304v-.102h.203v-.101h.304v-.102h.202v-.101h.304v-.101h.203v-.102h.203v-.101h.303v-.102h.203v-.101h.203v-.102h.304v-.101h.202v-.102h.304v-.1h.203v-.102h.203v-.102h.303v-.101h.203v-.102h.304v-.101h.203v-.102h.203v-.1h.303v-.102h.203v-.102h.304v-.101h.203v-.102h.202v-.101h.304v-.102h.203v-.101h.304v-.101h.203v-.102h.202v-.101h.304v-.102h.203v-.101h.203v-.102h.303v-.101h.203v-.101h.304v-.102h.203v-.101h.202V40.8h.304v-.1h.203v-.102h.304v-.101h.203v-.102h.202v-.1h.304v-.102h.203v-.102h.304v-.101h.202v-.102h.203v-.101h.304v-.102h.203v-.101h.202v-.101h.304v-.102h.203v-.101h.304v-.102h.203v-.101h.303v-.102h.203v-.101h.203v-.101h.304v-.102h.202v-.101h.203v-.102h.304v-.101h.203v-.102h.303v-.101h.203v-.101h.203v-.102h.304v-.101h.203v-.102h.303v-.101h.203v-.102h.203v-.101h.304v-.102h.202v-.1h.304v-.102h.405v.101h.203v.102h.202v.1h.304v.102h.203v.102h.304v.101h.203v.102h.202v.101h.304v.102h.203v.101h.203v.101h.303v.102h.203v.101h.304v.102h.203v.101h.202v.102h.304v.101h.203v.101h.304v.102h.203v.101h.202v.102h.304v.101h.203v.102h.304v.101h.202v.102h.203v.1h.304v.102h.203v.102h.303v.101h.203v.102h.203v.101h.304v.102h.203v.101h.202v.101h.304v.102h.203v.101h.304v.102h.202v.101h.304v.102h.203v.101h.203v.101h.303v.102h.203v.101h.203v.102h.304v.101h.203v.102h.303v.101h.203v.102h.203v.1h.304v.102h.202v.102h.304v.101h.203v.102h.203v.101h.303v.102h.203v.1h.304v.102h.203v.102h.203v.101h.303v.102h.203v.101h.203v.102h.304v.101h.202v.101h.304v.102h.203v.101h.304v.102h.202v.101h.203v.102h.304v.101h.203v.101h.202v.102h.304v.101h.203v.102h.304v.101h.203v.102h.202v.101h.304v.101h.203v.102h.304v.101h.202v.102h.203v.101h.304v.102h.203v.101h.304v.102h.202v.1h.203v.102h.304v.102h.203v.101h.202v.102h.304v.101h.203v.102h.304v.101h.202v.101h.203v.102h.304v.101h.203v.102h.304v.101h.202v.102h.203v.101h.304v.102h.203v.1h.303v.102h.203v.102h.203v.101h.304v.102h.202v.101h.304v.101h.203v.102h.203v.101h.304v.102h.202v.101h.304v.102h.203v.101h.203v.101h.303v.102h.203v.101h.203v.102h.304v.101h.202v.102h.304v.101h.203v.102h.203v.101h.304v.101h.202v.102h.304v.101h.203v.102h.203v.101h.303v.102h.203v.101h.304v.102h.203v.1h.202v.102h.304v.102h.203v.101h.304v.102h.203v.101h.202v.102h.304v.1h.203v.102h.203v.102h.303v.101h.203v.102h.304v.101h.203v.101h.303v.102h.203v.101h.203v.102h.304v.101h.203v.102h.202v.101h.304v.102h.203v.101h.304v.102h.202v.1h.203v.102h.304v.102h.203v.101h.303v.102h.203v.101h.203v.102h.304v.1h.203v.102h.303v.102h.203v.101h.203v.102h.304v.101h.202v.102h.203v.101h.304v.101h.203v.102h.202v.203h.101v.102h.101v.101h.101v.102h.101v.101h.101v.102h.101v.101h.101v.204h.101v.101h.101v.102h.101v.101h.101v.101h.101v.102h.101v.101h.101v.204h.101v.101h.101v.102h.101v.101h.101v.102h.101v.101h.101v.102h.101v.203h.101v.102h.101v.101h.101v.101h.101v.102h.101v.101h.101v.102h.101v.203h.101v.102h.102v.101h.1v.102h.102v.101h.101v.102h.101v.101h.101v.204h.101v.101h.101v.102h.101v.101h.101v.101h.101v.102h.101v.101h.101v.102h.101v.203h.101v.102h.101v.101h.101v.102h.101v.101h.101v.101h.101v.102h.101v.204h.101v.101h.101v.101h.101v.102h.101v.101h.101v.102h.101v.101h.101v.204h.101v.101h.101v.102h.101v.101h.101v.102h.101v.101h.101v.101h.101v.204h.101v.102h.101v.1h.101v.102h.101v.102h.101v.101h.101v.102h.101v.203h.101v.102h.101v.101h.101v.102h.101v.101h.101v.102h.101v.1h.101v.204h.101v.102h.101v.101h.101v.102h.101v.101h.101v.102h.101v.101h.101v.204h.101v.101h.101v.102h.101v.101h.101v.102h.101v.1h.101v.102h.101v.102h.101v.204h.101v.1h.101v.102h.101v.102h.101v.101h.101v.102h.101v.101h.101v.204h.101v.101h.101v.102h.101v.101h.101v.101h.101v.102h.101v.101h.101v.204h.101v.101h.101v.102h.101v.101h.101v.102h.101v.101h.101v.102h.101v.203h.101v.102h.101v.101h.101v.102h.101v.1h.101v.102h.101v.102h.101v.203h.101v.102h.101v.101h.101v.102h.101v.101h.101v.102h.101v.101h.101v.204h.101v.101h.101v.102h.101v.101h.101v.101h.101v.102h.101v.101h.101v.102h.101v.203h.101v.102h.101v.101h.101v.102h.101v.101h.101v.102h.101v.1h.101v.205h.101v.101h.101v.101h.101v.102h.101v.101h.101v.102h.101v.101h.101v.204h.101v.101h.101v.102h.101v.101h.101v.102h.101v.101h.101v.101h.101v.204h.101v.102h.101v.1h.101v.102h.101v.102h.101v.101h.101v.102h.101v.203h.101v.102h.101v.101h.101v.102h.101v.101h.101v.102h.101v.1h.101v.205h.101v.101h.101v.101h.101v.102h.101v.101h.101v.102h.101v.101h.101v.204h.101v.101h.101v.102h.101v.101h.101v.102h.101v.1h.101v.102h.101v.102h.101v.203h.101v.102h.101v.101h.101v.102h.101v.101h.101v.102h.101v.101h.101v.204h.101v.101h.101v.102h.101v.101h.101v.101h.101v.102h.101v.101h.101v.204h.101v.101h.101v.102h.101v.101h.101v.102h.101v.101h.101v.102h.101v.203h.101v.102h.101v.101h.101v.102h.101v.1h.101v.102h.101v.102h.101v.203h.101v.102h.101v.101h.101v.102h.101v.101h.101v.102h.101v.101h.101v.204h.101v.101h.101v.102h.101v.1h.101v.102h.101v.102h.101v.101h.101v.102h.101v.203h.101v.102h.101v.101h.101v.102h.101v.101h.101v.102h.101v.1h.101v.204h.101v.102h.101v.101h.101v.102h.101v.101h.101v.102h.101v.101h.101v.204h.101v.101h.101v.102h.101v.101h.101v.102h.101v.101h.101v.101h.101v.204h.101v.102h.101v.1h.101v.102h.101v.102h.101v.101h.101v.102h.101v.203h.101v.102h.101v.101h.101v.102h.101v.101h.101v.101h.101v.102h.101v.203h.101v.102h.101v.101h.101v.102h.101v.101h.101v.102h.101v.101h.101v.204h.101v.101h.101v.102h.101v.101h.101v.102h.101v.1h.101v.102h.101v.102h.101v.203h.101v.102h.101v.101h.101v.102h.101v.101h.101v.102h.101v.101h.101v.204h.101v.101h.101V88h.101v.101h.101v.101h.101v.102h.101v.101h.101v.204h.101v.101h.101v.102h.101v.101h.101v.102h.101v.101h.101v.102h.101v.203h.101v.102h.101v.101h.101v.101h.101v.102h.101v.101h.101v.102h.101v.203h.101v.102h.101v.101h.101v.102h.101v.101h.101v.102h.101v.101h.101v.204h.101v.101h.101v.102h.101v.1h.101v.102h.101v.102h.101v.101h.101v.204h.101v.101h.101v.102h.101v.101h.101v.102h.101v.101h.101v.102h.101v.1h.101v.204h.101v.102h.101v.101h.101v.102h.101v.101h.101v.102h.101v.101h.101v.204h.101v.101h.101v.102h.101v.101h.101v.102h.101v.1h.101v.102h.101v.204h.101v.101h.101v.102h.101v.101h.101v.102h.101v.101h.101v.102h.101v.203h.101v.102h.101v.101h.101v.102h.101v.101h.101v.101h.101v.102h.101v.203h.101v.102h.101v.101h.101v.102h.101v.101h.101v.102h.101v.101h.101v.102h.101v.101h.101v.101h.101v.102h.203v.101h.203v.102h.303v.101h.912v-.101h.404v-.102h.203v-.101h.101v-.102h.203v-.101h.101v-.102h.101v-.1h.101v-.102h.101v-.204h.101v-.204h.101v-.203h.101v-.407h.1V32.26h-.101v-.406h-.101v-.204h-.101v-.204h-.101v-.203h-.101v-.102h-.101v-.101h-.101v-.102h-.203v-.101h-.101v-.101h-.203v-.102h-.101v-.101h-.202v-.102h-.203v-.101h-.101v-.102h-.203v-.101h-.203v-.102h-.101v-.101h-.202v-.101h-.203v-.102h-.101v-.101h-.203v-.102h-.203v-.101h-.101v-.102h-.202v-.101h-.203v-.102h-.101v-.1h-.203v-.102h-.203v-.102h-.101v-.101h-.203v-.102h-.202v-.101h-.101V28.4h-.203v-.1h-.203v-.102h-.101v-.102h-.203v-.101h-.202v-.102h-.101v-.101h-.203v-.101h-.203v-.102h-.101v-.101h-.203v-.102h-.202v-.101h-.101v-.102h-.203v-.101h-.203v-.102h-.101v-.101h-.203v-.101h-.203v-.102h-.101v-.101h-.202v-.102h-.203v-.101h-.101v-.102h-.203v-.101h-.203v-.102h-.101v-.1h-.202v-.102h-.203v-.102h-.101v-.101h-.203v-.102h-.203v-.101h-.101v-.102h-.202v-.101h-.203v-.101h-.101v-.102h-.203v-.101h-.203v-.102h-.101v-.101h-.203v-.102h-.202v-.101h-.101v-.101h-.203v-.102h-.203v-.101h-.101v-.102h-.203v-.101h-.202v-.102h-.101v-.101h-.203v-.102h-.203v-.1h-.101v-.102h-.203v-.102h-.202v-.101h-.101v-.102h-.203v-.101h-.203v-.101h-.101v-.102h-.203v-.101h-.203v-.102h-.101v-.101h-.202v-.102h-.203v-.101h-.101v-.102h-.203v-.101h-.203v-.101h-.101v-.102h-.202v-.101h-.203v-.102h-.101v-.101h-.203v-.102h-.203v-.101h-.101v-.101h-.202V21.3h-.203v-.1h-.101v-.102h-.203v-.101h-.203v-.102h-.101v-.101h-.203v-.102h-.202v-.1h-.101v-.102h-.203v-.102h-.203v-.101h-.101v-.102h-.203v-.101h-.202v-.101h-.101v-.102h-.203v-.101h-.203v-.102h-.101v-.101h-.203v-.102h-.202v-.101h-.101v-.102h-.203v-.101h-.203v-.101h-.101v-.102h-.203v-.101h-.203v-.102h-.101v-.101h-.202v-.102h-.203v-.101h-.101v-.101h-.203v-.102h-.203v-.101h-.101v-.102h-.202v-.101h-.203v-.102h-.101v-.101h-.203v-.102h-.203v-.1h-.101v-.102h-.202v-.102h-.203v-.101h-.101v-.102h-.203v-.101h-.203v-.102h-.101v-.101h-.203v-.101h-.202v-.102h-.101v-.101h-.203v-.102h-.203v-.101h-.101v-.102h-.203v-.101h-.202v-.101h-.101v-.102h-.203v-.101h-.203v-.102h-.101v-.101h-.203v-.102h-.202v-.101h-.101v-.101h-.203v-.102h-.203v-.101h-.101v-.102h-.203v-.101h-.203v-.102h-.101v-.101h-.202v-.101h-.203v-.102h-.101v-.101h-.203v-.102h-.203v-.101h-.101v-.102h-.202v-.101h-.203v-.102h-.101v-.101h-.203v-.101h-.203v-.102h-.101v-.101h-.202v-.102h-.203v-.101h-.101v-.102h-.203v-.101h-.203v-.102h-.101v-.1h-.203v-.102h-.202v-.102h-.101v-.101h-.203v-.102h-.203v-.101h-.101v-.101h-.203v-.102h-.202v-.101h-.101v-.102h-.203v-.101h-.203v-.102h-.101v-.101h-.203v-.101h-.202v-.102h-.101v-.101h-.203v-.102h-.203v-.101h-.101v-.102h-.203v-.101h-.203v-.102h-.101v-.101h-.202v-.101h-.203v-.102h-.101v-.101h-.203v-.102h-.203v-.101h-.101v-.102h-.202v-.101h-.203v-.101h-.101v-.102h-.203v-.101h-.203v-.102h-.101v-.101h-.202v-.102h-.203v-.101h-.101V9.23h-.203v-.1h-.203v-.101h-.101v-.102h-.203v-.101h-.202v-.102h-.101v-.101h-.203V8.52h-.405v-.1h-.506v-.101h-.507v-.102h-.506v-.101h-.507v-.102h-.507v-.101h-.506V7.81h-.608v-.1h-.506v-.101h-.507v-.102h-.506v-.101h-.507v-.102h-.506v-.101h-.608V7.1h-.506V7h-.507v-.101h-.507v-.102h-.506v-.101h-.507v-.102h-.607v-.101h-.507V6.39h-.506v-.1h-.507v-.102h-.506v-.101h-.507v-.101h-.506v-.102h-.608v-.101h-.506V5.68h-.507v-.1h-.507v-.102h-.506v-.101h-.608v-.101h-.506v-.102h-.507v-.101h-.506V4.97h-.507v-.1h-.506v-.102h-.507v-.101h-.506v-.101h-.608v-.102h-.506v-.101h-.507V4.26h-.507v-.1h-.506v-.102h-.507v-.101h-.607v-.102h-.507v-.101h-.506v-.101h-.507V3.55h-.506v-.1h-.507v-.102h-.607v-.101h-.507v-.102h-.507v-.101h-.506v-.101h-.507V2.84h-.506v-.1h-.507v-.102h-.607v-.101h-.507v-.102h-.506v-.101h-.507v-.101h-.506V2.13h-.608v-.1h-.506v-.102h-.507v-.101h-.507v-.102h-.506v-.101h-.507v-.101h-.506V1.42h-.507v-.1h-.607v-.102h-.507v-.101h-.506v-.102h-.507V.913h-.506V.81h-.507v-.1h-.607V.609h-.507V.507h-.507V.406h-.506V.304h-.507V.203h-.506V.1h-.507V0h-.91v.101h-.507v.102h-.507v.101h-.507v.102h-.506v.101h-.507V.61h-.506v.1h-.507v.101h-.506.206z" fill="#D5B378"/><path fill-rule="evenodd" clip-rule="evenodd" d="M83.055 55.916c1.013-.689.997-1.41 1.783-1.36.287.018.584.067.98.099 1.268.099 2.57.252 3.9.356l3.774.396 8.447 8.441c.518.52 1.643 1.775 2.15 2.117l-5.475 5.546-3.324-3.297c-.569-.57-1.073-1.077-1.64-1.648-.343-.344-1.334-1.482-1.708-1.581l-27.287 27.38-2.259-2.32L89.66 62.6l-6.605-6.684zm-2.727.068l6.493 6.572-27.263 27.447 5.142 5.123L91.964 67.77l6.56 6.55 8.335-8.332c-.303-.444-10.462-10.559-10.818-10.917-.465-.468-.86-.87-1.326-1.34-.502-.506-.95-.264-2.294-.458-1.65-.238-3.3-.225-4.952-.459a29.37 29.37 0 00-2.442-.218c-1.7-.095-.877-.501-3.35 1.985-.379.38-1.093 1.013-1.353 1.404h.004z" fill="#FEFEFE"/><path fill-rule="evenodd" clip-rule="evenodd" d="M85.448 78.418l6.472 6.46c.605-.175 1.419-.802 2.769-.917 3.386-.292 5.589 1.773 5.589 5.26l-2.728-2.694-6.072 6.059 2.703 2.763c-2.403.02-3.74-.88-4.638-2.38-1.56-2.604.095-5.378.095-5.619 0-.288-2.93-3.078-3.17-3.32l-3.302-3.274 2.284-2.34-.002.002zm-5.142 2.317l7.048 7.04c-.54 2.151-.735 3.329.09 5.434.158.402.362.765.577 1.114l.75.94c1.839 2.015 4.816 2.513 7.417 1.703.315-.098.528-.17.864-.29.358-.131.561-.24.92-.324l-3.657-3.72c.329-.471 1.153-1.293 1.551-1.693.414-.416 1.297-1.21 1.575-1.627l3.791 3.764c.083-.286.213-.567.32-.88.119-.352.208-.598.312-.934 1.1-3.567-.219-7.04-3.476-8.695-1.572-.798-3.564-.77-5.241-.333-.991.257-.537.486-1.58-.564-.86-.865-5.706-5.82-6.095-6.083l-5.165 5.147-.001.001zM65.233 54.58c2.176-.021 3.538.458 4.672 2.344.44.732.755 2.035.635 2.853-.092.624-.107.96-.285 1.5-.15.456-.386.904-.479 1.301l6.494 6.572-2.306 2.36-6.516-6.504c-1.675.872-3.58 1.374-5.547.496-.158-.07-.634-.327-.789-.454-1.343-1.106-1.976-2.26-1.976-4.43l2.728 2.694c.478-.148 4.051-3.937 4.564-4.455.396-.397 1.219-1.136 1.486-1.537l-2.68-2.74zm-3.791-1.09l3.702 3.764-3.236 3.297c-.326-.477-1.361-1.412-1.817-1.871-.352-.354-1.561-1.706-1.93-1.804-.291 1.259-.974 1.867-.974 4.277 0 3.81 3.226 6.773 6.384 6.773 1.477 0 1.487.033 2.856-.337.32-.087.326-.134.601-.199l6.894 6.883 5.186-5.168-7.005-6.995c.339-1.62.422-1.195.422-3.097 0-1.24-.595-2.716-1.279-3.706-.136-.198-.23-.243-.379-.42-1.82-2.164-4.771-2.886-7.486-2.036l-1.939.636v.002z" fill="#FEFEFE"/></svg>