<svg width="164" height="98" viewBox="0 0 164 98" fill="none" xmlns="http://www.w3.org/2000/svg"><path d="M59.861 61.372l44.137 31.76m-44.158-.03l44.179-31.7" stroke="#FEFEFE" stroke-width="1.77" stroke-miterlimit="2.613"/><path d="M97.707 74.274l-.026-.1c-3.967-12.499-15.798-21.372-16.3-21.744l-1.535-1.136.105 1.911c.004.073.318 7.384-6.804 13.52-7.698 6.635-7.656 12.107-7.634 15.047l.002.404c0 7.957 5.78 13.92 14.067 14.973.7.128 1.419.19 2.131.19.096 0 .187-.014.282-.016.078 0 .153.01.232.01 9.12 0 16.263-7.369 16.263-16.775 0-2.254-.75-6.12-.783-6.284zm-9.111 15.364c-.346 3.148-2.595 5.489-5.599 5.825-.222.025-.519.049-.86.063a19.674 19.674 0 01-2.394-.166c-1.898-.364-3.872-1.415-4.18-4.19l-.065-.549c-.228-1.921-.464-3.91 3.585-8.271a37.382 37.382 0 004.05-5.208c1.94 2.255 3.446 4.503 4.492 6.703.959 1.925 1.03 5.259.971 5.793zm.29 4.252c.8-1.146 1.328-2.525 1.496-4.055.085-.778.016-4.455-1.143-6.781-1.253-2.637-3.127-5.336-5.57-8.022l-.816-.897-.62 1.043a35.172 35.172 0 01-4.464 5.943c-4.618 4.974-4.306 7.602-4.055 9.715l.064.541c.106.95.37 1.76.746 2.456-4.453-2.202-7.212-6.392-7.212-11.656l-.002-.42c-.02-2.646-.058-7.574 7.007-13.663 5.621-4.844 7.007-10.33 7.336-13.133 3.204 2.701 11.267 10.216 14.3 19.71.089.459.74 3.936.74 5.886 0 5.892-3.136 10.877-7.806 13.333z" fill="#FEFEFE"/><path fill-rule="evenodd" clip-rule="evenodd" d="M4.25 89.508V33.803c2.605-1.386 5.799-3.476 8.365-5.014L38.73 13.046c1.288-.781 2.5-.811 3.958-1.106 2.96-.598 38.45-7.616 39.263-7.616.876 0 2.021.357 2.846.494.984.163 1.817.36 2.794.548 1.826.355 3.76.714 5.599 1.083l30.759 5.995c.582.116.78.273 1.197.525l1.075.649 29.277 17.65c1.375.827 2.833 1.78 4.254 2.535v55.705c-.376-.252-1.632-1.76-1.965-2.192-.191-.249-.295-.311-.488-.528l-3.441-3.963c-1.183-1.168-4.906-5.746-6.373-7.322-.214-.229-.295-.287-.481-.532-.186-.245-.267-.303-.481-.532l-.978-1.152c-.203-.264-.334-.342-.534-.58-.78-.933-1.655-1.807-2.4-2.774-.203-.264-.334-.343-.534-.581l-5.898-6.781c-.186-.245-.267-.303-.481-.534l-8.305-9.545c-1.288-1.616-1.823-1.813-3.772-2.616l-22.185-9.322c-4.451-1.879-8.932-3.61-13.347-5.6l-2.928-1.225c-4.42-1.755-2.348-1.515-9.234 1.235L47.815 46.77c-.551.232-.962.41-1.503.623l-7.343 3.093c-.592.243-.864.364-1.307.82L22.955 68.144c-1.238 1.553-2.594 3.028-3.906 4.513l-2.476 2.797c-.649.733-1.23 1.543-1.922 2.237L5.293 88.414c-.339.35-.642.824-1.039 1.091l-.005.003zm-1.824 7.827h-.562C.847 97.175 0 96.158 0 94.794V32.886c0-1.23.569-1.805 1.372-2.28l6.703-4.041c9.715-5.891 19.532-11.698 29.213-17.61.974-.594 1.513-.607 2.7-.845 2.047-.412 3.976-.758 6.02-1.17 1.952-.392 4.063-.774 6.019-1.17L67.1 2.824c1.04-.212 1.931-.366 2.969-.576L79.058.5c3.585-.72 2.808-.624 6.053.035L94.1 2.28c4.02.809 8.035 1.54 12.041 2.338l18.041 3.525c1.293.26 1.695.278 2.671.875l35.792 21.574c.4.244.709.482.972.852.242.34.384.782.384 1.342v62.212c0 .652-.258 1.302-.578 1.656-.311.344-.934.683-1.547.683-1.262 0-1.953-1.179-2.657-1.904-.713-.736-1.298-1.609-2.022-2.34-.259-.262-.286-.336-.511-.605l-4.599-5.24c-1.406-1.42-3.64-4.327-5.11-5.843-.244-.252-.275-.365-.503-.613l-2.042-2.32c-1.108-1.438-2.504-2.668-3.6-4.11l-1.035-1.194c-.727-.734-1.32-1.584-2.023-2.338-.365-.393-.641-.73-1.014-1.117l-6.621-7.58c-.225-.268-.253-.343-.511-.604l-3.59-4.117c-.258-.261-.286-.338-.511-.605l-2.051-2.31c-.405-.361-3.895-1.71-4.525-1.96l-3.073-1.285c-4.057-1.822-8.285-3.36-12.343-5.185-5.053-2.27-10.261-4.24-15.34-6.442-.611-.265-6.025-2.57-6.143-2.57-.25 0-2.71 1.09-3.181 1.278l-6.13 2.583c-1.02.453-2.025.819-3.067 1.288-.536.242-1.04.448-1.569.661-4.665 1.884-9.245 3.97-13.92 5.836L43.42 53.234c-.76.306-2.426.834-2.978 1.378-.403.397-.62.72-1.01 1.121L36.9 58.678c-.19.227-.357.34-.546.568l-1.505 1.74c-.233.304-.283.332-.523.593l-5.614 6.456c-.257.26-.285.337-.51.604l-6.17 7.017c-.243.25-.273.365-.503.612-.214.23-.295.287-.481.532l-2.556 2.921c-.733.757-1.339 1.634-2.072 2.391-.256.265-.293.319-.517.598-1.121 1.407-2.421 2.658-3.541 4.066l-3.556 4.051c-.2.262-.312.339-.53.585-.22.25-.253.358-.504.611-.253.254-.296.294-.525.59l-.994 1.137c-.258.26-.287.337-.51.604-.2.24-.332.317-.535.58l-.978 1.153c-.194.21-.351.35-.556.559-.392.4-.822.618-1.242.684l-.005.005z" fill="#D5B378"/></svg>