<svg width="26" height="24" viewBox="0 0 26 24" fill="none" xmlns="http://www.w3.org/2000/svg"><g clip-path="url(#clip0_3042_3829)"><path d="M9 5.287a1.51 1.51 0 00-.255-.132 1.045 1.045 0 00-1.236.456C5.091 8.868-.889 8.864.242 10.725c1.095 2.217 0 6.268.041 8.385.081.129.19.238.32.319 2.162.424 5.843 2.28 7.23 4.083a1.04 1.04 0 00.967.164c1.528-1.432 4.603-3.814 6.902-4.106a1.026 1.026 0 001.031-1.017c-1.784-4.562 1.004-8.923-.712-9.297-2.107-.233-5.697-2.354-7.016-3.982" fill="#7D6D5A"/><path d="M14.67 16.135a28.585 28.585 0 00-2.307-1.738c.799-.54 1.57-1.122 2.308-1.742 1.29-1.104 2.08-2.012 2.094-2.67l-.073-.3a1.012 1.012 0 00-.935-.36c-1.109 0-3.066.629-5.365 1.71a27.111 27.111 0 00-.456-3.257 9.05 9.05 0 00-.625-2.02c-.242-.457-.511-.79-.867-.8-.356-.008-.625.32-.867.804-.497 1.012-.885 2.924-1.076 5.296-2.309-1.086-4.27-1.72-5.383-1.724a1.004 1.004 0 00-.913.355l-.077.301c0 .657.798 1.565 2.089 2.67.73.614 1.49 1.19 2.28 1.724a29.137 29.137 0 00-2.33 1.756C.885 17.244.1 18.152.082 18.813l.078.301a1.022 1.022 0 00.912.36c1.118 0 3.102-.643 5.424-1.738a26.98 26.98 0 00.456 3.313 8.82 8.82 0 00.63 2.02c.237.457.51.79.866.799.356.009.625-.32.863-.799.502-1.017.885-2.938 1.076-5.319 2.281 1.077 4.247 1.706 5.356 1.71a1.017 1.017 0 00.912-.36l.073-.3c.014-.653-.762-1.56-2.057-2.665zm1.087-6.555c.41 0 .647.1.72.242l.046.178c0 .456-.725 1.41-2.007 2.481a28.226 28.226 0 01-2.377 1.78 17.471 17.471 0 00-1.647-1.032c0-.661-.05-1.3-.096-1.911 2.34-1.118 4.316-1.738 5.36-1.738zm-6.405 6.386c-.306.178-.607.343-.913.507a37.477 37.477 0 01-.912-.511c-.306-.178-.588-.342-.876-.515v-2.149l.844-.497.935-.484.94.525c.306.173.602.35.912.524v2.104c-.314.155-.615.333-.93.498zm.912-.246a44.834 44.834 0 01-.082 1.643c-.456-.233-.976-.484-1.478-.753l.775-.43.785-.46zm-2.076.89c-.492.264-.98.51-1.45.739a43.144 43.144 0 01-.082-1.61l.748.456.784.415zm-1.801-2.2v.9a51.476 51.476 0 01-1.451-.913c.456-.305.944-.616 1.45-.912v.926zm.269-1.39c0-.548.04-1.077.077-1.588.456.224.945.456 1.433.725l-.794.457a11.8 11.8 0 00-.712.406h-.004zm2.011-.863a40.204 40.204 0 011.492-.752c.037.529.064 1.08.082 1.651l-.77-.456c-.252-.15-.52-.283-.804-.443zm1.825 2.222v-.885c.488.301.958.602 1.405.912-.456.297-.912.598-1.405.913v-.94zM7.203 7.842c.125-.68.33-1.34.611-1.97.224-.457.457-.676.648-.667.192.01.42.2.648.662.456.962.862 2.887 1.05 5.278a36.65 36.65 0 00-1.73.876 44.638 44.638 0 00-1.67-.849 26.14 26.14 0 01.443-3.33zm-4.826 4.63C1.099 11.405.36 10.447.374 9.99l.046-.173c.073-.137.31-.237.716-.237 1.049 0 3.033.639 5.365 1.743a45.782 45.782 0 00-.092 1.852 25.25 25.25 0 00-1.678 1.067 27.665 27.665 0 01-2.354-1.77zM1.09 19.228c-.406 0-.643-.1-.716-.237l-.046-.178c0-.456.726-1.414 2.008-2.49A29.982 29.982 0 014.73 14.53a38.49 38.49 0 001.674 1.072c0 .647.05 1.272.091 1.875-2.35 1.108-4.352 1.756-5.406 1.751zm8.622 1.757a8.733 8.733 0 01-.588 1.975c-.228.456-.457.67-.648.661-.192-.009-.424-.2-.648-.661-.483-.972-.876-2.92-1.058-5.338.547-.26 1.113-.552 1.688-.857.588.315 1.163.607 1.72.871a27.304 27.304 0 01-.466 3.349zm6.756-2.008c-.073.142-.31.242-.716.242-1.045 0-3.02-.634-5.337-1.729a39.99 39.99 0 00.09-1.907 36.456 36.456 0 001.634-1.04 27.94 27.94 0 012.372 1.78c1.278 1.071 2.021 2.02 2.003 2.476l-.046.178z" fill="#DDE2E2"/><path d="M25.287 14.306l-.584.338L16.578.57l.58-.333L17.024 0l-1.4.803.136.237.58-.333 8.124 14.073-.579.338.137.233 1.4-.808-.136-.237zM.456 19.488l.037.028H.52l.046.027h.072l7.701 4.393h.119l.378-.214c.122-.044.234-.11.333-.192l6.976-3.914a1.19 1.19 0 00.223-.132l.42-.238.064-.104v-9.47l-.064-.092-.397-.228h-.037l-.04-.023-.037-.023-.06-.023-7.732-4.457h-.119l-.374.215c-.123.046-.238.11-.342.191L.625 9.247c-.046.022-.09.046-.132.073l-.434.26L0 9.67v9.489l.06.105.396.223zm1.081.338c1.057.3 2.073.728 3.025 1.277.981.54 1.888 1.205 2.696 1.98l-5.72-3.257zm8.212 3.161c.779-.746 1.65-1.39 2.59-1.916a12.559 12.559 0 013.04-1.304l-5.63 3.22zm6.842-5.346a12.597 12.597 0 01-.378-3.23c-.014-1.09.113-2.177.378-3.234v6.464zm-1.304-8.668a13.04 13.04 0 01-2.97-1.25 12.988 12.988 0 01-2.7-1.98l5.67 3.23zM7.075 5.816c-.78.751-1.65 1.403-2.59 1.94-.943.553-1.954.983-3.007 1.277l5.597-3.217zm-6.45 3.71l.16-.092a.912.912 0 01.37-.078H1.3a12.558 12.558 0 003.28-1.368A12.02 12.02 0 007.554 5.68h.032a.84.84 0 01.192-.21l.297-.17h.273l.32.051.077.037.05.027.055.036.05.042.05.045.041.05c.888.937 1.92 1.725 3.057 2.336a12.085 12.085 0 003.59 1.423h.192l.073.032.214.123h.027v.023l.042.037.05.059a.876.876 0 01.1.903 11.723 11.723 0 00-.37 3.887 11.754 11.754 0 00.539 3.786.822.822 0 01.082.365.912.912 0 01-.374.716l-.187.105a.872.872 0 01-.347.073h-.16c-1.148.3-2.248.76-3.266 1.369a11.945 11.945 0 00-3.02 2.358.716.716 0 01-.173.178l-.288.165-.077.022H8.49l-.31-.05-.083-.032h-.064l-.045-.032h-.023l-.05-.04-.046-.046-.114-.082a12.155 12.155 0 00-3.052-2.336 12.025 12.025 0 00-3.59-1.419l-.31-.096-.164-.095-.028-.023-.04-.032-.033-.032-.082-.073v-.027l-.045-.06a.913.913 0 01-.137-.456c0-.127.026-.253.077-.37.387-1.224.57-2.503.543-3.786a11.947 11.947 0 00-.543-3.773v-.027a.848.848 0 010-.82.912.912 0 01.274-.316zm-.379 1.637c.266 1.063.393 2.157.379 3.252a12.673 12.673 0 01-.379 3.24v-6.492z" fill="#332C28"/></g><defs><clipPath id="clip0_3042_3829"><path fill="#fff" d="M0 0h25.419v24H0z"/></clipPath></defs></svg>