<svg width="26" height="24" viewBox="0 0 26 24" fill="none" xmlns="http://www.w3.org/2000/svg"><g clip-path="url(#clip0_3042_3850)"><path d="M6.085 13.795c.762.73.963 1.934 1.09 2.678h.534a4.298 4.298 0 018.212 0h.515c.123-.716.274-1.857.963-2.591a8.367 8.367 0 00-11.327-.064M.105 16.833c.602-1.368 1.524-2.865 2.993-3.426-.055-.725-.187-1.24-.456-1.263C1.369 12.025.584 14.47.1 16.834" fill="#fff"/><path d="M3.148 15.47c0 .688-.05 1.368-.064 1.883l.661.183c.23-.79.58-1.54 1.04-2.222a3.089 3.089 0 01-1.614.137m16.509 2.094l.616-.169c0-.515-.05-1.19-.068-1.884a3.457 3.457 0 01-1.574-.173c.459.686.81 1.438 1.04 2.23m1.081-5.359c-.255.022-.383.51-.456 1.2 1.464.524 2.28 2.088 2.897 3.498v-.073c-.457-2.331-1.237-4.74-2.45-4.626" fill="#7D6D5A"/><path d="M6.085 13.795c.762.73.963 1.934 1.09 2.678h.534a4.298 4.298 0 018.212 0h.515c.123-.716.274-1.861.958-2.591a8.362 8.362 0 00-11.322-.064" fill="#fff"/><path d="M6.159 13.8c.757.716.953 1.893 1.08 2.618h.516a4.257 4.257 0 018.116 0h.506c.119-.702.27-1.825.945-2.536a8.316 8.316 0 00-11.177-.064" fill="#7D6D5A"/><path d="M.105 16.833c.602-1.368 1.524-2.865 2.993-3.43-.055-.721-.187-1.237-.456-1.26C1.369 12.026.584 14.47.1 16.834" fill="#fff"/><path d="M.155 16.815c.58-1.369 1.474-2.824 2.888-3.376-.055-.716-.178-1.222-.456-1.245-1.214-.119-1.99 2.28-2.455 4.621" fill="#7D6D5A"/><path d="M11.688 6.441A11.66 11.66 0 00.1 16.833c.483-2.363 1.268-4.812 2.54-4.694.27.027.402.543.457 1.268.045.593.045 1.332.027 2.058a3.06 3.06 0 001.638-.133 8.377 8.377 0 0112.65-1.473 8.44 8.44 0 011.24 1.46 3.37 3.37 0 001.602.191c0-.752 0-1.519.027-2.13.06-.703.192-1.19.456-1.218 1.255-.142 2.072 2.308 2.528 4.671A11.66 11.66 0 0011.688 6.441z" fill="#7D6D5A"/><path d="M24.032 6.729h.557V17.38h-.557v.273h1.392v-.273h-.561V6.729h.56v-.27h-1.39v.27zm-.657 10.072a11.756 11.756 0 00-11.688-10.46A11.751 11.751 0 000 16.801h.119l.077.078v-.032h.032a7.185 7.185 0 011.893-2.77c.262-.213.554-.387.867-.515 0 .306.027.644.027.995v.985c0 .657-.045 1.3-.063 1.798v.082l.739.205.095.027.028-.095c.226-.78.57-1.52 1.022-2.195a8.092 8.092 0 011.208-1.41c.386.426.66.94.799 1.497.091.343.164.69.219 1.04v.082h.693v-.05h.041v-.073a4.151 4.151 0 017.915 0v.073h.037v.05h.675v-.105c.114-.688.269-1.747.862-2.45.244.18.477.373.698.58a8.007 8.007 0 011.592 2.947l.105.06.616-.17.077-.022v-.082c0-.498-.045-1.136-.064-1.798h.028v-1.451c0-.164 0-.365.027-.538 1.369.53 2.176 2.03 2.765 3.412l.191-.05v-.05h.05l.005-.055zM11.82 13.33a4.38 4.38 0 00-4.165 2.988h-.333c-.123-.707-.324-1.784-1.018-2.51a8.211 8.211 0 0110.89.068c-.24.291-.425.622-.548.978a8.16 8.16 0 00-.346 1.464h-.334a4.384 4.384 0 00-4.146-2.988zm-8.627 3.932v-.424c0-.379.032-.803.046-1.236.105.019.212.028.32.027h.246c.255-.02.508-.06.757-.119a8.151 8.151 0 00-.871 1.912l-.498-.16zm16.911-3.161v1.3a1.254 1.254 0 01-.237 0 4.923 4.923 0 01-1.163-.169 8.274 8.274 0 00-1.155-1.368 2.158 2.158 0 011.61-.594c.333.002.664.053.982.151 0 .16 0 .324-.032.502l-.005.178zM4.7 15.24a6.2 6.2 0 01-.557.123 3.097 3.097 0 01-.565.06 1.63 1.63 0 01-.32-.032v-1.898a3.44 3.44 0 011.154-.196 2.249 2.249 0 011.52.502 8.404 8.404 0 00-1.228 1.441H4.7zm17.066-2.71a1.295 1.295 0 00-.95-.497h-.136a.53.53 0 00-.078.028h-.054a.698.698 0 00-.238.36 3.9 3.9 0 00-.155.807 3.445 3.445 0 00-.994-.164 2.385 2.385 0 00-1.752.657 8.48 8.48 0 00-5.698-2.203c-.273 0-.543 0-.812.036a8.623 8.623 0 00-4.817 2.13 2.45 2.45 0 00-1.683-.597c-.399 0-.795.065-1.173.192 0-.133-.027-.26-.045-.374a2.736 2.736 0 00-.096-.411c-.078-.228-.187-.41-.393-.433h-.136a1.286 1.286 0 00-.945.492c.42-.76.925-1.468 1.506-2.112l.127-.15a.782.782 0 00.087-.087l.274-.278v-.023a11.528 11.528 0 0118.142 2.655l.019-.027zm-21.1 2.981l-.21.364c.175-.762.42-1.508.73-2.226.156-.371.372-.715.639-1.017.135-.15.308-.26.502-.32a.873.873 0 01.187 0h.077c.055 0 .142.083.21.293.07.256.115.519.132.784a3.971 3.971 0 00-.912.538A6.08 6.08 0 00.666 15.51zm19.22.109c.077.005.154.005.232 0 0 .611.046 1.2.064 1.67l-.456.123a7.97 7.97 0 00-.886-1.93c.342.088.693.137 1.045.146v-.01zm.56-2.281a3.37 3.37 0 01.133-.753c.063-.2.15-.283.205-.283h.073a.84.84 0 01.543.206l.082.073.055.05c.27.306.489.655.647 1.03.274.622.494 1.267.657 1.926 0 .082.041.169.064.25.023.083.032.142.05.21-.56-1.153-1.323-2.257-2.509-2.723v.014z" fill="#332C28"/></g><defs><clipPath id="clip0_3042_3850"><path fill="#fff" d="M0 0h25.419v24H0z"/></clipPath></defs></svg>