<svg width="26" height="24" viewBox="0 0 26 24" fill="none" xmlns="http://www.w3.org/2000/svg"><g clip-path="url(#clip0_3042_3838)"><path d="M9.088 3.932a1.575 1.575 0 00-.256-.137 1.04 1.04 0 00-1.24.434C5.177 7.513-.804 7.509.332 9.366c1.095 2.221.028 6.272.041 8.384.086.129.196.239.324.324 2.158.42 5.84 2.281 7.226 4.078a1.035 1.035 0 00.972.17c1.524-1.438 4.603-3.82 6.898-4.107a1.027 1.027 0 001.03-1.021c-1.783-4.562 1.009-8.919-.711-9.293-2.112-.233-5.698-2.35-7.02-3.978" fill="#7D6D5A"/><path d="M.265 17.782L.25 17.76v-.004l.014.027zm14.493-3.002a27.759 27.759 0 00-2.308-1.742c.88-.602 1.66-1.19 2.312-1.738 1.291-1.104 2.076-2.017 2.094-2.674l-.077-.3a1.022 1.022 0 00-.913-.361c-1.108 0-3.07.634-5.369 1.71a26.23 26.23 0 00-.456-3.252 8.972 8.972 0 00-.625-2.02c-.242-.48-.507-.79-.867-.8-.36-.008-.625.32-.867.804-.497 1.013-.88 2.924-1.072 5.296C4.302 8.617 2.336 7.98 1.223 7.974a1.022 1.022 0 00-.913.36l-.077.302c0 .652.803 1.564 2.09 2.664a28.21 28.21 0 002.28 1.729 28.625 28.625 0 00-2.322 1.752C.976 15.883.187 16.797.17 17.453l.082.305a1.004 1.004 0 00.912.356c1.123 0 3.103-.643 5.43-1.738.08 1.114.233 2.222.455 3.317.129.696.34 1.374.63 2.02.242.457.51.79.867.794.355.005.625-.32.866-.798.498-1.013.885-2.933 1.072-5.32 2.281 1.082 4.247 1.712 5.356 1.716a1.022 1.022 0 00.912-.36l.078-.301c0-.657-.785-1.565-2.071-2.665zm1.09-6.569c.406 0 .643.1.72.238l.042.178c0 .456-.725 1.414-2.007 2.486a28.105 28.105 0 01-2.373 1.779 44.753 44.753 0 00-1.637-1.045c0-.661-.05-1.3-.091-1.911 2.322-1.09 4.297-1.725 5.346-1.725zm-6.387 6.414l-.912.507a25.704 25.704 0 01-.912-.511l-.876-.516v-2.148c.278-.165.556-.333.848-.498l.913-.515.94.52.912.53v2.098c-.338.178-.62.355-.935.533h.022zm.913-.246a44.834 44.834 0 01-.082 1.642 41.541 41.541 0 01-1.478-.752c.255-.142.515-.283.775-.434.26-.15.502-.3.758-.456h.027zm-2.071.89c-.497.264-.981.51-1.455.739a35.631 35.631 0 01-.078-1.61c.246.145.493.291.748.433.256.141.497.296.757.438h.028zm-1.825-2.217v.903c-.506-.31-.99-.62-1.45-.913a27.31 27.31 0 011.455-.912c0 .287-.005.602-.005.921zm.27-1.392c0-.543.045-1.076.077-1.587.456.228.949.456 1.437.73-.265.14-.53.287-.799.456l-.716.401zm2.025-.857c.506-.27 1.008-.52 1.491-.753.037.529.064 1.081.083 1.647-.251-.15-.507-.301-.771-.456-.265-.156-.534-.293-.803-.438zm1.824 2.217v-.88c.493.3.963.601 1.41.912-.456.3-.912.597-1.41.912v-.944zM7.3 6.482a8.76 8.76 0 01.607-1.97c.228-.456.456-.675.648-.666.191.009.424.2.647.661.48.967.863 2.888 1.05 5.283-.561.264-1.14.556-1.73.876a44.785 44.785 0 00-1.669-.853 26.3 26.3 0 01.447-3.33zm-4.835 4.63C1.186 10.037.456 9.093.456 8.637l.041-.178c.078-.142.31-.238.717-.238 1.049 0 3.033.64 5.369 1.743a38.4 38.4 0 00-.096 1.848c-.588.355-1.15.716-1.679 1.072a28.377 28.377 0 01-2.344-1.77zm-1.287 6.761c-.406 0-.643-.1-.716-.237H.456l-.045-.182c0-.457.725-1.415 2.007-2.487a27.922 27.922 0 012.395-1.792c.53.355 1.086.711 1.679 1.072 0 .648.045 1.273.086 1.87-2.344 1.113-4.347 1.756-5.4 1.756zM9.8 19.64a8.73 8.73 0 01-.607 1.966c-.228.456-.456.67-.647.662-.192-.01-.425-.201-.648-.662-.484-.972-.872-2.901-1.054-5.337a45.834 45.834 0 001.692-.863c.584.315 1.16.607 1.716.876A26.57 26.57 0 019.8 19.64zm6.76-2.017c-.077.137-.314.238-.72.238-1.045 0-3.015-.634-5.337-1.73a40.98 40.98 0 00.095-1.901c.57-.347 1.118-.698 1.633-1.045a27.242 27.242 0 012.368 1.784c1.282 1.067 2.021 2.02 2.003 2.477l-.041.177z" fill="#DDE2E2"/><path d="M20.351 22.376v.27h1.61v-.27h-.67V3.718h.67v-.274h-1.61v.274h.67v18.658h-.67zm-3.412-14.06l-.06-.105-.397-.228-.032-.027-.027-.028-.036-.022h-.023l-.06-.023-7.727-4.411h-.124l-.374.21a1.2 1.2 0 00-.333.191L.671 7.91l-.087.05-.433.251-.064.105v9.475l.064.11.401.228.037.027h.027l.041.028h.046l7.7 4.397h.123l.402-.232c.105-.04.203-.096.292-.165l7.062-3.937c.058-.027.115-.059.168-.095l.425-.242.064-.11V8.316zm-1.552-.675a13.23 13.23 0 01-2.997-1.254 12.984 12.984 0 01-2.696-1.98l5.693 3.234zm-8.21-3.157c-.79.74-1.668 1.379-2.615 1.903-.94.556-1.95.987-3.002 1.281l5.616-3.184zM.332 9.808c.266 1.063.393 2.157.379 3.253a12.672 12.672 0 01-.379 3.238V9.808zm1.3 8.668c1.051.3 2.06.73 3.007 1.277.98.54 1.887 1.205 2.696 1.98l-5.703-3.258zm8.212 3.156a13.021 13.021 0 012.59-1.916c.963-.57 1.997-1.01 3.076-1.304l-5.666 3.22zm6.843-5.342a12.64 12.64 0 01-.374-3.23c-.016-1.09.11-2.176.374-3.234v6.464zm0-7.39a.845.845 0 01-.083.37 11.91 11.91 0 00-.533 3.782 11.768 11.768 0 00.538 3.786.885.885 0 01-.296 1.086l-.183.105a.877.877 0 01-.351.068h-.164a12.378 12.378 0 00-3.262 1.368 11.958 11.958 0 00-3.025 2.359.915.915 0 01-.169.178l-.291.164-.078.023h-.21l-.306-.055-.082-.036H8.13l-.045-.032H8.06l-.05-.037-.046-.04-.137-.092a12.073 12.073 0 00-3.051-2.34 12.102 12.102 0 00-3.59-1.419l-.31-.096-.165-.091H.685l-.037-.032-.032-.032H.593l-.064-.096-.073-.096a.871.871 0 01-.136-.456.912.912 0 01.082-.37c.393-1.23.582-2.517.556-3.808a11.939 11.939 0 00-.502-3.727V9.31A.885.885 0 01.73 8.17l.164-.097A.981.981 0 011.259 8h.146c1.152-.3 2.256-.76 3.28-1.368a12.162 12.162 0 002.98-2.308h.027a.94.94 0 01.191-.21l.329-.215h.273l.315.055.082.037.046.027.055.036.05.042.045.05.037.045c.883.94 1.914 1.731 3.052 2.34a11.976 11.976 0 003.59 1.42h.191l.078.031.215.123.027.023.023.023.04.041.05.06c.12.153.185.343.183.538l.124.11z" fill="#332C28"/></g><defs><clipPath id="clip0_3042_3838"><path fill="#fff" d="M0 0h25.419v24H0z"/></clipPath></defs></svg>