<svg width="240" height="43" viewBox="0 0 240 43" fill="none" xmlns="http://www.w3.org/2000/svg"><path fill-rule="evenodd" clip-rule="evenodd" d="M26.294 25.74l5.38-17.259h5.147c-2.625 8.638-5.263 17.275-7.868 25.919H23.64l-5.227-17.356L13.15 34.4H7.874C5.246 25.762 2.613 17.124 0 8.48h5.117l5.41 17.26 5.331-17.26h5.11l5.326 17.26zm16.793-13.693a13.442 13.442 0 019.486-3.897c3.684 0 7.05 1.48 9.485 3.897a13.164 13.164 0 013.909 9.393c0 3.697-1.5 7.004-3.909 9.394a13.44 13.44 0 01-9.485 3.896 13.44 13.44 0 01-9.486-3.896 13.164 13.164 0 01-3.909-9.393c0-3.697 1.5-7.004 3.91-9.394zm15.456 3.423a8.405 8.405 0 00-5.97-2.461 8.347 8.347 0 00-5.948 2.455 8.428 8.428 0 00-2.447 5.976c0 2.343.93 4.453 2.447 5.976a8.346 8.346 0 005.948 2.456 8.404 8.404 0 008.431-8.431c0-2.34-.938-4.448-2.46-5.971zm15.879-3.423a13.44 13.44 0 019.485-3.897c3.685 0 7.05 1.48 9.486 3.897A13.164 13.164 0 0197.3 21.44c0 3.697-1.5 7.004-3.908 9.394a13.44 13.44 0 01-9.486 3.896 13.44 13.44 0 01-9.485-3.896 13.163 13.163 0 01-3.909-9.393c0-3.697 1.5-7.004 3.909-9.394zm15.456 3.423a8.405 8.405 0 00-5.97-2.461 8.347 8.347 0 00-5.948 2.455 8.428 8.428 0 00-2.448 5.976c0 2.343.931 4.453 2.448 5.976a8.346 8.346 0 005.947 2.456 8.404 8.404 0 008.432-8.431c0-2.34-.938-4.448-2.461-5.971z" fill="#D5B378"/><path fill-rule="evenodd" clip-rule="evenodd" d="M144.636 12.033a13.442 13.442 0 019.486-3.896c3.684 0 7.05 1.48 9.485 3.897a13.163 13.163 0 013.909 9.393c0 3.697-1.5 7.003-3.909 9.393a13.44 13.44 0 01-9.485 3.897c-3.685 0-7.05-1.48-9.486-3.896a13.163 13.163 0 01-3.908-9.394c0-3.697 1.499-7.003 3.908-9.394zm15.456 3.423a8.405 8.405 0 00-5.97-2.46 8.346 8.346 0 00-5.948 2.455 8.43 8.43 0 00-2.447 5.976 8.43 8.43 0 002.447 5.976 8.347 8.347 0 005.948 2.456 8.405 8.405 0 008.431-8.432c0-2.34-.938-4.448-2.461-5.97zm25.738 2.161l7.365-9.149h5.649v25.918h-4.962V15.19l-8.052 9.658-8.052-9.688v19.226h-4.962V8.468h5.65l7.364 9.15zm19.092 16.678V8.468h15.232v4.613h-10.269v5.785h9.92v4.607h-9.92v6.3h10.625v4.613h-15.588v-.091zm29.192-9.63c-.644-.58-1.506-.986-2.371-1.277l-2.067-.754c-1.33-.468-2.819-1.146-3.978-2.21-1.166-1.069-1.996-2.524-1.996-4.542l.003-.239c.058-2.315.958-4.192 2.349-5.49 1.392-1.3 3.276-2.019 5.303-2.019l.214.003a9.521 9.521 0 013.65.86 11.063 11.063 0 013.226 2.255l.062.06-2.992 3.357-.069-.061c-.69-.618-1.365-1.058-2-1.34-.681-.3-1.315-.42-1.873-.384h-.002c-.811.035-1.486.358-1.966.848a2.814 2.814 0 00-.796 1.972c0 .81.267 1.38.785 1.833.527.462 1.317.808 2.352 1.163l2.074.691c1.481.434 3.183 1.393 4.391 2.92.944 1.194 1.587 2.735 1.587 4.643l-.001.116c-.031 2.298-.973 4.201-2.471 5.53-1.496 1.328-3.547 2.081-5.799 2.081l-.136-.001c-1.465-.032-3.004-.375-4.525-1.074-1.405-.645-2.796-1.596-4.099-2.886l-.06-.06 2.987-3.541.071.072c.958.981 1.906 1.67 2.808 2.119 1.013.505 1.967.71 2.811.69 1.041-.006 1.917-.349 2.543-.883.661-.564 1.044-1.343 1.044-2.163 0-.972-.424-1.717-1.059-2.289z" fill="#FEFEFE"/><path d="M111.911 27.646V0h10.546c1.999 0 3.91.39 5.655 1.096a14.986 14.986 0 014.82 3.14 14.52 14.52 0 013.24 4.701 14.012 14.012 0 011.132 5.526c0 1.955-.403 3.822-1.132 5.526a14.521 14.521 0 01-3.24 4.702 14.974 14.974 0 01-4.82 3.14 15.062 15.062 0 01-5.655 1.095h-10.546v-1.28zm4.972-22.73v19.1h5.574c1.343 0 2.62-.257 3.781-.723a9.856 9.856 0 003.2-2.079 9.562 9.562 0 002.131-3.1 9.301 9.301 0 00.743-3.65 9.3 9.3 0 00-.743-3.65 9.548 9.548 0 00-2.13-3.098 9.863 9.863 0 00-3.2-2.077 10.136 10.136 0 00-3.782-.723h-5.574z" fill="#FEFEFE"/><path d="M101.284 41.457V13.81h10.546c1.999 0 3.91.39 5.655 1.096a14.974 14.974 0 014.82 3.14 14.525 14.525 0 013.241 4.702 14.028 14.028 0 011.13 5.526c0 1.955-.402 3.821-1.13 5.525a14.527 14.527 0 01-3.241 4.702 14.981 14.981 0 01-4.82 3.14 15.062 15.062 0 01-5.655 1.096h-10.546v-1.281zm4.972-22.73v19.101h5.574c1.344 0 2.62-.258 3.781-.724a9.852 9.852 0 003.2-2.078 9.564 9.564 0 002.131-3.101 9.303 9.303 0 00.743-3.65 9.3 9.3 0 00-.743-3.65 9.54 9.54 0 00-2.131-3.097 9.847 9.847 0 00-3.199-2.078 10.137 10.137 0 00-3.782-.723h-5.574z" fill="#D5B378"/><path d="M116.884 13.13h-4.973v7.077h4.973v-7.076z" fill="#FEFEFE"/></svg>