<svg width="1920" height="848" viewBox="0 0 1920 848" fill="none" xmlns="http://www.w3.org/2000/svg"><g opacity=".1" clip-path="url(#clip0_1295_1747)" stroke="#FEFEFE" stroke-width="2"><path d="M1398.64-181.563c13.04-9.423 27.83-8.918 42.11-6.638 7.53 1.201 14.84 2.912 22.44 4.265h0c4.72.84 9.46 1.401 14.17 1.918 4.72.518 9.4.992 14.08 1.662 22.71 3.255 45.27 8.404 67.87 13.737 22.57 5.33 45.18 10.847 67.93 14.815 45.92 8.015 92.18 11.336 138.38 9.976 23.1-.682 46.18-2.534 69.21-5.561 18.75-2.466 37.25-6.133 55.91-5.928 16.79.184 33.8 3.444 49.08 14.516 15.1 10.947 27.14 30.281 34.11 54.285 7.54 25.945 9.83 54.745 10.68 83.1 1.06 35.164.69 70.523-.02 105.716-.74 36.597-2.12 73.161-3.83 109.683-1.69 36.162-4.18 72.395-5.69 108.601-1.36 32.431.43 65.052-4 96.845-4.27 30.621-15.53 57.559-28.58 80.825-12.51 22.292-27.18 41.326-41.54 60.998-14.35 19.656-28.36 39.92-39.42 64.576-11.67 25.989-17.3 54.984-21.38 85.69-4.08 30.691-7.46 62.081-17.37 89.532-9.76 27.024-24.61 48.243-39.47 68.43a2694.02 2694.02 0 01-52.32 68.706c-16.39 20.817-32.65 42.488-50.07 60.972l-1.69 1.782c-17.73 18.52-37.17 27.28-58.13 31.89-9.2 2.02-18.59 3.61-27.85 6.01-8.99 2.32-17.89 4.82-26.86 6.72-17.57 3.72-36.17 5.84-52.86-3.55-7.97-4.48-14.93-11.37-20.3-21.91-4.79-9.41-8.22-20.174-11.38-31.199l-1.34-4.739c-9.48-33.839-18.92-67.71-28.38-101.567-17.07-61.097-37.77-126.012-33.15-194.498 3.97-59.028 25.12-109.571 44.02-159.543 9.88-26.142 19.42-52.817 26.01-81.585 6.76-29.505 10.85-60.488 12.21-91.766 2.65-61.115-4.72-123.08-21.67-178.273 1.25.278 2.46-.249 3.38-1.095.76-.698 1.4-1.673 1.83-2.824 7.34 24.13 13.01 49.482 16.79 75.582 8.54 59.059 7.88 121.636-2.73 179.927-10.37 56.95-31.81 104.841-50.08 156.087-8.96 25.132-17.02 51.355-21.38 79.542-4.83 31.209-3.96 63.13.75 94.205 4.97 32.767 13.42 63.867 21.98 94.55 9.23 33.074 18.48 66.133 27.72 99.199 4.01 14.332 7.75 29.058 12.31 43.056 3.85 11.811 8.7 23.711 16.28 30.901l.36.34c15.4 14.13 34.71 13.36 51.49 10.65h0c8.85-1.43 17.63-3.64 26.36-5.91 8.74-2.26 17.43-4.58 26.17-6.26 21.16-4.06 42.09-9.96 60.75-27.73 18.14-17.28 34.56-39.689 50.96-60.412A2693.99 2693.99 0 001774 869.54c14.67-19.771 30.07-39.906 40.83-65.709l.51-1.233c10.62-25.992 14.47-56.275 18.32-85.903 3.87-29.746 8.34-59.009 18.43-85.078 9.18-23.697 21.5-43.917 34.46-62.655l1.26-1.808c27.38-39.258 61.93-76.79 74.94-134.519 6.87-30.532 5.62-63.614 6.21-95.257.64-33.975 3.39-67.915 5.08-101.859 3.57-71.432 6.12-143.1 5.31-214.804-.31-26.771-1.25-56.123-6.3-82.427-5.04-26.282-14.21-49.692-31.1-64.419-14.87-12.97-32.25-16.588-48.87-17.055-17.63-.499-35.16 2.644-52.53 5.083-44.89 6.302-90.03 8.125-135.08 5.477-44.44-2.611-88.56-10.212-132.56-20.617-22.49-5.316-45.01-10.898-67.67-14.854-8.99-1.568-17.99-2.703-26.95-3.887-8.98-1.185-17.92-2.421-26.83-4.193-13.64-2.714-28.56-6.001-42.52-.581l-.66.265c-8.26 3.378-14.9 10.338-19.94 19.494-5.04 9.159-8.51 20.58-10.38 33.012-8.59 56.938 14.12 111.714 36.35 152.714 5.77 10.642 11.76 20.976 17.75 31.285 5.99 10.313 11.98 20.6 17.77 31.168 12.16 22.197 22.99 45.757 31.68 71.655-1.21-.229-2.38.294-3.27 1.116-.8.74-1.47 1.79-1.91 3.032-8.63-25.441-19.31-48.544-31.34-70.324-23.15-41.938-50.33-80.704-64.86-132.033-7.6-26.846-11.62-56.482-8.36-85.709 1.41-12.591 4.39-25.03 8.9-35.673 4.38-10.32 10.16-18.883 17.28-24.293l.69-.514zm80.96 346.983c.66-.614 1.26-.726 1.7-.582.45.149 1.1.693 1.61 2.219l.03.101c1.01 3.128-.02 5.969-1.36 7.206-.67.612-1.27.728-1.71.584-.44-.143-1.06-.645-1.56-2.018l-.1-.286c-.99-3.137.04-5.985 1.39-7.224z" fill="#D5B378"/><path d="M1466.97-123.444c17.83-4.523 35.59-1.832 53.32 3.478 8.86 2.655 17.7 5.956 26.52 9.324 7.86 3.001 15.72 6.055 23.55 8.735-.04.041-.08.083-.12.127-.83.929-1.35 2.255-1.58 3.584-.23 1.298-.21 2.716.16 3.95-7.21-2.475-14.38-5.227-21.58-7.961-8.29-3.148-16.61-6.27-25.01-8.892-17.53-5.471-36.02-9.136-54.05-4.564-6.94 1.761-13.68 4.823-19.5 10.093-5.82 5.272-10.65 12.709-13.84 23.142-5.46 17.839-4.26 39.306.63 56.98 6.74 24.365 19.11 43.421 30.68 61.89 22.35 35.692 40.71 75.799 53.5 121.87 12.58 45.302 19.91 93.979 21.67 143.353 1.89 52.741-3.28 105.427-12.8 155.97-5.09 26.966-11.56 53.312-19.47 78.523-3.85 12.256-8.09 24.195-12.37 36.11-4.29 11.911-8.62 23.803-12.67 35.942-7.8 23.41-14.67 47.87-17.96 73.988-3.7 29.292-1.47 58.551 3.62 87.003 5.17 28.894 12.22 57.089 19.27 84.905 6.54 25.824 12.75 53.701 23.05 76.756 10.27 22.998 25.14 35.121 41.45 39.338 16.27 4.207 33.79.497 49.31-7.813 17.61-9.436 33.98-23.859 49.97-38.217 16.51-14.832 32.69-30.55 48.52-47.119 29.88-31.293 59.66-65.247 78.71-114.468 8.84-22.843 15.34-47.797 19.21-73.834 1.99-13.469 3.32-27.135 4.64-40.772 1.32-13.645 2.64-27.262 4.63-40.678 4-26.982 11.3-51.116 21.77-73.321 10.05-21.311 21.72-40.443 32.93-60.358 11.47-20.391 21.79-41.925 30.4-65.616 8.16-22.466 14.85-46.164 20.33-70.531 11.19-49.817 17.52-102.004 22.02-154.208 1.97-22.891 3.58-45.859 5.08-68.835l.63-9.848c1.59-24.734 3.25-49.63 2.62-74.588-.61-23.837-3.46-48.305-11.7-68.889-7.85-19.61-20.16-33.222-34.11-40.594-15.25-8.062-31.35-10.081-47.46-9.662-16.06.417-32.29 3.273-47.67 5.014-76.13 8.616-153.16 15.522-228.26-8.074.03-.026.05-.051.08-.078.82-.928 1.34-2.254 1.58-3.582.23-1.327.2-2.78-.19-4.034 17.89 5.597 35.96 9.514 54.12 12.002 39.68 5.438 79.57 4.377 119.23 1.106 20.15-1.662 40.26-3.904 60.36-6.197 16.75-1.912 33.38-4.363 50.05-3.762 14.64.528 29.71 3.787 43.13 12.12 13.41 8.323 25.24 21.754 33.35 42.75 16.49 42.675 12.44 96.898 9.4 144.523-6.75 105.747-14.9 216.032-48.94 309.762-8.53 23.474-18.75 44.965-30.09 65.256-11.65 20.845-24.17 40.884-34.56 63.544-5.12 11.147-9.78 22.913-13.25 35.591l-.33 1.229c-3.58 13.421-5.91 27.583-7.71 41.787-3.46 27.4-4.85 55.181-9.63 82.016-9.61 53.932-30.17 99.652-57.31 135.268-14.39 18.893-29.95 35.616-45.64 51.817-16.04 16.57-32.44 32.26-49.16 47.036-15.27 13.49-31.38 26.83-48.13 35.326-16.74 8.487-34.01 12.094-51.67 6.265-15.23-5.022-29.13-17.434-38.87-37.026h0c-11.07-22.267-17.36-50.145-24.1-76.29-7.34-28.515-14.55-57.355-20.17-86.813-5.39-28.261-8.39-57.457-5.84-86.838 4.75-54.562 25.22-100.427 41.26-148.27 32.47-96.866 44.64-212.728 27.14-319.487-8.16-49.724-22.29-96.985-42.01-138.016v-.001l-.96-1.995c-10.08-20.53-21.99-38.25-33.16-57.05-10.32-17.357-20.23-36.968-24.23-60.177l-.19-1.107-.28-1.788c-2.75-18.536-1.6-38.852 4.86-55.114 7.55-18.992 20.29-27.573 33.82-31.006zm104.76 22.992c.47-.524.93-.67 1.47-.497v.001c.6.198 1.08.73 1.36 1.619.29.891.33 2.02.14 3.111-.2 1.1-.61 2.036-1.11 2.599-.46.521-.93.665-1.46.487-.01-.001-.01-.003-.02-.005-.6-.198-1.07-.725-1.35-1.606-.28-.889-.33-2.015-.13-3.106.19-1.1.6-2.038 1.1-2.603z" fill="#D5B378"/><path d="M1491.81-72.401c5.65-2.26 11.69-1.27 17.48 1.139 3.67 1.53 7.31 3.302 10.97 5.094 3.66 1.788 7.35 3.598 11.08 5.176 29.85 12.62 60.59 19.394 91.37 22.549 31.3 3.212 62.73 2.722 94.01-.172 15.05-1.393 30.08-3.355 45.07-5.788 15.65-2.538 30.97-6.205 46.52-8.046h0c15.61-1.844 31.58-1.306 46.33 6.764 11.44 6.258 21.76 16.922 30.27 30.695 17.42 28.184 27.05 67.221 29.48 106.122 3.21 51.377-5.6 102.757-15.7 151.246-10.17 48.798-20.26 98.642-35.73 143.929-13.86 40.565-33.05 75.388-49.97 112.941-8.18 18.138-15.83 36.999-21.82 57.216-6.2 20.911-9.77 43.063-13.03 65.386-3.27 22.442-6.46 45.029-12.68 65.882-6.15 20.624-15.6 37.538-26.72 51.924-12.29 15.908-25.8 29.566-39.05 43.605-14.23 15.075-28.56 29.905-42.95 44.611-10.91 11.157-21.86 22.245-32.81 33.312l-10.96 11.062c-6.06 6.12-12.38 12.24-18.99 17.061-6.41 4.672-13.03 8.075-19.91 9.104l-.66.093c-13.17 1.676-24.34-8.979-31.44-27.151-3.62-9.249-6.15-19.451-8.76-29.574-3.19-12.407-6.34-24.831-9.28-37.385-11.2-47.911-19.54-99.529-12.73-150.434 3.25-24.282 9.61-47.202 16.3-69.635h0c6.87-23.003 13.82-45.92 19.87-69.535 23.47-91.585 37.19-192.553 25.81-291.111-5.08-44.035-14.87-86.914-30-124.97-7.48-18.815-16.24-36.306-26.22-52.017-10.06-15.836-20.98-30.041-28.95-48.428.71-.058 1.37-.404 1.88-.875.44-.403.82-.924 1.1-1.526 7.59 17.116 17.91 30.616 27.18 45.066h0c39.07 60.885 58.84 146.877 61.83 232.417 3.42 97.936-14.82 194.729-40.55 282.978-6.49 22.264-13.74 44.165-19.21 67.225-5.64 23.778-8.78 48.352-8.4 73.814.78 51.472 13.42 100.634 25.6 147.496 2.5 9.621 5.37 19.86 9.41 28.363 4.02 8.48 9.29 15.437 16.69 18.212v-.001c7.4 2.777 14.93.929 21.97-2.893 7.04-3.819 13.74-9.686 19.58-15.201 14.41-13.61 28.4-28.492 42.47-42.817v-.001c14.07-14.329 28.11-28.755 42.06-43.393 13.24-13.906 26.64-27.727 39.48-42.646 11.67-13.552 22.74-29.097 30.15-49.068 7.33-19.755 11.11-41.564 14.38-63.59 3.27-22.059 6.02-44.318 11.28-65.13 10.24-40.484 27.29-75.094 43.89-109.682 8.51-17.724 16.97-35.598 24.43-54.52 8.39-21.268 15.24-43.899 21.15-67.082 5.92-23.201 11.03-46.888 16.16-70.515 5.25-24.2 10.41-48.514 14.38-73.361 7.25-45.296 10.46-93.505 1.31-138.842-7.35-36.394-22.29-70.645-44.85-87.732-14.32-10.855-29.93-13.272-45.6-12.351-15.6.916-31.48 5.169-46.15 7.717-59.6 10.354-120.2 14.142-179.74 2.418-14.47-2.849-28.88-6.612-43.11-11.608a272.15 272.15 0 01-20.94-8.328c-3.52-1.574-6.99-3.455-10.58-5.241-3.56-1.77-7.21-3.423-10.94-4.443h0c-4.69-1.284-9.85-1.03-14.07 1.78-4.23 2.822-7.31 8.087-8.1 16.408-1.2 12.67 1.89 26.118 5.84 37.11-.79.014-1.51.377-2.07.887-.36.33-.68.74-.93 1.209-3.7-10.643-6.3-22.811-6.17-34.864.08-6.793 1.28-13.017 3.5-17.943 2.22-4.927 5.42-8.484 9.49-10.112zm-4.54 63.185c.39-.35.71-.399.93-.342.21.056.61.297.98 1.17.01.017.01.035.02.051.73 1.863.12 3.536-.66 4.251-.38.352-.7.394-.9.338-.21-.056-.62-.3-.98-1.202l-.02-.055c-.74-1.84-.15-3.498.63-4.21z" fill="#D5B378"/><path d="M1783.18-7.019c11.91-6.113 23.81-10.336 36.12-7.994 11.07 2.11 20.5 10.005 28.5 21.254 7.75 10.889 14.09 24.81 19.24 39.325l.5 1.406c6.09 17.467 10.64 35.83 11.72 55.774 1.14 21.188-.81 42.65-2.3 63.792-1.46 20.75-3.21 41.513-6.58 61.693-3.3 19.751-8.42 38.437-14.55 56.42-6.51 19.089-13.79 37.514-20.86 56.146l-21.51 56.694c-14.46 38.093-28.99 76.127-43.37 114.305-6.76 17.953-13.16 36.321-16.93 56.52-1.8 9.657-3.14 19.483-4.45 29.296-1.3 9.821-2.57 19.627-4.24 29.281-3.1 17.943-7.87 34.675-14.98 49.501-6.72 14.011-14.85 26.11-23.55 37.072-7.76 9.774-15.93 18.704-24.16 27.549l-3.53 3.789c-11.83 12.691-23.67 25.387-35.5 38.079-10.67 11.441-21 23.96-32.23 33.628l-1.08.926c-4.99 4.191-10.37 7.619-15.77 9.018-5.19 1.342-10.42.823-15.44-2.755l-.49-.355c-4.34-3.272-7.82-8.494-10.67-14.718-2.86-6.213-5.06-13.335-6.89-20.319-4.89-18.607-8.78-38.191-11.56-57.849-2.82-20.002-4.21-40.487-3.44-60.954.72-19.391 3.14-38.55 6.54-57.217 7.11-39 18.23-75.684 27.57-113.522 19.32-78.301 31-162.797 27.03-247.156-3.5-74.525-19.59-148.744-49.82-207.124.57-.252 1.01-.732 1.31-1.201.14-.22.26-.466.37-.73 6.28 12.252 12.02 25.187 17.14 38.733 23.88 63.289 34.32 137.703 33.57 210.993-.84 81.772-15.24 160.356-34.99 235.472-9.54 36.288-19.64 72.852-24.43 111.706-2.39 19.396-3.27 39.178-2.2 58.897 1.12 20.52 4.22 40.665 8.18 60.216 3.36 16.615 6.78 35.589 13.98 49.586 3.25 6.316 7.52 11.458 12.79 13.728h0c6.09 2.624 12.38.991 17.99-2.085l.54-.302c6.07-3.463 11.72-8.51 17.11-14.043 5.38-5.51 10.63-11.631 15.76-17.135 11.4-12.227 22.8-24.454 34.2-36.684 18.99-20.37 39.31-40.049 54.89-67.4 7.66-13.453 13.75-28.781 17.54-45.861 4.11-18.515 6-38.04 8.8-56.966 2.86-19.279 7.3-37.282 13.31-54.665 6.29-18.209 13.31-35.81 20.08-53.639l42.21-111.26c7-18.45 14.04-36.872 21-55.367 6.37-16.935 12.61-34.183 17.33-52.504l.45-1.776c4.76-18.987 7.6-38.946 9.54-59.046 2-20.727 3.5-41.785 4.4-62.707.92-21.08-.09-41.54-5.19-61.348-4.32-16.762-10.33-33.256-17.69-47.238-6.87-13.061-15.56-24.48-26.2-29.79v-.002c-12.42-6.189-25.46-3.507-37.51 1.636-6.01 2.567-11.88 5.732-17.7 8.98-5.83 3.256-11.59 6.587-17.44 9.528-11.32 5.689-23.1 8.736-34.97 10.386-12.39 1.722-24.87 1.896-37.38 1.747-12.82-.158-25.57-.372-38.29-2.043-25.73-3.382-51.17-11.434-75.76-23.939h0c-2.96-1.502-6.26-3.255-9.59-3.993-3.4-.752-6.91-.47-10.23 2.14-3.65 2.863-5.04 7.667-4.33 13.489 1.23 10.036 5.85 18.9 9.94 26.555-.56.255-.99.73-1.28 1.192-.15.23-.28.487-.39.763-3.79-7.25-7.44-14.866-9.37-23.648-1.04-4.72-1.4-9.994-.09-14.496l.13-.434c1.73-5.459 5.63-8.471 9.22-9.54v.001c2.77-.823 5.57-.478 8.44.47 2.89.953 5.73 2.477 8.62 3.94 6.4 3.237 12.85 6.175 19.36 8.801 26.52 10.707 53.7 15.949 81.06 16.471 25.39.487 51.66 1.647 76.75-8.291v-.001c6.01-2.38 11.97-5.565 17.9-8.903 5.95-3.35 11.85-6.841 17.8-9.898zM1555.87 38.37c.05.024.19.12.38.476v0c.59 1.122.38 2.555-.13 3.37-.22.342-.39.426-.44.445-.05-.024-.19-.12-.38-.477-.59-1.121-.38-2.554.14-3.37.21-.339.38-.424.43-.444z" fill="#D5B378"/><path d="M1805.38 26.198l.73.028c6.76.387 13.5 3.56 19.39 9.176 13.13 12.54 20.06 35.839 18.66 60.091-.74 12.956-3.33 25.323-5.74 37.835-2.24 11.574-4.33 23.258-4.63 35.515a2.16 2.16 0 00-.56-.016c.27-11.214 1.99-22.158 4.03-32.955 4.59-24.194 10.42-50.017 2.46-74.645-6.68-20.689-21.29-33.849-36.46-32.951-9.06.537-17.55 6.604-25.21 12.539-8.17 6.326-16.06 12.901-24.47 17.943-17.1 10.246-35.36 15.626-53.62 15.91h0c-8.7.137-17.32-1.117-25.98-3.06l-1.73-.396-3.62-.855c-8.51-1.998-17.34-3.853-26.15-2.218-4.51.838-9.29 2.68-13.17 6.343-3.89 3.676-6.8 9.112-7.7 16.99-.71 6.23-.27 12.673.37 18.82l.29 2.615c.84 7.511 1.77 14.996 2.71 22.475 7.62 61.214 16.92 122.621 16.32 185.279-.56 59.292-10.64 116.912-22.46 172.912l-1.15 5.415c-3.12 14.665-6.36 29.273-9.58 43.896-3.25 14.746-6.61 29.539-8.97 44.771-4.18 27.018-4.92 57.711 4.99 82.28 4.25 10.54 10.95 19.289 18.59 23.952 3.83 2.337 7.92 3.661 12.06 3.635 4.15-.027 8.29-1.412 12.2-4.388 4.36-3.318 8.21-8.066 11.78-13.206 3.56-5.126 6.93-10.775 10.21-15.824a1513.636 1513.636 0 0020.92-33.177c12.89-21.059 27.38-42.711 34.37-70.708 3.39-13.605 5.31-27.994 7.79-41.931 2.43-13.67 5.7-26.607 10.24-38.854 4.02-10.869 8.68-21.085 13.26-31.447l1.96-4.453c5.28-12.107 10.12-24.639 14.66-37.461 9.06-25.647 17.03-52.324 25.75-78.191 4.3-12.753 8.79-25.344 13.69-37.526 2.35-5.839 4.86-11.503 7.39-17.179 2.52-5.671 5.06-11.356 7.44-17.209 4.72-11.6 8.91-24.458 9.54-38.554.34-7.758-.33-15.397-1.09-22.967-.66-6.608-1.4-13.153-1.63-19.749a2.11 2.11 0 00.56-.018c.23 6.719.98 13.368 1.64 19.963.72 7.092 1.33 14.134 1.13 21.247l-.05 1.424c-.62 13.974-4.28 26.464-8.96 38.321-2.34 5.931-4.93 11.696-7.51 17.412-2.59 5.709-5.18 11.376-7.5 17.079-10.33 25.436-18.8 52.573-27.43 79.413-8.6 26.707-17.5 53.054-28.32 77.655-5.41 12.294-11.07 24.483-15.68 37.684-4.72 13.519-7.59 27.903-10.05 42.687-2.29 13.789-4.46 27.639-8.28 40.496l-.38 1.241c-4.02 13.062-9.74 24.644-15.85 35.526-13.31 23.714-27.67 46.15-42.14 68.153h0c-3.2 4.864-6.39 9.916-9.86 14.31-3.48 4.395-7.17 8.037-11.3 10.122-6.65 3.355-14.01 2.42-20.61-1.576l-.64-.396-.7-.461c-7.18-4.863-12.87-12.925-17.04-22.874-4.18-9.94-6.81-21.688-7.95-33.817l-.1-1.174c-2.6-30.519 3.76-60.35 10.05-88.977 6.6-30.028 13.36-60.022 19.15-90.498 5.79-30.503 10.67-61.583 13.27-93.222 2.6-31.727 2.55-63.642.5-95.428-2.1-32.604-6.05-64.816-10.15-96.886-2.03-15.959-4.11-31.896-6.04-47.882-1.54-12.837-4.07-27.31-.76-39.603 3.21-11.955 11.49-16.556 19.11-18.264 9.47-2.122 19.05.06 28.72 2.339 9.89 2.328 19.8 4.086 29.9 3.927 9.86-.154 19.69-1.775 29.34-4.851 9.5-3.03 18.82-7.441 27.8-13.18 4.54-2.903 8.91-6.296 13.23-9.719 4.34-3.432 8.62-6.888 13.01-9.97 7.15-5.012 14.43-8.873 22.01-8.704zm28.08 144.623c.01.009.04.031.08.083.08.1.18.315.21.695v.174c0 .484-.12.743-.2.854-.04.048-.06.068-.08.077a.289.289 0 01-.08-.074c-.07-.095-.17-.304-.19-.679l-.01-.171v-.035c0-.488.12-.747.2-.854.03-.041.05-.061.07-.07z" fill="#D5B378"/><path d="M1687.42 547.8c-3.32 10.021-7.01 19.694-11.42 28.729l-.87 1.75c-4.18 8.311-8.95 15.859-14.37 22.061-2.39 2.742-5.05 5.602-7.86 7.67-2.81 2.077-5.63 3.245-8.36 2.87-2.19-.3-4.33-1.865-5.72-5.092a14.19 14.19 0 01-.84-2.635c.63 2.359 1.74 4.096 3.17 5.223 1.58 1.246 3.47 1.68 5.3 1.457 3.25-.392 6.19-2.419 8.78-4.675l.51-.455c3.02-2.721 5.89-5.858 8.56-9.343v.001c9.91-12.902 17.2-29.912 23.12-47.561zm-32.44-11.672a665.482 665.482 0 01-5.9 20.713 672.14 672.14 0 01-3.61 11.514l-1.24 3.805c-1.6 4.821-3.46 9.667-4.92 14.702-.07.263-.15.531-.22.802.8-3 1.81-5.891 2.82-8.807 1.33-3.869 2.63-7.763 3.9-11.685l1.26-3.932a654.014 654.014 0 007.91-27.112zm.74-2.783a24.66 24.66 0 010 0zm148.44-311.363c-5.74 38.773-22.98 71.812-37.29 104.287-4.5 10.23-8.81 20.695-12.59 31.66-3.74 10.866-7.05 22.093-10.51 33.133-3.46 11.024-7.07 21.923-11.4 32.103-2.27 5.322-4.75 10.394-7.28 15.448-2.52 5.046-5.09 10.085-7.51 15.305-6.57 14.209-11.52 29.815-16.09 45.695 1.87-6.579 3.8-13.106 5.9-19.515 3.5-10.759 7.5-21.025 12.13-30.645v-.001c4.78-9.897 9.98-19.48 14.29-30.06 4.09-10.054 7.54-20.651 10.86-31.317 3.32-10.68 6.51-21.416 10.12-31.809 7.49-21.588 17.06-41.056 26.03-61.263v-.001c8.6-19.368 16.71-39.752 21.43-62.428a212.36 212.36 0 001.91-10.592zm-137.35-28.868a639.4 639.4 0 012.25 12.456c-.9-5.019-1.83-10.022-2.73-15.027l.48 2.571zm124.91-104.743c3.23-.648 6.54-.489 9.41 1.002 2.85 1.482 5.4 4.348 7.03 9.386.68 2.127 1.17 4.404 1.52 6.759a46.85 46.85 0 00-.39-2.139c-1.24-6.005-3.75-11.364-8.58-13.423-3.94-1.68-8.1-1.285-12.06-.035-3.95 1.247-7.81 3.383-11.21 5.318-3.81 2.173-7.55 4.63-11.26 7.103-3.71 2.48-7.38 4.974-11.11 7.251-7.18 4.384-14.37 8.523-21.8 10.98l-.72.232c-5.89 1.859-11.76 2.07-17.83 1.954l-2.62-.065c-6.14-.185-12.36-.332-18.58.432l-1.25.165c-6.43.917-13.16 2.875-19 7.867-3.03 2.582-5.3 6.383-6.93 10.728a48.056 48.056 0 00-1.47 4.729c1.79-7.33 4.92-13.463 9.3-17.006 5.49-4.442 11.69-6.328 17.89-7.273 6.92-1.051 13.87-.605 20.99-.494 7.07.11 14.25-.117 21.36-2.622 10.32-3.637 20.16-9.942 29.78-16.351l4.1-2.747c7.65-5.119 15.38-10.136 23.43-11.75z" fill="#D5B378"/><path d="M1705.02 182.18c-3.91 8.81-3.41 22.435-2.5 33.884 3.97 49.719 4.44 100.13 1.4 150.009-.18 2.922-.34 6.077.63 8.584 2.28 5.908 8.17 3.151 11.5-1.37 13.69-18.631 14.71-51.338 24.16-75.643 6.92-17.797 18.15-30.491 25.62-47.724 5.83-13.444 9.1-29.527 9.55-45.768.38-13.428 1.07-36-1.87-48.465-3.77-16.003-16.46-2.958-22.09 1.064-10.47 7.48-21.58 12.747-32.93 15.612-3.44.871-7.02 1.588-9.96 4.53-1.44 1.443-2.6 3.232-3.51 5.287z" stroke-miterlimit="10"/><path d="M1742.29 1004.29c.04.03.08.07.11.1l-.55.83a.138.138 0 01-.03-.04.498.498 0 01-.1-.14c-.01-.01-.02-.04-.04-.06l.61-.69zm0 0l-.61.68a.975.975 0 01-.06-.14c-.01-.05-.03-.13-.04-.24.15-.01.34-.05.53-.18.06-.04.11-.09.16-.14.01.01.01.02.02.02zm-1.72-.92c-.02.06-.02.11-.02.15-.01.15.01.26.02.31.03.09.06.16.06.17l.01.01.76-.65a.922.922 0 00-.05-.08c-.18.07-.46.13-.6.13a.802.802 0 01-.18-.04zm0 0c.01-.07.04-.15.08-.23m-.08.23a.539.539 0 01-.17-.08m.25-.15l-.25.15m.25-.15c.05-.1.13-.21.24-.3m-.24.3l-.25.15m0 0a.908.908 0 01-.2-.13l-.03-.03.72-.29m0 0l.14-.06c-.12-.25-.28-.68-.01 0l-.13.05v.01zm216.64-411.744c.76.016 1.41.471 1.93 1.423.52.963.8 2.307.8 3.701 0 1.396-.29 2.721-.8 3.653-.51.915-1.14 1.33-1.89 1.314l-.78-.01c-3.92-.014-7.75.509-11.53 1.682-17.21 5.326-32.22 21.284-43.63 41.28-12.67 22.189-20.85 49.905-27.03 77.679-3.31 14.873-5.96 30.089-8.68 45.227-2.72 15.147-5.51 30.222-9.12 44.861-3.41 13.841-7.6 27.09-12.97 39.257a222.708 222.708 0 01-15.98 29.757c-11.78 18.427-25.21 34.012-38.64 49.479-12.9 14.871-25.86 29.56-37.65 46.764l-1.14 1.673c-2.99 4.437-6.38 9.102-8.92 14.426v.001c-.46.967-1 2.189-1.41 3.488-.4 1.29-.68 2.72-.58 4.089v.01c.05.5.16 1.04.26 1.46.01.03.01.05.02.07h.02c.04.15.09.3.14.43.01.01.01.02.01.03.02.04.06.15.11.26.01.02.02.04.02.05l.01.01h0c.04.08.08.16.12.23h0v.01c.08.13.32.47.4.59.01.01.01.01.01.02l-.03.03c.06.07.12.14.17.19.01.01.03.03.05.06.28.29.57.54.8.75v0c.07.06.16.13.22.18l-.01.02h.01v.01c.08.05.16.1.2.13.01 0 .05.03.11.06h0c.19.11.37.2.51.27h0c.42.21.84.38 1.25.53v0c.5.18.8.29 1.09.35.28.06.57.08.94.12h0c1.91.22 3.8.09 5.65-.22h0c5.53-.94 11.07-2.07 16.56-3.09a5883.193 5883.193 0 01132.51-22.949v-.001c22.11-3.57 44.22-7.006 66.34-10.318v-.001c.41-.062 1.05.222 1.69 1.295.6 1.009 1 2.418 1 3.761 0 3.111-1.51 4.744-2.86 5.032l-.13.024a5874.393 5874.393 0 00-75.96 11.879l-8.49 1.39a5841.84 5841.84 0 00-67.87 11.588c-8.48 1.5-16.96 3.01-25.44 4.55l-8.48 1.54c-5.6 1.02-11.2 2.06-16.79 3.1-4.87.9-9.52 2.24-14.2 2.55l-.94.05c-3.63.13-7.57-.63-10.43-3.88h0c-3.8-4.33-5.24-11.97-3.44-19.129 1.54-6.164 4.56-11.067 7.62-15.814l1.31-2.028c2.97-4.616 6.05-9.065 9.2-13.379 13-17.772 27.14-33.245 41.01-49.441 13.28-15.517 26.48-31.964 37.49-51.817 5.43-9.783 10.19-20.356 14.15-31.951 4.89-14.305 8.28-29.658 11.24-45.109 5.87-30.654 10.72-61.54 18.83-90.9 7.61-27.536 18.12-53.524 32.89-72.642v.001c14-18.125 31.14-30.085 49.13-29.705z" fill="#D5B378"/><path d="M1928.47 669.196c.28-.166.67-.177 1.21.345.49.459.92 1.216 1.15 2.096l.08.385c.43 2.49-.59 4.466-1.76 5.165-2.24 1.329-4.34 3.119-6.29 5.159-8.51 8.924-13.97 23.493-17.27 38.081-3.9 17.233-5.64 35.512-8.16 53.188-4.61 32.313-10.72 64.823-21.87 93.06-5.63 14.251-12.54 26.901-20.58 37.867-8.23 11.237-17.42 21.424-24.92 34.278-.59 1.011-1.67 2.603-2.51 4.191-.82 1.565-1.55 3.38-1.59 5.21v.209l.02-.001c0 .02.01.048.01.085.01.085.02.212.03.323 0 .019.01.042.01.068v.166c0 .019.01.036.01.05 0 .026.01.049.01.066 0 .018.01.035.01.049.01.028.02.055.02.079a.2.2 0 01.02.072c.02.045.03.096.05.141 0 .012.01.025.01.04.01.013.01.033.02.056.01.011.02.026.02.043.01.017.03.043.04.075.01.016.03.039.05.064.01.024.04.063.08.106v.005c.07.119.15.258.27.415l.14.188v.001l.37-.287c.02-.001.04 0 .06-.002.06-.008.17-.032.22-.049.06-.02.16-.068.2-.096.04-.02.07-.042.1-.064.16.157.4.383.54.51-.25.268-.57.323-.75.321a.936.936 0 01-.35-.07.888.888 0 01-.18-.095c-.03-.016-.04-.029-.05-.033 0-.003-.01-.006-.01-.007l.01.002c0 .003 0 .007.01.013.01.01.03.024.04.042.04.034.09.077.14.125.09.091.21.21.31.305.04.039.1.089.15.139l.16.138c.16.114.3.221.46.315.08.044.16.085.25.125l.28.124c2.51 1.091 5.19 1.165 7.78.917 1.3-.124 2.6-.331 3.86-.543 1.26-.214 2.47-.431 3.65-.586a371.313 371.313 0 0037.2-6.833c24.86-5.895 49.46-14.343 73.61-25.228v-.001c.32-.145.56-.149.74-.107.19.044.4.162.62.398.47.492.88 1.382 1.07 2.488.19 1.089.15 2.258-.14 3.221-.28.968-.78 1.608-1.41 1.893h0a419.605 419.605 0 01-7.11 3.133l-2.37 1.013c-25.13 10.617-50.69 18.501-76.49 23.758a374.107 374.107 0 01-19.24 3.409h0c-2.45.367-4.9.713-7.35 1.032l-2.45.31c-2.85.349-5.46.898-8.09.751l-.39-.026c-1.98-.162-4.06-.736-5.85-1.989-1.89-1.324-3.53-3.454-4.36-6.843v-.001c-1.04-4.27-.22-8.4 1.36-12.233 1.18-2.888 2.77-5.553 4.27-7.95l1.45-2.306c3.97-6.353 8.3-12.064 12.71-17.718 4.4-5.644 8.89-11.244 13.11-17.322 8.08-11.643 14.67-25.269 19.96-40.284 10.62-30.18 15.94-64.169 20.33-97.595 2.48-18.883 4.86-38.078 10.78-55.016 5.09-14.591 12.71-26.738 22.48-32.523zm-101.49 279.223c.02.185.05.462.07.553v.007c-.1.055-.2.134-.29.244a1.042 1.042 0 01-.52-.281l-.06-.076c.01-.011.01-.022.01-.033.03-.056.07-.128.13-.205a.837.837 0 01.21-.204l.43-.004.02-.001zm-.86.108c-.02.058-.04.111-.05.154-.02-.039-.03-.065-.04-.071a.814.814 0 01-.04-.157c-.01-.01-.01-.018-.01-.024l.2-.002c-.02.037-.04.07-.06.1z" fill="#D5B378"/><path d="M1928.7 733.358c.15.078.4.35.6.892.19.514.28 1.132.21 1.702-.06.571-.27 1.017-.58 1.303v.001c-4.77 4.418-8.02 10.942-10.29 18.239-2.28 7.31-3.6 15.492-4.46 23.322-1.82 16.457-2.9 32.85-4.96 49.187a790.772 790.772 0 01-7.63 48.508v.001c-.54 2.88-1.1 5.753-1.68 8.617l-.58 2.861c-.34 1.659-.88 3.757-1.23 5.765-.33 1.92-.52 3.948-.24 5.875l.06.384c.55 3.089 2.27 4.759 4.3 5.562 1.94.77 4.09.719 5.56.602 10.49-.837 21-4.643 30.85-9.79v-.001a.477.477 0 01.14-.053c.02-.004.03-.002.03-.002.01.001.05.008.13.091.19.191.41.618.52 1.242.1.603.08 1.257-.07 1.793-.14.476-.34.771-.56.926l-.1.059c-5.69 2.975-11.49 5.342-17.37 7.031l-1.18.329c-5.33 1.444-10.79 3.16-15.85 2.301l-.49-.091-.33-.074c-3.42-.828-6.83-3.703-7.47-9.85-.41-4.023.45-7.941 1.27-11.925.89-4.273 1.74-8.571 2.55-12.881a793.542 793.542 0 008.12-52.415 834.779 834.779 0 002.83-27.098c.77-8.805 1.37-17.598 2.67-26.19 2.2-14.467 6.73-28.526 14.88-36.072.16-.147.25-.17.27-.173.01-.001.03-.006.08.022zm-607.5-640.98c21.55-3.66 45.73-6.408 65.58 7.847v-.001c9.16 6.585 17 16.682 23.88 28.519 6.87 11.829 12.75 25.33 18.01 38.659 21.88 55.451 34.84 122.271 30.66 187.856-4.17 65.596-27.19 119.388-49.12 173.781-10.88 26.994-21.54 54.737-28.57 84.946-8.02 34.413-10.62 70.77-9.32 107.151-.83-.771-1.83-1.195-2.9-1.201-1.03-.006-2.01.397-2.78 1.145-1.19-32.992.74-66.278 6.96-97.89 5.89-29.935 15.26-57.195 25.59-83.738 10.31-26.507 21.63-52.395 31.33-79.399 9.98-27.77 18.15-57.126 21.71-88.745 3.52-31.172 2.66-63.455-1.44-94.364l-.41-2.986c-4.48-32.089-12.33-62.838-22.73-91.287-4.98-13.597-10.57-27.68-17.2-40.234-6.63-12.546-14.32-23.636-23.54-31.193h0c-10.79-8.845-23.06-10.928-34.86-11.172h0c-11.31-.235-22.65.829-33.86 2.915h0c-23 4.282-45.67 13.468-67.17 26.853-35.9 22.35-72.25 58.481-90.08 114.441-10.15 31.837-11.36 67.815-12.9 102.517-1.59 36.242-2.61 72.633-6.97 108.313-4.34 35.556-12.26 70.108-18.65 104.987l-.61 3.377c-3.01 16.714-5.75 33.535-8.49 50.346-2.75 16.814-5.48 33.618-8.49 50.311-10.73 59.586-25.08 118.528-48.85 168.309-11.92 24.962-26.45 45.148-40.2 67.683-6.89 11.292-13.32 23.467-17.778 37.635-5.081 16.153-6.472 34.011-5.562 51.758.98 19.113 4.478 37.733 8.14 55.853v0c3.2 15.79 6.43 31.82 11.1 46.8 8.74 28.05 24.47 50.36 40.98 67.07 16.82 17.04 35.37 24.97 54.45 32.2 18.78 7.11 37.86 14.96 53.38 33.33 17.03 20.16 26.64 48.61 30.62 79.7 3.98 31.08 2.33 64.69-3.08 95.09-2.97 16.69-7.15 32.61-11.53 48.45-4.37 15.83-8.92 31.6-12.61 47.94-6.48 28.67-9.79 59.73-1.02 88.34 3.51 11.46 8.84 22.16 15.5 29.29 6.68 7.14 14.85 10.81 23.88 7.75 8.48-2.88 15.39-10.53 21.36-19.69 5.99-9.18 11.15-20.08 16.03-29.67v0c5.26-10.33 10.54-20.62 16.76-29.39 7.49-10.55 16.14-18.68 25.17-25.64 4.41-3.4 8.95-6.55 13.52-9.67 4.56-3.11 9.17-6.21 13.71-9.51 9.09-6.59 17.93-14.01 25.76-24.11 15.04-19.4 25.65-47.45 19.05-78.53h0c-3.34-15.73-9.75-29.46-15.38-43.07-5.88-14.23-11.18-29.04-15.47-44.62-8.01-29.12-12.58-60.95-10.18-92.68 2.06-27.35 8.55-53.7 18.59-76.2 10.13-22.74 23.67-41.83 39.5-53.87 9.26-7.05 19.36-10.86 29.51-15.26 10.12-4.39 20.21-9.34 29.13-18.68h0c8.1-8.48 14.64-20.86 16.17-36.29 1.62-16.391-2.4-32.986-7.61-46.734-5.12-13.481-12.04-25.271-18.02-37.573-5.77-11.866-11.3-24.013-16.45-36.548-20.16-49.007-32.6-103.118-36.2-161.142.8.7 1.76 1.085 2.78 1.089 1.07.004 2.09-.438 2.88-1.254 1.77 28.848 5.68 57.252 12.09 84.487 6.78 28.831 16.35 55.837 27.32 81.184 5.53 12.796 11.43 25.198 17.55 37.307 6.31 12.485 12.55 24.43 16.72 38.918l.4 1.41c7.66 27.876 5.19 58.146-9.91 77.996-8.43 11.07-18.21 17.02-28.43 21.83-10.16 4.79-20.97 8.54-30.99 15.08-17.54 11.45-32.4 31.6-42.94 56.22-10.54 24.63-16.8 53.8-17.08 83.38-.33 35.73 7.96 70.21 19.17 100.69 2.5 6.81 5.36 13.58 8.22 20.39 2.85 6.83 5.7 13.7 8.22 20.77 5.02 14.13 8.68 28.98 8.24 45.52-.76 29.11-13.54 52.89-27.86 69.4-8.29 9.55-17.47 16.56-26.89 23.13-9.1 6.34-18.47 12.3-27.32 19.68l-.86.72c-8.66 7.34-16.53 16.14-23.34 27.29l-.66 1.09c-5.96 9.99-11.21 20.99-16.67 31.51-5.14 9.9-10.7 19.73-17.08 27.44-6.18 7.47-13.03 12.81-20.89 14.34l-.76.14c-7.77 1.26-15.11-1.85-21.6-7.97-6.51-6.12-12.09-15.19-16.25-25.59-9.71-24.26-11.27-52.54-7.49-80.24 2.39-17.49 6.52-34.06 11.03-50.46 4.51-16.39 9.41-32.65 13.31-49.41 7.99-34.44 12.63-72.32 8.11-108.88-3.98-32.17-14.75-62.43-32.59-80.74-17.59-18.05-38.7-23.99-58.41-31.72-37.18-14.59-74.73-50.04-90.6-107.54-4.2-15.22-7.448-31.09-10.576-46.96-3.514-17.84-6.534-36.06-7.357-54.697-1.477-33.41 6.461-61.884 20.243-86.634 6.81-12.221 14.24-23.408 21.59-34.817 7.35-11.398 14.61-23.004 21-36.003 12.7-25.79 22.88-54.497 31.13-84.333 17.71-64.067 26.06-133.169 38.32-199.853 6.66-36.195 14.75-72.165 18.36-109.632 3.59-37.304 4.16-75.216 6.14-112.694 1.82-34.376 5.47-67.523 16.97-97.259 9.82-25.374 23.48-46.437 38.65-63.89 35.18-40.48 79.11-63.206 122.11-70.51zm48.21 629.557c1.15.006 2.93 1.252 3.14 4.799v.046c.09 1.789-.3 3.008-.82 3.746-.5.727-1.15 1.018-1.74 1.016-1.12-.005-2.84-1.182-3.1-4.524l-.02-.33v-.005c-.09-1.788.29-3.004.8-3.74.5-.722 1.14-1.012 1.74-1.008z" fill="#D5B378"/><path d="M1299.93 148.027c15.48-5.196 33.63-8.25 50.76-4.962 17.08 3.279 33.19 12.875 44.68 33.112 5.81 10.233 9.73 22.823 13.32 35.395 3.77 13.206 6.94 26.84 9.34 40.818 4.71 27.532 6.5 56.192 4.23 84.47-.48-.584-1.05-1.03-1.68-1.304-.83-.367-1.77-.404-2.61-.014 2.29-27.814.22-56.184-4.55-83.084-2.6-14.643-6.01-28.936-10.2-42.642-3.66-11.966-7.67-23.631-14.01-32.907-11.92-17.433-28.66-24.373-44.46-26.293-20.37-2.473-40.53 2.896-59.92 11.639-16.81 7.587-33.71 16.626-48.96 30.634-23.02 21.153-40.01 53.205-49.18 92.301l-.43 1.867c-10.85 47.83-10.17 98.987-13.1 148.704-6.81 115.785-22.28 232.048-55.57 336.519-8.24 25.878-17.59 50.895-28.06 74.681-5.26 11.953-10.88 23.502-16.45 35.15-5.56 11.641-11.07 23.373-16.09 35.657-9.49 23.186-17.82 49.444-17.7 77.795.11 26.247 7.9 49.587 19.49 67.897 11.37 17.98 25.38 31.26 39.4 43.18 16.29 13.85 32.84 26.27 48.63 41.26 31.19 29.61 60.02 69.04 73.52 123.66 6.52 26.36 8.08 54.27 5.65 82.23-2.63 30.28-9.13 59.18-14.39 88.59-2.6 14.53-4.95 29.26-6.32 44.25-.51 5.5-1.48 13.79-1.09 21.12.19 3.66.73 7.16 1.89 9.99 1.15 2.84 2.98 5.1 5.79 6.06 4.15 1.42 8.29-.16 11.81-3.05 3.53-2.9 6.6-7.24 8.75-11.79 2.51-5.32 4.58-11.07 6.68-16.71 2.11-5.65 4.25-11.2 6.91-16.18 9.53-17.85 24.04-19.47 38.06-24.36h.01c6.58-2.3 13.8-5.56 18.59-13.99 6.62-11.66 5.56-27.75 3.16-41.33-2.54-14.37-6.62-28.15-9.66-42.13a600.538 600.538 0 01-8.2-46.74c-4.22-31.12-6.28-63.16-5.76-94.98.45-27.26 2.99-54.87 9.66-80.11 6.47-24.49 16.85-44.39 30.38-59.92v0c6.86-7.87 14.19-14.56 21.65-21.01 7.45-6.43 15.07-12.66 22.4-19.54 7.18-6.74 14.49-14.11 20.59-23.36l.59-.9c3.73-5.82 6.61-12.671 6.45-21.34-.15-8.012-2.62-15.538-5.1-22.144-2.27-6.035-4.71-11.895-7.13-17.749-2.42-5.859-4.82-11.714-7.03-17.769-4.3-11.809-8.22-23.949-11.77-36.36-7.13-24.901-12.81-50.798-16.94-77.328-8.2-52.689-10.48-107.741-6.63-161.652 3.86-53.99 13.71-106.825 29.76-154.954 8.64-25.902 19.1-50.532 28.29-76.336 8.6-24.156 16.02-49.157 19.55-76.648.52.693 1.16 1.217 1.86 1.524.78.341 1.64.397 2.43.086-3.22 25.625-9.9 49.688-17.8 72.637l-.81 2.347c-4.66 13.328-9.69 26.32-14.7 39.359-5 13.034-9.99 26.113-14.54 39.587-8.56 25.349-15.37 52.091-20.42 79.664-10.07 54.92-13.18 112.744-9.6 169.588 3.55 56.287 13.85 111.762 30.68 161.813a520.109 520.109 0 0013.11 34.803l.95 2.252c4.99 11.802 10.63 24.906 10.23 39.464-.35 13.026-5.83 22.746-11.97 30.776-6.71 8.78-14.08 16.23-21.67 23.09-15.11 13.66-31.65 25.31-45.33 43.14-14.72 19.19-23.82 45.01-28.43 73.81-4.69 29.33-5.08 60.1-3.75 90.06 1.45 32.58 5.45 64.86 11.82 95.95l.63 3c1.35 6.43 3.13 13.23 4.93 20.19 1.8 6.98 3.61 14.14 5.02 21.35 2.83 14.44 4.07 28.99.5 42.53-2.85 10.82-7.99 17.25-14.01 21.48-6.06 4.26-13.05 6.33-19.73 8.34-7.22 2.16-15.14 4.47-21.58 11.3-3.76 3.99-6.56 9.37-8.96 15.1-2.38 5.67-4.48 11.97-6.68 17.55-4.13 10.44-8.9 18.96-16.05 23.39-2.91 1.8-6.1 2.83-9.14 2.64-3-.18-5.95-1.55-8.46-4.71-3.05-3.84-4.56-9.04-5.2-14.82-.56-5.05-.45-10.46-.16-15.65l.14-2.2c.92-14.46 2.78-28.7 5.08-42.77l.46-2.81c5.02-29.85 11.9-59.23 15.23-89.86 3.39-31.16 1.68-62.46-6.45-91.58-7.5-26.85-19.13-50.46-32.79-70.26-15.07-21.82-32.45-39.16-50.28-54.66-8.04-6.98-16.26-13.49-24.4-20.1-8.14-6.62-16.21-13.36-24.01-20.84-26.85-25.76-51.56-64.3-47.81-117.849 2.04-29.002 10.53-54.62 21.01-78.816 5.24-12.101 10.97-23.834 16.63-35.463 5.66-11.622 11.26-23.142 16.22-34.779 21.48-50.464 37.84-105.929 49.97-163.485 12.04-57.161 20.04-116.302 25.3-175.886 2.74-30.979 4.7-62.13 6.09-93.326 1.15-25.676 1.78-51.234 4.71-76.54 4.8-41.357 15.34-81.11 34.39-110.938l.92-1.413c23.41-35.757 56.48-54.18 87.92-64.951l1.5-.507zm118.64 189.485c.33-.276.74-.33 1.21-.124 1 .439 2.24 2.135 1.99 4.92 0 .057-.01.114-.01.17v.009c-.15 1.462-.59 2.192-.97 2.503-.33.272-.73.329-1.2.122-1.02-.448-2.3-2.203-2.02-5.073v-.025c.16-1.457.61-2.188 1-2.502z" fill="#D5B378"/><path d="M1303.4 194.563c15.18-6.567 31.02-11.721 46.58-9.572l.74.108c9.4 1.439 17.83 6.935 24.32 18.323 6.33 11.102 10.17 25.306 12.57 39.743 4.67 28.098 4.95 59.144 1.47 87.794-.34-.35-.72-.625-1.15-.81a2.8 2.8 0 00-1.92-.141c1.5-12.35 2.11-24.95 2.13-37.493v-.001c.03-14.608-.63-31.027-3.05-46.492-2.43-15.45-6.64-30.038-13.78-40.923-4.28-6.525-9.32-10.307-14.76-12.363-5.42-2.047-11.16-2.358-16.8-2.06-16.34.858-32.28 7.86-47.59 15.276-14.23 6.891-29.78 12.945-42.48 26.531l-.6.652c-11.2 12.283-18.96 30.506-24.13 49.889-5.25 19.702-8.16 40.795-10.37 61.738-2.53 23.919-4.4 48.032-6.46 72.036-8.55 99.989-17.03 201.309-39.85 296.097-11.27 46.81-26.64 89.877-43.59 132.09l-1.65 4.083c-9.01 22.284-18.18 44.461-26.66 67.304-8.06 21.707-18.92 46.864-15.91 73.637 2.68 23.751 13.31 43.401 23.87 59.641 9.37 14.43 19.75 27.06 30.41 38.94l2.14 2.37c22.7 25.03 46.71 47.3 66.56 77.71v0c20.75 31.78 34.15 72.18 41.13 116.32 3.59 22.73 5.61 46.07 6.53 69.45.42 10.71.11 21.89.98 32.64.34 4.06.94 9.1 2.24 13.38.65 2.15 1.49 4.14 2.59 5.75 1.1 1.6 2.5 2.86 4.29 3.41 2.61.8 4.88.13 6.73-1.47 1.8-1.55 3.19-3.95 4.26-6.68 2.13-5.46 3.11-12.6 3.11-18.08.02-13.4-1.9-27.06-3.53-40.05-3.33-26.63-7.85-52.9-11.61-79.33-6.53-45.96-10.58-94.2-2.51-140.26 3.64-20.8 9.88-40.31 18.85-56.59 8.38-15.21 18.68-27.36 28.68-40.05h0c9.97-12.66 20.14-26.18 26.88-43.787 8.54-22.28 9.4-48.314 6.97-73.333-2.49-25.546-7.74-50.253-11.44-75.254-3.49-23.511-6.01-47.374-7.61-71.387-3.29-49.112-2.56-98.798 1.93-147.667 4.53-49.206 12.99-97.469 25.22-143.297 6.17-23.096 13.97-45.275 21.13-67.943 6.71-21.205 12.85-42.795 16.53-65.805.37.41.8.73 1.27.936.57.25 1.2.32 1.8.172-3.6 22.786-9.71 44.294-16.39 65.285-7.47 23.48-15.4 46.623-21.85 70.943-6.27 23.642-11.52 47.956-15.74 72.692-8.57 50.195-12.88 102.114-12.83 154.083.05 52.301 4.81 103.82 13.4 154.282 4.15 24.382 8.63 49.136 8.92 74.426l.02 2.449c.01 23.121-4.35 44.866-13.32 63.12-8.18 16.675-18.8 29.525-29.32 42.745-10.51 13.21-20.91 26.77-28.48 44.75-17.02 40.49-18.32 92.38-13.88 138.8 2.32 24.19 6.02 47.95 9.66 71.68l1.56 10.16c2.11 13.94 4.15 27.9 5.81 41.98 1.48 12.5 3.29 25.63 2.98 38.29-.25 10.33-2.48 20.26-7.77 26.27-2.19 2.48-4.64 3.87-7 4.11-2.34.23-4.76-.64-7-2.99h0c-4.76-4.98-6.8-13.61-7.65-23.26-.85-9.63-.51-19.87-.75-28.07-1.48-49.32-7.76-99.8-23.89-142.87-15.19-40.58-38.95-68.98-63.21-94.94-23.53-25.17-48.31-49.16-67.02-83.15-9.37-17.04-17.53-38.12-17.31-61.283.23-25.229 10.5-48.922 18.48-70.15 17.36-46.227 37.52-90.157 53.17-138.108l.75-2.286c15.17-47.023 25.81-97.296 33.74-148.409 7.9-50.899 13.16-102.694 17.81-154.514 2.33-25.986 4.5-52.011 6.75-78.007 2.01-23.135 3.81-46.36 7.11-69.098 3.05-21.069 7.65-41.595 14.73-59.203 7.07-17.614 16.6-32.234 29.45-41.587 14.03-10.204 29.6-16.828 44.61-23.321v-.001zm82.91 137.501c.24-.185.51-.219.82-.082.69.301 1.65 1.566 1.33 3.794v.016c-.15 1.124-.52 1.654-.79 1.867-.23.183-.5.217-.81.08-.69-.301-1.65-1.558-1.36-3.764 0-.016 0-.032.01-.048.16-1.12.53-1.649.8-1.863z" fill="#D5B378"/><path d="M1333 223.503c4.25-.245 8.38.536 12.23 2.752 3.86 2.218 7.5 5.912 10.7 11.594 9.76 17.328 11.45 43.354 9.64 65.914a1.975 1.975 0 00-.54-.13c.97-11.623.86-23.597-.67-35.097-1.57-11.754-4.7-23.578-10.49-32.032-6.46-9.433-15.22-12.216-23.82-10.911l-.83.139c-5.85 1.067-11.43 3.73-16.8 7.062-5.36 3.329-10.57 7.367-15.63 11.211v.001c-4.64 3.524-9.24 7.018-13.98 10.005-2.38 1.504-4.82 2.784-7.3 4.052-2.16 1.105-4.36 2.205-6.53 3.423l-.93.529c-10.95 6.328-20.12 16.116-25.3 32.933-4.28 13.944-5.71 29.661-6.75 44.829l-.2 3.025c-2.34 35.375-4.77 70.718-7.77 105.966-6 70.375-13.96 140.477-26.13 208.878-11.96 67.165-28.08 132.746-50.15 193.305-5.58 15.296-11.53 30.257-17.86 44.809-6.48 14.916-13.5 29.88-17.85 46.895-4.44 17.32-5.17 36.099.9 52.843 5.43 14.952 14.31 26.062 22.33 37.022 19.91 27.21 39.85 54.46 59.77 81.68 2.16 2.94 4.5 6.57 6.95 9.66 2.47 3.11 5.21 5.93 8.36 7.31 2.44 1.07 4.89 1.11 7.2.2 2.14-.84 4.08-2.47 5.76-4.72l.34-.46c3.17-4.49 5.48-10.23 7.4-16.24 1.92-5.99 3.5-12.4 5.15-18.13 7.79-27.04 22.41-43.92 37.03-61.84 7.32-8.97 14.62-18.38 20.59-29.77 7.16-13.673 11.73-30.076 14.21-47.189 5.51-38.046.79-76.967-4.11-114.314-4.79-36.576-8.57-73.154-9.89-110.465-2.58-72.777 2.6-146.269 15.2-216.404 6.09-33.931 13.93-67.081 23.43-99.003l.93-3.085c9.83-32.559 22.56-64.193 26.85-100.312.01.003.01.006.02.009.17.076.35.126.54.15-1.99 17.22-5.95 33.616-10.63 49.503-2.52 8.545-5.23 16.944-7.97 25.343-2.73 8.395-5.48 16.794-8.07 25.318-5.37 17.661-10.21 35.717-14.52 54.081-8.35 35.551-14.71 72.258-19.04 109.536-8.76 75.49-9.17 153.502-.78 229.129 4.38 39.462 11.76 78.503 11.06 118.73-.6 33.849-7.25 66.187-22.64 90.243-6.81 10.65-14.61 19.59-22.3 28.94-7.68 9.33-15.22 19.04-21.35 31.1-5.61 11.05-8.66 24.01-12.45 36.37l-.77 2.46c-1.58 4.95-3.46 10.24-5.86 14.58-2.41 4.38-5.23 7.6-8.59 8.71h0c-4.76 1.57-9.25-1.21-13.68-6.11-4.42-4.88-8.33-11.34-12.03-16.4l-30.75-42.03c-10.13-13.84-20.29-27.63-30.38-41.52-7.79-10.72-15.69-22.24-19.72-37.38-9.17-34.446 7.05-68.216 18.99-95.681 13.02-29.959 24.43-61.619 34.33-94.388 20.03-66.325 33.84-136.911 43.89-208.472 10.18-72.473 16.56-146.112 21.59-219.839 1.16-17.036 1.85-34.191 3.79-50.993 1.72-14.78 4.74-29.62 10.98-41l.62-1.091c7.19-12.435 17.49-18.003 27.6-23.073 5.51-2.766 10.76-6.394 15.92-10.205 5.17-3.831 10.21-7.817 15.4-11.403 7.84-5.419 16.81-10.06 25.36-10.552zm31.92 82.181c.06.054.14.146.22.301.1.21.17.51.15.895l-.01.171v.037c-.03.233-.07.377-.11.462a.905.905 0 01-.21-.299c-.12-.242-.2-.601-.16-1.068.01-.005.01-.01.01-.015.02-.248.07-.398.11-.484z" fill="#D5B378"/><path d="M1169.55 1005.34c5.72 13.77 12.8 26.33 19.77 37.91 1.66 2.76 3.45 5.98 5.23 8.88 1.82 2.96 3.76 5.81 5.91 8.06 2.63 2.77 5.56 3.71 8.47 2.98 2.82-.72 5.39-2.96 7.51-6.07 1.24-1.82 2.26-3.8 3.13-5.91-.35.94-.72 1.86-1.11 2.74-2.44 5.47-5.61 9.36-9.66 10.44l-.4.09c-1.82.4-3.56-.08-5.26-1.23-1.71-1.16-3.34-2.98-4.86-5.14-3.62-5.15-6.95-10.91-10.3-16.57-6.71-11.32-13.09-23.2-18.43-36.18zm0 0l-.09-.21.09.21zm109.65-70.182c-1.42 4.547-3.18 8.903-5.35 13.005-5.18 9.806-11.73 17.053-18.49 24.141-6.52 6.851-13.27 13.58-18.99 22.271l-.55.847a68.157 68.157 0 00-7.08 14.488l-.37 1.09c-.51 1.57-.96 3.17-1.37 4.8.24-1 .49-2 .77-2.97 6.15-21.582 20.23-32.977 32.26-46.254l1.16-1.292c6.75-7.614 13.14-16.4 17.29-28.009.25-.7.49-1.406.72-2.117zm-81.75-120.446c-5.93 21.125-12.71 41.639-20.51 61.279-5.18 13.057-10.96 25.94-14.92 40.237 3.73-13.656 9.11-26.029 14.19-38.669 5.85-14.551 11.16-29.613 15.97-45.071a673.088 673.088 0 005.27-17.776zm110.09-399.644a816.136 816.136 0 00-4.34 15.189c1.4-5.094 2.84-10.162 4.32-15.201.01.004.01.008.02.012zm3.1-9.897c-.58 1.745-1.14 3.499-1.69 5.262a.163.163 0 01-.04-.016c.56-1.764 1.14-3.509 1.73-5.246zm21.02-64.099c-3.22 11.795-6.92 23.296-10.73 34.633h0c-1.46 4.343-3 8.662-4.54 12.99 3.83-11.027 7.61-22.113 11.09-33.445l.89-2.933c1.11-3.695 2.22-7.445 3.29-11.245zm-16.61-74.058c4.28-1.644 9.29-2.292 13.66-.754 4.3 1.516 8.17 5.216 10.1 12.669 2.53 9.777 1.54 21.332-.3 32.043.53-3.36.97-6.748 1.29-10.162.6-6.27.69-13.225-.5-19.204-1.15-5.762-3.55-10.844-8.09-13.362l-.44-.236-.34-.165c-7.11-3.371-14.71-.674-21.12 2.821-4.93 2.686-9.67 6.11-14.34 9.427v.001c-4.22 2.998-8.77 5.785-13.03 9.039-9.36 7.162-16.6 17.207-20.59 32.292l-.38 1.476c-.23.968-.46 1.942-.68 2.921 1.3-6.017 2.98-11.771 5.29-17 5.4-12.21 13.85-19.123 22.46-24.817 4.46-2.949 9.01-6.387 13.42-9.404 4.47-3.061 8.96-5.799 13.59-7.585zm-76.7 515.298c1.35-.54 2.7-.444 3.92.589l.24.22c1.66 1.591 2.49 4.314 2.9 7.611.36 2.869.38 5.933.47 8.752l.05 1.191c.32 7.46.75 15.014 1.08 22.457.62 13.968.93 28.031-.48 41.832l-.15 1.335c-1.47 13.276-4.79 25.565-9.72 36.425a2.6 2.6 0 00-.64-.632 99.425 99.425 0 003.18-7.527c9.09-24.13 8.22-52.165 6.9-78.826-.18-3.478-.34-6.958-.5-10.439l-.46-10.446c-.07-1.555-.16-3.416-.49-5.13-.31-1.684-.88-3.412-2.03-4.558v-.001l-.19-.175a3.729 3.729 0 00-3.12-.93c-.96.145-1.86.614-2.62 1.206l-.32.26c-1.09.947-1.85 2.202-2.45 3.525-.61 1.318-1.09 2.792-1.57 4.194-.79 2.284-1.54 4.6-2.27 6.934l-.71 2.342c-2 6.652-3.77 13.452-5.45 20.291-3.38 13.703-6.38 27.506-9.91 41.061-1.71 6.529-3.51 12.982-5.54 19.265-1.06 3.307-2.21 6.547-3.36 9.803-1.15 3.252-2.3 6.519-3.37 9.86-2.14 6.673-4 13.666-4.93 21.077-.92 7.319-.69 14.765.36 21.974l.22 1.439c1.21 7.458 3.16 14.573 5.42 21.346.49 1.446 1.03 3.05 1.73 4.466.64 1.314 1.45 2.579 2.57 3.406l.22.159c1.14.758 2.36.878 3.51.544 1.11-.321 2.11-1.048 2.94-1.913l.01-.001c2.14-2.216 3.41-5.215 4.17-8.469.76-3.26 1.03-6.858 1.11-10.351.16-7.477-.06-14.668 1.62-21.567 2.66-10.877 8.03-19.001 12.85-27.944v.002c.15.246.38.522.67.733-1.16 2.21-2.37 4.372-3.58 6.543l-.01.001c-3.02 5.409-6.14 10.97-8.32 17.513v.001c-2.22 6.712-2.49 13.585-2.61 20.693l-.05 3.06c-.11 7.249-.82 14.115-3.99 19.266-1.25 2.014-2.77 3.522-4.29 4.207-1.45.652-2.92.585-4.38-.607v-.001l-.3-.265c-1.4-1.305-2.5-3.479-3.43-5.923l-.19-.527c-1.26-3.476-2.35-7.166-3.35-10.878-1.86-6.855-3.28-13.983-3.82-21.364l-.1-1.479-.04-.755c-.74-15.827 3.65-30.345 8.46-44.024 5.02-14.249 9.15-28.853 12.8-44.076 3.3-13.794 6.37-27.681 10.09-41.156l.76-2.689c1-3.54 2.06-7.041 3.19-10.48.99-3.006 1.87-6.154 3.21-8.514 1.09-1.919 2.6-3.334 4.09-3.936zm-3.25 121.687c.25.455.36 1.215.08 1.823-.25-.459-.35-1.213-.08-1.823z" fill="#D5B378"/><path d="M1310.94 306.046c.5-.049.98.155 1.45.748.49.617.91 1.588 1.17 2.825.67 3.166.48 6.871.22 10.297-.32 4.337-.87 8.632-1.56 12.88-.53 3.353-1.12 6.691-1.88 9.908-.97 4.125-2.74 7.748-4.5 11.309h0c-2.84 5.766-6.05 11.034-9.15 16.587-2.6 4.647-5.1 9.454-7.17 14.8-.02-.015-.03-.031-.04-.046a2.449 2.449 0 00-.63-.408c2.09-5.602 4.68-10.618 7.41-15.515 3.07-5.499 6.35-10.909 9.26-16.748 1.7-3.433 3.44-7.154 4.4-11.045l.18-.782c.68-3.137 1.25-6.336 1.75-9.549l.21-1.376c.58-3.906 1.09-7.901 1.29-11.943.06-1.202.16-2.712.13-4.193-.03-1.47-.18-3.019-.65-4.3h0c-.12-.314-.29-.74-.62-1.043-.42-.387-.9-.426-1.27-.401v.001c-1.03.074-2.06.482-2.97.922-.88.424-1.87.998-2.57 1.359-3.42 1.767-6.68 4.168-9.7 7.184-11.9 11.879-18.32 32.328-21.89 52.72-1.97 11.284-3.21 22.909-4.33 34.459l-.46 4.945c-.78 8.262-1.39 16.582-1.67 24.938a272.24 272.24 0 00-.12 12.781c.04 3.118-.05 6.736.36 9.989l.09.645c.18 1.221.54 2.197 1.16 2.815.7.698 1.58.806 2.37.546.73-.237 1.37-.77 1.89-1.358.52-.603.98-1.344 1.31-2.117 1.22-2.874 1.87-6.448 2.52-9.523 1.43-6.804 2.43-13.796 3.37-20.757 1.73-12.74 3.33-25.503 6.77-37.247.18.147.39.279.62.368a114.24 114.24 0 00-2.33 8.932c-1.63 7.399-2.72 15.01-3.75 22.61-1.03 7.611-1.99 15.205-3.36 22.632v.001c-.67 3.647-1.44 7.251-2.36 10.736-.38 1.417-.81 2.821-1.36 4.058-.54 1.244-1.17 2.254-1.91 2.936-1.2 1.11-2.61 1.225-3.65.326h0c-.67-.583-1.14-1.511-1.47-2.745-.23-.92-.37-1.949-.46-3.02l-.08-1.083-.09-1.613c-.85-16.682.43-33.585 2.09-50.113 1.39-13.819 2.8-27.677 5.5-40.962 4.47-21.979 12.67-42.211 26.06-52.009a38.853 38.853 0 015.33-3.293c.89-.457 1.75-.927 2.64-1.325.88-.394 1.7-.67 2.45-.743h0zm-22.77 80.834c.22.26.46.885.21 1.64a1.05 1.05 0 01-.1.235c-.22-.252-.46-.875-.2-1.631v-.003c.02-.065.04-.13.07-.194 0-.017.01-.033.02-.047zM435.717-433.388c105.564-20.977 212.561-8.315 317.551 16.185 53.172 12.409 106.036 27.943 158.801 44.242 50.55 15.615 101.201 32.616 148.651 64.424 43.93 29.44 84.51 71.293 119.25 122.961 14.77 21.953 29.44 44.661 41.46 70.418 11.44 24.51 20.85 54.065 19.49 85.184-1.39 31.953-12.45 54.273-26.62 73.052-7.09 9.404-14.96 17.92-22.8 26.332-7.84 8.4-15.66 16.702-22.59 25.632-34.73 44.741-47.47 115.405-52.45 182.58-1.08 14.56-2.15 30.214-4.75 44.87-2.61 14.661-6.73 28.219-13.86 38.611-7.91 11.532-17.54 16.267-27.62 17.462-10.15 1.203-20.82-1.172-30.77-4.011h-.01c-25.06-7.147-50.373-15.476-76.16-16.263-25.621-.781-49.846 7.483-72.165 27.391-9.977 8.899-19.395 19.147-28.766 29.371-9.091 9.918-18.136 19.813-27.658 28.516l-.924.839c-5.054 4.565-10.231 8.773-15.56 12.401l-1.067.718c-4.138 2.744-7.867 4.479-11.701 2.367h.001c-3.503-1.931-5.61-6.386-6.673-12.01-1.052-5.566-1.026-11.993-.518-17.447 1.692-18.145 6.758-36.271 10.602-53.679 4.196-19.005 8.505-37.992 12.235-57.267 7.653-39.535 11.905-79.877 10.329-121.326-1.494-39.333-7.366-81.236-20.134-115.628-11.677-31.45-30.744-50.99-53.496-58.054-25.145-7.81-49.217-.192-72.119 13.65-21.448 12.962-42.045 31.495-61.682 48.184l-3.914 3.31c-44.007 37.017-90.664 71.736-140.619 79.398-24.53 3.763-49.211-.132-72.639-12.37-23.24-12.14-45.092-30.334-67.027-47.808.098-.047.195-.096.288-.151 1.187-.701 2.062-2.021 2.591-3.442.526-1.412.761-3.059.573-4.624 21 16.763 42.168 34.373 64.684 46.134 48.204 25.179 98.176 11.089 144.108-17.207 23.712-14.609 46.468-32.755 68.816-51.688 21.542-18.248 42.722-37.43 65.59-50.75 18.734-10.91 39.909-17.206 60.201-15.006 20.25 2.195 39.731 12.86 55.135 36.09 16.318 24.614 24.815 60.038 30.045 94.179 5.84 38.125 7.13 77.891 3.824 116.755-3.276 38.491-11.334 75.254-19.443 111.842-3.993 18.009-8.242 36.088-11.462 54.538-.524 3-1.102 6.697-1.293 10.389-.191 3.676-.006 7.438 1.052 10.534v.001c.795 2.323 2.077 3.712 3.795 4.15 1.634.417 3.379-.108 4.948-.893 1.594-.799 3.186-1.961 4.588-3.076.705-.56 1.374-1.117 1.977-1.62.608-.506 1.14-.951 1.595-1.301l.001.001c9.953-7.672 19.258-16.984 28.359-26.691 9.124-9.731 18.008-19.818 27.216-29.163l-.001-.001c19.202-19.485 39.382-33.361 62.009-37.791l-.001-.001c23.413-4.581 47.141-.264 70.49 5.838l2.26.596c5.82 1.547 11.62 3.285 17.44 5.008 5.09 1.505 10.19 2.997 15.32 4.329l2.2.56c10.7 2.674 22.39 4.383 33.25-.504l.52-.238c11.08-5.213 17.8-17.01 22.07-31.106 4.28-14.128 6.17-30.81 7.42-46.13 2.66-32.765 5.48-65.046 12.1-96.466 6.46-30.675 15.95-59.991 29.64-84.147h0c11.92-21.046 27.01-36.09 41.78-52.018l2.95-3.2c14.57-15.918 30.11-34.693 36.15-62.337 6.71-30.681-.04-61.841-10.64-87.929-10.83-26.67-25.32-49.123-39.56-71.06-16.91-26.046-35.12-49.863-54.67-70.895-40.14-43.175-84.64-72.934-131.401-93.189-49.526-21.446-100.467-35.368-150.852-49.918-51.699-14.928-103.635-28.274-155.904-37.587-103.096-18.37-208.41-21.218-310.601 11.755-77.806 25.103-165.307 84.799-195.619 210.419-7.273 30.135-10.146 63.271-4.387 94.729 6.413 35.031 22.725 60.216 39.74 83.195 35.465 47.89 76.96 82.959 118.376 115.945a4.006 4.006 0 00-.291.155c-1.186.702-2.06 2.022-2.589 3.443-.525 1.411-.761 3.057-.573 4.619-19.967-15.92-39.793-32.257-58.996-50.295h-.001c-20.454-19.224-40.207-40.402-58.377-64.664-17.132-22.877-33.306-47.709-41.075-81.514-14.489-63.061 4.454-131.753 29.623-181.249 54.896-107.952 147.822-143.071 230.934-159.588zM338.671 97.354c.251.02.556.118.913.367l.157.117.012.01c.843.674 1.337 1.713 1.5 2.945.164 1.239-.02 2.597-.454 3.763-.442 1.187-1.089 2.038-1.732 2.418-.305.18-.597.249-.882.226-.286-.024-.646-.149-1.071-.487l-.001-.001c-.848-.672-1.345-1.713-1.509-2.949-.164-1.238.019-2.596.453-3.763.442-1.187 1.089-2.037 1.733-2.418.305-.181.597-.251.881-.228z" fill="#D5B378"/><path d="M499.491-395.993c94.662-5.336 189.408 9.154 282.73 34.154 47.337 12.681 94.369 28.11 141.153 45.21 43.919 16.054 89.316 30.029 130.186 60.116-.08.04-.15.082-.22.126-1.19.71-2.06 2.032-2.59 3.453-.54 1.442-.78 3.126-.56 4.711v.047c-18.87-13.721-38.72-23.52-58.732-31.932-44.271-18.613-89.11-34.472-133.95-49.102-45.535-14.859-91.357-27.721-137.461-37.523-91.253-19.402-183.911-26.713-275.805-13.761l-2.171.309c-39.336 5.684-82.447 15.74-120.973 39.314-38.553 23.589-72.461 60.682-93.434 120.332-10.793 30.699-16.303 64.804-6.089 97.68l.499 1.564c8.732 26.752 21.582 50.66 35.269 71.483l1.327 2.006c13.9 20.88 29.389 38.932 45.713 54.81 16.863 16.403 34.712 29.578 52.286 43.565 15.862 12.624 31.831 26.085 48.427 36.1 16.611 10.026 33.965 16.676 52.643 15.596 21.954-1.27 43.051-11.107 63.374-24.189 20.312-13.074 39.996-29.49 59.028-43.973C619.127 4.44 659.718-21.76 702.86-29.248c36.328-6.305 74.076 2.646 106.021 31.673 32.102 29.17 55.677 79.271 60.474 137.968 5.194 63.573-9.849 125.632-18.702 186.93-.538 3.729-1.235 8.377-.918 12.211.16 1.921.58 3.747 1.485 5.18.934 1.478 2.354 2.486 4.344 2.76 2.354.324 4.668-.316 6.812-1.303 2.142-.986 4.213-2.366 6.081-3.616 8.28-5.539 16.349-11.811 24.356-18.146l3.427-2.717c17.419-13.813 34.844-28.086 53.563-36.097 19.019-8.141 37.381-7.071 56.177 2.17 2.15 1.053 4.37 2.225 6.66 3.435 2.29 1.208 4.65 2.453 7.04 3.644 4.78 2.379 9.76 4.565 14.73 5.829 4.98 1.265 10 1.62 14.86.288 4.88-1.337 9.49-4.347 13.68-9.653 6.78-8.582 10.75-20.733 13.36-33.72 1.96-9.752 3.16-20.058 4.2-29.794l1-9.504c3.19-30.002 7.42-59.886 14.84-88.007 7.14-27.067 17.26-51.64 31.19-71.052l.67-.92c7.6-10.413 15.95-19.494 24.09-29.227 8.11-9.709 15.95-20.002 22.37-32.707 10.54-20.883 13.7-45.842 5.94-70.136-7.29-22.842-19.75-40.862-31.47-57.773-28.89-41.701-57.42-83.653-92.8-111.962.12-.057.24-.118.35-.187 1.18-.716 2.06-2.037 2.59-3.459.51-1.387.75-2.995.57-4.523 17.22 13.884 33.26 31.002 48.4 50.063 15.23 19.166 29.26 40.49 43.69 61.242 12.13 17.453 24.74 35.789 32.59 58.671 7.23 21.088 8.38 44.368 1.79 66.208-8.05 26.672-23.89 44.61-38.78 61.973l-2.96 3.467c-16.82 19.793-30.32 42.224-39.59 72.028l-.44 1.425c-8.56 28.169-13.25 58.97-16.72 89.503-1.5 13.293-2.73 27.188-4.96 40.515-2.23 13.319-5.44 25.98-10.9 36.764-6.04 11.946-13.69 17.975-21.88 20.163-8.24 2.198-17.19.568-25.91-3.176-5.04-2.167-10-4.799-15.03-7.381-5.01-2.574-10.086-5.092-15.291-6.976-10.051-3.636-20.493-4.053-30.67-1.541h-.001c-20.865 5.152-40.067 20.094-58.49 34.667-9.201 7.277-18.322 14.666-27.661 21.346-3.789 2.709-7.751 5.843-11.854 7.976-4.088 2.126-8.098 3.136-11.965 1.817-4.1-1.399-6.668-5.098-8.017-10.207-1.347-5.106-1.418-11.442-.652-17.726 1.963-16.088 4.892-31.963 7.513-47.862 10.444-63.381 21.336-132.444.891-194.344-18.091-54.772-52.73-88.802-90.487-101.91-42.481-14.745-86.328-1.245-126.291 21.639-21.376 12.24-41.798 27.826-62.148 43.381-20.37 15.572-40.669 31.11-61.876 43.345v.001c-19.892 11.48-40.655 19.809-61.769 19.037-17.361-.636-34.259-7.523-50.386-17.974-16.109-10.438-31.433-23.467-47.049-35.883l-3.127-2.475-6.787-5.33c-15.815-12.421-31.462-24.862-46.334-39.928h-.001c-16.139-16.349-31.454-34.95-45.084-56.248-14.045-21.949-27.941-47.766-36.084-76.321-16.929-59.38 10.725-125.178 37.927-164.996 30.068-44.015 68.539-69.917 108.119-84.575 44.903-16.628 91.814-22.111 137.915-24.708zm555.769 141.082c.25.017.56.109.92.352l.15.115c.01.001.01.003.01.004.85.643 1.34 1.654 1.51 2.87.17 1.218-.01 2.566-.45 3.732-.44 1.185-1.09 2.05-1.75 2.447-.31.19-.61.266-.9.249-.29-.016-.65-.131-1.07-.448h0c-.85-.654-1.34-1.677-1.51-2.9-.17-1.227.02-2.579.45-3.745.44-1.187 1.09-2.046 1.74-2.437.31-.186.61-.259.9-.239z" fill="#D5B378"/><path d="M613.589-69.634c21.895-18.367 45.75-21.977 69.708-17.978 24.008 4.008 48.087 15.654 70.318 27.79 23.813 13.002 47.303 27.943 69.995 45.236l2.194 1.68c21.176 16.32 41.883 36.307 56.583 65.783 13.681 27.437 20.43 60.096 17.853 94.853l-.13 1.656c-1.555 18.834-5.069 37.195-7.991 55.779-2.681 17.054-4.855 34.26-4.5 52.023a14.957 14.957 0 01-.323-.139l-2.494-1.104 1.189 2.456c.627 1.293 1.255 2.59 1.879 3.883l1.9-.481c-.029-.614-.054-1.228-.076-1.841 7.373 1.734 14.344-1.743 20.81-6.64 3.714-2.813 7.346-6.157 10.868-9.381 3.54-3.24 6.964-6.354 10.324-8.782 13.376-9.669 28.239-13.94 42.831-12.171l.695.088c7.011.942 13.811 4.099 20.801 7.205 6.927 3.077 14.037 6.101 21.427 6.497 7.96.425 14.42-3.902 19.36-10.869 4.93-6.954 8.45-16.645 10.59-27.291 2.19-10.936 3.1-22.266 3.97-33.545.87-11.3 1.71-22.546 3.75-33.414 3.28-17.49 8.89-33.633 15.93-48.066 14.42-29.598 34-51.898 53.57-72.618 4.96-5.25 9.96-10.407 14.96-15.588h0c5.33-5.53 11.69-11.131 15.37-20.106 4.31-10.498 3.06-21.594-.32-31.706-3.16-9.48-8.21-18.19-12.43-24.885l-.83-1.311-.16-.276c-.73-1.403-.48-3.155.22-4.248.37-.587.75-.793.96-.82.1-.012.38-.008.75.474l.17.238c9.81 15.371 21.86 37.844 15.9 60.718-2.53 9.7-7.91 16.326-13.36 22.143-5.98 6.366-12 12.421-18.02 18.755-21.42 22.531-43.67 47.156-58.31 81.477-7.59 17.787-12.27 37.352-14.24 58.489-2.1 22.357-2.56 45.598-10.36 64.926l-.38.917c-3.67 8.768-8.39 14.93-13.73 18.568-5.32 3.622-11.32 4.785-17.72 3.463-7.39-1.529-14.401-5.283-21.81-8.436v-.001l-.727-.304c-7.518-3.106-15.167-4.885-23.018-4.813-16.124.144-30.72 7.944-44.443 20.129-5.863 5.206-11.864 10.697-18.113 14.153-6.21 3.435-12.509 4.774-19.042 1.881v-.001c-.275-.121-.579-.416-.833-.965-.252-.541-.415-1.254-.452-2.05-.971-21.273 1.919-41.653 5.244-62.041 3.322-20.362 7.084-40.756 7.792-61.915 1.419-42.441-13.343-79.997-33.444-106.535-18.883-24.93-41.926-41.258-64.236-56.468-24.216-16.51-49.138-31.18-74.548-42.655-22.829-10.31-46.92-17.723-70.983-14.42l-1.146.165c-12.641 1.917-25.099 7.185-36.423 16.202-11.577 9.223-21.903 21.692-31.994 34.1-10.66 13.106-21.31 26.24-31.962 39.358h-.001c-9.339 11.504-18.475 23.474-28.732 32.518l-.996.866c-20.622 17.668-44.148 17.53-66.831 10.286-23.877-7.63-47.293-21.087-69.693-36.382-22.796-15.57-44.682-34.308-65.439-55.845-.489-.506-.781-1.242-.867-2.097a5.702 5.702 0 01.313-2.482c.284-.768.655-1.182.914-1.314a.353.353 0 01.258-.039c.07.017.189.065.351.198l.174.163a480.162 480.162 0 0015.831 15.709C360.084-10.19 383.116 7.4 406.98 21.554c23.345 13.85 48.57 27.338 74.032 28.373 12.914.529 25.917-2.701 37.617-11.708 11.842-9.113 22.071-22.53 32.25-35.066 10.655-13.119 21.302-26.247 31.962-39.356 9.87-12.137 19.762-24.214 30.748-33.431z" fill="#D5B378"/><path d="M1081.43-43.132c.01.01.04.03.07.074.08.11.2.37.2.862-.03 4.441-.32 8.877-.9 13.225-2.37 17.897-9.48 33.069-17.1 46.557-4.1 7.245-8.44 14.149-12.73 21.173-4.29 7.016-8.54 14.139-12.43 21.777-3.84 7.546-7.31 15.672-9.9 24.493-3.54 12.067-4.89 25.269-6.47 38.07-1.34 10.815-3.24 22.543-6.58 32.668-3.36 10.155-8.09 18.51-14.98 22.808-5.978 3.734-12.248 1.982-18.515-1.45l-.606-.338c-1.618-.912-3.253-1.94-4.957-2.974-1.69-1.027-3.431-2.05-5.203-2.91-3.533-1.715-7.313-2.846-11.216-1.996-4.173.909-7.55 4.115-10.502 7.827-1.489 1.871-2.906 3.918-4.283 5.94-1.383 2.032-2.723 4.033-4.086 5.86-2.352 3.156-5.112 5.973-8.022 7.723-2.899 1.744-5.856 2.38-8.72 1.381-3.181-1.11-5.384-4.318-6.705-8.779-1.229-4.151-1.626-9.178-1.414-13.989l.05-.959c.782-12.745 3.702-25.008 6.469-37.079 2.804-12.243 5.739-24.802 6.51-37.97.703-11.987-.482-23.98-3.08-35.255-11.718-50.872-45.466-73.881-74.665-92.833h-.001c-.091-.06-.228-.221-.318-.569a2.732 2.732 0 01-.036-1.101 1.93 1.93 0 01.118-.421c3.647 2.367 7.286 4.735 10.905 7.169h.001c14.839 9.97 29.467 21.195 41.822 37.55h.001c11.195 14.818 20.362 34.621 24.188 57.082 1.915 11.238 2.301 22.894 1.128 34.383v.001c-1.318 12.933-4.394 25.189-7.194 37.574-1.202 5.314-2.366 10.674-3.324 16.134l-.397 2.346c-.964 5.894-1.838 12.131-1.685 18.349v.001c.071 2.834.422 5.75 1.189 8.339.716 2.416 1.816 4.625 3.463 6.193l.337.306c3.268 2.812 7.191 2.177 10.329.67 3.734-1.793 6.728-5.124 9.432-8.756 1.358-1.824 2.669-3.761 3.969-5.649 1.306-1.897 2.605-3.751 3.962-5.454 2.671-3.35 5.501-6.119 8.623-7.404l-.001-.001c2.783-1.145 5.699-1.09 8.618-.287l.583.17c3.366 1.038 6.597 2.937 9.936 4.946 3.298 1.984 6.71 4.083 10.302 5.347 3.774 1.327 7.502 1.238 10.998-.226 3.477-1.456 6.657-4.242 9.427-8.196v-.001c6.24-8.906 9.4-20.241 11.48-32.191 1.04-5.982 1.81-12.149 2.57-18.267.75-6.127 1.48-12.204 2.44-18.045 3.21-19.71 10.26-36.03 18.8-51.099 4.03-7.123 8.3-13.912 12.53-20.82 4.22-6.897 8.4-13.9 12.23-21.408 7.17-14.054 12.77-30.318 13.04-48.745l.01-.878c0-.492.12-.755.21-.869a.212.212 0 01.08-.079z" fill="#D5B378"/><path d="M1001.08 91.635c-1.371 3.905-3.076 7.497-5.27 10.619-5.382 7.657-12.393 11.769-19.402 14.696-3.411 1.424-6.8 2.921-10.141 3.587l-.668.122c-1.582.263-2.943-.115-4.036-1.148-.846-.8-1.585-2.045-2.097-3.825.035.108.07.217.108.323v.001c.598 1.651 1.537 2.743 2.749 3.331 1.185.575 2.491.6 3.711.406 1.221-.193 2.448-.621 3.534-1.052.865-.343 1.575-.658 2.213-.916l.617-.239c3.791-1.372 7.601-2.95 11.301-5.1v-.001c7.055-4.1 13.51-10.575 17.381-20.804zm9.9-51.303c-.93 4.189-1.74 8.426-2.49 12.697.15-.888.3-1.77.46-2.648.62-3.375 1.29-6.729 2.03-10.049zm-97.549-65.876c8.092 8.76 15.915 18.139 23.416 28.12l1.519 2.034c7.158 9.659 15.006 19.642 19.459 32.715a55.097 55.097 0 011.376 4.746 61.897 61.897 0 00-3.079-8.852c-5.108-11.73-12.588-21.157-19.339-30.113a357.92 357.92 0 00-23.215-27.788c-.064-.07-.136-.21-.158-.44a1.598 1.598 0 01.021-.422zm141.929-5.981c.02.07.06.165.08.285.04.24.02.462-.02.603-.01.033-.03.053-.03.067-9.77 3.429-18.14 11.288-25.02 21.602-6.9 10.343-12.36 23.233-16.26 36.842-.33 1.139-.64 2.282-.95 3.43 1.74-6.598 3.76-13 6.12-19.086 8.2-21.124 20.85-38.3 36.08-43.743zm-51.41 4.882c.22.267.46.892.22 1.645-5.214 16.211-8.341 33.59-7.66 51.9.277 7.417.721 15.216-1.399 21.813-.789 2.454-1.957 4.707-3.342 6.395-1.395 1.7-2.932 2.733-4.446 2.957h-.001c-1.312.194-2.632-.305-3.845-1.476-1.221-1.179-2.277-2.997-2.965-5.247-1.277-4.185-1.528-8.98-1.648-13.737l-.047-2.035c-.131-6.022-.467-11.815-1.844-17.6-1.416-5.949-3.684-11.428-6.463-16.045-5.543-9.216-13.363-15.36-21.857-15.44a.481.481 0 01-.08-.114c-.106-.194-.188-.522-.188-.91s.083-.714.187-.903a.507.507 0 01.07-.103c8.012.079 15.859 5.767 21.658 15.15 5.053 8.179 8.438 18.98 8.938 30.484.223 5.087.021 10.556.75 15.757l.158 1.036c.453 2.722 1.367 5.33 2.747 7.066.697.875 1.553 1.579 2.578 1.914.982.322 2.031.277 3.097-.154l.213-.09c2.541-1.145 4.271-3.746 5.402-6.71 1.072-2.81 1.67-6.108 1.879-9.268l.037-.63c.193-3.881.067-7.757-.068-11.59-.136-3.848-.279-7.65-.131-11.448.577-14.87 3.699-29.141 7.96-42.39.03-.1.06-.173.09-.227zm-76.149 448.844c22.528-9.034 45.133-2.917 68.185 2.099 5.814 1.266 11.634 2.532 17.454 3.797l17.44 3.796c10.12 2.202 20.29 3.451 29.53 9.398 14.07 9.061 20.93 27.697 23.65 49.389 2.71 21.635 1.26 46.01-1.03 66.153-5.33 46.831-16.43 93.197-30.24 135.415-18.87 57.672-44.46 108.572-73.1 154.969-28.696 46.489-59.033 90.618-91.812 129.844a11.67 11.67 0 00-.677-4.348c-.516-1.4-1.369-2.721-2.579-3.289a3.052 3.052 0 00-.267-.109c16.004-19.077 31.376-39.429 46.262-60.6l.001.001c29.828-42.397 59.24-87.443 83.602-137.991 21.63-44.862 39.1-94.165 51.15-147.212 4.83-21.269 8.97-43.037 11.71-65.248 2.66-21.619 4.37-45.006 1.33-66.876-1.23-8.868-3.29-17.648-6.81-25.061l-.34-.712c-5.38-10.917-13.3-16.204-21.67-19.086-10.04-3.462-20.47-5.069-30.53-7.172l-2.01-.428-33.158-7.21c-11.665-2.53-23.593-5.065-35.581-4.268-11.365.755-22.295 5.22-32.811 11.245h-.001c-20.49 11.745-39.887 28.093-58.506 45.572-18.405 17.276-36.162 36.179-54.078 54.524-18.676 19.12-37.592 37.654-56.674 55.757-76.303 72.387-155.28 136.825-232.376 207.242-36.654 33.481-72.492 69.853-103.77 115.28h-.001c-29.21 42.43-54.52 90.848-78.823 140.128l-4.848 9.86c-27.753 56.67-55.255 113.65-82.868 170.48v0c-13.572 27.94-27.402 55.65-40.71 83.93-10.822 23-22.715 50.22-22.983 80.18-.208 23.17 6.178 47.11 16.601 63.95 10.395 16.8 25.087 26.88 41.428 21.25 6.333-2.18 11.337-6.94 15.366-13.23 4.028-6.29 7.125-14.18 9.628-22.72 4.999-17.07 7.698-37.06 10.582-52.69 4.022-21.77 9.313-41.55 19.385-58.01 11.684-19.09 26.811-32.21 41.982-43.47 39.95-29.65 81.151-55.78 122.243-81.38a2423.134 2423.134 0 0163.09-37.98c20.624-11.98 41.176-24.5 62.329-33.4 20.23-8.51 41.289-13.13 61.876-7.42 2.596.72 5.154 1.84 7.801 2.98 2.62 1.12 5.323 2.26 8.097 2.92 1.558.37 2.983.38 4.293.02 1.311-.36 2.443-1.07 3.437-2.05 1.955-1.93 3.443-4.96 4.847-8.62 3.984-10.41 8.494-19.79 14.434-27.47 11.927-15.42 26.228-23.75 41.224-29.58 7.509-2.91 15.182-5.2 22.831-7.45 7.637-2.24 15.259-4.43 22.598-7.16 38.615-14.34 73.304-47.75 104.811-84.239-.068 1.562.186 3.134.672 4.456.514 1.4 1.366 2.721 2.577 3.287.074.035.15.065.226.094-16.567 19.242-33.774 37.162-51.932 52.372-17.107 14.32-35.035 26.24-53.819 33.36-7.956 3.02-15.998 5.43-24.079 7.9-8.069 2.46-16.173 4.98-24.186 8.2-14.951 6-30.321 14.73-41.499 32.41l-.53.85c-2.747 4.47-5.102 9.35-7.158 14.62-1.129 2.89-2.161 5.82-3.375 8.55-1.209 2.73-2.553 5.15-4.24 6.99-1.936 2.1-3.942 3.18-5.975 3.61-2.05.43-4.204.23-6.45-.35-2.251-.58-4.535-1.52-6.843-2.52-2.281-.98-4.605-2.02-6.835-2.74-22.514-7.21-45.727-.51-67.167 9.26-22.067 10.06-43.613 23.22-65.046 35.8-44.086 25.85-87.782 53.38-131.015 82.58-18.294 12.36-37.064 24.21-54.785 38.91l-1.712 1.43c-15.702 13.23-31.2 30.28-39.657 55.86-5.716 17.28-8.395 36.74-11.723 55.52-3.339 18.85-7.332 37.03-15.631 52.03-4.801 8.67-10.532 14.21-16.626 17.18-6.086 2.97-12.613 3.42-19.091 1.81-12.997-3.24-25.815-14.82-34.087-31.05-9.542-18.73-15.229-43.08-14.522-67.26.854-29.2 11.315-55.85 21.994-78.98 13.732-29.73 28.3-58.54 42.5-87.77 14.285-29.4 28.573-58.8 42.857-88.2 27.047-55.67 53.442-112.31 82.567-165.278l.001.001c28.403-51.657 60.032-97.29 95.906-135.74 36.421-39.036 75.355-72.027 113.897-105.724 80.564-70.436 161.491-140.121 238.547-220.041 18.399-19.08 36.839-38.036 56.083-54.817 18.434-16.072 37.921-31.535 58.244-39.917l.968-.393zm-44.668 548.986a.835.835 0 01.64.049c.501.234 1.104.952 1.552 2.169.431 1.171.646 2.622.529 4.033-.116 1.398-.551 2.681-1.338 3.621l-.036.043c-.415.49-.76.699-1.004.776a.824.824 0 01-.636-.046c-.498-.232-1.099-.948-1.547-2.166-.43-1.172-.646-2.625-.529-4.04.118-1.417.562-2.719 1.366-3.669l-.001-.001c.415-.486.76-.692 1.004-.769z" fill="#D5B378"/><path d="M917.738 476.724c17.88-11.332 36.504-9.416 55.693-7.023l15.385 1.921 15.384 1.92c9.75 1.217 19.42 1.73 28.94 3.853 9.64 2.148 19.51 8.075 24.78 21.781 4.45 11.569 4.55 25.752 3.25 38.945l-.13 1.274c-3.35 31.579-13.98 60.426-22.98 88.903-32.43 102.591-78.503 194.058-134.321 267.506-52.35 68.886-112.966 121.836-178.124 153.456.315-1.24.331-2.62.114-3.88-.23-1.32-.745-2.63-1.587-3.51-.046-.05-.093-.09-.141-.14 14.776-7.12 29.336-15.3 43.621-24.57 62.931-40.821 120.33-102.278 168.355-177.912 46.083-72.577 81.963-157.79 109.503-250.475 4.36-14.673 8.38-29.877 10.63-45.792 1.78-12.626 2.7-27.623-1.84-39.441-2.96-7.689-7.61-12.222-12.84-14.974-5.19-2.731-10.9-3.68-15.92-4.306-20.14-2.513-40.3-5.212-60.463-7.53l-1.816-.204c-8.798-.964-17.859-1.565-26.761.408l-.921.213c-9.59 2.32-18.549 7.915-26.971 14.866-17.215 14.207-33.534 31.603-49.989 47.543-34.731 33.642-69.463 67.28-104.197 100.923-69.937 67.736-139.871 135.476-209.805 203.212-33.294 32.247-67.752 63.182-98.27 102.154-29.439 37.594-54.859 82.105-79.618 126.935-26.332 47.68-52.543 95.53-78.807 143.29-23.94 43.54-48.933 87-66.296 138.27-3.301 9.74-8.445 25.06-10.343 39.65-.949 7.29-1.096 14.47.237 20.71 1.337 6.25 4.176 11.63 9.241 15.2 2.199 1.54 4.278 2.23 6.23 2.02 1.961-.21 3.603-1.29 4.966-2.88 2.681-3.11 4.535-8.47 5.917-14.44 1.393-6.01 2.344-12.84 3.118-19.05.778-6.24 1.372-11.82 2.051-15.44 8.912-47.46 30.286-86.89 55.181-115.96 29.084-33.96 63.264-54.74 96.887-75.4 37.952-23.32 75.905-46.63 113.86-69.95h.001c18.41-11.31 36.576-23.77 55.386-32.71 17.773-8.45 35.394-11.27 53.402-4.76l.858.32c2.214.84 4.431 1.76 6.673 2.68 2.237.93 4.497 1.86 6.77 2.7 4.261 1.57 8.62 2.85 13.078 3.21l.892.06c10.367.55 18.129-6.11 25.96-14.77 14.027-15.52 29.665-23.28 46.002-30.95-.33 1.26-.348 2.66-.128 3.93.23 1.33.744 2.64 1.586 3.52.036.04.074.07.111.11-7.744 3.57-15.603 7.07-23.22 11.62l-.821.49c-8.609 5.23-16.08 12.46-23.542 20.59-7.455 8.11-14.95 13.39-23.805 13.57-9.043.19-17.898-3.89-26.925-7.49-9.642-3.85-19.26-6.32-29.399-5.24-10.169 1.09-20.095 4.99-29.653 9.79-19.665 9.88-38.806 22.88-57.923 34.63l-58.841 36.15c-19.096 11.73-38.206 23.43-57.294 35.21-17.804 10.98-35.602 22.3-52.703 36.02h-.001c-31.053 24.9-60.253 58.85-77.859 107.28a239.95 239.95 0 00-10.144 36.7c-1.11 5.77-1.845 11.68-2.588 17.54-.745 5.87-1.498 11.69-2.64 17.35-.989 4.9-2.386 9.68-4.325 13.65-1.944 3.99-4.386 7.05-7.408 8.67-2.887 1.54-5.873 1.43-8.751.11-2.91-1.33-5.706-3.91-8.049-7.27-6.541-9.37-8.072-21.53-7.088-34.15.983-12.6 4.465-25.53 7.797-36.32 8.221-26.63 18.743-51.33 30.186-74.8 23.794-48.81 50.462-94.3 76.061-140.86 26.311-47.84 52.016-96.68 79.805-142.35h-.001c12.968-21.313 26.51-41.779 40.974-60.517l1.403-1.808c15.264-19.579 31.536-37.094 48.145-53.77 35.005-35.146 70.65-68.742 106.032-103.014L813.096 574.57c17.837-17.278 35.669-34.547 53.507-51.826 16.716-16.189 33.058-34.564 51.135-46.02zM722.086 1042.87c.184.04.392.15.613.38.464.49.867 1.37 1.059 2.48.189 1.09.151 2.26-.134 3.23-.285.98-.775 1.63-1.404 1.93l-.016.01c-.323.15-.558.16-.732.12-.182-.04-.389-.15-.61-.38-.463-.48-.864-1.36-1.056-2.47-.189-1.09-.151-2.26.135-3.24.287-.98.783-1.64 1.42-1.94h.001c.038-.01.076-.03.115-.05.26-.1.458-.1.609-.07z" fill="#D5B378"/><path d="M937.491 514.358c8.824-3.066 17.93-2.993 27.02-1.707h.001c2.956.417 5.893 1.019 8.888 1.586 2.607.494 5.247.958 7.911 1.228l1.144.102c4.019.317 7.972.532 11.938.894l1.7.164c9.437.975 19.927 1.78 28.027 8.889h0c2.74 2.398 5.1 5.95 5.83 10.876l.07.482c.95 7.561.31 16.272-.44 24.201l-.32 3.345c-4.25 43.762-20.67 83.344-37.408 118.023-16.247 33.661-34.605 64.374-52.114 96.471a6.488 6.488 0 00-.742-1.718c-.437-.691-1.085-1.352-1.912-1.594 3.344-6.133 6.738-12.203 10.143-18.259 18.688-33.237 37.742-66.372 53.513-103.392 7.78-18.246 14.88-37.54 19.84-58.165 2.14-8.868 3.89-17.99 5.06-27.309l.23-1.866c.99-8.447 2.28-19.44 1.16-28.182-.69-5.431-4.52-8.076-7.29-9.674h0c-4.6-2.657-9.52-3.907-14.25-4.784-4.38-.813-8.758-1.199-13.099-1.52-3.811-.282-7.579-.512-11.341-.933l-1.611-.192c-3.713-.473-7.393-1.213-11.145-1.897-3.733-.679-7.518-1.298-11.352-1.499-9.183-.48-18.17 1.192-26.893 5.969-8.385 4.593-16.254 11.234-23.829 18.539-7.555 7.286-14.926 15.343-22.187 22.681L692.931 758.266c-63.717 64.4-127.579 128.482-191.158 193.238-30.388 30.95-59.235 64.386-86.263 102.356-13.279 18.66-26.189 37.95-38.968 57.42-6.339 9.66-12.75 19.27-18.982 29.13v0c-4.777 7.57-10.724 17.91-9.884 29.49-.307.02-.613.03-.921.05l-2.031.07 1.3 1.56c.822.99 1.648 1.98 2.47 2.96l1.744-.85c-.141-.65-.257-1.29-.35-1.94a61.726 61.726 0 0013.028-2.54h.001c21.158-6.53 40.606-22.52 58.981-38.92h.001c9.309-8.3 18.46-17.03 27.605-25.71 9.151-8.69 18.299-17.33 27.621-25.48 18.078-15.81 36.919-29.76 56.819-38.29 9.599-4.12 19.428-6.92 29.323-7.99 10.489-1.14 20.891.24 31.401 2.43 10.375 2.16 20.997 4.82 31.708 4.56l1.037-.03c11.481-.47 22.153-5.69 32.552-12.1 20.903-12.89 41.655-26.45 62.425-39.775l.001.001c21.125-13.554 42.221-27.228 63.254-41.143 19.361-12.807 38.894-25.512 57.558-40.976 18.542-15.358 35.672-33.821 50.975-56.383 14.1-20.786 26.717-43.845 39.193-66.927a6.45 6.45 0 00.737 1.7c.436.692 1.083 1.352 1.908 1.595-2.82 5.22-5.642 10.434-8.483 15.608v.001c-13.575 24.77-27.646 49.002-43.751 69.628-15.964 20.438-33.825 36.559-52.378 50.513-19.196 14.436-38.946 27.068-58.623 39.982-18.602 12.205-37.247 24.244-55.914 36.201l-8.001 5.115c-10.672 6.83-21.349 13.63-32.027 20.42-10.257 6.53-20.311 13.66-30.837 18.22-10.552 4.57-21.068 4.68-31.715 3.27-5.33-.7-10.668-1.78-16.062-2.86-5.045-1-10.136-2.01-15.256-2.69l-1.024-.13-1.034-.13c-21.693-2.4-42.485 4.4-62.292 15.94-20.116 11.71-39.293 28.36-57.46 45.36-18.573 17.38-36.776 35.54-56.023 50.78-18.4 14.57-37.863 26.24-58.384 27.01-.152 0-.404-.07-.714-.47-.308-.39-.582-.99-.739-1.71-2.348-10.8.511-21.3 4.744-30.08 5.198-10.77 11.943-19.77 18.169-29.31 6.676-10.23 13.373-20.43 20.128-30.52 13.192-19.71 26.604-39.06 40.482-57.54 28.627-38.129 59.75-70.283 91.298-102.171L718.086 726.12c33.186-33.538 66.372-67.08 99.557-100.621l49.205-49.735c15.472-15.636 30.578-32.536 46.651-46.298l1.558-1.323c7.144-5.999 14.626-11.07 22.434-13.785zm-1.051 263.145c.139.009.485.158.865.759.741 1.173 1.041 3.201.178 4.799-.446.825-.774.813-.818.81-.14-.01-.486-.16-.867-.762-.711-1.126-1.014-3.043-.272-4.617l.097-.179c.444-.824.772-.813.817-.81z" fill="#D5B378"/><path d="M912.457 755.932c.159.241.38.501.665.699-1.578 3.08-3.156 6.157-4.743 9.224l-1.904 3.666c-10.355 19.839-21.207 39.189-34.033 54.987-12.943 15.946-27.644 27.674-42.533 38.709-32.799 24.311-65.899 47.65-99.165 70.341a3300.904 3300.904 0 01-43.38 29.083l-6.216 4.086c-16.061 10.528-32.047 22.25-49.094 26.104-8.425 1.903-16.755 1.064-25.189-.49-8.366-1.542-16.97-3.825-25.591-4.656-16.64-1.606-33.071 3.553-48.535 12.335v0c-15.739 8.93-30.535 21.42-44.885 34.56-7.193 6.59-14.034 13.68-21.292 19.78-6.114 5.14-12.446 8.71-18.881 7.34l.075-.19c.22-.56.444-1.12.673-1.67 3.798.61 7.507-.43 11.039-2.38 4.032-2.22 7.826-5.36 11.475-8.74 1.827-1.7 3.629-3.46 5.411-5.21 1.784-1.75 3.548-3.49 5.315-5.14 6.94-6.49 13.921-12.85 21.033-18.82v0c13.976-11.72 28.508-22.046 43.776-28.235 15.53-6.295 30.964-6.993 46.857-3.639 8.199 1.73 16.585 3.955 25.054 4.352l.819.034c8.906.296 17.634-1.992 26.089-5.794 16.899-7.601 33.112-19.617 49.12-30.224a3298.13 3298.13 0 0049.918-33.749c32.199-22.204 64.637-44.336 96.144-69.059 15.03-11.793 29.234-25.519 41.579-43.651 11.169-16.406 20.859-35.041 30.399-53.653zM445.794 1061.15c-.017 0-.033-.01-.05-.01-.01-.01-.031-.03-.058-.07a1.379 1.379 0 01-.181-.44 2.186 2.186 0 01-.051-.8c.114.44.226.89.34 1.32zm520.191-509.632c5.224.042 11.986.632 17.893 3.503 5.852 2.844 10.912 7.946 12.787 17.172 2.002 9.858-.873 20.594-4.094 29.225-6.811 18.257-14.93 35.347-23.347 51.875-8.841 17.359-18.178 34.06-27.536 50.766-8.804 15.719-17.628 31.443-26.057 47.7a2.583 2.583 0 00-.663-.702 1037.173 1037.173 0 0111.751-22.041c18.026-32.921 37.129-64.747 53.382-100.1 3.623-7.884 7.103-15.941 10.36-24.221l.648-1.659c2.179-5.607 4.263-11.491 5.202-18.065 1.282-8.986-.513-17.453-5.63-22.785-5.418-5.644-12.275-7.462-18.451-8.235h-.001c-7.011-.874-14.109-.346-21.039 1.173l-1.383.317c-6.086 1.455-12.345 3.549-18.134 7.349l-.559.373c-6.425 4.362-12.16 10.575-17.603 17.272-2.725 3.351-5.39 6.841-8.036 10.294-2.65 3.456-5.282 6.877-7.954 10.112-22.209 26.884-46.274 49.52-70.132 72.738-26.109 25.407-52.092 51.16-78.12 76.742l-157.2 154.507c-26.202 25.756-52.396 51.5-78.599 77.255-12.719 12.501-25.482 24.927-38.171 37.527-10.405 10.33-20.937 21.65-28.055 37.92-.266-.08-.532-.17-.799-.27a96.422 96.422 0 0110.975-19.44c9.603-13.17 20.852-23.25 31.78-33.85l2.181-2.13a377023.88 377023.88 0 0040.686-39.988l40.226-39.537 40.225-39.536c53.939-53.016 107.886-106.035 161.825-159.051 25.995-25.551 52.151-50.938 78.144-76.51 12.094-11.9 24.081-24.131 35.659-37.302l.001-.001a462.229 462.229 0 0018.1-21.894c5.349-6.896 10.598-13.843 16.372-19.62 12.731-12.735 28.385-17.003 43.366-16.883zM914.004 752.93c.256.457.358 1.219.076 1.826-.258-.457-.362-1.222-.076-1.826z" fill="#D5B378"/><path d="M946.402 591.217c1.867-.762 3.589-.925 5.024-.216h.002c.957.472 1.671 1.492 2.098 3.006.425 1.504.524 3.358.358 5.238-.423 4.801-1.937 9.423-3.513 13.667-1.08 2.909-2.266 5.766-3.588 8.407a2.58 2.58 0 00-.678-.696c1.457-2.774 2.715-5.806 3.854-8.849h.001c1.458-3.904 3.122-8.546 3.43-13.319.143-2.217-.229-3.886-1.295-4.877-1.021-.948-2.389-1.015-3.639-.789l-.249.049c-5.13 1.097-9.479 5.478-13.133 10.156l-.001.001c-3.753 4.807-7.152 10.24-10.473 15.675l-1.419 2.328c-3.301 5.417-6.515 10.887-10.116 15.638l-.725.942c-5.468 6.965-11.028 13.754-16.647 20.429-10.693 12.702-21.62 24.924-32.714 36.756l-2.22 2.361c-23.676 25.087-48.09 48.412-72.717 71.159-24.401 22.538-48.975 44.402-73.434 66.842-24.516 22.494-48.865 45.525-72.561 70.174h-.001a1108.76 1108.76 0 00-8.727 9.189l-.001.001c-2.66 2.835-5.667 5.646-8.194 9.119-2.013 2.767-4.1 6.249-5.026 10.422l-.086.406c-1.028 5.092.798 9.256 4.158 10.943l.33.156c3.864 1.706 7.753.978 11.357-.665 2.688-1.224 5.305-2.999 7.741-4.762l2.371-1.739c6.653-4.897 13.305-9.798 19.955-14.694 27.001-19.882 53.992-39.753 80.993-59.636 13.14-9.675 26.322-19.272 39.434-29.085l-.001-.001c12.316-9.212 24.566-18.803 36.344-29.744 11.893-11.045 23.113-23.597 33.582-37.75 9.618-13 18.64-27.036 27.403-41.4l1.749-2.877c19.57-32.286 38.713-65.247 58.007-97.915l.031.053c.16.253.385.522.673.73-4.8 8.116-9.599 16.236-14.401 24.351h-.001c-10.422 17.627-20.84 35.258-31.264 52.885-9.533 16.123-19.078 32.205-29.161 47.43-9.999 15.102-20.542 29.319-31.924 41.699-10.843 11.793-22.355 21.995-34.111 31.429l-2.354 1.877c-9.767 7.736-19.67 15.036-29.595 22.314l-9.927 7.285c-13.89 10.224-27.781 20.452-41.672 30.68-13.98 10.296-27.982 20.602-41.962 30.898l-10.272 7.562-10.27 7.563c-6.806 5.013-13.363 10.692-20.33 14.262-2.567 1.314-5.868 2.427-8.934 2.279-2.984-.145-5.775-1.474-7.558-5.172-1.562-3.241-1.545-6.921-.689-10.485.802-3.34 2.324-6.502 3.852-8.955l.306-.482c2.227-3.439 4.891-6.042 7.569-8.913 2.972-3.184 5.959-6.341 8.955-9.474l-.001-.001a1176.638 1176.638 0 0118.355-18.746c24.722-24.702 50.02-47.949 75.403-70.975 25.451-23.086 50.999-45.98 76.171-69.867 25.276-23.988 50.182-49.02 74.104-76.293a837.818 837.818 0 0018.162-21.393v-.001c4.843-5.914 9.868-11.79 14.306-18.64 2.052-3.165 4.04-6.43 6.017-9.681 1.98-3.256 3.952-6.497 5.985-9.634 3.765-5.805 7.715-11.516 12.265-15.307 1.536-1.278 3.381-2.57 5.239-3.328zm-1.256 31.248c.287.453.383 1.234.046 1.805a.008.008 0 01-.002.004c-.002.004-.006.007-.008.012-.009-.012-.019-.024-.028-.038-.28-.442-.38-1.197-.076-1.765l.026-.044.01-.016.032.042zM-81.959-40.301c19.004-42.775 54.626-61.403 86.518-57.843 21.585 2.41 42.005 13.152 61.637 27.679 19.635 14.528 38.386 32.764 56.672 50.082 39.784 37.676 79.034 76.67 118.597 114.98 38.271 37.058 76.833 73.482 116.33 107.302l3.825 3.265c20.173 17.162 40.755 35.866 62.424 48.601 10.407 6.115 21.228 10.172 32.48 10.521l1.089.022c12.221.119 24.219-3.51 35.834-8.491 43.348-18.598 85.101-49.525 123.035-86.925 17.121-16.881 34.028-36.077 52.012-51.226 17.961-15.128 36.776-26.013 57.544-26.358 17.444-.293 35.15 7.142 48.738 25.098 13.24 17.499 20.434 43.225 22.761 70 2.428 27.933.275 56.44-3.305 83.966-3.903 29.992-9.314 59.72-15.223 88.889-12.027 59.367-28.647 117.995-56.359 163.267-29.403 48.031-68.573 76.478-106.377 105.032l-65.73 49.644-65.728 49.643c-32.776 24.754-66.409 47.837-98.013 76.53-24.189 21.96-48.479 44.33-74.819 58.664-10.739 5.845-22.785 10.679-34.445 10.961-11.588.281-22.857-3.93-32.179-16.329-12.322-16.391-17.16-42.585-19.5-67.13-1.575-16.513-2.27-33.465-4.211-49.981a328.317 328.317 0 00-8.705-45.65c-16.096-60.75-45.934-109.855-73.906-157.381 1.363-.137 2.476-1.143 3.227-2.326.652-1.028 1.132-2.346 1.319-3.77 12.944 22.03 25.878 44.097 37.851 67.409 12.385 24.113 23.873 49.603 32.479 77.536 8.467 27.474 13.037 55.815 15.397 85.97l.22 2.924c.99 13.517 1.896 28.161 4.111 42.046 2.214 13.881 5.751 27.096 12.05 37.749 7.438 12.574 17.777 18.32 28.668 18.838h0c13.203.625 26.325-4.215 38.887-11.446 12.565-7.232 24.667-16.916 35.83-26.089 10.851-8.917 21.426-18.625 32.014-28.157 10.598-9.541 21.217-18.913 32.197-27.207l128.33-96.926c21.387-16.152 42.776-32.308 64.164-48.46 18.998-14.35 38.208-28.37 56.707-44.479 17.865-15.56 35.163-33.227 50.122-55.319 14.466-21.364 26.279-46.525 35.871-73.728 18.869-53.514 30.375-114.247 38.949-173.621 3.642-25.22 6.634-54.528 5.112-82.145-1.521-27.597-7.555-53.65-22.096-72.241-7.873-10.066-16.6-16.274-25.778-19.436-9.174-3.161-18.73-3.255-28.226-1.205-18.96 4.093-37.775 16.749-53.174 30.856-9.209 8.434-18.115 17.61-26.987 26.798-8.878 9.195-17.719 18.401-26.825 26.934v.001c-18.674 17.504-38.079 33.058-58.044 46.547-19.934 13.47-40.475 25.826-61.481 34.007-21.273 8.285-42.452 9.337-63.248-1.827-20.455-10.98-39.73-28.253-58.907-44.312-19.949-16.705-39.655-34.133-59.192-52.023-39.166-35.862-77.641-73.566-116.154-111.19-37.663-36.794-75.144-75.444-114.404-108.193-34.018-28.378-73.328-49.9-112.242-31.169-15.663 7.54-30.46 21.223-40.736 41.466h-.001c-12.128 23.9-15.797 55.053-12.946 84.74 3.15 32.8 12.543 63.401 23.147 91.623 10.846 28.866 22.97 56.63 35.52 83.684 50.216 108.25 110.28 203.823 167.989 301.84-1.36.138-2.471 1.143-3.221 2.325-.654 1.032-1.136 2.356-1.322 3.786-13.665-23.201-27.43-46.25-41.156-69.347-30.036-50.528-59.902-101.339-87.98-154.575-27.972-53.038-55.138-108.606-76.883-168.53-19.04-52.462-34.369-121.68-10.154-176.19zM138.97 524.218c.39-.036 1.047.143 1.782 1.397l.001.001c1.456 2.475 1.014 5.638-.178 7.517-.602.949-1.258 1.364-1.744 1.409-.391.037-1.048-.142-1.783-1.392-1.455-2.478-1.013-5.643.179-7.524.602-.95 1.258-1.363 1.743-1.408z" fill="#D5B378"/><path d="M35.298-44.93c.386-.08.918.005 1.536.77a2446.514 2446.514 0 0042.14 50.706c57.637 67.45 117.583 130.012 179.493 187.334 30.616 28.348 61.62 56.404 93.611 80.897 31.36 24.012 65.34 43.835 100.95 44.222 36.739.401 70.299-18.271 101.713-44.655 31.411-26.383 60.838-60.622 89.251-91.536 12.91-14.043 26.808-30.421 41.66-42.366 14.853-11.946 30.416-19.252 46.644-15.512 13.354 3.079 25.632 14.545 32.563 33.558 6.505 17.851 7.605 39.378 6.487 59.661-1.276 23.168-5.309 45.472-9.432 67.783-5.399 29.222-10.8 58.447-16.202 87.668-4.742 25.654-8.618 52.413-16.603 76.004-7.263 21.454-18.625 36.805-31.736 48.995l-1.274 1.17c-15.647 14.186-32.128 26.212-48.303 39.131-17.236 13.764-34.482 27.54-51.718 41.304-34.479 27.538-68.954 55.069-103.433 82.606a934400.355 934400.355 0 01-51.718 41.304 934385.329 934385.329 0 00-51.717 41.304c-17.202 13.739-34.39 27.5-51.6 41.21-7.345 5.85-14.87 11.709-22.646 16.014-7.771 4.303-15.715 7.008-23.894 6.627-13.782-.638-26.976-10.108-34.289-29.589-3.784-10.081-5.966-21.307-7.82-32.814-1.848-11.474-3.373-23.261-5.845-34.311-11.041-49.368-32.575-90.871-54.199-129.555-44.332-79.308-90.134-156.444-131.659-239.439-40.442-80.837-76.96-167.063-103.07-261.635l-1.236-4.51-.062-.246c-.596-2.53.287-4.775 1.33-5.74.536-.495.943-.524 1.178-.438.27.099.78.507 1.15 1.866v.001a1227.892 1227.892 0 0020.642 68.118C7.952 232.773 47.734 316.147 90.052 395.35v.001c21.203 39.68 43.094 78.43 65.057 117.05 21.502 37.806 43.949 74.686 63.156 115.392 9.659 20.467 18.356 42.191 24.816 65.596v.001c2.975 10.773 5.517 21.818 7.453 33.158 1.926 11.27 3.324 22.963 5.741 34.125 2.473 11.427 6.331 22.542 12.85 29.868 6.128 6.889 13.732 10.117 21.217 10.617h.001c9.062.603 17.674-2.673 25.862-7.552 8.181-4.873 16.056-11.42 23.614-17.457l202.557-161.772c33.997-27.15 67.997-54.304 101.996-81.458 15.797-12.615 31.964-24.67 47.5-38.282 14.555-12.756 26.937-28.512 34.541-52.342 7.816-24.486 11.632-52.291 16.443-78.313 5.253-28.411 10.504-56.823 15.755-85.234 4.085-22.11 8.019-44.612 8.635-67.84.539-20.327-1.555-42.296-10.662-58.122-10.496-18.241-27.144-23.483-42.229-19.645-17.061 4.341-32.101 18.898-46.057 33.142-14.886 15.19-29.368 31.327-43.881 47.312-14.519 15.992-29.072 31.836-44.13 46.477-28.641 27.849-59.549 51.496-92.607 61.67-33.183 10.21-66.332 4.01-98.211-13.553-30.151-16.61-58.444-40.861-86.42-65.356l-5.591-4.901-5.79-5.094c-28.923-25.551-57.441-52.239-85.522-80.026C146.636 93.925 89.142 30.062 33.862-38.293h.002c-1.276-1.578-1.062-3.861-.088-5.383.481-.753 1.051-1.158 1.522-1.255z" fill="#D5B378"/><path d="M22.84-22.983c.385-.355.683-.378.853-.327.162.05.494.25.807.957l.131.335c7.246 20.552 17.286 37.87 28.39 53.364l1.076 1.494c12.12 16.69 25.231 31.569 38.044 46.733 12.968 15.348 25.966 30.641 39.051 45.746 26.554 30.653 53.49 60.561 81.244 88.524 54.928 55.332 113.527 103.252 176.645 131.254 17.434 7.736 35.306 14.167 53.534 16.17 18.159 1.997 36.048-1.307 53.61-8.104 16.962-6.565 33.551-15.544 49.906-24.823 14.951-8.482 29.745-17.758 44.116-28.53 28.965-21.71 54.908-49.558 77.041-86.186 4.942-8.179 9.974-16.591 15.471-24 5.328-7.18 11.044-13.351 17.459-17.422l.623-.388c10.423-6.351 23.226-6.396 32.942 2.632v-.001c6.106 5.675 9.651 14.049 11.432 23.714 1.78 9.657 1.782 20.503.889 30.999-1.887 22.157-4.767 44.344-7.945 66.141-6.221 42.649-15.431 85.611-33.339 119.615-9.813 18.63-22.102 32.819-35.486 44.548-15.68 13.739-31.993 25.735-48.096 38.429l-99.998 78.823c-33.562 26.457-67.126 52.913-100.688 79.366-32.034 25.248-63.713 52.432-96.859 73.497-6.62 4.206-13.527 7.257-20.232 7.549-6.639.289-13.188-2.121-19.186-9.078-9.287-10.772-14.56-28.023-18.713-44.864-5.032-20.406-8.717-41.688-14.765-61.633-6.913-22.81-15.582-44.189-25.072-64.508-19.513-41.786-42.265-79.761-63.568-119.104a4594.894 4594.894 0 01-66.871-128.336C51.598 222.461 10.004 132.735-29.402 40.668c-.766-1.79-.19-3.418.587-4.128.383-.35.722-.41.956-.354.204.05.553.243.895.892l.145.307A5093.942 5093.942 0 002.01 103.47c39.937 89.782 82.007 177.211 126.094 262.037 21.751 41.846 44.122 82.827 66.656 123.609v.001c20.088 36.357 40.04 73.622 54.467 116.26 6.743 19.929 11.459 40.778 16.106 62.135 3.882 17.836 8.288 37.599 17.291 51.19 3.159 4.769 6.607 7.969 10.266 9.898 3.666 1.933 7.487 2.559 11.336 2.266 7.647-.583 15.422-4.797 22.5-9.561 16.106-10.842 31.856-22.935 47.505-35.188 65.65-51.408 131.135-103.345 196.693-155.019l24.827-19.571 24.827-19.569c15.604-12.298 31.55-24.078 46.881-37.422 13.757-11.978 26.282-26.454 36.236-45.791 8.652-16.811 15.187-36.19 20.22-56.199l.482-1.939c4.76-19.327 8.255-39.365 11.144-59.548l.57-4.038c1.527-10.979 2.885-22.013 4.163-33.064 1.368-11.83 3.069-23.901 3.383-36.033.301-11.616-1.047-23.853-6.616-32.575-4.342-6.797-10.397-10.408-16.472-11.517l-.588-.1c-7.564-1.18-14.541 1.268-20.887 5.836-6.331 4.558-12.091 11.265-17.285 18.734-5.706 8.205-11.017 16.998-16.363 25.649-5.354 8.665-10.749 17.195-16.653 24.94-11.52 15.115-24.016 28.315-37.073 39.901-26.912 23.884-56.02 41.192-85.339 56.518v.001c-16.708 8.737-33.596 16.542-50.957 20.296-16.88 3.649-33.828 2.618-50.692-1.596-32.258-8.061-63.983-25.091-94.213-44.727-59.012-38.331-113.579-91.488-165.78-149.151-26.378-29.139-52.215-59.482-77.973-90h0C62.71 51.635 36.944 23.493 22.097-18.612c-.68-1.93-.042-3.65.744-4.372z" fill="#D5B378"/><path d="M-1.022-35.326l.052.142C5.414-15.21 12.678 4.026 20.722 22.448l1.62 3.674c36.482 81.988 86.855 145.987 138.667 202.463C216.33 288.881 274.928 344.812 339.12 378.93c59.798 31.781 124.598 42.805 186.639 19.59 29.626-11.084 58.106-29.993 83.091-57.453l-.001-.001c13.832-15.197 26.27-33.104 37.92-52.149 5.845-9.553 11.507-19.378 17.107-29.267 5.664-9.998 10.858-20.998 17.14-29.735h.001c2.263-3.149 4.754-5.551 7.338-6.794 2.536-1.22 5.185-1.34 7.939.101v-.001c5.433 2.843 9.888 10.239 12.145 18.927 2.885 11.103 2.182 23.473.044 35.713-2.139 12.244-5.69 24.243-8.445 34.648-11.903 44.936-28.819 85.101-55.798 109.982-13.832 12.759-28.932 21.711-44.067 30.272-16.59 9.382-33.158 18.873-49.578 29.056-33.322 20.664-66.12 43.409-98.297 68.153-31.869 24.505-63.127 50.961-93.682 79.304-6.691 6.207-13.643 12.924-20.94 17.661-7.286 4.731-14.749 7.378-22.468 5.661-5.689-1.266-10.836-4.857-15.453-10.023-4.616-5.165-8.653-11.85-12.124-19.19v-.001c-8.016-16.95-13.201-36.582-18.888-55.757-6.075-20.478-12.875-40.414-20.256-59.792-14.983-39.334-32.33-76.309-50.85-111.651-36.998-70.611-78.541-134.93-117.715-202.328-38.33-65.947-74.77-135.6-101.28-214.964l-1.254-3.788c-.248-.756-.009-1.38.216-1.64.013.027.029.057.044.094l.052.14A880.9 880.9 0 00-1.523 30.291c30.99 76.273 70.074 143.245 109.404 208.787 39.185 65.301 79.19 129.774 113.124 202.096 16.765 35.728 31.959 73.362 44.442 113.221 5.808 18.545 10.698 38.092 17.552 55.94 3.339 8.697 7.313 17.344 12.125 24.414 4.804 7.059 10.512 12.649 17.359 15.072 9.182 3.249 17.985.082 26.147-5.378 8.144-5.448 15.899-13.353 22.99-19.892h.001a1351.278 1351.278 0 0145.743-40.347c30.822-25.966 62.277-50.063 94.276-72.213 31.485-21.794 63.499-41.488 95.891-59.711 15.346-8.63 30.852-17.527 45.156-30.327 14.301-12.798 26.529-29.704 36.216-50.559 9.455-20.355 16.534-43.204 22.429-66.497 2.753-10.882 6.559-24.745 7.879-38.218 1.319-13.451.192-26.76-7.155-36.403h-.001c-3.281-4.308-7.874-7.242-12.643-5.724l-.463.161c-2.292.867-4.266 2.59-5.995 4.628-1.735 2.044-3.284 4.478-4.702 6.857-5.811 9.758-11.311 20.086-16.961 29.996-10.867 19.053-22.021 37.735-34.29 54.487l-1.19 1.615c-44.778 60.333-103.387 88.269-161.587 90.574-63.144 2.502-124.818-25.732-181.622-68.339-29.976-22.488-58.727-48.888-86.651-77.222-26.347-26.734-52.199-54.837-76.914-85.168C71.159 123.382 27.161 54.126-.623-31.727l-.654-2.03c-.24-.755-.006-1.38.219-1.65.011.024.024.05.036.08z" fill="#D5B378"/><path d="M668.543 285.922c1.486-1.116 2.792-1.311 3.91-.998 1.164.326 2.312 1.254 3.32 2.754 2.019 3.004 3.214 7.93 2.806 12.96-.483 5.953-2.536 11.142-4.737 16.119l-.95 2.122a260.187 260.187 0 01-6.563 13.538l-.985 1.874a254.769 254.769 0 01-17.472 28.269c-25.683 36.077-56.956 61.557-89.097 80.271-9.272 5.4-18.632 10.396-28.006 15.442-9.368 5.042-18.747 10.134-28.029 15.709-17.615 10.579-35.054 21.856-52.411 33.395l-7.435 4.96c-17.091 11.439-34.094 23.054-51.17 34.471l-7.322 4.88c-9.014 5.987-17.994 12.051-27.077 17.656l-1.818 1.115c-8.935 5.446-18.282 9.618-27.304 5.766h.001c-7.941-3.392-14.566-12.146-20.449-21.605-7.197-11.566-13.945-23.901-20.667-36.201-14.059-25.724-27.515-52.244-40.966-78.783l-41.172-81.233c-6.764-13.344-13.538-26.67-20.288-40.025-2.053-4.062-3.881-8.334-1.799-12.729l.001-.001c1.155-2.441 2.877-3.631 4.578-3.816a4.448 4.448 0 00-.135 2.017c-1.795.229-3.545 1.49-4.392 3.753v.001c-.82 2.193-.306 4.438.474 6.345.395.964.873 1.882 1.327 2.707.466.849.879 1.556 1.203 2.196l4.764 9.399 4.764 9.401c26.255 51.798 52.165 104.148 79.024 155.212 6.624 12.592 13.348 25.061 20.235 37.31 6.169 10.976 12.352 22.704 19.651 32.148 7.55 9.77 16.53 15.165 26.729 12.741l.486-.121c5.062-1.32 9.956-3.817 14.701-6.703 4.724-2.872 9.417-6.207 13.943-9.157l-.001-.001c38.111-24.831 75.57-51.43 113.813-75.533 18.95-11.944 38.058-23.253 57.425-33.323h.001c15.96-8.301 31.676-17.514 46.89-28.943 30.314-22.771 59.449-53.284 80.292-95.411v-.001c1.957-3.956 5.61-10.649 7.804-17.532 2.174-6.817 3.066-14.265-1.035-19.484-1.198-1.524-2.588-2.242-4.103-2.112-1.424.123-2.715.979-3.815 2.006-2.198 2.053-4.216 5.363-5.625 7.455-3.326 4.933-6.518 10.077-9.632 15.314-12.17 20.466-23.182 42.477-36.941 60.107-14.492 18.562-31.671 29.594-49.34 38.837-18.565 9.714-37.348 18.384-56.361 25.528-37.768 14.19-77.197 23.684-115.758 15.754-37.949-7.804-74.302-29.638-108.454-56.812l-1.624-1.298c-9.083-7.284-18.03-14.988-26.873-22.989-7.621-6.894-15.316-13.673-22.547-21.398l-1.44-1.557c-3.412-3.741-6.782-7.814-10.185-11.96-3.398-4.14-6.83-8.356-10.343-12.35-6.553-7.449-13.467-14.219-21.145-18.394a3.858 3.858 0 00.503-1.684c6.294 3.638 12.122 9.263 17.745 15.367l1.258 1.378c3.611 3.986 7.129 8.173 10.661 12.379 3.528 4.201 7.07 8.42 10.707 12.441v-.001c8.165 9.034 16.965 16.763 25.556 24.515 18.093 16.327 36.682 31.395 55.907 44.257 37.797 25.284 78.448 41.8 119.978 38.584 41.141-3.182 81.694-18.459 120.732-37.798 18.956-9.392 38.585-19.182 55.119-37.627 15.327-17.095 27.213-40.394 39.668-61.849l.001.001c3.163-5.445 6.372-10.808 9.699-15.981 1.528-2.374 3.033-4.915 4.674-7.281 1.634-2.358 3.318-4.413 5.116-5.763zm-479.032 16.193c.039.033.101.107.155.28.08.258.099.616.036.976-.055.31-.156.53-.241.654a1.007 1.007 0 01-.136-.302 2.38 2.38 0 01-.037-1.03c.05-.285.133-.48.201-.588l.022.01z" fill="#D5B378"/><path d="M261.503 414.819l.141.022c-.248 6.392 1.916 12.288 4.37 17.105 2.901 5.692 6.421 10.695 9.571 15.816v-.001c11.825 19.234 23.173 39.619 36.314 56.944 5.2 6.857 10.961 13.021 17.875 15.741 5.749 2.263 11.753 2.3 17.458 2.279a4.286 4.286 0 00.072 2.027c-6.886.008-13.676-.098-20.002-3.441-6.786-3.585-12.481-10.603-18.009-18.174v-.001c-5.934-8.125-11.523-16.859-16.999-25.784l-2.341-3.835-2.354-3.887c-5.092-8.441-10.152-16.982-15.362-25.275l-1.205-1.909c-4.829-7.616-10.337-16.724-9.94-27.684l.411.057zm87.949 108.009c.104.191.187.519.186.906 0 .388-.083.716-.188.907-.006.011-.013.019-.019.028a1.742 1.742 0 01-.25-.673c-.063-.362-.043-.717.038-.972.068-.216.145-.272.172-.286a.56.56 0 01.061.09zM264.046 411.23c11.99 2.459 22.896 10.324 33.382 20.5 9.813 9.523 19.406 20.123 30.019 27.966l1.03.75c12.769 9.158 26.612 14.793 40.643 16.581h.001c4.666.593 9.497 1.28 13.058 5.516 1.794 2.133 2.868 5.14 3.14 8.403.272 3.258-.264 6.694-1.602 9.633-3.28 7.208-9.01 10.724-14.266 14.171-5.782 3.791-11.742 6.839-17.818 9.17.002-.062.005-.124.005-.185.001-.559-.102-1.167-.347-1.695a94.042 94.042 0 0018.6-9.525l1.321-.887c2.965-2.029 6.13-4.169 8.86-7.333v-.001c2.286-2.652 4.817-6.624 4.836-11.607.016-4.206-1.486-7.116-3.587-9.112-2.068-1.964-4.65-2.982-6.725-3.565h-.001c-2.604-.729-5.345-.92-7.774-1.307h.001a82.439 82.439 0 01-9.364-2.066h.001c-12.475-3.524-24.617-10.163-35.843-19.587-4.798-4.026-9.405-8.574-14.013-13.22-4.597-4.635-9.201-9.375-13.953-13.731-9.2-8.435-19.094-14.875-29.875-16.93.026-.225.055-.45.088-.676l.183-1.263zm-2.382-.414c.351.05.702.105 1.052.164l-.609.727-.619.742-.259.31c.045-.442.1-.887.164-1.334v-.002a1.25 1.25 0 01.244-.577l.027-.03zm-322.099-45.473c9.337-8.461 19.726-10.472 29.864-8.032 10.189 2.451 20.194 9.42 28.58 19.047 9.68 11.109 17.9 24.884 25.805 39.144 9.338 16.843 18.549 33.851 27.822 50.79 19.348 35.347 38.698 70.694 58.049 106.041 32.161 58.757 68.933 119.697 79.617 197.735 2.704 19.754 3.48 40.469 5.362 60.866 1.877 20.338 4.851 40.264 11.972 58.156 5.656 14.212 13.834 25.47 24.406 30.399 9.513 4.434 19.574 4.853 29.077 6.201 9.24 1.312 18.702 3.103 26.604 10.454 8.514 7.919 13.926 22.023 14.504 37.843.648 17.801-4.441 35.713-10.937 49.953-3.703 8.12-8.001 15.53-12.107 23.28h-.001a2969.62 2969.62 0 00-12.91 24.62c-33.465 64.55-64.901 131.73-92.602 202.79-.4-1.23-1.058-2.27-1.865-3.01-.919-.84-2.12-1.36-3.374-1.15a1864.617 1864.617 0 0119.024-47.04c28.859-68.61 61.098-133.54 94.785-196.44 7.019-13.1 13.549-29.119 14.287-46.856.637-15.309-3.945-29.116-12.877-36.379-7.051-5.734-15.328-7.107-22.986-8.081l-3.239-.404-3.579-.443c-8.346-1.028-16.63-2.165-24.426-6.196-10.303-5.326-18.383-15.999-24.478-29.506-5.896-13.067-9.882-28.675-12.23-44.356l-.222-1.518c-2.994-20.928-3.726-42.319-5.726-63.609-1.805-19.224-4.998-37.966-9.76-55.927-9.232-34.83-23.364-66.019-38.347-95.143-16.719-32.501-34.451-63.771-51.772-95.414L29.769 440.652c-7.325-13.382-14.95-28.469-23.562-41.484-8.605-13.005-18.305-24.121-29.88-29.461h0c-9.457-4.36-19.918-4.568-29.288.907-10.464 6.11-16.667 19.405-19.572 35.436-3.381 18.645-4.63 38.634-5.917 57.776a1089.414 1089.414 0 00-2.353 59.276c-.996 79.276 6.578 158.593 21.885 234.112 7.657 37.776 17.248 74.547 28.714 109.859 10.966 33.777 25.088 64.204 38.826 95.121 13.566 30.529 26.019 61.896 33.59 97.326 7.948 37.2 19.539 72.12 32.82 105.21 13.342 33.24 28.363 64.7 43.617 95.75 3.747 7.63 7.482 15.28 11.273 22.86 1.573 3.14 3.297 6.63 5.267 9.67 1.961 3.02 4.245 5.71 6.999 7.15v0c2.856 1.5 5.593 1.28 8.077-.08 2.42-1.32 4.577-3.7 6.481-6.5 2.71-3.98 5.037-9.02 6.944-13.62.398 1.26 1.069 2.34 1.899 3.1.906.84 2.089 1.35 3.326 1.16-2.147 5.26-4.583 10.62-7.412 15.18-3.606 5.8-7.726 10.1-12.5 11.4-5.677 1.55-10.428-1.41-14.749-6.82-4.319-5.4-7.95-12.93-11.353-19.82-7.811-15.83-15.618-31.65-23.246-47.67-15.447-32.46-30.214-65.85-42.52-101.48-6.071-17.59-11.51-35.7-16.139-54.34-4.467-17.99-8.015-36.4-13.656-53.78-11.215-34.526-26.456-65.265-40.3-97.013-28.88-66.217-48.453-142.67-60.44-220.612-12.183-79.209-16.16-161.727-10.896-242.841 1.304-20.078 2.653-40.687 5.81-60.214 2.76-17.057 8.383-32.108 18.05-40.867zm228.062 907.127c.515-.14 1.164.02 1.824.62 1.288 1.18 2.213 3.78 1.239 6.64l-.116.3c-.579 1.5-1.292 2.04-1.813 2.18-.513.14-1.16-.01-1.82-.62-1.333-1.22-2.281-3.97-1.131-6.94l.011-.03c.579-1.48 1.287-2.01 1.806-2.15z" fill="#D5B378"/><path d="M-21.942 408.857c.351-.062.875.026 1.493.852l.001.001a951.844 951.844 0 0116.426 22.597l2.312 3.292c25.312 36.224 49.022 75.143 71.975 115.087 21.075 36.674 42.063 73.854 59.375 115.158 16.542 39.464 29.484 83.262 33.221 130.506 2.056 25.982.204 51.808.287 77.988l.015 2.534c.184 22.409 2.511 45.007 10.617 64.076l.39.905c3.555 8.127 8.248 15.164 13.943 19.792 7.403 6.016 15.791 6.258 23.571 6.494 6.402.195 13.516.891 19.858 3.98 6.295 3.066 11.903 8.527 15.242 18.42 3.912 11.591 2.174 22.991-1.675 33.671-3.862 10.71-9.78 20.53-14.17 29.09-5.674 11.05-11.349 22.11-17.023 33.16-5.675 11.06-11.349 22.11-17.023 33.17l-34.36 66.94c-4.175 8.13-9.7 17.42-15.848 22.84-3.068 2.7-6.189 4.35-9.287 4.52-3.051.16-6.283-1.1-9.634-4.65-3.086-3.26-5.85-7.56-8.451-12.23-2.604-4.69-4.997-9.66-7.393-14.32a506.234 506.234 0 01-14.036-29.62c-8.947-20.57-16.808-42.31-23.468-64.93a632.97 632.97 0 01-8.654-32.58l-.52-2.21-.52-2.25c-1.205-5.27-2.336-10.58-3.477-15.89-1.304-6.07-2.621-12.15-4.073-18.15-2.943-12.17-6.666-23.688-11.548-34.267-4.638-10.049-10.077-19.116-15.507-27.994-11.152-18.233-21.873-36.704-31.295-57.204-9.449-20.56-17.67-42.473-24.604-65.391-.782-2.587.088-4.911 1.16-5.9.53-.489.958-.536 1.228-.444.298.102.824.512 1.225 1.837 3.318 10.968 6.92 21.72 10.826 32.203 7.974 21.396 17.156 41.672 27.462 60.461 5.103 9.305 10.602 18.07 15.99 26.907 5.394 8.847 10.685 17.782 15.415 27.476 9.8 20.088 14.64 43.326 19.858 67.156 5.103 23.3 11.413 45.89 18.897 67.54 7.39 21.39 15.865 41.9 25.389 61.1 4.647 9.37 9.456 19.12 14.935 27.48v0c1.3 1.98 2.752 3.85 4.386 5.25 1.535 1.32 3.28 2.27 5.245 2.46l.396.03c3.669.18 6.956-2.1 9.685-4.78 5.878-5.76 10.318-14.41 14.519-22.68l1.789-3.52c5.57-10.85 11.141-21.7 16.709-32.55l16.708-32.55 16.708-32.55c2.785-5.42 5.57-10.85 8.354-16.27l8.355-16.28c4.907-9.56 11.47-19.75 14.149-31.9 2.549-11.56-.285-20.266-5.33-26.245-5.012-5.94-12.149-9.12-18.141-9.791-4.083-.458-8.23-.459-12.213-.65-3.772-.181-7.47-.53-11.113-1.562l-.727-.216c-6.259-1.935-12.027-6.47-17.035-13.015v-.001c-9.697-12.666-15.613-32.195-18.238-51.533-3.479-25.635-1.608-52.034-1.304-78.154.279-24.29-1.565-48.104-5.902-71.456-8.337-44.88-24.344-85.241-42.206-122.104-19.202-39.629-40.816-76.58-62.443-112.86v-.001c-22.895-38.4-46.774-75.423-72.326-109.502-1.264-1.686-1.017-4.043-.047-5.561.482-.755 1.038-1.134 1.477-1.212z" fill="#D5B378"/><path d="M-11.306 457.558c.033-.002.357-.014.796.826l.002.002 14.477 27.545 59.297 112.832c9.78 18.612 19.581 37.196 29.34 55.834 8.303 15.858 16.49 31.88 23.855 48.815 7.323 16.831 13.789 34.621 18.447 53.671 4.668 19.077 7.043 39.087 7.175 59.516l.006 1.978c-.014 20.811-1.88 41.772-2.535 62.795-.653 20.958-.092 41.83 4.79 62.127 3.822 15.896 10.496 30.574 20.375 38.831 2.45 2.049 5.07 3.779 7.633 5.479 2.578 1.709 5.102 3.389 7.452 5.373 4.657 3.931 8.644 9.068 10.66 17.908 2.19 9.6 1.102 19.54-1.344 29.1-2.447 9.56-6.227 18.66-9.373 26.62-8.107 20.5-16.215 41.01-24.32 61.52-2.669 6.75-6.456 15.65-11.004 21.45-2.28 2.91-4.643 4.89-7.02 5.54-2.275.62-4.776.08-7.551-2.58-2.532-2.43-4.649-6.14-6.584-10.33-1.954-4.22-3.601-8.63-5.375-12.68v0c-3.938-8.98-7.809-18.02-11.508-27.24-7.407-18.44-14.106-37.61-19.204-57.9-2.554-10.16-4.57-20.57-6.273-31.18-1.728-10.77-3.312-21.773-6.034-32.149-4.821-18.387-12.954-33.972-21.135-48.773l-1.637-2.951c-9.667-17.388-19.218-34.919-28.531-52.769-18.702-35.846-36.596-72.736-53.656-110.561-.785-1.742-.229-3.338.546-4.046.383-.349.735-.42.987-.364.245.055.672.295 1.065 1.166v.001a2253.8 2253.8 0 0012.432 27.089c17.134 36.674 35.092 72.393 53.817 107.089 8.838 16.376 18.18 31.982 26.462 48.956 3.69 7.562 7.098 15.47 9.86 23.933l.544 1.7c2.995 9.556 4.985 19.701 6.672 30.049 1.712 10.49 3.308 21.06 5.57 31.36 2.085 9.5 4.577 18.75 7.365 27.78l.561 1.8c5.656 18.01 12.401 35.1 19.492 51.75l1.423 3.32c1.907 4.44 3.838 8.84 5.779 13.24 1.772 4.01 3.504 8.43 5.648 12.18.955 1.67 2.07 3.24 3.373 4.37 1.233 1.07 2.693 1.78 4.364 1.71l.337-.02c1.583-.17 3.021-.97 4.273-2.01 1.256-1.05 2.39-2.39 3.377-3.76h.001c4.358-6.06 7.339-14.06 10.27-21.67l1.257-3.23 11.93-30.18 11.702-29.6c3.386-8.56 6.779-17.45 8.483-27.38 1.53-8.91 1.341-18.9-3.004-26.2-3.782-6.357-9.268-9.444-14.019-12.504l-.929-.606c-4.623-3.049-8.921-6.481-12.814-11.434-3.971-5.053-7.32-11.381-10.051-18.258-5.706-14.371-8.638-31.171-9.911-47.974-1.637-21.607-.15-43.243 1.013-64.961 1.162-21.69 2-43.448-.976-65.159-5.417-39.512-20.203-73.888-35.809-105.06-17.99-35.926-36.943-70.741-55.453-105.958-19.3-36.725-38.602-73.455-57.904-110.18-.853-1.623-.543-3.666.198-4.838.381-.604.722-.743.848-.75z" fill="#D5B378"/><path d="M-13.014 521.825l6.482 12.103 52.793 98.545 26.165 48.843c7.818 14.595 15.803 28.946 23.036 44.206 6.689 14.111 12.692 29.184 16.497 45.761 4.151 18.083 4.646 36.721 3.265 55.766-1.339 18.474-3.687 36.912-3.415 55.717.224 15.322 1.771 30.567 4.466 45.29 5.394 29.469 15.553 57.551 30.636 77.584 3.743 4.98 7.782 9.27 12.026 13.09 3.856 3.47 7.863 7.92 7.08 15.5v0c-.404 3.92-1.803 7.65-2.973 11.37-1.117 3.55-2.293 7.05-3.593 10.42-2.354 6.09-5.116 11.85-8.604 16.21l-.34.42c-1.69 2.04-3.829 4.1-6.043 5.37-2.225 1.29-4.336 1.68-6.148.82h-.001c-.912-.43-1.735-1.3-2.506-2.52-.766-1.22-1.421-2.69-2.045-4.21h-.001c-1.291-3.15-2.619-6.26-4.038-9.28l-.614-1.29c-3.412-7.08-7.15-13.74-10.822-20.41-3.678-6.69-7.295-13.39-10.497-20.61-6.172-13.91-9.322-29.524-11.73-45.952l-.472-3.296c-2.603-18.564-5.164-36.854-11.357-53.597-6.129-16.577-14.29-30.937-22.44-44.942-9.122-15.669-18.265-31.306-27.398-46.958-18.422-31.567-36.842-63.138-55.26-94.705v-.001l-.06-.11c-.264-.563-.16-1.281.11-1.707.007-.013.017-.023.024-.034a.126.126 0 01.007.011h.001l13.086 22.431 54.29 93.044c8.451 14.486 17.105 28.663 25.132 43.661 7.388 13.801 14.178 28.72 18.246 45.643v.001c2.036 8.474 3.409 17.251 4.663 26.115 1.253 8.85 2.39 17.805 3.955 26.567 1.55 8.677 3.554 17.149 6.47 24.989 2.8 7.54 6.224 14.43 9.76 21.07 3.158 5.93 6.361 11.57 9.495 17.42l1.339 2.53c1.481 2.83 2.93 5.69 4.32 8.62l.592 1.26c.775 1.67 1.485 3.42 2.213 5.19.633 1.55 1.279 3.11 1.981 4.61l.305.64c.972 2.01 2.253 3.28 3.791 3.81 1.526.54 3.116.29 4.579-.32 2.888-1.2 5.674-3.97 7.523-6.33h.001c3.851-4.92 6.697-11.41 9.081-17.98 1.216-3.35 2.323-6.78 3.382-10.24v0c.608-1.98 1.41-4.3 1.828-6.64.421-2.36.478-4.86-.461-7.29-1.379-3.57-4.008-5.7-6.026-7.5a88.109 88.109 0 01-5.895-5.8h-.001c-7.508-8.18-14.03-18.388-19.565-29.881-11.387-23.658-18.444-52.567-21.007-81.958-1.351-15.509-1.308-30.981-.116-46.52 1.52-19.792 4.274-39.897 2.924-60.098-2.409-36.042-17.586-65.985-31.765-92.593-17.032-31.959-34.165-63.787-51.247-95.67l-51.634-96.386-.001-.001c-.328-.61-.22-1.417.06-1.878l6.47 12.08z" fill="#D5B378"/><path d="M-18.606 558.712c.039.04.102.12.172.28l.001.001c.949 2.153 1.9 4.304 2.854 6.452l2.87 6.438c15.582 34.79 31.89 68.775 48.888 101.878a2026.267 2026.267 0 0026.02 49.005c8.34 15.197 17.417 29.748 23.507 47.336 5.792 16.729 8.787 36.561 7.839 55.635-.166 3.33-.576 6.899-1.355 10.188-.733 3.094-1.778 5.879-3.205 7.98l-.29.411c-.969 1.317-1.92 2.048-2.809 2.401-.876.347-1.772.359-2.707.094-1.935-.551-3.975-2.279-5.915-4.557-21.018-24.679-38.173-56.53-55.737-87.175l-57.162-99.73h-.001c-.336-.588-.232-1.383.056-1.837l.015-.023.004.005 3.426 5.977 3.425 5.976c18.411 32.123 36.823 64.246 55.232 96.369 8.047 14.039 16.066 28.195 24.505 41.716l1.693 2.697c4.404 6.961 8.935 13.738 13.646 20.204a256.635 256.635 0 007.204 9.438v.001c1.133 1.412 2.413 3.152 3.71 4.664 1.308 1.525 2.758 2.971 4.36 3.855v.001c1.488.819 2.939.901 4.259.328 1.263-.549 2.278-1.642 3.09-2.919 1.624-2.556 2.69-6.256 3.267-9.554 1.51-8.611 1.016-18.424.224-27.032-1.823-19.8-7.47-37.318-15.286-52.884h0c-7.899-15.738-16.696-30.525-24.872-45.792a2039.087 2039.087 0 01-24.863-47.958c-15.065-30.018-29.57-60.73-43.496-92.084l-2.778-6.279c-.306-.693-.06-1.266.162-1.469.018-.017.035-.028.047-.037z" fill="#D5B378"/><path d="M-16.711 616.619c4.887.771 8.755 5.126 12.052 11.289 3.292 6.153 5.835 13.752 8.237 20.426l9.18 25.508 9.18 25.508 4.552 12.647c1.23 3.416 2.651 6.635 3.505 10.155l.163.708c.451 2.079.687 4.927.351 7.258-.168 1.169-.47 2.126-.893 2.786-.404.63-.887.952-1.5 1.012-.689.066-1.417-.331-2.276-1.324-.847-.98-1.596-2.272-2.387-3.539l-1.51-2.427a636.877 636.877 0 01-4.479-7.354 651.868 651.868 0 01-11.783-20.489c-7.081-12.838-13.84-26.105-20.284-39.748l-1.284-2.734c-.31-.664-.076-1.215.143-1.416a.394.394 0 01.07-.052.837.837 0 01.186.281c7.014 14.995 14.42 29.532 22.21 43.553v0a654.17 654.17 0 009.103 15.866l1.327 2.228a639.652 639.652 0 005.37 8.82c.205.328.518.918.96 1.698.422.745.935 1.612 1.477 2.378.522.735 1.155 1.499 1.844 1.92.357.217.827.404 1.36.34.564-.067 1.003-.39 1.316-.81.422-.566.608-1.288.69-1.961.086-.692.076-1.448.02-2.175-.111-1.454-.414-2.917-.615-3.767v-.001c-.752-3.173-2.042-6.228-3.122-9.078l-.449-1.21c-2.718-7.556-5.438-15.117-8.159-22.673-5.44-15.112-10.88-30.229-16.32-45.345-1.879-5.225-4.084-11.391-6.904-16.406-2.79-4.961-6.363-9.128-11.123-9.835l-.026-.019a.68.68 0 01-.144-.206c-.12-.24-.202-.6-.203-.985 0-.39.082-.682.165-.827z" fill="#D5B378"/></g><defs><clipPath id="clip0_1295_1747"><path fill="#fff" d="M0 0h1920v848H0z"/></clipPath></defs></svg>