<svg width="70" height="70" fill="none" xmlns="http://www.w3.org/2000/svg"><path d="M50 0C38.973 0 30 8.972 30 20a19.89 19.89 0 003.378 11.105L.367 64.116a1.249 1.249 0 101.767 1.767L7.5 60.517l9.116 9.116a1.246 1.246 0 001.768 0 1.249 1.249 0 000-1.767L9.268 58.75l4.482-4.483 6.616 6.616a1.247 1.247 0 001.768 0 1.249 1.249 0 000-1.767L15.518 52.5 20 48.017l9.116 9.116a1.247 1.247 0 001.768 0 1.249 1.249 0 000-1.767l-9.116-9.116L34.92 33.097C38.59 37.317 43.983 40 50 40c11.028 0 20-8.973 20-20C70 8.972 61.028 0 50 0zm0 37.5c-9.65 0-17.5-7.85-17.5-17.5S40.35 2.5 50 2.5 67.5 10.35 67.5 20 59.65 37.5 50 37.5z" fill="#fff"/></svg>