<svg width="70" height="70" fill="none" xmlns="http://www.w3.org/2000/svg"><path fill-rule="evenodd" clip-rule="evenodd" d="M0 35C0 15.7 15.701 0 35 0c19.298 0 35 15.7 35 35S54.298 70 35 70C15.701 70 0 54.3 0 35zm2.692 0c0 17.814 14.494 32.308 32.308 32.308S67.308 52.814 67.308 35 52.814 2.692 35 2.692 2.692 17.186 2.692 35zm28.113 8.92l20.689-23.275a1.345 1.345 0 011.902-.112c.556.493.606 1.345.112 1.9l-21.539 24.23a1.344 1.344 0 01-1.848.158L16.659 36.05a1.347 1.347 0 011.682-2.102l12.464 9.97z" fill="#fff"/></svg>