<svg width="70" height="70" fill="none" xmlns="http://www.w3.org/2000/svg"><path d="M10.184 51.897c-3.509 0-6.364 2.707-6.364 6.034 0 3.328 2.855 6.035 6.364 6.035s6.364-2.707 6.364-6.035c0-3.327-2.855-6.034-6.364-6.034zm0 9.655c-2.105 0-3.818-1.625-3.818-3.62 0-1.997 1.713-3.622 3.818-3.622s3.818 1.625 3.818 3.621-1.713 3.62-3.818 3.62z" fill="#fff"/><path d="M70 42.241c0-3.01-1.75-4.42-3.456-5.108 1.337-1.107 2.183-2.735 2.183-4.547 0-3.327-2.855-6.034-6.363-6.034H44.08l.928-4.116c1.238-5.49.424-11.726.147-13.506C44.495 4.714 40.565 0 36.29 0h-.304c-2.031 0-5.44 1.097-5.44 8.448 0 9.683-2.548 14.114-4.685 16.124-2.096 1.973-4.112 1.95-4.224 1.98h-1.272v-2.414H0V70h20.364v-2.414H56c3.509 0 6.364-2.707 6.364-6.034 0-1.405-.51-2.699-1.36-3.726 2.944-.527 5.178-2.986 5.178-5.93 0-1.404-.51-2.698-1.36-3.725C67.765 47.643 70 45.185 70 42.24zM2.545 67.586V26.552h15.273v41.034H2.545zm61.091-21.724h-14c-.702 0-1.272.54-1.272 1.207s.57 1.207 1.272 1.207h10.182c2.105 0 3.818 1.624 3.818 3.62 0 1.997-1.713 3.621-3.818 3.621H47.09c-.702 0-1.272.54-1.272 1.207 0 .668.57 1.207 1.273 1.207H56c2.105 0 3.818 1.625 3.818 3.62 0 1.997-1.713 3.621-3.818 3.621H20.364V28.966l1.233-.002c.123.023 3.08.06 5.959-2.587 3.673-3.375 5.535-9.407 5.535-17.929 0-2.253.375-6.034 2.894-6.034h.304c2.84 0 5.865 3.777 6.347 6.868.264 1.68 1.031 7.555-.118 12.648l-1.584 7.035h21.43c2.105 0 3.818 1.625 3.818 3.621s-1.713 3.62-3.818 3.62H49.636c-.702 0-1.272.54-1.272 1.208 0 .667.57 1.207 1.272 1.207h8.91c1.123 0 3.595.048 4.904.233 3.324.467 4.004 1.692 4.004 3.387 0 1.997-1.712 3.621-3.818 3.621z" fill="#fff"/></svg>