<svg width="70" height="70" fill="none" xmlns="http://www.w3.org/2000/svg"><path d="M54.842 6.19l.057-.038-1.544-.952c-.09-.056-.186-.103-.277-.159a35.783 35.783 0 00-1.544-.88c-.265-.142-.533-.276-.801-.411-.394-.2-.791-.39-1.193-.574-.237-.109-.472-.22-.71-.322a34.722 34.722 0 00-1.897-.756c-.132-.048-.266-.089-.4-.136A35.271 35.271 0 0042.357.786c-.062-.013-.122-.029-.183-.042a34.29 34.29 0 00-2.176-.379c-.161-.023-.325-.04-.486-.062a35.152 35.152 0 00-1.73-.18c-.196-.014-.39-.032-.587-.044A32.582 32.582 0 0035 0a35.373 35.373 0 00-2.983.135c-.736.062-1.468.142-2.191.25l-.217.03c-.728.113-1.447.256-2.159.413a34.837 34.837 0 00-2.65.69c-.202.063-.403.13-.603.196a33.81 33.81 0 00-1.703.604 34.31 34.31 0 00-2.673 1.148c-.205.1-.407.21-.61.314-.488.247-.969.505-1.443.775-.236.134-.472.267-.707.407-.592.356-1.175.727-1.744 1.115-.078.054-.16.098-.238.153l-.636.441.006.026C5.702 13.063 0 23.375 0 35c0 19.299 15.701 35 35 35s35-15.701 35-35c0-11.936-6.01-22.491-15.158-28.81zM17.604 7.37c.377-.238.758-.468 1.143-.69.214-.123.425-.25.642-.37.541-.296 1.09-.572 1.646-.836.24-.114.483-.22.727-.329.407-.18.816-.352 1.23-.517.227-.09.453-.185.684-.27.59-.22 1.188-.42 1.79-.603.22-.068.446-.128.668-.19a32.53 32.53 0 011.413-.366c.213-.05.425-.103.639-.148a32.87 32.87 0 011.97-.36c.15-.022.303-.037.454-.058a33.555 33.555 0 012.273-.227A35.488 35.488 0 0135 2.333c.617 0 1.233.021 1.847.056.176.01.35.027.525.04.442.033.884.07 1.324.12.195.022.389.05.582.075a30.931 30.931 0 011.833.293c.44.084.877.178 1.313.28.16.037.323.072.483.112.536.134 1.07.28 1.598.442.053.016.108.029.162.045.565.175 1.122.369 1.676.573.222.083.44.173.658.26.323.128.642.257.96.395a34.495 34.495 0 012.082.994c-4.459 1.787-7.229 3.977-10.328 8.01-.44.57-.663 1.27-.643 1.967-.268-.644-.66-1.134-1.182-1.477-1.08-.71-2.495-.66-4.32.155l-.333.037c-2.34.262-3.63.406-3.746 2.952-.06 1.288.631 2.56 1.76 3.239.285.171.585.296.89.372.033.11.085.224.16.338l.47.65.75-.125a8.124 8.124 0 011.547-.121 2.777 2.777 0 00.27 1.52 2.594 2.594 0 001.57 1.346c.657.203.715.4.794.672.375 1.29 1.226 2.243 2.337 2.613 1.061.355 2.241.126 3.24-.625.6-.453.94-.359 2.25.275.855.413 1.92.928 3.3 1.106.216.026.346.092.394.142.948.996 1.676 2.235 2.38 3.434 1.078 1.835 2.096 3.57 3.849 4.478 1.37.713-.165 4.737-.901 6.67-.148.39-.287.753-.403 1.077-1.778 1.37-2.864 2.925-3.915 4.43-.941 1.347-1.914 2.742-3.423 4.039-2.278 1.961-4.206 3.136-6.443 3.931a.612.612 0 01-.693-.19.579.579 0 01-.07-.681c2.302-4.12 4.964-9.932 1.517-12.784-3.378-2.796-4.643-6.855-3.224-10.338.603-1.48-.07-3.139-1.56-3.918-.127-.155-.218-.833-.278-1.282-.131-.986-.295-2.212-1.024-3.282-.303-.443-.847-.843-1.221-1.025-1.425-.698-2.792-.898-4.114-1.089-1.052-.154-2.048-.299-3.063-.687-3.865-1.483-6.616-7.754-8.625-12.334a165.79 165.79 0 00-.83-1.874l.422-.268zM35 67.667C16.988 67.667 2.333 53.012 2.333 35c0-10.59 5.07-20.015 12.905-25.988.206.464.418.942.637 1.441 2.295 5.233 5.15 11.744 9.926 13.576 1.256.482 2.429.653 3.562.816 1.197.174 2.327.339 3.426.878.089.043.272.185.319.244.416.61.53 1.456.638 2.272.15 1.127.32 2.405 1.462 3.008.37.197.695.594.528 1.003-1.812 4.447-.282 9.556 3.898 13.017 1.071.886 1.582 3.315-2.067 9.849a2.913 2.913 0 00.325 3.326 2.946 2.946 0 003.258.882c2.525-.898 4.673-2.203 7.183-4.362 1.732-1.489 2.79-3.005 3.815-4.471 1.033-1.48 2.011-2.88 3.613-4.059.233-.17.406-.402.498-.67.126-.37.292-.803.474-1.282 1.199-3.145 3.012-7.9-.203-9.571-1.157-.6-1.97-1.986-2.913-3.59-.735-1.252-1.57-2.67-2.703-3.863-.438-.46-1.056-.753-1.785-.848-1.003-.128-1.804-.517-2.581-.892-1.28-.62-2.875-1.39-4.668-.04-.27.204-.68.415-1.1.278-.374-.125-.678-.508-.834-1.05-.227-.782-.7-1.743-2.348-2.252a.277.277 0 01-.167-.153.472.472 0 01-.003-.379c.22-.6.13-1.207-.25-1.666-.416-.504-1.16-.763-2.218-.78a1.15 1.15 0 00-.306-.549l-.709-.647-.795.469c-.207.122-.44.107-.693-.047-.392-.234-.652-.701-.633-1.133a4.23 4.23 0 01.045-.506c.285-.084.968-.161 1.63-.235l.709-.08.171-.08c1.042-.484 1.876-.63 2.231-.4.144.094.605.546.553 2.421l-.03 1.036 1.025.152c1.331.2 2.318-.06 2.933-.767.636-.73.752-1.814.34-3.22a.744.744 0 01.134-.639c3.228-4.2 5.937-6.133 11.093-7.913C61.676 13.357 67.666 23.49 67.666 35c0 18.012-14.655 32.667-32.667 32.667z" fill="#fff"/></svg>