<svg width="23" height="23" fill="none" xmlns="http://www.w3.org/2000/svg"><path d="M18.502 17.773c-1.378 0-2.5 1.173-2.5 2.613S17.124 23 18.502 23s2.5-1.173 2.5-2.614c0-1.44-1.122-2.613-2.5-2.613zm0 4.181c-.827 0-1.5-.703-1.5-1.568 0-.864.673-1.568 1.5-1.568s1.5.704 1.5 1.568c0 .865-.673 1.569-1.5 1.569zM8.5 17.773c-1.378 0-2.5 1.173-2.5 2.613S7.122 23 8.5 23s2.5-1.173 2.5-2.614c0-1.44-1.122-2.613-2.5-2.613zm0 4.181c-.827 0-1.5-.703-1.5-1.568 0-.864.673-1.568 1.5-1.568s1.5.704 1.5 1.568c0 .865-.673 1.569-1.5 1.569zm12-6.272H8.96c-1.188 0-2.219-.884-2.452-2.102L3.99.42A.506.506 0 003.5 0h-3C.224 0 0 .234 0 .523c0 .288.224.522.5.522h2.59l2.437 12.741c.326 1.705 1.77 2.941 3.432 2.941h11.542c.276 0 .5-.234.5-.522a.512.512 0 00-.5-.523z" fill="#02324A"/><path d="M22.876 3.313a.492.492 0 00-.375-.177H4.5c-.276 0-.5.235-.5.523 0 .289.224.523.5.523h17.435l-.711 5.944c-.094.783-.734 1.374-1.49 1.374H6c-.276 0-.5.234-.5.523 0 .288.224.523.5.523h13.735c1.258 0 2.325-.984 2.48-2.29l.782-6.532a.537.537 0 00-.121-.41z" fill="#02324A"/></svg>