<svg width="21" height="21" fill="none" xmlns="http://www.w3.org/2000/svg"><path d="M17.77 0H3.064A3.067 3.067 0 000 3.064V17.77a3.067 3.067 0 003.064 3.063H9.19a.613.613 0 00.613-.612v-6.128a.613.613 0 00-.613-.613H7.353v-2.45H9.19a.613.613 0 00.613-.613V7.966a3.067 3.067 0 013.064-3.064h3.063v2.45h-2.45c-.676 0-1.226.55-1.226 1.226v1.839c0 .338.274.612.613.612h2.953l-.409 2.451h-2.544a.613.613 0 00-.613.613v6.128c0 .338.274.612.613.612h4.902a3.067 3.067 0 003.063-3.063V3.064A3.067 3.067 0 0017.77 0zm1.838 17.77a1.84 1.84 0 01-1.838 1.838h-4.29v-4.902h2.451c.3 0 .556-.217.605-.512l.612-3.677a.613.613 0 00-.604-.713H13.48V8.578h3.064a.613.613 0 00.613-.612V4.289a.613.613 0 00-.613-.613h-3.676a4.294 4.294 0 00-4.29 4.29v1.838H6.74a.613.613 0 00-.613.613v3.676c0 .339.275.613.613.613h1.838v4.902H3.064a1.84 1.84 0 01-1.839-1.838V3.064a1.84 1.84 0 011.839-1.839H17.77a1.84 1.84 0 011.838 1.839V17.77z" fill="#DDD"/></svg>