<svg width="19" height="18" fill="none" xmlns="http://www.w3.org/2000/svg"><path fill-rule="evenodd" clip-rule="evenodd" d="M16.748 2.629c-1.706-2.38-5.13-1.982-6.329.738-.369.837-1.47.837-1.838 0C7.38.647 3.958.248 2.25 2.629l-.303.423C.49 5.087.701 7.988 2.434 9.752l6.817 6.933c.124.127.192.195.245.239l.004.003.004-.003c.053-.044.12-.113.245-.24l6.817-6.932c1.733-1.764 1.944-4.665.486-6.7l-.304-.423zm-7.213.28c1.513-3.432 5.835-3.936 7.988-.93l.303.422c1.768 2.468 1.513 5.986-.59 8.124l-6.829 6.947c-.106.108-.209.213-.304.293a.955.955 0 01-.414.215.907.907 0 01-.378 0 .955.955 0 01-.414-.215c-.095-.08-.198-.185-.304-.293l-6.83-6.947C-.339 8.387-.594 4.87 1.173 2.401l.304-.423c2.153-3.005 6.475-2.5 7.988.932.006.013.011.016.013.018a.04.04 0 00.022.005.04.04 0 00.022-.005c.002-.002.007-.005.013-.018z" fill="#02324A"/></svg>