<svg width="22" height="21" fill="none" xmlns="http://www.w3.org/2000/svg"><path fill-rule="evenodd" clip-rule="evenodd" d="M18.604 0H3.898A3.067 3.067 0 00.834 3.064V17.77a3.067 3.067 0 003.064 3.063h14.706a3.067 3.067 0 003.063-3.063V3.064A3.067 3.067 0 0018.604 0zm1.838 17.77a1.84 1.84 0 01-1.838 1.838H3.898a1.84 1.84 0 01-1.839-1.838V3.064a1.84 1.84 0 011.839-1.839h14.706a1.84 1.84 0 011.838 1.839V17.77zM11.25 4.762a5.661 5.661 0 00-5.655 5.654 5.661 5.661 0 005.655 5.655 5.661 5.661 0 005.654-5.655 5.661 5.661 0 00-5.655-5.654zm0 10.053a4.403 4.403 0 01-4.399-4.399 4.403 4.403 0 014.399-4.398 4.403 4.403 0 014.398 4.398 4.403 4.403 0 01-4.398 4.399zm4.462-10.648c0-.985.8-1.786 1.786-1.786a1.787 1.787 0 010 3.571 1.788 1.788 0 01-1.786-1.785zm1.19 0a.596.596 0 101.192-.001.596.596 0 00-1.192 0z" fill="#DDD"/></svg>