<svg width="20" height="16" fill="none" xmlns="http://www.w3.org/2000/svg"><path fill-rule="evenodd" clip-rule="evenodd" d="M14.749 0H5.25C4.178 0 3.314 0 2.634.091 1.928.186 1.334.39.86.861.39 1.334.186 1.928.091 2.634 0 3.314 0 4.178 0 5.25v4.792c0 1.073 0 1.937.091 2.617.095.706.298 1.3.77 1.773.473.472 1.067.675 1.773.77.68.091 1.544.091 2.617.091h9.498c1.072 0 1.937 0 2.617-.091.706-.095 1.3-.298 1.773-.77.472-.472.675-1.067.77-1.773.091-.68.091-1.544.091-2.617V5.251c0-1.073 0-1.937-.091-2.617-.095-.706-.298-1.3-.77-1.773-.473-.472-1.067-.675-1.773-.77C16.686 0 15.822 0 14.75 0zM1.693 1.693c.217-.217.522-.358 1.098-.436.592-.08 1.377-.08 2.503-.08h9.412c1.126 0 1.91 0 2.503.08.576.078.88.22 1.098.436.04.04.077.083.111.13l-7.63 3.814a1.765 1.765 0 01-1.578 0L1.58 1.823c.035-.047.072-.09.112-.13zm-.456 1.273c-.06.57-.06 1.31-.06 2.328V10c0 1.126 0 1.911.08 2.503.078.576.22.88.436 1.098.217.217.522.358 1.098.436.592.08 1.377.08 2.503.08h9.412c1.126 0 1.91 0 2.503-.08.576-.078.88-.22 1.098-.436.217-.217.358-.522.436-1.098.08-.592.08-1.377.08-2.503V5.294c0-1.019 0-1.758-.06-2.329L11.314 6.69a2.941 2.941 0 01-2.63 0L1.237 2.966z" fill="#44D0A3"/></svg>