<svg width="17" height="20" fill="none" xmlns="http://www.w3.org/2000/svg"><path d="M1.214 0h10.317L17 5.608V18.75c0 .69-.544 1.25-1.214 1.25H1.214C.544 20 0 19.44 0 18.75V1.25C0 .56.544 0 1.214 0z" fill="#E2574C"/><path d="M16.982 5.625H12.75c-.67 0-1.214-.56-1.214-1.25V.012l5.446 5.613z" fill="#B53629"/><path d="M12.443 9.477c.204 0 .303-.183.303-.36 0-.183-.104-.36-.303-.36h-1.158c-.227 0-.353.194-.353.407v2.93c0 .262.144.407.34.407.194 0 .34-.145.34-.407v-.804h.7c.217 0 .326-.183.326-.365 0-.178-.109-.355-.326-.355h-.7V9.477h.831zm-3.915-.72H7.68c-.23 0-.393.163-.393.404v2.936c0 .3.234.393.403.393h.89c1.052 0 1.747-.713 1.747-1.814 0-1.163-.655-1.918-1.8-1.918zm.04 3.01h-.516V9.48h.465c.705 0 1.012.487 1.012 1.16 0 .628-.301 1.125-.96 1.125zm-3.105-3.01h-.84c-.237 0-.37.162-.37.407v2.93c0 .262.153.407.357.407s.355-.145.355-.407v-.855h.527c.65 0 1.186-.474 1.186-1.236 0-.745-.518-1.245-1.215-1.245zm-.014 1.794h-.484V9.446h.484c.3 0 .49.24.49.553-.001.312-.19.552-.49.552z" fill="#fff"/></svg>