<svg width="20" height="20" fill="none" xmlns="http://www.w3.org/2000/svg"><path fill-rule="evenodd" clip-rule="evenodd" d="M3.602 1.329a.488.488 0 00-.69 0 5.894 5.894 0 00-.548 7.703L3.765 10.9A26.676 26.676 0 009.1 16.235l1.868 1.4a5.893 5.893 0 007.703-.547.487.487 0 000-.69l-3.14-3.14a.593.593 0 00-.837 0l-1.211 1.21a1.225 1.225 0 01-1.414.23 15.132 15.132 0 01-6.767-6.767 1.225 1.225 0 01.23-1.414l1.21-1.21a.593.593 0 000-.839l-3.14-3.14zM2.073.49a1.674 1.674 0 012.368 0l3.14 3.14a1.78 1.78 0 010 2.515L6.37 7.355a.04.04 0 00-.008.046 13.946 13.946 0 006.237 6.237.04.04 0 00.046-.008l1.21-1.21a1.778 1.778 0 012.515 0l3.14 3.14a1.674 1.674 0 010 2.367 7.079 7.079 0 01-9.253.657l-1.868-1.4a27.861 27.861 0 01-5.572-5.573L1.416 9.743A7.08 7.08 0 012.073.49z" fill="#44D0A3"/></svg>