<svg width="30" height="30" fill="none" xmlns="http://www.w3.org/2000/svg"><path fill-rule="evenodd" clip-rule="evenodd" d="M12.188 1.875c-5.696 0-10.313 4.617-10.313 10.313 0 5.695 4.617 10.312 10.313 10.312 5.695 0 10.312-4.617 10.312-10.313 0-5.695-4.617-10.312-10.313-10.312zM0 12.188C0 5.457 5.457 0 12.188 0c6.73 0 12.187 5.457 12.187 12.188 0 6.73-5.456 12.187-12.188 12.187C5.457 24.375 0 18.919 0 12.187zm22.775 10.587a.937.937 0 011.325 0l5.625 5.625a.937.937 0 01-1.325 1.325L22.775 24.1a.937.937 0 010-1.325z" fill="#BBB"/></svg>