<svg width="22" height="21" fill="none" xmlns="http://www.w3.org/2000/svg"><path fill-rule="evenodd" clip-rule="evenodd" d="M.666 10.417C.666 4.673 5.339 0 11.083 0c5.743 0 10.416 4.673 10.416 10.417 0 5.743-4.672 10.416-10.416 10.416-1.896 0-3.741-.51-5.356-1.48l-4.152 1.343a.612.612 0 01-.771-.772l1.342-4.152a10.384 10.384 0 01-1.48-5.355zm5.473 7.75a9.161 9.161 0 004.944 1.44c5.068 0 9.19-4.122 9.19-9.19s-4.122-9.192-9.19-9.192-9.191 4.124-9.191 9.192a9.16 9.16 0 001.44 4.944.613.613 0 01.068.518l-1.062 3.282L5.62 18.1a.612.612 0 01.519.066zm8.704-7.86c.355 0 .69.138.941.39l1.992 1.991a1.33 1.33 0 01-.001 1.884l-.497.497c-.887.888-2.683.86-3.927.62a9.615 9.615 0 01-4.927-2.612A9.617 9.617 0 015.812 8.15c-.33-1.71-.092-3.215.62-3.927l.499-.498a1.33 1.33 0 011.883 0l1.99 1.992c.52.519.52 1.364.002 1.882l-.499.499a.78.78 0 000 1.105l1.992 1.992a.78.78 0 001.104 0l.499-.498c.25-.25.584-.39.94-.39zm-1.254 4.151c1.39.268 2.462.064 2.802-.276.197-.2.32-.32.395-.395.123-.12.126-.123.126-.157v-.012c0-.043-.076-.085-2.015-2.035a.077.077 0 00-.108 0l-.5.498a2.034 2.034 0 01-2.877 0L9.42 10.09a2.034 2.034 0 010-2.88l.498-.497c.03-.03.03-.08 0-.11L7.926 4.61a.076.076 0 00-.109 0l-.497.498c-.34.34-.545 1.412-.276 2.803.18.93.713 2.724 2.267 4.278a8.366 8.366 0 004.278 2.268z" fill="#DDD"/></svg>