<svg width="231" height="57" viewBox="0 0 231 57" fill="none" xmlns="http://www.w3.org/2000/svg">
<path fill-rule="evenodd" clip-rule="evenodd" d="M10.9383 31.6448C10.9383 31.6448 10.9846 30.8337 10.2894 30.0458C9.571 29.2347 7.18405 29.2347 6.16438 28.9335C5.14471 28.6322 5.0752 27.8674 5.0752 27.8674V24.7621C5.0752 24.7621 5.12154 25.5037 6.16438 25.8281C7.18405 26.1294 9.571 26.1294 10.2894 26.9405C10.9846 27.7284 10.9383 28.5395 10.9383 28.5395V31.6448Z" fill="#D3AF4A"/>
<path fill-rule="evenodd" clip-rule="evenodd" d="M10.9383 39.1069C10.9383 39.1069 10.9846 38.2958 10.2894 37.5079C9.571 36.6968 7.18405 36.6968 6.16438 36.3955C5.14471 36.0942 5.0752 35.3295 5.0752 35.3295V32.2241C5.0752 32.2241 5.12154 32.9657 6.16438 33.2901C7.18405 33.5914 9.571 33.5914 10.2894 34.4025C10.9846 35.1904 10.9383 36.0015 10.9383 36.0015V39.1069Z" fill="#D3AF4A"/>
<path fill-rule="evenodd" clip-rule="evenodd" d="M7.97182 3.51118C7.83278 3.60388 7.67056 3.88197 7.53151 4.06736C7.39247 4.25275 7.20707 4.3918 7.32294 4.62354C7.46198 4.90163 7.8096 5.68956 7.97182 5.89813C8.13404 5.71273 8.48165 4.92481 8.6207 4.62354C8.73657 4.36863 8.528 4.20641 8.38896 4.02101C8.27308 3.88197 8.11087 3.60388 7.97182 3.51118ZM10.5673 6.8251L11.5175 4.87846L10.5442 5.1102L10.5673 6.8251ZM5.469 6.80192V5.08703L4.49568 4.87846L5.469 6.80192ZM8.01817 1.07788C8.36578 1.93533 8.89879 3.07087 9.64036 3.90514C10.1965 4.53085 9.94163 4.36863 9.52449 5.2956C9.31593 5.75908 9.01466 6.40796 9.06101 6.96414C9.75624 6.89462 9.91846 5.52734 10.0112 4.92481C10.0807 4.55402 10.127 4.46132 10.4746 4.34545C11.726 3.95149 11.6797 4.2991 12.8848 3.09404C13.047 2.93182 13.0933 2.88547 13.2092 2.97817C13.3483 3.20991 12.8152 3.99784 12.6762 4.2991C12.0041 5.68956 11.2162 7.01049 10.9845 8.56317H5.16774C4.93599 7.05684 4.1249 5.66639 3.47602 4.32228C3.38332 4.16006 2.52587 2.81595 3.05888 2.955L4.0322 3.81244C4.88965 4.46132 5.93249 3.95149 6.09471 4.85529C6.21058 5.48099 6.32645 6.87145 7.04485 6.94097C7.0912 6.38479 6.78994 5.75908 6.58137 5.2956C6.4655 5.04068 6.34962 4.83211 6.23375 4.62354C6.00201 4.25275 6.23375 4.11371 6.41914 3.90514C7.11437 3.11722 7.64738 1.84263 8.01817 1.07788Z" fill="#D3AF4A"/>
<path d="M51.2844 1.72684C51.2844 1.84271 51.1686 2.09762 50.9368 2.49159C50.7051 2.88555 50.3807 3.48808 50.0099 4.276C49.8245 4.66997 49.6391 5.08711 49.4305 5.48107C49.2219 5.87503 49.0134 6.31534 48.828 6.7093C48.6194 7.12644 48.434 7.5204 48.2718 7.89119C48.1096 8.26198 47.9474 8.63277 47.8083 8.95721C47.6461 9.35117 47.4839 9.79148 47.2753 10.3013C47.0667 10.8111 46.8813 11.321 46.7191 11.8308C46.5337 12.3406 46.3947 12.8041 46.2788 13.2213C46.1629 13.6384 46.0934 13.9397 46.0934 14.1482C46.0934 14.3336 46.1398 14.4495 46.2325 14.4959C46.3252 14.519 46.441 14.5422 46.5337 14.5422C46.6496 14.5422 46.7886 14.519 46.9277 14.4495C47.0667 14.38 47.2058 14.3336 47.3217 14.2641C47.4607 14.1714 47.5997 14.0787 47.7388 13.986L47.9242 14.4263C47.762 14.5654 47.5302 14.7508 47.2753 14.9593C46.9972 15.1679 46.7191 15.3997 46.3947 15.6082C46.0702 15.8168 45.7458 16.0022 45.3982 16.1412C45.0506 16.2803 44.7261 16.373 44.448 16.373C44.2858 16.373 44.1468 16.3498 44.0309 16.2803C43.915 16.2107 43.8687 16.0949 43.8687 15.8863C43.8687 15.7473 43.915 15.4923 44.0309 15.0752C44.1468 14.6812 44.3322 14.1251 44.5871 13.4298C44.7957 12.8273 45.0506 12.1784 45.3287 11.4832C45.6068 10.788 45.8848 10.1159 46.1861 9.44387C46.4642 8.77181 46.7423 8.14611 46.974 7.56675C47.229 6.98739 47.4143 6.50073 47.5997 6.10677L47.4607 6.06042C47.1363 6.38486 46.835 6.73248 46.5337 7.05692C46.2325 7.40453 45.8617 7.79849 45.4445 8.26198C45.0274 8.72546 44.4944 9.28165 43.8687 9.93052C43.243 10.5794 42.4551 11.3673 41.5049 12.3175C41.0878 12.7346 40.717 13.1054 40.3925 13.4298C40.0681 13.7543 39.7437 14.0787 39.4192 14.38C39.0948 14.6812 38.7935 14.9593 38.4691 15.2374C38.1446 15.5155 37.797 15.7936 37.4031 16.0717C37.264 16.1876 37.0555 16.3034 36.7774 16.4193C36.4993 16.5352 36.2444 16.6047 35.9663 16.6047C35.7577 16.6047 35.5955 16.5352 35.526 16.4193C35.4333 16.3034 35.4101 16.1181 35.4101 15.8631C35.4101 15.6546 35.4796 15.3301 35.6187 14.8898C35.7577 14.4495 35.9199 13.9397 36.1285 13.4067C36.337 12.8505 36.5456 12.2943 36.8005 11.7149C37.0323 11.1356 37.264 10.6026 37.4494 10.1623C38.0983 8.65594 38.7008 7.24231 39.257 5.96773C39.8132 4.66997 40.4389 3.37221 41.0878 2.07445H40.9951C40.7865 2.28302 40.4389 2.67698 39.9522 3.23316C39.4656 3.81252 38.863 4.4614 38.2142 5.24932C37.5421 6.01408 36.8237 6.84835 36.0358 7.72897C35.2479 8.60959 34.4831 9.46704 33.7184 10.2781C33.3012 10.7185 32.8609 11.2051 32.3743 11.7149C31.8876 12.2248 31.4009 12.7346 30.8679 13.2676C30.3581 13.7775 29.8251 14.2873 29.2921 14.7739C28.7591 15.2606 28.2261 15.7009 27.7394 16.0717C27.2296 16.4425 26.7429 16.7438 26.2794 16.9755C25.8159 17.2072 25.3988 17.3231 25.028 17.3231C24.5645 17.3231 24.3096 17.0914 24.3096 16.6279C24.3096 16.2107 24.4487 15.7936 24.7499 15.3997C25.0512 14.9825 25.3988 14.6349 25.8159 14.38H26.0709C26.0477 14.4495 26.0477 14.519 26.0477 14.5654C26.0477 14.6117 26.0477 14.6812 26.0477 14.7276C26.0477 14.7971 26.0477 14.8666 26.0709 14.9593C26.094 15.052 26.1172 15.1216 26.1635 15.2143C26.2099 15.307 26.3026 15.3765 26.3953 15.4228C26.488 15.4692 26.627 15.5155 26.7893 15.5155C26.9051 15.5155 27.021 15.4923 27.1832 15.446C27.3454 15.3997 27.5308 15.307 27.7394 15.1679C27.9712 15.0289 28.2261 14.8435 28.5273 14.6117C28.8286 14.38 29.1762 14.0555 29.5702 13.6848C30.5898 12.6883 31.54 11.7381 32.4669 10.8111C33.3939 9.88418 34.2745 8.93403 35.132 8.00706C35.9894 7.05692 36.8237 6.10677 37.658 5.13345C38.4923 4.16013 39.3034 3.14047 40.1376 2.07445C39.79 2.00493 39.4656 1.95858 39.1411 1.9354C38.8167 1.91223 38.3996 1.88906 37.8665 1.88906C37.4031 1.88906 36.7542 1.91223 35.9894 1.9354C35.2015 1.95858 34.3209 2.09762 33.3476 2.30619C32.3742 2.51476 31.2851 2.8392 30.1264 3.27951C28.9676 3.71982 27.7857 4.34553 26.5575 5.15663C26.094 5.48107 25.6769 5.80551 25.2829 6.12995C24.889 6.47756 24.5645 6.802 24.2864 7.12644C24.0083 7.45088 23.7998 7.77532 23.6376 8.07658C23.4753 8.37785 23.4058 8.65594 23.4058 8.91086C23.4058 9.09625 23.4522 9.21212 23.568 9.30482C23.6839 9.39752 23.823 9.42069 23.9852 9.42069C24.1706 9.42069 24.3328 9.39752 24.495 9.35117C24.6572 9.30482 24.8194 9.2353 25.028 9.1426V9.42069C24.7499 9.76831 24.4023 10.0232 23.9388 10.1854C23.4985 10.3477 23.0814 10.4404 22.6874 10.4404C22.0385 10.4404 21.6909 10.1623 21.6909 9.60608C21.6909 9.1426 21.8763 8.67912 22.2239 8.16928C22.5947 7.65945 23.035 7.17279 23.568 6.7093C24.101 6.24582 24.6804 5.78233 25.2829 5.38837C25.8855 4.97123 26.4416 4.62362 26.9283 4.34553C28.2029 3.62713 29.4543 3.04777 30.7289 2.63063C31.9803 2.2135 33.1622 1.88906 34.2514 1.68049C35.3406 1.47192 36.2907 1.33287 37.125 1.26335C37.9593 1.217 38.585 1.17065 39.0021 1.17065C39.6741 1.17065 40.2535 1.19383 40.7402 1.217C41.2268 1.24018 41.644 1.28653 41.9916 1.3097C42.3855 1.35605 42.7332 1.4024 43.0344 1.42557C42.9185 1.58779 42.7795 1.86588 42.5709 2.25984C42.3624 2.65381 42.1538 3.07094 41.922 3.5576C41.6903 4.04426 41.4354 4.57727 41.1805 5.13345C40.9256 5.68964 40.6938 6.22264 40.4621 6.75565C40.0449 7.7058 39.6742 8.58642 39.3265 9.42069C38.9789 10.255 38.6777 10.9965 38.4227 11.6454C38.1678 12.2943 37.9824 12.8737 37.8202 13.3371C37.6812 13.8006 37.6116 14.1482 37.6116 14.3568C37.6116 14.4263 37.6116 14.4727 37.6348 14.5422C37.658 14.5886 37.7043 14.6117 37.8202 14.6117C37.9593 14.6117 38.2837 14.4032 38.8167 13.986C39.3497 13.5689 40.0449 12.92 40.9487 12.0394C41.111 11.8772 41.3659 11.5991 41.7598 11.2051C42.1306 10.8111 42.5941 10.3477 43.1039 9.81465C43.6138 9.28165 44.1931 8.67911 44.7957 8.00706C45.3982 7.35818 46.0007 6.66295 46.6264 5.96773C47.2058 5.31885 47.6693 4.71632 47.9705 4.20648C48.295 3.69665 48.5731 3.25634 48.8512 2.90872C49.1061 2.56111 49.3146 2.32937 49.5 2.19032C49.6622 2.05128 49.8708 1.95858 50.1257 1.86588C50.288 1.81953 50.4502 1.77318 50.6587 1.77318C50.8673 1.75001 50.9832 1.75001 51.0527 1.75001C51.2149 1.54144 51.2844 1.61096 51.2844 1.72684Z" fill="#D3AF4A"/>
<path d="M76.6605 1.26333C76.6605 1.4719 76.4751 1.79634 76.1043 2.1903C75.7335 2.58426 75.0847 3.09409 74.1345 3.74297C73.3002 4.29916 72.605 4.76264 72.0257 5.13343C71.4463 5.50422 70.9133 5.82866 70.473 6.10675C70.0095 6.38484 69.5924 6.66293 69.1984 6.89467C68.8044 7.12642 68.3873 7.42768 67.9702 7.72895C68.1324 8.05339 68.341 8.4937 68.5495 9.1194C68.7581 9.72193 68.9667 10.3708 69.1984 11.066C69.3606 11.5527 69.4997 12.0625 69.6619 12.5492C69.8241 13.0359 69.9863 13.4762 70.1717 13.8701C70.3571 14.2641 70.5425 14.5654 70.7742 14.7971C70.9828 15.0288 71.2377 15.1679 71.5158 15.1679C71.7707 15.1679 72.0257 15.1215 72.2806 15.0057C72.5587 14.913 72.7904 14.7507 72.999 14.5885L73.1844 14.8203C73.138 14.8898 73.0222 15.0057 72.8136 15.1911C72.605 15.3765 72.3733 15.5618 72.1184 15.7472C71.8403 15.9326 71.5622 16.118 71.2609 16.2571C70.9597 16.4193 70.6816 16.4888 70.4035 16.4888C70.0559 16.4888 69.7778 16.3961 69.5692 16.1876C69.3375 15.979 69.1521 15.7009 68.9667 15.3533C68.7813 15.0057 68.619 14.5885 68.4568 14.1019C68.2946 13.6384 68.1324 13.1054 67.9238 12.5724C67.8311 12.3175 67.7153 11.993 67.5994 11.5759C67.4835 11.1587 67.3445 10.7416 67.2054 10.3013C67.0664 9.86098 66.9273 9.46702 66.7651 9.1194C66.6029 8.77179 66.4638 8.51687 66.3248 8.37783C66.0004 9.1194 65.6991 9.8378 65.3747 10.533C65.1197 11.1356 64.8416 11.7613 64.5172 12.4333C64.2159 13.1054 63.9378 13.6847 63.7061 14.1714C63.5902 14.4495 63.4744 14.6812 63.3817 14.8666C63.289 15.052 63.1963 15.2142 63.1036 15.3301C63.0109 15.4692 62.9182 15.5618 62.8487 15.6545C62.756 15.7472 62.6633 15.8168 62.5706 15.8863C62.362 16.0253 62.1303 16.1412 61.8522 16.2107C61.5741 16.3034 61.3655 16.3266 61.2033 16.3266C61.0874 16.3266 60.9947 16.3034 60.9715 16.2571C60.9484 16.2107 60.9252 16.1644 60.9252 16.0949C60.9252 16.0253 60.9715 15.8863 61.0874 15.6777C61.2033 15.4692 61.3655 15.1447 61.5972 14.7044C62.0144 13.9396 62.362 13.2444 62.6633 12.6651C62.9645 12.0625 63.2194 11.5064 63.4744 10.9502C63.7293 10.394 63.9842 9.8378 64.2159 9.28162C64.4709 8.72544 64.7489 8.07656 65.0734 7.33499C65.3283 6.7788 65.56 6.19945 65.8381 5.57374C66.0931 4.97121 66.3248 4.41503 66.5565 3.90519C66.7651 3.39536 66.9505 2.95505 67.0896 2.56109C67.2286 2.1903 67.3213 1.93538 67.3676 1.81951C67.1823 1.79634 66.9968 1.79634 66.8346 1.77316C66.6724 1.74999 66.5102 1.74999 66.348 1.72681C66.1858 1.70364 66.0235 1.70364 65.8845 1.70364C65.3051 1.70364 64.6331 1.72681 63.8452 1.77316C63.0572 1.81951 62.1998 1.93538 61.2496 2.14395C60.2995 2.35252 59.2566 2.67696 58.1443 3.11727C57.0319 3.55758 55.8732 4.16011 54.6681 4.94804C54.2047 5.27248 53.7644 5.59691 53.3704 5.92135C52.9764 6.26897 52.652 6.59341 52.3739 6.91785C52.0958 7.24229 51.8872 7.56673 51.7482 7.86799C51.6091 8.16926 51.5396 8.44735 51.5396 8.70227C51.5396 8.81814 51.586 8.93401 51.6555 9.04988C51.725 9.16575 51.8872 9.23527 52.1422 9.23527C52.3507 9.23527 52.5129 9.2121 52.652 9.16575C52.791 9.1194 52.9764 9.04988 53.185 8.95718V9.23527C52.8374 9.58289 52.4202 9.83781 51.9799 10C51.5396 10.1622 51.1457 10.2549 50.8444 10.2549C50.1955 10.2549 49.8479 9.97685 49.8479 9.42067C49.8479 9.00353 50.0333 8.56322 50.3809 8.05339C50.7517 7.54355 51.192 7.05689 51.725 6.57023C52.258 6.08357 52.8374 5.64326 53.4399 5.20295C54.0424 4.76264 54.5986 4.41503 55.0853 4.13694C56.3599 3.41853 57.6113 2.86235 58.7932 2.42204C59.9751 2.0049 61.1106 1.68046 62.1998 1.4719C63.289 1.26333 64.3086 1.12428 65.282 1.05476C66.2553 0.985237 67.1591 0.962063 67.9702 0.962063C68.2483 0.962063 68.5495 0.985237 68.874 1.03159C69.1984 1.07793 69.4301 1.10111 69.6155 1.12428L66.4638 8.05339C67.02 7.65942 67.5299 7.33498 67.9702 7.03372C68.4105 6.73245 68.8508 6.45436 69.2679 6.17627C69.6851 5.89818 70.1254 5.62009 70.5425 5.31882C70.9596 5.01756 71.4695 4.69312 72.0257 4.29916C72.2806 4.13694 72.5123 3.95154 72.7904 3.74297C73.0453 3.53441 73.2771 3.34901 73.5088 3.14044C73.7174 2.93188 73.9028 2.74648 74.0418 2.53791C74.1809 2.35252 74.2504 2.16712 74.2504 2.0049C74.2504 1.84268 74.1809 1.74999 74.0418 1.70364C73.9028 1.65729 73.7869 1.61094 73.6942 1.61094V1.4719C74.1809 1.24015 74.6675 1.07793 75.1078 0.985238C75.5713 0.89254 75.8958 0.846191 76.1043 0.846191C76.2202 0.846191 76.3593 0.869365 76.4751 0.915714C76.591 0.962063 76.6605 1.07793 76.6605 1.26333Z" fill="#D3AF4A"/>
<path d="M49.3844 20.9383C49.3844 21.17 49.2917 21.3786 49.1295 21.564C48.9441 21.7494 48.7587 21.8884 48.5501 22.0043C48.2952 22.1434 48.0403 22.2592 47.7158 22.3288L47.5999 22.2361C47.6231 22.1897 47.6231 22.097 47.6231 22.0043C47.6231 21.7262 47.4841 21.4481 47.1828 21.17C46.8815 20.9151 46.4644 20.6834 45.9082 20.4748C45.352 20.2662 44.6568 20.104 43.8225 19.9882C42.9883 19.8723 42.015 19.8028 40.9258 19.8028C40.8331 19.9186 40.7404 20.0577 40.6709 20.1967C40.6013 20.3358 40.5086 20.498 40.4391 20.6834C40.3464 20.8688 40.2537 21.0773 40.161 21.3323C40.0451 21.564 39.9293 21.8421 39.7902 22.1665C39.6512 22.491 39.4426 22.9776 39.1645 23.6497C38.8864 24.3217 38.562 25.1097 38.168 25.9903C37.7973 26.8941 37.3801 27.8442 36.9398 28.8871C36.4995 29.9299 36.036 30.9496 35.5957 31.9924C35.3871 32.4559 35.1554 32.873 34.8773 33.267C34.6224 33.661 34.3443 33.9391 34.0662 34.1476C33.9735 34.2171 33.8576 34.2867 33.6954 34.3562C33.5332 34.4257 33.3941 34.4952 33.2319 34.5416C33.0697 34.6111 32.9307 34.6575 32.7916 34.6806C32.6526 34.7038 32.5367 34.727 32.4672 34.727L32.3281 34.5648C32.3513 34.5184 32.4208 34.4025 32.4903 34.2635C32.583 34.1013 32.6757 33.9391 32.7916 33.7305C32.9075 33.5219 33.0233 33.3134 33.1624 33.0816C33.3014 32.8499 33.4173 32.6181 33.5332 32.4327C33.8113 31.9461 34.1125 31.3667 34.4138 30.6947C34.7382 30.0458 35.0627 29.3274 35.3871 28.5858C35.7347 27.8442 36.0824 27.0563 36.43 26.2452C36.8008 25.4341 37.1484 24.623 37.496 23.8351C37.7972 23.163 38.0753 22.6068 38.2839 22.1665C38.5157 21.7262 38.701 21.3554 38.8864 21.0542C39.0718 20.7529 39.2109 20.5212 39.3499 20.3358C39.489 20.1504 39.628 19.965 39.7671 19.8028H39.1877C38.4461 19.8028 37.5887 19.8259 36.6385 19.8955C35.6884 19.965 34.6455 20.104 33.5564 20.3126C32.4672 20.5212 31.3085 20.8456 30.1266 21.2859C28.9215 21.703 27.7396 22.2824 26.5114 23.024C25.5381 23.6033 24.7733 24.2522 24.194 24.9243C23.6378 25.5963 23.3597 26.222 23.3597 26.7782C23.3597 27.1258 23.5451 27.288 23.939 27.288C24.1013 27.288 24.2635 27.2649 24.4257 27.2185C24.5879 27.1722 24.7733 27.1027 24.9819 26.9868V27.2649C24.6574 27.6125 24.2635 27.8674 23.8 28.0296C23.3365 28.1918 22.9425 28.2845 22.6413 28.2845C22.2705 28.2845 22.0156 28.1918 21.8765 28.0296C21.7375 27.8674 21.668 27.6357 21.668 27.3344C21.668 26.9173 21.8534 26.4769 22.201 25.9903C22.5718 25.5036 23.0121 25.017 23.5219 24.5535C24.0549 24.09 24.6111 23.6265 25.2368 23.2325C25.8393 22.8154 26.4187 22.4678 26.9053 22.2129C28.1336 21.564 29.3618 21.031 30.6364 20.637C31.8878 20.2199 33.116 19.8955 34.2748 19.6637C35.4335 19.432 36.5227 19.2698 37.5191 19.1771C38.5156 19.0844 39.3731 19.038 40.0451 19.038H40.3464L41.482 18.2037H41.9454C41.8296 18.366 41.7369 18.4818 41.6442 18.6209L41.3197 19.038C42.2931 19.0612 43.2432 19.1075 44.1933 19.2002C45.1435 19.2929 46.0009 19.4088 46.7657 19.571C47.5304 19.7332 48.1561 19.9418 48.6196 20.1735C49.1526 20.3589 49.3844 20.637 49.3844 20.9383ZM45.2362 21.8653C45.074 22.1665 44.8886 22.5142 44.68 22.9313C44.4714 23.3484 44.2397 23.7656 44.0079 24.229C43.7762 24.6694 43.5676 25.1328 43.3591 25.5732C43.1505 26.0135 42.9883 26.4306 42.8492 26.7782C42.6407 27.3112 42.4321 27.8442 42.2235 28.4004C42.015 28.9566 41.7369 29.6286 41.4124 30.4166C41.2966 30.7178 41.1575 31.0654 40.9953 31.4594C40.8331 31.8534 40.7635 32.1778 40.7635 32.4559C40.7635 32.6413 40.8794 32.734 41.088 32.734C41.227 32.734 41.3661 32.7108 41.5283 32.6413C41.6905 32.5718 41.8296 32.5254 41.9454 32.4559C42.1077 32.3632 42.2467 32.2705 42.3626 32.1778L42.548 32.6181C42.3857 32.7572 42.154 32.9194 41.8991 33.128C41.621 33.3365 41.3429 33.5219 41.0416 33.7073C40.7404 33.8927 40.4159 34.0549 40.0915 34.194C39.7671 34.333 39.4658 34.4025 39.1645 34.4025C38.8633 34.4025 38.7242 34.2172 38.7242 33.8232C38.7242 33.7073 38.7474 33.5219 38.7937 33.2902C38.8401 33.0584 38.9096 32.8035 39.0023 32.5486C39.095 32.2705 39.2109 31.9924 39.3268 31.6912C39.4426 31.3899 39.5817 31.0886 39.6975 30.7874C39.7671 30.602 39.9061 30.2775 40.0683 29.8604C40.2537 29.4433 40.4391 28.9566 40.6709 28.4004C40.9026 27.8442 41.1343 27.2649 41.4124 26.6623C41.6674 26.0598 41.9454 25.4805 42.2235 24.9474C42.5016 24.4144 42.7565 23.9278 43.0114 23.4875C43.2664 23.0472 43.4981 22.7459 43.6835 22.5605C43.9848 22.2592 44.2629 22.0738 44.4946 22.0043C44.7263 21.9348 44.8886 21.9116 45.0276 21.9116H45.0971H45.1435H45.2362V21.8653Z" fill="#D3AF4A"/>
<path d="M55.9891 26.4074C55.9891 27.0795 55.8733 27.7515 55.6647 28.4468C55.433 29.1188 55.0853 29.814 54.5987 30.4861C54.3438 30.8337 54.0193 31.2508 53.6022 31.7143C53.2082 32.1778 52.7447 32.6181 52.2349 33.0121C51.7251 33.406 51.1457 33.7537 50.52 34.0318C49.8943 34.3098 49.2454 34.4489 48.527 34.4489C48.2953 34.4489 48.0635 34.4489 47.8086 34.4257C47.5537 34.4025 47.3683 34.4025 47.2061 34.3562C47.0439 34.7038 46.8817 35.1441 46.6963 35.6308C46.5109 36.1174 46.2791 36.6968 46.0474 37.3457C45.4912 38.7825 45.1204 39.8253 44.935 40.4279C44.9118 40.5901 44.8887 40.7523 44.8655 40.8913C44.8423 41.0536 44.8423 41.1231 44.8423 41.1694C44.7264 41.4939 44.4484 41.772 44.0312 42.0269C43.5909 42.305 43.1969 42.4672 42.8493 42.4672C42.6176 42.4672 42.5017 42.3513 42.5017 42.0964C42.5017 41.9805 42.5481 41.7488 42.6408 41.4475C42.7335 41.1463 42.8957 40.7291 43.1042 40.2193L45.9315 33.7537C45.7693 33.3829 45.6766 33.0353 45.6766 32.6876C45.6766 32.5718 45.6766 32.5023 45.6766 32.4327C45.6766 32.3632 45.6998 32.3169 45.6998 32.2473L46.3255 32.5022L48.2721 28.1223C48.6661 27.2185 48.8746 26.6392 48.8746 26.3611C48.8746 26.2452 48.8051 26.1757 48.6892 26.1757C48.5734 26.1757 48.388 26.222 48.0867 26.3379C47.7854 26.4538 47.3915 26.6392 46.8585 26.9404L46.7194 26.5465C46.9743 26.4074 47.2988 26.2452 47.6696 26.0598C48.0404 25.8744 48.4343 25.689 48.8283 25.5036C49.2223 25.3414 49.6162 25.1792 49.9638 25.0633C50.3346 24.9474 50.6127 24.8779 50.8213 24.8779C51.0067 24.8779 51.0994 24.9706 51.0994 25.156C51.0994 25.2487 50.9835 25.5731 50.7286 26.1293C50.4737 26.7087 50.1492 27.3807 49.7321 28.1687L49.848 28.1918C50.1029 27.9369 50.3578 27.6588 50.6359 27.3576C50.914 27.0563 51.2152 26.755 51.5397 26.4538C51.8641 26.1525 52.1886 25.8744 52.5593 25.6195C52.907 25.3414 53.2777 25.1328 53.6949 24.9474C54.0193 24.7852 54.3669 24.7157 54.7841 24.7157C55.1549 24.7157 55.433 24.8316 55.6647 25.0865C55.8964 25.4109 55.9891 25.8281 55.9891 26.4074ZM54.0193 27.2417C54.0193 26.8941 53.973 26.616 53.9034 26.4538C53.8107 26.2915 53.6717 26.1988 53.44 26.1988C53.1155 26.1988 52.7447 26.3379 52.3508 26.6392C51.9336 26.9404 51.5397 27.3112 51.1225 27.7515C50.7054 28.215 50.2883 28.7017 49.8943 29.2579C49.4772 29.814 49.1295 30.347 48.8051 30.8801C48.527 31.3204 48.3185 31.7375 48.1331 32.1083C47.9708 32.4791 47.8318 32.8267 47.7159 33.1511C48.2026 33.4524 48.8051 33.6146 49.4772 33.6146C50.0565 33.6146 50.6127 33.4292 51.1225 33.0353C51.5628 32.7108 51.9568 32.34 52.3276 31.8765C52.6752 31.4131 52.9765 30.9496 53.2314 30.4166C53.4863 29.9067 53.6717 29.3737 53.8108 28.8175C53.9498 28.3077 54.0193 27.7747 54.0193 27.2417Z" fill="#D3AF4A"/>
<path d="M67.0431 25.6426C66.8345 25.828 66.6491 26.0366 66.4637 26.3147C66.2783 26.5928 66.0929 26.894 65.9075 27.2416C65.7917 27.4966 65.6526 27.7746 65.4904 28.1223C65.3282 28.4699 65.1428 28.8638 64.9574 29.3042C64.7488 29.7445 64.5866 30.1152 64.4707 30.4165C64.3549 30.7178 64.239 30.9727 64.1695 31.1581C63.9146 31.7838 63.7987 32.1778 63.7987 32.3632C63.7987 32.5717 63.9146 32.6644 64.1463 32.6644C64.4476 32.6644 64.7488 32.5717 65.0964 32.3632C65.4441 32.1546 65.7917 31.946 66.1393 31.7143L66.3247 32.1546C65.9771 32.4095 65.6295 32.6644 65.2818 32.9193C64.9111 33.1742 64.5634 33.4292 64.1927 33.6377C63.8219 33.8463 63.4742 34.0317 63.1266 34.1707C62.779 34.3098 62.4778 34.3793 62.1997 34.3793C61.852 34.3793 61.6667 34.2171 61.6667 33.8927C61.6667 33.545 61.852 32.9425 62.1997 32.1314L62.8022 30.7178H62.64C62.0374 31.3667 61.4813 31.9228 60.9946 32.3863C60.508 32.8498 60.0676 33.2438 59.6505 33.5219C59.2334 33.8231 58.8626 34.0317 58.515 34.1707C58.1673 34.3098 57.8197 34.3793 57.4489 34.3793C56.6378 34.3793 56.2207 33.8927 56.2207 32.9425C56.2207 32.479 56.2902 32.0155 56.4524 31.5289C56.6147 31.0654 56.8232 30.6019 57.0782 30.1616C57.3331 29.7213 57.6343 29.3041 58.0051 28.887C58.3527 28.4699 58.7467 28.0991 59.1638 27.7283C59.581 27.3575 60.0676 27.0099 60.5543 26.6623C61.0641 26.3147 61.5971 26.0366 62.1533 25.7817C62.7095 25.5267 63.312 25.3182 63.8914 25.1791C64.4939 25.0169 65.0965 24.9474 65.699 24.9474C65.9771 24.9474 66.2552 24.9937 66.5564 25.1096C66.8577 25.2023 66.9967 25.3645 66.9967 25.5963V25.6426H67.0431ZM65.4441 25.9902C65.3282 25.8975 65.1428 25.828 64.9111 25.8048C64.6793 25.7817 64.4476 25.7585 64.2622 25.7585C63.7755 25.7585 63.2889 25.8744 62.779 26.1293C62.2924 26.3842 61.8057 26.6855 61.3654 27.0562C60.9251 27.427 60.5079 27.821 60.1372 28.2613C59.7664 28.7016 59.4651 29.1188 59.2334 29.4895C58.9321 30.0457 58.6772 30.5324 58.4918 30.9959C58.3064 31.4594 58.2137 31.8533 58.2137 32.1778C58.2137 32.4558 58.26 32.6644 58.3759 32.7803C58.4918 32.8962 58.654 32.9425 58.8857 32.9425C59.2102 32.9425 59.581 32.7803 60.0213 32.479C60.4384 32.1778 60.8787 31.8301 61.2959 31.413C61.713 30.9959 62.107 30.5787 62.4778 30.1384C62.8485 29.6981 63.1035 29.3505 63.2657 29.0724C63.4279 28.8175 63.6133 28.4931 63.8219 28.0759C63.9377 27.821 64.0536 27.5661 64.1695 27.3343C64.2853 27.1026 64.4476 26.8477 64.6561 26.6159C64.9111 26.361 65.1891 26.1293 65.4441 25.9902Z" fill="#D3AF4A"/>
<path d="M79.789 19.6868C79.789 20.3125 79.395 21.1236 78.5839 22.0969C78.329 22.3982 78.0046 22.7458 77.5874 23.1166C77.1935 23.4874 76.7532 23.8582 76.2665 24.2522C75.7798 24.6461 75.27 25.0401 74.737 25.4109C74.204 25.8048 73.6478 26.1524 73.1148 26.4537V26.5464C73.4856 26.4537 73.8332 26.4074 74.1576 26.361C74.4821 26.3378 74.7602 26.3147 75.0151 26.3147C75.4322 26.3147 75.803 26.4074 76.1043 26.5928C76.4055 26.7781 76.5446 27.1258 76.5446 27.6356C76.5446 27.9832 76.4751 28.354 76.3128 28.748C76.1506 29.1419 75.9421 29.5591 75.6871 29.953C75.4091 30.3702 75.1078 30.7641 74.7602 31.1813C74.4126 31.5752 74.0418 31.9692 73.6246 32.34C72.8367 33.0584 72.072 33.5682 71.3304 33.8695C70.5888 34.1707 69.9168 34.333 69.3374 34.333C68.9898 34.333 68.7117 34.2634 68.5031 34.1476C68.2946 34.0317 68.1555 33.8695 68.0628 33.7073C67.9701 33.545 67.9006 33.3596 67.8774 33.1511C67.8542 32.9425 67.8542 32.7803 67.8542 32.6181C67.8542 32.0155 67.9701 31.3667 68.2019 30.6714C68.4336 29.9762 68.7117 29.2578 69.0361 28.5162C69.3142 27.8905 69.6618 27.2185 70.1022 26.5001C70.5193 25.7817 71.006 25.0401 71.539 24.3217C72.072 23.6033 72.6513 22.8849 73.2307 22.2128C73.8332 21.5408 74.4357 20.9382 75.0383 20.4284C75.6408 19.8954 76.2665 19.4783 76.8459 19.177C77.4484 18.8525 78.0046 18.7135 78.5376 18.7135C78.9315 18.7135 79.2328 18.783 79.4414 18.9221C79.6963 19.0843 79.789 19.3392 79.789 19.6868ZM77.8655 20.6833C77.8655 20.2662 77.6338 20.0344 77.1935 20.0344C76.7995 20.0344 76.4055 20.1735 76.0116 20.4284C75.5944 20.6833 75.2005 21.0309 74.8065 21.4481C74.4126 21.8652 74.0186 22.3287 73.6478 22.8617C73.277 23.3947 72.9294 23.9045 72.6281 24.4375C72.3037 24.9706 72.0256 25.4804 71.7707 25.9439C71.5158 26.4305 71.3304 26.8245 71.1913 27.1489C71.006 27.5429 70.8205 27.96 70.6583 28.4003C70.4961 28.8407 70.3339 29.281 70.218 29.6981C70.079 30.1384 69.9863 30.5324 69.8936 30.9263C69.8009 31.3203 69.7777 31.6679 69.7777 31.9692C69.7777 32.3168 69.8472 32.6181 69.9863 32.873C70.1253 33.1279 70.3802 33.2438 70.7974 33.2438C71.145 33.2438 71.4694 33.1511 71.8402 32.9657C72.1878 32.7803 72.5818 32.5022 73.0221 32.0851C73.5319 31.5984 73.9723 30.9959 74.3199 30.3238C74.6675 29.6286 74.8297 28.9797 74.8297 28.354C74.8297 28.215 74.8297 28.0527 74.8065 27.8905C74.7833 27.7283 74.737 27.5661 74.6675 27.4038C74.5748 27.2416 74.4589 27.1258 74.2735 27.0331C74.0881 26.9404 73.8332 26.894 73.4856 26.894C73.0916 26.894 72.7672 26.9404 72.4659 27.0331C72.1647 27.1258 71.9793 27.1953 71.9097 27.2185V26.6623C72.3037 26.4305 72.8367 26.0829 73.5088 25.6426C74.1808 25.2023 74.8529 24.6925 75.5017 24.1363C76.1506 23.5801 76.7068 23.0007 77.1935 22.3982C77.6338 21.8189 77.8655 21.2395 77.8655 20.6833Z" fill="#D3AF4A"/>
<path d="M86.5557 26.8014C86.5557 27.6357 86.3703 28.4468 85.9764 29.2347C85.5824 30.0458 85.0958 30.7874 84.5164 31.4826C83.6358 32.5023 82.7783 33.2439 81.944 33.7073C81.0866 34.1708 80.206 34.4026 79.3022 34.4026C77.8654 34.4026 77.147 33.6842 77.147 32.2705C77.147 31.7375 77.2397 31.2045 77.4482 30.6252C77.6568 30.0458 77.9117 29.4896 78.2593 28.9566C78.607 28.4236 79.0241 27.8906 79.4876 27.4039C79.9511 26.9173 80.4841 26.477 81.0171 26.1062C81.5733 25.7354 82.1526 25.4341 82.7551 25.2256C83.3577 25.017 83.9834 24.9011 84.6091 24.9011C85.2348 24.9011 85.7214 25.0633 86.0691 25.411C86.3703 25.7586 86.5557 26.2221 86.5557 26.8014ZM84.6554 27.5662C84.6554 26.9405 84.5627 26.5233 84.3542 26.2684C84.1456 26.0367 83.8212 25.8976 83.3113 25.8976C82.199 25.8976 81.2256 26.5465 80.3218 27.8674C79.4181 29.1652 78.9777 30.5325 78.9777 31.9693C78.9777 32.4328 79.0936 32.7804 79.3022 33.0816C79.5108 33.3597 79.8584 33.4988 80.3682 33.4988C80.7853 33.4988 81.1793 33.3829 81.5501 33.1743C81.9209 32.9658 82.2685 32.6877 82.5929 32.3401C82.9174 31.9924 83.1955 31.5985 83.4504 31.1813C83.7053 30.741 83.9139 30.3239 84.0992 29.8836C84.2846 29.4433 84.4237 29.0261 84.5164 28.609C84.6091 28.215 84.6554 27.8674 84.6554 27.5662Z" fill="#D3AF4A"/>
<path d="M99.2089 19.6868C99.2089 20.3125 98.8149 21.1236 98.0039 22.0969C97.7489 22.3982 97.4245 22.7458 97.0074 23.1166C96.6134 23.4874 96.1731 23.8582 95.6864 24.2522C95.1998 24.6461 94.6899 25.0401 94.1569 25.4109C93.6239 25.8048 93.0677 26.1524 92.5347 26.4537V26.5464C92.9055 26.4537 93.2531 26.4074 93.5776 26.361C93.902 26.3378 94.1801 26.3147 94.435 26.3147C94.8522 26.3147 95.223 26.4074 95.5242 26.5928C95.8255 26.7781 95.9645 27.1258 95.9645 27.6356C95.9645 27.9832 95.895 28.354 95.7328 28.748C95.5706 29.1419 95.362 29.5591 95.1071 29.953C94.829 30.3702 94.5277 30.7641 94.1801 31.1813C93.8325 31.5752 93.4617 31.9692 93.0446 32.34C92.2566 33.0584 91.4919 33.5682 90.7503 33.8695C90.0087 34.1707 89.3367 34.333 88.7573 34.333C88.4097 34.333 88.1316 34.2634 87.923 34.1476C87.7145 34.0317 87.5754 33.8695 87.4827 33.7073C87.39 33.545 87.3205 33.3596 87.2974 33.1511C87.2742 32.9425 87.2742 32.7803 87.2742 32.6181C87.2742 32.0155 87.39 31.3667 87.6218 30.6714C87.8535 29.9762 88.1316 29.2578 88.4561 28.5162C88.7342 27.8905 89.0818 27.2185 89.5221 26.5001C89.9392 25.7817 90.4259 25.0401 90.9589 24.3217C91.4919 23.6033 92.0712 22.8849 92.6506 22.2128C93.2531 21.5408 93.8557 20.9382 94.4582 20.4284C95.0607 19.8954 95.6864 19.4783 96.2658 19.177C96.8683 18.8525 97.4245 18.7135 97.9575 18.7135C98.3515 18.7135 98.6527 18.783 98.8613 18.9221C99.093 19.0843 99.2089 19.3392 99.2089 19.6868ZM97.2623 20.6833C97.2623 20.2662 97.0305 20.0344 96.5902 20.0344C96.1963 20.0344 95.8023 20.1735 95.4083 20.4284C94.9912 20.6833 94.5972 21.0309 94.2033 21.4481C93.8093 21.8652 93.4154 22.3287 93.0446 22.8617C92.6738 23.3947 92.3262 23.9045 92.0249 24.4375C91.7005 24.9706 91.4224 25.4804 91.1674 25.9439C90.9125 26.4305 90.7271 26.8245 90.5881 27.1489C90.4027 27.5429 90.2173 27.96 90.0551 28.4003C89.8929 28.8407 89.7307 29.281 89.6148 29.6981C89.4757 30.1384 89.383 30.5324 89.2903 30.9263C89.1976 31.3203 89.1745 31.6679 89.1745 31.9692C89.1745 32.3168 89.244 32.6181 89.383 32.873C89.5221 33.1279 89.777 33.2438 90.1941 33.2438C90.5417 33.2438 90.8662 33.1511 91.237 32.9657C91.5846 32.7803 91.9785 32.5022 92.4189 32.0851C92.9287 31.5984 93.369 30.9959 93.7166 30.3238C94.0642 29.6286 94.2264 28.9797 94.2264 28.354C94.2264 28.215 94.2265 28.0527 94.2033 27.8905C94.1801 27.7283 94.1337 27.5661 94.0642 27.4038C93.9715 27.2416 93.8557 27.1258 93.6703 27.0331C93.4849 26.9404 93.23 26.894 92.8823 26.894C92.4884 26.894 92.1639 26.9404 91.8627 27.0331C91.5614 27.1258 91.376 27.1953 91.3065 27.2185V26.6623C91.7005 26.4305 92.2335 26.0829 92.9055 25.6426C93.5776 25.2023 94.2496 24.6925 94.8985 24.1363C95.5474 23.5801 96.1036 23.0007 96.5902 22.3982C97.0305 21.8189 97.2623 21.2395 97.2623 20.6833Z" fill="#D3AF4A"/>
<path d="M104.794 29.1652C104.794 29.5128 104.678 29.9299 104.469 30.4398C104.261 30.9496 103.913 31.4363 103.45 31.9229C103.287 32.1083 103.079 32.2937 102.824 32.5023C102.569 32.7108 102.291 32.9194 102.013 33.1048C101.712 33.3134 101.41 33.4756 101.086 33.661C100.761 33.8464 100.46 33.9391 100.136 34.0318C99.6491 34.194 99.232 34.2867 98.9075 34.3099C98.5831 34.333 98.2818 34.3562 97.9574 34.3562C97.5634 34.3562 97.3085 34.2635 97.1463 34.1013C96.9841 33.9391 96.9146 33.7305 96.9146 33.5451C96.9146 33.3134 96.9609 33.0353 97.0768 32.7108C97.1926 32.3864 97.3549 31.9693 97.5866 31.4594C97.7025 31.2045 97.8415 30.8801 98.0037 30.4861C98.1891 30.0922 98.3514 29.675 98.5367 29.2347C98.7221 28.7944 98.9075 28.3773 99.0698 27.9833C99.232 27.5893 99.371 27.2649 99.4637 26.9868C99.5101 26.8709 99.5564 26.7551 99.5796 26.6392C99.6259 26.5465 99.6259 26.4538 99.6259 26.3611C99.6259 26.2452 99.5564 26.1757 99.4405 26.1757C99.3247 26.1757 99.1624 26.2221 98.9539 26.2916C98.7453 26.3843 98.5367 26.4538 98.3513 26.5697C98.0964 26.6855 97.8647 26.8014 97.6098 26.9405L97.4707 26.5465C97.6561 26.4306 97.8879 26.3148 98.1891 26.1525C98.4904 25.9903 98.7917 25.8513 99.1161 25.7122C99.4405 25.5732 99.7418 25.4341 100.02 25.3183C100.298 25.2024 100.53 25.1097 100.692 25.0633C101.016 24.9475 101.294 24.9011 101.526 24.9011C101.596 24.9011 101.665 24.9243 101.712 24.9475C101.758 24.9706 101.781 25.0633 101.781 25.2024C101.781 25.2256 101.758 25.2951 101.712 25.4341C101.665 25.5732 101.596 25.7122 101.526 25.8744C101.457 26.0367 101.364 26.2221 101.294 26.4306C101.202 26.616 101.132 26.8014 101.086 26.9636C100.97 27.1954 100.877 27.4503 100.761 27.7052C100.646 27.9601 100.507 28.2614 100.368 28.5858C100.831 28.3541 101.318 28.1687 101.804 28.0065C102.291 27.8443 102.754 27.7747 103.195 27.7747C103.774 27.7747 104.168 27.8906 104.4 28.0992C104.678 28.3077 104.794 28.6785 104.794 29.1652ZM102.986 29.675C102.986 29.4664 102.963 29.2811 102.893 29.142C102.824 29.003 102.754 28.9103 102.662 28.8639C102.569 28.7944 102.453 28.7712 102.337 28.748C102.221 28.7249 102.082 28.7249 101.943 28.7249C101.688 28.7249 101.387 28.7712 101.063 28.8871C100.738 29.003 100.46 29.1188 100.182 29.2579C100.043 29.5823 99.904 29.9068 99.7418 30.2544C99.5796 30.602 99.4405 30.9264 99.3015 31.274C99.1624 31.6217 99.0466 31.9229 98.977 32.201C98.8844 32.4791 98.8612 32.734 98.8612 32.9194C98.8612 33.1048 98.9075 33.2439 99.0002 33.3365C99.0929 33.4292 99.2783 33.4756 99.5564 33.4756C99.9272 33.4756 100.344 33.3829 100.738 33.1743C101.132 32.9658 101.526 32.7108 101.851 32.3632C102.198 32.0156 102.453 31.6217 102.685 31.1582C102.87 30.7179 102.986 30.208 102.986 29.675ZM109.66 25.1097C109.66 25.2024 109.452 25.6659 109.035 26.5001C108.618 27.3576 108.061 28.6322 107.343 30.3702C107.25 30.5788 107.158 30.7874 107.065 30.9959C106.972 31.2045 106.879 31.4131 106.81 31.5985C106.74 31.7839 106.671 31.9461 106.625 32.1083C106.578 32.2705 106.555 32.3864 106.555 32.4791C106.555 32.6181 106.578 32.6877 106.625 32.734C106.671 32.7572 106.74 32.7804 106.856 32.7804C106.972 32.7804 107.158 32.734 107.366 32.6181C107.575 32.5023 107.783 32.3864 108.015 32.2474C108.27 32.0851 108.502 31.9229 108.78 31.7144L108.965 32.1547C108.803 32.2937 108.548 32.4791 108.224 32.734C107.899 32.9889 107.552 33.2439 107.158 33.4756C106.787 33.7305 106.393 33.9391 105.999 34.1245C105.605 34.3099 105.257 34.4026 104.979 34.4026C104.771 34.4026 104.655 34.3562 104.585 34.2635C104.516 34.1708 104.493 34.0781 104.493 33.9391C104.493 33.8 104.539 33.6146 104.632 33.3134C104.724 33.0121 104.84 32.6877 105.002 32.2937C105.165 31.8997 105.327 31.5058 105.512 31.0655C105.698 30.6252 105.883 30.208 106.068 29.7677C106.254 29.3506 106.416 28.9566 106.578 28.5858C106.74 28.215 106.856 27.9138 106.972 27.682C107.181 27.1954 107.412 26.7087 107.644 26.2684C107.876 25.8049 108.108 25.5037 108.339 25.3646C108.594 25.2024 108.78 25.1097 108.965 25.0402C109.127 24.9706 109.313 24.9475 109.475 24.9475C109.521 24.9475 109.568 24.9475 109.614 24.9706C109.637 24.9475 109.66 25.017 109.66 25.1097Z" fill="#D3AF4A"/>
<path d="M118.699 25.6195C118.699 25.8976 118.606 26.1757 118.397 26.477C118.189 26.7782 117.957 27.0563 117.656 27.3344C117.354 27.6125 117.053 27.8674 116.729 28.0991C116.404 28.3309 116.126 28.5395 115.871 28.7017C115.338 29.0493 114.782 29.3737 114.18 29.6518C113.6 29.9299 112.951 30.1617 112.256 30.3239C112.187 30.5093 112.14 30.7178 112.117 30.9032C112.094 31.1118 112.071 31.2277 112.071 31.2972C112.071 32.0156 112.233 32.5254 112.557 32.8499C112.882 33.1743 113.368 33.3134 113.994 33.3134C114.55 33.3134 115.107 33.1743 115.663 32.9194C116.219 32.6413 116.729 32.3864 117.169 32.1083L117.354 32.4096C117.099 32.6181 116.775 32.8499 116.427 33.0816C116.057 33.3134 115.686 33.5219 115.269 33.7305C114.852 33.9391 114.434 34.1013 114.017 34.2172C113.6 34.333 113.16 34.4025 112.743 34.4025C111.955 34.4025 111.329 34.2172 110.866 33.8464C110.402 33.4756 110.17 32.8962 110.17 32.1083C110.17 30.4397 110.912 28.9102 112.418 27.4734C112.743 27.1722 113.114 26.8709 113.531 26.5465C113.948 26.222 114.365 25.9671 114.828 25.7122C115.269 25.4573 115.755 25.2719 116.219 25.1097C116.706 24.9475 117.169 24.8779 117.656 24.8779C118.351 24.9243 118.699 25.156 118.699 25.6195ZM116.752 26.4306C116.752 26.1062 116.543 25.9671 116.149 25.9671C115.848 25.9671 115.524 26.083 115.153 26.2916C114.805 26.5001 114.458 26.8014 114.133 27.1258C113.809 27.4734 113.507 27.8442 113.229 28.2845C112.951 28.7017 112.743 29.142 112.604 29.5591C112.998 29.4896 113.438 29.3506 113.925 29.1652C114.411 28.9566 114.852 28.7249 115.269 28.4236C115.686 28.1455 116.033 27.8211 116.312 27.4734C116.613 27.1258 116.752 26.7782 116.752 26.4306Z" fill="#D3AF4A"/>
<path d="M140.9 25.4341C140.9 25.5963 140.853 25.8049 140.784 26.0829C140.714 26.3379 140.622 26.616 140.506 26.9172C140.39 27.2185 140.274 27.5197 140.158 27.821C140.042 28.1223 139.926 28.3772 139.81 28.6089L139.046 30.3238C138.976 30.4629 138.907 30.6251 138.814 30.8337C138.721 31.0422 138.629 31.2508 138.559 31.4594C138.466 31.6679 138.397 31.8765 138.35 32.0619C138.281 32.2473 138.258 32.3863 138.258 32.479C138.258 32.6644 138.35 32.7571 138.559 32.7571C138.675 32.7571 138.814 32.7108 138.976 32.6413C139.162 32.5717 139.393 32.4327 139.695 32.2241L140.459 31.6911L140.645 32.1314C139.671 32.9194 138.883 33.4987 138.235 33.8463C137.586 34.2171 137.076 34.4025 136.682 34.4025C136.357 34.4025 136.195 34.2403 136.195 33.939C136.195 33.8231 136.218 33.6609 136.288 33.4524C136.357 33.2438 136.427 33.012 136.497 32.7803C136.589 32.5486 136.682 32.2936 136.775 32.0387C136.867 31.7838 136.96 31.5752 137.053 31.3667L137.864 29.42C138.119 28.7943 138.327 28.2613 138.466 27.8674C138.605 27.4734 138.675 27.1953 138.675 27.1026C138.675 26.9172 138.582 26.8245 138.42 26.8245C138.142 26.8245 137.841 26.9172 137.493 27.1258C137.145 27.3344 136.821 27.5893 136.473 27.8905C136.126 28.1918 135.778 28.5394 135.431 28.9334C135.083 29.3273 134.758 29.6981 134.48 30.0689C134.179 30.4397 133.947 30.7873 133.716 31.1118C133.507 31.4362 133.345 31.6911 133.252 31.8765L132.812 32.7571C132.742 32.873 132.719 32.9657 132.696 33.0352C132.673 33.1047 132.626 33.1743 132.58 33.2206L132.163 33.6378C131.908 33.8927 131.676 34.0549 131.491 34.1708C131.305 34.2635 131.12 34.333 130.981 34.333C130.796 34.333 130.703 34.2403 130.703 34.0549C130.703 33.8927 130.796 33.6378 130.958 33.267C131.12 32.8962 131.329 32.479 131.56 31.9924L132.14 30.7873C132.65 29.6518 133.044 28.748 133.275 28.0759C133.507 27.4039 133.623 26.9867 133.623 26.8477C133.623 26.7318 133.577 26.6623 133.461 26.6623C133.206 26.6623 132.905 26.755 132.557 26.9636C132.209 27.1721 131.839 27.427 131.468 27.7747C131.074 28.0991 130.703 28.4699 130.332 28.887C129.961 29.281 129.614 29.6981 129.289 30.0921C128.965 30.4861 128.687 30.8337 128.455 31.1813C128.223 31.5057 128.061 31.7606 127.968 31.9692L127.574 32.8035C127.505 32.9193 127.482 33.012 127.459 33.0816C127.435 33.1511 127.389 33.2206 127.343 33.267L126.926 33.6841C126.671 33.939 126.439 34.1012 126.254 34.2171C126.068 34.3098 125.883 34.3793 125.744 34.3793C125.558 34.3793 125.466 34.2866 125.466 34.1012C125.466 34.0085 125.535 33.8231 125.651 33.5451C125.767 33.267 125.906 32.9657 126.068 32.6644L127.25 30.1384C127.621 29.3042 127.945 28.5626 128.177 27.8905C128.409 27.2185 128.525 26.7318 128.525 26.4537C128.525 26.2915 128.478 26.222 128.362 26.222C128.246 26.222 128.061 26.2683 127.806 26.361C127.528 26.4537 127.111 26.6623 126.532 26.9867L126.393 26.5928C126.601 26.4769 126.902 26.3147 127.25 26.1293C127.621 25.9439 127.992 25.7585 128.386 25.5731C128.78 25.3877 129.173 25.2487 129.544 25.1096C129.938 24.9938 130.239 24.9242 130.518 24.9242C130.703 24.9242 130.796 25.0169 130.796 25.2023C130.796 25.2718 130.749 25.4572 130.657 25.7585C130.564 26.0598 130.402 26.4537 130.193 26.9636L129.15 29.3042L129.313 29.3505C129.869 28.748 130.425 28.1686 131.004 27.6356C131.584 27.1026 132.14 26.6391 132.673 26.222C133.206 25.828 133.716 25.5036 134.179 25.2718C134.643 25.0401 135.06 24.9242 135.407 24.9242C135.593 24.9242 135.709 24.9706 135.778 25.0633C135.848 25.156 135.871 25.2718 135.871 25.4341C135.871 25.828 135.639 26.5696 135.152 27.7283L134.55 29.1883C135.245 28.5394 135.894 27.8905 136.543 27.3112C137.192 26.7086 137.887 26.1525 138.629 25.6426C139.277 25.1791 139.903 24.9474 140.506 24.9474C140.761 24.9242 140.9 25.0864 140.9 25.4341ZM142.29 19.5015C142.012 20.0808 141.618 20.6138 141.108 21.1237C140.598 21.6335 139.973 22.0043 139.231 22.2824C138.397 22.6068 137.586 22.7922 136.798 22.8385C136.033 22.9081 135.222 22.9312 134.388 22.9312C133.438 22.9312 132.65 22.9312 132.047 22.9544C131.445 22.9776 130.912 23.0239 130.448 23.0935C130.008 23.163 129.591 23.2789 129.243 23.4411C128.895 23.6033 128.501 23.8119 128.084 24.09L127.992 23.8119C128.339 23.5338 128.64 23.2789 128.942 23.0935C129.243 22.9081 129.521 22.7458 129.776 22.63C130.054 22.5141 130.309 22.3982 130.587 22.3287C130.865 22.2592 131.166 22.1665 131.491 22.0738C131.954 21.9579 132.441 21.8652 132.928 21.8189C133.414 21.7725 133.901 21.7494 134.388 21.7262C134.874 21.703 135.384 21.703 135.894 21.6798C136.404 21.6567 136.914 21.6335 137.447 21.564C138.42 21.4481 139.301 21.2395 140.042 20.9151C140.807 20.5906 141.456 20.0808 141.989 19.3392L142.29 19.5015Z" fill="#D3AF4A"/>
<path d="M150.424 25.6195C150.424 25.8976 150.331 26.1757 150.123 26.477C149.914 26.7782 149.683 27.0563 149.381 27.3344C149.08 27.6125 148.779 27.8674 148.454 28.0991C148.13 28.3309 147.852 28.5395 147.597 28.7017C147.064 29.0493 146.508 29.3737 145.905 29.6518C145.326 29.9299 144.677 30.1617 143.982 30.3239C143.912 30.5093 143.866 30.7178 143.843 30.9032C143.819 31.1118 143.796 31.2277 143.796 31.2972C143.796 32.0156 143.959 32.5254 144.283 32.8499C144.607 33.1743 145.094 33.3134 145.72 33.3134C146.276 33.3134 146.832 33.1743 147.388 32.9194C147.944 32.6413 148.454 32.3864 148.895 32.1083L149.08 32.4096C148.825 32.6181 148.501 32.8499 148.153 33.0816C147.782 33.3134 147.411 33.5219 146.994 33.7305C146.577 33.9391 146.16 34.1013 145.743 34.2172C145.326 34.333 144.885 34.4025 144.468 34.4025C143.68 34.4025 143.055 34.2172 142.591 33.8464C142.128 33.4756 141.896 32.8962 141.896 32.1083C141.896 30.4397 142.638 28.9102 144.144 27.4734C144.468 27.1722 144.839 26.8709 145.256 26.5465C145.673 26.222 146.091 25.9671 146.554 25.7122C146.994 25.4573 147.481 25.2719 147.944 25.1097C148.431 24.9475 148.895 24.8779 149.381 24.8779C150.077 24.9243 150.424 25.156 150.424 25.6195ZM148.477 26.4306C148.477 26.1062 148.269 25.9671 147.875 25.9671C147.574 25.9671 147.249 26.083 146.878 26.2916C146.531 26.5001 146.183 26.8014 145.859 27.1258C145.534 27.4734 145.233 27.8442 144.955 28.2845C144.677 28.7017 144.468 29.142 144.329 29.5591C144.723 29.4896 145.164 29.3506 145.65 29.1652C146.137 28.9566 146.577 28.7249 146.994 28.4236C147.411 28.1455 147.759 27.8211 148.037 27.4734C148.338 27.1258 148.477 26.7782 148.477 26.4306Z" fill="#D3AF4A"/>
<path d="M160.482 24.9937C160.482 25.2023 160.319 25.5036 160.018 25.8975C159.717 26.2915 159.323 26.7318 158.859 27.1953C158.419 27.6588 157.932 28.1454 157.423 28.6553C156.913 29.1419 156.449 29.6054 156.055 30.0226L156.241 30.9495C156.31 31.2276 156.357 31.4825 156.403 31.6911C156.449 31.8997 156.496 32.0851 156.542 32.2473C156.635 32.5254 156.727 32.7108 156.797 32.8498C156.936 33.0352 157.121 33.1279 157.353 33.1279C157.701 33.1279 158.095 32.9657 158.581 32.6181C158.952 32.3632 159.346 32.0387 159.786 31.6216L159.949 32.0619C158.465 33.6377 157.168 34.4257 156.102 34.4257C155.685 34.4257 155.383 34.0317 155.152 33.2206C155.012 32.7108 154.85 31.9692 154.665 31.0191C154.479 31.2044 154.294 31.413 154.086 31.6216C153.877 31.8302 153.645 32.0387 153.413 32.2705C152.556 33.0584 151.907 33.6146 151.444 33.939C150.98 34.2866 150.586 34.4488 150.215 34.4488C150.053 34.4488 149.937 34.3793 149.845 34.2634C149.752 34.1476 149.706 33.939 149.706 33.6377C149.706 33.4524 149.729 33.2438 149.798 32.9657C150.215 32.9657 150.887 32.7571 151.768 32.3168C152.788 31.807 153.715 31.1813 154.526 30.3933L154.086 27.7051C153.993 27.1258 153.877 26.755 153.738 26.5928C153.599 26.4305 153.367 26.361 153.043 26.361C152.695 26.361 152.324 26.4305 151.93 26.5696C151.536 26.7086 151.166 26.8709 150.818 27.0099L150.725 26.6159C150.911 26.5001 151.189 26.361 151.56 26.1756C151.93 25.9902 152.324 25.8048 152.741 25.6194C153.159 25.4341 153.553 25.295 153.923 25.156C154.294 25.0169 154.595 24.9706 154.781 24.9706C155.036 24.9706 155.198 25.1096 155.267 25.3645C155.36 25.6195 155.43 26.0829 155.522 26.7318L155.916 29.42C156.565 28.7943 157.191 28.1454 157.77 27.4502C158.35 26.755 158.836 25.9439 159.277 25.0633C159.392 25.0169 159.508 24.9706 159.67 24.901C159.833 24.8315 160.041 24.8083 160.273 24.8083C160.343 24.8083 160.412 24.8315 160.435 24.8547C160.482 24.8083 160.482 24.8779 160.482 24.9937Z" fill="#D3AF4A"/>
<path d="M171.536 25.1097C171.466 25.2256 171.397 25.3646 171.327 25.5268C171.234 25.689 171.165 25.8513 171.072 26.0135C170.98 26.1757 170.91 26.3379 170.841 26.477C170.771 26.616 170.725 26.7087 170.701 26.7782C170.539 27.1258 170.331 27.6125 170.076 28.1919C169.821 28.7712 169.52 29.4896 169.149 30.3239C168.94 30.8106 168.755 31.2509 168.593 31.6217C168.43 32.0156 168.361 32.2937 168.361 32.4791C168.361 32.6181 168.384 32.6877 168.43 32.734C168.477 32.7572 168.546 32.7804 168.662 32.7804C168.778 32.7804 168.963 32.734 169.172 32.6181C169.381 32.5023 169.589 32.3864 169.821 32.2474C170.076 32.0851 170.308 31.9229 170.586 31.7144L170.771 32.1547C170.609 32.2937 170.354 32.4791 170.029 32.734C169.705 32.9889 169.357 33.2439 168.963 33.4756C168.593 33.7305 168.199 33.9391 167.805 34.1245C167.411 34.3099 167.063 34.4026 166.785 34.4026C166.576 34.4026 166.461 34.3562 166.391 34.2635C166.322 34.1708 166.298 34.0781 166.298 33.9391C166.298 33.8 166.322 33.661 166.368 33.4524C166.414 33.2439 166.484 33.0353 166.576 32.8035C166.669 32.5718 166.762 32.3401 166.855 32.0851C166.947 31.8302 167.04 31.5985 167.133 31.3899L167.967 29.4201C167.619 29.536 167.318 29.6055 167.086 29.6518C166.855 29.6982 166.6 29.7445 166.275 29.7677C165.835 29.8372 165.441 29.8836 165.093 29.8836C164.746 29.9068 164.444 29.9068 164.12 29.9531L162.892 32.8731C162.822 33.0816 162.729 33.2439 162.637 33.3365C162.567 33.4061 162.405 33.5451 162.15 33.7305C161.895 33.9159 161.663 34.0781 161.432 34.194C161.223 34.3099 161.061 34.3562 160.899 34.3562C160.76 34.3562 160.69 34.333 160.667 34.2867C160.644 34.2403 160.644 34.1708 160.644 34.1013C160.644 34.0318 160.69 33.8696 160.806 33.6146C160.922 33.3597 161.084 33.0121 161.293 32.595C161.501 32.1315 161.687 31.7375 161.872 31.3899C162.034 31.0655 162.15 30.7874 162.266 30.5093C162.382 30.2312 162.451 30.0922 162.475 30.0458C162.312 30.069 162.127 30.0922 161.965 30.1153C161.779 30.1385 161.617 30.1617 161.432 30.1848L161.524 29.8604C161.965 29.675 162.382 29.536 162.753 29.4433C162.845 29.2347 162.961 28.9566 163.077 28.6554C163.193 28.3541 163.309 28.0528 163.425 27.7516C163.541 27.4503 163.61 27.1954 163.68 26.9636C163.749 26.7319 163.772 26.5697 163.772 26.4538C163.772 26.2916 163.703 26.2221 163.564 26.2221C163.448 26.2221 163.286 26.2684 163.077 26.3379C162.869 26.4074 162.683 26.5001 162.475 26.5928C162.243 26.7087 162.011 26.8246 161.733 26.9636L161.594 26.5697C161.849 26.4306 162.15 26.2684 162.544 26.083C162.938 25.8976 163.309 25.7122 163.726 25.5268C164.12 25.3646 164.514 25.2024 164.862 25.0865C165.232 24.9706 165.51 24.9011 165.719 24.9011C165.789 24.9011 165.858 24.9243 165.904 24.9475C165.951 24.9706 165.974 25.0633 165.974 25.1792C165.974 25.2256 165.951 25.3183 165.928 25.4573C165.881 25.5732 165.835 25.7354 165.788 25.8976C165.719 26.0598 165.649 26.2452 165.58 26.4306C165.51 26.616 165.441 26.8014 165.371 26.9636L164.468 29.0725C164.838 29.0261 165.209 28.9798 165.557 28.9566C165.928 28.9334 166.275 28.9103 166.623 28.8639C166.994 28.8407 167.295 28.8176 167.55 28.7712C167.805 28.748 168.013 28.7249 168.222 28.6785L168.871 27.1027C169.033 26.6855 169.195 26.3379 169.357 26.0598C169.52 25.7817 169.705 25.5732 169.937 25.411C170.192 25.2487 170.423 25.1329 170.678 25.0402C170.933 24.9475 171.119 24.9011 171.304 24.9011C171.35 24.9011 171.397 24.9011 171.443 24.9243C171.489 24.9475 171.536 25.017 171.536 25.1097Z" fill="#D3AF4A"/>
<path d="M181.547 26.8014C181.547 27.6357 181.362 28.4468 180.968 29.2347C180.574 30.0458 180.087 30.7874 179.508 31.4826C178.627 32.5023 177.77 33.2439 176.935 33.7073C176.078 34.1708 175.197 34.4026 174.293 34.4026C172.857 34.4026 172.138 33.6842 172.138 32.2705C172.138 31.7375 172.231 31.2045 172.439 30.6252C172.648 30.0458 172.903 29.4896 173.251 28.9566C173.598 28.4236 174.015 27.8906 174.479 27.4039C174.942 26.9173 175.475 26.477 176.008 26.1062C176.564 25.7354 177.144 25.4341 177.746 25.2256C178.349 25.017 178.975 24.9011 179.6 24.9011C180.226 24.9011 180.713 25.0633 181.06 25.411C181.362 25.7586 181.547 26.2221 181.547 26.8014ZM179.67 27.5662C179.67 26.9405 179.577 26.5233 179.369 26.2684C179.16 26.0367 178.836 25.8976 178.326 25.8976C177.213 25.8976 176.24 26.5465 175.336 27.8674C174.432 29.1652 173.992 30.5325 173.992 31.9693C173.992 32.4328 174.108 32.7804 174.317 33.0816C174.525 33.3597 174.873 33.4988 175.383 33.4988C175.8 33.4988 176.194 33.3829 176.564 33.1743C176.935 32.9658 177.283 32.6877 177.607 32.3401C177.932 31.9924 178.21 31.5985 178.465 31.1813C178.72 30.741 178.928 30.3239 179.114 29.8836C179.299 29.4433 179.438 29.0261 179.531 28.609C179.6 28.215 179.67 27.8674 179.67 27.5662Z" fill="#D3AF4A"/>
<path d="M191.558 25.2023C191.558 25.3413 191.419 25.6426 191.164 26.0829C190.91 26.5232 190.631 27.0331 190.353 27.6124C190.214 27.8905 190.029 28.2845 189.797 28.7479C189.565 29.2114 189.334 29.6981 189.102 30.2079C188.87 30.6946 188.685 31.1581 188.523 31.5752C188.36 31.9923 188.268 32.2704 188.268 32.4327C188.268 32.618 188.384 32.7107 188.592 32.7107C188.754 32.7107 188.893 32.6876 189.056 32.618C189.218 32.5485 189.357 32.5022 189.496 32.4327C189.658 32.34 189.797 32.2473 189.959 32.1546L190.145 32.5949C189.983 32.7339 189.751 32.8961 189.473 33.1047C189.195 33.3133 188.893 33.5218 188.546 33.7072C188.221 33.9158 187.874 34.078 187.526 34.2171C187.178 34.3561 186.854 34.4256 186.576 34.4256C186.228 34.4256 186.043 34.2634 186.043 33.9158C186.043 33.7536 186.089 33.5218 186.182 33.2206C186.275 32.9193 186.414 32.5717 186.553 32.2009C186.715 31.8301 186.877 31.4362 187.063 31.019C187.248 30.6019 187.433 30.2079 187.619 29.8371C187.804 29.4663 187.966 29.1187 188.129 28.8175C188.291 28.5162 188.407 28.2845 188.499 28.0991C188.754 27.5661 188.94 27.1721 189.079 26.9172C189.195 26.6391 189.264 26.4537 189.264 26.361C189.264 26.2683 189.195 26.2451 189.079 26.2451C188.685 26.2451 188.175 26.4769 187.503 26.9635C186.831 27.4502 186.089 28.1222 185.278 28.9797C184.699 29.6054 184.189 30.2543 183.749 30.9263C183.308 31.6216 183.1 32.34 183.1 33.1047C183.1 33.2669 183.1 33.3596 183.123 33.406C182.914 33.6841 182.659 33.939 182.358 34.1475C182.057 34.3561 181.802 34.4488 181.57 34.4488C181.385 34.4488 181.246 34.4025 181.13 34.3098C181.014 34.2171 180.968 34.0548 180.968 33.7768C180.968 33.2901 181.339 32.5485 182.103 31.5057C182.636 30.7873 183.285 30.0225 184.05 29.2346C184.815 28.4467 185.626 27.7051 186.506 26.9867C186.715 26.8245 186.947 26.6623 187.202 26.4769C187.48 26.3146 187.735 26.1524 188.013 25.9902C188.291 25.828 188.546 25.7121 188.801 25.5731C189.056 25.4572 189.264 25.3645 189.45 25.295C189.704 25.1791 190.029 25.0864 190.4 25.0169C190.771 24.9474 191.049 24.9242 191.234 24.9242C191.304 24.9242 191.373 24.9242 191.443 24.9474C191.512 24.9705 191.558 25.0632 191.558 25.2023Z" fill="#D3AF4A"/>
<path d="M201.106 26.8014C201.106 27.6357 200.921 28.4468 200.527 29.2347C200.133 30.0458 199.646 30.7874 199.067 31.4826C198.186 32.5023 197.329 33.2439 196.495 33.7073C195.637 34.1708 194.757 34.4026 193.853 34.4026C192.416 34.4026 191.698 33.6842 191.698 32.2705C191.698 31.7375 191.79 31.2045 191.999 30.6252C192.207 30.0458 192.462 29.4896 192.81 28.9566C193.157 28.4236 193.575 27.8906 194.038 27.4039C194.502 26.9173 195.035 26.477 195.568 26.1062C196.124 25.7354 196.703 25.4341 197.306 25.2256C197.908 25.017 198.534 24.9011 199.16 24.9011C199.785 24.9011 200.272 25.0633 200.62 25.411C200.921 25.7586 201.106 26.2221 201.106 26.8014ZM199.229 27.5662C199.229 26.9405 199.136 26.5233 198.928 26.2684C198.719 26.0367 198.395 25.8976 197.885 25.8976C196.773 25.8976 195.799 26.5465 194.896 27.8674C193.992 29.1652 193.551 30.5325 193.551 31.9693C193.551 32.4328 193.667 32.7804 193.876 33.0816C194.084 33.3597 194.432 33.4988 194.942 33.4988C195.359 33.4988 195.753 33.3829 196.124 33.1743C196.495 32.9658 196.842 32.6877 197.167 32.3401C197.491 31.9924 197.769 31.5985 198.024 31.1813C198.279 30.741 198.488 30.3239 198.673 29.8836C198.858 29.4433 198.997 29.0261 199.09 28.609C199.16 28.215 199.229 27.8674 199.229 27.5662Z" fill="#D3AF4A"/>
<path d="M207.688 25.5731C207.688 26.0366 207.479 26.5464 207.062 27.1489C206.645 27.7515 206.019 28.5394 205.208 29.5127C204.814 29.9762 204.513 30.347 204.281 30.6483C204.049 30.9495 203.864 31.2276 203.748 31.4362C203.632 31.6447 203.54 31.8301 203.493 31.9924C203.447 32.1546 203.424 32.2705 203.424 32.4095C203.424 32.6181 203.493 32.7803 203.632 32.8498C203.771 32.9193 203.91 32.9657 204.026 32.9657C204.235 32.9657 204.42 32.9425 204.629 32.873C204.837 32.8035 205.023 32.7108 205.231 32.5949C205.44 32.479 205.625 32.3631 205.787 32.2241C205.973 32.0851 206.135 31.9692 206.274 31.8533L206.506 32.1314C206.181 32.4095 205.857 32.7108 205.532 32.9889C205.208 33.2669 204.884 33.5219 204.536 33.7536C204.188 33.9622 203.841 34.1476 203.493 34.2866C203.146 34.4257 202.775 34.4952 202.381 34.4952C202.01 34.4952 201.755 34.4257 201.616 34.2866C201.477 34.1476 201.407 33.9622 201.407 33.7304C201.407 33.545 201.454 33.3365 201.57 33.1047C201.686 32.873 201.848 32.6181 202.08 32.2936C202.311 31.9692 202.613 31.5984 202.983 31.1581C203.354 30.7178 203.794 30.2079 204.304 29.5822C204.629 29.1883 204.884 28.8638 205.069 28.5626C205.254 28.2845 205.417 28.0064 205.509 27.7978C205.602 27.5661 205.672 27.3807 205.695 27.1953C205.718 27.0331 205.718 26.8477 205.718 26.6855C205.718 26.5001 205.648 26.361 205.532 26.2915C205.417 26.222 205.254 26.1988 205.092 26.1988C204.93 26.1988 204.768 26.2451 204.559 26.3147C204.351 26.3842 204.165 26.4769 203.957 26.5928C203.748 26.7086 203.539 26.8477 203.331 26.9867C203.122 27.1489 202.937 27.288 202.752 27.4502L202.52 27.1721C202.821 26.9404 203.122 26.6855 203.47 26.4305C203.818 26.1756 204.165 25.9207 204.559 25.7121C204.93 25.5036 205.324 25.3182 205.741 25.156C206.135 25.0169 206.552 24.9474 206.946 24.9474C207.108 24.9474 207.271 24.9937 207.433 25.0633C207.618 25.1096 207.688 25.295 207.688 25.5731Z" fill="#D3AF4A"/>
<path d="M219.344 25.1097C219.344 25.1328 219.252 25.3414 219.066 25.7122C218.881 26.083 218.672 26.5465 218.441 27.1026L217.027 30.3934C216.957 30.5556 216.888 30.7178 216.795 30.9264C216.703 31.135 216.61 31.3204 216.54 31.5289C216.471 31.7375 216.401 31.9229 216.332 32.0851C216.262 32.2705 216.239 32.4096 216.239 32.5022C216.239 32.6876 216.332 32.7803 216.54 32.7803C216.656 32.7803 216.842 32.7108 217.143 32.5486C217.444 32.3864 217.884 32.1083 218.441 31.7143L218.626 32.1546C217.653 32.9426 216.865 33.5219 216.216 33.8695C215.567 34.2403 215.057 34.4257 214.663 34.4257C214.339 34.4257 214.177 34.2635 214.177 33.9622C214.177 33.8 214.2 33.6146 214.246 33.406C214.292 33.1975 214.362 32.9889 214.455 32.7572C214.547 32.5254 214.64 32.2937 214.733 32.0619C214.825 31.8302 214.918 31.5985 215.011 31.3899C215.289 30.7642 215.521 30.2543 215.706 29.8372C215.891 29.4201 216.054 29.0725 216.17 28.8175C216.285 28.5395 216.401 28.3309 216.471 28.1687C216.54 28.0064 216.61 27.8442 216.679 27.7284H216.471L215.845 28.4004C215.405 28.8871 214.918 29.3969 214.408 29.9531C213.898 30.5093 213.365 31.0423 212.856 31.5521C212.346 32.0851 211.813 32.5486 211.326 33.0121C210.816 33.4524 210.353 33.8232 209.959 34.1244C209.843 34.2171 209.704 34.2867 209.542 34.333C209.379 34.3794 209.217 34.4257 209.078 34.4257C208.916 34.4257 208.777 34.3794 208.707 34.2867C208.615 34.194 208.592 34.0781 208.592 33.9391C208.592 33.8232 208.615 33.661 208.661 33.4524C208.707 33.2438 208.8 32.9889 208.916 32.7108C209.194 32.0619 209.472 31.3899 209.797 30.6947C210.098 29.9994 210.376 29.3737 210.631 28.7944C210.886 28.215 211.094 27.7052 211.257 27.288C211.419 26.8709 211.488 26.5696 211.488 26.4538C211.488 26.3379 211.419 26.2684 211.303 26.2684C211.094 26.2684 210.747 26.3842 210.214 26.6392L209.449 27.0331L209.31 26.6392C209.565 26.4769 209.866 26.3147 210.214 26.1293C210.585 25.9439 210.932 25.7585 211.326 25.5963C211.697 25.4341 212.068 25.2951 212.415 25.1792C212.763 25.0633 213.064 24.9938 213.342 24.9938C213.528 24.9938 213.62 25.0865 213.62 25.2719C213.62 25.3878 213.551 25.6427 213.389 26.0598C213.226 26.4769 213.041 26.9173 212.832 27.4271C212.624 27.9369 212.415 28.4236 212.184 28.9102C211.952 29.3969 211.79 29.7445 211.697 29.9994C211.21 31.1118 210.955 31.7143 210.955 31.8302C210.955 32.0156 211.025 32.1083 211.141 32.1083C211.257 32.1083 211.465 31.9924 211.743 31.7838C212.021 31.5753 212.346 31.274 212.693 30.9496C213.041 30.602 213.412 30.2312 213.806 29.814C214.2 29.3969 214.547 28.9798 214.918 28.609C215.266 28.215 215.59 27.8674 215.868 27.543C216.146 27.2185 216.332 26.9868 216.471 26.8246L217.12 26.083C217.236 25.9671 217.328 25.8744 217.444 25.7817C217.56 25.689 217.653 25.6195 217.769 25.55C218.278 25.2024 218.765 25.0401 219.182 25.0401C219.275 24.9243 219.344 24.9938 219.344 25.1097Z" fill="#D3AF4A"/>
<path d="M230.769 25.1097C230.769 25.1328 230.677 25.3414 230.491 25.7122C230.306 26.083 230.097 26.5465 229.865 27.1026L228.452 30.3934C228.382 30.5556 228.313 30.7178 228.22 30.9264C228.127 31.135 228.035 31.3204 227.965 31.5289C227.896 31.7375 227.826 31.9229 227.757 32.0851C227.687 32.2705 227.664 32.4096 227.664 32.5022C227.664 32.6876 227.757 32.7803 227.965 32.7803C228.081 32.7803 228.266 32.7108 228.568 32.5486C228.869 32.3864 229.309 32.1083 229.865 31.7143L230.051 32.1546C229.077 32.9426 228.29 33.5219 227.641 33.8695C226.992 34.2403 226.482 34.4257 226.088 34.4257C225.764 34.4257 225.601 34.2635 225.601 33.9622C225.601 33.8 225.625 33.6146 225.671 33.406C225.717 33.1975 225.787 32.9889 225.879 32.7572C225.972 32.5254 226.065 32.2937 226.158 32.0619C226.25 31.8302 226.343 31.5985 226.436 31.3899C226.714 30.7642 226.945 30.2543 227.131 29.8372C227.316 29.4201 227.478 29.0725 227.594 28.8175C227.71 28.5395 227.826 28.3309 227.896 28.1687C227.965 28.0064 228.035 27.8442 228.104 27.7284H227.896L227.27 28.4004C226.83 28.8871 226.343 29.3969 225.833 29.9531C225.323 30.5093 224.79 31.0423 224.28 31.5521C223.771 32.0851 223.238 32.5486 222.751 33.0121C222.241 33.4524 221.778 33.8232 221.384 34.1244C221.268 34.2171 221.129 34.2867 220.966 34.333C220.804 34.3794 220.642 34.4257 220.503 34.4257C220.341 34.4257 220.202 34.3794 220.132 34.2867C220.04 34.194 220.016 34.0781 220.016 33.9391C220.016 33.8232 220.04 33.661 220.086 33.4524C220.132 33.2438 220.225 32.9889 220.341 32.7108C220.619 32.0619 220.897 31.3899 221.221 30.6947C221.523 29.9994 221.801 29.3737 222.056 28.7944C222.311 28.215 222.519 27.7052 222.681 27.288C222.844 26.8709 222.913 26.5696 222.913 26.4538C222.913 26.3379 222.844 26.2684 222.728 26.2684C222.519 26.2684 222.172 26.3842 221.639 26.6392L220.874 27.0331L220.735 26.6392C220.99 26.4769 221.291 26.3147 221.639 26.1293C222.009 25.9439 222.357 25.7585 222.751 25.5963C223.122 25.4341 223.492 25.2951 223.84 25.1792C224.188 25.0633 224.489 24.9938 224.767 24.9938C224.952 24.9938 225.045 25.0865 225.045 25.2719C225.045 25.3878 224.976 25.6427 224.813 26.0598C224.651 26.4769 224.466 26.9173 224.257 27.4271C224.049 27.9369 223.84 28.4236 223.608 28.9102C223.377 29.3969 223.214 29.7445 223.122 29.9994C222.635 31.1118 222.38 31.7143 222.38 31.8302C222.38 32.0156 222.45 32.1083 222.566 32.1083C222.681 32.1083 222.89 31.9924 223.168 31.7838C223.446 31.5753 223.771 31.274 224.118 30.9496C224.466 30.602 224.837 30.2312 225.231 29.814C225.625 29.3969 225.972 28.9798 226.343 28.609C226.691 28.215 227.015 27.8674 227.293 27.543C227.571 27.2185 227.757 26.9868 227.896 26.8246L228.544 26.083C228.66 25.9671 228.753 25.8744 228.869 25.7817C228.985 25.689 229.077 25.6195 229.193 25.55C229.703 25.2024 230.19 25.0401 230.607 25.0401C230.7 24.9243 230.769 24.9938 230.769 25.1097Z" fill="#D3AF4A"/>
<path d="M60.5566 54.9291C60.0908 54.9291 59.6563 54.8457 59.2531 54.6788C58.8568 54.512 58.5092 54.2687 58.2102 53.9489C57.9182 53.6291 57.6853 53.2363 57.5115 52.7704C57.3447 52.2977 57.2612 51.7589 57.2612 51.154C57.2612 50.5492 57.3516 50.0139 57.5324 49.5481C57.7201 49.0753 57.9669 48.679 58.2728 48.3592C58.5787 48.0394 58.9333 47.7996 59.3365 47.6397C59.7397 47.4728 60.1603 47.3894 60.5983 47.3894C60.8695 47.3894 61.1163 47.4068 61.3387 47.4415C61.5612 47.4763 61.7559 47.5215 61.9227 47.5771C62.0896 47.6258 62.2321 47.6779 62.3503 47.7335C62.4685 47.7822 62.5589 47.8274 62.6214 47.8691L62.392 48.4844C62.2182 48.3801 61.9957 48.2793 61.7246 48.1819C61.4604 48.0777 61.1302 48.0255 60.7339 48.0255C60.282 48.0255 59.8857 48.102 59.5451 48.2549C59.2113 48.4079 58.9298 48.6234 58.7004 48.9015C58.4709 49.1796 58.2971 49.5098 58.1789 49.8922C58.0677 50.2746 58.0121 50.6987 58.0121 51.1645C58.0121 51.6442 58.0677 52.0787 58.1789 52.468C58.2971 52.8504 58.4675 53.1772 58.6899 53.4483C58.9124 53.7194 59.1835 53.928 59.5033 54.074C59.8301 54.22 60.202 54.293 60.6192 54.293C61.078 54.293 61.4604 54.2513 61.7663 54.1679C62.0792 54.0775 62.3155 53.9871 62.4754 53.8967L62.6736 54.5016C62.6249 54.5363 62.5415 54.578 62.4233 54.6267C62.3051 54.6684 62.1556 54.7136 61.9749 54.7623C61.7941 54.8109 61.5855 54.8492 61.3492 54.877C61.1128 54.9117 60.8486 54.9291 60.5566 54.9291Z" fill="#D3AF4A"/>
<path d="M67.6414 50.2468C67.4328 50.4971 67.1895 50.8134 66.9114 51.1958C66.6403 51.5781 66.3622 51.9814 66.0772 52.4055C65.7991 52.8295 65.5314 53.2502 65.2742 53.6673C65.0169 54.0844 64.7945 54.4529 64.6067 54.7727H63.9706V49.3812H64.638V53.6986C64.8049 53.3996 65.01 53.0555 65.2533 52.6662C65.5036 52.2699 65.7678 51.8736 66.0459 51.4773C66.324 51.0741 66.6021 50.6882 66.8801 50.3198C67.1652 49.9513 67.4294 49.6385 67.6727 49.3812H68.3088V54.7727H67.6414V50.2468Z" fill="#D3AF4A"/>
<path d="M71.8012 49.9548V50.1738C71.8012 50.3823 71.7977 50.6118 71.7908 50.8621C71.7838 51.1054 71.7699 51.3557 71.7491 51.6129C71.7282 51.8701 71.6935 52.1274 71.6448 52.3846C71.6031 52.6349 71.5475 52.8713 71.4779 53.0937C71.4015 53.3232 71.3041 53.5422 71.1859 53.7507C71.0747 53.9523 70.9391 54.1331 70.7792 54.293C70.6263 54.4459 70.4455 54.5746 70.237 54.6788C70.0353 54.7762 69.8059 54.8387 69.5487 54.8666L69.4548 54.3034C69.8024 54.2269 70.0805 54.0844 70.2891 53.8759C70.5046 53.6673 70.6819 53.3718 70.8209 52.9894C70.96 52.6071 71.0469 52.1691 71.0817 51.6755C71.1234 51.1749 71.1442 50.6291 71.1442 50.0382V49.3812H74.4605V54.7727H73.7826V49.9548H71.8012Z" fill="#D3AF4A"/>
<path d="M76.3592 49.3812H77.0371V51.5399C77.1622 51.5051 77.3465 51.4704 77.5898 51.4356C77.8401 51.3939 78.0973 51.373 78.3615 51.373C78.6535 51.373 78.9281 51.4043 79.1853 51.4669C79.4426 51.5295 79.6685 51.6303 79.8632 51.7693C80.0579 51.9084 80.2108 52.0891 80.322 52.3116C80.4402 52.5341 80.4993 52.8052 80.4993 53.125C80.4993 53.4448 80.4402 53.716 80.322 53.9384C80.2108 54.1609 80.0544 54.3451 79.8528 54.4911C79.6581 54.6302 79.4217 54.731 79.1436 54.7936C78.8725 54.8561 78.5805 54.8874 78.2676 54.8874C78.0799 54.8874 77.8887 54.8805 77.6941 54.8666C77.5064 54.8527 77.3291 54.8353 77.1622 54.8144C76.9954 54.7936 76.8424 54.7692 76.7034 54.7414C76.5643 54.7136 76.4496 54.6823 76.3592 54.6476V49.3812ZM78.2676 54.2826C78.7334 54.2826 79.1054 54.1957 79.3835 54.0219C79.6616 53.8411 79.8006 53.5422 79.8006 53.125C79.8006 52.9304 79.7624 52.76 79.6859 52.614C79.6094 52.468 79.5052 52.3498 79.3731 52.2595C79.2479 52.1621 79.095 52.0926 78.9142 52.0509C78.7404 52.0022 78.5492 51.9779 78.3406 51.9779C78.1112 51.9779 77.8818 51.9883 77.6524 52.0092C77.4229 52.03 77.2179 52.0717 77.0371 52.1343V54.1783C77.1275 54.1991 77.2874 54.2235 77.5168 54.2513C77.7462 54.2721 77.9965 54.2826 78.2676 54.2826Z" fill="#D3AF4A"/>
<path d="M86.086 54.7727H85.4082V52.2595H82.4778V54.7727H81.7999V49.3812H82.4778V51.6859H85.4082V49.3812H86.086V54.7727Z" fill="#D3AF4A"/>
<path d="M87.9841 49.3812H88.6619V51.5399C88.7871 51.5051 88.9713 51.4704 89.2146 51.4356C89.458 51.3939 89.7013 51.373 89.9446 51.373C90.2158 51.373 90.4765 51.4043 90.7268 51.4669C90.984 51.5295 91.2065 51.6303 91.3942 51.7693C91.5888 51.9084 91.7418 52.0891 91.853 52.3116C91.9712 52.5341 92.0303 52.8052 92.0303 53.125C92.0303 53.4448 91.9712 53.716 91.853 53.9384C91.7418 54.1609 91.5888 54.3451 91.3942 54.4911C91.1995 54.6302 90.9666 54.731 90.6955 54.7936C90.4313 54.8561 90.1497 54.8874 89.8508 54.8874C89.67 54.8874 89.4858 54.8805 89.2981 54.8666C89.1173 54.8527 88.9435 54.8353 88.7766 54.8144C88.6167 54.7936 88.4673 54.7692 88.3282 54.7414C88.1892 54.7136 88.0745 54.6823 87.9841 54.6476V49.3812ZM89.8508 54.2826C90.2888 54.2826 90.6433 54.1922 90.9145 54.0114C91.1926 53.8307 91.3316 53.5352 91.3316 53.125C91.3316 52.9304 91.2934 52.76 91.2169 52.614C91.1404 52.468 91.0361 52.3498 90.904 52.2595C90.7789 52.1621 90.6294 52.0926 90.4556 52.0509C90.2888 52.0022 90.1115 51.9779 89.9238 51.9779C89.7082 51.9779 89.4893 51.9883 89.2668 52.0092C89.0443 52.03 88.8427 52.0717 88.6619 52.1343V54.1783C88.7523 54.1991 88.9087 54.2235 89.1312 54.2513C89.3537 54.2721 89.5935 54.2826 89.8508 54.2826ZM93.8448 54.7727H93.167V49.3812H93.8448V54.7727Z" fill="#D3AF4A"/>
<path d="M99.4175 50.2468C99.209 50.4971 98.9656 50.8134 98.6875 51.1958C98.4164 51.5781 98.1383 51.9814 97.8533 52.4055C97.5752 52.8295 97.3075 53.2502 97.0503 53.6673C96.7931 54.0844 96.5706 54.4529 96.3829 54.7727H95.7467V49.3812H96.4142V53.6986C96.581 53.3996 96.7861 53.0555 97.0294 52.6662C97.2797 52.2699 97.5439 51.8736 97.822 51.4773C98.1001 51.0741 98.3782 50.6882 98.6563 50.3198C98.9413 49.9513 99.2055 49.6385 99.4488 49.3812H100.085V54.7727H99.4175V50.2468ZM97.9158 48.4635C97.5265 48.4635 97.2067 48.3558 96.9564 48.1402C96.7062 47.9247 96.5462 47.6188 96.4767 47.2225L97.0294 47.0765C97.0711 47.3129 97.1615 47.5076 97.3006 47.6605C97.4466 47.8065 97.6517 47.8795 97.9158 47.8795C98.18 47.8795 98.3816 47.8065 98.5207 47.6605C98.6667 47.5076 98.7605 47.3129 98.8023 47.0765L99.355 47.2225C99.2854 47.6188 99.1255 47.9247 98.8753 48.1402C98.625 48.3558 98.3052 48.4635 97.9158 48.4635Z" fill="#D3AF4A"/>
<path d="M106.148 52.3325C105.995 52.5341 105.842 52.7461 105.689 52.9686C105.537 53.1911 105.387 53.4101 105.241 53.6256C105.102 53.8411 104.973 54.0497 104.855 54.2513C104.737 54.4459 104.636 54.6198 104.553 54.7727H103.854C104.139 54.2374 104.438 53.7403 104.751 53.2814C105.064 52.8156 105.384 52.3603 105.71 51.9153L103.958 49.3812H104.751L106.148 51.446L107.567 49.3812H108.307L106.586 51.8736C106.732 52.0683 106.889 52.2803 107.056 52.5097C107.222 52.7392 107.389 52.979 107.556 53.2293C107.723 53.4726 107.883 53.7264 108.036 53.9906C108.196 54.2548 108.342 54.5155 108.474 54.7727H107.744C107.66 54.6198 107.56 54.4459 107.441 54.2513C107.323 54.0497 107.191 53.8411 107.045 53.6256C106.906 53.4101 106.757 53.1911 106.597 52.9686C106.444 52.7461 106.294 52.5341 106.148 52.3325Z" fill="#D3AF4A"/>
<path d="M114.264 52.0822C114.264 52.5063 114.202 52.8921 114.077 53.2397C113.958 53.5873 113.788 53.8828 113.566 54.1261C113.35 54.3695 113.093 54.5607 112.794 54.6997C112.495 54.8318 112.165 54.8978 111.803 54.8978C111.442 54.8978 111.111 54.8318 110.813 54.6997C110.514 54.5607 110.253 54.3695 110.03 54.1261C109.815 53.8828 109.645 53.5873 109.519 53.2397C109.401 52.8921 109.342 52.5063 109.342 52.0822C109.342 51.6581 109.401 51.2722 109.519 50.9246C109.645 50.577 109.815 50.2815 110.03 50.0382C110.253 49.7879 110.514 49.5967 110.813 49.4646C111.111 49.3256 111.442 49.2561 111.803 49.2561C112.165 49.2561 112.495 49.3256 112.794 49.4646C113.093 49.5967 113.35 49.7879 113.566 50.0382C113.788 50.2815 113.958 50.577 114.077 50.9246C114.202 51.2722 114.264 51.6581 114.264 52.0822ZM113.545 52.0822C113.545 51.4078 113.388 50.8725 113.076 50.4762C112.763 50.073 112.339 49.8714 111.803 49.8714C111.268 49.8714 110.844 50.073 110.531 50.4762C110.218 50.8725 110.062 51.4078 110.062 52.0822C110.062 52.7565 110.218 53.2919 110.531 53.6881C110.844 54.0844 111.268 54.2826 111.803 54.2826C112.339 54.2826 112.763 54.0844 113.076 53.6881C113.388 53.2919 113.545 52.7565 113.545 52.0822Z" fill="#D3AF4A"/>
<path d="M119.99 54.1991H120.605V56.264H119.948V54.7727H115.756V56.264H115.099V54.1991H115.652C115.881 53.8376 116.062 53.49 116.194 53.1563C116.333 52.8226 116.437 52.4819 116.507 52.1343C116.583 51.7867 116.632 51.4217 116.653 51.0393C116.681 50.65 116.694 50.2259 116.694 49.7671V49.3812H119.99V54.1991ZM117.331 49.9548C117.331 50.3302 117.317 50.6987 117.289 51.0602C117.268 51.4217 117.223 51.7797 117.153 52.1343C117.084 52.4889 116.986 52.84 116.861 53.1876C116.736 53.5282 116.573 53.8654 116.371 54.1991H119.312V49.9548H117.331Z" fill="#D3AF4A"/>
<path d="M122.891 54.3243C122.891 54.4842 122.839 54.6198 122.735 54.731C122.637 54.8422 122.498 54.8978 122.318 54.8978C122.137 54.8978 121.994 54.8422 121.89 54.731C121.793 54.6198 121.744 54.4842 121.744 54.3243C121.744 54.1644 121.793 54.0288 121.89 53.9176C121.994 53.8063 122.137 53.7507 122.318 53.7507C122.498 53.7507 122.637 53.8063 122.735 53.9176C122.839 54.0288 122.891 54.1644 122.891 54.3243Z" fill="#D3AF4A"/>
<path d="M129.426 52.2386C129.572 51.9118 129.722 51.5573 129.874 51.1749C130.027 50.7856 130.177 50.3858 130.323 49.9756C130.469 49.5585 130.604 49.1448 130.73 48.7347C130.862 48.3175 130.976 47.9212 131.074 47.5458H131.825C131.686 48.0255 131.543 48.4809 131.397 48.9119C131.258 49.336 131.112 49.7497 130.959 50.1529C130.813 50.5492 130.66 50.942 130.5 51.3313C130.34 51.7137 130.173 52.0996 130 52.4889C129.888 52.7392 129.767 53.0033 129.635 53.2814C129.503 53.5595 129.339 53.8168 129.144 54.0531C128.95 54.2826 128.71 54.4738 128.425 54.6267C128.147 54.7727 127.803 54.8457 127.393 54.8457C127.212 54.8457 127.052 54.8248 126.913 54.7831C126.781 54.7484 126.683 54.7136 126.621 54.6788L126.756 54.0949C126.805 54.1227 126.885 54.1574 126.996 54.1991C127.107 54.2339 127.253 54.2513 127.434 54.2513C127.671 54.2513 127.876 54.2165 128.049 54.147C128.23 54.0705 128.383 53.9732 128.508 53.855C128.64 53.7368 128.755 53.5978 128.852 53.4379C128.95 53.278 129.037 53.1111 129.113 52.9373C128.793 52.4506 128.494 51.9605 128.216 51.4669C127.945 50.9733 127.695 50.4936 127.465 50.0278C127.243 49.562 127.038 49.1205 126.85 48.7034C126.669 48.2793 126.51 47.8934 126.371 47.5458H127.163C127.399 48.1854 127.705 48.9154 128.081 49.7358C128.463 50.5562 128.912 51.3904 129.426 52.2386Z" fill="#D3AF4A"/>
<path d="M134.598 49.2665C134.807 49.2665 135.039 49.2804 135.297 49.3082C135.561 49.3291 135.808 49.3882 136.037 49.4855C136.267 49.5759 136.458 49.7219 136.611 49.9235C136.771 50.1182 136.851 50.3858 136.851 50.7265C136.851 50.9907 136.774 51.227 136.621 51.4356C136.468 51.6372 136.26 51.7867 135.995 51.884C136.385 51.9883 136.666 52.1552 136.84 52.3846C137.014 52.614 137.101 52.8956 137.101 53.2293C137.101 53.5908 137.028 53.8828 136.882 54.1053C136.736 54.3208 136.541 54.4877 136.298 54.6058C136.061 54.7171 135.79 54.7901 135.484 54.8248C135.185 54.8596 134.88 54.877 134.567 54.877C134.191 54.877 133.861 54.8527 133.576 54.804C133.298 54.7553 133.058 54.7032 132.856 54.6476V49.4959C133.03 49.4403 133.26 49.3882 133.545 49.3395C133.83 49.2908 134.181 49.2665 134.598 49.2665ZM133.534 51.6442H134.765C135.182 51.6442 135.519 51.5747 135.776 51.4356C136.034 51.2966 136.162 51.0637 136.162 50.7369C136.162 50.5283 136.117 50.365 136.027 50.2468C135.936 50.1286 135.818 50.0417 135.672 49.9861C135.526 49.9235 135.359 49.8853 135.172 49.8714C134.984 49.8505 134.796 49.8401 134.608 49.8401C134.379 49.8401 134.16 49.854 133.951 49.8818C133.743 49.9026 133.604 49.9235 133.534 49.9444V51.6442ZM133.534 52.2073V54.1887C133.569 54.2026 133.625 54.2165 133.701 54.2304C133.785 54.2374 133.875 54.2478 133.972 54.2617C134.077 54.2687 134.184 54.2756 134.296 54.2826C134.414 54.2895 134.525 54.293 134.629 54.293C134.866 54.293 135.092 54.2791 135.307 54.2513C135.523 54.2235 135.71 54.1713 135.87 54.0949C136.03 54.0114 136.159 53.9037 136.256 53.7716C136.353 53.6325 136.402 53.4518 136.402 53.2293C136.402 53.0346 136.36 52.8713 136.277 52.7392C136.2 52.6071 136.089 52.5028 135.943 52.4263C135.804 52.3498 135.637 52.2942 135.443 52.2595C135.255 52.2247 135.05 52.2073 134.827 52.2073H133.534Z" fill="#D3AF4A"/>
<path d="M138.33 52.0717C138.33 51.599 138.396 51.1888 138.528 50.8412C138.667 50.4866 138.845 50.1912 139.06 49.9548C139.283 49.7184 139.533 49.5446 139.811 49.4334C140.096 49.3152 140.388 49.2561 140.687 49.2561C141.348 49.2561 141.872 49.4716 142.262 49.9026C142.658 50.3337 142.856 50.9976 142.856 51.8945C142.856 51.9501 142.853 52.0057 142.846 52.0613C142.846 52.1169 142.842 52.1691 142.835 52.2177H139.05C139.071 52.8782 139.234 53.3857 139.54 53.7403C139.846 54.0949 140.333 54.2721 141 54.2721C141.368 54.2721 141.66 54.2374 141.876 54.1679C142.091 54.0983 142.248 54.0392 142.345 53.9906L142.47 54.5746C142.373 54.6302 142.189 54.6962 141.918 54.7727C141.653 54.8492 141.341 54.8874 140.979 54.8874C140.506 54.8874 140.103 54.8179 139.769 54.6788C139.436 54.5398 139.161 54.3451 138.946 54.0949C138.73 53.8446 138.574 53.5491 138.476 53.2084C138.379 52.8608 138.33 52.4819 138.33 52.0717ZM142.158 51.6442C142.144 51.081 142.012 50.6431 141.761 50.3302C141.511 50.0173 141.156 49.8609 140.698 49.8609C140.454 49.8609 140.235 49.9096 140.041 50.0069C139.853 50.1043 139.686 50.2363 139.54 50.4032C139.401 50.5631 139.29 50.7508 139.206 50.9663C139.13 51.1819 139.085 51.4078 139.071 51.6442H142.158Z" fill="#D3AF4A"/>
<path d="M145.149 53.8029C145.211 53.8515 145.288 53.9037 145.378 53.9593C145.476 54.0149 145.587 54.067 145.712 54.1157C145.837 54.1644 145.973 54.2061 146.119 54.2409C146.265 54.2687 146.418 54.2826 146.578 54.2826C146.911 54.2826 147.189 54.2269 147.412 54.1157C147.641 53.9975 147.826 53.8411 147.965 53.6464C148.104 53.4448 148.204 53.2119 148.267 52.9477C148.33 52.6766 148.361 52.3916 148.361 52.0926C148.361 51.3835 148.184 50.8412 147.829 50.4658C147.474 50.0834 147.005 49.8922 146.421 49.8922C146.087 49.8922 145.816 49.9096 145.608 49.9444C145.406 49.9722 145.253 50.0034 145.149 50.0382V53.8029ZM145.149 56.702H144.471V49.5689C144.673 49.4994 144.93 49.4334 145.243 49.3708C145.556 49.3082 145.952 49.2769 146.432 49.2769C146.828 49.2769 147.186 49.343 147.506 49.4751C147.832 49.6002 148.111 49.7844 148.34 50.0278C148.576 50.2711 148.757 50.5666 148.882 50.9142C149.014 51.2618 149.08 51.6546 149.08 52.0926C149.08 52.5028 149.025 52.8817 148.914 53.2293C148.809 53.57 148.653 53.8654 148.444 54.1157C148.236 54.359 147.978 54.5502 147.673 54.6893C147.374 54.8283 147.03 54.8978 146.64 54.8978C146.286 54.8978 145.976 54.8492 145.712 54.7518C145.455 54.6476 145.267 54.5502 145.149 54.4599V56.702Z" fill="#D3AF4A"/>
<path d="M150.332 52.0717C150.332 51.599 150.398 51.1888 150.53 50.8412C150.669 50.4866 150.846 50.1912 151.062 49.9548C151.284 49.7184 151.535 49.5446 151.813 49.4334C152.098 49.3152 152.39 49.2561 152.689 49.2561C153.349 49.2561 153.874 49.4716 154.263 49.9026C154.66 50.3337 154.858 50.9976 154.858 51.8945C154.858 51.9501 154.854 52.0057 154.847 52.0613C154.847 52.1169 154.844 52.1691 154.837 52.2177H151.051C151.072 52.8782 151.236 53.3857 151.542 53.7403C151.848 54.0949 152.334 54.2721 153.002 54.2721C153.37 54.2721 153.662 54.2374 153.878 54.1679C154.093 54.0983 154.25 54.0392 154.347 53.9906L154.472 54.5746C154.375 54.6302 154.19 54.6962 153.919 54.7727C153.655 54.8492 153.342 54.8874 152.981 54.8874C152.508 54.8874 152.105 54.8179 151.771 54.6788C151.437 54.5398 151.163 54.3451 150.947 54.0949C150.732 53.8446 150.575 53.5491 150.478 53.2084C150.381 52.8608 150.332 52.4819 150.332 52.0717ZM154.159 51.6442C154.145 51.081 154.013 50.6431 153.763 50.3302C153.513 50.0173 153.158 49.8609 152.699 49.8609C152.456 49.8609 152.237 49.9096 152.042 50.0069C151.854 50.1043 151.688 50.2363 151.542 50.4032C151.403 50.5631 151.291 50.7508 151.208 50.9663C151.131 51.1819 151.086 51.4078 151.072 51.6442H154.159Z" fill="#D3AF4A"/>
<path d="M160.759 54.7727H160.081V52.2595H157.151V54.7727H156.473V49.3812H157.151V51.6859H160.081V49.3812H160.759V54.7727Z" fill="#D3AF4A"/>
<path d="M166.943 54.7727H166.265V52.2595H163.335V54.7727H162.657V49.3812H163.335V51.6859H166.265V49.3812H166.943V54.7727Z" fill="#D3AF4A"/>
<path d="M170.541 54.2826C170.805 54.2826 171.034 54.2756 171.229 54.2617C171.431 54.2409 171.601 54.2165 171.74 54.1887V52.2907C171.664 52.256 171.542 52.2212 171.375 52.1865C171.208 52.1447 170.979 52.1239 170.687 52.1239C170.52 52.1239 170.346 52.1378 170.165 52.1656C169.985 52.1865 169.818 52.2386 169.665 52.322C169.512 52.3985 169.387 52.5063 169.289 52.6453C169.192 52.7844 169.143 52.9686 169.143 53.198C169.143 53.3996 169.175 53.57 169.237 53.709C169.307 53.8481 169.401 53.9593 169.519 54.0427C169.644 54.1261 169.79 54.1887 169.957 54.2304C170.131 54.2652 170.325 54.2826 170.541 54.2826ZM170.478 49.2561C170.833 49.2561 171.132 49.3082 171.375 49.4125C171.625 49.5098 171.827 49.6489 171.98 49.8296C172.133 50.0034 172.244 50.212 172.314 50.4553C172.383 50.6987 172.418 50.9629 172.418 51.2479V54.6476C172.348 54.6684 172.248 54.6928 172.116 54.7206C171.983 54.7414 171.83 54.7658 171.657 54.7936C171.483 54.8214 171.288 54.8422 171.073 54.8561C170.864 54.877 170.649 54.8874 170.426 54.8874C170.141 54.8874 169.877 54.8561 169.634 54.7936C169.397 54.731 169.189 54.6337 169.008 54.5016C168.834 54.3625 168.695 54.1887 168.591 53.9801C168.493 53.7646 168.445 53.5039 168.445 53.198C168.445 52.906 168.5 52.6557 168.612 52.4472C168.723 52.2386 168.879 52.0683 169.081 51.9362C169.282 51.7971 169.522 51.6963 169.8 51.6338C170.078 51.5712 170.381 51.5399 170.708 51.5399C170.805 51.5399 170.906 51.5468 171.01 51.5608C171.121 51.5677 171.226 51.5816 171.323 51.6025C171.427 51.6164 171.514 51.6338 171.584 51.6546C171.66 51.6685 171.712 51.6824 171.74 51.6963V51.3626C171.74 51.1749 171.726 50.9941 171.698 50.8203C171.671 50.6396 171.608 50.4797 171.511 50.3406C171.42 50.1946 171.288 50.0799 171.114 49.9965C170.948 49.9061 170.725 49.8609 170.447 49.8609C170.051 49.8609 169.755 49.8887 169.561 49.9444C169.366 50 169.223 50.0452 169.133 50.0799L169.039 49.4855C169.157 49.4299 169.338 49.3777 169.581 49.3291C169.832 49.2804 170.131 49.2561 170.478 49.2561Z" fill="#D3AF4A"/>
<path d="M175.649 52.5723C175.544 52.7322 175.43 52.906 175.304 53.0937C175.186 53.2814 175.068 53.4726 174.95 53.6673C174.839 53.862 174.731 54.0566 174.627 54.2513C174.522 54.439 174.435 54.6128 174.366 54.7727H173.667C173.848 54.3625 174.067 53.9489 174.324 53.5317C174.581 53.1146 174.821 52.7496 175.044 52.4367C174.905 52.395 174.769 52.3359 174.637 52.2595C174.512 52.183 174.397 52.0856 174.293 51.9675C174.196 51.8493 174.116 51.7102 174.053 51.5503C173.99 51.3835 173.959 51.1958 173.959 50.9872C173.959 50.6882 174.015 50.431 174.126 50.2155C174.244 50 174.401 49.8227 174.595 49.6836C174.797 49.5446 175.033 49.4403 175.304 49.3708C175.582 49.3013 175.878 49.2665 176.191 49.2665C176.33 49.2665 176.483 49.2735 176.65 49.2874C176.823 49.3013 176.994 49.3221 177.161 49.3499C177.334 49.3708 177.494 49.3951 177.64 49.4229C177.786 49.4507 177.908 49.4785 178.005 49.5064V54.7727H177.328V52.6036H176.358C176.205 52.6036 176.066 52.6036 175.941 52.6036C175.822 52.5966 175.725 52.5862 175.649 52.5723ZM177.328 49.9652C177.244 49.9444 177.109 49.9235 176.921 49.9026C176.733 49.8748 176.493 49.8609 176.201 49.8609C176.007 49.8609 175.815 49.8818 175.628 49.9235C175.447 49.9583 175.284 50.0208 175.138 50.1112C174.992 50.2016 174.873 50.3198 174.783 50.4658C174.7 50.6048 174.658 50.7786 174.658 50.9872C174.658 51.1888 174.696 51.3591 174.773 51.4982C174.849 51.6303 174.957 51.738 175.096 51.8215C175.235 51.8979 175.402 51.9536 175.596 51.9883C175.798 52.0231 176.02 52.0405 176.264 52.0405H177.328V49.9652Z" fill="#D3AF4A"/>
<path d="M183.634 54.2826C184.121 54.2826 184.503 54.2026 184.781 54.0427C185.059 53.8759 185.199 53.6291 185.199 53.3023C185.199 53.0659 185.146 52.8782 185.042 52.7392C184.938 52.6001 184.806 52.4924 184.646 52.4159C184.493 52.3394 184.326 52.2907 184.145 52.2699C183.971 52.2421 183.812 52.2282 183.666 52.2282H182.915V51.6546H183.613C183.739 51.6546 183.881 51.6442 184.041 51.6233C184.208 51.6025 184.361 51.5608 184.5 51.4982C184.639 51.4356 184.757 51.3487 184.854 51.2375C184.952 51.1193 185 50.9663 185 50.7786C185 50.5979 184.959 50.4484 184.875 50.3302C184.799 50.212 184.694 50.1182 184.562 50.0486C184.43 49.9791 184.277 49.9304 184.104 49.9026C183.937 49.8748 183.766 49.8609 183.593 49.8609C183.196 49.8609 182.883 49.9026 182.654 49.9861C182.425 50.0625 182.268 50.1216 182.185 50.1633L182.028 49.5585C182.126 49.5098 182.31 49.4507 182.581 49.3812C182.852 49.3047 183.189 49.2665 183.593 49.2665C184.281 49.2665 184.802 49.3916 185.157 49.6419C185.511 49.8922 185.689 50.2642 185.689 50.7578C185.689 51.0637 185.598 51.3139 185.418 51.5086C185.237 51.6963 185.025 51.8284 184.781 51.9049C185.122 52.0022 185.393 52.1656 185.595 52.395C185.796 52.6245 185.897 52.9269 185.897 53.3023C185.897 53.8376 185.706 54.2374 185.324 54.5016C184.941 54.7658 184.382 54.8978 183.645 54.8978C183.151 54.8978 182.755 54.8561 182.456 54.7727C182.157 54.6893 181.966 54.6267 181.882 54.585L182.06 53.9697C182.08 53.9836 182.126 54.008 182.195 54.0427C182.272 54.0705 182.376 54.1053 182.508 54.147C182.64 54.1818 182.8 54.213 182.988 54.2409C183.175 54.2687 183.391 54.2826 183.634 54.2826Z" fill="#D3AF4A"/>
<path d="M189.157 54.2826C189.421 54.2826 189.65 54.2756 189.845 54.2617C190.047 54.2409 190.217 54.2165 190.356 54.1887V52.2907C190.28 52.256 190.158 52.2212 189.991 52.1865C189.824 52.1447 189.595 52.1239 189.303 52.1239C189.136 52.1239 188.962 52.1378 188.781 52.1656C188.601 52.1865 188.434 52.2386 188.281 52.322C188.128 52.3985 188.003 52.5063 187.905 52.6453C187.808 52.7844 187.759 52.9686 187.759 53.198C187.759 53.3996 187.791 53.57 187.853 53.709C187.923 53.8481 188.017 53.9593 188.135 54.0427C188.26 54.1261 188.406 54.1887 188.573 54.2304C188.747 54.2652 188.941 54.2826 189.157 54.2826ZM189.094 49.2561C189.449 49.2561 189.748 49.3082 189.991 49.4125C190.241 49.5098 190.443 49.6489 190.596 49.8296C190.749 50.0034 190.86 50.212 190.93 50.4553C190.999 50.6987 191.034 50.9629 191.034 51.2479V54.6476C190.964 54.6684 190.864 54.6928 190.731 54.7206C190.599 54.7414 190.446 54.7658 190.273 54.7936C190.099 54.8214 189.904 54.8422 189.689 54.8561C189.48 54.877 189.265 54.8874 189.042 54.8874C188.757 54.8874 188.493 54.8561 188.249 54.7936C188.013 54.731 187.805 54.6337 187.624 54.5016C187.45 54.3625 187.311 54.1887 187.207 53.9801C187.109 53.7646 187.061 53.5039 187.061 53.198C187.061 52.906 187.116 52.6557 187.228 52.4472C187.339 52.2386 187.495 52.0683 187.697 51.9362C187.898 51.7971 188.138 51.6963 188.416 51.6338C188.694 51.5712 188.997 51.5399 189.324 51.5399C189.421 51.5399 189.522 51.5468 189.626 51.5608C189.737 51.5677 189.842 51.5816 189.939 51.6025C190.043 51.6164 190.13 51.6338 190.2 51.6546C190.276 51.6685 190.328 51.6824 190.356 51.6963V51.3626C190.356 51.1749 190.342 50.9941 190.314 50.8203C190.286 50.6396 190.224 50.4797 190.127 50.3406C190.036 50.1946 189.904 50.0799 189.73 49.9965C189.563 49.9061 189.341 49.8609 189.063 49.8609C188.667 49.8609 188.371 49.8887 188.176 49.9444C187.982 50 187.839 50.0452 187.749 50.0799L187.655 49.4855C187.773 49.4299 187.954 49.3777 188.197 49.3291C188.448 49.2804 188.747 49.2561 189.094 49.2561Z" fill="#D3AF4A"/>
<path d="M199.427 54.7727H192.867V49.3812H193.545V54.1991H195.829V49.3812H196.507V54.1991H198.79V49.3812H199.468V54.1991H200.084V56.264H199.427V54.7727Z" fill="#D3AF4A"/>
<path d="M205.075 50.2468C204.866 50.4971 204.623 50.8134 204.345 51.1958C204.073 51.5781 203.795 51.9814 203.51 52.4055C203.232 52.8295 202.965 53.2502 202.707 53.6673C202.45 54.0844 202.228 54.4529 202.04 54.7727H201.404V49.3812H202.071V53.6986C202.238 53.3996 202.443 53.0555 202.686 52.6662C202.937 52.2699 203.201 51.8736 203.479 51.4773C203.757 51.0741 204.035 50.6882 204.313 50.3198C204.598 49.9513 204.862 49.6385 205.106 49.3812H205.742V54.7727H205.075V50.2468Z" fill="#D3AF4A"/>
<path d="M211.111 49.3812V49.9548H209.339V54.7727H208.661V49.9548H206.898V49.3812H211.111Z" fill="#D3AF4A"/>
<path d="M213.965 54.2826C214.229 54.2826 214.458 54.2756 214.653 54.2617C214.854 54.2409 215.025 54.2165 215.164 54.1887V52.2907C215.087 52.256 214.966 52.2212 214.799 52.1865C214.632 52.1447 214.403 52.1239 214.111 52.1239C213.944 52.1239 213.77 52.1378 213.589 52.1656C213.408 52.1865 213.242 52.2386 213.089 52.322C212.936 52.3985 212.811 52.5063 212.713 52.6453C212.616 52.7844 212.567 52.9686 212.567 53.198C212.567 53.3996 212.598 53.57 212.661 53.709C212.731 53.8481 212.824 53.9593 212.943 54.0427C213.068 54.1261 213.214 54.1887 213.381 54.2304C213.554 54.2652 213.749 54.2826 213.965 54.2826ZM213.902 49.2561C214.257 49.2561 214.556 49.3082 214.799 49.4125C215.049 49.5098 215.251 49.6489 215.404 49.8296C215.557 50.0034 215.668 50.212 215.737 50.4553C215.807 50.6987 215.842 50.9629 215.842 51.2479V54.6476C215.772 54.6684 215.671 54.6928 215.539 54.7206C215.407 54.7414 215.254 54.7658 215.08 54.7936C214.907 54.8214 214.712 54.8422 214.496 54.8561C214.288 54.877 214.072 54.8874 213.85 54.8874C213.565 54.8874 213.301 54.8561 213.057 54.7936C212.821 54.731 212.612 54.6337 212.432 54.5016C212.258 54.3625 212.119 54.1887 212.014 53.9801C211.917 53.7646 211.868 53.5039 211.868 53.198C211.868 52.906 211.924 52.6557 212.035 52.4472C212.147 52.2386 212.303 52.0683 212.505 51.9362C212.706 51.7971 212.946 51.6963 213.224 51.6338C213.502 51.5712 213.805 51.5399 214.131 51.5399C214.229 51.5399 214.33 51.5468 214.434 51.5608C214.545 51.5677 214.649 51.5816 214.747 51.6025C214.851 51.6164 214.938 51.6338 215.007 51.6546C215.084 51.6685 215.136 51.6824 215.164 51.6963V51.3626C215.164 51.1749 215.15 50.9941 215.122 50.8203C215.094 50.6396 215.032 50.4797 214.934 50.3406C214.844 50.1946 214.712 50.0799 214.538 49.9965C214.371 49.9061 214.149 49.8609 213.871 49.8609C213.474 49.8609 213.179 49.8887 212.984 49.9444C212.79 50 212.647 50.0452 212.557 50.0799L212.463 49.4855C212.581 49.4299 212.762 49.3777 213.005 49.3291C213.255 49.2804 213.554 49.2561 213.902 49.2561Z" fill="#D3AF4A"/>
<path d="M218.634 54.3243C218.634 54.4842 218.582 54.6198 218.478 54.731C218.381 54.8422 218.242 54.8978 218.061 54.8978C217.88 54.8978 217.737 54.8422 217.633 54.731C217.536 54.6198 217.487 54.4842 217.487 54.3243C217.487 54.1644 217.536 54.0288 217.633 53.9176C217.737 53.8063 217.88 53.7507 218.061 53.7507C218.242 53.7507 218.381 53.8063 218.478 53.9176C218.582 54.0288 218.634 54.1644 218.634 54.3243Z" fill="#D3AF4A"/>
<path d="M50.5894 41.1926H216.981" stroke="#D3AF4A" stroke-width="2" stroke-miterlimit="10"/>
<path fill-rule="evenodd" clip-rule="evenodd" d="M0 42.1427H16.0134V41.0767H0V42.1427ZM0 40.4973L16.0134 40.5437V40.2424L0 40.2888V40.4973Z" fill="#D3AD4A"/>
<path fill-rule="evenodd" clip-rule="evenodd" d="M5.07507 20.3589C5.07507 20.3589 5.02872 19.5479 5.74712 18.7599C6.46552 17.9488 8.85247 17.9488 9.89531 17.6476C10.915 17.3463 10.9613 16.5815 10.9613 16.5815V13.4762C10.9613 13.4762 10.9382 14.2178 9.89531 14.5422C8.87564 14.8435 6.4887 14.8435 5.74712 15.6546C5.05189 16.4425 5.07507 17.2536 5.07507 17.2536V20.3589Z" fill="#AB8B2F"/>
<path fill-rule="evenodd" clip-rule="evenodd" d="M10.9383 16.6047C10.9383 16.6047 10.9846 15.7936 10.2894 15.0056C9.571 14.1945 7.18405 14.1945 6.16438 13.8933C5.14471 13.592 5.0752 12.8273 5.0752 12.8273V9.69873C5.0752 9.69873 5.12154 10.4403 6.16438 10.7647C7.18405 11.066 9.571 11.066 10.2894 11.8771C10.9846 12.665 10.9383 13.4761 10.9383 13.4761V16.6047Z" fill="#D3AF4A"/>
<path fill-rule="evenodd" clip-rule="evenodd" d="M5.07507 27.8906C5.07507 27.8906 5.02872 27.0795 5.74712 26.2915C6.46552 25.4804 8.85247 25.4804 9.89531 25.1792C10.915 24.8779 10.9613 24.1132 10.9613 24.1132V21.0078C10.9613 21.0078 10.9382 21.7494 9.89531 22.0738C8.87564 22.3751 6.4887 22.3751 5.74712 23.1862C5.05189 23.9741 5.07507 24.7852 5.07507 24.7852V27.8906Z" fill="#AB8B2F"/>
<path fill-rule="evenodd" clip-rule="evenodd" d="M10.9383 24.1131C10.9383 24.1131 10.9846 23.302 10.2894 22.5141C9.571 21.703 7.18405 21.703 6.16438 21.4017C5.14471 21.1004 5.0752 20.3357 5.0752 20.3357V17.2303C5.0752 17.2303 5.12154 17.9719 6.16438 18.2964C7.18405 18.5976 9.571 18.5976 10.2894 19.4087C10.9846 20.1967 10.9383 21.0078 10.9383 21.0078V24.1131Z" fill="#D3AF4A"/>
<path fill-rule="evenodd" clip-rule="evenodd" d="M5.07507 35.4222C5.07507 35.4222 5.02872 34.6111 5.74712 33.8232C6.46552 33.0121 8.85247 33.0121 9.89531 32.7108C10.915 32.4095 10.9613 31.6448 10.9613 31.6448V28.5394C10.9613 28.5394 10.9382 29.281 9.89531 29.6054C8.87564 29.9067 6.4887 29.9067 5.74712 30.7178C5.05189 31.5057 5.07507 32.3168 5.07507 32.3168V35.4222Z" fill="#AB8B2F"/>
</svg>
