<svg width="1344" height="303" viewBox="0 0 1344 303" fill="none" xmlns="http://www.w3.org/2000/svg"><path d="M16.1 297.15c-5.6 0-9.683-1.283-12.25-3.85S0 286.65 0 281.05V240.1c0-3.033.35-5.6 1.05-7.7.933-2.1 2.217-3.85 3.85-5.25l35-29.4c-12.367-3.733-22.167-10.033-29.4-18.9C3.5 169.75 0 156.8 0 140v-36.75c0-10.5 1.75-19.833 5.25-28 3.5-8.167 8.517-15.05 15.05-20.65l45.5-38.15c6.3-5.133 14.117-9.1 23.45-11.9C98.583 1.517 109.2 0 121.1 0h98c5.6 0 9.683 1.283 12.25 3.85s3.85 6.65 3.85 12.25v41.65c0 3.033-.467 5.6-1.4 7.7-.7 2.1-1.867 3.85-3.5 5.25l-31.5 26.25c14.7 3.267 26.483 9.45 35.35 18.55 9.1 8.867 13.65 22.75 13.65 41.65v36.75c0 10.5-1.75 19.833-5.25 28-3.5 8.167-8.633 15.05-15.4 20.65L182 280.35c-6.533 5.367-14.467 9.45-23.8 12.25-9.333 3.033-19.833 4.55-31.5 4.55H16.1zm155.75-41.65c22.4 0 40.017-5.25 52.85-15.75 13.067-10.733 19.6-26.017 19.6-45.85v-36.75c0-19.6-5.017-33.6-15.05-42-10.033-8.4-23.217-13.767-39.55-16.1l-52.15-7c-3.033-.233-5.367-1.4-7-3.5s-2.45-4.667-2.45-7.7c0-3.033.817-5.483 2.45-7.35 1.633-2.1 3.967-3.15 7-3.15h81.55c4.433 0 7.583-.933 9.45-2.8 2.1-2.1 3.15-5.367 3.15-9.8V16.1c0-4.433-1.05-7.583-3.15-9.45-1.867-2.1-5.017-3.15-9.45-3.15h-98c-22.633 0-40.367 5.367-53.2 16.1-12.833 10.5-19.25 25.667-19.25 45.5v36.75c0 19.6 4.9 33.6 14.7 42 10.033 8.4 23.217 13.767 39.55 16.1l52.5 7.35c3.033.233 5.25 1.283 6.65 3.15 1.633 1.867 2.45 4.783 2.45 8.75 0 2.8-.817 5.25-2.45 7.35-1.4 1.867-3.617 2.8-6.65 2.8H61.25c-4.433 0-7.7 1.05-9.8 3.15-1.867 1.867-2.8 5.017-2.8 9.45v40.95c0 4.433.933 7.7 2.8 9.8 2.1 1.867 5.367 2.8 9.8 2.8h110.6zM200.2 35v3.5h-77.7c-9.8 0-17.617 2.683-23.45 8.05-5.833 5.367-8.75 12.133-8.75 20.3v28.7c0 8.167 1.633 13.883 4.9 17.15 3.267 3.267 7.583 5.367 12.95 6.3L182 134.05c7 1.4 12.717 4.433 17.15 9.1 4.667 4.667 7 13.067 7 25.2v20.3c0 10.267-3.5 18.783-10.5 25.55-7 6.533-16.45 9.8-28.35 9.8H80.15v-3.5h87.15c10.733 0 19.25-2.917 25.55-8.75 6.533-6.067 9.8-13.767 9.8-23.1v-20.3c0-10.967-1.983-18.433-5.95-22.4-3.733-4.2-8.867-7-15.4-8.4l-73.85-15.05c-6.067-1.167-11.083-3.5-15.05-7-3.733-3.733-5.6-10.383-5.6-19.95v-28.7c0-9.333 3.267-16.917 9.8-22.75 6.533-6.067 15.167-9.1 25.9-9.1h77.7zm178.5 267.4c-22.633 0-41.3-2.45-56-7.35-14.467-4.667-25.783-10.967-33.95-18.9-8.167-7.933-13.883-17.033-17.15-27.3-3.033-10.267-4.55-20.883-4.55-31.85V54.25c0-3.033.35-5.6 1.05-7.7.933-2.1 2.217-3.85 3.85-5.25L317.1 3.15c1.167-.933 2.683-1.633 4.55-2.1 2.1-.7 4.317-1.05 6.65-1.05h54.95c5.6 0 9.683 1.283 12.25 3.85s3.85 6.65 3.85 12.25v159.6c0 2.1.35 4.083 1.05 5.95.7 1.633 2.217 2.917 4.55 3.85V54.25c0-3.033.35-5.6 1.05-7.7.7-2.1 1.75-3.733 3.15-4.9l.35-.35L455 3.15c1.167-.933 2.683-1.633 4.55-2.1C461.417.35 463.633 0 466.2 0h53.2c5.6 0 9.683 1.283 12.25 3.85s3.85 6.65 3.85 12.25v173.25c0 10.733-1.517 20.65-4.55 29.75-3.033 9.1-8.517 16.917-16.45 23.45l-45.5 37.8c-8.167 7-19.483 12.367-33.95 16.1-14.467 3.967-33.25 5.95-56.35 5.95zM532 189.35V16.1c0-4.433-1.05-7.583-3.15-9.45-1.867-2.1-5.017-3.15-9.45-3.15h-53.2c-4.433 0-7.7 1.05-9.8 3.15-1.867 1.867-2.8 5.017-2.8 9.45v159.6c0 4.667-1.75 8.633-5.25 11.9-3.5 3.033-11.433 4.55-23.8 4.55-12.133 0-19.95-1.517-23.45-4.55-3.5-3.267-5.25-7.233-5.25-11.9V16.1c0-4.433-1.05-7.583-3.15-9.45-1.867-2.1-5.017-3.15-9.45-3.15H328.3c-4.433 0-7.7 1.05-9.8 3.15-1.867 1.867-2.8 5.017-2.8 9.45v173.25c0 10.733 1.517 20.533 4.55 29.4 3.267 8.633 8.867 16.1 16.8 22.4 8.167 6.067 19.25 10.85 33.25 14.35s31.85 5.25 53.55 5.25c21.7 0 39.55-1.75 53.55-5.25s24.967-8.283 32.9-14.35c8.167-6.3 13.767-13.767 16.8-22.4 3.267-8.867 4.9-18.667 4.9-29.4zM354.2 35h3.5v145.95c0 13.067 4.55 23.683 13.65 31.85 9.333 7.933 26.95 11.9 52.85 11.9 25.9 0 43.517-3.967 52.85-11.9 9.333-8.167 14-18.783 14-31.85V35h3.5v145.95c0 14-4.9 25.433-14.7 34.3-9.8 8.633-28.35 12.95-55.65 12.95-27.3 0-45.85-4.317-55.65-12.95-9.567-8.867-14.35-20.3-14.35-34.3V35zm389.096 262.15h-162.4c-5.6 0-9.683-1.283-12.25-3.85s-3.85-6.65-3.85-12.25V54.25c0-3.033.35-5.6 1.05-7.7.933-2.1 2.217-3.85 3.85-5.25l45.15-38.15c1.167-.933 2.683-1.633 4.55-2.1 2.1-.7 4.317-1.05 6.65-1.05h162.4c5.6 0 9.683 1.283 12.25 3.85s3.85 6.65 3.85 12.25v40.95c0 3.033-.467 5.6-1.4 7.7-.7 2.1-1.867 3.85-3.5 5.25l-30.1 24.85c2.333 1.167 3.967 2.917 4.9 5.25 1.167 2.333 1.75 5.367 1.75 9.1v37.45c0 3.033-.467 5.6-1.4 7.7-.7 2.1-1.867 3.85-3.5 5.25l-31.15 26.25h48.3c5.6 0 9.683 1.283 12.25 3.85s3.85 6.65 3.85 12.25v40.95c0 3.033-.467 5.6-1.4 7.7-.7 2.1-1.867 3.85-3.5 5.25l-45.5 37.8c-.933.933-2.45 1.75-4.55 2.45-1.867.7-3.967 1.05-6.3 1.05zm45.15-41.65c4.433 0 7.583-.933 9.45-2.8 2.1-2.1 3.15-5.367 3.15-9.8v-40.95c0-4.433-1.05-7.583-3.15-9.45-1.867-2.1-5.017-3.15-9.45-3.15h-96.6v-30.1h68.25c4.433 0 7.583-.933 9.45-2.8 2.1-2.1 3.15-5.367 3.15-9.8V109.2c0-4.433-1.05-7.583-3.15-9.45-1.867-2.1-5.017-3.15-9.45-3.15h-68.25V69.65h96.6c4.433 0 7.583-.933 9.45-2.8 2.1-2.1 3.15-5.367 3.15-9.8V16.1c0-4.433-1.05-7.583-3.15-9.45-1.867-2.1-5.017-3.15-9.45-3.15h-162.4c-4.433 0-7.7 1.05-9.8 3.15-1.867 1.867-2.8 5.017-2.8 9.45v226.8c0 4.433.933 7.7 2.8 9.8 2.1 1.867 5.367 2.8 9.8 2.8h162.4zm-18.9-35v3.5h-117.95V35h117.95v3.5h-114.45v87.85h86.1v3.5h-86.1v90.65h114.45zm181.617 76.65h-56.7c-5.6 0-9.683-1.283-12.25-3.85-2.566-2.567-3.85-6.65-3.85-12.25V112.7h-47.95c-5.6 0-9.683-1.283-12.25-3.85-2.566-2.567-3.85-6.65-3.85-12.25V54.25c0-3.033.35-5.6 1.05-7.7.934-2.1 2.217-3.85 3.85-5.25l45.15-38.15c1.167-.933 2.684-1.633 4.55-2.1 2.1-.7 4.317-1.05 6.65-1.05h184.797c5.6 0 9.69 1.283 12.25 3.85 2.57 2.567 3.85 6.65 3.85 12.25v42.35c0 3.033-.46 5.6-1.4 7.7-.7 2.1-1.86 3.85-3.5 5.25l-45.5 37.8c-.93.933-2.45 1.75-4.55 2.45-1.86.7-3.96 1.05-6.3 1.05h-2.8v130.2c0 3.033-.46 5.6-1.4 7.7-.7 2.1-1.86 3.85-3.5 5.25l-45.497 37.8c-.933.933-2.45 1.75-4.55 2.45-1.866.7-3.966 1.05-6.3 1.05zm45.15-41.65c4.437 0 7.587-.933 9.447-2.8 2.1-2.1 3.15-5.367 3.15-9.8V71.05h51.45c4.44 0 7.59-.933 9.45-2.8 2.1-2.1 3.15-5.367 3.15-9.8V16.1c0-4.433-1.05-7.583-3.15-9.45-1.86-2.1-5.01-3.15-9.45-3.15H875.563c-4.433 0-7.7 1.05-9.8 3.15-1.866 1.867-2.8 5.017-2.8 9.45v42.35c0 4.433.934 7.7 2.8 9.8 2.1 1.867 5.367 2.8 9.8 2.8h51.45V242.9c0 4.433.934 7.7 2.8 9.8 2.1 1.867 5.367 2.8 9.8 2.8h56.7zm-30.1-31.5V38.5h-71.75V35h146.997v3.5h-71.747V224h-3.5zm196.987-74.55v10.85h136.5v-10.85c0-6.3-.58-12.133-1.75-17.5-.93-5.367-2.22-10.383-3.85-15.05l-24.15-57.05c-2.57-6.067-5.25-11.083-8.05-15.05-2.8-4.2-7.47-6.3-14-6.3h-34.3c-7 0-11.9 2.1-14.7 6.3-2.8 3.967-5.37 8.867-7.7 14.7l-22.4 57.4c-1.63 4.667-3.03 9.683-4.2 15.05-.93 5.367-1.4 11.2-1.4 17.5zm56-72.45c.93-2.1 1.87-3.617 2.8-4.55 1.17-.933 2.45-1.4 3.85-1.4h8.75c1.4 0 2.57.467 3.5 1.4 1.17.933 2.22 2.45 3.15 4.55l16.45 53.2h-54.95L1219.2 77zm80.5 147v-60.2h-136.5V224h-3.5v-74.55c0-6.533.47-12.483 1.4-17.85 1.17-5.6 2.68-10.967 4.55-16.1l22.4-57.4c2.57-6.533 5.48-12.017 8.75-16.45 3.27-4.433 8.87-6.65 16.8-6.65h34.3c7.7 0 13.07 2.217 16.1 6.65 3.27 4.433 6.3 10.033 9.1 16.8l24.15 57.05c1.87 5.133 3.27 10.5 4.2 16.1 1.17 5.367 1.75 11.317 1.75 17.85V224h-3.5zm-100.45 18.9v-49h61.95v49c0 4.433 1.05 7.7 3.15 9.8 2.33 1.867 5.83 2.8 10.5 2.8h52.85c4.43 0 7.58-.933 9.45-2.8 2.1-2.1 3.15-5.367 3.15-9.8v-92.4c0-7-1.17-15.05-3.5-24.15-2.1-9.1-5.48-19.717-10.15-31.85l-30.45-79.45c-1.4-3.967-3.62-6.883-6.65-8.75-2.8-1.867-6.42-2.8-10.85-2.8h-94.15c-4.67 0-8.52.933-11.55 2.8-2.8 1.867-4.9 4.783-6.3 8.75l-30.45 79.45c-4.67 12.133-8.17 22.75-10.5 31.85-2.1 9.1-3.15 17.15-3.15 24.15v92.4c0 4.433.93 7.7 2.8 9.8 2.1 1.867 5.37 2.8 9.8 2.8h51.45c4.43 0 7.58-.933 9.45-2.8 2.1-2.1 3.15-5.367 3.15-9.8zm-46.9 50.75c-.93.933-2.45 1.75-4.55 2.45-1.87.7-3.97 1.05-6.3 1.05h-51.45c-5.6 0-9.68-1.283-12.25-3.85-2.57-2.567-3.85-6.65-3.85-12.25v-92.4c0-7.233 1.05-15.4 3.15-24.5 2.33-9.333 5.95-20.3 10.85-32.9l30.1-79.1c.7-2.1 1.52-3.85 2.45-5.25 1.17-1.633 2.33-3.033 3.5-4.2l.35-.35 44.8-37.45c1.87-1.633 4.08-2.8 6.65-3.5 2.57-.933 5.48-1.4 8.75-1.4h94.15c5.37 0 9.68 1.167 12.95 3.5 3.5 2.1 6.07 5.483 7.7 10.15l30.45 79.45c4.9 12.6 8.4 23.567 10.5 32.9 2.33 9.1 3.5 17.267 3.5 24.5v92.4c0 3.033-.47 5.6-1.4 7.7-.7 2.1-1.87 3.85-3.5 5.25l-45.5 37.8c-.93.933-2.45 1.75-4.55 2.45-1.87.7-3.97 1.05-6.3 1.05h-52.85c-5.83 0-10.15-1.4-12.95-4.2-2.8-2.567-4.2-6.533-4.2-11.9v-45.5h-9.8v7.35c0 3.033-.47 5.6-1.4 7.7-.7 2.1-1.87 3.85-3.5 5.25l-45.5 37.8z" fill="#fff"/></svg>