<svg width="200" height="112" viewBox="0 0 200 112" fill="none" xmlns="http://www.w3.org/2000/svg"><path d="M10.737 82.5l-8.036-7.42 13.01-8.734L2.865 53.829l21.782-6.102M190.23 84.063l7.008-7.317-11.982-8.859 11.633-12.332L176.162 50M10.018 38.71l14.63 9.016m0 0l5.512-21.254 17.655 10.502 8.427-19.936 18.293 10.77 7.337-19.917 18.704 14.078m0-19.697V21.97m0 0L118.58 7.687l6.885 20.676 18.498-11.427 8.222 21.026 17.86-11.14L176.162 50m0 0l14.773-9.091M1.92 107.576V62.509a37.893 37.893 0 0124.918-35.601A139330.74 139330.74 0 0087.39 4.815a37.802 37.802 0 0126.332.142l59.854 22.572a37.866 37.866 0 0124.504 35.439v44.608l-17.137-49.782a22.727 22.727 0 00-14.055-14.079L107.802 23.26a22.727 22.727 0 00-14.495-.126L34.263 42.432a22.727 22.727 0 00-14.38 14.063L1.92 107.576z" stroke="#D5B378" stroke-width="3.083" stroke-linejoin="bevel"/></svg>