<svg width="200" height="112" viewBox="0 0 200 112" fill="none" xmlns="http://www.w3.org/2000/svg"><path fill-rule="evenodd" clip-rule="evenodd" d="M100.412 55.334c1.232-.838 1.212-1.716 2.169-1.655.349.022.711.082 1.192.12 1.543.12 3.127.307 4.746.434l4.591.482 10.277 10.27c.63.632 1.999 2.16 2.616 2.574l-6.662 6.749-4.044-4.011-1.996-2.006c-.416-.419-1.622-1.803-2.077-1.924L78.026 99.678l-2.749-2.82 33.17-33.392-8.035-8.132zm-3.318.083l7.9 7.995-33.17 33.393 6.257 6.233 33.17-33.284 7.982 7.97 10.139-10.138c-.368-.539-12.728-12.846-13.161-13.281-.566-.57-1.047-1.058-1.614-1.63-.609-.617-1.154-.322-2.79-.558-2.007-.29-4.014-.273-6.025-.558-.968-.137-2.007-.212-2.972-.266-2.067-.115-1.066-.61-4.076 2.416-.46.462-1.329 1.232-1.645 1.708h.005z" fill="#EEE"/><path fill-rule="evenodd" clip-rule="evenodd" d="M103.324 82.71l7.873 7.859c.737-.213 1.726-.974 3.369-1.115 4.119-.355 6.799 2.158 6.799 6.4l-3.318-3.278-7.388 7.372 3.289 3.361c-2.924.026-4.55-1.069-5.642-2.894-1.899-3.17.115-6.544.115-6.838 0-.35-3.565-3.745-3.856-4.038l-4.018-3.984 2.778-2.846-.001.001zm-6.257 2.82l8.575 8.565c-.656 2.617-.894 4.05.11 6.611.192.489.44.931.701 1.355l.913 1.143c2.237 2.453 5.859 3.059 9.024 2.073.383-.119.643-.206 1.051-.354.436-.159.683-.291 1.119-.393l-4.449-4.527c.4-.573 1.402-1.572 1.887-2.06.503-.505 1.578-1.47 1.916-1.978l4.612 4.579c.102-.348.26-.69.39-1.07.145-.429.253-.728.38-1.137 1.337-4.34-.267-8.565-4.23-10.579-1.912-.97-4.335-.936-6.376-.405-1.206.313-.653.59-1.922-.686-1.046-1.052-6.943-7.08-7.416-7.4l-6.283 6.261-.002.002zM78.729 53.707c2.647-.025 4.304.558 5.683 2.853.535.89.92 2.476.773 3.47-.111.76-.13 1.17-.346 1.826-.183.555-.47 1.1-.583 1.583l7.9 7.996-2.805 2.871-7.927-7.913c-2.039 1.061-4.356 1.672-6.75.604-.191-.085-.77-.398-.959-.552-1.634-1.346-2.404-2.75-2.404-5.391l3.319 3.278c.58-.18 4.928-4.79 5.553-5.42.481-.483 1.483-1.382 1.807-1.87l-3.261-3.335zm-4.612-1.325l4.504 4.58-3.938 4.011c-.397-.58-1.656-1.717-2.21-2.276-.429-.43-1.9-2.077-2.348-2.195-.354 1.531-1.186 2.271-1.186 5.203 0 4.636 3.925 8.24 7.768 8.24 1.797 0 1.809.04 3.475-.41.39-.105.396-.162.73-.241l8.388 8.374 6.31-6.288-8.522-8.51c.411-1.97.513-1.455.513-3.768 0-1.509-.725-3.305-1.556-4.509-.167-.241-.28-.296-.462-.512-2.215-2.632-5.805-3.511-9.108-2.476l-2.358.773v.004z" fill="#EEE"/><path d="M11.09 82.5l-8.036-7.419 13.01-8.735L3.218 53.829 25 47.727m165.582 36.336l7.008-7.317-11.982-8.859 11.633-12.331L176.515 50M10.37 38.712L25 47.727m0 0l5.513-21.254 17.655 10.502 8.427-19.936 18.292 10.77 7.338-19.917 18.703 14.078m0-19.697V21.97m0 0l18.005-14.283 6.885 20.676 18.498-11.427 8.222 21.026 17.86-11.14L176.515 50m0 0l14.773-9.09M2.273 107.575V62.509A37.893 37.893 0 0127.19 26.908C49.614 18.734 73.433 10.04 87.743 4.815a37.8 37.8 0 0126.331.142l59.855 22.572a37.864 37.864 0 0124.504 35.44v44.607l-17.137-49.782a22.728 22.728 0 00-14.055-14.079L108.155 23.26a22.728 22.728 0 00-14.496-.126L34.616 42.432a22.728 22.728 0 00-14.38 14.063L2.273 107.576z" stroke="#D5B378" stroke-width="3.083" stroke-linejoin="bevel"/></svg>