<svg width="200" height="112" viewBox="0 0 200 112" fill="none" xmlns="http://www.w3.org/2000/svg"><path d="M73.436 63.637l52.286 37.624m-52.311-.036l52.336-37.553" stroke="#EEE" stroke-width="2.273" stroke-miterlimit="2.613"/><path d="M100.687 82.113a43.6 43.6 0 01-4.096 5.387l-.661.73c-2.417 2.603-3.587 4.53-4.107 6.123-.458 1.403-.401 2.52-.289 3.544l.05.433.076.65c.194 1.735.914 2.957 1.901 3.797.979.833 2.195 1.272 3.357 1.494l.023.004c.93.118 1.887.194 2.883.199h.017c.206-.009.399-.02.575-.034l.47-.043h.001c3.628-.406 6.364-3.162 6.92-6.873l.046-.362c.04-.358.032-1.535-.124-2.897-.146-1.278-.428-2.774-.956-3.946l-.108-.23c-1.256-2.64-3.06-5.329-5.372-8.018l-.331-.385-.275.427zm-1.811-26.116c-.37 3.154-1.895 9.258-7.961 14.782l-.602.534c-4.224 3.64-6.347 6.954-7.405 9.776-.925 2.469-1.026 4.54-1.03 6.075l.003.624.003.496c0 6.383 3.353 11.476 8.754 14.146l1.066.526-.564-1.046a7.384 7.384 0 01-.788-2.375l-.053-.396v-.002l-.076-.642c-.147-1.245-.305-2.582.225-4.329.499-1.645 1.617-3.683 3.988-6.338l.492-.539a42.23 42.23 0 005.056-6.638l.282-.466.471-.796.621.684h.001c2.696 2.964 4.795 5.932 6.254 8.831l.283.58.003.005c.658 1.32 1.015 3.047 1.193 4.58.155 1.34.169 2.496.139 3.046l-.015.199c-.193 1.75-.795 3.323-1.705 4.627l.487.552c5.659-2.976 9.449-9.012 9.449-16.13 0-2.353-.78-6.51-.882-7.044l-.005-.022-.006-.022-.175-.53c-3.754-11.104-13.139-19.836-16.883-22.993l-.538-.454-.082.7zM80.513 88.28l-.002-.48v0l-.003-.683c.003-1.668.11-3.855 1.071-6.453 1.03-2.784 3.05-6.064 7.022-9.672l.82-.725c7.494-6.458 8.152-14.004 8.194-15.885v-.44 0l-.082-1.46 1.171.867c.285.211 3.918 2.933 8.062 7.443 4.017 4.372 8.496 10.404 10.887 17.44l.225.685.022.088c.063.322.918 4.771.918 7.36l-.007.511c-.254 10.699-8.462 18.981-18.88 18.981-.033 0-.069-.002-.115-.004a2.25 2.25 0 00-.155-.006l-.004.363.004-.364-.013.001a2.974 2.974 0 00-.187.01 1.541 1.541 0 01-.138.008c-.822 0-1.65-.071-2.456-.218l-.01-.001-.01-.002-.45-.062c-9.411-1.381-15.884-8.232-15.884-17.3v-.002z" fill="#EEE" stroke="#EEE" stroke-width=".758"/><path d="M11.09 82.5l-8.036-7.419 13.01-8.735L3.218 53.829 25 47.727m165.582 36.336l7.008-7.317-11.982-8.859 11.633-12.332L176.515 50M10.37 38.712L25 47.727m0 0l5.513-21.254 17.655 10.502 8.427-19.936 18.292 10.77 7.338-19.917 18.703 14.078m0-19.697V21.97m0 0l18.005-14.283 6.885 20.676 18.498-11.427 8.222 21.026 17.86-11.14L176.515 50m0 0l14.773-9.09M2.273 107.575V62.509A37.893 37.893 0 0127.19 26.908C49.615 18.734 73.434 10.04 87.743 4.815a37.8 37.8 0 0126.331.142L173.93 27.53a37.866 37.866 0 0124.503 35.439v44.608l-17.137-49.782a22.728 22.728 0 00-14.055-14.079L108.155 23.26a22.728 22.728 0 00-14.496-.126L34.616 42.432a22.728 22.728 0 00-14.38 14.063L2.273 107.576z" stroke="#D5B378" stroke-width="3.083" stroke-linejoin="bevel"/></svg>