<svg width="200" height="112" viewBox="0 0 200 112" fill="none" xmlns="http://www.w3.org/2000/svg"><path d="M76.538 63.36l46.798 33.674m-46.821-.031l46.843-33.612" stroke="#EEE" stroke-width="1.876" stroke-miterlimit="2.613"/><path fill-rule="evenodd" clip-rule="evenodd" d="M110.754 106.435a.974.974 0 00-.974-.974h-.968v-3.896c0-1.075-.87-1.948-1.941-1.948V59.763l.822-4.951h1.116a.974.974 0 100-1.948h-17.47a.974.974 0 100 1.948h1.116l.823 4.95v39.855a1.947 1.947 0 00-1.942 1.948v3.896h-.968a.974.974 0 100 1.948h19.412a.974.974 0 00.974-.974zm-7.767-41.883v35.065h1.942l.011-35.065h-1.953zm.971-1.948a.974.974 0 000-1.948.974.974 0 000 1.948zm-3.884 0a.974.974 0 000-1.948.974.974 0 000 1.948zm-3.883 0a.973.973 0 000-1.948.973.973 0 000 1.948zm.97 1.948H95.22v35.065h1.941V64.552zm3.884 0h-1.942v35.065h1.942V64.552zm-5.985-5.844h10.017l.648-3.896H94.422l.638 3.896zm11.811 42.857H93.278v3.896h13.593v-3.896z" fill="#EEE"/><path d="M10.737 82.5l-8.036-7.419 13.01-8.735L2.865 53.829l21.782-6.102M190.23 84.063l7.009-7.317-11.983-8.859 11.633-12.331L176.162 50M10.018 38.712l14.63 9.015m0 0l5.512-21.254 17.655 10.502 8.427-19.936 18.293 10.77 7.337-19.917 18.704 14.078m0-19.697V21.97m0 0L118.58 7.687l6.886 20.676 18.497-11.427 8.222 21.026 17.861-11.14L176.162 50m0 0l14.773-9.09M1.92 107.575V62.509a37.893 37.893 0 0124.918-35.601C49.262 18.734 73.08 10.04 87.39 4.815a37.802 37.802 0 0126.332.142l59.855 22.572a37.866 37.866 0 0124.503 35.44v44.607l-17.137-49.782a22.728 22.728 0 00-14.055-14.079L107.802 23.26a22.728 22.728 0 00-14.495-.126L34.263 42.432a22.727 22.727 0 00-14.38 14.063L1.92 107.576z" stroke="#D5B378" stroke-width="3.083" stroke-linejoin="bevel"/></svg>