<svg width="212" height="112" viewBox="0 0 212 112" fill="none" xmlns="http://www.w3.org/2000/svg"><path fill-rule="evenodd" clip-rule="evenodd" d="M0 59.737h83.935v-1.691H0v1.69zm85.903-17.282c.21.397.747 1.05.843 1.409.731 0 3.04-.7 4.616.819 1.507 1.452 1.43 4.277.784 6.19-.631 1.868-2.487 2.945-4.37 2.945h-62.39v1.691h62.765c1.642 0 3.27-.883 4.333-1.947 1.234-1.234 1.627-2.898 1.761-4.622.145-1.864-.086-3.526-1.235-4.972-1.43-1.796-3.739-2.222-5.96-1.866-.45.072-.707.249-1.148.352l.001.001zM4.31 69.505h75.223v-1.69H4.309v1.69zm10.21 4.884h54.24c1.997 0 3.648 1.7 3.749 3.946.048 1.09.102 2.133-.506 3.156-1.084 1.825-3.178 1.282-4.273 1.257-.219.327-.755 1.032-.842 1.408 2.036 1.081 5.954.41 6.993-2.664 1-2.96.122-6.822-2.587-8.14-.597-.29-1.464-.655-2.344-.655H14.522v1.69l-.002.002zm0-9.769h63.701v-1.69H14.52v1.69zm65.013-35.408l-3.724-3.685-1.22 1.17 3.749 3.807-5.363.023v1.691h5.34l-3.77 3.828 1.123 1.172c.456-.138.73-.589 1.03-.89.594-.595 2.44-2.53 2.834-2.795v4.227c-.007 1.303-.266 1.127 1.499 1.127.47 0 .28-1.666.28-2.535v-2.818l3.724 3.686L86.3 36l-3.794-3.757 5.363-.023v-1.69h-5.34l3.77-3.829-1.219-1.17-3.745 3.706-.023-5.283h-1.78v5.26l.002-.002zm-27.448-.094l-3.819-3.78-1.263 1.22 3.793 3.756-5.362.023v1.69h5.34l-3.677 3.735c.105.333.857 1.05 1.147 1.243l3.819-3.78.023 5.47c2.102 0 1.686.465 1.686-2.534v-2.818l3.724 3.685c.333-.105 1.047-.86 1.24-1.15l-3.768-3.828 5.362-.023v-1.691h-5.34l3.77-3.829c-.18-.258-.348-.396-.561-.61-.226-.227-.347-.45-.68-.538l-3.724 3.685-.022-4.25c.008-1.319.297-1.126-1.686-1.126v5.448l-.002.002zm-27.542-.281c-.687-.462-3.28-3.514-3.84-3.663l-1.147 1.104 3.792 3.85-5.362.024v1.69h5.339l-3.77 3.829 1.124 1.172c.42-.127 1.579-1.442 1.967-1.83.473-.475 1.426-1.54 1.896-1.856v5.26h1.686v-5.353l3.82 3.78 1.262-1.22-3.793-3.756 5.362-.023v-1.69H27.54l3.77-3.83-1.22-1.17-3.839 3.8-.023-5.47h-1.416c-.444.105-.27.599-.27 2.535v2.818l.001-.001z" fill="#EEE"/><g clip-path="url(#clip0_11_123)"><path d="M121.98 82.5l-8.037-7.419 13.01-8.735-12.845-12.517 21.782-6.102m165.581 36.336l7.009-7.317-11.983-8.859 11.633-12.331L287.405 50M121.26 38.712l14.63 9.015m0 0l5.512-21.254 17.656 10.502 8.426-19.936 18.293 10.77 7.337-19.917 18.704 14.078m0-19.697V21.97m0 0l18.005-14.283 6.885 20.676 18.498-11.427 8.221 21.026 17.861-11.14L287.405 50m0 0l14.772-9.09m-189.015 66.666V62.509a37.893 37.893 0 0124.918-35.601c22.424-8.174 46.242-16.868 60.553-22.093a37.8 37.8 0 0126.331.142l59.855 22.572a37.866 37.866 0 0124.504 35.44v44.607l-17.138-49.782a22.726 22.726 0 00-14.054-14.079L219.044 23.26a22.726 22.726 0 00-14.495-.126l-59.044 19.298a22.727 22.727 0 00-14.379 14.063l-17.964 51.081z" stroke="#D5B378" stroke-width="3.083" stroke-linejoin="bevel"/></g><defs><clipPath id="clip0_11_123"><path fill="#fff" transform="translate(109.374)" d="M0 0h102.273v109.848H0z"/></clipPath></defs></svg>