<svg width="115" height="38" viewBox="0 0 115 38" fill="none" xmlns="http://www.w3.org/2000/svg"><path d="M101.095 5.422h3.956l2.658 3.707 2.696-3.707h3.918l-4.642 6.427L114.897 19h-3.956l-3.232-4.455L104.515 19h-3.906l5.141-7.15-4.655-6.428zm-.423 7.775H89.728c.158.965.578 1.735 1.26 2.309.69.566 1.569.848 2.633.848 1.273 0 2.367-.445 3.282-1.335l2.87 1.348c-.715 1.015-1.572 1.768-2.57 2.259-.998.482-2.184.723-3.557.723-2.13 0-3.864-.67-5.204-2.009-1.339-1.348-2.009-3.032-2.009-5.054 0-2.072.666-3.79 1.997-5.154 1.34-1.373 3.016-2.059 5.03-2.059 2.137 0 3.876.686 5.216 2.06 1.339 1.363 2.009 3.169 2.009 5.415l-.013.65zm-3.419-2.683a3.408 3.408 0 00-1.335-1.847c-.658-.474-1.423-.711-2.297-.711-.948 0-1.78.266-2.495.798-.45.333-.866.92-1.248 1.76h7.375zM76.027.643h10.146v3.444h-3.345V19h-3.544V4.087h-3.257V.643zm-4.279 4.779h3.394V19h-3.394v-1.435c-.666.632-1.336 1.09-2.01 1.373a5.638 5.638 0 01-2.17.411c-1.756 0-3.275-.678-4.556-2.034-1.281-1.364-1.922-3.057-1.922-5.079 0-2.096.62-3.814 1.86-5.154 1.24-1.34 2.745-2.009 4.517-2.009.816 0 1.581.154 2.297.462.715.308 1.377.77 1.984 1.385V5.422zm-3.582 2.796c-1.056 0-1.934.374-2.633 1.123-.699.74-1.048 1.693-1.048 2.858 0 1.173.353 2.138 1.06 2.895.716.757 1.594 1.136 2.634 1.136 1.073 0 1.963-.37 2.67-1.111.707-.749 1.061-1.726 1.061-2.933 0-1.181-.353-2.138-1.06-2.87-.708-.732-1.602-1.098-2.684-1.098zM56 5.422h3.395v11.631c0 2.296-.462 3.985-1.386 5.067-1.24 1.464-3.107 2.196-5.603 2.196-1.331 0-2.45-.166-3.357-.499-.907-.333-1.672-.824-2.296-1.473-.624-.64-1.086-1.422-1.385-2.346h3.756c.333.383.761.67 1.285.861.525.2 1.144.3 1.86.3.915 0 1.651-.142 2.209-.424.557-.283.948-.65 1.173-1.098.233-.45.35-1.224.35-2.322-.6.6-1.228 1.032-1.885 1.298-.657.258-1.402.387-2.234.387-1.822 0-3.361-.657-4.617-1.972-1.257-1.314-1.885-2.978-1.885-4.991 0-2.155.666-3.886 1.997-5.192 1.206-1.181 2.645-1.772 4.318-1.772.782 0 1.518.146 2.209.437.698.283 1.397.753 2.096 1.41V5.422zm-3.532 2.833c-1.073 0-1.959.362-2.658 1.086-.699.715-1.048 1.618-1.048 2.708 0 1.131.358 2.06 1.073 2.783.716.724 1.614 1.086 2.696 1.086 1.056 0 1.926-.354 2.608-1.061.69-.707 1.036-1.635 1.036-2.783 0-1.131-.345-2.05-1.036-2.758-.69-.707-1.58-1.06-2.67-1.06zM31.742 5.422h3.394v1.386c.774-.65 1.472-1.099 2.096-1.348a5.08 5.08 0 011.935-.387c1.348 0 2.491.47 3.432 1.41.79.799 1.185 1.98 1.185 3.544V19h-3.37v-5.953c0-1.622-.074-2.7-.224-3.232-.141-.532-.395-.936-.761-1.21-.358-.283-.803-.425-1.335-.425-.69 0-1.286.233-1.785.7-.49.457-.832 1.093-1.023 1.909-.1.424-.15 1.343-.15 2.758V19h-3.394V5.422zm-5.715 0h3.395V19h-3.395v-1.435c-.665.632-1.335 1.09-2.009 1.373a5.638 5.638 0 01-2.171.411c-1.756 0-3.274-.678-4.555-2.034-1.281-1.364-1.922-3.057-1.922-5.079 0-2.096.62-3.814 1.86-5.154 1.239-1.34 2.745-2.009 4.517-2.009.815 0 1.58.154 2.296.462.716.308 1.377.77 1.984 1.385V5.422zm-3.581 2.796c-1.057 0-1.934.374-2.633 1.123-.7.74-1.049 1.693-1.049 2.858 0 1.173.354 2.138 1.061 2.895.716.757 1.593 1.136 2.633 1.136 1.074 0 1.964-.37 2.67-1.111.708-.749 1.062-1.726 1.062-2.933 0-1.181-.354-2.138-1.061-2.87-.707-.732-1.602-1.098-2.683-1.098zM.084.643h3.544v6.926h6.14V.643H13.3V19H9.768v-8.05h-6.14V19H.084V.643z" fill="#fff"/><path d="M78.089 31.123h.73c.395 0 .68.037.853.111.175.072.313.19.413.354.102.162.153.357.153.585a.98.98 0 01-.2.63 1.02 1.02 0 01-.535.349c-.133.038-.375.056-.726.056v1.532h-.688v-3.617zm.688 1.414h.22c.171 0 .29-.012.358-.037a.314.314 0 00.157-.12.356.356 0 00.06-.207.33.33 0 00-.163-.305c-.079-.047-.225-.07-.438-.07h-.194v.74zm-3.946-1.414h.691v2.341c0 .202.017.344.052.428.036.083.094.15.174.201.082.05.18.074.295.074a.566.566 0 00.312-.083.433.433 0 00.182-.212c.035-.087.052-.251.052-.494v-2.255h.69v2.157c0 .364-.02.616-.06.757a1.08 1.08 0 01-.237.408 1.092 1.092 0 01-.398.292 1.37 1.37 0 01-.526.094c-.262 0-.491-.06-.686-.18a1.063 1.063 0 01-.415-.452c-.084-.182-.126-.488-.126-.92v-2.156zm-2.505-.09c.511 0 .95.185 1.317.555.37.37.554.822.554 1.355 0 .528-.182.974-.546 1.34a1.79 1.79 0 01-1.32.548c-.543 0-.994-.188-1.353-.563a1.87 1.87 0 01-.538-1.337 1.877 1.877 0 01.94-1.643c.293-.17.608-.255.946-.255zm-.008.673c-.334 0-.615.117-.843.35-.228.232-.342.528-.342.887 0 .4.144.716.43.949.223.182.48.273.768.273.326 0 .604-.118.833-.354.23-.236.344-.527.344-.873 0-.344-.115-.635-.346-.873a1.129 1.129 0 00-.844-.359zm-4.585-.583h.73c.4 0 .684.037.853.109.17.07.308.188.41.354.104.165.156.361.156.587 0 .238-.058.437-.172.598-.113.159-.285.28-.514.361l.855 1.608H69.3l-.814-1.532h-.064v1.532h-.688v-3.617zm.688 1.414h.217c.22 0 .37-.029.452-.086.084-.057.125-.152.125-.285a.342.342 0 00-.226-.33c-.069-.026-.195-.039-.378-.039h-.19v.74zm-1.635-.823l-.484.479c-.307-.324-.664-.487-1.072-.487-.356 0-.654.118-.895.354a1.16 1.16 0 00-.359.86c0 .35.125.646.374.888.249.243.556.364.922.364.237 0 .437-.05.6-.15.163-.1.296-.256.395-.47H65.22v-.646h1.82l.004.152c0 .317-.082.617-.245.9a1.73 1.73 0 01-.637.65c-.26.148-.567.223-.917.223-.376 0-.71-.081-1.006-.243a1.81 1.81 0 01-.698-.699 1.95 1.95 0 01-.256-.976c0-.478.158-.895.475-1.249.375-.42.864-.631 1.465-.631.315 0 .609.058.883.174.23.098.457.267.678.507zm-7.241-.591h2v.68h-.66v2.937h-.698v-2.938h-.642v-.678zm-3.378 0h.66l1.55 2.38v-2.38h.689v3.617h-.662l-1.548-2.373v2.373h-.689v-3.617zm-2.631 0h1.974v.674h-1.29v.654h1.29v.661h-1.29v.952h1.29v.676h-1.974v-3.617zm-2.483 0h1.999v.68h-.66v2.937h-.697v-2.938h-.642v-.678zm-3.317 0h.775l.757 1.159.764-1.158h.775l-1.15 1.75 1.221 1.866h-.774l-.836-1.271-.829 1.271h-.779l1.222-1.866-1.146-1.75zm-3.024 0h.69v2.341c0 .202.018.344.053.428.036.083.094.15.174.201.082.05.18.074.295.074a.566.566 0 00.312-.083.433.433 0 00.182-.212c.035-.087.052-.251.052-.494v-2.255h.69v2.157c0 .364-.02.616-.06.757a1.08 1.08 0 01-.237.408 1.092 1.092 0 01-.398.292 1.37 1.37 0 01-.526.094c-.262 0-.491-.06-.686-.18a1.063 1.063 0 01-.416-.452c-.083-.182-.125-.488-.125-.92v-2.156zm-2.203 0h.688v2.96H44.2v.657h-1.69v-3.617zm-4.723.942h.686l.695 1.68.767-1.68h.689l-1.677 3.654h-.693l.55-1.178-1.017-2.476zm-2.37-1.032v1.327a1.14 1.14 0 01.845-.363c.35 0 .646.131.89.395s.367.602.367 1.015c0 .399-.127.732-.38 1.001a1.194 1.194 0 01-1.327.32 1.334 1.334 0 01-.395-.27v.282h-.667v-3.707h.666zm.705 1.583a.7.7 0 00-.526.216.78.78 0 00-.209.566c0 .237.07.43.209.577.14.146.315.22.526.22a.678.678 0 00.516-.224.797.797 0 00.212-.57.787.787 0 00-.207-.564.682.682 0 00-.52-.221z" fill="#D5B378"/><path d="M59.736 21.45c2.108.146 4.202.413 6.286.767l.12.02c4.01.683 8.028 1.62 13.885 3.843.113.052.227.103.34.153.44.197.87.406 1.293.634l.121.065c1.02.557 2.344 1.355 2.693 2.54.037.158.04.308.039.47v.104l-.001.345v.248c0 .224 0 .448-.002.672v.703l-.003 1.33-.002 1.514-.006 3.114h-.038a146.24 146.24 0 01-.287-2.644l-.063-.616-.021-.214-.011-.107a1150.3 1150.3 0 01-.295-2.915 110.995 110.995 0 00-.066-.654c-.083-.84-.394-1.345-1.044-1.89a6.562 6.562 0 00-.897-.582l-.11-.063c-2.901-1.646-6.346-2.474-23.158-4.997.061-.13.13-.217.23-.321.322-.354.57-.734.798-1.154l.058-.107.14-.258zM45.82 22.945c.06.054.06.054.118.116l.067.07.072.075c.361.372.767.682 1.2.966-.116.116-.26.117-.417.143l-.221.04-.12.02c-3.843.673-7.763 1.552-14.23 4.665l-.11.088c-.674.572-.773 1.236-.854 2.073l-.022.22a252.116 252.116 0 00-.123 1.22l-.186 1.854a1157.264 1157.264 0 01-.219 2.187l-.046.46a50.125 50.125 0 00-.051.506l-.008.087a3.015 3.015 0 01-.03.198l-.076.039a2275.705 2275.705 0 01-.009-4.686 621.523 621.523 0 01-.003-1.981 139.125 139.125 0 01-.002-.883c-.005-.914.205-1.484.848-2.151.602-.588 1.347-1.012 2.08-1.416.03-.017.06-.035.093-.052 2.816-1.563 6.09-2.456 10.563-3.59l.113-.027a77.297 77.297 0 011.134-.266l.082-.02c.145-.031.235-.045.358.045z" fill="#D5B378"/></svg>