<svg width="81" height="80" viewBox="0 0 81 80" fill="none" xmlns="http://www.w3.org/2000/svg"><path d="M34.348 37.865l-22.021 22.02a6.23 6.23 0 004.404 10.64 6.23 6.23 0 004.405-1.824l22.02-22.028m13.441 1.137l12.08 12.08a6.23 6.23 0 01-8.81 8.808L40.529 49.36M24.017 23.216l-6.613 2.199-6.603-11.01L15.205 10l11.014 6.606-2.202 6.61zm0 0l8.814 8.815" stroke="#D5B378" stroke-width="3.115" stroke-linecap="round" stroke-linejoin="round"/><path d="M34.348 37.865c-2.629-6.706-2.115-15.506 3.305-20.925 5.42-5.42 15.418-6.607 20.921-3.302l-9.468 9.469-.882 9.69 9.69-.878 9.469-9.472c3.308 5.506 2.118 15.505-3.302 20.921-5.42 5.42-14.216 5.934-20.922 3.305" stroke="#D5B378" stroke-width="3.115" stroke-linecap="round" stroke-linejoin="round"/></svg>