<svg width="80" height="80" viewBox="0 0 80 80" fill="none" xmlns="http://www.w3.org/2000/svg"><path d="M40 63.333V16.667m0 46.666L33.177 70M40 63.333L46.823 70M40 16.667L33.177 10M40 16.667L46.823 10M19.32 51.667l41.36-23.334M19.32 51.667L10 49.227m9.32 2.44l-2.5 9.106m43.86-32.44l2.497-9.106m-2.497 9.106l9.32 2.44m-50.68-2.44l41.36 23.334M19.32 28.333l-2.497-9.106m2.497 9.106L10 30.773m50.68 20.894l9.32-2.44m-9.32 2.44l2.5 9.106" stroke="#D5B378" stroke-width="3.333" stroke-linecap="round" stroke-linejoin="round"/></svg>