<svg width="81" height="80" viewBox="0 0 81 80" fill="none" xmlns="http://www.w3.org/2000/svg"><path d="M66.553 10a3.954 3.954 0 013.947 3.947v52.106A3.952 3.952 0 0166.553 70H47.606a3.952 3.952 0 01-3.948-3.947V13.947A3.954 3.954 0 0147.605 10h18.948zm-33.158 0a3.954 3.954 0 013.948 3.947v52.106A3.953 3.953 0 0133.394 70H14.448a3.952 3.952 0 01-3.947-3.947V13.947A3.954 3.954 0 0114.447 10h18.948zM13.658 66.842h17.606L13.658 52.758v14.084zm33.158 0h17.606L46.816 52.758v14.084zm15.355-.79L47.605 54.4v-.002l14.566 11.655zM14.608 49.475l19.58 15.663-.003-31.327-19.577 15.664zm33.158 0l19.58 15.663-.003-31.327-19.577 15.664zM33.398 63.496l-.004-28.044-9.734 7.788 9.735-7.789.003 28.045zm33.155-28.042v-.002l-9.735 7.788 9.735-7.789v.003zM24.85 62.723L14.447 54.4v-.002l10.404 8.325zM13.658 46.19l19.58-15.664-19.58-15.663V46.19zm33.158 0l19.58-15.664-19.58-15.663V46.19zM31.974 30.526L14.447 44.55v-.002l17.527-14.02-17.527-14.022v-.001l17.527 14.022zM47.605 44.55v-.002L61.026 33.81l-13.42 10.738zM16.578 13.16l17.607 14.083V13.158H16.578zm33.158 0l17.607 14.083V13.158H49.736zM33.395 25.6v.003l-13.42-10.739L33.395 25.6zm18.592-11.652L66.553 25.6v.002L51.987 13.947zm14.569 49.55l-13.421-10.74 13.42 10.737v.002z" fill="#D5B378"/></svg>