<svg width="80" height="80" viewBox="0 0 80 80" fill="none" xmlns="http://www.w3.org/2000/svg"><path d="M22.664 39.698v17.349h17.349l-3.618-3.618H26.282V43.316l-3.618-3.618z" fill="#D5B378"/><path d="M69.465 66.617l-5.192-5.265v4.74H13.618v-7.507h3.618V55.69h-3.618V43.66h3.618v-2.895h-3.618V29.187h3.618v-2.895h-3.618V16.18l28.837 28.675v-5.102L13.094 10.535A1.809 1.809 0 0010 11.82V67.9a1.809 1.809 0 001.81 1.81h56.37a1.81 1.81 0 001.285-3.094z" fill="#D5B378"/><path d="M49.8 62.474h7.236a3.618 3.618 0 003.618-3.618V23.94l-4.16-7.652a3.618 3.618 0 00-3.184-1.81 3.618 3.618 0 00-3.184 1.955l-3.944 7.544v34.879a3.618 3.618 0 003.618 3.618zm0-37.63l3.51-6.82 3.726 6.839v26.756H49.8V24.845zm0 29.724h7.236v4.414H49.8v-4.414z" fill="#D5B378"/></svg>