<svg width="88" height="37" viewBox="0 0 88 37" fill="none" xmlns="http://www.w3.org/2000/svg"><path d="M30.967 6.378c1.15-1.182 1.4-1.843 2.845-2.595C39.703.71 47.606.875 53.094 4.826c1.268.912 2.676 2.313 3.035 3.834.228.933-.58 2.333.881 1.908.189-.055.157-.464.357-.511.446-.105 1.79.102 1.916-.008.396-.343-.805-.904-.962-1.13-.126-.18-.052-.574-.175-.878-.037-.092-.386-.095-.428-.27-.089-.367-.084-1.652-.029-2.064.06-.445.396-.304.522-.592.081-.19-.031-.54.108-.75.125-.194.83-.559.886-.68.147-.327.018-.896.086-.964.069-.068.637.058.965-.087.123-.055.49-.768.682-.886C62.35.87 63.497.92 64.87.61c.194-.044.16-.466.359-.514.54-.128 6.966-.128 7.504 0 .191.048.155.451.367.509 1.922.511 3.16.724 4.966 1.683.097.053 1.52 1.46 1.578 1.555.137.218.024.564.108.747.115.255.422.231.477.422.22.76.152 4.156-.25 4.508-.099.086-.815-.071-1.237.086-.086.032-.986 1.28-1.195 1.413-.553.349-2.276.931-2.979 1.222-1.332.553-1.531.16-2.535.433-.28.076-.144.527-.173.527h-3.656c-.642 0-.677.068-.534.694.107.483-.129 2.331-.005 2.455.1.1 1.486-.1 1.919.005.2.047.157.472.357.516 1.009.22 1.767.32 2.776.538.218.047.637.894.787.962.328.144.899.019.965.087.091.094-.074.605.018.836.1.252.467.202.509.383.13.569-.25 2.087.6 2.357.91.288 2.058-.11 2.895.09.199.046.162.463.361.51 1.144.276 3.123.255 4.36.535.195.045.158.472.357.517.7.154 1.697.191 2.363.61.063.04 1.022.963 1.051 1.029.32.765-1.081.846-1.63 1.467-.018.02-.033.032-.045.035-.69.147-1.594-.144-2.26.013-.213.05-.071.474-.556.54-1.626.212-4.274-.357-5.737-.016-.213.05-.066.467-.553.538-1.642.236-1.655-.506-2.1-.564-1.039-.136-2.405.178-3.443.042-.517-.068-.907-.792-2.622-.566-.488.063-.338.495-.553.543-1.038.222-2.32.309-3.314.532-.194.044-.16.466-.36.514-.642.154-4.947.128-5.736.026-.488-.063-.346-.496-.553-.54-1.125-.247-1.681-.01-2.88-.62-.234-.12-.293-1.136-.09-1.304l.104-.086a.289.289 0 01.227-.058c1.152.167 1.102-1.45-.146-1.073-.068.02-1.112.542-1.167.584-.141.103-.04.456-.063.456H49.78a.193.193 0 00-.137.33c.151.151-.065.721-.212.875-.157.163-.242.35-.3.364-1.269.312-3.602-.294-4.882.013-.199.047-.165.469-.359.514-1.874.422-5.267.815-7.312.55-.488-.063-.347-.495-.554-.54-.542-.118-1.2.113-1.735-.013-.095-.021-1.23-.939-1.432-1.033-.23-.11-.75.06-.852-.01-.377-.262.247-.699.906-.963.58-.233 1.479-.592 1.872-1.078.442-.546.102-1.382-.442-.938-.147.12-.248.239-.322.27-1.343.553-2.596.855-4.258.634-.229-.031-1.51-1.03-1.608-1.059-1.098-.333-1.082.829-.867 1.038.094.092.962-.097 1.05 0 .066.071-.062.6-.002.86.04.173 1.041.32.527.714-.18.136-1.909-.118-2.44.007-.213.05-.072.475-.557.54-1.135.15-4.931.15-6.064 0-.485-.062-.344-.49-.556-.54-.918-.215-2.402.208-3.311-.01-.47-.113-2.8-1.52-2.984-1.563-2.921-.666-5.241-.136-8.094-.508-.485-.063-.344-.488-.556-.54-.731-.174-1.796.162-2.522-.014-.164-.039-.04-.282-.848-.452-.232-.049-.413-.19-.387-.424.039-.344-.582-.453-.521-.793.082-.463.381-.372.437-.51.2-.503.087-1.006.703-1.394.246-.155.66-.03.875-.176 1.411-.954 1.82-1.33 3.417-2.008 1.683-.716 2.543-.231 3.828-.535 1.059-.252 2.905-.774 4.03-1.038 1.84-.43 2.311-1.33 3.362-2.9.175-.26.414-.495.736-.693.238-.146 2.074-1.098 2.197-1.127.962-.22 2.472-.307 3.317-.524.278-.071.141-.53.17-.53h3.67c.03 0-.107-.454.171-.53.553-.146 1.744.04 2.452.006.299-.014.534-.225.529-.525-.006-.35-.022-.703-.005-1.051.014-.305.232-.537.491-.697a1.26 1.26 0 00.56-1.39.02.02 0 01.006-.019zm9.964 12.587v-.001h8.39c.023 0-.077-.344.065-.454.196-.155.637-.005.904-.152.472-.262.438-1.248 1.49-.968.078.021.755 1.304 1.21.132.457-1.17-1.279-.22-1.048-1.044.295-1.036.24-1.678-.54-.935-.397.379-.65.95-1.112 1.245-.06.036-1.083.587-1.15.602-.386.087-.827-.076-1.212.008-.2.045-.157.467-.36.517-.97.233-2.6-.223-3.573.01-.2.048-.163.465-.36.514-.644.155-1.601-.086-2.314.006-.385.05-.813.203-.392.521h.002z" fill="#fff"/><path d="M.027 22.633l.003.001c.197-.026.321-.03.4-.017.37.067.365.556.726.66.566.164.48.363.626.398.727.176 1.791-.16 2.523.013.212.05.07.475.556.54 2.855.373 5.173-.154 8.093.51.184.041 2.515 1.45 2.984 1.562.91.22 2.391-.205 3.312.01.212.05.07.475.555.54 1.136.15 4.932.15 6.065 0 .485-.063.343-.49.556-.54.53-.123 2.26.131 2.44-.008.517-.393-.487-.54-.526-.713-.06-.257.068-.786.002-.86-.089-.1-.957.092-1.051 0-.215-.21-.23-1.368.868-1.038.097.029 1.379 1.03 1.607 1.06 1.662.22 2.916-.08 4.258-.635.075-.032.176-.152.325-.272.544-.442.882.393.441.938-.393.486-1.296.848-1.876 1.081-.658.265-1.28.7-.904.961.103.071.62-.1.853.01.199.095 1.337 1.013 1.431 1.034.538.126 1.196-.108 1.736.013.207.044.068.477.553.54 2.045.267 5.438-.128 7.313-.55.194-.045.16-.467.359-.514 1.28-.307 3.613.298 4.882-.014.057-.014.143-.2.299-.363.148-.154.364-.724.213-.875a.193.193 0 01.136-.33h3.728c.023 0-.079-.35.063-.456a25.548 25.548 0 011.166-.584c1.251-.38 1.302 1.24.147 1.073a.29.29 0 00-.228.058l-.105.087c-.204.169-.145 1.187.092 1.304 1.198.608 1.754.372 2.879.619.207.044.068.477.553.54.79.102 5.095.128 5.737-.026.2-.048.165-.47.36-.514.993-.226 2.275-.31 3.313-.533.215-.044.066-.477.553-.542 1.715-.226 2.106.498 2.622.566 1.039.136 2.405-.176 3.443-.042.443.058.459.8 2.1.564.488-.071.344-.488.553-.538 1.463-.343 4.112.228 5.737.016.485-.063.344-.49.556-.54.666-.158 1.57.134 2.26-.013.03-.007.072-.068.13-.15.394-.543 1.04.531.384.674-.388.081-.831-.07-1.203.013-.121.026-1.81 1.012-1.93 1.041-1.898.43-3.957.614-5.771 1.049-2.514.603-5.244.183-7.834.509-.501.063-.25.503-.753.566-2.06.26-13.62-.393-14.253.05-.141.1.145.582-.445.456-.247-.052-.063-.375-.19-.456-.807-.517-14.401.262-16.874-.05-.5-.063-.249-.503-.752-.566-2.208-.278-3.262.041-5.572-.499-.425-.1-2.095-.084-2.582-.023-.522.065-.674.773-.992.98-.64.417-1.683.462-2.362.611-.12.027-1.812 1.012-1.93 1.041-.663.16-1.591-.144-2.262.01-.213.05-.071.475-.556.54-1.408.184-6.23.184-7.638 0-.488-.062-.346-.495-.553-.54-1.665-.366-2.517-.324-4.103-.964-2.1-.85-2.774-1.06-3.674-3.15-.044-.101-.684-.07-.438-.972.05-.178.535-.17.543-.301.053-1.248-1.266-1.02-1.541-1.233-.097-.076-.024-.474-.147-.618-.505-.593-1.078-.788-1.388-1.46-.06-.132-.178-.232-.323-.223-.053.004-.105.008-.158.008a.134.134 0 01-.137-.136c.001-.128.02-.259.009-.383 0-.005.004-.007.008-.005zm9.898 4.806a1.492 1.492 0 00-.257-.084c-.872-.208-.418.497.218 1.13.743.737 1.432 1.828 1.744 1.94.48.17.907-.017 1.332.08.2.045.163.467.36.514 2.024.488 7.648-.091 9.604-.521.921-.195 1.756-1.62.984-1.08a.292.292 0 01-.13.057c-1.098.131-4.462.139-5.543 0-.484-.063-.343-.49-.555-.54-.918-.215-2.4.207-3.312-.01-.97-.234-3.542-1.075-4.442-1.484a.01.01 0 01-.003-.002z" fill="#F0C491"/><path d="M36.784 33.658c.984.063 2.496-.285 3.45-.53.281-.074.145-.53.171-.53h13.11c.092 0-.266.425 1.33.514a.635.635 0 01.414.181c.358.358.145.867-.36.843a2.526 2.526 0 00-.681.04c-2.14.501-4.345 1.063-6.543 1.06l-10.407-.012c-.62-.001-.647-.59-1.055-1.056-.056-.062-.25-.018-.457.011-.627.088-.178-.494.454-.532a4.72 4.72 0 01.574.011z" fill="#fff"/><path d="M55.091 33.125l.001-.003c.587.018 1.413-.115 1.916.005.196.047.157.47.359.517.448.1 1.707-.095 1.906.716.31 1.26-.325.67-.836.87-.244.095-.2.47-.38.511-1.998.462-4.793.147-6.458.535-2.402.564-6.508.884-9.242.54-.501-.063-.25-.503-.753-.566-1.987-.252-3.023.385-4.953-.414-.96-.399-1.382-.407-2.35-.622-.067-.015-1.1-.862-.552-1.04.18-.058.482.08.823-.08.354-.17.564.113.957.108.276-.003.61-.116.687-.031.416.457.437 1.054 1.055 1.055l10.407.013c2.198.003 4.403-.559 6.543-1.06a2.02 2.02 0 01.44-.046c.604-.005.858-.58.43-1.008zm-18.216-.055c.728-.027 1.52.6.791.626-.737.025-1.528-.598-.791-.626zM30.002 6.982c.183-.487 1.062.082.744.493a1.24 1.24 0 01-.058.07c-.307.345-.853-.036-.716-.477a.803.803 0 01.03-.086zm-.084 1.494c-.023.448.01.904.006 1.355a.22.22 0 01-.226.223c-.157-.005-.287-.148-.291-.305-.016-.68-.262-1.453.508-1.271.002 0 .003 0 .003-.002zm11.01 10.484s-.001.002-.002.001c-.421-.32.007-.472.392-.522.713-.091 1.67.15 2.315-.005.2-.047.162-.464.36-.514.972-.233 2.603.223 3.573-.01.199-.047.157-.472.359-.517.385-.084.826.079 1.211-.008.069-.015 1.091-.566 1.151-.603.463-.294.717-.864 1.113-1.242.779-.745.827-.105.54.933-.232.823 1.502-.126 1.048 1.043-.456 1.175-1.135-.11-1.211-.13-1.052-.281-1.015.705-1.49.967-.267.15-.705 0-.904.152-.142.11-.042.454-.066.454h-8.389z" fill="#F0C491"/><path d="M9.922 27.436l.003.002c.903.41 3.473 1.25 4.442 1.484.913.217 2.392-.205 3.312.01.212.05.07.475.556.54 1.08.142 4.446.134 5.542 0a.293.293 0 00.13-.056c.772-.542-.062.885-.984 1.079-1.956.43-7.583 1.01-9.604.522-.197-.047-.16-.47-.36-.514-.422-.095-.852.089-1.332-.081-.312-.112-1.002-1.204-1.745-1.941-.635-.632-1.09-1.334-.218-1.128a1.514 1.514 0 01.258.083z" fill="#fff"/></svg>