<svg width="100" height="36" viewBox="0 0 100 36" fill="none" xmlns="http://www.w3.org/2000/svg"><path d="M3.624 12.807a.01.01 0 00.004-.001c.278-.194-.164-.038.817-.514 1.058-.512 3.925-1.772 4.932-2.015.641-.155 1.539.139 2.188-.01 1.336-.315 2.459-.252 3.55-.508 3.242-.76 7.245-.758 10.488 0 2.394.56 2.55-1.541 3.963-2.446.142-.092 2.03-1.04 2.148-1.085.545-.21 1.247.299.818-1.367-.058-.223-.456-.147-.484-.185-.34-.474.244-.467.368-.596 1.704-1.798 1.638-1.907 3.998-2.429.117-.025 1.752-.978 1.866-1.006.88-.213 2.312.197 3.202-.01.206-.049.069-.46.538-.523 1.14-.15 4.977-.15 6.118 0 .469.061.332.472.537.522.708.168 1.74-.16 2.442.01.195.049.152.457.347.5 1.055.23 2.929.54 3.806 1.098.096.06 1.567 1.514 1.59 1.625.08.403.093 1.798.005 2.178-.046.19-.442.157-.5.342-.337 1.116.804.994 1.417 1.46.236.18.637.865.792.896 1.7.347 4.63-.368 6.231.015.193.046.158.449.348.497.644.154 1.546-.145 2.188.01.193.046.152.456.347.5 1.055.23 2.931.54 3.806 1.097.74.472 1.394 1.638 1.686 2.37.035.087.37.092.413.262.081.332.081 1.341.003 1.676-.059.246-.5.015-.502.682 0 .25.525.999.636 1.017.566.088.302-.348.434-.436.461-.31 9.657-.092 11.1-.072 3.645.049 10.75.68 13.605 2.115.086.043.07.327.284.41.235.092.73-.058.81.014.057.048.052 1.391-.04 1.488-.055.058-.4 0-.603.129-.54.34-1.227.514-1.803.24-.664-.315-1.325-.901-1.737-.869-.484.04-.332.474-.547.525-.893.206-2.313-.198-3.202.01-.206.048-.069.462-.538.523-1.08.141-2.5-.178-3.582-.041-.485.06-.241.487-.728.548-2.335.294-10.121.294-12.457 0-.484-.061-.24-.487-.727-.548-2.335-.294-5 .063-7.322-.492-.193-.046-.158-.449-.35-.494-.325-.079-3.651.131-2.71-1.03.093-.116.64-.388.773-.58.121-.178.048-.558.17-.85.012-.03.05-.046.097-.063.652-.239.139-1.019-.376-.553-2.7 2.422-4.957 4.37-8.29 5.17a.222.222 0 00-.092.046c-.19.16.03.968.176 1.17.088.122.134.227.16.234.744.195.564-.461.802-.51 1.395-.291 1.75-.443 2.956-.93.348-.14 1.643-.527 1.866-.674.178-.117.566-.82.65-.855.993-.43.94.386 1.123.426.996.216 1.883.01 2.791.593.091.059 1.486 1.402 1.524 1.504.21.54-.21 1.387.333 1.466.129.019.245.113.244.243 0 .132-.12.228-.251.25-.533.086-.117.93-.326 1.464-.038.099-1.422 1.425-1.524 1.503-.193.145-.629.018-.854.165-.226.147-.566.88-.774.92-.819.168-1.914-.119-2.748-.01-.47.061-.332.474-.537.523-.576.134-3.872-.363-4.787-.482-.472-.061-.33-.48-.535-.525-.693-.15-1.626-.183-2.282-.593-.767-.48-1.266-.458-2.117-.151-.328.118-.664.216-.923.32-.089.036-.089.378-.259.416-.383.087-.829-.083-1.181 0-.272.064-.137.512-.165.512h-2.814c-1.025 0-1.68-.67-.695-.952.063-.018.126-.039.188-.065a.811.811 0 00.32-.263c.476-.615.138-1.397-.552-1.038-.699.363-1.346.938-1.967.998-.71.068-1.092-.218-1.435-.208-.152.005-.114.469-.311.514-.388.09-1.06-.147-1.309.064-.111.093-.023.443-.045.443h-4.418a.504.504 0 00-.002 1.008l1.344.004a.52.52 0 01.006 1.04c-3.342.045-6.413.028-9.427-.54-.213-.041-.652-.946-.875-.994-.885-.196-2.051-.558-2.779-1.106-.195-.147-2.48-2.345-2.54-2.515-.163-.454.007-.864-.084-1.275-.029-.13-.238-.264-.468-.431-.768-.558.056-1.273 1.006-1.273.856 0 1.495-.634.683-.904-.238-.079-.474-.139-.623-.196-1.244-.485-1.295-.761-2.193-1.354-.236-.157-1.518-.518-1.866-.675-.152-.07.03-.563-.968-.423-1.1.157 1.26 1.458 1.31 1.592.325.87.016 1.263-.862.862-.101-.046.074-.502-.707-.446-.5.035-.238.487-.738.548-2.662.33-7.682.015-10.113-.533-.188-.043-.155-.451-.348-.497-.644-.154-1.546.145-2.188-.01-.192-.046-.152-.456-.347-.5-.715-.157-1.45-.131-2.145-.537-.089-.05-.695-.451-.725-.482-.596-.58-.66-2.053-.497-2.857.043-.215.829-.586.928-.766.317-.578-.003-.93 1.09-1.447.298-.142 1.505.08 1.521-1.006 0-.005.004-.01.008-.01z" fill="#fff"/><path d="M.589 18.89c-.002.001-.003.003-.001.005.057.047.635.427.721.479.695.403 1.43.38 2.145.537.193.043.152.451.348.5.641.154 1.544-.142 2.188.01.192.045.16.454.347.497 2.431.547 7.452.86 10.114.532.5-.06.238-.512.738-.548.78-.058.605.401.707.447.877.4 1.189.007.862-.862-.05-.132-2.411-1.435-1.31-1.593.998-.142.816.353.968.424.347.157 1.63.52 1.866.674.897.593.948.867 2.193 1.354.148.058.385.118.622.197.813.27.174.904-.683.904-.95 0-1.774.715-1.006 1.273.23.167.44.302.468.43.092.411-.078.822.084 1.276.06.167 2.345 2.368 2.54 2.515.726.547 1.895.91 2.78 1.105.223.048.661.956.874.994 3.015.569 6.085.585 9.427.54a.52.52 0 00-.005-1.04l-1.345-.004a.504.504 0 01.002-1.007h4.418c.023 0-.066-.35.046-.444.246-.208.917.026 1.308-.063.198-.046.16-.51.312-.515.342-.01.725.276 1.435.208.62-.06 1.268-.635 1.967-.999.69-.36 1.028.424.551 1.039a.81.81 0 01-.32.264 1.718 1.718 0 01-.188.065c-.986.282-.33.952.696.952h2.813c.028 0-.106-.451.165-.512.353-.081.799.086 1.182 0 .17-.038.17-.38.258-.416.26-.105.596-.203.924-.321.85-.306 1.348-.325 2.116.151.657.41 1.59.444 2.282.593.208.044.063.464.535.525.915.12 4.211.616 4.787.482.205-.048.068-.459.537-.522.832-.11 1.93.177 2.749.01.205-.043.558-.779.773-.92.216-.143.66-.018.855-.165.1-.079 1.485-1.402 1.523-1.504.1-.255.058-.58.044-.86-.03-.588.13-.005.557.399.101.099 2.343.418 2.505 1.217.18.874-.302 2.9-1.052 3.308-.342.185-.893-.033-1.298.059-.147.033-2.363 1.004-2.566 1.032-1.628.213-7.28.213-8.907 0-.122-.016-1.767-.431-2.22-.533-.224-.05-.006-.58-.805-.525-.446.03-1.12 1.19-1.475 1.463-.19.145-.629.018-.855.165-1.153.75.13.477-1.932.938-.481.107-2.72 1.48-2.887 1.521-1.134.284-3.418.132-4.711.513-2.378.702-6.724.872-9.455.514-.469-.06-.332-.474-.537-.522-.65-.152-1.547.145-2.188-.01-.193-.046-.152-.456-.348-.5-2.317-.51-4.698-1.065-6.706-2.631-.72-.56-.994-.624-1.668-.997-.094-.05-1.445-1.435-1.511-1.526-.147-.198-.018-.636-.165-.854-.226-.333-1.32-1.324-1.43-1.78-.101-.421.089-1.757-.008-1.851-.149-.147-3.534.109-4.2.02-.47-.06-.333-.474-.538-.522-.768-.18-1.932.172-2.693-.01-.147-.036-2.233-.974-2.375-1.007-2.196-.482-4.98-1.22-6.846-2.621C1.265 20.52.323 19.51.592 18.895c0-.003 0-.005-.003-.004zm35.996 14.2s.001 0 0 0c-.299.191-3.109-.036-4.678-.046-.549-.003-.976.61-.428.581.28-.014.622-.087.879-.023.116.028 1.752.976 1.868 1.004.46.112 2.972.097 3.52.026.471-.064.33-.48.534-.525.739-.158 1.275-.176 1.954-.444.221-.088.41-.242.56-.427l.152-.184c.614-.75.465-1.204-.477-.981-1.613.362-2.553.15-3.884 1.018v.001zm31.949-8.621l-.003.001c-.905.14-.346-.855-.581-1.458-.038-.099-1.433-1.445-1.524-1.504-.908-.583-1.795-.375-2.791-.593-.183-.04-.132-.857-1.124-.426-.083.036-.471.738-.649.855-.22.147-1.518.535-1.866.674-1.207.487-1.564.639-2.956.93-.238.051-.06.708-.801.51-.027-.007-.073-.112-.161-.235-.144-.201-.364-1.01-.175-1.17a.218.218 0 01.09-.044c3.334-.802 5.591-2.749 8.29-5.17.519-.464 1.026.308.375.55-.046.018-.083.034-.096.065-.121.294-.045.672-.17.85-.131.192-.679.464-.773.58-.94 1.159 2.386.951 2.71 1.03.193.045.158.448.35.494 2.323.555 4.988.198 7.323.492.484.06.24.487.728.548 2.335.294 10.12.294 12.456 0 .484-.061.24-.487.727-.548 1.086-.137 2.505.18 3.583.04.47-.06.332-.474.538-.522.89-.208 2.31.195 3.202-.01.215-.05.063-.484.547-.525.51-.04 1.404.87 2.21 1.037.1.02.475.376.394.439-.89.684-2.406.37-3.311.58-.641.15-2.99.951-3.58 1.03-1.161.152-2.966-.264-4.026-.015-.206.048-.069.459-.538.522-4.85.633-10.967-.38-16.153-.107-.87.046-2.243-.91-2.266-.04-.008.289.032.704.022 1.136v.004zm4.562-8.622l.003.003c3.754.093 7.536-.127 11.292 0 .767.023.318.497-.449.483-2.988-.055-9.393-.16-9.776.095-.132.088.132.524-.433.436-.112-.018-.637-.764-.637-1.017zm-70.42-2.86c.45-.179.645.617.17.716-.417.088-.567-.557-.17-.716z" fill="#F0C491"/><path d="M36.588 33.09c1.33-.87 2.271-.654 3.883-1.02.948-.199 1.092.233.478.981l-.152.185a1.406 1.406 0 01-.56.427c-.68.268-1.215.286-1.954.444-.208.043-.063.461-.535.525-.55.07-3.06.086-3.52-.026-.116-.028-1.751-.973-1.868-1.004-.256-.064-.599.009-.878.023-.548.029-.121-.584.428-.58 1.569.009 4.379.236 4.679.046z" fill="#fff"/></svg>