<svg width="257" height="73" viewBox="0 0 257 73" fill="none" xmlns="http://www.w3.org/2000/svg"><path d="M7.902 65.053a.009.009 0 01.007-.002c2.54-.065 5.777.349 8.123.051 1.235-.155.614-1.241 1.856-1.396 2.526-.319 14.95.484 18.708.243.7-.044 1.054-.59 1.05-1.29-.004-.552-.301-.897-.669-.486-.136.151-.25.285-.3.285H27.3c-.07 0 .272-1.118-.42-1.306-.608-.16-1.227-.153-1.813-.098-2.703.255-.823-3.483 1.871-3.82 1.7-.22 10.352.446 10.707.045.13-.142-.174-1.571.194-2.399 1.19-2.696 6.11-3.433 8.38-4.099 2.043-.601 2.74-.717 5.217-1.26.51-.11.168-1.177 1.364-1.332 1.048-.136 3.57-.136 4.617 0 1.196.155.847 1.209 1.37 1.332 1.65.387 3.938-.369 5.567.032.226.058 3.265 2.49 3.492 2.547 1.881.466 4.713.291 5.793-1.487.368-.608.07-1.551.446-2.153.892-1.416 4.383-2.347 6.032-3.026.226-.09.233-.95.666-1.053 1.222-.304 5.722.277 6.013-.013.252-.253-.226-4.778.026-6 .058-.285 3.808-3.983 4.054-4.145.523-.336 1.39-.058 1.849-.265.71-.31.362-1.144 1.46-1.286 1.158-.156 6.583.33 6.828.045.181-.207-.206-1.487.026-2.082 1.171-3.007 2.102-7.455 4.067-10.636.453-.73 7.701-10.08 8.276-10.467.485-.324 1.927.09 2.987-.278.194-.065 1.222-1.914 1.662-2.186 2.903-1.817 9.717-4.435 13.125-5.314 5.586-1.449 17.036-2.25 23.249-1.416 1.235.168.847 1.331 1.3 1.344 3.737.134 4.783.734 7.201 1.65 1.497.567 2.924 2.434 4.269 3.303 1.041.672 4.202 1.183 4.959 1.513 2.922 1.26 8.133 5.218 10.138 7.965.362.498.051 1.559.433 2.166.963 1.533 2.205 1.235 3.44 1.733.226.09.239.944.665 1.054 1.067.265 6.401.24 7.669.071 1.267-.168 2.237-1.946 6.465-1.396 1.196.155.847 1.202 1.371 1.331 4.267 1.009 6.763-.879 11.191 2.6 2.011 1.584 1.371.653 2.587 1.293 1.103.551 1.302 2.047 1.636 3.235.379 1.347.841 1.332.937 1.737.238 1.008.076 2.298-.002 3.535-.07 1.118-.232 2.728-1.278 3.13-2.723.94-.445 2.58 2.435 2.577.482 0 .964.002 1.444.01 2.341.038 6.705-.44 8.606.013.472.116.381 1.112.905 1.254 1.125.297 8.211 1.118 8.521 1.429.233.226-.103 1.351.181 1.668.427.472 2.354.375 3.252.86.188.103 3.026 2.793 3.072 3 .265 1.293-.246 7.034.025 7.293.233.226 2.593-.24 3.459-.013.91.234.353 1.895.643 2.789.721 2.221 2.94 2.87 2.708 5.847-.087 1.12-.116 2.612-1.004 3.3-1.713 1.327-4.452.867-6.617.975-2.078.104-4.214.32-6.023.085-.368-.046-5.722-2.186-6.31-2.418-.75-.298-1.655-.123-2.159-.44-1.972-1.26-1.371-3.492-1.513-3.647-.634-.717-16.261.395-19.112.046-1.255-.156-.977-1.287-1.248-1.358-2.017-.511-1.487 1.138-1.655 1.254-1.377.957-1.151-1.138-1.675-1.254-.899-.214-2.049.22-3.019 0-.459-.104-.33-1.028-.938-1.261-.607-.233-1.881.149-2.082-.039-.097-.084-.103-2.476-.013-2.567 2.048-2.15 1.84-1.293-1.13-1.293h-6.628c-.071 0 .271 1.119-.427 1.306-.448.121-.992.127-1.571.094-1.905-.107-2.864 1.386-.962 1.223.505-.043 1.03-.105 1.496-.109 1.393-.011.335.993-.928 1.579-.343.155-3.026 2.302-3.24 2.353-1.241.31-8.734.272-10.254.072-1.202-.156-.853-1.222-1.364-1.332-1.313-.285-2.877.226-4.267-.04-.498-.096-1.423-1.978-1.966-2.346-.543-.369-1.551-.058-2.159-.433-1.979-1.222-1.371-3.498-1.513-3.653-.246-.265-2.341.252-2.58-.007-.181-.2.207-1.467-.026-2.075-.161-.407-2.483-3.317-2.541-3.55-.207-.834-.433-10.81-.013-11.178.181-.162 1.442.167 2.056-.04.744-.252 1.617-2.191 1.998-2.36.821-.355 2.263-.083 2.392-.206.537-.51.595-3.369-2.127-2.547-.685.206-4.816 3.18-6.168 3.788-2.896 1.306-4.06.77-6.769 1.37-.511.11-.175 1.184-1.364 1.333-1.539.194-3.763-.427-5.115-.058-.691.187-.355 1.3-.426 1.3h-8.405a.647.647 0 100 1.292h7.057c3.763 0 7.202 2.982 5.361 6.264-.354.63-.763 1.283-1.207 2.006-.356.581-1.255.756-1.339.956-.349.809-.019 2.218-.194 2.393-.226.22-1.474-.181-2.056.051-3.885 1.546-4.066 2.748-9.122 3.86-.492.11-.388 1.151-.886 1.274-3.097.744-8.748-.491-12.207-.039-1.196.155-.853 1.21-1.371 1.332-1.506.35-3.594-.362-4.959 0-.73.194.104 1.636-1.383 1.313-.602-.13-.091-1.151-.744-1.313-1.209-.297-2.896.252-4.293-.013-.543-.103-1.674-2.418-2.231-2.534-.737-.149-5.165-.22-5.353-.026-.084.09-.084 2.328.097 2.521.446.485 2.515-1.293 1.881 2.987-.038.285-2.573 3.279-2.78 3.35-1.183.42-2.237-.033-3.284.2-.57.13.13 1.5-2.735 1.345-2.127-.117-1.468-1.216-2.03-1.345-1.222-.271-3.026.4-4.1-.323-.736-.498-.853-2.076-.633-2.276.155-.142 2.89-.078 3.847-1.325 1.304-2.064-2.948-1.352-5.249-.538-.806.285-1.624.528-2.257.79-2.055.832-2.32 1.294-.47 2.515.374.247.524.8.23 1.972-.504 2.01-3.569 1.52-4.7 1.771-.537.117-.162 1.177-1.37 1.332-1.28.168-6.583.194-7.675-.071-.453-.11-.356-1.028-.938-1.228-2.203-.75-5.283-.07-4.74-3.627a.587.587 0 01.322-.432c.578-.288.373-1.16-.273-1.16H53.468c-1.005 0-1.83.7-1.08 1.368 1.067.949 2.998 1.856 2.062 2.512-.24.168-1.487-.226-2.108.02-.459.18-3.898 2.489-4.157 2.553-2.237.544-5.897-.504-8.166.026-.524.123-.155 1.138-1.37 1.326-3.75.575-3.395-1.242-4.526-1.39-6.822-.886-15.893.995-22.714.103-1.196-.155-.847-1.209-1.37-1.332-1.326-.31-3.537.033-5.082-.013-.803-.025-1.65.255-2.053-.069-.585-.472.364-1.19 1.115-1.224 1.822-.077 4.43.768 3.881-1.287 0-.004 0-.007.002-.01z" fill="#fff"/><path d="M2.733 66.343v.002c-.362 1.945.99 1.253 2.23 1.292 1.546.045 3.757-.297 5.082.013.524.123.175 1.17 1.37 1.332 6.822.892 15.893-.99 22.714-.104 1.132.149.776 1.966 4.526 1.39 1.215-.187.853-1.202 1.37-1.325 2.27-.53 5.93.517 8.167-.026.265-.065 3.698-2.373 4.157-2.554.62-.245 1.869.149 2.108-.02.934-.654-.987-1.56-2.056-2.508-.753-.669.072-1.37 1.08-1.37h10.011c.646 0 .85.87.273 1.158a.587.587 0 00-.321.434c-.538 3.555 2.536 2.876 4.739 3.625.582.2.485 1.119.937 1.229 1.1.265 6.395.239 7.675.07 1.203-.154.834-1.215 1.37-1.331 1.132-.246 4.19.239 4.701-1.772.293-1.167.146-1.721-.225-1.97-1.842-1.23-1.575-1.654.464-2.517.636-.261 1.454-.503 2.261-.787 2.302-.812 6.55-1.528 5.246.535-.957 1.248-3.692 1.183-3.847 1.325-.22.2-.097 1.779.633 2.276 1.074.725 2.884.052 4.1.324.562.123-.098 1.228 2.03 1.345 2.864.155 2.16-1.216 2.734-1.345 1.041-.233 2.102.22 3.285-.2.207-.072 2.735-3.065 2.78-3.35.634-4.287-1.435-2.509-1.881-2.987-.181-.194-.188-2.425-.097-2.522.181-.194 4.616-.122 5.353.026.556.11 1.688 2.431 2.231 2.535 1.396.265 3.084-.285 4.293.013.653.161.142 1.183.743 1.312 1.487.324.653-1.112 1.384-1.312 1.364-.369 3.453.342 4.959 0 .517-.117.175-1.177 1.371-1.332 3.459-.453 9.11.782 12.207.039.491-.117.387-1.164.885-1.274 5.056-1.112 5.231-2.315 9.123-3.86.582-.233 1.83.168 2.056-.052.181-.174-.155-1.584.194-2.392.084-.194.983-.375 1.338-.957.445-.722.854-1.375 1.207-2.006 1.842-3.282-1.597-6.263-5.361-6.263h-7.057a.646.646 0 010-1.293h8.405c.072 0-.271-1.119.427-1.3 1.351-.362 3.576.252 5.114.058 1.19-.148.854-1.222 1.365-1.332 2.715-.594 3.879-.064 6.769-1.37 1.351-.608 5.483-3.582 6.168-3.789 2.722-.821 2.664 2.037 2.127 2.547-.129.123-1.577-.148-2.392.207-.382.168-1.254 2.108-1.998 2.36-.614.207-1.875-.123-2.056.039-.42.369-.194 10.345.013 11.179.058.226 2.379 3.142 2.541 3.55.239.6-.155 1.874.026 2.075.239.258 2.334-.252 2.58.006.142.156-.466 2.425 1.512 3.653.615.382 1.63.078 2.16.433.53.356 1.468 2.257 1.965 2.347 1.39.266 2.955-.252 4.268.04.51.11.168 1.176 1.364 1.331 1.526.2 9.013.24 10.254-.071.213-.052 2.897-2.198 3.239-2.353 1.264-.587 2.323-1.593.93-1.582-.467.004-.994.066-1.502.11-1.9.164-.94-1.329.964-1.221.58.033 1.125.027 1.574-.094.692-.188.355-1.306.427-1.306h6.631c2.967 0 3.172-.857 1.127 1.293-.09.09-.077 2.476.013 2.567.2.187 1.494-.194 2.082.039.588.232.478 1.163.937 1.26.977.22 2.121-.22 3.02 0 .517.123.297 2.212 1.674 1.255.168-.117-.362-1.765 1.656-1.255.271.072 0 1.203 1.247 1.358 2.852.35 18.479-.756 19.112-.045.143.155-.459 2.386 1.513 3.646.505.324 1.41.15 2.16.44.595.233 5.942 2.366 6.31 2.418 2.363.308 5.284-.154 7.903-.132.591.005 1.669 1.243 1.097 1.393-1.487.388-15.989.31-18.052.032-1.092-.148-.737-.957-1.461-1.286-6.465-2.955-14.625-.362-21.814-1.3-.311-.039-4.513-1.1-5.658-1.358-.394-.09-.381-1.978-3.963-1.306-.685.13-.149 1.571-.55 2.438-.678 1.487-4.629 3.711-6.064 4.273-.22.084-.239.957-.66 1.054-1.325.31-2.948-.265-4.28.033-.511.11-.168 1.176-1.364 1.332-1.468.194-5.735.194-7.196 0-1.203-.156-.841-1.222-1.364-1.339-3.201-.685-6.472-1.228-9.369-2.65-.756-.37-.368-1.197-1.487-1.294-2.049-.18-1.487 1.216-2.069 1.339-2.185.478-3.459 1.183-3.886 1.286-1.635.395-3.924-.355-5.579.026-.524.123-.175 1.17-1.371 1.332-2.573.336-11.088.336-13.662 0-.885-.116-7.435-2.573-8.321-2.69-7.842-1.021-28.978-.316-36.129 1.358-.523.123-.174 1.17-1.37 1.332-1.7.22-6.776.22-8.49 0-1.235-.155-.614-1.241-1.855-1.397-1.733-.22-6.757-.22-8.49 0-1.234.156-.614 1.242-1.855 1.397-8.754 1.106-38.534 1.106-47.282 0-1.235-.155-.614-1.241-1.856-1.397-6.22-.782-9.782.304-16.325-1.228-2.796-.657-6.473 1.533-6.16-1.782.045-.484.473-.83.96-.829.583.002 1.166.02 1.747.012.006 0 .01.006.007.012zm149.999-7.761l-.002.002c-.116-.09-2.475-.076-2.565.014-.129.136.155 1.578-.207 2.399-.963 2.179-5.78 3.278-7.364 4.267-.472.297-1.364 2.037-1.674 2.185-1.915.906-.977 1.523 1.138 1.406.695-.038 1.371-.051 1.991.03 1.138.148 1.642 1.959 5.825 1.39 1.196-.162.841-1.203 1.365-1.326 1.803-.426 4.441.408 6.219-.032 1.841-.46 2.327-2.565.431-2.587-.389-.005-.773-.047-1.116-.18-.252-.097-3.75-3.589-3.847-3.847-.431-1.134-.029-3.531-.192-3.722-.001-.001-.002 0-.002.001zm98.136.564c-.914-1.181.796-3.446 2.254-3.121.207.045 2.987 2.819 3.032 3.026.446 2.133.31 4.9-1.791 5.96-.678.343-1.716-1.253-1.702-2.013.032-1.865-.953-2.767-1.793-3.852zm-34.774-34.181c-1.064-.56-.318-1.783-.107-.6.049.275.029.527.107.6.336.317 1.067-.808 1.293 1.293 4.28 2.259 2.184 3.894 2.609 8.565a.712.712 0 01-.021.244c-.218.65-1.364-.542-1.333-1.228.062-1.346.287-2.798.025-3.902-.129-.544-.918-.33-1.28-3.68-1.843-.969-1.19-1.24-1.293-1.292zm-1.207 11.824c.929-1.185 3.302 1.212 4.804 1.11a6.61 6.61 0 01.606-.02c1.163.03.136 1.297-1.028 1.302-.89.004-1.78.014-2.669.016-1.031.004-2.349-1.596-1.713-2.408zM167.169 6.641c-1.352-.887-.241-2.08 1.322-1.66.864.232 1.682.498 2.138.8 1.133.75.044 1.987-1.271 1.645-.884-.23-1.738-.492-2.189-.785z" fill="#F0C491"/><path d="M5.087 64.95c1.443-.107 3.228 1.386 1.785 1.49-1.457.106-3.24-1.383-1.785-1.49z" fill="#F0C491"/><path d="M152.732 58.588s.001-.002.002 0c.163.184-.233 2.588.192 3.721.097.252 3.595 3.75 3.847 3.847.343.132.727.173 1.114.177 1.895.021 1.41 2.13-.429 2.59-1.778.44-4.416-.394-6.219.033-.524.123-.175 1.164-1.365 1.325-4.183.57-4.687-1.248-5.825-1.39-.622-.08-1.297-.067-1.991-.028-2.116.119-3.055-.501-1.138-1.407.31-.149 1.202-1.888 1.674-2.186 1.584-.989 6.401-2.088 7.364-4.267.362-.82.078-2.256.207-2.398.09-.09 2.449-.104 2.565-.015.001 0 .002 0 .002-.002z" fill="#fff"/></svg>