<svg width="227" height="70" viewBox="0 0 227 70" fill="none" xmlns="http://www.w3.org/2000/svg"><path d="M14.78 44.556a.09.09 0 00.027-.017c2.255-2.084 4.4-.763 6.9-1.247 1.24-.24 1.94-4.316 3.88-5.415 1.425-.804 2.518-.369 3.475-.73.516-.197.393-.958.933-1.167.578-.221 1.8.135 1.977-.025.19-.172-.184-2.4.019-3.253.098-.412.92-.418 1-.633 1.94-4.856 3.874-5.427 8.602-7.373.214-.086.22-.903.632-1 1.179-.296 8.294-.259 9.737-.068 1.037.135 1.08 1.884 4.917 1.32.602-.086 3.53-2.425 3.764-2.48 1.019-.246 4.248.22 4.481-.02.326-.325-.086-6.458 1.056-9.048.117-.27 3.8-4.101 4.046-4.261.497-.32 1.32-.055 1.756-.252.675-.294.344-1.086 1.387-1.221 1.388-.185 5.44-.179 6.833 0 1.972.252 3.516-.59 4.748-2.15C85.879 4.34 86.966 3.28 87.41 3c.51-.32 1.394-.05 1.75-.258C92.326.9 94.47-.751 99.08.36c.461.11.375 1.099.842 1.203.988.221 1.995-.209 3.118.19.172.06 1.07 1.174 2.075 2.328 1.58 1.813 3.274 3.942 4.092 6.204.218.604.484 1.215.976 1.629 1.962 1.646 4.909.147 7.315.724 2.689.645 5.55 1.78 8.602 2.45.466.104.368 1.093.841 1.203 4.199 1 2.738-.663 3.444-2.271.172-.387 5.709-5.68 6.09-5.857 1.308-.596 6.686-.768 8.03-.436.411.104.418.915.632 1 1.854.762 5.949 2.088 6.864 3.899.703 1.395 1.4 4.92 2.219 6.25.124.202.245.41.344.635.41.926 1.231 2.046 1.457 1.059.063-.272.129-.526.364-.59.834-.22 6.206-.177 7.318-.036 1.172.147.583 1.179 1.762 1.326 5.028.633 11.652-.749 16.655-.098 1.142.147.811 1.16 1.296 1.265 1.271.282 2.818-.264 4.076.024.448.105.369 1.105.835 1.21 2.198.49 4.912 1.283 6.753 2.664 2.61 1.959 3.616 6.858 3.966 7.085.823.528 4.2-.233 5.63.098.497.117.172 1.123 1.302 1.265 1.485.184 3.474-.387 4.85-.043.478.122.392 1.221.792 1.258.749.068 1.731-.712 2.351-.583.687.147.749 1.455 1.068 1.64.78.46 2.155-.08 3.137.14 3.061.73 4.395 4.33 2.172 6.558-.283.283-.534.496-.704.6-.645.394-3.893 1.229-4.525 1.628-.51.319-1.375 2.142-1.866 2.234-1.32.252-2.806-.24-4.052.037-.485.105-.166 1.124-1.296 1.265-1.467.184-3.561-.4-4.862-.055-.632.165-.141 1.117-.712 1.246-1.412.307-.62-1.056-1.314-1.246-2.032-.547-6.158.374-8.546.061-1.142-.147-.798-1.16-1.295-1.27-2.223-.474-1.959-.455-3.469-1.026-.712-.27-1.578-.117-2.05-.417-1.861-1.198-1.314-3.316-1.449-3.463-.086-.086-2.345-.098-2.431-.012-.117.116-.123 2.72.012 3.26.104.436.951.313 1.191.902.215.54-.172 1.737.043 1.959 2.022 2.094 1.548 2.48-1.363 2.48h-13.396c-.068 0 .258-1.062-.405-1.24-1.541-.412-4.316.288-6.084.055-1.142-.154-.792-1.16-1.302-1.265-.89-.19-1.921.172-2.824-.024-.098-.025-1.596-1.142-1.651-1.228-1.48-2.318-.707-4.719-2.603-2.727-.148.156-.246.266-.295.277-1.811.405-3.69.933-4.918 1.228-.712.17-1.582.142-2.481.08-1.255-.085-1.721 1.22-.76 2.032.261.222.593.345.937.346h.119c1.518.007 2.338 1.783 1.358 2.942l-.886 1.048c-.484.572-1.205.89-1.953.923-2.491.11-6.204.493-6.924-1.723-.19-.583.098-1.78-.055-1.946-.086-.086-2.339-.092-2.425 0-.123.129.147 1.498-.197 2.278-.171.393-5.697 5.986-6.108 6.127-1.124.399-2.124-.037-3.119.19-.466.104-.387 1.105-.835 1.21-1.258.288-2.812-.264-4.076.024-.43.098-.129 1.75-3.211 1.265-1.167-.184-.829-1.16-1.308-1.265-1.271-.276-2.812.264-4.064-.03-.35-.08-5.01-3.248-5.82-3.617-2.938-1.337-1.512-2.342 1.715-2.438.135-.004.25-.011.342-.023.582-.074 1.448-1.36 2.89-1.55.805-.107 1.677-.636 1.677-1.448 0-.443-.257-.865-.69-.962-2.044-.457-3.173 1.41-3.871 1.504-.97.129-3.978.147-4.844-.062-.46-.11-.375-1.105-.841-1.21-1.584-.349-4.046-.46-5.525-1.436-.522-.343-1.345-2.1-1.867-2.228-4.187-1.062-1.105 3.628.633 4.684.14.086 2.59 1.345 2.744 1.4 1.246.472 2.91-.872 1.774 2.308a.863.863 0 01-.138.241c-2.661 3.377-9.255 4.233-13.516 3.664-1.037-.142-.7-.909-1.393-1.222-6.827-3.07-6.17-2.855-9.522-9.67-.105-.208-.804-.171-.995-.675-.227-.595.129-1.798-.024-1.989-.719-.927-3.463 3.334-3.85 3.506-.786.35-2.148.061-2.284.184-.245.227.21 2.24 0 2.462-.171.178-2.425-.197-3.266.006-.466.11-.374 1.093-.84 1.203-.836.197-4.464.197-5.299 0-.467-.11-.368-1.105-.841-1.21-.902-.196-1.94.185-2.849-.018-.466-.104-.368-1.086-.84-1.203-1.714-.417-8.209.712-10.192 1.24-.497.135-.411 1.08-.86 1.191-2.424.583-6.532-.546-8.975.03-5.25 1.229-13.15 2.027-19.185 1.266-1.173-.148-.583-1.18-1.762-1.327-1.455-.184-8.638.375-8.945.05-.11-.117-.092-2.677.03-3.242.037-.184 2.413-2.646 2.585-2.713 1.676-.651 3.782.135 5.538-.215.737-.144 1.51-2.208 1.666-2.42a.056.056 0 01.026-.018zm92.11-13.515c-.004.002-.007.002-.01 0-.351-.302-7.332.003-8.591.003-.18 0-1.008-1.7-1.317-3.15-.155-.725-.987-1.768-1.727-1.768-.38 0-.76.24-.762.619-.006.904 1.18.475 1.295.652.792 1.228-1.627 1.67-2.192 2.616-.35.583-.055 1.583-.4 2.062-1.264 1.768-2.817 2.18-4.512 2.855-.208.086-.22.903-.632 1a4.102 4.102 0 01-.234.05c-3.604.655-1.388 2.965 2.242 2.474 1.043-.141.712-.927 1.387-1.222.442-.19 1.259.074 1.756-.252.571-.368 2.67-3.376 3.094-3.462.878-.178 4.543-.233 5.298-.037.694.184-.098 1.553 1.314 1.246.179-.037.774-1.397 2.306-1.531.758-.066 1.691-.672 1.728-1.431.018-.363.02-.651-.033-.722-.003-.004-.007-.004-.01-.002z" fill="#fff"/><path d="M222.334 39.63c-.012.003-.013.018-.001.02.16.04.608-.095 1.025.173.159.104 2.554 2.535 2.597 2.72.767 3.272-.848 2.891-1.173 3.714-.215.546.172 1.737-.043 1.958-.16.16-1.498-.135-2.259.203-.356.16-1.332 2.143-1.842 2.253-.902.197-1.946-.172-2.818.03-.473.105-.368 1.112-.835 1.21-2.99.663-6.102 1.891-8.595 2.45-6.487 1.46-13.665 1.522-20.475 2.636-3.456.566-6.931 1.107-10.433 1.103l-38.987-.044c-2.438-.003-4.638 1.653-6.87 2.634-.289.13-2.296 2.978-2.818 3.31-2.223 1.418-5.716 2.16-7.987 2.658-.467.104-.369 1.093-.841 1.21-1.388.33-10.499.282-12.205.06-.234-.03-2.64-.957-4.144-1.283-.43-.092-.135-1.768-3.211-1.27-.657.104-3.543 2.437-3.776 2.492-.902.203-1.934-.172-2.836.019-.497.104-.135 1.08-1.308 1.27-3.082.491-2.769-1.166-3.21-1.264-.989-.221-1.996.209-3.12-.19-.454-.16-3.572-4.623-4.727-4.77-1.645-.216-6.397-.216-8.042-.013-1.173.147-.583 1.179-1.762 1.326-6.213.786-27.676.804-33.846 0-1.136-.147-.804-1.148-1.301-1.265-4.36-1.019-12.439-.024-17.577-1.252-1.983-.473-4.083-.73-6.14-1.228-.466-.11-.368-1.105-.84-1.21-1.903-.417-4.992-.773-6.803-1.418-.313-.11-4.47-4.432-4.629-4.715-.325-.564-.57-.601-.485-1.534.025-.295 3.66-4.243 3.936-4.42 1.534-.977 3.91-1.075 5.531-1.431.473-.104.368-1.093.835-1.21.448-.107.955-.121 1.483-.1.927.036 2.244 2.335 1.335 2.52-1.75.343-3.862-.443-5.538.214-.172.068-2.547 2.536-2.584 2.714-.123.565-.142 3.125-.031 3.241.313.32 7.49-.233 8.945-.049 1.172.148.583 1.179 1.762 1.326 6.035.762 13.942-.03 19.185-1.264 2.444-.571 6.557.552 8.976-.031.448-.11.362-1.056.86-1.191 1.982-.528 8.484-1.658 10.19-1.24.473.116.369 1.099.841 1.203.91.197 1.94-.184 2.85.018.466.105.367 1.1.84 1.21.835.196 4.463.196 5.298 0 .467-.11.375-1.093.841-1.203.848-.203 3.095.172 3.266-.007.21-.214-.245-2.234 0-2.461.13-.123 1.499.165 2.284-.184.387-.172 3.131-4.433 3.85-3.506.147.196-.21 1.4.024 1.99.197.502.897.466.995.674 3.346 6.821 2.689 6.6 9.522 9.67.694.313.356 1.08 1.393 1.221 4.261.57 10.855-.287 13.516-3.663a.863.863 0 00.138-.241c1.136-3.18-.528-1.836-1.774-2.309a115.032 115.032 0 01-2.744-1.4c-1.738-1.061-4.82-5.746-.633-4.683.516.128 1.339 1.884 1.867 2.228 1.485.976 3.947 1.087 5.525 1.437.46.104.374 1.099.841 1.21.866.202 3.874.19 4.844.06.704-.094 1.828-1.954 3.869-1.502.434.096.692.518.692.962 0 .811-.872 1.34-1.675 1.446-1.441.191-2.304 1.477-2.886 1.55a3.61 3.61 0 01-.345.023c-3.227.085-4.65 1.102-1.712 2.439.811.368 5.47 3.536 5.82 3.616 1.259.295 2.794-.252 4.064.03.479.105.142 1.081 1.308 1.265 3.082.485 2.781-1.166 3.211-1.264 1.265-.283 2.818.264 4.076-.025.449-.104.369-1.105.835-1.21.989-.22 1.996.21 3.119-.19.405-.147 5.931-5.734 6.109-6.127.343-.78.073-2.148.196-2.277.086-.086 2.339-.086 2.425 0 .154.16-.135 1.363.055 1.946.725 2.216 4.435 1.832 6.924 1.723.749-.033 1.469-.351 1.953-.923l.886-1.048c.98-1.16.16-2.936-1.358-2.942h-.119a1.458 1.458 0 01-.937-.346c-.96-.813-.495-2.115.76-2.03.899.062 1.769.09 2.482-.082 1.228-.295 3.106-.817 4.917-1.228.049-.01.147-.118.295-.273 1.9-1.987 1.123.405 2.603 2.722.055.087 1.547 1.204 1.651 1.228.903.197 1.934-.165 2.824.025.504.11.154 1.117 1.302 1.265 1.768.233 4.543-.473 6.084-.056.657.178.338 1.24.405 1.24h13.396c2.912 0 3.385-.386 1.363-2.48-.215-.22.172-1.418-.043-1.958-.233-.59-1.087-.467-1.191-.903-.129-.54-.129-3.143-.012-3.26.086-.086 2.351-.073 2.431.013.135.147-.411 2.265 1.449 3.462.466.301 1.338.148 2.05.418 1.511.577 1.247.552 3.469 1.025.503.104.153 1.117 1.295 1.27 2.389.314 6.514-.6 8.546-.06.694.183-.098 1.553 1.314 1.246.571-.123.08-1.08.712-1.247 1.302-.343 3.395.24 4.862.056 1.13-.142.811-1.16 1.296-1.265 1.246-.27 2.732.215 4.052-.037.491-.092 1.35-1.91 1.866-2.235.632-.399 3.886-1.228 4.525-1.627.808-.496 3.431-3.43 2.652-4.705a.016.016 0 00-.017-.007zM105.656 64.192l.002.004c1.029.42 3.822.11 6.29-.048.917-.058 1.532-1.65.831-2.244a.802.802 0 00-.413-.189c-1.611-.208-3.572.351-5.059.006-.497-.117-.166-1.1-1.301-1.253-3.343-.434-.604 3.6-.352 3.72l.002.004zm1.222-33.148c.004 0 .007.001.01.004.04.052.048.228.043.467-.021.874-1.132 1.564-1.991 1.724-1.348.25-1.889 1.46-2.053 1.495-1.412.306-.62-1.063-1.314-1.247-.755-.202-4.42-.14-5.298.037-.417.086-2.517 3.094-3.094 3.463-.497.319-1.32.055-1.756.251-.675.295-.344 1.087-1.387 1.222-3.629.48-5.837-1.809-2.238-2.474a3.15 3.15 0 00.23-.05c.412-.097.424-.914.632-1 1.689-.675 3.248-1.093 4.513-2.855.344-.485.049-1.48.399-2.062.565-.946 2.99-1.388 2.192-2.616-.115-.177-1.303.253-1.295-.65.003-.377.38-.614.758-.614.739 0 1.578 1.048 1.734 1.77.313 1.444 1.14 3.135 1.314 3.135 1.26 0 8.245-.305 8.591-.003a.014.014 0 00.01.003z" fill="#F0C491"/><path d="M105.656 64.199a.005.005 0 00-.002-.004c-.253-.119-2.992-4.154.352-3.72 1.135.148.804 1.136 1.301 1.253 1.487.345 3.449-.22 5.061-.006a.8.8 0 01.41.188c.701.595.086 2.187-.831 2.246-2.468.157-5.26.467-6.289.047a.005.005 0 01-.002-.004z" fill="#fff"/></svg>