<svg width="126" height="45" viewBox="0 0 126 45" fill="none" xmlns="http://www.w3.org/2000/svg"><path d="M39.347 8.465a.008.008 0 01.004-.004c1.055-.342 1.95-.357 3.077-.599.22-.048.178-.53.405-.585.475-.113 1.743.108 1.883-.009.633-.516-1.22-.671-.594-1.19.156-.128 1.668.113 2.181-.01.26-.062-.041-.563.94-.617 1.331-.074.988.546 1.254.624 1.184.343 1.366-1.09 1.81-1.179.83-.17 4.706-.155 5.622-.036.71.093 1.46.535 3.113.621 1.295.066 2.264.824 3.353 1.28 2.29.959 3.14 1.42 4.002 2.25 1.522 1.467 1.326 4.155 3.04 5.392.17.122.562-.024.645.03.027.018-.12.513.2.6 1.286.346 3.897-.329 5.26.005.2.048.206.445.308.487.346.137.767.053.997.203.71.462.563 1.002.8 1.593.04.107.485.104.494.269.006.08-.25 1.545-.313 1.599-.137.122-.898-.075-1.271.018-.137.033-2.065 1.152-2.202 1.184-.674.162-3.831-.155-3.972.006-.08.093.087.69.003.98-.236.814.004.811.85.77.26-.012.508-.008.729.047.194.047 2.459 1.62 2.832 1.77.268.107.844-.081.945.023.102.105-.083.69.021.952.129.322.564.12.612.671.084.94-.537.687-.615.952-.367 1.256.934 1.247 1.179.988.06-.063-.072-.728.096-1.107.426-.967 4.523-3.775 5.535-4.231.504-.227 2.763-1.179 2.933-1.218.611-.137 1.363.125 1.981-.012.236-.05.078-.543.63-.614 4.577-.597 13.317.197 17.282 2.399.328.182.117.683.251.826.185.197 1.131.221 1.629.492.146.081 2.304 2.223 2.396 2.36.179.266-.009.797.173 1.03.125.161.516.048.516.075v1.39c0 1.941 1.484 2.95 3.375 3.39.242.057.081.54.633.615 2.005.262 3.372.143 5.338.575 1.226.272 3.294 1.725 4.616 2.373.251.122.847-.078.958.015.103.088-.034.711-.028 1.032.002.103.007.214-.029.31-.118.319-.836.41-1.176.398-.463-.017-1.041.157-1.548.041-.221-.05-.182-.531-.409-.585-4.943-1.182-10.433 1.531-15.466.82a54.75 54.75 0 01-4.416-.832c-.22-.05-.179-.537-.405-.588-.788-.173-1.943-.22-2.689-.695-.349-.22-1.889-2.238-2.1-2.28-.505-.101-2.683-.116-3.16-.006-.242.057-.081.544-.633.615-1.393.182-6.105.182-7.498 0-.553-.071-.391-.558-.633-.614-1.435-.338-3.939-.242-5.559-.61-.137-.029-2.062-1.148-2.196-1.18-2.053-.49-1.328.34-1.674 1.103-.066.14-.86.552-1.009.776-.173.26-.02.779-.194 1.006-.853 1.121-2.13 1.477-3.386 1.984-.105.042-.105.444-.305.49-.45.1-.975-.1-1.39 0-.32.074-.161.602-.194.602h-2.346c-1.725 0-3.058-1.166-1.456-1.805.251-.102.18-.46.454-.57.275-.11.841.08.949-.024.077-.078-.066-.728.098-1.098.093-.209 1.862-1.095 1.104-1.871-.041-.042-1.148-.048-1.19-.003-.105.107.116 1.086-.003 1.197-.084.074-.666-.078-.95.017-.351.12-.733 1-.924 1.09-.361.164-.934-.006-1.08.13-.147.138.146.806-.2.875-1.08.206-2.826.069-3.805.284-.376.083-.877 1.011-2.685.584-1.21-.269-2.038.76-.806.616.332-.039.722-.095 1.123-.036a.6.6 0 01.296.142l.059.05c.453.383.207.895-.37 1.034-.105.026-1.505 1.154-1.609 1.178-.45.102-.976-.098-1.39 0-.32.075-.162.603-.195.603h-6.492c-.557 0-.776-.724-.312-1.033.497-.331.19-1.444-.405-1.397a2.32 2.32 0 00-.346.052c-.241.057-.08.54-.632.615-2.382.31-5.704.319-7.478-1.102a.681.681 0 00-.234-.124c-.595-.174-1.051.532-.65 1.003l.717.84c.242.284.644.354 1 .465.595.187.87.919.51 1.28-.093.093-1.176-.089-1.587.007-.227.053-.182.53-.41.585-.566.137-6.785.137-7.349 0-.223-.054-.182-.535-.408-.585-.48-.108-.964.101-1.513-.093-.084-.03-.561-.877-.764-1.008-.898-.591-2.062-.505-2.987-.699-.236-.05-.075-.543-.63-.614-.555-.072-1.873-.066-2.416.006-.594.077-.767.88-1.128 1.116-.997.65-3.262 1.026-4.476 1.295-.227.05-.18.53-.409.588-2.712.653-8.179-.406-11.294-.012-1.387.174-2.444 1.505-3.732.96a.794.794 0 01-.084-.041c-.302-.173-.913-1.537-.708-2.023.033-.078 1.125-1.125 1.197-1.17 1.05-.663 3.223-1.018 4.479-1.292.227-.05.179-.531.409-.588 1.313-.316 3.643.301 4.962-.012.227-.054.185-.528.409-.585.605-.146 2.569.153 2.78-.006.066-.05-.06-.558 0-.596.065-.041.465-.034.872-.135.854-.211 1.463-1.444 2.318-1.65.412-.098 1.501.087 1.585-.009.077-.086-.096-.677.012-.958.683-1.79 4.126-4.813 5.956-5.305l.047-.012c1.86-.472 1.272-1.395-.644-1.477-1.656-.072-1.77-.56-2.217-.62-3.62-.475-4.401.14-8.158-1.146-1.104-.38-3.748-.561-3.342-2.194.23-.922 1.668-.704 2.175-.817.137-.03 2.062-1.149 2.2-1.185 5.082-1.229 10.44-1.245 15.666-1.102 1.728.048 3.084.051 3.227-.097.337-.35-.155-2.244-.817-2.375-.46-.091-1.042-.085-1.639-.062-.89.036-2.316.106-2.92-.55-.043-.045-.04-1.149 0-1.19.125-.135 2.222.122 2.78-.01.242-.056.08-.543.633-.614.552-.072 2.375.16 2.557.024.069-.051-.06-.448 0-.597.092-.23.639-1.614.692-1.698.161-.25 1.543-1.223 1.608-1.367.168-.372.018-1.02.099-1.1.08-.081.728.068 1.101-.1.244-.11.37-.806 1.274-1.105a.008.008 0 00.005-.004z" fill="#fff"/><path d="M2.955 42.466c-.004.005 0 .013.006.014.817.06.908-1.124 1.613-1.213 3.115-.394 8.582.665 11.294.012.227-.054.179-.538.409-.588 1.217-.269 3.482-.645 4.476-1.295.36-.236.534-1.042 1.128-1.116.546-.069 1.876-.075 2.416-.006.54.069.394.567.63.614.925.195 2.089.105 2.987.699.203.134.68.978.764 1.008.549.194 1.032-.015 1.513.093.226.05.185.53.408.585.564.137 6.783.134 7.35 0 .226-.054.182-.532.409-.585.411-.099 1.497.083 1.587-.006.36-.362.085-1.094-.51-1.28-.356-.112-.758-.182-1-.465l-.717-.841c-.401-.471.055-1.177.65-1.003a.683.683 0 01.234.124c1.774 1.42 5.096 1.412 7.478 1.102.552-.072.39-.558.632-.615a2.29 2.29 0 01.337-.05c.594-.048.903 1.07.407 1.4-.462.308-.244 1.028.311 1.028h6.5c.033 0-.125-.531.194-.603.415-.095.94.102 1.39 0 .108-.023 1.505-1.151 1.61-1.178.573-.142.82-.652.37-1.034l-.06-.051a.596.596 0 00-.294-.14c-.401-.06-.792-.004-1.125.035-1.231.144-.403-.884.807-.615 1.808.426 2.306-.502 2.685-.585.98-.218 2.725-.078 3.805-.284.346-.066.053-.74.2-.874.146-.134.719.036 1.08-.131.19-.087.573-.97.925-1.09.283-.095.865.06.949-.017.12-.11-.102-1.087.003-1.197.041-.042 1.148-.039 1.19.003.758.776-1.011 1.665-1.104 1.87-.167.374-.02 1.024-.098 1.099-.108.104-.683-.084-.95.024-.265.107-.199.468-.453.57-1.604.638-.27 1.805 1.457 1.805h2.345c.033 0-.126-.531.194-.603.415-.095.94.102 1.39 0 .2-.044.2-.447.305-.49 1.256-.506 2.533-.861 3.386-1.983.173-.227.021-.743.194-1.006.15-.224.943-.636 1.009-.776.349-.76-.38-1.593 1.674-1.104.137.033 2.059 1.152 2.196 1.182 1.623.367 4.124.271 5.559.609.242.056.08.54.632.614 1.394.182 6.106.182 7.499 0 .552-.071.39-.558.633-.614.474-.11 2.655-.099 3.16.005.211.042 1.751 2.06 2.1 2.28.746.475 1.901.522 2.689.695.226.051.185.538.405.588 1.217.276 2.775.599 4.416.83 5.033.712 10.523-2 15.466-.818.227.054.188.534.409.585.639.145 1.394-.17 1.884.02.22.085.639.083.721-.137.07-.19.491-.457.653-.335.205.154.348.525.108 1.443-.054.203-.445.209-.484.31-.233.594-.089 1.125-.8 1.587-.247.165-.671.036-.841.132-1.939 1.104-2.113 1.3-4.228 1.763-.227.05-.179.531-.409.588-.755.182-1.811-.164-2.575.012-.242.057-.081.54-.633.615-1.632.212-12.407.277-13.69-.03-.226-.054-.185-.528-.408-.585-1.179-.284-3.014-.304-4.363-.609-.379-.086-3.255-1.996-4.04-2.351-1.922-.871-5.01-.74-7.301-1.226-.242-.051-.066-.526-.636-.618-1.39-.22-1.253.436-1.453.52-2.289.972-4.434 1.342-6.857 1.897-.17.039-2.635 1.733-2.805 1.775-.463.114-1.058.019-1.61-.006-.165-.007-.658-.432-.526-.534.262-.203 1.044.05 1.151-.05.045-.042.042-1.146 0-1.188-.056-.057-1.295-.05-1.572.009-.484.104-.567 1.596-2.107 1.175-.29-.077-.066-.811-.946-.596-.101.024-.044.913-1.148.6-.212-.06-.168-.535-.397-.588-1.199-.283-2.307 1.314-1.084 1.174.331-.038.705-.069 1.084.02.241.056.074.536.635.614.113.016.249.025.398.03.885.03 1.416.506.53.543-1.313.05-3.652-.248-4.732.006-.242.056-.08.54-.633.614-.982.129-4.133.129-5.111 0-.552-.071-.391-.558-.633-.614-.97-.227-2.5.155-3.545.018-.244-.033-2.843-1.176-3.016-1.215-.45-.098-.982.102-1.397.003-.334-.077.05-.758-.635-.608-.278.06-.04.528-.343.605-1.167.293-3.157.328-4.38.597-.237.05-.078.543-.63.615-2.122.277-9.558.277-11.676 0-.552-.072-.391-.558-.633-.615-.513-.12-2.948-.107-3.545-.03-.552.072-.39.558-.632.615-.904.212-2.268-.2-3.17.012-.24.056-.08.54-.632.614-1.36.18-3.15-.22-4.514-.047-.57.071-.284.573-.857.644-1.014.128-4.097.128-5.111 0-.57-.071-.284-.573-.857-.644-3.458-.436-4.8.36-8.02-1.071-1.069-.476-.902-.569-1.092-.692a.008.008 0 00-.011.002zm92.997-5.253l-.001-.002c-2.063-.881-.846 1.537.183 2.188.758.477 1.892.522 2.689.695.227.05.179.531.409.588.755.182 1.817-.167 2.575.012.226.053.185.528.408.585 1.288.305 2.119-1.33.799-1.232-.664.05-1.405.181-1.986.038-.758-.188-4.073-2.442-5.075-2.87v-.002z" fill="#F0C491"/><path d="M81.12 9.057h.004c.047-.053.55.07.595.002.106-.153.049-.383.009-.604-.177-.977.822-1.023.594-1.99-.108-.462.101-2.082-.006-2.183-.056-.053-.725.026-1.341-.09-.818-.153-.453-1.49.353-1.692.743-.179 1.76.14 2.56-.02.242-.048.657-.92.907-1.084.723-.474 1.92-.528 2.686-.698.227-.05.18-.531.409-.588.63-.152 4.568-.131 5.335-.03.555.072.388.564.63.618.775.167 1.963.224 2.685.698.218.143.636.946.773 1.009.373.167 1.023.02 1.098.098.104.108-.084.686.02.952.114.286.529.227.58.439.095.4.095 2.169 0 2.569-.051.212-.466.152-.58.438-.104.263.084.845-.02.952-.078.078-.728-.065-1.098.099-.627.277.069.88-1.874 1.104-.965.11-1.896.566-2.867.55-.473-.008-.92.016-1.236.136-.116.045-1.629 1.623-1.77 1.793-.175.215-.014.776-.19 1.006-.203.265-1.552 1.244-1.606 1.37-.17.384-.03 1.04-.09 1.107-.083.095-2.192.071-2.553.026-.552-.071-.394-.564-.63-.614-.609-.135-1.33.107-1.97-.015-.047-.01-.772-.552-.799-.594-.4-.63.543-.57.594-.77.28-1.077-.469-.922-.594-1.241-.155-.394.035-.704-.046-.873-.307-.633-.734-.213-.557-.894.08-.305-.073-.874-.007-.986h.003z" fill="#fff"/><path d="M81.116 9.059c.003 0 .005.002.004.005-.062.119.085.682.008.982-.177.68.25.261.555.895.082.169-.107.479.048.872.125.32.874.164.594 1.241-.05.2-.994.14-.594.77.027.042.752.585.8.594.638.122 1.363-.117 1.97.015.235.05.077.543.629.614.36.048 2.47.069 2.554-.027.06-.065-.08-.725.09-1.106.056-.126 1.402-1.102 1.605-1.37.176-.23.018-.79.19-1.006.141-.173 1.654-1.748 1.77-1.793.704-.271 2.059-.054 2.91-.09.135-.939.998-.023.05-.001-.017 0-.034 0-.05.002-.021.137.047.56 0 .596-.162.12-1.648-.095-2.176.012-.048.01-.779.55-.805.591-.436.686.543.561.572.6.436.576-.456.594-.492.668-.468.913-.946 2.149-1.972 2.808-.242.155-.642.027-.854.122-.328.144-.167.528-.674.594-.86.114-3.655.114-4.515 0-.507-.069-.346-.45-.674-.594-.215-.092-.612.036-.853-.122-.114-.072-1.844-1.781-1.871-1.913-.227-1.113-.373-3.84 1.181-3.96zM39.35 8.46s-.002 0-.002-.002c.074-1.112 1.14-.99 1.54-1.22 1.34-.77 3.509-2.08 4.634-2.35.755-.183 1.817.166 2.575-.013.227-.053.185-.528.409-.585.823-.196 6.699-.164 7.722-.03.552.072.39.559.633.615 1.461.346 1.047.509-.398.1a3.746 3.746 0 00-.53-.118c-.917-.119-4.793-.134-5.622.036-.445.09-.627 1.522-1.811 1.179-.266-.078.077-.698-1.254-.624-.978.054-.677.558-.94.618-.513.122-2.025-.12-2.18.009-.627.519 1.226.674.593 1.19-.14.117-1.408-.104-1.883.01-.227.053-.185.536-.405.584-1.128.245-2.026.257-3.08.6z" fill="#F0C491"/><path d="M69.784 43.075c-.535.045-1.469.09-1.958.024-.56-.078-.394-.558-.635-.615-.379-.088-.753-.057-1.084-.02-1.225.141-.117-1.456 1.084-1.173.23.053.184.528.396.587 1.104.31 1.048-.575 1.15-.6.88-.211.659.52.945.597 1.54.421 1.623-1.07 2.107-1.175.277-.06 1.518-.066 1.572-.01.042.043.042 1.147 0 1.188-.11.102-.89-.149-1.152.051-.143.11-.006.516-.041.55-.385.318-1.818.548-2.388.596h.004z" fill="#fff"/><path d="M33.97 13.875c.269-.003.82.393.604.555-.182.137-2.026-.093-2.557-.024-.531.069-.391.558-.633.614-.555.132-2.652-.125-2.78.01-.043.041-.043 1.145 0 1.19.68.739.475.682-.529.645a2.363 2.363 0 01-.456-.054c-.212-.05-.156-.472-.436-.579-.28-.107-.869.069-.961-.018-.045-.039-.045-1.137 0-1.179.092-.086.686.09.96-.018.275-.107.225-.528.437-.578.751-.185 1.814.167 2.572-.015.226-.054.185-.528.411-.585.886-.213 2.26.047 3.368.036zm-9.541 12.487c0 .002.001.003.003.003.7.03 1.408.011 2.114-.001.782-.014 1.336.805.606 1.085-.326.125-.712.179-1.107.23-.469.061-.877-.442-1.264-.714-.183-.13-.346-.344-.351-.568l-.001-.035zm44.112-13.609c.006-.45.975-1.042 1.141-.624.184.46.216 1.08.287 1.654.028.228-.343.75-.531.617-.777-.56-.904-1.017-.897-1.647zM15.29 34.822c.424-.074.745.503.387.742-.521.346-1.003-.636-.387-.742z" fill="#F0C491"/><path d="M95.952 37.21c0 .001 0 .002.002.002 1 .428 4.316 2.685 5.074 2.87.581.145 1.322.013 1.986-.037 1.321-.098.488 1.541-.799 1.23-.226-.053-.185-.527-.408-.584-.758-.182-1.82.17-2.576-.012-.226-.054-.178-.537-.408-.588-.797-.176-1.93-.218-2.689-.695-1.032-.65-2.246-3.07-.183-2.188l.001.002z" fill="#fff"/></svg>