<svg width="214" height="56" viewBox="0 0 214 56" fill="none" xmlns="http://www.w3.org/2000/svg"><path d="M205.243 15.98l6.988.284.122-1.76-7.11 1.476z" fill="#FFF8F0"/><path d="M192.263 15.023l-6.297.167.16.85 6.137-1.017zM33.2 8.57l-12.98.537L20 10.3l13.2-1.73z" fill="#5F3E22"/><path d="M105.899 16.804l1.754-2.496.087 1.664-1.841.832z" fill="#FFF8F0"/><path d="M20.015 19.588l-12.34 1.474-.876 5.213 1.36.195-1.657.843-5.185 24.032 3.493.143-3.493 1.271 2.925.382-.253.453-3.336.596-.111 1.414 36.315-3.087-3.818-4.965-3.223-2.514-4.81-3.073 3.388-1.454 33.442-2.066 16.257-.264 3.663-2.611.606 2.372 81.359-4.506 4.454-2.366 4.003 2.16 12.304-.142 4.603 4.508-4.781 5.77.714.69 5.796.357 21.616-.797.228-1.708-2.034-.358 2.034-.588L210.09 28l-.59-.18-1.52-.22 2.1-.581-1.748-9.098-3.3-.3 3.062-1.285-.869-4.361-9.438.56-.194-9.137-1.763-.383 1.717-.437-.015-1.988-76.068 2.256-4.069 2.43-.102-2.277-96.976 3.52-.302 13.069z" fill="#F2CA90"/><path d="M9.847 20.985l3.797.553-4.505 1.498 5.498.358-3.99.445-1.597 1.158-.284.785 1.366.588-1.951 1.195v1.32l2.838 1.568-.01.413-3.611 1.47-1.32 10.338 6.668.492-5.147.642-1.242.739.082 1.035 6.177.837-5.246.904-.948.805.523 2.12 3.497 1.363-2.026.263 4.968.46-5.082 1.43 1.078.459 3.922.148-12.76 1.462.405-1.643 3.71-1.002-2.713-.279 2.615-1.265-3.089-.296 4.97-24.167 1.405-.394-.556-.46-.294-.345.474-4.682 2.38-.315zM117.044 5.452l-1.428-.813L64.01 7.157H38.34l-1.672-1.151 80.723-2.785-.347 2.23zm80.199 7.134l6.194.817-.193 1.115-4.317 2.002 5.087.635.562.517 1.637.768.097 1.447-7.452 2.334 6.681.118-1.509.797 3.644.71.129 2.688-5.28 1.466 5.729.616 1.236 4.963-3.073 1.31 4.1.064.369 4.933-3.59 1.988 1.295.36-.305.326-14.302 1.88 18.675-.824v-1.708l-2.222-.358 1.935-.533-1.729-10.027-1.021-3.197-2.398-.12 2.299-.507-.911-5.96-.678-3.285-2.706-.185-.452-.097.183-.39 3.39-.913-1.122-4.361-9.982.611zM180.681 1.361l-13.27.946-1.578.97-8.724-.536-30.472 2.362-3.879-1.024-5.871 2.33 1.185-1.754 2.714-1.313L181.199.928l-.518.433z" fill="#FFF8F0"/><path d="M197.917 28.445l-9.172-.506 7.272-2.571.802-9.594-1.66-4.992 1.41-.895-.433-6.434-14.545-.36 13.64-1-.536-1.007-3.504-.099 6.342-.397.016 1.988-1.81.295 1.973.51.18 23.445-2.989 1.077 3.013.372.001.168z" fill="#FFF8F0"/><path d="M20.29 19.914l-5.445.664-.479 2.11 2.884.667-3.169.587-1.315 5.79-.176.777-.197.868L10.02 41.83l5.148 1.01-5.318 1.064 1.35 1.877 8.577-.193-7.11 1.586 1.521 4.822 5.034-.225-4.795.984.534 1.692 21.114-2.269L20.29 41.252v-18.55l1.69-.929-1.69-.119v-1.74zm177.673-7.379l.585.051.208 3.384-1.001.482.16.488.924.381.278 4.54-1.082.656 1.131.14.86 14.004-5.558 6.763-10.5.497 7.422-7.386 6.489-5.755.035-2.503-3.103-.45 3.079-.999.073-14.293z" fill="#DBA962"/><path d="M35.428 6.52l-14.395.527-.214 33.144 59.356-3.23 1.464-.671.625.507 83.964-4.64 1.781-.604 2.221.384 27.48-1.518-26.155 1.11-3.326-1.869-5.387 2.24-79.282 3.365-.655-2.246-5.126 3.266-42.4-.048-1.505-1.51-10.45.736.18-11.227 1.875-3.189-.71-8.175 10.66-6.352z" fill="#DBA962"/><path d="M125.977 47.671c-.059.003-.1-.015-.126-.055a.276.276 0 01-.049-.163c.006-.105.026-.169.059-.19a.22.22 0 01.116-.038l.087-.005c.194-.01.336-.07.427-.18.091-.115.162-.24.214-.374.058-.142.097-.237.116-.287l1.697-4.386a.805.805 0 00.058-.252c0-.125-.046-.212-.136-.263a1.156 1.156 0 00-.378-.116.546.546 0 01-.203-.051c-.026-.02-.039-.078-.039-.175 0-.083.02-.14.058-.17a.411.411 0 01.204-.05c.323-.017.578-.003.766.043a.92.92 0 01.503.286c.142.144.274.372.397.684l1.624 4.204c.096.257.189.45.279.575.091.127.226.188.406.185l.057-.002c.065-.004.11.007.136.034.026.019.041.077.048.173a.307.307 0 01-.048.169.148.148 0 01-.126.069 20.99 20.99 0 00-2.261.123c-.058.003-.103-.015-.135-.055a.331.331 0 01-.039-.163c.007-.097.023-.157.049-.179.026-.029.071-.045.135-.049.219-.012.374-.04.465-.087.09-.053.135-.139.135-.256 0-.09-.039-.25-.116-.48l-.329-.843-2.391.128-.282.762c-.019.07-.028.11-.028.116-.078.267-.117.438-.117.515 0 .117.049.195.145.23.098.03.282.038.553.023l.058-.003c.065-.004.11.008.135.034.026.02.042.077.049.174a.3.3 0 01-.049.168c-.026.044-.067.066-.126.07-.414.002-.766.01-1.057.026-.207.011-.52.039-.941.082zm1.843-2.653l2.033-.109-.977-2.613-.029.002-1.027 2.72zm-7.511 2.962a.155.155 0 01-.137-.055.336.336 0 01-.038-.164c.006-.105.026-.168.058-.19.032-.024.094-.037.185-.042.189-.01.329-.052.421-.127a.493.493 0 00.165-.28c.026-.112.042-.255.049-.43V42.56a2.108 2.108 0 00-.049-.414.4.4 0 00-.165-.262c-.091-.072-.232-.103-.421-.093l-.058.003c-.065.004-.111-.005-.137-.024-.026-.026-.042-.088-.048-.185a.3.3 0 01.038-.158.166.166 0 01.137-.08c.417 0 .801-.01 1.152-.028l3.126-.16c.168-.008.253.07.253.237l.029 1.464a.204.204 0 01-.078.16.26.26 0 01-.156.06.485.485 0 01-.223-.04c-.065-.031-.101-.075-.107-.13a4.26 4.26 0 00-.175-.77c-.059-.178-.149-.305-.273-.382-.117-.084-.285-.124-.506-.12l-1.374.071v2.32c.358-.08.693-.13 1.004-.146.513-.027.947.033 1.304.18.363.148.635.362.817.643.181.282.272.606.272.973 0 .485-.136.887-.408 1.207a2.41 2.41 0 01-1.021.69 4.46 4.46 0 01-1.276.256l-1.199.055c-.351.02-.739.051-1.162.095h.001zm2.39-.577c1.064-.072 1.597-.624 1.597-1.657 0-.506-.166-.868-.497-1.086-.331-.225-.733-.325-1.207-.3a2.523 2.523 0 00-.614.095v2.122c0 .34.049.567.146.68.104.111.295.16.575.145zm-8.519.913a.155.155 0 01-.138-.056.337.337 0 01-.039-.165c.006-.105.026-.169.059-.191a.393.393 0 01.187-.042c.19-.01.33-.053.422-.128a.492.492 0 00.167-.28c.026-.113.042-.257.049-.43v-4.148a2.043 2.043 0 00-.049-.415.394.394 0 00-.167-.263c-.092-.071-.232-.102-.422-.092l-.059.002c-.066.004-.112-.005-.138-.024-.026-.026-.042-.088-.049-.185 0-.063.013-.116.039-.159a.167.167 0 01.138-.08 22.387 22.387 0 002.384-.123c.059-.002.102.02.128.067a.24.24 0 01.049.154c-.006.105-.029.168-.068.191a.363.363 0 01-.176.04c-.19.01-.33.056-.422.137a.5.5 0 00-.176.28c-.02.106-.032.246-.04.42v1.44c.36-.08.697-.13 1.01-.147.516-.027.954.04 1.313.202.365.162.639.39.822.687.182.289.273.621.273.996 0 .486-.137.887-.411 1.2a2.42 2.42 0 01-1.027.691 4.508 4.508 0 01-1.284.258l-1.207.066c-.353.02-.742.051-1.168.095v.002zm2.297-.575c.536-.036.954-.18 1.254-.433.306-.253.46-.665.46-1.234 0-.515-.17-.895-.509-1.141-.34-.247-.741-.357-1.205-.333a2.551 2.551 0 00-.618.095v2.254c-.007.237.01.414.049.53a.36.36 0 00.186.22c.085.038.212.051.383.042zm-9.608 2.819a.357.357 0 01-.228-.06.22.22 0 01-.089-.184v-1.73c0-.224.11-.342.327-.354l.356-.02c.409-.553.725-1.31.949-2.272.224-.963.339-1.873.346-2.733a2.058 2.058 0 00-.049-.416.395.395 0 00-.168-.264c-.092-.072-.234-.103-.425-.093l-.059.003c-.066.003-.112-.005-.138-.025-.026-.026-.043-.088-.05-.186 0-.063.014-.116.04-.16a.16.16 0 01.128-.08c.435 0 .827-.01 1.176-.028l2.466-.127a23.76 23.76 0 001.172-.091c.059-.003.101.02.127.067.033.04.049.091.049.154-.006.105-.029.169-.069.192a.361.361 0 01-.177.04c-.19.01-.331.056-.423.137a.495.495 0 00-.177.282 2.99 2.99 0 00-.04.42v3.933c0 .272.014.473.04.604a.444.444 0 00.216.282c.112.056.292.078.542.064.216-.012.325.094.325.317v1.725c0 .076-.03.14-.089.192a.323.323 0 01-.197.085c-.216.012-.338-.059-.364-.21-.066-.45-.135-.78-.207-.993-.065-.212-.17-.367-.315-.464-.144-.097-.361-.137-.65-.121l-2.832.154c-.29.016-.508.08-.653.193-.145.113-.254.28-.326.5-.067.22-.132.56-.199 1.018-.026.155-.138.238-.336.25h.001zm3.507-2.519a.956.956 0 00.316-.058c.079-.032.138-.099.178-.198a1.28 1.28 0 00.069-.475v-5.003l-1.371.071a1.04 1.04 0 00-.326.06c-.072.031-.132.1-.177.207-.04.1-.06.255-.06.465-.039 1.112-.148 2.089-.325 2.929-.178.84-.471 1.555-.88 2.143l2.578-.14h-.002zm-10.443 1.052c-.06.003-.103-.016-.13-.056a.283.283 0 01-.05-.166c.007-.105.027-.17.06-.193a.234.234 0 01.12-.038l.089-.005c.2-.01.346-.072.439-.181a1.46 1.46 0 00.219-.38l.12-.29 1.741-4.445a.808.808 0 00.06-.256c0-.126-.047-.214-.139-.265a1.232 1.232 0 00-.388-.117.546.546 0 01-.208-.053c-.027-.02-.04-.078-.04-.176 0-.084.02-.141.06-.172a.422.422 0 01.209-.052c.331-.017.593-.002.785.044a.948.948 0 01.516.288c.146.147.282.378.408.693l1.666 4.258c.099.26.195.455.288.583.092.127.231.19.415.187l.06-.004c.066-.003.112.008.139.035.026.02.043.078.049.176 0 .063-.016.12-.049.17-.027.044-.07.067-.129.07a21.894 21.894 0 00-2.32.127.156.156 0 01-.139-.055.329.329 0 01-.039-.166c.006-.098.023-.159.049-.181.027-.03.073-.046.139-.05.225-.012.383-.042.476-.088.093-.054.139-.14.139-.26 0-.09-.039-.253-.119-.486l-.338-.854-2.454.132-.288.772c-.02.07-.03.11-.03.117-.079.271-.119.445-.119.522 0 .119.05.197.15.234.099.03.288.037.567.022l.06-.004c.066-.003.113.008.139.035.027.02.043.078.051.176a.3.3 0 01-.051.17c-.026.044-.069.067-.129.07a22.39 22.39 0 00-1.084.028c-.212.012-.535.04-.967.085l-.003-.001zm1.892-2.69l2.087-.11-1.003-2.647-.03.002-1.054 2.756zm-4.755 3.025a2.892 2.892 0 01-1.56-.337 2.884 2.884 0 01-1.122-1.162c-.274-.513-.41-1.121-.41-1.825s.134-1.343.4-1.9a3.168 3.168 0 011.142-1.314c.494-.327 1.071-.508 1.73-.542.574-.03 1.083.067 1.528.29.446.216.668.577.668 1.082.007.315-.083.59-.269.825a.989.989 0 01-.748.365.68.68 0 01-.31-.047.5.5 0 01-.18-.16c-.04-.06-.056-.108-.05-.144 0-.014.047-.055.14-.123a.99.99 0 00.25-.276.765.765 0 00.11-.417c0-.316-.103-.56-.31-.732-.2-.18-.48-.26-.839-.24-.406.02-.77.161-1.09.424-.313.255-.56.623-.74 1.104-.174.473-.26 1.033-.26 1.68 0 .562.093 1.07.28 1.525.194.446.464.797.81 1.052.348.248.744.36 1.19.336.36-.02.667-.113.919-.282.26-.175.492-.444.698-.806.034-.065.08-.1.14-.102a.335.335 0 01.18.053c.106.072.159.146.159.223a.156.156 0 01-.04.108c-.252.35-.492.62-.718.807-.22.18-.46.31-.72.387a4.3 4.3 0 01-.978.148zm-7.408.373c-.369.02-.664-.055-.886-.226a.87.87 0 01-.323-.703c0-.253.07-.462.211-.624a.741.741 0 01.524-.261.5.5 0 01.302.068c.088.044.132.088.132.13 0 .014-.03.058-.091.132-.061.074-.091.181-.091.322 0 .155.043.284.13.384.088.102.216.147.384.139a.91.91 0 00.604-.276c.18-.172.345-.43.492-.777a58.475 58.475 0 01-1.227-2.44 50.643 50.643 0 00-.735-1.464 4.467 4.467 0 00-.252-.453.651.651 0 00-.201-.212.74.74 0 00-.333-.12 1.017 1.017 0 00-.121-.015c-.054-.011-.091-.03-.11-.058a.466.466 0 01-.021-.158c0-.091.02-.153.06-.183a.354.354 0 01.192-.052c.356-.019.635 0 .837.052.201.046.37.143.503.291.141.141.299.366.473.674.053.103.158.327.312.671.382.826.761 1.581 1.136 2.266l.03-.002 1.296-3.173a.525.525 0 00.04-.203c0-.141-.063-.226-.19-.255-.127-.035-.315-.047-.563-.034l-.06.003c-.067.003-.114-.005-.141-.025-.027-.027-.044-.09-.05-.188 0-.063.013-.117.04-.16.034-.052.077-.079.13-.082.435-.001.824-.01 1.165-.028a21.4 21.4 0 00.992-.083c.06-.003.104.02.13.067.034.04.05.093.05.156-.006.099-.023.163-.05.193-.026.023-.073.035-.14.039-.186.01-.327.042-.42.096a.506.506 0 00-.201.19c-.047.08-.123.238-.23.476l-1.818 4.162c-.248.563-.525.99-.834 1.282-.302.284-.66.438-1.077.46v.002z" fill="#5F3E22"/><path d="M175.872 24.756a2.645 2.645 0 01-1.374-.288c-.429-.234-.695-.608-.799-1.118v-.097c0-.13.03-.236.089-.32.059-.1.14-.153.244-.159a.25.25 0 01.199.086c.06.062.134.155.222.279.134.186.252.333.355.44.118.09.28.13.488.119.428-.024.797-.246 1.107-.666.31-.436.679-1.1 1.106-1.994l.597-1.168a9.107 9.107 0 011.148-1.704c.412-.472.89-.835 1.434-1.088v-.072a4.922 4.922 0 01-3.268-1.09c-.737-.655-1.106-1.523-1.106-2.605 0-1.516.524-2.606 1.571-3.27a6.931 6.931 0 013.442-1.081l.462.002 3.407-.162a52.143 52.143 0 002.629-.197c.132-.007.227.045.285.155a.557.557 0 01.109.356c-.014.24-.065.388-.152.44-.073.051-.212.082-.416.092-.424.02-.738.124-.942.31-.204.17-.336.386-.395.645a7.195 7.195 0 00-.087.967v9.558c.015.4.044.728.087.982.059.238.19.44.395.605.204.15.518.212.942.189l.131-.007c.146-.008.248.018.306.08.073.043.117.177.131.4a.72.72 0 01-.109.392c-.058.1-.153.153-.285.16-.933.004-1.803.027-2.607.072-.879.048-1.794.123-2.747.224a.345.345 0 01-.308-.128.79.79 0 01-.088-.381c.015-.242.058-.39.132-.442.088-.053.227-.085.418-.095.425-.023.74-.12.945-.292.205-.188.337-.404.395-.649a5.23 5.23 0 00.11-.994v-4.05l-.527.028c-.557.029-1.033.19-1.43.484a3.989 3.989 0 00-.969 1.088 18.76 18.76 0 00-.837 1.686c-.412.923-.772 1.66-1.081 2.208-.295.531-.721.997-1.281 1.4-.545.4-1.238.623-2.08.67h.002zm8.204-8.455v-4.628c0-.578-.043-.994-.131-1.247-.088-.253-.242-.406-.462-.46-.22-.07-.557-.093-1.011-.072-1.175.057-2.085.39-2.732 1-.633.595-.95 1.416-.95 2.463 0 1.37.42 2.226 1.258 2.57.853.343 1.822.486 2.907.43l1.121-.057zm-25.341 9.231c-.135.008-.232-.036-.292-.13a.658.658 0 01-.113-.384c.015-.245.06-.394.135-.448a.506.506 0 01.27-.087l.203-.012c.451-.024.781-.164.991-.42.21-.271.375-.565.494-.88.135-.333.225-.558.27-.674l3.926-10.285c.09-.248.135-.445.135-.59 0-.293-.104-.499-.314-.618-.209-.12-.5-.212-.874-.275-.254-.037-.411-.078-.471-.123-.059-.045-.09-.182-.09-.41 0-.194.045-.326.135-.396.104-.07.261-.11.471-.12.747-.035 1.336.002 1.769.111.447.092.835.317 1.163.674.328.34.633.877.915 1.608l3.745 9.86c.223.602.438 1.052.645 1.348.207.296.519.44.933.434l.133-.008c.148-.007.252.019.311.08.06.046.097.181.112.407a.716.716 0 01-.112.393c-.059.1-.155.154-.288.162-.948.004-1.763.025-2.446.063a52.48 52.48 0 00-2.765.225.353.353 0 01-.313-.128.789.789 0 01-.089-.384c.015-.228.052-.368.111-.42.06-.068.164-.106.313-.114.506-.028.863-.096 1.071-.204.208-.125.313-.325.313-.6 0-.21-.089-.586-.267-1.126l-.759-1.976-5.527.291c-.374 1.027-.592 1.624-.651 1.79a2.552 2.552 0 00-.068.271c-.18.627-.269 1.03-.269 1.209 0 .276.112.457.337.542.224.069.65.086 1.278.052l.135-.007c.149-.009.254.018.313.08.06.045.098.181.112.407a.72.72 0 01-.112.395c-.06.101-.157.155-.291.163a49.88 49.88 0 00-2.446.061c-.479.027-1.208.091-2.183.194h.001zm4.271-6.227l4.7-.245-2.258-6.134-.067.003-2.375 6.376zm-6.961 6.547c-.799.044-1.469-.107-2.012-.452a4.354 4.354 0 01-1.314-1.347c-.317-.555-.664-1.279-1.043-2.172-.363-.83-.688-1.483-.975-1.957a3.374 3.374 0 00-1.091-1.194c-.454-.32-1.007-.463-1.66-.429l-.592.03v4.885c.015.408.046.742.091 1.001.06.242.197.447.41.616.212.151.538.216.978.192l.137-.008c.152-.009.258.018.319.08.076.045.121.182.136.41 0 .148-.038.28-.113.398-.061.102-.159.156-.296.164a55.62 55.62 0 00-2.823.082 56.13 56.13 0 00-2.74.225c-.138.008-.244-.035-.32-.13a.785.785 0 01-.092-.388c.015-.247.061-.397.137-.45.092-.054.236-.086.435-.098.441-.024.769-.124.982-.3a1.3 1.3 0 00.411-.66c.061-.25.099-.587.114-1.014v-9.754c-.015-.425-.053-.759-.114-1.002a1.023 1.023 0 00-.411-.594c-.213-.17-.541-.245-.982-.224l-.138.007a.574.574 0 01-.32-.058c-.061-.063-.099-.209-.114-.438 0-.147.03-.272.092-.373a.383.383 0 01.32-.187 54.3 54.3 0 002.717-.055c.912-.043 1.86-.113 2.846-.21.137-.006.235.047.296.158a.559.559 0 01.113.362c-.014.246-.068.395-.159.45-.076.052-.22.084-.432.094-.44.02-.766.126-.978.316a1.17 1.17 0 00-.411.658 7.196 7.196 0 00-.091.986v3.878l1.07-.054c.486-.025.955-.212 1.41-.562.47-.351.871-.878 1.204-1.58.106-.234.28-.676.522-1.325.302-.798.574-1.457.816-1.974a5.404 5.404 0 01.974-1.417c.407-.41.89-.645 1.448-.705.678-.032 1.22.17 1.627.607.406.437.61.932.61 1.485 0 .359-.091.68-.271.966a2.042 2.042 0 01-.587.664c-.226.158-.414.24-.565.248-.12.006-.18-.032-.18-.113 0-.424-.098-.794-.294-1.11-.196-.334-.437-.493-.724-.479-.513.025-.92.265-1.222.72-.287.455-.574 1.08-.861 1.879-.122.332-.212.565-.272.699-.258.6-.567 1.097-.93 1.491-.363.394-.742.642-1.136.744v.074c.803-.041 1.483.153 2.043.581a4.842 4.842 0 011.36 1.546c.347.601.716 1.365 1.108 2.29.408.956.754 1.655 1.04 2.096.301.423.67.623 1.107.599a.696.696 0 00.473-.197c.136-.121.263-.283.384-.485.135-.251.255-.38.361-.386l.022-.001c.135-.007.233.044.293.155.076.11.098.239.068.387-.09.526-.361.93-.811 1.216a2.947 2.947 0 01-1.399.444l-.001-.001zm-20.505 1.379c-1.307.072-2.507-.19-3.601-.79-1.08-.617-1.944-1.527-2.593-2.73-.634-1.204-.951-2.632-.951-4.283 0-1.652.31-3.154.928-4.455.618-1.301 1.498-2.326 2.639-3.073 1.14-.763 2.472-1.18 3.993-1.252 1.319-.062 2.492.17 3.517.696 1.025.51 1.537 1.355 1.537 2.536.015.738-.191 1.38-.619 1.927-.428.53-1.001.814-1.721.85a1.549 1.549 0 01-.713-.112 1.154 1.154 0 01-.413-.374c-.093-.143-.131-.256-.115-.34 0-.032.107-.128.322-.286a2.3 2.3 0 00.574-.645c.169-.271.253-.596.253-.974 0-.74-.237-1.311-.712-1.715-.46-.422-1.104-.613-1.933-.573a4.153 4.153 0 00-2.513.985c-.724.595-1.294 1.455-1.71 2.58-.401 1.108-.602 2.42-.602 3.938 0 1.32.216 2.512.648 3.577.447 1.048 1.071 1.872 1.872 2.47.8.583 1.714.846 2.743.789.828-.045 1.533-.265 2.116-.658.597-.41 1.132-1.039 1.607-1.886.076-.151.183-.231.321-.238.123-.007.26.035.413.125.245.167.367.341.367.522a.365.365 0 01-.092.25c-.581.82-1.131 1.45-1.651 1.889a4.676 4.676 0 01-1.655.904c-.597.18-1.349.297-2.255.346h-.001zm-24.688.943a.376.376 0 01-.331-.132.808.808 0 01-.094-.395c.016-.25.063-.403.142-.458.079-.054.228-.087.448-.099.456-.025.794-.127 1.014-.305.22-.195.354-.419.401-.671.062-.27.102-.613.117-1.03v-9.91a4.954 4.954 0 00-.117-.992.952.952 0 00-.401-.63c-.22-.172-.558-.248-1.014-.226l-.142.007c-.157.008-.268-.012-.33-.059-.063-.063-.102-.211-.118-.444 0-.15.032-.276.094-.379a.4.4 0 01.331-.19 57.157 57.157 0 002.781-.058 60.19 60.19 0 002.938-.215c.141-.006.242.047.305.16a.563.563 0 01.117.368c-.015.25-.063.402-.141.455-.078.054-.227.086-.446.097-.454.021-.791.13-1.01.322-.219.176-.36.4-.423.669a7.197 7.197 0 00-.094 1.002v4.413l7.355-.376v-4.397a4.847 4.847 0 00-.117-.989.945.945 0 00-.396-.627c-.218-.171-.553-.246-1.005-.225l-.14.007c-.156.008-.273-.012-.351-.058-.062-.063-.102-.21-.117-.442 0-.15.039-.276.117-.379a.372.372 0 01.304-.188 59.32 59.32 0 002.918-.065c.854-.04 1.778-.109 2.77-.206.14-.006.241.047.303.16a.565.565 0 01.116.366c-.015.249-.07.4-.163.454-.077.053-.217.085-.418.094-.45.022-.791.13-1.024.323a1.177 1.177 0 00-.419.665c-.047.25-.078.583-.093.997v9.853c.015.413.046.75.093 1.012.062.245.201.453.419.623.233.153.574.216 1.024.192l.139-.008c.14-.008.24.02.302.083.078.045.125.183.14.413a.73.73 0 01-.116.404c-.062.102-.163.158-.303.165-.992.005-1.924.032-2.794.08a59.2 59.2 0 00-2.894.234.347.347 0 01-.304-.133.667.667 0 01-.117-.391c.015-.25.062-.401.14-.456.094-.054.25-.088.467-.1.452-.024.787-.126 1.005-.303.218-.194.35-.416.397-.667.062-.269.101-.61.117-1.026v-4.397l-7.355.38v4.413c.015.414.047.754.093 1.017.063.246.204.454.423.625.22.155.556.22 1.01.194l.141-.007c.157-.009.266.018.329.081.063.046.101.186.117.418a.732.732 0 01-.117.405c-.063.102-.164.159-.305.166a59.335 59.335 0 00-2.915.086 57.77 57.77 0 00-2.804.23h.001zm-18.479 1.018c-.289 0-.433-.177-.433-.53.016-.253.064-.407.144-.462.08-.055.232-.089.457-.1.465-.026.809-.13 1.032-.309.224-.197.36-.422.408-.677a5.59 5.59 0 00.12-1.038v-9.998a4.933 4.933 0 00-.12-1.001.953.953 0 00-.408-.635c-.224-.174-.568-.25-1.032-.227l-.144.007c-.16.008-.272-.012-.336-.06-.064-.064-.104-.213-.12-.448 0-.15.032-.278.096-.382a.408.408 0 01.336-.193 58.188 58.188 0 002.831-.059 62.35 62.35 0 002.99-.217c.143-.007.247.046.31.16.08.098.12.22.12.372-.016.252-.064.405-.143.459-.08.054-.231.087-.454.097-.462.022-.805.131-1.028.326a1.194 1.194 0 00-.43.675c-.048.253-.08.59-.096 1.01v8.905l6.844-9.44c.602-.831 1.077-1.44 1.426-1.823.348-.384.648-.65.901-.794.269-.147.577-.245.925-.295.379-.051.781-.087 1.208-.107.284-.014.426.163.426.53-.016.25-.064.403-.142.457-.079.054-.229.086-.45.096-.457.022-.797.13-1.018.325a1.182 1.182 0 00-.427.671 7.245 7.245 0 00-.095 1.007v9.94c.016.417.047.757.095 1.022.064.247.205.456.427.628.221.154.56.22 1.018.195l.143-.008c.157-.009.268.018.331.082.063.047.102.186.118.419 0 .15-.039.285-.118.407-.064.103-.166.159-.307.167a54.926 54.926 0 00-5.744.317.38.38 0 01-.334-.133.804.804 0 01-.095-.396c.017-.252.064-.405.143-.46.096-.055.246-.088.453-.1.46-.024.801-.127 1.023-.306.222-.196.356-.42.403-.674a5.62 5.62 0 00.12-1.034v-8.85l-6.866 9.394c-.606.82-1.077 1.424-1.412 1.812-.32.37-.607.646-.863.828-.24.164-.52.272-.84.323-.527.08-.99.122-1.391.127l-.002-.003zm-15.007.828c-.146.009-.26-.035-.341-.132a.802.802 0 01-.098-.401c.017-.255.065-.41.146-.465.081-.055.236-.09.464-.102.47-.025.82-.13 1.046-.31.227-.199.365-.427.414-.683.065-.274.106-.623.122-1.047V16.812a4.935 4.935 0 00-.122-1.009.964.964 0 00-.414-.64c-.227-.175-.576-.251-1.046-.228l-.146.007c-.163.008-.277-.012-.342-.06-.064-.064-.105-.214-.122-.451 0-.152.033-.28.098-.386a.413.413 0 01.34-.194c1.056 0 2.013-.02 2.872-.06l3.42-.163c.888-.043 1.606-.01 2.154.1a4.469 4.469 0 011.473.561c.418.267.747.646.988 1.14.241.476.362 1.008.362 1.598 0 1.044-.33 1.893-.989 2.55a5.382 5.382 0 01-2.27 1.353v.076c.838-.043 1.595.095 2.27.414.692.301 1.222.737 1.592 1.307.385.552.578 1.164.578 1.837 0 1.144-.337 2.088-1.012 2.83-.659.743-1.495 1.295-2.51 1.653-.998.342-2.039.542-3.12.602l-2.912.135c-.876.048-1.84.127-2.896.236zm5.177-9.375a8.153 8.153 0 001.671-.237c.484-.125.911-.417 1.282-.874.37-.457.556-1.149.556-2.075 0-2.006-.943-2.964-2.831-2.873l-1.697.082v6.029l1.019-.052zm.727 7.987c1.194-.082 2.146-.438 2.855-1.066.724-.646 1.087-1.651 1.087-3.015-.08-.906-.492-1.634-1.232-2.185-.726-.553-1.879-.788-3.462-.707l-.994.051v5.041c0 .574.048 1.002.146 1.284.113.265.283.441.51.53.242.07.605.093 1.09.067zm-24.962 2.44c-.297 0-.447-.18-.447-.54.017-.257.067-.413.15-.469.081-.056.239-.09.47-.102.48-.027.835-.131 1.066-.314.232-.2.372-.43.421-.688a5.65 5.65 0 00.124-1.056v-10.16a4.9 4.9 0 00-.124-1.017.967.967 0 00-.42-.645c-.232-.176-.587-.254-1.066-.23l-.15.007c-.165.008-.28-.012-.347-.06-.066-.066-.108-.217-.124-.455 0-.154.034-.284.1-.39a.421.421 0 01.347-.195c1.058 0 2.032-.02 2.923-.062a65.495 65.495 0 003.088-.223c.148-.007.255.047.32.163a.566.566 0 01.124.377c-.016.256-.066.412-.148.467-.082.056-.238.088-.469.1-.477.022-.83.133-1.061.332-.23.181-.379.41-.445.686-.05.258-.082.6-.099 1.027v9.049l7.068-9.599c.621-.845 1.112-1.463 1.472-1.854.359-.39.67-.66.93-.809a2.9 2.9 0 01.955-.3c.391-.052.807-.089 1.247-.11.293-.013.44.167.44.54-.017.255-.065.409-.147.464-.082.055-.236.088-.465.099-.472.022-.823.132-1.051.33-.228.18-.375.408-.44.682a7.182 7.182 0 00-.099 1.023v10.1c.017.424.049.77.098 1.039.066.25.212.463.44.637.23.157.58.223 1.052.197l.147-.008c.163-.009.277.019.342.083.065.048.106.19.122.425a.731.731 0 01-.122.413c-.065.106-.171.163-.318.17a58.957 58.957 0 00-2.888.083c-.964.054-1.978.135-3.042.245-.148.008-.263-.037-.344-.134a.801.801 0 01-.1-.402c.017-.256.067-.412.148-.467.098-.057.254-.091.467-.102.475-.027.827-.13 1.056-.313a1.2 1.2 0 00.417-.685 5.6 5.6 0 00.123-1.05v-8.992l-7.09 9.55c-.626.836-1.112 1.45-1.458 1.844-.33.376-.627.657-.89.842a2.119 2.119 0 01-.868.33 11.18 11.18 0 01-1.438.13l.003-.003zM40.79 32.219c-.924.05-1.648-.133-2.17-.552-.523-.437-.784-1-.784-1.69 0-.568.168-1.043.505-1.423a1.87 1.87 0 011.313-.613c.186-.01.337.008.454.053.135.045.219.092.253.142 0 .052-.051.167-.152.344a1.446 1.446 0 00-.126.626c0 .672.353.989 1.06.95.621-.034 1.117-.508 1.486-1.422.386-.915.688-2.108.906-3.582.234-1.473.51-3.653.83-6.54.016-.137.024-.327.024-.567 0-.533-.117-.897-.351-1.092-.218-.196-.62-.28-1.208-.252l-.15.007c-.168.008-.286-.012-.353-.06-.067-.066-.11-.218-.126-.458a.72.72 0 01.1-.392.429.429 0 01.353-.198c1.074 0 2.063-.02 2.966-.064l6.307-.3a61.224 61.224 0 002.94-.216c.15-.007.258.047.324.164a.566.566 0 01.124.38c-.017.256-.066.413-.15.468-.082.056-.24.089-.472.1-.614.03-1.038.213-1.27.549-.217.319-.333.82-.35 1.505V28.28c.018.427.05.776.1 1.047.066.253.216.468.448.644.233.159.59.225 1.071.198l.15-.008c.165-.01.281.019.348.083.066.048.108.191.124.43a.74.74 0 01-.124.417c-.067.106-.174.164-.324.172a61.741 61.741 0 00-2.966.086c-.982.054-2.015.137-3.099.248a.4.4 0 01-.35-.135.8.8 0 01-.1-.406c.017-.258.067-.416.15-.471.083-.056.242-.091.476-.104.483-.026.842-.132 1.075-.316.233-.201.375-.431.425-.692.067-.277.109-.63.125-1.06V16.304l-3.504.169c-.334.016-.585.062-.752.139-.167.076-.31.246-.426.51-.1.245-.176.627-.227 1.144-.317 3.21-.628 5.735-.929 7.572-.301 1.837-.77 3.35-1.407 4.536-.621 1.169-1.477 1.784-2.57 1.844h.004zm-13.174.546a.386.386 0 01-.332-.137.802.802 0 01-.102-.41c.017-.261.068-.42.153-.477.085-.056.246-.091.485-.104.493-.027.859-.133 1.096-.32.238-.203.382-.436.434-.698.067-.28.11-.638.127-1.072V19.242c-.017-.431-.059-.776-.127-1.032a.98.98 0 00-.434-.654c-.238-.18-.603-.257-1.096-.233l-.153.007c-.17.008-.29-.012-.358-.061-.068-.066-.11-.22-.127-.462a.72.72 0 01.102-.394.412.412 0 01.332-.198c1.088 0 2.1-.022 3.033-.067l7.836-.372c.438-.02.657.175.657.588l.075 3.64a.498.498 0 01-.202.398.698.698 0 01-.404.15 1.325 1.325 0 01-.581-.101c-.169-.078-.262-.185-.279-.323-.134-.838-.287-1.477-.455-1.917-.151-.44-.388-.757-.708-.949-.304-.21-.743-.31-1.318-.299l-3.274.158v12.29c.017.431.05.784.101 1.058.068.255.22.472.458.649.236.16.6.226 1.091.2l.153-.009c.152-.009.262.02.33.086.084.047.135.191.152.432a.738.738 0 01-.127.422c-.068.107-.178.165-.33.173-1.1.01-2.151.041-3.151.097-.934.051-1.953.134-3.06.246h.003z" fill="#AD7D3A"/><path d="M142.362 44.498l-12.442.424.165.406 12.277-.83zm-66.3 3.079l14.995-1.173-.165.406-14.83.767zM30.627 35.854l-11.113.58-.194.998 11.307-1.578z" fill="#5F3E22"/><path d="M176.377 24.343a2.645 2.645 0 01-1.374-.288c-.429-.234-.695-.608-.799-1.119v-.097c0-.128.03-.235.089-.32a.294.294 0 01.244-.158.25.25 0 01.199.086c.06.062.134.154.223.278.133.187.251.334.354.441.118.09.281.13.488.118.428-.023.797-.245 1.107-.665.31-.436.679-1.101 1.106-1.995l.597-1.167a9.155 9.155 0 011.148-1.704c.412-.472.89-.835 1.434-1.088v-.072a4.923 4.923 0 01-3.268-1.09c-.737-.656-1.106-1.524-1.106-2.605 0-1.516.524-2.606 1.571-3.27a6.934 6.934 0 013.442-1.081l.462.002 3.407-.162a52.241 52.241 0 002.63-.197c.131-.007.226.045.284.155.073.093.11.211.11.356-.015.24-.066.388-.153.44-.073.051-.212.082-.416.092-.424.02-.737.124-.942.31-.204.17-.336.386-.395.645a7.198 7.198 0 00-.087.967v9.558c.015.4.044.728.087.982.059.238.19.44.395.604.205.15.518.213.942.19l.131-.007c.146-.008.248.018.307.079.072.044.117.178.131.402a.72.72 0 01-.11.39c-.058.1-.153.154-.284.161-.934.003-1.804.027-2.608.072a54.75 54.75 0 00-2.747.224.345.345 0 01-.308-.128.79.79 0 01-.088-.381c.015-.243.058-.39.132-.442.088-.053.227-.085.418-.095.425-.023.74-.12.945-.292.205-.188.337-.404.395-.649a5.22 5.22 0 00.11-.994v-4.05l-.527.028c-.557.029-1.033.19-1.429.484a3.973 3.973 0 00-.97 1.088c-.249.431-.528.993-.837 1.686-.412.923-.772 1.66-1.081 2.208-.295.531-.721.997-1.281 1.399-.545.401-1.238.624-2.08.671h.002zm8.205-8.455V11.26c0-.578-.044-.994-.132-1.247-.088-.253-.242-.406-.462-.46-.22-.07-.557-.094-1.011-.072-1.175.056-2.085.39-2.732 1-.633.595-.95 1.416-.95 2.463 0 1.37.42 2.226 1.258 2.57.853.342 1.822.486 2.907.43l1.121-.057h.001zm-10.853 7.487c-.059-.062-.163-.088-.311-.08l-.133.006c-.414.007-.726-.138-.933-.433-.207-.296-.423-.745-.646-1.348l-3.744-9.86c-.283-.73-.588-1.267-.916-1.608a2.134 2.134 0 00-1.163-.674c-.433-.11-1.023-.146-1.769-.11-.209.01-.367.05-.471.12-.089.069-.135.2-.135.395 0 .228.031.365.091.41.06.046.217.087.47.123.374.063.665.155.874.274.21.12.314.326.314.618 0 .146-.045.343-.135.59l-3.926 10.286c-.045.116-.135.341-.269.673-.12.316-.285.609-.495.881-.21.255-.54.395-.99.42l-.203.012a.507.507 0 00-.27.087c-.076.054-.121.202-.136.448 0 .146.038.274.113.384.06.094.157.137.293.13a47.817 47.817 0 012.182-.194c.674-.036 1.49-.057 2.447-.061.134-.008.232-.062.291-.162a.72.72 0 00.112-.396c-.015-.227-.053-.362-.112-.407-.06-.062-.164-.089-.314-.08l-.134.007c-.628.035-1.055.017-1.279-.052-.225-.085-.337-.266-.337-.542 0-.178.09-.582.269-1.209 0-.016.023-.107.068-.271l.651-1.79 4.493-.236 1.211 3.8a5.254 5.254 0 01-.533.052c-.149.008-.253.046-.313.114-.059.052-.096.191-.111.42a.8.8 0 00.089.383.351.351 0 00.313.129 54.258 54.258 0 012.765-.226 49.444 49.444 0 012.446-.062c.133-.007.229-.06.288-.162a.724.724 0 00.112-.393c-.015-.226-.052-.361-.112-.406h-.002zm-10.221-4.483l2.375-6.376.067-.003 2.258 6.134-.607.032-1.265-2.84.911 2.858-3.739.195zm5.101.779l.759 1.975c.179.54.268.916.268 1.127a.78.78 0 01-.066.328l-1.515-3.401.554-.03zm-9.918 3.72c-.06-.11-.158-.162-.294-.155l-.022.002c-.105.005-.226.134-.361.386a2.085 2.085 0 01-.383.485.7.7 0 01-.474.196c-.436.025-.806-.175-1.107-.599-.286-.44-.633-1.14-1.039-2.096-.392-.925-.762-1.688-1.109-2.29a4.838 4.838 0 00-1.36-1.545c-.559-.43-1.24-.623-2.042-.582v-.074c.394-.102.772-.35 1.135-.744s.673-.891.93-1.491c.061-.134.151-.367.272-.7.287-.798.574-1.423.861-1.878.302-.455.709-.695 1.222-.72.287-.014.528.146.724.478.196.317.294.687.294 1.11 0 .082.06.12.181.114.151-.007.339-.09.564-.248.226-.158.422-.38.587-.664.181-.286.271-.608.271-.966 0-.553-.203-1.049-.61-1.485-.406-.437-.948-.64-1.626-.607a2.333 2.333 0 00-1.449.705c-.392.41-.717.883-.974 1.417a29.139 29.139 0 00-.816 1.974 24.83 24.83 0 01-.522 1.324c-.332.703-.734 1.23-1.204 1.58-.454.35-.924.537-1.409.562l-1.07.055v-3.878c.015-.41.046-.738.091-.986a1.16 1.16 0 01.41-.658c.212-.19.538-.296.978-.317.212-.01.356-.041.432-.094.091-.053.144-.203.16-.45a.558.558 0 00-.114-.361c-.06-.112-.159-.165-.295-.158a58.51 58.51 0 01-2.847.21c-.837.04-1.742.057-2.717.055a.382.382 0 00-.32.187.713.713 0 00-.092.373c.016.23.054.375.114.437a.573.573 0 00.32.059l.138-.007c.442-.021.77.053.982.223.213.154.351.352.411.595.061.243.099.577.115 1.002v4.253l-8.943 1.062 8.943-.258v4.697a5.28 5.28 0 01-.115 1.013c-.06.249-.198.47-.411.661-.212.176-.54.275-.982.3-.198.01-.343.043-.434.098-.076.053-.122.203-.138.45 0 .147.031.277.092.388a.36.36 0 00.32.13c.99-.104 1.904-.179 2.74-.225.912-.05 1.853-.078 2.824-.082.137-.008.235-.062.295-.164a.722.722 0 00.114-.398c-.016-.228-.061-.364-.137-.41-.061-.062-.167-.088-.319-.08l-.136.008c-.44.024-.767-.04-.979-.192a1.127 1.127 0 01-.41-.616 7.517 7.517 0 01-.091-1.002v-4.884l.592-.03c.653-.034 1.206.11 1.661.43.454.303.817.7 1.09 1.193.288.474.613 1.127.976 1.956.377.895.725 1.618 1.043 2.172.332.537.77.986 1.313 1.348.543.345 1.214.495 2.012.451a2.937 2.937 0 001.399-.443c.451-.286.722-.691.812-1.217a.487.487 0 00-.068-.387l.001.002z" fill="#F2CA90"/><path d="M136.043 26.818c-1.306.072-2.507-.19-3.601-.79-1.079-.617-1.944-1.527-2.593-2.73-.633-1.204-.951-2.632-.951-4.283 0-1.652.31-3.154.928-4.455.618-1.301 1.498-2.326 2.64-3.073 1.139-.763 2.471-1.18 3.992-1.252 1.319-.062 2.492.17 3.518.696 1.024.51 1.536 1.355 1.536 2.536.016.738-.191 1.38-.619 1.927-.428.53-1.001.814-1.721.85a1.541 1.541 0 01-.712-.112 1.158 1.158 0 01-.414-.374c-.093-.143-.131-.256-.115-.34 0-.032.107-.128.322-.286.214-.16.406-.374.574-.645.169-.272.253-.596.253-.974 0-.74-.237-1.311-.712-1.715-.46-.422-1.104-.613-1.933-.573a4.153 4.153 0 00-2.513.984c-.724.596-1.294 1.456-1.71 2.58-.401 1.109-.601 2.421-.601 3.939 0 1.319.215 2.511.647 3.577.447 1.048 1.071 1.872 1.872 2.47.8.583 1.715.846 2.743.789.828-.045 1.534-.265 2.116-.658.597-.41 1.132-1.04 1.607-1.886.076-.151.183-.232.321-.239a.757.757 0 01.413.126c.245.167.367.341.367.522a.365.365 0 01-.092.25c-.581.82-1.131 1.45-1.651 1.889a4.68 4.68 0 01-1.654.904c-.598.18-1.35.296-2.256.346h-.001zm-9.041-.888c-.062-.062-.163-.09-.303-.083l-.139.008c-.45.025-.791-.04-1.024-.192a1.139 1.139 0 01-.419-.622 7.464 7.464 0 01-.093-1.012v-4.687l2.9-.595-2.9.05v-4.621c.015-.415.046-.747.093-.997.062-.268.202-.49.419-.665.233-.194.574-.301 1.024-.323.201-.01.341-.041.418-.094.093-.054.148-.206.163-.454a.565.565 0 00-.116-.367c-.062-.112-.163-.165-.302-.16a54.13 54.13 0 01-5.689.271c-.125.006-.226.07-.304.189a.61.61 0 00-.117.378c.016.232.054.38.117.442.078.047.195.066.351.058l.14-.007c.452-.021.787.054 1.005.226.218.155.35.364.397.627.062.245.101.575.117.988v4.398l-7.355.375v-4.413c.015-.416.047-.75.093-1.002.063-.269.204-.491.423-.668.219-.194.556-.302 1.01-.323.219-.01.368-.042.446-.096.079-.054.126-.206.141-.455a.558.558 0 00-.117-.368c-.062-.113-.164-.166-.305-.16a60.95 60.95 0 01-2.938.215c-.831.04-1.758.059-2.781.057a.399.399 0 00-.33.19.714.714 0 00-.095.38c.016.232.055.38.118.444.063.047.173.067.33.059l.142-.007c.456-.022.794.053 1.014.226.22.156.354.365.401.63.062.246.102.577.117.992v4.618l-4.029.498 4.029.232v4.563c-.015.416-.055.76-.117 1.03a1.178 1.178 0 01-.401.67c-.22.179-.558.28-1.014.305-.22.013-.37.046-.448.1-.079.054-.126.207-.142.457 0 .15.032.282.095.395.079.096.189.14.33.132a58.281 58.281 0 012.805-.23c.941-.051 1.912-.08 2.914-.085.141-.008.243-.063.305-.167a.722.722 0 00.117-.405c-.015-.232-.055-.37-.117-.417-.062-.063-.172-.09-.328-.081l-.141.008c-.454.024-.791-.04-1.01-.195a1.14 1.14 0 01-.423-.625 7.683 7.683 0 01-.094-1.017v-4.413l7.355-.38v4.398a5.459 5.459 0 01-.117 1.024c-.046.25-.179.473-.397.668-.217.177-.552.278-1.004.303-.218.012-.374.045-.467.1-.079.054-.125.205-.141.455 0 .15.039.28.117.392.079.094.179.14.304.132a59.301 59.301 0 012.895-.234c.87-.048 1.802-.074 2.794-.08.14-.007.24-.062.302-.164a.723.723 0 00.117-.403c-.016-.23-.062-.369-.14-.414l-.001-.002zm-18.416 1.008c-.064-.063-.174-.09-.331-.082l-.143.007c-.457.025-.797-.04-1.018-.194a1.136 1.136 0 01-.427-.628 7.721 7.721 0 01-.095-1.022v-9.94c.016-.419.047-.754.095-1.007a1.19 1.19 0 01.427-.671c.221-.195.56-.303 1.018-.325.221-.01.371-.043.45-.096.079-.054.126-.207.142-.457 0-.367-.142-.544-.426-.53-.427.02-.829.056-1.208.107a2.73 2.73 0 00-.925.294c-.253.146-.553.41-.901.795-.349.384-.824.992-1.426 1.823l-6.844 9.44v-8.905c.016-.42.048-.756.096-1.01.064-.272.207-.497.43-.675.224-.195.566-.304 1.028-.326.223-.01.374-.043.454-.097.08-.054.127-.207.143-.46a.56.56 0 00-.12-.37c-.063-.115-.166-.169-.31-.162-1.035.1-2.032.173-2.99.218-.863.041-1.806.061-2.83.059a.405.405 0 00-.337.193.716.716 0 00-.096.382c.017.235.057.384.12.448.064.047.176.067.336.06l.144-.008c.465-.021.809.054 1.032.228a.96.96 0 01.408.635c.064.248.104.582.12 1.001v9.997a5.605 5.605 0 01-.12 1.04c-.048.253-.184.48-.408.676-.224.18-.568.282-1.032.308-.224.012-.376.046-.457.1-.08.055-.128.21-.144.462 0 .353.144.53.433.53.4-.004.864-.047 1.392-.126.32-.051.6-.159.84-.323.255-.183.543-.458.862-.828.335-.388.806-.991 1.412-1.813l6.865-9.393v1.154l-4.495 6.005 4.495-4.578v6.267a5.472 5.472 0 01-.119 1.034 1.18 1.18 0 01-.404.674c-.222.18-.562.282-1.022.307-.207.011-.357.045-.453.1-.079.055-.127.208-.143.46 0 .15.032.282.095.395.08.096.191.14.334.133a61.581 61.581 0 012.947-.238 57.213 57.213 0 012.796-.08c.142-.007.245-.063.308-.167a.728.728 0 00.118-.407c-.015-.232-.055-.372-.118-.418l.002.004zm-18.848-4.624c-.37-.57-.9-1.005-1.591-1.306-.676-.319-1.433-.457-2.27-.415v-.076a5.397 5.397 0 002.27-1.353c.659-.656.989-1.506.989-2.55 0-.588-.12-1.121-.362-1.598-.241-.493-.57-.873-.989-1.14a4.462 4.462 0 00-1.473-.56c-.548-.109-1.266-.142-2.153-.1l-3.42.163c-.86.04-1.816.06-2.871.06a.413.413 0 00-.342.194.72.72 0 00-.097.386c.016.235.057.386.122.45.065.048.179.068.341.06l.146-.007c.47-.022.82.054 1.047.23a.962.962 0 01.414.639c.064.25.105.587.121 1.008v4.01l-5.22 1.167 5.22-.079v4.97a5.597 5.597 0 01-.121 1.047 1.191 1.191 0 01-.414.682c-.227.181-.576.285-1.047.31-.228.013-.382.047-.463.102-.081.055-.13.21-.146.465 0 .152.032.286.097.4.081.098.196.143.342.134a60.89 60.89 0 012.895-.236l2.912-.135c1.082-.06 2.121-.26 3.12-.602 1.015-.36 1.852-.91 2.51-1.652.675-.744 1.012-1.687 1.012-2.83 0-.674-.192-1.286-.578-1.838zm-7.713-8.06l1.697-.081c1.888-.09 2.831.867 2.831 2.873 0 .926-.185 1.619-.556 2.075-.37.457-.798.748-1.282.874a8.151 8.151 0 01-1.671.237l-1.02.052v-6.03zm4.6 12.899c-.708.628-1.66.984-2.855 1.065-.484.026-.848.005-1.09-.067-.227-.09-.397-.266-.51-.53-.097-.281-.146-.71-.146-1.283v-5.042l.994-.05c1.583-.082 2.736.154 3.462.706.74.552 1.151 1.28 1.232 2.185 0 1.364-.362 2.37-1.087 3.015z" fill="#F2CA90"/><path d="M75.033 28.773c-.065-.064-.179-.092-.342-.083l-.146.008c-.473.026-.824-.04-1.052-.197a1.161 1.161 0 01-.44-.638 7.658 7.658 0 01-.098-1.038v-10.1c.016-.426.048-.767.097-1.023a1.21 1.21 0 01.441-.682c.228-.198.579-.308 1.052-.33.228-.011.382-.044.464-.099.082-.055.13-.21.147-.465 0-.373-.147-.552-.44-.538-.44.02-.856.057-1.247.11a2.85 2.85 0 00-.954.3c-.262.147-.572.417-.931.808-.36.39-.85 1.008-1.472 1.854l-7.067 9.598v-1.832l5.187-7.321-5.187 5.197V17.21c.016-.427.049-.77.098-1.028a1.21 1.21 0 01.445-.685c.23-.199.584-.31 1.062-.333.23-.011.386-.044.468-.099.083-.055.132-.21.148-.467 0-.153-.04-.28-.123-.377-.066-.116-.173-.17-.32-.164-1.07.102-2.1.177-3.089.224-.89.042-1.865.063-2.923.062a.422.422 0 00-.347.196.718.718 0 00-.1.389c.017.238.058.39.125.454.066.049.181.069.347.06l.149-.006c.479-.024.834.053 1.066.23.23.16.37.375.42.645.067.253.107.591.124 1.017v10.16c-.016.427-.057.78-.124 1.056a1.2 1.2 0 01-.42.688c-.232.183-.587.288-1.066.314-.231.013-.389.047-.472.103-.082.056-.132.212-.148.469 0 .359.148.539.446.54.413-.007.893-.05 1.438-.131.33-.053.62-.163.867-.33.264-.185.561-.465.891-.841.346-.395.833-1.009 1.458-1.844l7.09-9.55v8.991a5.567 5.567 0 01-.123 1.051 1.2 1.2 0 01-.417.685c-.23.183-.581.287-1.056.313-.213.011-.369.045-.467.102-.082.055-.13.211-.147.467 0 .153.033.287.099.402.081.098.196.143.344.134a64.002 64.002 0 013.042-.244 58.95 58.95 0 012.888-.083c.147-.008.252-.065.318-.17a.73.73 0 00.122-.413c-.016-.237-.057-.379-.122-.425l-.003.001zm-33.739 3.033c-.925.052-1.65-.133-2.171-.552-.523-.436-.784-1-.784-1.689 0-.569.168-1.044.505-1.423.354-.38.792-.586 1.313-.613.186-.01.337.008.454.053.135.045.219.091.253.142 0 .051-.051.166-.152.343a1.448 1.448 0 00-.126.627c0 .671.353.988 1.06.95.62-.034 1.116-.508 1.486-1.422.386-.915.688-2.109.905-3.582.235-1.473.511-3.653.83-6.54.017-.138.025-.328.025-.568 0-.533-.117-.896-.351-1.092-.218-.195-.62-.28-1.208-.251l-.15.007c-.168.008-.286-.012-.353-.06-.067-.066-.11-.219-.126-.459a.72.72 0 01.1-.392.43.43 0 01.353-.197c1.074 0 2.062-.02 2.966-.064l6.307-.3a61.22 61.22 0 002.94-.217c.15-.007.258.048.324.165a.567.567 0 01.124.379c-.017.257-.066.414-.15.469-.083.055-.24.088-.472.1-.614.03-1.038.212-1.27.548-.217.32-.333.82-.35 1.506v10.193c.018.427.05.776.1 1.047.066.253.216.468.448.643.233.16.59.225 1.07.199l.15-.009c.166-.009.282.02.349.084.066.047.107.19.124.43a.74.74 0 01-.124.417c-.067.106-.174.163-.324.171a61.75 61.75 0 00-2.966.087c-.982.053-2.015.136-3.099.248-.15.008-.267-.037-.35-.136a.798.798 0 01-.1-.406c.017-.258.066-.415.15-.47.083-.057.242-.092.476-.104.483-.027.842-.132 1.075-.316.233-.202.375-.432.425-.692.067-.278.109-.631.125-1.06V15.891l-3.504.169c-.334.016-.585.062-.752.138-.167.077-.31.247-.426.51-.1.246-.176.628-.227 1.145-.317 3.21-.628 5.734-.929 7.572-.301 1.837-.77 3.35-1.407 4.535-.621 1.17-1.477 1.785-2.57 1.845h.004zm-1.648-15.854c0-.414-.22-.61-.657-.589l-7.836.373a63.73 63.73 0 01-3.034.067.412.412 0 00-.332.197.719.719 0 00-.102.395c.017.242.06.395.127.462.069.049.188.069.358.06l.153-.006c.493-.024.859.054 1.096.233.239.162.382.38.434.654.067.257.11.6.127 1.032v10.306c-.017.434-.059.79-.127 1.071-.05.262-.195.495-.434.699-.238.186-.603.293-1.096.32-.239.012-.4.047-.485.104-.085.056-.136.215-.153.476 0 .156.034.292.102.41.085.1.196.145.332.137a66.707 66.707 0 013.059-.246c1-.055 2.051-.087 3.151-.096.152-.009.263-.066.33-.174a.736.736 0 00.127-.422c-.017-.24-.068-.384-.152-.432-.068-.065-.178-.094-.33-.086l-.152.009c-.49.027-.855-.04-1.092-.2a1.175 1.175 0 01-.458-.649 7.659 7.659 0 01-.101-1.058V18.673l3.592-1.409-3.592.158v-.713l3.275-.157c.574-.011 1.013.089 1.317.299.32.19.557.508.708.948.169.44.321 1.08.456 1.918.017.137.109.244.278.322.185.077.38.11.582.1a.698.698 0 00.403-.149.498.498 0 00.203-.397l-.076-3.64h-.001z" fill="#F2CA90"/><path d="M174.394 22.88c-.059-.061-.163-.087-.311-.08l-.133.008c-.414.006-.726-.139-.933-.434-.207-.296-.423-.745-.646-1.348l-3.745-9.86c-.282-.73-.587-1.267-.915-1.608a2.138 2.138 0 00-1.163-.674c-.433-.109-1.023-.146-1.769-.11-.21.01-.367.05-.471.12-.09.069-.135.2-.135.395 0 .228.031.365.09.41.06.046.218.087.471.123.374.063.665.155.874.275.21.12.314.325.314.617 0 .146-.045.343-.135.59l-3.926 10.286c-.045.116-.135.341-.27.673a3.4 3.4 0 01-.494.881c-.21.255-.54.396-.991.42l-.203.012a.509.509 0 00-.27.087c-.075.054-.12.203-.135.448 0 .146.037.275.113.384.06.094.157.137.292.13a47.81 47.81 0 012.183-.193 49.37 49.37 0 012.447-.062c.134-.008.232-.062.291-.162a.728.728 0 00.112-.396c-.015-.226-.053-.362-.112-.407-.06-.062-.164-.089-.314-.08l-.134.007c-.629.035-1.055.017-1.279-.052-.225-.085-.337-.265-.337-.542 0-.178.09-.582.269-1.209 0-.016.023-.107.068-.271l.651-1.79 4.493-.236 1.211 3.8a5.313 5.313 0 01-.533.052c-.149.008-.253.046-.313.114-.059.052-.097.191-.111.42 0 .145.03.273.089.384a.35.35 0 00.313.128 54.11 54.11 0 012.764-.226 49.536 49.536 0 012.447-.062c.133-.007.229-.06.288-.162a.722.722 0 00.111-.393c-.014-.226-.052-.361-.111-.406h-.002zm-10.221-4.482l2.375-6.376.067-.003 2.257 6.134-.607.032-1.264-2.84.911 2.858-3.739.195zm5.101.778l.759 1.976c.179.54.267.916.267 1.126a.78.78 0 01-.065.328l-1.515-3.4.554-.03zm-9.919 3.722c-.059-.111-.157-.163-.293-.156l-.022.002c-.105.006-.226.134-.361.386a2.06 2.06 0 01-.384.485.695.695 0 01-.473.197c-.437.024-.806-.176-1.107-.6-.286-.44-.633-1.14-1.04-2.096-.391-.924-.761-1.688-1.108-2.29a4.85 4.85 0 00-1.36-1.545c-.559-.429-1.24-.622-2.042-.582v-.074c.394-.102.772-.35 1.135-.744s.673-.891.93-1.491c.06-.134.151-.367.272-.7.287-.797.574-1.423.861-1.878.302-.455.709-.695 1.222-.72.286-.014.528.146.724.478.196.317.294.687.294 1.11 0 .082.06.12.18.114.151-.007.339-.09.565-.248.226-.158.422-.38.587-.664.181-.285.271-.608.271-.966 0-.553-.203-1.048-.61-1.485-.407-.437-.949-.639-1.627-.607a2.33 2.33 0 00-1.448.705c-.393.41-.718.883-.974 1.417a29.112 29.112 0 00-.816 1.974 25.04 25.04 0 01-.522 1.325c-.333.702-.734 1.229-1.204 1.58-.454.35-.924.537-1.409.562l-1.07.054v-3.878c.015-.41.045-.738.091-.986a1.16 1.16 0 01.41-.658c.212-.19.538-.295.978-.317.212-.01.356-.041.432-.094.091-.053.144-.203.159-.45a.563.563 0 00-.113-.361c-.061-.111-.159-.165-.295-.157a57.94 57.94 0 01-2.847.209c-.837.04-1.743.058-2.717.055a.382.382 0 00-.32.187.703.703 0 00-.092.373c.016.23.054.375.114.438a.57.57 0 00.32.058l.138-.007c.442-.021.769.053.982.223.213.154.351.352.411.595.061.243.099.577.114 1.002v4.253l-8.942 1.063 8.942-.258v4.696a5.212 5.212 0 01-.114 1.013c-.06.249-.198.47-.411.661-.213.176-.54.275-.982.3-.198.01-.344.043-.434.098-.077.053-.122.203-.138.45 0 .147.03.277.092.388a.36.36 0 00.32.13c.99-.104 1.903-.179 2.74-.225.912-.05 1.853-.078 2.824-.082.136-.008.234-.062.295-.164a.722.722 0 00.113-.398c-.015-.228-.06-.364-.136-.41-.061-.062-.167-.088-.319-.08l-.137.008c-.439.024-.766-.04-.978-.192a1.126 1.126 0 01-.41-.616 7.515 7.515 0 01-.091-1.001v-4.885l.592-.03c.653-.033 1.206.11 1.661.43.454.303.817.7 1.09 1.193.288.474.612 1.127.975 1.957.378.894.726 1.617 1.044 2.171.332.537.77.986 1.313 1.348.542.345 1.213.495 2.012.451a2.936 2.936 0 001.399-.443 1.72 1.72 0 00.811-1.217.483.483 0 00-.067-.387v.003z" fill="#5F3E22"/><path d="M136.706 26.324c-1.307.072-2.507-.19-3.601-.79-1.08-.617-1.944-1.527-2.593-2.73-.634-1.204-.951-2.632-.951-4.283 0-1.652.31-3.153.928-4.455.618-1.301 1.498-2.326 2.639-3.073 1.14-.763 2.472-1.18 3.993-1.252 1.319-.062 2.492.17 3.517.696 1.025.51 1.537 1.355 1.537 2.536.015.738-.191 1.38-.619 1.927-.428.53-1.001.814-1.721.85a1.548 1.548 0 01-.713-.112 1.152 1.152 0 01-.413-.374c-.093-.143-.131-.256-.115-.34 0-.032.107-.128.322-.286a2.3 2.3 0 00.574-.645c.169-.271.253-.596.253-.974 0-.74-.237-1.311-.712-1.715-.46-.422-1.104-.613-1.933-.573a4.153 4.153 0 00-2.513.985c-.724.595-1.294 1.455-1.71 2.58-.401 1.108-.602 2.42-.602 3.938 0 1.32.216 2.512.648 3.577.447 1.048 1.071 1.872 1.872 2.47.8.583 1.714.846 2.743.79.828-.046 1.533-.266 2.116-.66.597-.41 1.132-1.038 1.607-1.885.076-.151.183-.231.321-.238.123-.007.26.035.413.125.245.167.367.341.367.522a.365.365 0 01-.092.251c-.581.82-1.131 1.448-1.651 1.888a4.674 4.674 0 01-1.655.904c-.597.18-1.349.297-2.255.346h-.001zm-27.457.12c-.064-.063-.173-.09-.331-.082l-.143.008c-.457.024-.797-.04-1.018-.195a1.136 1.136 0 01-.427-.628 7.721 7.721 0 01-.095-1.022v-9.94c.016-.419.047-.754.095-1.007a1.19 1.19 0 01.427-.671c.221-.194.56-.303 1.018-.325.221-.01.371-.042.45-.096.079-.054.126-.206.142-.457 0-.367-.142-.544-.426-.53-.427.02-.829.056-1.208.107a2.73 2.73 0 00-.925.294c-.253.146-.553.41-.901.795-.349.384-.824.992-1.426 1.823l-6.844 9.44v-8.904c.016-.42.048-.757.096-1.011.064-.272.207-.496.43-.675.224-.195.566-.304 1.028-.326.223-.01.374-.043.454-.097.08-.054.127-.207.143-.46 0-.15-.04-.273-.12-.37-.063-.115-.166-.168-.31-.161a62.35 62.35 0 01-2.99.217c-.863.041-1.806.061-2.83.059a.405.405 0 00-.337.193.716.716 0 00-.096.382c.017.235.057.384.12.448.064.048.177.067.336.06l.144-.007c.465-.022.809.053 1.032.227a.96.96 0 01.408.635c.064.249.104.582.12 1.001v9.997a5.605 5.605 0 01-.12 1.04c-.048.254-.184.48-.408.676-.224.18-.568.283-1.032.308-.224.012-.376.046-.456.1-.08.055-.129.21-.145.462 0 .353.145.53.433.53.4-.004.864-.047 1.392-.126.32-.051.6-.159.84-.323.255-.182.543-.458.862-.828.335-.387.806-.991 1.412-1.812l6.866-9.394v1.154l-4.496 6.005 4.496-4.578v6.267a5.545 5.545 0 01-.12 1.035 1.178 1.178 0 01-.403.673c-.222.18-.563.282-1.023.307-.207.012-.357.045-.453.1-.079.055-.127.208-.143.46 0 .15.032.282.095.395.08.096.191.14.334.133a61.456 61.456 0 012.947-.238 57.213 57.213 0 012.796-.08c.142-.007.245-.063.308-.167a.728.728 0 00.118-.407c-.015-.232-.055-.372-.118-.418l.002.004zm-67.29 4.868c-.925.051-1.649-.133-2.171-.552-.523-.437-.784-1-.784-1.69 0-.568.168-1.043.505-1.423a1.87 1.87 0 011.313-.613c.186-.01.337.008.454.053.135.045.219.092.253.142 0 .052-.051.167-.152.344a1.446 1.446 0 00-.126.626c0 .672.353.989 1.06.95.62-.034 1.116-.508 1.486-1.422.386-.915.688-2.108.906-3.582.234-1.473.51-3.653.83-6.539a4.95 4.95 0 00.024-.568c0-.533-.117-.897-.351-1.092-.218-.196-.62-.28-1.208-.252l-.15.007c-.168.008-.286-.012-.353-.06-.067-.066-.11-.218-.126-.458a.73.73 0 01.1-.392.43.43 0 01.353-.198c1.074 0 2.063-.02 2.966-.064l6.307-.3a61.082 61.082 0 002.94-.216c.15-.007.258.047.324.164a.566.566 0 01.124.38c-.017.256-.066.413-.15.468-.082.056-.24.089-.472.1-.614.03-1.038.213-1.27.549-.217.319-.333.82-.35 1.505v10.193c.018.427.05.776.1 1.047.066.253.216.468.448.644.233.159.59.225 1.071.198l.15-.008c.165-.01.281.019.348.083.066.048.107.191.124.43a.74.74 0 01-.124.417c-.067.107-.174.164-.324.172a61.62 61.62 0 00-2.966.086c-.982.054-2.015.137-3.099.248a.4.4 0 01-.35-.135.798.798 0 01-.1-.406c.017-.258.067-.415.15-.471.083-.056.242-.091.476-.104.483-.026.842-.132 1.075-.316.233-.201.375-.431.425-.692.067-.277.109-.63.125-1.06V15.397l-3.504.169c-.334.016-.585.062-.752.139-.167.076-.31.246-.426.51-.1.245-.176.627-.227 1.144-.317 3.211-.628 5.735-.929 7.572-.301 1.838-.77 3.35-1.407 4.536-.621 1.169-1.477 1.784-2.57 1.844h.004zM40.31 15.458c0-.414-.219-.61-.656-.589l-7.837.373c-.933.045-1.944.067-3.033.067a.411.411 0 00-.332.198.718.718 0 00-.102.394c.016.242.06.396.127.462.069.049.188.069.357.061l.154-.007c.493-.023.859.054 1.096.233.238.162.382.38.434.654.036.139.066.305.088.495l2.073-.09-2.033.797V28.64c-.017.434-.06.791-.128 1.072-.05.262-.195.495-.433.698-.238.187-.603.293-1.097.32-.238.013-.4.047-.485.104-.085.057-.136.215-.153.476 0 .156.034.293.102.41.086.1.196.146.332.138a66.849 66.849 0 013.06-.247 67.5 67.5 0 013.15-.096c.153-.008.263-.066.33-.174a.737.737 0 00.128-.421c-.017-.241-.068-.385-.153-.433-.067-.065-.177-.094-.33-.085l-.152.008c-.49.027-.855-.04-1.092-.2a1.175 1.175 0 01-.457-.649 7.659 7.659 0 01-.102-1.058V18.178l3.592-1.408-3.592.157v-.713l3.275-.157c.575-.01 1.014.09 1.317.299.321.191.557.508.709.949.168.44.32 1.079.455 1.917.017.137.11.245.279.323.185.077.379.11.581.1a.698.698 0 00.404-.15.498.498 0 00.202-.397l-.075-3.64h-.002zM75.698 28.28c-.065-.065-.18-.093-.342-.084l-.147.008c-.472.026-.823-.04-1.051-.197a1.161 1.161 0 01-.44-.638 7.67 7.67 0 01-.099-1.038v-10.1c.017-.426.049-.766.098-1.023.066-.274.213-.502.44-.682.23-.198.58-.308 1.052-.33.229-.011.383-.044.465-.099.082-.054.13-.21.146-.465 0-.372-.146-.552-.44-.538-.44.02-.855.057-1.246.11a2.85 2.85 0 00-.954.3c-.262.147-.572.417-.932.808-.359.39-.85 1.008-1.471 1.854l-7.068 9.599v-1.833l5.188-7.32-5.188 5.196v-5.092c.017-.427.05-.77.1-1.028a1.21 1.21 0 01.444-.685c.23-.199.584-.31 1.061-.333.23-.011.387-.044.469-.099.082-.055.132-.21.148-.467a.563.563 0 00-.123-.377c-.066-.116-.173-.17-.321-.164a64.58 64.58 0 01-3.088.224c-.89.042-1.865.063-2.923.062a.422.422 0 00-.347.196.717.717 0 00-.1.389c.016.238.058.39.124.455.067.048.182.068.348.06l.149-.007c.479-.024.834.054 1.065.23a.97.97 0 01.421.645c.066.253.107.591.124 1.017v7.531l1.804-1.161-1.804 2.427v1.363c-.016.427-.058.78-.124 1.056a1.2 1.2 0 01-.42.688c-.232.183-.587.288-1.066.314-.232.013-.389.047-.472.103-.082.056-.133.213-.149.47 0 .358.149.538.447.538.413-.005.892-.05 1.438-.13.33-.053.619-.162.867-.33.264-.184.561-.465.89-.841.347-.394.833-1.009 1.46-1.843l7.088-9.551v8.992a5.566 5.566 0 01-.122 1.05 1.2 1.2 0 01-.417.686c-.23.182-.581.286-1.056.312-.213.011-.369.045-.467.102-.082.055-.131.211-.147.467 0 .153.033.287.098.402a.391.391 0 00.344.134 64.002 64.002 0 013.043-.244 58.957 58.957 0 012.888-.083c.146-.008.252-.064.318-.17a.73.73 0 00.122-.413c-.017-.237-.057-.378-.122-.425l-.003.001z" fill="#5F3E22"/><path d="M90.405 21.82c-.37-.57-.9-1.005-1.591-1.306-.676-.319-1.433-.457-2.27-.415v-.075a5.397 5.397 0 002.27-1.354c.659-.656.989-1.506.989-2.55 0-.588-.12-1.12-.362-1.598-.241-.493-.57-.873-.989-1.14a4.462 4.462 0 00-1.473-.56c-.548-.109-1.266-.142-2.153-.1l-3.42.163c-.86.04-1.816.06-2.872.06a.413.413 0 00-.34.194.72.72 0 00-.098.386c.016.236.057.386.122.45.065.048.179.068.341.06l.146-.007c.47-.022.82.054 1.047.23a.962.962 0 01.413.64c.065.25.106.586.122 1.007v4.01l-5.22 1.167 5.22-.079v4.97a5.588 5.588 0 01-.122 1.047 1.19 1.19 0 01-.413.682c-.227.181-.576.285-1.047.31-.228.014-.382.047-.463.102-.081.055-.13.21-.146.465 0 .152.032.286.097.401a.388.388 0 00.341.133 60.76 60.76 0 012.896-.236l2.912-.135c1.082-.06 2.121-.26 3.12-.602 1.015-.359 1.852-.91 2.51-1.652.675-.743 1.012-1.686 1.012-2.83 0-.674-.192-1.286-.578-1.838zm-9.046-1.957l1.333-.725V13.76l1.698-.082c1.888-.09 2.83.867 2.83 2.873 0 .927-.184 1.619-.555 2.075-.371.457-.798.748-1.282.875a8.151 8.151 0 01-1.671.236l-.593.03-1.759.096zm5.934 6.796c-.71.628-1.66.984-2.856 1.065-.484.027-.848.005-1.09-.067-.227-.09-.397-.266-.51-.53-.097-.281-.146-.71-.146-1.283v-5.042l.994-.05c1.583-.082 2.736.154 3.462.707.74.55 1.151 1.28 1.232 2.184 0 1.364-.362 2.37-1.087 3.015zm101.963-4.591c-.059-.061-.161-.087-.307-.08l-.131.008c-.424.023-.737-.04-.942-.19a1.102 1.102 0 01-.394-.604 7.474 7.474 0 01-.088-.982v-9.56c.015-.402.044-.724.088-.967.058-.26.189-.475.394-.645.205-.186.518-.29.942-.31.204-.01.343-.04.416-.092.087-.053.139-.2.153-.44a.558.558 0 00-.11-.356c-.058-.11-.152-.16-.284-.155-.934.093-1.811.158-2.63.197l-3.406.162-.463-.002a6.948 6.948 0 00-3.442 1.082c-1.046.663-1.57 1.753-1.57 3.27 0 1.08.369 1.949 1.106 2.605a4.921 4.921 0 003.268 1.089v.072a4.297 4.297 0 00-1.434 1.088 9.058 9.058 0 00-1.148 1.704l-.597 1.168c-.428.893-.797 1.558-1.106 1.994-.31.42-.679.642-1.107.666-.207.01-.37-.029-.488-.119a3.884 3.884 0 01-.355-.44 2.44 2.44 0 00-.222-.279.248.248 0 00-.199-.086c-.104.006-.185.06-.244.16a.542.542 0 00-.089.319v.097c.104.51.37.884.799 1.118a2.65 2.65 0 001.373.288c.841-.047 1.535-.27 2.08-.67.559-.403.987-.869 1.281-1.4.309-.549.67-1.284 1.081-2.208a18.6 18.6 0 01.838-1.686c.264-.432.587-.795.969-1.088.396-.294.872-.455 1.429-.484l.527-.028v4.05a5.15 5.15 0 01-.11.994 1.27 1.27 0 01-.395.648c-.205.172-.52.27-.945.293-.191.01-.33.042-.418.095-.073.052-.118.199-.132.441a.8.8 0 00.088.381.345.345 0 00.308.128c.953-.1 1.869-.175 2.747-.224a50.725 50.725 0 012.608-.072c.131-.007.226-.06.285-.16a.728.728 0 00.109-.39c-.015-.225-.059-.359-.131-.403l-.002.002zm-4.012-6.674l-.924.047-.277.015v-.001c-1.053.044-1.996-.1-2.827-.434-.838-.344-1.258-1.2-1.258-2.57 0-1.047.317-1.868.95-2.462.647-.611 1.557-.945 2.732-1 .454-.023.791.001 1.011.072.22.053.374.206.462.46.088.252.131.668.131 1.246v4.358l.556.238-.556.03v.002-.001zm-57.581 10.042c-.062-.062-.163-.09-.303-.082l-.139.007c-.45.025-.791-.04-1.024-.192a1.14 1.14 0 01-.419-.622 7.807 7.807 0 01-.093-1.012V19.47l-1.126-.365 1.126-.25v-.007l.461-.094.231-.051v.003l2.208-.453-2.9.05v-4.621c.016-.415.047-.747.093-.997a1.18 1.18 0 01.419-.666c.233-.193.574-.3 1.024-.322.201-.01.341-.041.419-.094.093-.054.147-.206.162-.455a.56.56 0 00-.116-.366c-.062-.113-.163-.166-.302-.16a54.13 54.13 0 01-5.689.271c-.125.006-.226.07-.304.189a.61.61 0 00-.117.378c.016.232.054.38.117.442.078.046.195.066.351.058l.14-.007c.452-.022.787.053 1.005.226.218.155.35.364.397.627.062.245.101.575.117.988v4.398l-7.355.375-1.031.056 1.031-.56v-3.908a7.22 7.22 0 01.093-1.002c.063-.27.204-.492.423-.669.22-.193.557-.301 1.01-.322.22-.01.368-.043.447-.097.078-.054.125-.205.141-.455a.563.563 0 00-.117-.367c-.063-.114-.165-.167-.306-.16a61.048 61.048 0 01-2.937.214c-.832.04-1.759.06-2.782.058a.4.4 0 00-.33.19.714.714 0 00-.095.38c.016.232.055.38.118.444.063.046.173.066.331.058l.141-.007c.456-.022.795.054 1.015.226a.95.95 0 01.4.63c.063.247.102.578.118.993v4.618l-4.03.497 4.03.233v4.562c-.016.417-.055.76-.118 1.03a1.183 1.183 0 01-.4.67c-.22.18-.559.28-1.015.306-.22.012-.37.045-.448.1-.079.054-.126.206-.142.457 0 .15.032.281.095.395.079.095.189.14.33.131a58.41 58.41 0 012.805-.23c.941-.05 1.912-.08 2.914-.085.141-.008.243-.063.306-.166a.73.73 0 00.117-.406c-.016-.231-.055-.37-.117-.416-.063-.063-.172-.09-.329-.082l-.141.008c-.454.025-.791-.04-1.01-.194a1.14 1.14 0 01-.423-.625 7.683 7.683 0 01-.094-1.018v-4.413l7.355-.38v4.398a5.458 5.458 0 01-.117 1.025c-.046.25-.179.473-.396.667-.218.178-.553.279-1.005.303-.218.012-.374.046-.467.1-.078.054-.125.206-.14.456 0 .15.038.28.117.391.078.095.179.14.303.133a59.301 59.301 0 012.895-.234c.87-.049 1.802-.075 2.794-.08.14-.008.24-.063.302-.165a.723.723 0 00.117-.403c-.016-.23-.062-.368-.14-.414l-.001-.003z" fill="#5F3E22"/><path d="M182.026 46.05L214 44.3l-.511-2.715-2-.082 1.91-.396-2.516-13.38-2.644-.109 2.524-.523-.008-.043.016-.1-.034.004-.943-5.011v-.007h-.001l-.786-4.18-3.413-.169 3.228-.814-.925-4.92-9.752.366V3.29l-2.001-.328 2.001-.321V0l-77.529 2.413-2.554 1.754-.029-1.673L19.278 5.57v13.36l-11.779.441-.127.624 2.525.103-2.66.551-1.226 5.994 1.52.062-1.6.332-3.413 16.665h-.013l-.195.999h.004L.91 51.557l2.975.147-3.169.8-.135.656 3.304.135-3.479.722L0 56l38.21-2.089v-2.955l-3.52-2.126 3.52-.257V46.43l-6.79-.09 6.79-.458v-1.459l-5.011-.212 5.01-1.087v-.773l-11.995-.183 11.996-.938v-.558l40.1-1.936 3.338-2.293.037 2.13 82.068-3.964 4.126-2.834 4.214 2.43 9.933-.479v1.446l1.442.402-1.442.745v1.177l6.506.276-6.506 1.412v2.451l3.406-.227-3.406.902v2.209l7.633.117-7.633.596v.818zm16.12-33.35l8.993.006.378 2.322-9.371 1.308V12.7zM35.381 52.067L.768 55.49l.255-1.143 16.713-2.333-15.368.802 6.41-1.33-7.052-.287.687-3.071 15.806-2.207-15.495.809.482-2.156 10.412-1.454-10.207.533 2.611-11.691 7.457-1.548-7.047-.286.653-2.925 4.38-.91-4.14-.167.38-1.703 8.241-1.06-8.045.186.204-.912 4.442-.922-4.198-.17.052-.237 10.878-.895v1.55l2.22-.098-2.22.871v18.85l16.1 10.482h.002zM184.656 31.14l-2.63.145-10.478.579-3.139-1.762-3.546 2.131-81.966 4.529-.046-2.612-4.14 2.843L38.21 39.23l-1.618.09-15.772.871.113-17.586 3.227-1.265-3.219.141.008-1.205.01-1.41.075-11.819 95.777-3.41.05 2.824 4.34-2.981 76.09-2.71.024 1.71-8.501.79 8.516.213.124 8.765.006.452.053 3.726.007.534.138 9.75-6.572 1.36 6.597.369.028 1.98-13.054.721h-.001zm.363 12.476l13.127-10.67v-4.782l-2.518-.282 2.518-.786v-10.17l9.085-.474-6.528 1.355 7.314.297.428 2.634-9.919 1.66 10.122-.411.03.183-5.056 1.05 5.261.213.599 3.685-8.129 1.046 8.268-.19 1.001 6.152-3.959.822 4.12.167.964 5.928-4.193.87 4.364.178.159.975-27.06.55h.002z" fill="#5F3E22"/></svg>