<svg width="92" height="24" viewBox="0 0 92 24" fill="none" xmlns="http://www.w3.org/2000/svg"><path d="M88.236 6.849l3.004.121.053-.754-3.057.633z" fill="#FFF8F0"/><path d="M82.656 6.439l-2.708.071.07.365 2.638-.436zM14.273 3.673l-5.58.23-.095.51 5.675-.74z" fill="#5F3E22"/><path d="M45.527 7.202l.754-1.07.038.713-.792.357z" fill="#FFF8F0"/><path d="M8.605 8.395l-5.306.631-.376 2.235.585.083-.713.362L.566 22.005l1.502.061-1.502.545 1.258.164-.11.194-1.433.255-.048.606 15.612-1.323-1.641-2.128-1.386-1.077-2.068-1.317 1.457-.623 14.377-.885 6.989-.114 1.574-1.119.261 1.017 34.977-1.931 1.915-1.014 1.72.926 5.29-.061 1.979 1.932-2.055 2.472.307.296 2.491.153 9.293-.341.098-.733-.874-.153.874-.252L90.32 12l-.253-.077-.654-.094.903-.25-.752-3.898-1.418-.13 1.316-.55-.373-1.869-4.058.24-.083-3.916-.758-.164.738-.187-.007-.852-32.702.967-1.749 1.04-.044-.975-41.69 1.51-.13 5.6z" fill="#F2CA90"/><path d="M4.234 8.994l1.632.237-1.937.641 2.363.154-1.715.19-.686.497-.122.336.587.253-.839.512v.565l1.22.672-.004.177-1.552.63-.568 4.43 2.867.212-2.213.275-.534.316.035.444 2.656.359-2.256.387-.407.345.225.909 1.503.584-.87.113 2.135.197-2.185.612.464.197 1.686.064-5.486.627.174-.705 1.595-.429-1.166-.12 1.124-.542-1.328-.127L2.768 11.65l.604-.169-.239-.197-.126-.148.204-2.007 1.023-.134zm46.084-6.658l-.614-.348-22.186 1.08H16.483l-.72-.494L50.468 1.38l-.149.956zm34.479 3.058l2.662.35-.083.478-1.856.858 2.188.272.241.222.704.329.041.62-3.203 1 2.872.051-.648.342 1.566.304.055 1.152-2.27.628 2.463.264.532 2.127-1.321.562 1.762.027.159 2.114-1.543.852.556.154-.13.14-6.15.806 8.03-.353v-.733l-.956-.153.832-.228-.743-4.298-.44-1.37-1.03-.051.988-.217-.392-2.555-.291-1.407-1.163-.08-.195-.041.079-.168 1.457-.39-.482-1.87-4.291.262zM77.676.583L71.971.99l-.678.416-3.75-.23-13.1 1.012-1.668-.439-2.524.998.51-.75 1.166-.564L77.899.398l-.223.185z" fill="#FFF8F0"/><path d="M85.086 12.19l-3.944-.216 3.127-1.102.344-4.112-.713-2.139.606-.384-.186-2.757-6.253-.154 5.864-.43-.23-.43-1.507-.043 2.727-.17.006.852-.778.126.848.219.078 10.048-1.285.461 1.295.16v.072z" fill="#FFF8F0"/><path d="M8.722 8.534l-2.34.285-.206.904 1.24.286-1.363.252-.565 2.482-.076.332-.084.372-1.02 4.48 2.212.433-2.286.456.58.804 3.688-.083-3.057.68.654 2.067 2.164-.097-2.061.422.23.725 9.076-.972-6.786-4.682V9.73l.727-.399-.727-.05v-.747zm76.384-3.162l.252.022.089 1.45-.43.207.069.209.397.163.12 1.946-.466.281.486.06.37 6.002-2.39 2.898-4.514.213 3.191-3.165 2.79-2.466.015-1.073-1.334-.193 1.324-.428.031-6.126z" fill="#DBA962"/><path d="M15.231 2.794l-6.188.226-.092 14.205 25.517-1.385.63-.287.268.217 36.097-1.988.766-.26.954.165 11.814-.65-11.244.476-1.43-.802-2.316.96-34.084 1.443-.281-.963-2.204 1.4-18.228-.021-.647-.647-4.492.316.077-4.812.806-1.367-.306-3.503 4.583-2.723z" fill="#DBA962"/><path d="M54.158 20.43c-.025.002-.043-.006-.054-.023a.12.12 0 01-.021-.07c.003-.045.011-.072.025-.082a.096.096 0 01.05-.016l.038-.002c.083-.004.144-.03.183-.077a.629.629 0 00.092-.16l.05-.123.73-1.88a.334.334 0 00.024-.108c0-.054-.019-.09-.058-.113a.499.499 0 00-.162-.05.238.238 0 01-.088-.021c-.011-.009-.017-.034-.017-.075 0-.036.009-.06.026-.073a.177.177 0 01.087-.022c.139-.007.249 0 .33.019a.394.394 0 01.216.122c.06.062.118.16.17.294l.698 1.801c.042.11.082.193.12.247.04.054.098.08.175.08l.025-.002c.027-.002.047.003.058.014.011.009.018.034.02.075 0 .027-.006.05-.02.072-.011.018-.03.028-.054.03a9.035 9.035 0 00-.972.053c-.025 0-.044-.007-.058-.024a.141.141 0 01-.017-.07c.003-.042.01-.067.021-.077.011-.012.03-.019.058-.02a.545.545 0 00.2-.038c.039-.023.058-.06.058-.11a.787.787 0 00-.05-.206l-.141-.36-1.028.054-.121.327a.466.466 0 00-.013.05c-.033.114-.05.187-.05.22 0 .05.021.084.063.1.042.012.12.015.237.009l.025-.002c.028-.001.047.004.058.015.012.008.019.033.021.074a.13.13 0 01-.02.073.068.068 0 01-.055.03 9.73 9.73 0 00-.454.01 9.38 9.38 0 00-.405.036zm.792-1.137l.875-.046-.42-1.12h-.013l-.442 1.166zm-3.228 1.27a.064.064 0 01-.059-.024.143.143 0 01-.016-.07c.003-.045.01-.072.025-.082.014-.01.04-.015.08-.017a.31.31 0 00.18-.055.21.21 0 00.071-.12.997.997 0 00.021-.184V18.24a.88.88 0 00-.02-.178.17.17 0 00-.072-.112c-.039-.03-.1-.044-.18-.04l-.026.001c-.027.002-.047-.002-.058-.01-.012-.011-.018-.038-.021-.08 0-.026.005-.049.016-.067a.07.07 0 01.06-.034c.178 0 .343-.005.494-.012l1.344-.069c.073-.003.109.03.109.102l.012.627c0 .027-.01.05-.033.069a.112.112 0 01-.067.025.21.21 0 01-.096-.017c-.028-.013-.043-.032-.046-.055a1.839 1.839 0 00-.075-.33.29.29 0 00-.117-.164.358.358 0 00-.218-.052l-.59.03v.995c.153-.035.297-.055.43-.062.222-.012.408.014.562.077a.73.73 0 01.35.275c.079.121.118.26.118.417 0 .208-.059.38-.176.517a1.035 1.035 0 01-.439.296c-.176.063-.358.1-.548.11l-.516.024c-.15.008-.317.021-.5.04h.001zm1.028-.247c.457-.031.686-.268.686-.71 0-.217-.071-.373-.213-.466a.823.823 0 00-.52-.129 1.17 1.17 0 00-.263.04v.91c0 .147.02.243.062.292.045.048.127.069.248.062zm-3.663.391c-.026.001-.046-.007-.06-.024a.144.144 0 01-.017-.07c.003-.046.012-.073.026-.083a.169.169 0 01.08-.018.315.315 0 00.182-.054.212.212 0 00.072-.12c.01-.049.018-.11.02-.185v-1.777a.878.878 0 00-.02-.178.17.17 0 00-.072-.113c-.04-.03-.1-.044-.182-.04l-.025.002a.116.116 0 01-.06-.01c-.01-.012-.017-.039-.02-.08a.13.13 0 01.017-.068.071.071 0 01.059-.035 9.62 9.62 0 001.025-.052c.025-.002.043.008.054.028.014.018.022.04.022.066-.003.045-.013.072-.03.082a.145.145 0 01-.075.017c-.082.005-.142.024-.182.06a.212.212 0 00-.075.12 1.318 1.318 0 00-.017.18v.616c.154-.035.299-.055.434-.063.222-.011.41.018.564.087.157.07.275.167.353.294a.78.78 0 01.118.427.75.75 0 01-.177.514 1.041 1.041 0 01-.441.297 1.94 1.94 0 01-.552.11l-.519.028c-.152.009-.32.022-.502.041zm.987-.247c.23-.015.41-.077.54-.185.13-.109.197-.285.197-.53 0-.22-.073-.383-.219-.488a.787.787 0 00-.518-.143 1.19 1.19 0 00-.266.04v.967a.7.7 0 00.022.227.153.153 0 00.08.095.378.378 0 00.164.017zm-4.131 1.209a.153.153 0 01-.097-.026.094.094 0 01-.039-.08v-.74c0-.097.047-.147.14-.152l.154-.008c.175-.238.312-.562.408-.975.096-.412.146-.802.149-1.17a.886.886 0 00-.022-.18.17.17 0 00-.072-.112c-.04-.031-.1-.044-.182-.04l-.026.001c-.028.002-.048-.002-.06-.01-.01-.012-.018-.038-.02-.08a.13.13 0 01.016-.068.07.07 0 01.056-.035c.187 0 .355-.004.505-.012l1.06-.054c.156-.008.324-.021.504-.04.025 0 .044.009.055.03a.1.1 0 01.021.065c-.003.045-.013.073-.03.083a.157.157 0 01-.076.017c-.082.004-.142.024-.182.059a.213.213 0 00-.076.12 1.26 1.26 0 00-.017.18v1.686c0 .116.006.203.017.259a.19.19 0 00.093.12.488.488 0 00.233.028c.093-.005.14.04.14.136v.739c0 .033-.013.06-.039.083a.139.139 0 01-.084.036c-.093.005-.145-.025-.157-.09a2.62 2.62 0 00-.089-.426.354.354 0 00-.135-.199c-.062-.041-.155-.058-.28-.052l-1.217.067a.5.5 0 00-.28.082.433.433 0 00-.141.215 3.26 3.26 0 00-.085.436c-.012.066-.06.102-.145.107zm1.508-1.08a.409.409 0 00.136-.025.14.14 0 00.076-.085.54.54 0 00.03-.203v-2.144l-.59.03a.444.444 0 00-.14.025c-.03.014-.056.044-.076.09a.575.575 0 00-.025.199 7.383 7.383 0 01-.14 1.255c-.077.36-.203.666-.378.919l1.108-.06zm-4.489.451c-.026.001-.045-.007-.056-.024a.12.12 0 01-.022-.071c.003-.046.012-.073.026-.083a.1.1 0 01.052-.016l.038-.002c.086-.005.148-.031.188-.078a.622.622 0 00.095-.163l.051-.124.749-1.905a.338.338 0 00.025-.11c0-.054-.02-.092-.06-.114a.535.535 0 00-.166-.05.236.236 0 01-.09-.022c-.01-.009-.017-.034-.017-.076 0-.036.009-.06.026-.073a.18.18 0 01.09-.023c.142-.007.255 0 .337.02a.41.41 0 01.223.123c.062.063.12.162.175.297l.716 1.825c.043.111.084.194.124.25.04.054.099.08.178.08l.026-.002c.028-.002.048.003.06.015.01.008.018.033.02.075a.13.13 0 01-.02.073c-.012.019-.03.029-.056.03a9.418 9.418 0 00-.997.055c-.026.001-.046-.007-.06-.024a.142.142 0 01-.017-.071c.003-.042.01-.068.021-.078.012-.013.032-.02.06-.021a.563.563 0 00.205-.038c.04-.023.06-.06.06-.111a.782.782 0 00-.051-.209l-.146-.366-1.055.057-.124.33a.483.483 0 00-.012.051 1.08 1.08 0 00-.052.224c0 .05.022.084.065.1a.855.855 0 00.244.01l.025-.002c.029-.002.049.003.06.015.012.008.019.033.022.075a.131.131 0 01-.022.073c-.011.019-.03.029-.055.03a9.78 9.78 0 00-.466.012c-.092.005-.23.017-.416.036h-.002zm.813-1.153l.897-.047-.431-1.135-.013.001-.453 1.181zm-2.044 1.296a1.247 1.247 0 01-.67-.144 1.238 1.238 0 01-.483-.498 1.631 1.631 0 01-.176-.782c0-.302.057-.576.172-.814.115-.238.279-.426.491-.564.212-.14.46-.217.744-.232.246-.012.465.029.657.125a.477.477 0 01.287.463.532.532 0 01-.116.354.425.425 0 01-.455.136.214.214 0 01-.077-.068c-.017-.027-.024-.047-.021-.062 0-.006.02-.024.06-.053a.424.424 0 00.107-.118.326.326 0 00.047-.179.385.385 0 00-.133-.314c-.086-.076-.206-.111-.36-.103a.784.784 0 00-.469.182c-.135.11-.24.267-.318.473a2.087 2.087 0 00-.112.72c0 .241.04.459.12.654.084.191.2.342.349.45.149.107.32.155.511.145a.775.775 0 00.395-.121.99.99 0 00.3-.346c.015-.027.035-.042.06-.043a.144.144 0 01.078.022c.045.031.068.063.068.096a.067.067 0 01-.017.046c-.109.15-.212.266-.309.346a.873.873 0 01-.309.166 1.859 1.859 0 01-.42.063zm-3.185.16a.557.557 0 01-.38-.097.372.372 0 01-.14-.3c0-.11.03-.199.091-.269a.319.319 0 01.225-.111.215.215 0 01.13.029c.038.019.057.038.057.056 0 .006-.013.025-.04.056a.22.22 0 00-.038.138.24.24 0 00.056.165c.038.043.092.063.165.06a.391.391 0 00.26-.119.992.992 0 00.211-.333 25.31 25.31 0 01-.528-1.046 21.606 21.606 0 00-.316-.627 1.936 1.936 0 00-.108-.194.279.279 0 00-.087-.09.32.32 0 00-.142-.052.419.419 0 00-.053-.007c-.023-.005-.039-.013-.047-.025a.2.2 0 01-.009-.067c0-.04.009-.066.026-.079a.153.153 0 01.083-.022c.152-.008.272 0 .36.022.086.02.158.062.215.125.061.06.129.157.204.289.023.044.068.14.134.287.164.354.327.678.489.971h.013l.556-1.36a.225.225 0 00.018-.087c0-.06-.028-.097-.082-.11a.808.808 0 00-.242-.014l-.026.001c-.029.002-.049-.002-.06-.01-.012-.012-.02-.039-.022-.081a.13.13 0 01.017-.07.077.077 0 01.056-.034c.187 0 .354-.004.5-.012.102-.005.244-.017.428-.035a.055.055 0 01.056.029.1.1 0 01.021.066c-.003.043-.01.07-.021.083-.012.01-.032.015-.06.017a.416.416 0 00-.182.04.217.217 0 00-.086.082 2.68 2.68 0 00-.099.204l-.781 1.784a1.686 1.686 0 01-.359.55.713.713 0 01-.463.197z" fill="#5F3E22"/><path d="M75.61 10.61c-.21.011-.407-.03-.591-.123a.669.669 0 01-.344-.48v-.042c0-.055.013-.1.038-.137.026-.042.06-.065.105-.068a.112.112 0 01.086.037c.026.027.057.066.096.12.057.08.108.143.152.188.05.04.12.056.21.051.184-.01.342-.105.476-.285.133-.187.291-.472.475-.855l.257-.5c.152-.285.316-.528.493-.73.177-.203.383-.358.617-.467v-.03a2.12 2.12 0 01-1.405-.468c-.317-.28-.476-.653-.476-1.116 0-.65.226-1.117.676-1.401.45-.284.943-.439 1.48-.464h.198l1.465-.069a22.51 22.51 0 001.13-.084.123.123 0 01.123.066.24.24 0 01.047.153c-.007.103-.029.166-.066.188-.031.023-.091.036-.179.04-.182.009-.317.053-.405.133a.491.491 0 00-.17.276 3.032 3.032 0 00-.037.415v4.096c.006.172.019.312.038.421a.472.472 0 00.17.259c.087.064.222.091.404.081l.056-.003c.063-.003.107.008.132.034.031.019.05.076.057.172a.31.31 0 01-.047.168c-.025.042-.066.066-.123.069a21.794 21.794 0 00-2.302.126.149.149 0 01-.132-.055.34.34 0 01-.038-.163c.006-.104.025-.167.057-.19a.402.402 0 01.18-.04c.182-.01.317-.052.406-.125a.545.545 0 00.17-.278c.025-.105.04-.247.047-.426V7.368l-.227.012c-.24.012-.444.081-.614.207a1.706 1.706 0 00-.417.467 7.96 7.96 0 00-.36.722c-.177.396-.332.711-.465.946-.126.228-.31.428-.55.6-.235.172-.533.268-.894.288zm3.526-3.624V5.003c0-.248-.018-.426-.056-.535-.038-.108-.104-.174-.199-.197a1.34 1.34 0 00-.434-.03c-.505.024-.897.166-1.175.428-.272.255-.408.607-.408 1.055 0 .587.18.954.54 1.102.367.147.784.208 1.25.184l.482-.024zm-10.895 3.956c-.058.004-.1-.015-.126-.056a.282.282 0 01-.048-.164c.006-.105.026-.169.058-.192a.217.217 0 01.116-.037l.087-.005c.194-.01.336-.07.426-.18.09-.117.161-.242.213-.378l.116-.288 1.688-4.408a.795.795 0 00.058-.253c0-.126-.045-.214-.135-.265a1.16 1.16 0 00-.376-.118.548.548 0 01-.202-.053c-.026-.019-.04-.078-.04-.175 0-.084.02-.14.059-.17a.402.402 0 01.202-.051c.321-.015.575 0 .76.047.193.04.36.136.5.289.142.146.273.376.394.69l1.61 4.225c.096.258.188.45.277.578.09.127.223.188.402.185l.057-.003c.063-.003.108.008.133.035.026.02.042.077.048.174a.306.306 0 01-.048.168c-.025.043-.066.066-.123.07-.408.001-.759.01-1.052.027-.383.02-.78.053-1.189.096a.152.152 0 01-.134-.055.339.339 0 01-.039-.165c.007-.097.023-.157.048-.18.026-.028.07-.045.135-.048.217-.012.37-.041.46-.088.09-.053.135-.139.135-.257 0-.09-.039-.25-.115-.482l-.326-.847-2.376.125c-.161.44-.255.695-.28.767-.02.07-.03.109-.03.116-.077.269-.115.441-.115.518 0 .118.048.196.145.232.096.03.28.037.55.022l.057-.003c.064-.003.11.008.135.035.026.02.042.077.048.174a.309.309 0 01-.048.17c-.026.043-.068.066-.125.07-.412.001-.762.01-1.052.026-.206.01-.52.039-.939.083h.001zm1.836-2.668l2.02-.105-.97-2.63-.029.002-1.02 2.733zm-2.993 2.806c-.343.018-.631-.046-.865-.194a1.868 1.868 0 01-.564-.578 8.921 8.921 0 01-.449-.93 7.403 7.403 0 00-.42-.84 1.448 1.448 0 00-.468-.51 1.108 1.108 0 00-.714-.185l-.254.013V9.95c.006.175.02.318.039.429a.48.48 0 00.176.264c.091.065.232.092.42.082l.06-.003c.065-.004.11.007.136.034.033.02.053.078.06.176a.31.31 0 01-.05.17c-.026.044-.068.067-.127.07a24.06 24.06 0 00-1.213.036c-.36.02-.753.052-1.178.096a.155.155 0 01-.138-.056.338.338 0 01-.04-.166c.007-.106.027-.17.06-.193a.432.432 0 01.186-.042c.19-.01.331-.053.423-.128a.555.555 0 00.176-.284c.026-.106.043-.251.05-.434v-4.18a2.18 2.18 0 00-.05-.43.438.438 0 00-.176-.254c-.092-.073-.233-.105-.423-.096l-.059.003a.247.247 0 01-.137-.025c-.027-.027-.043-.09-.05-.188 0-.063.014-.116.04-.16a.165.165 0 01.138-.08 23.402 23.402 0 002.391-.113c.06-.003.101.02.128.067.032.04.048.093.048.156-.006.105-.03.169-.068.192-.033.023-.095.036-.186.04-.189.01-.33.055-.42.136a.5.5 0 00-.177.282c-.02.106-.033.247-.039.423v1.662l.46-.024c.209-.01.41-.09.606-.24.202-.15.374-.376.518-.678.045-.1.12-.289.224-.567.13-.342.247-.625.35-.846.111-.23.25-.432.42-.608.175-.176.382-.276.622-.302.292-.013.525.073.7.26.174.188.262.4.262.637a.757.757 0 01-.117.414.875.875 0 01-.252.284.505.505 0 01-.243.107c-.052.002-.077-.014-.077-.049a.884.884 0 00-.127-.476c-.084-.142-.188-.21-.311-.205a.642.642 0 00-.525.309 4.238 4.238 0 00-.37.805 5.906 5.906 0 01-.118.3 2.2 2.2 0 01-.4.639 1.027 1.027 0 01-.487.319v.031c.344-.017.637.066.878.25.24.176.435.397.584.662.15.257.308.585.477.981.175.41.324.71.447.898.13.182.288.268.476.257a.3.3 0 00.203-.084.885.885 0 00.165-.208c.058-.108.11-.163.155-.165h.01c.058-.004.1.018.126.066a.207.207 0 01.029.165.74.74 0 01-.349.522 1.269 1.269 0 01-.601.19zm-8.814.59a2.839 2.839 0 01-1.549-.338c-.464-.265-.835-.655-1.114-1.17-.273-.516-.41-1.128-.41-1.836 0-.708.134-1.351.4-1.909A3.154 3.154 0 0156.73 5.1c.49-.327 1.063-.506 1.717-.536.567-.027 1.071.072 1.512.298.44.218.66.58.66 1.087.007.316-.082.591-.266.825a.97.97 0 01-.74.365.667.667 0 01-.306-.048.499.499 0 01-.178-.16c-.04-.062-.056-.11-.05-.146 0-.014.047-.055.14-.123a.984.984 0 00.246-.276.774.774 0 00.11-.418c0-.317-.103-.562-.307-.735-.198-.18-.475-.262-.831-.245a1.79 1.79 0 00-1.08.422c-.312.255-.557.623-.736 1.105-.172.475-.258 1.038-.258 1.688 0 .566.093 1.077.278 1.533.192.45.46.802.805 1.059.344.25.737.362 1.179.338.356-.02.66-.114.91-.282.256-.176.487-.445.69-.808.033-.065.08-.1.139-.102a.325.325 0 01.177.053c.105.072.158.147.158.224a.156.156 0 01-.04.108c-.25.35-.486.62-.71.808a2.02 2.02 0 01-.71.388c-.258.078-.58.127-.97.149zm-10.615.404a.162.162 0 01-.142-.056.342.342 0 01-.04-.17c.006-.107.027-.172.06-.195a.405.405 0 01.193-.043c.196-.01.342-.054.436-.13a.502.502 0 00.172-.288c.027-.116.044-.263.051-.442V6.503a2.1 2.1 0 00-.05-.425.406.406 0 00-.173-.27c-.094-.074-.24-.106-.436-.097l-.06.003c-.068.004-.116-.005-.143-.025-.027-.027-.044-.09-.05-.19 0-.065.013-.119.04-.163a.172.172 0 01.142-.082 24.225 24.225 0 002.459-.116c.06-.003.104.02.131.068a.24.24 0 01.05.158c-.006.107-.026.172-.06.195a.401.401 0 01-.192.041c-.195.01-.34.056-.434.139a.507.507 0 00-.182.286c-.02.108-.033.251-.04.43v1.89l3.162-.16V6.3a2.088 2.088 0 00-.05-.423.405.405 0 00-.171-.27c-.094-.073-.238-.105-.432-.096l-.06.003a.277.277 0 01-.151-.024c-.027-.028-.044-.09-.05-.19a.26.26 0 01.05-.162c.033-.051.077-.079.13-.08a23.929 23.929 0 002.446-.116.13.13 0 01.13.067.24.24 0 01.05.157c-.007.107-.03.172-.07.195a.369.369 0 01-.18.04c-.193.01-.34.056-.44.139a.505.505 0 00-.18.285c-.02.107-.034.25-.04.427v4.223c.006.177.02.321.04.434a.484.484 0 00.18.266c.1.066.247.093.44.082l.06-.003c.06-.003.103.009.13.036.033.02.053.078.06.177a.31.31 0 01-.05.173c-.027.044-.07.067-.13.07a24.304 24.304 0 00-2.446.135.15.15 0 01-.13-.057.285.285 0 01-.05-.167c.006-.107.026-.172.06-.196a.473.473 0 01.2-.042c.195-.011.339-.054.432-.13a.502.502 0 00.171-.286c.027-.116.044-.262.05-.44V8.643l-3.162.162v1.892c.007.177.02.323.04.436a.487.487 0 00.183.268c.094.066.239.093.434.083l.06-.004c.068-.003.115.008.142.035.027.02.043.08.05.18a.311.311 0 01-.05.173c-.027.044-.071.068-.132.071-.43.003-.848.015-1.252.037-.365.02-.767.053-1.206.098zm-7.944.437c-.124 0-.186-.076-.186-.227.007-.109.028-.175.062-.198a.42.42 0 01.197-.043c.2-.011.347-.055.443-.133a.507.507 0 00.176-.29 2.4 2.4 0 00.051-.445V6.891a2.118 2.118 0 00-.051-.43.408.408 0 00-.176-.272c-.096-.074-.244-.107-.443-.097l-.062.003c-.069.003-.117-.005-.145-.025-.027-.028-.045-.092-.051-.192a.3.3 0 01.041-.164.175.175 0 01.145-.083 25.086 25.086 0 002.502-.118c.061-.003.106.02.133.069a.242.242 0 01.052.159c-.007.108-.028.173-.062.196a.416.416 0 01-.195.042c-.199.01-.346.056-.442.14a.511.511 0 00-.185.289 3.17 3.17 0 00-.041.433v3.816l2.942-4.045c.26-.357.463-.617.613-.782a1.75 1.75 0 01.388-.34 1.17 1.17 0 01.397-.126 6 6 0 01.52-.046c.122-.006.182.07.182.227-.006.107-.027.173-.06.196a.41.41 0 01-.194.04c-.196.01-.342.057-.438.14a.507.507 0 00-.183.288c-.02.108-.034.252-.04.431v4.26c.006.179.02.325.04.438a.488.488 0 00.184.27c.095.066.24.093.437.083l.062-.004c.067-.003.115.008.142.036.027.02.044.08.05.18a.31.31 0 01-.05.173c-.027.045-.071.069-.132.072a24.21 24.21 0 00-2.47.136.167.167 0 01-.143-.057.341.341 0 01-.04-.17c.006-.107.027-.173.06-.196a.454.454 0 01.195-.043c.198-.01.345-.055.44-.132a.506.506 0 00.174-.288 2.4 2.4 0 00.05-.444V7.162l-2.95 4.026c-.261.351-.464.61-.608.776-.137.159-.26.277-.37.355a.871.871 0 01-.361.139 4.474 4.474 0 01-.599.054zm-6.451.355c-.063.003-.112-.015-.147-.057a.344.344 0 01-.041-.172c.006-.11.027-.175.062-.2a.424.424 0 01.2-.042c.202-.011.352-.056.45-.134a.512.512 0 00.177-.292 2.39 2.39 0 00.053-.449V7.205a2.109 2.109 0 00-.053-.432.413.413 0 00-.178-.274c-.097-.075-.247-.108-.45-.098l-.062.003c-.07.003-.12-.006-.147-.026-.028-.028-.046-.092-.053-.193a.32.32 0 01.042-.166.178.178 0 01.147-.083 25.6 25.6 0 001.234-.026l1.47-.07c.382-.018.691-.003.926.043.236.047.447.127.634.24.18.115.321.278.425.49.103.203.155.432.155.684 0 .448-.142.812-.425 1.093a2.316 2.316 0 01-.976.58v.032c.36-.018.686.041.976.178.297.13.525.316.684.56.166.237.249.499.249.787 0 .49-.145.895-.435 1.214a2.548 2.548 0 01-1.079.708c-.43.146-.877.232-1.342.258l-1.252.058c-.376.02-.79.054-1.244.1v.001zm2.226-4.018c.278-.014.517-.048.718-.102a1.04 1.04 0 00.551-.374c.16-.196.24-.493.24-.89 0-.86-.406-1.27-1.218-1.23l-.73.034V8.87l.439-.022zm.312 3.423c.514-.035.923-.188 1.227-.457.312-.277.468-.708.468-1.292a1.259 1.259 0 00-.53-.937c-.312-.236-.807-.338-1.488-.303l-.428.022v2.16c0 .247.021.43.063.551a.395.395 0 00.22.227c.104.03.26.04.468.029zm-10.731 1.045c-.128 0-.192-.077-.192-.23.007-.11.029-.178.064-.202a.439.439 0 01.203-.044c.206-.011.358-.056.458-.134.1-.086.16-.185.18-.295.03-.119.047-.27.054-.453V7.604a2.086 2.086 0 00-.053-.436.414.414 0 00-.181-.276c-.1-.076-.252-.109-.458-.099l-.064.003c-.072.004-.121-.005-.15-.026-.028-.028-.046-.093-.053-.195 0-.065.014-.121.043-.166a.181.181 0 01.15-.084 26.23 26.23 0 002.583-.122c.064-.004.11.02.138.07a.243.243 0 01.053.161c-.007.11-.028.177-.063.2a.435.435 0 01-.202.043c-.205.01-.357.057-.456.142a.52.52 0 00-.192.294c-.02.11-.035.257-.042.44v3.878l3.038-4.113c.268-.362.479-.627.633-.795.154-.167.288-.283.4-.346a1.23 1.23 0 01.41-.129 6.59 6.59 0 01.537-.047c.126-.006.189.071.189.231-.007.11-.028.175-.063.2a.428.428 0 01-.2.041c-.203.01-.354.057-.452.142a.517.517 0 00-.19.292c-.02.11-.035.256-.042.439v4.328c.007.182.021.33.043.445a.497.497 0 00.189.274c.098.067.249.095.452.084l.063-.003c.07-.004.12.008.147.035.028.02.045.081.052.182a.314.314 0 01-.052.177c-.028.046-.074.07-.137.073a25.32 25.32 0 00-2.55.14c-.063.004-.112-.015-.147-.057a.342.342 0 01-.043-.172c.007-.11.029-.177.064-.2a.47.47 0 01.2-.044c.205-.011.356-.056.454-.134a.514.514 0 00.18-.294c.028-.117.045-.268.052-.45V7.877l-3.047 4.093c-.27.358-.479.62-.627.79-.142.161-.27.281-.383.36a.91.91 0 01-.373.142c-.234.035-.44.053-.618.056l.001-.002zm-7.53.492c-.398.022-.71-.057-.934-.236a.9.9 0 01-.337-.724c0-.244.073-.448.218-.61a.802.802 0 01.564-.263.479.479 0 01.195.023c.058.019.094.039.109.06a.44.44 0 01-.065.148.618.618 0 00-.055.268c0 .288.152.424.456.407.267-.014.48-.217.639-.61.166-.391.296-.903.39-1.534.1-.632.219-1.566.356-2.803.007-.06.01-.14.01-.243 0-.229-.05-.385-.15-.468-.094-.084-.267-.12-.52-.108l-.064.003c-.073.003-.123-.005-.152-.026-.029-.028-.047-.094-.054-.196 0-.067.014-.123.043-.168a.185.185 0 01.152-.085c.461 0 .886-.009 1.275-.027l2.711-.129c.386-.018.808-.05 1.264-.093.065-.003.11.02.14.07a.242.242 0 01.053.163c-.008.11-.029.177-.064.201a.44.44 0 01-.204.043c-.264.013-.446.091-.546.235-.093.137-.143.352-.15.645v4.369c.008.183.022.332.043.449.028.108.093.2.193.275.1.068.253.097.46.085l.064-.003c.071-.004.121.008.15.035.028.02.046.082.053.184a.316.316 0 01-.053.18c-.029.045-.075.07-.14.073a26.64 26.64 0 00-2.607.143.172.172 0 01-.15-.058.342.342 0 01-.043-.174c.007-.11.029-.178.064-.202a.444.444 0 01.205-.044c.208-.011.362-.057.462-.136a.517.517 0 00.183-.296c.029-.119.046-.27.053-.455V6.988l-1.506.072a.925.925 0 00-.323.06c-.072.032-.133.105-.183.218a1.877 1.877 0 00-.098.49 53.896 53.896 0 01-.399 3.245c-.13.788-.331 1.436-.605 1.944-.267.501-.635.765-1.105.79l.002.001zm-5.665.234a.166.166 0 01-.142-.059.342.342 0 01-.044-.176c.007-.111.03-.18.066-.204a.456.456 0 01.208-.044c.212-.012.37-.057.471-.137a.524.524 0 00.187-.3c.029-.12.047-.273.055-.459V8.247a2.109 2.109 0 00-.055-.443.42.42 0 00-.187-.28c-.102-.077-.259-.11-.471-.1l-.066.003c-.073.004-.124-.005-.153-.026-.03-.028-.048-.094-.055-.198 0-.067.014-.123.044-.169a.177.177 0 01.142-.085c.468 0 .903-.01 1.304-.028l3.37-.16c.187-.009.282.075.282.252l.032 1.56c0 .067-.03.124-.087.17a.3.3 0 01-.174.065.57.57 0 01-.25-.043c-.072-.034-.112-.08-.12-.139a4.35 4.35 0 00-.195-.821.723.723 0 00-.304-.407c-.131-.09-.32-.133-.567-.128l-1.408.067v5.268c.008.184.022.335.044.453.03.11.095.202.197.278.101.069.258.097.469.086l.066-.004c.065-.003.112.009.141.037.037.02.058.082.066.185a.316.316 0 01-.055.18c-.029.047-.076.072-.142.075-.473.004-.924.018-1.354.042-.402.022-.84.057-1.316.105h.001z" fill="#AD7D3A"/><path d="M61.202 19.07l-5.349.182.07.174 5.279-.356zM32.7 20.39l6.446-.503-.071.174-6.376.329zm-19.534-5.024l-4.777.249-.084.427 4.861-.676z" fill="#5F3E22"/><path d="M75.825 10.433c-.21.011-.407-.03-.59-.124a.669.669 0 01-.344-.48v-.04c0-.056.013-.102.038-.138a.128.128 0 01.105-.068c.032-.002.06.01.086.037.025.026.057.066.095.12.057.08.108.142.153.188.05.04.12.056.21.051.183-.01.342-.105.475-.285.133-.187.292-.472.476-.855l.256-.5c.152-.285.317-.528.494-.73.177-.203.383-.359.616-.467v-.03a2.12 2.12 0 01-1.404-.468c-.317-.28-.476-.653-.476-1.116 0-.65.225-1.117.675-1.401.45-.284.943-.439 1.48-.464h.199l1.464-.069a22.15 22.15 0 001.13-.084c.057-.003.098.02.123.066a.24.24 0 01.047.153c-.006.103-.028.166-.066.188-.03.023-.09.036-.178.04-.182.009-.317.053-.405.133a.49.49 0 00-.17.276 3.032 3.032 0 00-.037.415v4.096c.006.172.018.312.037.42a.471.471 0 00.17.26c.088.064.223.091.405.081l.056-.003c.063-.003.107.008.132.034.031.019.05.076.056.172a.31.31 0 01-.047.168c-.025.042-.066.065-.122.068a21.787 21.787 0 00-2.302.127.149.149 0 01-.133-.055.341.341 0 01-.037-.163c.006-.104.025-.167.056-.19a.403.403 0 01.18-.04c.183-.01.318-.052.406-.125a.544.544 0 00.17-.278c.025-.105.041-.247.047-.426V7.19l-.226.012c-.24.012-.444.081-.615.207a1.702 1.702 0 00-.416.467 7.957 7.957 0 00-.36.722c-.177.396-.332.711-.465.946-.127.228-.31.428-.55.6-.235.172-.533.268-.895.288zm3.527-3.624V4.826c0-.248-.019-.426-.056-.535-.038-.108-.105-.174-.199-.197a1.34 1.34 0 00-.435-.03c-.505.023-.896.166-1.174.428-.272.255-.409.607-.409 1.055 0 .587.18.954.541 1.102.367.147.783.208 1.25.184l.482-.024zm-4.665 3.209c-.025-.027-.07-.038-.133-.035l-.058.003c-.178.003-.312-.059-.4-.186a2.64 2.64 0 01-.278-.577l-1.61-4.226c-.122-.313-.253-.543-.394-.69a.918.918 0 00-.5-.288c-.186-.047-.44-.062-.76-.047a.402.402 0 00-.203.051c-.038.03-.058.086-.058.17 0 .097.013.156.04.175.025.02.092.038.201.053.161.027.286.066.376.118.09.051.135.14.135.265 0 .062-.02.147-.058.252L69.3 9.465l-.116.288a1.47 1.47 0 01-.212.378c-.09.109-.232.169-.426.18l-.087.005a.22.22 0 00-.116.037c-.033.023-.052.087-.059.192 0 .063.016.118.049.164.026.04.068.06.126.056.419-.044.732-.071.938-.083.29-.015.64-.024 1.052-.026.058-.003.1-.027.125-.07a.309.309 0 00.048-.169c-.006-.097-.022-.155-.048-.175-.026-.026-.07-.038-.135-.034l-.058.003c-.27.015-.453.007-.55-.022-.096-.037-.144-.114-.144-.232 0-.077.038-.25.115-.518 0-.007.01-.046.03-.117l.28-.767 1.931-.101.52 1.628c-.066.01-.142.018-.228.023-.064.003-.11.02-.135.049-.025.022-.041.082-.048.18 0 .062.013.117.039.164a.15.15 0 00.134.055c.41-.043.805-.076 1.189-.097a21.31 21.31 0 011.051-.026c.058-.003.099-.026.124-.07a.31.31 0 00.048-.168c-.006-.097-.022-.155-.048-.174zm-4.394-1.921l1.021-2.733.029-.001.97 2.628-.26.014-.544-1.217.391 1.225-1.607.084zm2.193.333l.327.847c.076.232.114.393.114.483 0 .054-.01.1-.028.14l-.65-1.457.237-.013zm-4.264 1.595c-.026-.047-.068-.07-.126-.067l-.01.001c-.045.002-.097.058-.155.165a.885.885 0 01-.165.208.3.3 0 01-.203.085c-.188.01-.347-.076-.476-.257-.123-.19-.272-.489-.447-.899a9.17 9.17 0 00-.477-.981 2.078 2.078 0 00-.584-.662c-.24-.184-.533-.267-.878-.25v-.031c.17-.044.332-.15.488-.32.156-.168.29-.381.4-.638a4.85 4.85 0 00.117-.3 4.2 4.2 0 01.37-.805.642.642 0 01.525-.309c.123-.006.227.063.311.205a.884.884 0 01.127.476c0 .035.026.051.077.049a.501.501 0 00.243-.106.88.88 0 00.253-.285.758.758 0 00.116-.414.907.907 0 00-.262-.636c-.175-.188-.408-.274-.7-.26a1 1 0 00-.622.301 2.33 2.33 0 00-.419.608c-.104.222-.22.504-.35.846-.105.278-.18.467-.225.567-.143.302-.316.527-.518.678a1.07 1.07 0 01-.606.24l-.46.024V5.596a3.04 3.04 0 01.04-.423.498.498 0 01.176-.282c.091-.081.231-.126.42-.135a.403.403 0 00.186-.04c.04-.024.062-.088.069-.193a.24.24 0 00-.05-.156c-.025-.047-.068-.07-.126-.067a23.39 23.39 0 01-2.392.113.165.165 0 00-.138.08.303.303 0 00-.04.16c.008.099.024.161.05.188.033.02.079.028.138.025l.059-.003c.19-.01.33.023.422.096a.44.44 0 01.177.254c.026.105.042.248.049.43v1.823l-3.845.455 3.845-.11v2.012a2.255 2.255 0 01-.05.434.555.555 0 01-.176.284c-.092.075-.232.118-.422.128a.422.422 0 00-.187.042c-.033.023-.052.087-.06.193a.34.34 0 00.04.166c.033.04.08.06.138.056.426-.044.818-.076 1.178-.096a24.07 24.07 0 011.214-.035c.059-.004.1-.027.127-.07a.308.308 0 00.049-.171c-.007-.098-.026-.156-.06-.176-.025-.026-.071-.038-.136-.034l-.059.003c-.189.01-.33-.017-.42-.082a.483.483 0 01-.177-.264 3.216 3.216 0 01-.039-.43V7.679l.255-.013c.28-.014.518.047.713.184.196.13.352.301.47.512.123.203.262.483.419.838.162.384.311.694.448.931.143.23.331.423.565.578.233.148.521.212.865.193.213-.012.414-.075.601-.19a.738.738 0 00.349-.521.207.207 0 00-.03-.166h.001z" fill="#F2CA90"/><path d="M58.485 11.493a2.84 2.84 0 01-1.548-.338 2.898 2.898 0 01-1.115-1.17c-.272-.516-.409-1.128-.409-1.836 0-.708.133-1.351.4-1.91a3.154 3.154 0 011.134-1.316c.49-.327 1.062-.506 1.716-.536.567-.027 1.072.072 1.513.298.44.218.66.58.66 1.087.007.316-.082.591-.266.825a.97.97 0 01-.74.365.666.666 0 01-.306-.048.499.499 0 01-.178-.16c-.04-.062-.056-.11-.05-.146 0-.014.047-.055.139-.123a.985.985 0 00.247-.276.774.774 0 00.109-.418c0-.317-.102-.562-.307-.735-.197-.18-.474-.263-.83-.245a1.79 1.79 0 00-1.081.422c-.311.255-.556.623-.735 1.105-.173.475-.259 1.038-.259 1.688 0 .566.093 1.077.279 1.533.192.45.46.802.804 1.059.344.25.738.362 1.18.338.356-.02.659-.114.91-.282.256-.176.486-.445.69-.808.033-.065.079-.1.138-.103a.325.325 0 01.178.054c.105.072.157.147.157.224a.155.155 0 01-.039.107c-.25.351-.486.621-.71.81a2.01 2.01 0 01-.711.387c-.257.077-.58.127-.97.148zm-3.887-.38c-.026-.027-.07-.039-.13-.035l-.06.003c-.193.01-.34-.017-.44-.082a.488.488 0 01-.18-.267 3.266 3.266 0 01-.04-.434V8.289l1.247-.254-1.247.02v-1.98c.007-.177.02-.32.04-.427a.503.503 0 01.18-.285c.1-.083.247-.129.44-.138a.372.372 0 00.18-.04c.04-.024.064-.089.07-.195a.24.24 0 00-.05-.157c-.026-.049-.07-.071-.13-.069a23.953 23.953 0 01-2.445.116.16.16 0 00-.13.081.26.26 0 00-.051.162c.007.1.023.163.05.19a.27.27 0 00.151.024l.06-.002c.195-.01.339.022.432.096.094.067.15.156.17.269a2.1 2.1 0 01.051.424v1.884l-3.162.161V6.278c.007-.179.02-.322.04-.43a.508.508 0 01.182-.286c.094-.083.24-.13.434-.138.095-.005.159-.019.192-.042.034-.023.054-.088.06-.195a.24.24 0 00-.05-.157c-.026-.049-.07-.072-.13-.069-.438.042-.859.073-1.264.092-.357.017-.755.025-1.195.025a.172.172 0 00-.142.081.306.306 0 00-.04.163c.006.1.023.163.05.19.027.02.074.029.142.026l.06-.004c.197-.009.342.023.437.097a.405.405 0 01.172.27 2.1 2.1 0 01.05.426v1.979l-1.732.213 1.732.1v1.955a2.375 2.375 0 01-.05.441.505.505 0 01-.172.288c-.095.076-.24.12-.436.13a.41.41 0 00-.193.043c-.034.024-.054.089-.06.196 0 .065.013.12.04.17.034.04.08.06.142.056a24.447 24.447 0 012.458-.135c.061-.004.105-.027.132-.072a.31.31 0 00.05-.173c-.007-.1-.024-.159-.05-.179-.027-.027-.074-.038-.142-.035l-.06.004c-.195.01-.34-.017-.434-.084a.487.487 0 01-.182-.267 3.24 3.24 0 01-.04-.437V8.63l3.161-.164v1.885a2.353 2.353 0 01-.05.44.502.502 0 01-.17.285c-.094.076-.238.12-.432.13a.476.476 0 00-.201.043c-.034.023-.054.088-.06.195 0 .064.016.12.05.168a.15.15 0 00.13.057 24.062 24.062 0 012.446-.134c.06-.004.103-.027.13-.071a.31.31 0 00.05-.173c-.007-.099-.027-.158-.06-.177v-.001zm-7.916.432c-.027-.027-.074-.04-.142-.035l-.061.003c-.197.01-.343-.017-.438-.084a.487.487 0 01-.183-.269 3.3 3.3 0 01-.041-.438v-4.26a3.16 3.16 0 01.04-.431.51.51 0 01.184-.288c.095-.083.24-.13.438-.139a.41.41 0 00.193-.041c.034-.023.054-.089.061-.196 0-.157-.06-.233-.183-.227a5.995 5.995 0 00-.52.046 1.164 1.164 0 00-.397.126 1.76 1.76 0 00-.387.34c-.15.165-.354.425-.613.782l-2.943 4.045V6.663c.007-.18.021-.324.042-.433a.512.512 0 01.185-.29c.096-.083.243-.13.441-.139a.416.416 0 00.196-.042c.034-.023.054-.088.061-.196a.242.242 0 00-.051-.16c-.027-.048-.072-.071-.134-.068a24.691 24.691 0 01-2.502.118.174.174 0 00-.145.083.306.306 0 00-.04.164c.006.1.023.164.05.192.028.02.077.028.145.025L40 5.914c.2-.01.348.023.444.098a.411.411 0 01.175.272c.028.106.045.25.052.429v4.284a2.38 2.38 0 01-.052.445.507.507 0 01-.175.29c-.097.078-.244.122-.444.133a.42.42 0 00-.196.043c-.035.023-.055.09-.062.197 0 .152.062.227.186.228a4.47 4.47 0 00.598-.055.874.874 0 00.361-.138c.11-.078.234-.196.371-.355.144-.166.347-.425.607-.777l2.951-4.025v.494l-1.932 2.574 1.932-1.962v2.686c-.006.18-.023.327-.05.443a.505.505 0 01-.174.289c-.096.077-.242.12-.44.131a.457.457 0 00-.194.043c-.035.024-.055.09-.062.197 0 .064.014.121.04.17.035.04.083.06.144.056.443-.045.866-.08 1.267-.102.367-.02.768-.031 1.203-.034.06-.003.105-.027.132-.071a.312.312 0 00.05-.175c-.006-.1-.023-.159-.05-.179v.002zm-8.103-1.982a1.506 1.506 0 00-.684-.56 2.02 2.02 0 00-.976-.177v-.033c.374-.113.7-.306.976-.58.283-.281.425-.645.425-1.092 0-.253-.052-.481-.156-.686a1.175 1.175 0 00-.425-.488 1.92 1.92 0 00-.633-.24 3.987 3.987 0 00-.926-.043l-1.47.07c-.37.017-.78.026-1.234.025a.177.177 0 00-.147.084.307.307 0 00-.042.165c.007.101.025.166.053.193.027.02.076.03.146.026l.063-.003c.202-.01.352.023.45.098a.415.415 0 01.178.274c.028.108.045.252.052.432v1.718l-2.244.5 2.244-.033v2.13a2.393 2.393 0 01-.052.449.51.51 0 01-.178.292c-.098.078-.248.122-.45.133a.43.43 0 00-.2.043c-.034.024-.055.09-.062.2 0 .065.014.122.042.172.035.041.084.06.147.057.453-.047.868-.08 1.244-.101l1.252-.058a4.989 4.989 0 001.342-.258c.436-.154.796-.39 1.079-.708.29-.319.435-.723.435-1.214 0-.288-.083-.55-.249-.787zM35.263 6.11l.73-.035c.811-.039 1.217.371 1.217 1.231 0 .397-.08.694-.24.89-.159.196-.342.32-.55.374a3.488 3.488 0 01-.72.102l-.437.022V6.109zm1.978 5.528c-.305.27-.714.422-1.228.457a1.497 1.497 0 01-.469-.03.398.398 0 01-.219-.226c-.042-.121-.063-.304-.063-.55V9.127l.428-.022c.68-.035 1.176.066 1.488.303.319.236.495.549.53.936 0 .585-.156 1.016-.467 1.293z" fill="#F2CA90"/><path d="M32.258 12.331c-.028-.027-.078-.04-.148-.035l-.063.003c-.203.011-.353-.017-.452-.084a.497.497 0 01-.189-.274 3.276 3.276 0 01-.042-.445V7.168c.007-.183.02-.329.042-.439a.516.516 0 01.19-.292c.098-.085.248-.132.451-.142a.428.428 0 00.2-.042c.035-.023.056-.09.063-.199 0-.16-.063-.237-.189-.23a6.25 6.25 0 00-.536.046 1.228 1.228 0 00-.41.129 1.8 1.8 0 00-.4.346 9.904 9.904 0 00-.633.795l-3.038 4.114v-.786l2.23-3.137-2.23 2.227V7.376c.006-.183.02-.33.042-.44a.518.518 0 01.191-.295c.1-.085.251-.132.457-.142a.434.434 0 00.201-.043c.035-.023.057-.09.064-.2a.242.242 0 00-.053-.161c-.029-.05-.075-.073-.138-.07a26.22 26.22 0 01-2.584.122.182.182 0 00-.15.084.307.307 0 00-.042.167c.007.102.024.167.053.194.028.021.078.03.15.026l.063-.003c.206-.01.359.023.458.099.1.068.16.16.181.276.029.109.046.254.054.436v4.354a2.38 2.38 0 01-.054.453.515.515 0 01-.18.295c-.1.078-.253.123-.459.135a.44.44 0 00-.203.044c-.035.024-.056.09-.063.2 0 .154.064.232.192.232.177-.003.383-.021.618-.056a.914.914 0 00.372-.141c.114-.08.242-.2.383-.361.15-.169.358-.432.628-.79l3.047-4.093v3.854a2.38 2.38 0 01-.053.45.514.514 0 01-.179.293c-.098.079-.25.123-.454.134a.47.47 0 00-.2.044c-.036.024-.057.09-.064.2 0 .066.014.123.043.173.035.042.084.06.148.057a25.437 25.437 0 012.55-.14c.062-.004.108-.028.136-.073a.312.312 0 00.052-.177c-.007-.101-.024-.162-.052-.182h-.002zm-14.506 1.3c-.397.022-.709-.057-.933-.236a.9.9 0 01-.337-.724c0-.244.072-.447.217-.61a.803.803 0 01.565-.263.48.48 0 01.195.023c.058.019.094.039.108.06a.441.441 0 01-.065.148.618.618 0 00-.054.268c0 .288.152.424.455.407.268-.014.48-.217.64-.609.166-.392.295-.904.389-1.535.1-.631.22-1.566.356-2.803.008-.059.011-.14.011-.243 0-.229-.05-.384-.15-.468-.095-.084-.268-.12-.52-.108l-.065.003c-.072.003-.122-.005-.151-.026-.03-.028-.047-.093-.055-.196 0-.067.015-.123.044-.168a.185.185 0 01.151-.085c.462 0 .887-.009 1.275-.027l2.712-.129c.386-.018.807-.049 1.264-.093.064-.003.11.02.139.07a.242.242 0 01.053.163c-.007.11-.028.178-.064.201a.44.44 0 01-.203.043c-.264.013-.446.091-.546.235-.093.137-.143.352-.15.646v4.368c.007.183.021.332.043.449.028.108.093.2.192.276.1.068.253.096.46.085l.065-.004c.07-.004.12.008.15.036.028.02.046.081.053.184a.316.316 0 01-.054.179c-.028.045-.074.07-.139.073a26.654 26.654 0 00-2.607.143c-.065.004-.115-.015-.15-.058a.341.341 0 01-.044-.174c.008-.11.03-.178.065-.202a.446.446 0 01.204-.044c.208-.011.362-.056.463-.135a.518.518 0 00.182-.297c.03-.119.047-.27.054-.454V6.81l-1.506.073a.925.925 0 00-.323.06c-.072.032-.133.105-.184.218a1.872 1.872 0 00-.097.49c-.137 1.377-.27 2.458-.4 3.246-.13.787-.33 1.435-.605 1.944-.267.5-.634.764-1.104.79h.001zm-.708-6.794c0-.178-.094-.262-.282-.253l-3.37.16c-.4.02-.835.029-1.303.029a.177.177 0 00-.143.084.307.307 0 00-.044.17c.007.103.026.169.055.197.03.021.08.03.154.027l.065-.004c.212-.01.37.024.472.1.102.07.164.163.186.28.03.11.048.258.055.443v4.417a2.379 2.379 0 01-.055.459.522.522 0 01-.186.3c-.103.08-.26.125-.472.136a.458.458 0 00-.208.045c-.037.024-.059.092-.066.204 0 .067.015.125.044.176a.166.166 0 00.143.059c.475-.048.913-.084 1.315-.106.43-.024.882-.037 1.355-.041.065-.004.112-.028.141-.075a.315.315 0 00.055-.18c-.007-.104-.03-.165-.066-.186-.029-.027-.076-.04-.141-.036l-.066.003c-.21.012-.367-.017-.47-.085a.503.503 0 01-.196-.278 3.27 3.27 0 01-.043-.454V8.003l1.544-.604-1.544.067v-.305l1.407-.067c.247-.005.436.038.567.128.138.082.24.217.304.406.073.189.138.463.196.822.007.059.047.105.12.138.08.033.163.048.25.043a.3.3 0 00.173-.064.213.213 0 00.087-.17l-.032-1.56z" fill="#F2CA90"/><path d="M74.972 9.806c-.025-.026-.07-.038-.133-.034l-.058.003c-.178.002-.312-.06-.4-.186a2.644 2.644 0 01-.278-.578l-1.61-4.225c-.122-.314-.253-.544-.394-.69a.918.918 0 00-.5-.289c-.186-.046-.44-.062-.76-.047a.402.402 0 00-.203.051c-.038.03-.058.087-.058.17 0 .098.013.156.039.176.026.02.093.037.202.053.161.027.286.066.376.117.09.051.135.14.135.265 0 .062-.02.147-.058.253l-1.688 4.408-.116.288a1.454 1.454 0 01-.212.378c-.09.11-.233.17-.426.18l-.087.005a.22.22 0 00-.117.038c-.032.022-.051.086-.058.191a.28.28 0 00.049.165c.026.04.067.059.126.056.419-.045.732-.072.938-.083.29-.016.64-.025 1.052-.027.058-.003.1-.026.125-.07a.309.309 0 00.048-.169c-.006-.097-.023-.155-.048-.174-.026-.027-.07-.038-.135-.035l-.058.003c-.27.015-.453.008-.55-.022-.096-.036-.144-.114-.144-.232 0-.077.038-.25.115-.518 0-.007.01-.046.03-.117l.28-.766 1.93-.102.522 1.629c-.067.01-.143.018-.23.022-.063.004-.108.02-.134.049-.026.022-.042.082-.048.18 0 .062.013.117.038.164a.15.15 0 00.135.055c.41-.043.805-.075 1.188-.096.294-.016.644-.025 1.052-.027.057-.003.099-.026.124-.07a.308.308 0 00.048-.168c-.006-.097-.022-.155-.048-.174zm-4.394-1.921l1.021-2.733.029-.001.97 2.629-.26.013-.544-1.217.391 1.225-1.607.084zm2.193.333l.326.847c.077.232.115.393.115.483 0 .054-.01.1-.028.14l-.651-1.457.238-.013zm-4.263 1.595c-.025-.047-.068-.07-.126-.066h-.01c-.045.003-.097.058-.155.166a.886.886 0 01-.165.208.3.3 0 01-.203.084c-.188.01-.346-.075-.476-.257-.123-.189-.272-.488-.447-.898a9.133 9.133 0 00-.476-.982 2.078 2.078 0 00-.585-.662c-.24-.184-.533-.267-.878-.25v-.03c.17-.045.332-.15.488-.32.156-.169.29-.382.4-.639.026-.057.065-.157.117-.3.123-.342.246-.61.37-.805a.642.642 0 01.525-.308c.123-.006.227.062.312.205a.883.883 0 01.126.476c0 .034.026.05.078.048a.502.502 0 00.242-.106.88.88 0 00.253-.285.757.757 0 00.116-.414.907.907 0 00-.262-.636c-.175-.187-.408-.274-.7-.26-.24.025-.447.126-.622.302a2.33 2.33 0 00-.419.607c-.104.222-.22.504-.35.846-.105.278-.18.468-.225.568-.143.301-.316.527-.518.677a1.07 1.07 0 01-.606.24l-.46.024V5.384a3.1 3.1 0 01.04-.423.497.497 0 01.176-.281c.091-.082.231-.127.42-.136a.39.39 0 00.186-.04c.04-.023.062-.088.069-.193a.24.24 0 00-.05-.155c-.025-.048-.067-.07-.126-.068a23.399 23.399 0 01-2.392.113.165.165 0 00-.138.08.304.304 0 00-.039.16c.007.099.023.162.05.188.032.02.078.028.137.025l.059-.003c.19-.009.33.023.422.096.092.066.15.15.177.255.026.104.042.247.049.43v1.822l-3.844.455 3.844-.11v2.013a2.248 2.248 0 01-.05.434.555.555 0 01-.176.283c-.091.075-.232.118-.422.129a.424.424 0 00-.187.042c-.033.022-.052.087-.059.192a.34.34 0 00.04.167c.032.04.078.059.137.055.426-.044.818-.076 1.178-.096a24.94 24.94 0 011.214-.035.148.148 0 00.127-.07.308.308 0 00.049-.17c-.007-.099-.026-.157-.06-.176-.025-.027-.07-.038-.136-.035l-.059.003c-.189.01-.33-.017-.42-.082a.483.483 0 01-.177-.264 3.2 3.2 0 01-.039-.429V7.467l.255-.013c.28-.015.518.047.714.184.195.13.351.3.468.511.124.204.264.483.42.839.162.383.311.693.448.93.143.23.331.423.565.578.233.148.522.213.865.194.213-.012.414-.075.601-.19a.738.738 0 00.349-.522.207.207 0 00-.029-.166v.001z" fill="#5F3E22"/><path d="M58.771 11.282a2.839 2.839 0 01-1.548-.339c-.464-.264-.836-.654-1.115-1.17-.272-.516-.408-1.128-.408-1.836 0-.707.133-1.35.398-1.909a3.154 3.154 0 011.135-1.316c.49-.328 1.062-.506 1.716-.537.568-.027 1.072.073 1.513.298.44.218.66.58.66 1.087.007.316-.082.592-.266.826a.97.97 0 01-.74.364.667.667 0 01-.306-.048.498.498 0 01-.178-.16c-.04-.062-.056-.11-.05-.146 0-.014.047-.055.139-.123a.982.982 0 00.247-.276.774.774 0 00.109-.417c0-.317-.102-.562-.307-.735-.197-.181-.474-.263-.83-.246a1.79 1.79 0 00-1.081.422c-.311.255-.556.624-.735 1.106-.172.475-.259 1.037-.259 1.687 0 .566.093 1.077.279 1.534.192.449.46.802.804 1.058.344.25.738.363 1.18.338.356-.02.66-.113.91-.282.256-.176.486-.445.69-.808.033-.065.079-.1.138-.102a.325.325 0 01.178.054c.105.071.158.146.158.223a.156.156 0 01-.04.108c-.25.35-.486.62-.71.809-.217.18-.454.31-.711.387-.257.078-.58.128-.97.149zm-11.804.051c-.027-.027-.074-.039-.142-.035l-.061.003c-.197.01-.343-.017-.438-.083a.487.487 0 01-.183-.27 3.304 3.304 0 01-.041-.437V6.25c.006-.18.02-.323.04-.432a.51.51 0 01.184-.288c.095-.083.24-.13.438-.139a.41.41 0 00.193-.04c.034-.024.054-.09.061-.197 0-.157-.06-.233-.183-.227a5.998 5.998 0 00-.52.046 1.187 1.187 0 00-.397.126 1.76 1.76 0 00-.387.34c-.15.165-.354.426-.613.782l-2.943 4.046V6.452c.007-.18.02-.325.041-.434a.512.512 0 01.186-.289c.096-.083.243-.13.441-.14a.416.416 0 00.196-.041c.034-.023.054-.089.061-.197a.242.242 0 00-.051-.16c-.027-.048-.072-.071-.134-.068a24.698 24.698 0 01-2.502.118.175.175 0 00-.145.083.307.307 0 00-.04.164c.006.1.023.165.05.192.028.02.076.029.145.025l.062-.003c.2-.009.348.023.444.098a.41.41 0 01.175.272c.028.107.045.25.052.43v4.284a2.38 2.38 0 01-.052.445.506.506 0 01-.175.29c-.097.077-.245.121-.444.132a.421.421 0 00-.196.043c-.035.023-.055.09-.062.198 0 .151.062.227.186.227.172-.002.371-.02.598-.054a.871.871 0 00.361-.139 2.21 2.21 0 00.37-.354c.145-.166.347-.425.608-.777l2.952-4.026v.494L43.169 9.84l1.933-1.962v2.686c-.007.18-.024.327-.052.443a.506.506 0 01-.173.29c-.096.076-.242.12-.44.13a.455.455 0 00-.195.043c-.034.024-.054.09-.061.197 0 .065.014.121.04.17.035.041.083.06.144.057a24.578 24.578 0 012.47-.136c.06-.004.105-.028.132-.072a.312.312 0 00.05-.174c-.006-.1-.023-.16-.05-.18v.002zM18.039 13.42c-.398.021-.709-.058-.933-.237a.9.9 0 01-.337-.724c0-.244.072-.447.217-.61a.802.802 0 01.565-.263.478.478 0 01.195.023c.058.019.094.04.108.06a.44.44 0 01-.065.148.62.62 0 00-.054.268c0 .288.152.424.455.408.267-.015.48-.218.64-.61.165-.392.295-.904.389-1.535.1-.631.22-1.566.356-2.803.008-.059.011-.14.011-.243 0-.228-.05-.384-.151-.468-.094-.084-.267-.12-.52-.108l-.064.003c-.072.003-.123-.005-.151-.026-.03-.028-.047-.093-.055-.196 0-.067.015-.123.044-.168a.184.184 0 01.151-.085c.462 0 .887-.009 1.275-.027l2.712-.129c.386-.018.807-.049 1.264-.093.064-.003.11.02.139.07a.243.243 0 01.053.163c-.007.11-.028.178-.064.201a.44.44 0 01-.203.043c-.264.013-.446.091-.546.235-.093.137-.143.352-.15.646v4.368c.007.183.021.332.042.449.029.108.093.2.193.276.1.068.253.096.46.085l.065-.004c.07-.004.12.008.15.036.028.02.046.081.053.184a.316.316 0 01-.054.179c-.028.045-.075.07-.139.073a26.64 26.64 0 00-2.607.143c-.065.004-.115-.015-.15-.057a.341.341 0 01-.044-.175c.007-.11.029-.178.065-.201a.443.443 0 01.204-.045c.208-.011.362-.056.463-.135a.517.517 0 00.182-.297c.03-.119.047-.27.054-.454v-5.19l-1.506.073a.925.925 0 00-.324.06c-.071.032-.133.105-.183.218a1.873 1.873 0 00-.097.49c-.137 1.377-.27 2.458-.4 3.246-.13.787-.33 1.435-.605 1.944-.267.5-.634.764-1.104.79h.001zm-.709-6.795c0-.177-.095-.261-.283-.252l-3.369.16a29.14 29.14 0 01-1.304.028.177.177 0 00-.143.085.307.307 0 00-.044.169c.008.103.026.17.055.198.03.02.08.03.154.026l.065-.003c.213-.01.37.023.472.1a.42.42 0 01.186.28c.016.06.029.13.038.212l.891-.039-.873.342v4.344a2.379 2.379 0 01-.055.459.521.521 0 01-.187.3c-.102.08-.26.125-.471.136a.456.456 0 00-.209.045c-.036.024-.058.092-.065.204 0 .067.014.125.043.176a.166.166 0 00.143.059c.476-.049.914-.084 1.315-.106.43-.024.882-.037 1.355-.041.066-.004.113-.028.142-.075a.315.315 0 00.054-.18c-.007-.104-.029-.165-.065-.186-.03-.027-.076-.04-.142-.036l-.065.003c-.211.012-.368-.017-.47-.085a.504.504 0 01-.196-.278 3.268 3.268 0 01-.044-.454V7.791l1.544-.604-1.544.067V6.95l1.408-.067c.247-.005.436.038.566.128.138.082.24.217.305.406.072.189.138.463.195.822.008.059.047.105.12.138.08.033.163.048.25.043a.3.3 0 00.174-.064.213.213 0 00.087-.17l-.033-1.56zm15.213 5.495c-.028-.028-.077-.04-.147-.036l-.063.004c-.204.01-.354-.018-.452-.085a.497.497 0 01-.19-.273 3.26 3.26 0 01-.042-.445V6.956a3.06 3.06 0 01.042-.438.516.516 0 01.19-.293c.098-.084.248-.131.452-.141a.428.428 0 00.2-.042c.035-.024.055-.09.062-.2 0-.16-.063-.236-.189-.23a5.75 5.75 0 00-.536.047 1.228 1.228 0 00-.41.128 1.798 1.798 0 00-.4.347 9.848 9.848 0 00-.633.794l-3.038 4.114v-.785l2.23-3.138-2.23 2.227V7.164c.007-.183.02-.33.042-.44a.518.518 0 01.191-.294c.1-.085.252-.133.457-.143a.434.434 0 00.201-.042c.036-.024.057-.09.064-.2a.242.242 0 00-.053-.162c-.028-.05-.075-.073-.138-.07a26.217 26.217 0 01-2.584.122.182.182 0 00-.15.084.308.308 0 00-.042.167c.007.102.025.167.053.195.029.02.078.029.15.026l.063-.003c.206-.01.36.023.459.098.099.069.16.16.18.277.029.108.046.253.054.436v3.227l.775-.498-.775 1.04v.585a2.366 2.366 0 01-.054.452.514.514 0 01-.18.295c-.1.079-.253.124-.459.135a.44.44 0 00-.202.044c-.036.024-.057.091-.064.201 0 .154.064.23.192.231a4.73 4.73 0 00.618-.056.913.913 0 00.373-.141c.113-.08.24-.2.383-.36.148-.17.357-.433.627-.79l3.047-4.094v3.854a2.383 2.383 0 01-.052.45.514.514 0 01-.18.294c-.098.078-.25.123-.454.134a.47.47 0 00-.2.043c-.036.024-.057.091-.064.2 0 .066.015.124.043.173.035.042.084.061.148.057a25.312 25.312 0 012.55-.14c.062-.003.108-.027.136-.073a.313.313 0 00.052-.177c-.007-.101-.024-.162-.052-.182h-.001z" fill="#5F3E22"/><path d="M38.866 9.352a1.506 1.506 0 00-.684-.56 2.02 2.02 0 00-.976-.178v-.032c.374-.113.7-.307.976-.58.283-.282.425-.646.425-1.093 0-.252-.052-.48-.155-.685a1.175 1.175 0 00-.426-.489 1.92 1.92 0 00-.633-.24 3.987 3.987 0 00-.926-.043l-1.47.07c-.37.018-.78.026-1.234.026a.177.177 0 00-.147.083.307.307 0 00-.042.165c.007.101.025.166.053.194.028.02.077.029.146.025l.063-.003c.203-.01.352.023.45.098.098.068.157.16.178.274.028.108.045.252.052.433v1.718l-2.244.5 2.244-.033v2.13a2.382 2.382 0 01-.052.448.51.51 0 01-.178.292c-.098.078-.248.123-.45.133a.428.428 0 00-.199.044c-.035.024-.056.09-.063.2 0 .064.014.122.042.171.035.042.084.06.147.057.453-.047.868-.08 1.245-.101l1.251-.058a4.989 4.989 0 001.342-.258c.436-.154.796-.39 1.079-.708.29-.319.435-.723.435-1.213 0-.289-.083-.551-.249-.788zm-3.889-.84l.573-.31V5.897l.73-.035c.812-.039 1.217.372 1.217 1.231 0 .397-.08.694-.239.89-.16.196-.343.32-.551.374-.201.054-.44.088-.719.102l-.254.013-.757.04zm2.551 2.913c-.305.27-.714.422-1.227.457a1.496 1.496 0 01-.47-.029.397.397 0 01-.219-.227c-.041-.12-.062-.304-.062-.55v-2.16l.427-.023c.68-.035 1.176.067 1.488.303.319.237.495.549.53.937 0 .584-.156 1.015-.467 1.292zm43.834-1.967c-.026-.026-.07-.038-.132-.034l-.057.003c-.182.01-.317-.017-.404-.081a.473.473 0 01-.17-.26 3.232 3.232 0 01-.038-.42V4.569a3.08 3.08 0 01.038-.414.489.489 0 01.17-.277c.087-.08.222-.124.404-.133.088-.004.148-.017.18-.04.037-.022.059-.085.065-.188a.24.24 0 00-.047-.152c-.025-.047-.066-.07-.123-.067-.401.04-.778.068-1.13.085l-1.465.07-.198-.002c-.537.026-1.03.18-1.48.464-.45.284-.675.751-.675 1.401 0 .463.158.836.475 1.117.412.324.88.48 1.405.466v.031c-.234.11-.44.265-.616.467a3.88 3.88 0 00-.494.73l-.256.5a6.155 6.155 0 01-.476.855c-.133.18-.292.275-.476.285a.31.31 0 01-.21-.05 1.672 1.672 0 01-.152-.19 1.142 1.142 0 00-.095-.119.107.107 0 00-.086-.036c-.045.002-.08.025-.105.068a.231.231 0 00-.038.137v.041a.67.67 0 00.343.48c.184.093.381.135.59.123.362-.02.66-.116.895-.287a1.84 1.84 0 00.55-.6c.133-.235.288-.55.465-.947a7.96 7.96 0 01.36-.722 1.7 1.7 0 01.417-.466c.17-.126.375-.195.614-.208l.227-.012v1.736c-.006.18-.022.321-.047.426a.545.545 0 01-.17.278c-.088.074-.224.115-.407.125a.406.406 0 00-.18.04c-.03.023-.05.086-.056.19a.34.34 0 00.038.163c.032.04.076.058.132.055a21.877 21.877 0 012.302-.127c.057-.003.098-.025.123-.068a.31.31 0 00.047-.168c-.007-.096-.025-.153-.057-.172zm-1.725-2.86l-.397.02-.12.006a2.907 2.907 0 01-1.215-.186c-.36-.148-.54-.515-.54-1.102 0-.449.136-.8.408-1.055.278-.262.67-.405 1.174-.429.195-.01.34.001.435.031.094.023.16.089.198.197.038.109.057.287.057.535v1.867l.239.102-.239.013zm-24.754 4.303c-.027-.026-.07-.038-.13-.035l-.06.003c-.194.01-.34-.017-.44-.082a.487.487 0 01-.18-.267 3.249 3.249 0 01-.04-.434V8.345l-.485-.157.484-.107v-.003l.199-.04.099-.022v.001l.949-.194-1.247.022V5.864c.007-.178.02-.32.04-.427a.502.502 0 01.18-.285c.1-.083.247-.13.44-.139a.373.373 0 00.18-.04c.04-.023.064-.088.07-.195a.24.24 0 00-.05-.157c-.026-.048-.07-.07-.13-.068a23.95 23.95 0 01-2.445.116c-.054.002-.097.03-.13.08a.26.26 0 00-.05.163c.006.1.023.162.05.19.033.02.083.027.15.024l.06-.003c.195-.01.339.023.432.097a.403.403 0 01.171.269c.027.105.044.246.05.423v1.885l-3.162.16-.443.025.443-.24V6.067c.007-.179.02-.322.04-.43a.507.507 0 01.183-.286c.094-.083.239-.13.434-.138.094-.005.158-.019.191-.042.034-.023.054-.088.061-.195a.24.24 0 00-.05-.157c-.027-.049-.07-.072-.131-.069-.438.042-.859.073-1.263.092a24.65 24.65 0 01-1.196.025.172.172 0 00-.142.081.306.306 0 00-.04.163c.006.1.023.163.05.19.027.02.074.029.142.025l.06-.003c.197-.009.342.023.437.097a.406.406 0 01.172.27 2.1 2.1 0 01.05.426v1.979l-1.732.213 1.733.1v1.955a2.375 2.375 0 01-.051.441.505.505 0 01-.172.288c-.095.076-.24.12-.436.13a.41.41 0 00-.193.043c-.034.024-.054.089-.06.196 0 .065.013.12.04.17.034.04.081.06.142.056a25.3 25.3 0 011.206-.098c.404-.023.822-.035 1.253-.037.06-.004.104-.027.13-.072a.312.312 0 00.051-.173c-.007-.1-.023-.16-.05-.179-.027-.027-.074-.038-.141-.035l-.061.004c-.195.01-.34-.017-.434-.084a.488.488 0 01-.182-.268 3.223 3.223 0 01-.04-.436V8.42l3.162-.164v1.885a2.353 2.353 0 01-.05.44.502.502 0 01-.171.285c-.094.076-.238.12-.432.13a.476.476 0 00-.201.043c-.034.023-.054.088-.06.195 0 .064.016.12.05.168a.15.15 0 00.13.057 24.061 24.061 0 012.446-.134c.06-.004.104-.028.13-.071a.31.31 0 00.05-.173c-.006-.099-.026-.158-.06-.178z" fill="#5F3E22"/><path d="M78.254 19.735L92 18.986l-.22-1.164-.86-.035.822-.17-1.082-5.734-1.136-.046 1.085-.224-.004-.019.007-.043-.015.002-.405-2.148v-.003l-.338-1.791-1.468-.072 1.388-.35-.398-2.108-4.192.157V1.41l-.86-.14.86-.138V0l-33.33 1.034-1.098.752-.013-.717L8.288 2.387v5.725l-5.064.19-.055.267 1.086.044-1.143.236-.528 2.57.654.026-.688.142-1.467 7.142h-.006l-.084.428h.002L.39 22.096l1.28.063-1.363.342-.058.282 1.42.058-1.495.309L0 24l16.427-.895v-1.267l-1.514-.91 1.514-.11v-.92l-2.919-.038 2.919-.197v-.624l-2.154-.091 2.154-.466v-.331l-5.157-.079 5.157-.402v-.24l17.239-.829 1.435-.983.016.913 35.282-1.699 1.773-1.214 1.812 1.042 4.27-.206v.62l.62.172-.62.32v.504l2.797.118-2.797.605v1.05l1.464-.097-1.464.387v.947l3.282.05-3.282.255v.35zm6.93-14.293l3.867.003.162.996-4.029.56V5.442zM15.21 22.315L.33 23.78l.11-.49 7.185-1-6.607.345 2.755-.57-3.03-.123.294-1.317 6.796-.946-6.662.347.207-.924 4.476-.623-4.387.229 1.122-5.011 3.206-.663-3.03-.123.28-1.254 1.884-.39-1.78-.071.164-.73 3.542-.454-3.458.08.087-.392 1.91-.395-1.805-.073.023-.1 4.676-.385v.664l.955-.041-.955.373v8.078l6.922 4.493zm64.175-8.97l-1.13.063-4.505.248-1.35-.755-1.524.913-35.238 1.94-.02-1.118-1.78 1.218-17.411.959-.696.038-6.78.374.048-7.537 1.388-.542-1.384.06.003-.516.004-.604.033-5.066 41.175-1.462.021 1.21 1.866-1.277L84.817.331l.01.732-3.654.338 3.66.092.054 3.756.002.194.023 1.596.003.23.06 4.178-2.826.583 2.836.158.012.849-5.612.309zm.156 5.348l5.643-4.573v-2.05l-1.082-.12 1.082-.337V7.254l3.906-.203-2.807.58 3.145.128.184 1.129-4.264.711 4.351-.176.013.078-2.174.45 2.262.092.258 1.579-3.495.448 3.554-.082.43 2.637-1.701.352 1.771.072.415 2.541-1.803.373 1.876.076.068.418-11.633.236z" fill="#5F3E22"/></svg>