<svg width="1920" height="188" viewBox="0 0 1920 188" fill="none" xmlns="http://www.w3.org/2000/svg"><g clip-path="url(#clip0_2026_37)" fill="#F8F6F3"><path d="M287.558 141.352c3.201-.728 13.406-38.667 19.314-32.116-1.053 7.579 14.739 44.47 22.537 42.8 5.672-1.199 1.01-9.849 1.59-13.339 1.203-7.215 9.303-16.979 13.235-23.295l12.031-27.576c2.062 8.414 5.092 18.798 8.873 26.484 4.361 8.843 20.99 23.167 10.484 32.394 3.309 3.105 11.43-6.487 13.815-9.784 2.664-3.661 8.314-13.424 6.596-16.979l-18.262 8.522c4.232-11.69 21.42-14.966 21.484-27.791l-10.72-1.07c20.281-15.866 19.486-44.492 35.449-63.161 8.078 22.31 14.824 50.036 37.576 62.111.58 3.512-2.9 1.992-5.306 2.12-5.371.257-10.807-.214-16.157 0l23.612 24.601h-15.018c5.264 11.069 13.578 18.819 23.612 25.692l-13.944 1.049-1.074 4.261 27.865 18.52c3.91 1.82 12.139-6.809 13.815-9.913 1.676-3.105-1.225-6.958-.58-9.592 3.222-13.189 9.367-17.321 13.771-26.677 3.287-6.98 6.832-22.717 10.227-27.277 2.943-3.983 10.635-6.445 14.803-14.131 5.886-10.855 11.773-32.094 14.609-44.341 10.42 10.79 10.957 29.097 18.477 42.564 7.928 14.195 9.754 8.885 14.351 26.699.817 3.147 5.243 4.517 5.909 8.971.945 6.273-4.877 10.555-2.858 15.308.988 2.334 12.826 14.902 14.631 15.587 3.33 1.263 10.871-13.81 13.557-16.401-8.637-12.225-1.654-12.717 1.289-20.083 6.059-15.008 9.947-15.18 15.963-26.912 6.015-11.733 11.365-30.232 15.318-43.614l19.336 47.082c5.973 5.588 7.993-21.432 12.827-21.39 1.912 8.008 5.263 21.497 9.109 28.413 4.232 7.622 21.205 21.132 10.27 30.467 6.316 2.376 13.427-7.43 19.314-10.748l-8.572-4.24c8.916-10.084 23.01-18.198 23.59-33.186l-16.114 10.684c-2.32-10.47 14.717-18.37 20.411-26.784l-12.848-5.289C743.823 58.215 749.989.278 763.31 0c5.865 23.038 15.963 46.568 35.449 61.041l-19.314 1.07 21.463 24.601-15.018-1.07c3.373 4.346 15.232 26.677 21.549 22.545l12.805-26.827 10.591 26.484c7.391 8.136 13.278-20.703 20.368-24.579l9.861-23.316c.731 16.957 20.69 35.734 23.225 48.795.838 4.325-1.977 7.579-.666 11.048 1.117 2.933 11.387 12.268 11.816 14.066l-6.359 8.436 7.476 7.472c10.485-6.359 5.092-9.763 5.629-16.079.903-10.77 11.838-22.502 16.608-32.33 3.072-6.316 4.92-13.274 6.789-20.019L938 110.671l15.469 24.151c-1.891-10.813 9.324-13.575 12.697-22.695l13.084-35.092c5.006 11.647 7.434 25.564 13.922 36.44 2.9 4.861 10.658 11.562 11.428 14.345.6 2.184-1.31 4.946-.47 7.087.84 2.141 5.13 3.383 5.22 7.366.06 3.447-4.08 6.294-3.37 9.87 1.54 7.772 13.68 13.189 14.09 1.97l-8.57-1.071c8.29-9.87 24.71-18.948 22.56-33.186-.33 2.697-19.53 13.638-16.12 5.374l21.45-21.475-12.85-5.288c20.28-11.648 21.57-43.078 34.39-62.112 3.25.3 3.31 3.212 4.17 5.46 8.27 21.389 13.95 44.148 34.46 57.722l-19.31 1.092 13.71 14.838 18.49-34.129c1.87 7.986 5.29 21.539 9.11 28.412 4.69 8.414 21.04 20.811 10.29 30.467l6.41 3.212 9.69-27.813 8.59 21.39 7.48-17.107c.15 15.308 13.96 26.955 17.68 39.181 1.31 4.282-2.17 8.842 2.75 12.182l17.16-36.419c4.32 12.033 8.86 22.674 15.95 33.358 1.2 1.819-.22 6.102 4.51 1.991 2.34-2.034-.13-5.01 1.07-7.365 2.39-4.647 9.2-10.235 12.81-17.3 4.42-8.65 7.88-20.319 9.73-29.932l18.24 38.475c8.59-4.711 2.81-9.871 3.5-13.981 2.09-12.847 8.02-16.037 13.06-25.136 5.05-9.1 5.5-19.12 11.39-27.213 3.24 8.5 4.81 19.205 9.22 27.191 4.87 8.843 11.84 11.262 14.61 24.237 1.05 4.946-3.53 6.016-2.5 8.479.91 2.141 7.2 7.664 8.79 10.726l13.9-10.684-10.72-4.282c7.05 3.233 29.76-32.33 22.56-29.996l-16.11 8.543c-3.05-2.997 19.33-21.303 21.46-24.643l-3.33-5.203-9.54.963c20.17-15.544 21.36-42.628 34.4-63.16 3.24-2.249 10.57 24.943 11.84 27.79 5.86 13.296 15.31 28.37 28.93 34.321l-21.44 3.147 21.47 23.595c-2.17 3.447-15.06-5.353-12.85 2.098l18.24 20.383 11.84-32.094 13.96 32.072c14.1 5.653 7.07-11.133 7.87-17.706.7-5.738 6.12-5.845 6.1-7.044-.02-2.163-2.58-4.817-1.87-7.986.3-1.392 12.29-14.045 15.12-19.312 5.74-10.77 9.69-25.886 12.55-37.833l19.61 45.712c10.68 7.322 13.2 19.162 16.91 31.345 5.37-1.007 1.81-5.888 3.25-8.436s4.94-4.239 6.27-6.68c5.41-10.02 10.64-20.426 11.95-31.966l15.29 32.886c13.34 11.99 7.82.45 9.24-5.16 1.31-5.138 8.14-8.671 10.77-12.889 7.79-12.589 12.63-28.368 16.26-42.692 5.5-.857 3.33.492 4.49 2.997 5.93 13.06 9.26 32.972 18.26 43.913 2.19 2.677 7.13 3.961 8.53 6.68 2.02 3.918-3.39 10.213 5.24 12.804V456H287.558V141.352zm0 0c-3.202-.728-13.407-38.667-19.315-32.116 1.053 7.579-14.738 44.47-22.537 42.8-5.672-1.199-1.01-9.849-1.59-13.339-1.203-7.215-9.303-16.979-13.234-23.295L218.85 87.826c-2.062 8.414-5.092 18.798-8.873 26.484-4.361 8.843-20.99 23.167-10.484 32.394-3.309 3.105-11.43-6.487-13.815-9.784-2.664-3.661-8.314-13.424-6.595-16.979l18.261 8.522c-4.232-11.69-21.42-14.966-21.484-27.791l10.721-1.07c-20.282-15.866-19.487-44.492-35.45-63.161-8.078 22.31-14.824 50.036-37.576 62.111-.58 3.512 2.9 1.992 5.307 2.12 5.371.257 10.806-.214 16.156 0l-23.612 24.601h15.018c-5.264 11.069-13.578 18.819-23.611 25.692l13.943 1.049 1.074 4.261-27.865 18.52c-3.91 1.82-12.139-6.809-13.815-9.913-1.675-3.105 1.225-6.958.58-9.592-3.222-13.189-9.367-17.321-13.771-26.677-3.287-6.98-6.832-22.717-10.227-27.277-2.943-3.983-10.635-6.445-14.802-14.131C32.043 76.35 26.156 55.11 23.32 42.864 12.9 53.654 12.363 71.96 4.843 85.428c-7.927 14.195-9.753 8.885-14.351 26.699-.817 3.147-5.242 4.517-5.908 8.971-.946 6.273 4.877 10.555 2.857 15.308-.988 2.334-12.826 14.902-14.63 15.587-3.331 1.263-10.872-13.81-13.558-16.401 8.637-12.225 1.655-12.717-1.289-20.083-6.058-15.008-9.947-15.18-15.963-26.912-6.015-11.733-11.365-30.232-15.318-43.614l-19.336 47.082c-5.973 5.588-7.992-21.432-12.826-21.39-1.912 8.008-5.264 21.497-9.11 28.413-4.232 7.622-21.205 21.132-10.269 30.467-6.317 2.376-13.428-7.43-19.315-10.748l8.572-4.24c-8.916-10.084-23.009-18.198-23.589-33.186l16.113 10.684c2.32-10.47-14.717-18.37-20.41-26.784l12.847-5.289C-168.708 58.215-174.874.278-188.194 0c-5.866 23.038-15.963 46.568-35.45 61.041l19.315 1.07-21.463 24.601 15.017-1.07c-3.373 4.346-15.232 26.677-21.549 22.545l-12.804-26.827-10.592 26.484c-7.391 8.136-13.278-20.703-20.367-24.579l-9.862-23.316c-.73 16.957-20.689 35.734-23.225 48.795-.837 4.325 1.977 7.579.666 11.048-1.117 2.933-11.386 12.268-11.816 14.066l6.359 8.436-7.476 7.472c-10.485-6.359-5.092-9.763-5.629-16.079-.902-10.77-11.838-22.502-16.608-32.33-3.072-6.316-4.92-13.274-6.789-20.019l-12.418 29.333-15.469 24.151c1.891-10.813-9.324-13.575-12.697-22.695l-13.084-35.092c-5.006 11.647-7.434 25.564-13.922 36.44-2.9 4.861-10.656 11.562-11.43 14.345-.601 2.184 1.311 4.946.473 7.087s-5.135 3.383-5.221 7.366c-.064 3.447 4.082 6.294 3.373 9.87-1.547 7.772-13.685 13.189-14.093 1.97l8.572-1.071c-8.293-9.87-24.707-18.948-22.559-33.186.322 2.697 19.53 13.638 16.114 5.374l-21.442-21.475 12.848-5.288c-20.282-11.648-21.571-43.078-34.397-62.112-3.244.3-3.309 3.212-4.168 5.46-8.271 21.389-13.943 44.148-34.461 57.722l19.315 1.092-13.708 14.838-18.498-34.129c-1.869 7.986-5.285 21.539-9.109 28.412-4.684 8.414-21.033 20.811-10.291 30.467l-6.402 3.212-9.69-27.813-8.594 21.39-7.476-17.107c-.151 15.308-13.965 26.955-17.682 39.181-1.311 4.282 2.17 8.842-2.75 12.182l-17.166-36.419c-4.319 12.033-8.852 22.674-15.942 33.358-1.203 1.819.215 6.102-4.511 1.991-2.342-2.034.129-5.01-1.075-7.365-2.384-4.647-9.195-10.235-12.804-17.3-4.426-8.65-7.885-20.319-9.733-29.932l-18.24 38.475c-8.594-4.711-2.815-9.871-3.502-13.981-2.084-12.847-8.014-16.037-13.063-25.136-5.049-9.1-5.5-19.12-11.386-27.213-3.245 8.5-4.813 19.205-9.217 27.191-4.877 8.843-11.838 11.262-14.61 24.237-1.052 4.946 3.524 6.016 2.492 8.479-.902 2.141-7.197 7.664-8.787 10.726l-13.9-10.684 10.721-4.282c-7.047 3.233-29.756-32.33-22.559-29.996l16.113 8.543c3.051-2.997-19.336-21.303-21.463-24.643l3.33-5.203 9.54.963c-20.174-15.544-21.356-42.628-34.397-63.16-3.244-2.249-10.57 24.943-11.838 27.79-5.865 13.296-15.319 28.37-28.94 34.321l21.442 3.147-21.463 23.595c2.17 3.447 15.061-5.353 12.848 2.098l-18.241 20.383-11.838-32.094-13.965 32.072c-14.093 5.653-7.068-11.133-7.863-17.706-.709-5.738-6.123-5.845-6.101-7.044.021-2.163 2.578-4.817 1.869-7.986-.301-1.392-12.289-14.045-15.126-19.312-5.736-10.77-9.689-25.886-12.546-37.833l-19.616 45.712c-10.677 7.322-13.191 19.162-16.908 31.345-5.371-1.007-1.805-5.888-3.244-8.436-1.44-2.548-4.942-4.239-6.274-6.68-5.414-10.02-10.634-20.426-11.945-31.966l-15.297 32.886c-13.342 11.99-7.82.45-9.238-5.16-1.311-5.138-8.144-8.671-10.764-12.889-7.8-12.589-12.63-28.368-16.26-42.692-5.5-.857-3.33.492-4.49 2.997-5.93 13.06-9.26 32.972-18.27 43.913-2.19 2.677-7.13 3.961-8.52 6.68-2.02 3.918 3.39 10.213-5.25 12.804V456H287.558V141.352z"/><path d="M1632.44 141.352c3.2-.728 13.41-38.667 19.32-32.116-1.06 7.579 14.74 44.47 22.53 42.8 5.68-1.199 1.01-9.849 1.59-13.339 1.21-7.215 9.31-16.979 13.24-23.295l12.03-27.576c2.06 8.414 5.09 18.798 8.87 26.484 4.36 8.843 20.99 23.167 10.49 32.394 3.31 3.105 11.43-6.487 13.81-9.784 2.67-3.661 8.32-13.424 6.6-16.979l-18.26 8.522c4.23-11.69 21.42-14.966 21.48-27.791l-10.72-1.07c20.28-15.866 19.49-44.492 35.45-63.161 8.08 22.31 14.82 50.036 37.58 62.111.58 3.512-2.91 1.992-5.31 2.12-5.37.257-10.81-.214-16.16 0l23.61 24.601h-15.01c5.26 11.069 13.57 18.819 23.61 25.692l-13.95 1.049-1.07 4.261 27.87 18.52c3.91 1.82 12.13-6.809 13.81-9.913 1.68-3.105-1.23-6.958-.58-9.592 3.22-13.189 9.37-17.321 13.77-26.677 3.29-6.98 6.83-22.717 10.23-27.277 2.94-3.983 10.63-6.445 14.8-14.131 5.89-10.855 11.77-32.094 14.61-44.341 10.42 10.79 10.96 29.097 18.48 42.564 7.92 14.195 9.75 8.885 14.35 26.699.81 3.147 5.24 4.517 5.91 8.971.94 6.273-4.88 10.555-2.86 15.308.99 2.334 12.83 14.902 14.63 15.587 3.33 1.263 10.87-13.81 13.56-16.401-8.64-12.225-1.66-12.717 1.29-20.083 6.05-15.008 9.94-15.18 15.96-26.912 6.01-11.733 11.36-30.232 15.32-43.614l19.33 47.082c5.98 5.588 8-21.432 12.83-21.39 1.91 8.008 5.26 21.497 9.11 28.413 4.23 7.622 21.2 21.132 10.27 30.467 6.31 2.376 13.43-7.43 19.31-10.748l-8.57-4.24c8.92-10.084 23.01-18.198 23.59-33.186l-16.11 10.684c-2.32-10.47 14.71-18.37 20.41-26.784l-12.85-5.289C2088.71 58.215 2094.87.278 2108.19 0c5.87 23.038 15.97 46.568 35.45 61.041l-19.31 1.07 21.46 24.601-15.02-1.07c3.38 4.346 15.24 26.677 21.55 22.545l12.81-26.827 10.59 26.484c7.39 8.136 13.28-20.703 20.37-24.579l9.86-23.316c.73 16.957 20.69 35.734 23.22 48.795.84 4.325-1.97 7.579-.66 11.048 1.11 2.933 11.38 12.268 11.81 14.066l-6.36 8.436 7.48 7.472c10.49-6.359 5.09-9.763 5.63-16.079.9-10.77 11.84-22.502 16.61-32.33 3.07-6.316 4.92-13.274 6.79-20.019l12.41 29.333 15.47 24.151c-1.89-10.813 9.33-13.575 12.7-22.695l13.08-35.092c5.01 11.647 7.44 25.564 13.93 36.44 2.9 4.861 10.65 11.562 11.43 14.345.6 2.184-1.31 4.946-.48 7.087.84 2.141 5.14 3.383 5.22 7.366.07 3.447-4.08 6.294-3.37 9.87 1.55 7.772 13.69 13.189 14.1 1.97l-8.58-1.071c8.3-9.87 24.71-18.948 22.56-33.186-.32 2.697-19.53 13.638-16.11 5.374l21.44-21.475-12.85-5.288c20.28-11.648 21.57-43.078 34.4-62.112 3.24.3 3.31 3.212 4.17 5.46 8.27 21.389 13.94 44.148 34.46 57.722l-19.32 1.092 13.71 14.838 18.5-34.129c1.87 7.986 5.28 21.539 9.11 28.412 4.68 8.414 21.03 20.811 10.29 30.467l6.4 3.212 9.69-27.813 8.59 21.39 7.48-17.107c.15 15.308 13.97 26.955 17.68 39.181 1.31 4.282-2.17 8.842 2.75 12.182l17.17-36.419c4.32 12.033 8.85 22.674 15.94 33.358 1.2 1.819-.21 6.102 4.51 1.991 2.34-2.034-.13-5.01 1.08-7.365 2.38-4.647 9.19-10.235 12.8-17.3 4.43-8.65 7.89-20.319 9.73-29.932l18.24 38.475c8.6-4.711 2.82-9.871 3.51-13.981 2.08-12.847 8.01-16.037 13.06-25.136 5.05-9.1 5.5-19.12 11.39-27.213 3.24 8.5 4.81 19.205 9.21 27.191 4.88 8.843 11.84 11.262 14.61 24.237 1.05 4.946-3.52 6.016-2.49 8.479.9 2.141 7.2 7.664 8.79 10.726l13.9-10.684-10.72-4.282c7.04 3.233 29.75-32.33 22.55-29.996l-16.11 8.543c-3.05-2.997 19.34-21.303 21.46-24.643l-3.33-5.203-9.53.963c20.17-15.544 21.35-42.628 34.39-63.16 3.25-2.249 10.57 24.943 11.84 27.79 5.87 13.296 15.32 28.37 28.94 34.321l-21.44 3.147 21.46 23.595c-2.17 3.447-15.06-5.353-12.85 2.098l18.24 20.383 11.84-32.094 13.97 32.072c14.09 5.653 7.07-11.133 7.86-17.706.71-5.738 6.12-5.845 6.1-7.044-.02-2.163-2.58-4.817-1.87-7.986.3-1.392 12.29-14.045 15.13-19.312 5.73-10.77 9.69-25.886 12.54-37.833l19.62 45.712c10.68 7.322 13.19 19.162 16.91 31.345 5.37-1.007 1.8-5.888 3.24-8.436 1.44-2.548 4.94-4.239 6.28-6.68 5.41-10.02 10.63-20.426 11.94-31.966l15.3 32.886c13.34 11.99 7.82.45 9.24-5.16 1.31-5.138 8.14-8.671 10.76-12.889 7.8-12.589 12.63-28.368 16.26-42.692 5.5-.857 3.33.492 4.49 2.997 5.93 13.06 9.26 32.972 18.27 43.913 2.19 2.677 7.13 3.961 8.52 6.68 2.02 3.918-3.39 10.213 5.25 12.804V456H1632.44V141.352z"/></g><defs><clipPath id="clip0_2026_37"><path fill="#fff" d="M0 0h1920v188H0z"/></clipPath></defs></svg>