<svg width="336" height="407" viewBox="0 0 336 407" fill="none" xmlns="http://www.w3.org/2000/svg"><path d="M98.524 121.618c-19.506-4.66-33.868-11.169-51.968-16.408-2.403-.692-4.651.89-6.984.156-3.443-1.088-8.137-7.413-12.704-7.78-.14-1.992-.66-3.418 1.967-2.683 5.664 1.581 14.376 7.06 20.546 9.036 7.434 2.387 15.331 5.211 21.051-2.075l-8.502-.65-13.969-4.998 23.876 4.208-12.633-5.648c-.352-2.5 3.148-1.384 4.58-1.073 3.697.804 7.322 2.612 10.864 3.91C70.235 83.777 51.32 86.149 39.53 84.92c2.838 4.109 10.3 4.052 14.741 5.648 2.29 1.948-1.504 1.454-2.642 1.27-8.361-1.383-15.065-4.941-22.625-8.344l3.5 4.236L.166 89.128c-.688-3.926.83-2.373 3.078-3.177 5.326-1.907 11.172-2.358 16.582-3.897L4.37 69.388c9.907 2.23 17.229 11.663 28.106 9.856l-4.905-4.236 18.241 4.264-.702-2.824 5.635 1.384L28.26 63.698l.717-2.824 13.322 4.25-32.294-23.976 25.282 9.884-4.188 2.782L56.38 70.758 46.543 59.49l8.432 4.208c-3.317-4.702 4.342-15.885 4.075-17.453-.31-1.835-5.565-3.967-4.061-7.95 4.216-1.227 3.415 6.877 7.054 3.573 3.008-2.725 2.881-10.97 2.783-14.868 6.59 3.968.632 12.934.28 18.031-.463 6.608 18.705 22.634 23.596 28.565V37.604c0-.24 1.897-2.217 2.796-2.118 1.926 1.963 2.263 33.224 2.825 38.83 1.054 10.35 7.153 10.25 14.039 16.238l-3.513-43.758c8.614 7.752 10.23 17.057 12.212 27.972l9.57 1.666c1.995-2.16-5.116-13.908 1.405-12.708 1.349 15.927 3.063 36.415 15.458 47.316-3.443 2.315-9.907-6.863-12.633-2.147 17.524 8.684 33.319 21.435 47.077 35.314 2.473-3.868-2.853-6.735-4.919-9.178.45-2.132 5.312 3.064 4.188-1.369-1.841-7.187-8.193-14.431-9.823-21.914-2.487-.043-2.459 4.08-2.192 5.676.815 4.956 4.314 10.886 6.422 15.475-1.813 1.737-7.56-5.549-8.432-7.045 1.659.395 3.556.494 2.6-1.878-3.682-16.394-11.045-28.805-26.476-36.246-1.939 1.948 6.254 7.554 6.999 9.192 1.995 4.433-5.495-1.567-4.188 2.781.492 1.652 5.326 11.48 6.422 13.33.661 1.101 2.656 4.221 4.118 1.553l1.377-7.074c5.466 4.193 6 12.962 9.148 18.342-1.208-.283-18.395-11.649-18.943-12.638-.59-1.059.843-3.615.084-5.676-3.766-10.195-10.75-20.305-13.448-31.092l30.888 26.828c3.359-8.853 4.019-18.808 6.83-27.732.59-1.878.478-4.292 3.007-4.73l-2.796 37.291 9.865 16.365c3.625 2.57 1.602-11.819 1.25-13.273-1.756-7.201-7.757-13.725-6.872-22.027l13.337 18.328 3.499-4.208c-.408 5.224-3.485 9.658-3.724 15.094-.056 1.327.197 4.97 2.319 4.66-.338-7.696 4.272-14.869 5.635-21.886.829-4.293-4.005 1.553-2.783-2.782 1.504-5.309 6.127-15.066 9.795-19.104 1.743 10.124-9.275 25.67-8.403 34.467.618 6.283 12.422 23.509 15.683 30.95 2.304 5.253 5.073 12.017 6.45 17.523.984 3.94-1.124 11.099 3.865 13.075 2.979 1.172 1.953-1.779 1.784-3.205-.773-6.58-5.256-13.823-5.312-20.784 5.003 4.532 7.294 12.016 11.917 16.958 1.686 1.807 2.431 2.372 2.108-.706l-11.214-19.091 15.43 21.166-4.188-10.604 4.188 2.132c-1.012-5.097 1.447-10.095 1.532-14.812.126-7.638-4.315-11.874-4.329-19.061l6.999 9.869 2.838-32.461 2.783 10.59 2.136 34.565 10.498 12.722c1.25-7.342 2.852-15.306 7.04-21.165-2.009 8.133-8.881 22.464-2.094 28.239l4.891-31.049c-1.279-.226-1.982 1.68-2.797 2.824 1.588-6.467 3.246-14.826 5.2-20.898.59-1.821.969-4.137 3.218-4.518l-8.446 57.101c.787 5.182 13.238 8.994 16.878 13.498l2.81-18.341c-1.504 21.321-2.895 41.244 2.839 62.113l1.461-78.323-1.475-2.866-1.377 4.927c.449-4.546-1.729-12.679 2.782-15.517 3.963 16.435-1.124 36.697 1.757 52.61 1.433 7.936 13.378 15.193 15.865 25.007 3.373 13.343-3.021 22.676 9.079 34.65 9.963 9.856 23.777 17.269 32.392 28.254.787 3.982-3.837 19.754-7.772 20.093-9.246-2.372-17.271-19.09-27.459-15.998-3.836 1.172-6.816 6.255-11.2 6.453 2.6-4.251 7.574-8.204 12.647-8.472.127-2.528.675-2.98-2.122-2.853-6.984.339-20.742 10.534-21.754 18.385l8.418-4.222-2.192 5.662c5.059 4.532 11.003 7.865 16.414 11.875 1.588 1.172 3.499-.015 2.656 3.628-7.701-.607-14.924-5.026-21.066-8.472 3.584.142 4.568 1.511 6.999 2.133 1.433.367 4.469 2.033 4.23-.706-7.772-3.29-11.945-9.164-21.052-9.898v5.619c5.017-.988 6.69 1.102 9.823 2.852-10.877-.423-2.627 18.54-1.405 25.402-9.289-3.516-8.418-18.553-8.446-26.814-2.122-.197-2.234 3.46-2.684 5.041-1.026 3.587-3.963 15.405-3.71 18.314.464 5.337 11.538 13.71 12.465 20.05 3.541-1.13 8.994 9.023 7.982 10.251-4.412-4.857-10.75-7.738-15.5-11.945-1.869-1.666-4.75-7.47-6.296-7.809-4.947-1.087-5.199 17.227-11.917 16.944 0-7.794 4.174-16.915 2.727-24.653-1.054-5.676-9.275-12.51-9.781-19.118l-12.479 10.561c5.438 8.5 7.673 19.867 12.254 28.508 3.091 5.832 8.952 10.181 10.076 16.676-1.124 5.662-9.894-6.312-11.243-7.046l6.324 3.53c.9-3.431-4.469-7.625-6.577-11.748-4.693-9.234-7.715-19.895-12.422-29.186-6.338 4.519 3.302 15.038 2.81 21.166l-7.026-16.944c-2.15-2.315-5.439 6.834-5.495 7.738-.267 4.575 6.914 13.908 6.914 18.384v23.298l-5.607-9.206 4.188-.678c1.532-10.689-3.415-18.822-7.027-28.226-5.466 2.203-4.258 7.78-4.216 12.694-2.923.551.31-5.718-3.485-4.222-1.531.608-14.811 19.627-17.58 16.93 1.124-5.394 6.914-9.291 9.598-13.64 3.738-6.015 6.942-12.919 5.832-20.248-5.171 1.412-7.94 1.977-10.525 7.06l-.703-4.25c-.45-.508-4.792 1.003-5.298 1.751-.604.89-6.394 18.059-7.041 20.474-.295 1.101-.913 4.744 1.097 2.485l5.607-9.164c-1.49 12.652 3.19 24.286 4.216 36.712-7.73-4.787-7.027-15.899-8.432-24.004l-8.418 5.634c2.502-6.495 4.357-11.621.703-18.342-8.811 4.448-6.057 43.588-7.743 45.184h-4.202c-.366-11.55-3.246-24.371 0-35.78.407-1.426 1.363-.861 1.391-.946.422 8.656-.351 17.452 0 26.136.07 1.709-1.068 5.253 1.391 4.914 1.349-9.305.267-21.138 1.757-30.005 1.251-7.385 8.671-14.995 9.528-22.917l-6.802 8.698c-1.082 4.617-4.525 9.828-5.86 13.174-.056-1.285.675-3.897-.703-4.236-1.981 2.782-8.726 8.853-9.823 11.31-1.349 3.022-.534 7.201-1.7 11-3.485 11.239-10.174 21.278-13.097 32.744-4.188 1.129-2.895-3.488-2.853-6.397.098-5.845 2.206-10.547 2.881-16.181 2.529-.339 1.279 3.078 1.04 4.575-.647 4.08-2.965 8.006-2.446 12.355.324.437 1.673-.72 2.108-1.398 2.516-3.911 10.92-25.698 11.833-30.598.393-2.09-1.138-4.603-.548-6.213 1.363-3.77 14.446-12.792 13.28-19.683-7.701 9.969-17.06 18.158-27.403 25.402-2.361-1.511.59-3.093 1.433-4.208 4.624-6.072 9.542-12.087 14.728-17.678.224-1.045-1.462-.96-2.08-.692-1.251.565-13.716 13.386-15.501 15.504-.871 1.03-10.708 13.894-7.012 12.722l5.635-4.222 1.377 2.824 6.338-2.132c-3.288 4.08-9.738 3.459-13.392 6.311-3.654 2.853-6.633 11.692-9.795 15.575-1.841-.918-.155-3.855.436-5.211.463-1.059 8.277-12.821 2.136-9.149-5.186 3.106-5.875 7.483-9.585 11.564-5.312 5.831-11.734 12.496-18.268 16.944-1.504-5.987 9.008-13.81 10.511-17.678 1.349-3.46-3.597-1.554-4.216-2.104 2.221-2.542-.084-5.987.295-7.625.239-1.045 9.079-7.625 9.556-10.703-4.904 2.302-12.057 6.538-16.188 9.842-8.053 6.424-16.555 15.927-25.928 21.956-1.87 1.2-2.783 2.796-5.663 2.062l22.47-23.298c.422-1.935-.098-2.669-2.066-2.076-3.892 1.172-15.514 10.985-19 8.43 11.482-12.44 28.514-18.229 43.565-25.43l-1.433-4.194-37.901 8.458c-.731-3.77.8-2.457 2.81-3.445 5.186-2.556 10.006-3.573 15.445-5.013-1.139.819-3.036 1.525-2.797 2.81l26.686-7.032c-8.122-.48-16.104 2.161-23.889 4.222 7.982-5.761 20.067-6.424 29.932-7.342 9.036-4.589-1.335-7.681-6.492-9.842-3.022-1.271-6.029-2.541-9.388-2.584 6.957-7.512 18.452-.183 25.97 3.714l14.77-5.126c-5.396-6.848-13.196.664-19.66 1.426-1.644-4.151 11.383-6.692 8.418-9.855-2.6-2.768-13.857 1.172-12.648-4.25h23.89c-1.307 2.979-5.073 4.024-7.518 5.859-1.293.975-4.399 2.867-.239 2.584l21.81-12.665c-2.136.918-23.778-3.488-19.66-7.06 5.663-1.469 13.856 1.595 18.648 1.115 7.153-.72 21.093-11.197 30.523-9.601-.309-2.867-5.284-2.669-7.293-2.499-11.397.96-23.736 7.088-34.852 9.573-.787-4.307 1.321-2.161 3.317-2.951 8.488-3.333 15.05-8.063 23.37-11.183-5.2-7.851-19.351 3.149-28.092 1.426 1.293-7.583 15.233-1.751 12.648-12.68 9.57 3.954 17.861 10.378 27.754 13.753 3.289 1.115 9.092 4.787 11.566 1.059-.028-.932-13.716-4.942-16.372-6.114-11.818-5.168-22.091-13.95-35.596-12.962 5.157-8.627 14.868 2.753 20.377 2.739 4.047 0 12.268-6.382 17.552-5.535l-12.634 5.662c-1.054 4.702 3.204 1.977 5.959 3.135 2.08.861 4.019 3.29 5.944 3.375 1.054.042 19.491-3.573 20.728-4.081 2.881-1.172 4.455-4.024 6.661-5.987-4.005-5.14-9.387.593-14.025.692l4.216-2.838-4.202-4.194c3.598-.621 18.143 6.199 19.646 2.09 1.012-2.767-2.332-2.316-3.878-3.078-2.797-1.384-21.08-9.771-22.288-9.898-1.335-.141-5.059.649-6.127 1.694l12.633 7.794c-.744 2.81-3.007 3.163-5.621 2.796l1.251-2.612c-10.427-7.907-16.681-7.907-29.343-5.86l9.837-6.34-18.24-11.296c2.136-3.233 2.67-1.157 4.946-.79 6.549 1.087 18.297 6.636 22.682 6.777 1.7.057 8.136-3.035 11.706-3.883L182.8 262.873c12.676-.522 23.398-4.179 32.308-13.4-2.473-1.27-7.139.071-9.823.72l1.405-2.809-10.427.042-.815-1.469c3.471.184 7.04-.324 10.511.029 7.111.706 31.732 7.85 35.864 12.679-3.275-1.2-21.965-8.02-23.188-7.907-.688.071-10.174 6.397-11.565 7.512-1.125.89-2.6-.042-1.771 3.205 4.047.904 8.319 4.632 12.282 5.352 2.488.452 21.052-.72 23.258-1.384 1.574-.466 2.712-1.963 3.682-3.234-1.082-1.016-1.743-2.428-2.684-3.529 10.469 3.854 24.269 14.981 33.727 4.25-18.817 1.369-33.151-13.231-50.577-17.679-13.167-3.36-27.389-4.334-40.753-2.089l11.242 2.81c-6.057-.311-13.224.734-19 0-1.953-.255-4.103-.777-2.079-2.81 15.177-6.693 30.705-3.149 46.374-4.279-4.398-8.726-16.596-3.134-24.522-2.753-5.621.282-8.53.155-13.421-1.468 8.994.494 17.075-2.09 26.026-1.398l2.08-2.81c-3.021-3.135-26.349 3.713-32.307 1.398-.492 1.059 3.625 2.612 4.201 2.81-2.346-.128-4.82.578-7.054-.678-2.136-1.215-.773-2.909.913-3.361 7.097-1.878 19.211 1.116 27.207-3.036-5.903-7.271-9.922-7.187-18.227-4.885-12.352 3.417-25.141 11.917-37.971 14.769 4.595-5.535 10.947-10.59 18.283-9.022l25.281-10.717c-8.249-3.262-14.966 3.911-22.471 5.619l15.459-8.471c2.009-2.726-7.828-7.498-9.135-9.814l-13.35 11.226 15.444-17.65c.028-1.158-2.853-.946-3.471-.749-.857.269-9.275 12.158-11.256 14.191-5.144 5.295-10.638 9.968-16.175 14.812l2.796 2.089-7.012 1.412 29.511-33.859-24.354-4.109c-1.742.551-10.525 16.901-13.786 20.135-1.855 1.835-2.079 2.993-5.424 2.301l12.634-23.297-2.797-2.09 47.794 5.62.675-2.796 11.959 9.856c-8.039-2.683-15.613-8.896-21.08 1.411 5.874-.833 10.062 6.227 14.854 7.046 5.256.904 10.652-2.273 16.063-1.398l-4.202-4.207c3.513-.424 5.958 2.019 9.205 2.725.534.113 7.672 1.158 5.55-1.342-9.752-6.749-20.868-10.985-31.169-16.689-3.71-2.062-10.006-7.583-12.423-8.698-.604-.283-2.304-.353-2.08.692l5.608 6.354c-4.54.254-5.832-5.705-9.416-6.764-4.989-1.468-11.074 1.285-15.866-1.708l-1.419 8.472 11.228 1.412c-6.478 1.158-12.802-1.469-18.943-1.511-7.055-.042-17.454 4.73-21.81-1.285 6.914-1.878 12.675-1.68 19.604-.071l2.909-7.681-23.905-7.201-22.484 12.115c.084-7.625 16.653-12.143 18.255-16.238l-2.797-2.104 8.418-2.132c-5.453-3.149-10.624-2.711-15.444-6.34 10.272.127 19.266 8.458 29.525.706-9.964-3.728-29.315-23.425-33.629-4.419.098.338 3.317 3.12 4.104 3.713-1.406-.014-2.825 0-4.23 0l1.433 2.81c-6.69-1.539-4.525 7.484-9.837 9.898l4.047-11.861-4.061-2.259c-.815.89-2.586 17.142-3.443 19.839-1.321 4.207-8.685 9.05-7.8 6.283 3.219-4.434 11.622-26.574 9.163-30.4-1.532-2.386-2.768-.89-4.553-.268-6.83 2.358-13.14 7.921-20.082 10.18 3.528-10.548 21.684-13.95 26.335-18.709 1.251-1.285 1.898-3.869 4.582-6.693-.197 1.328.112 2.867 0 4.236 2.614-1.313 5.41-2.273 7.602-4.349 1.04-.988 11.678-13.851 12.044-14.727 2.192-5.139-8.91 2.711-9.823 3.544.604-2.457-1.012-2.824-2.094-4.25-3.485-4.546-25.225-25.472-29.525-26.814-1.392 4.053 5.129 8.741 7.785 11.988.998 1.229 1.026 3.149 1.349 3.53-.59-1.242-4.328-1.398-5.944-1.172-1.532.212-7.715 1.935-8.095 3.968 3.584 2.782 17.735 4.97 14.039-2.81 3.541 4.166 9.514 7.343 12.648 12.708l.028-.07zM61.986 49.606c-3.654-.678-2.473.692-3.443 2.81-2.656 5.76-2.95 10.915-.745 16.944l4.188-19.754zm11.242 26.828c-3.428-1.935-7.026-3.36-9.837-6.354l12.648 2.104c-3.822-3.502-14.994-27.562-15.36-10.364-.309 14.967 8.924 12.651 16.765 21.674-11.003-5.097-21.346-12.525-33.713-14.092L58.22 79.653c9.5-1.059 8.586 2.711 14.545 6.453 3.134 1.963 18.873 10.675 21.543 8.698-3.527-9.672-15.515-10.943-21.08-18.342 5.06 2.852 17.525 8.274 21.08 12.087 1.616 1.736.365 3.854 1.265 5.252 1.124 1.751 5.199 2.852 6.464 5.253l2.782-4.222 17.567 16.93c-7.617-20.516-30.298-29.44-48.497-38.11-3.415-.607-1.686 1.469-.675 2.81l.014-.028zm12.648-.014c1.096-1.06-14.826-17.947-16.85-19.754 0 3.46 14.574 21.956 16.85 19.754zm29.511 18.356c1.448-6.933-1.56-13.047-2.318-19.26-.647-5.168 2.136-14.233-4.68-18.864l2.796 34.594 4.202 3.53zM59.176 83.508c-9.74-2.626-19.38-3.46-29.498-2.824 0 2.372 4.68 2.697 6.31 2.81 6.268.48 12.1.381 18.69 1.002 1.56.142 4.779 1.666 4.498-.988zm61.565-2.528c-1.194-.706-2.656-.197-3.934-.324l.632 18.426 17.622 6.99c.591-.579-3.808-13.71-5.002-15.434-1.588-2.301-4.778-3.727-7.041-5.69-1.152-.988-1.785-3.685-2.277-3.968zm42.44 30.754c5.593-5.098 5.706-15.476 5.593-22.578l-6.408 15.461.815 7.131v-.014zm-81.52-5.662c-2.811-7.456-12.648-2.076-15.459 2.823l15.458-2.823zm30.916 14.119c1.405-1.496-7.294-13.075-9.823-14.105-1.139 3.05 7.167 16.944 9.823 14.105zm29.497 2.839c-1.223-9.065-11.833-12.115-18.241-16.944-.745 3.417.562 3.586 2.291 5.45 1.574 1.68 14.91 12.609 15.95 11.494zm71.67 46.581l-9.135-28.211-13.322-22.606c1.054 9.516 8.558 17.452 12.437 26.319 2.501 5.719 3.443 11.437 5.551 17.015.717 1.892 2.53 6.819 4.469 7.497v-.014zm-42.145-1.384c1.448-1.073 12.915 8.049 15.472 9.178 2.558 1.13 2.572.41 4.174-1.426-20.742-15.165-38.421-33.761-55.607-52.822-1.42-1.568-2.08-3.544-4.778-2.951 5.045 15.531 17.622 26.347 28.091 38.095-13.856-.113-30.284 1.285-40.753 11.296 8.558-1.652 16.175-6.905 24.958-8.091 7.125-.96 13.322 1.553 19.112-1.609l3.71 3.374-7.013.706c.928 6.933 7.505 7.823 13.337 7.06l-.717-2.81h.014zm67.454-16.958c-.941-1.242-1.433-3.021-2.796-2.81l1.405 35.286c1.925.339 2.122-2.513 2.417-3.883 2.712-12.609 1.237-16.831-1.026-28.579 5.368 7.032 16.175 24.23 18.269 32.476-1.18-.918-2.572-1.581-3.513-2.81-1.167 3.234.351 9.15 1.447 12.666.464 1.468 1.588 5.704 3.471 5.676.464-5.549-.028-10.18-1.391-15.518 6.127 4.815 8.741 13.668 12.844 20.277.886 1.44 2.909 4.348 2.586.225-6.408-10.759-10.455-24.794-16.807-35.37-4.258-7.102-14.559-16.351-16.878-23.99-.225-.734-.393-2.301.675-2.075l3.499 2.81-1.405-22.578c-2.446-.339-1.335 3.205-1.392 4.914-.126 3.741.267 7.497-.056 11.239-.393 4.603-3.021 3.346-1.349 12.073v-.029zm-37.943 15.532c-.66-.48-6.591-3.163-7.012-2.824-3.823 3.135 8.08 3.149 5.607 7.046l-9.823-.706c3.274 4.151 7.434 5.521 12.648 4.956l-.816 4.307 7.828 4.151c1.166-1.228-6.338-9.446-7.336-11.748-.871-2.005-.702-4.349-1.082-5.196 4.427 3.262 12.493 19.316 18.691 24.978 2.389 2.175 8.052 3.389 10.118 7.484 1.04.226.955-1.483.688-2.09-3.653-8.048-19.393-19.231-23.06-29.087l-23.3-43.645c3.148 14.939 10.553 28.607 16.849 42.346v.028zm-68.845-39.536c-4.989.438-9.739-2.061-14.756-1.454-1.925.24-4.328 1.045-2.122 2.852 4.961.156 9.697 2.118 14.77 1.441 1.897-.255 4.455-1.059 2.094-2.839h.014zm71.642 25.402c-1.968-9.347-8.362-19.217-14.025-26.813l4.876 12.736 9.149 14.077zm-22.457.014c4.778-4.222 3.837-18.765.675-23.989-2.01 8.02-2.544 15.885-.675 23.989zm-47.794-15.546c-2.867-6.17-7.982-6.17-14.053-5.619 2.867 4.532 9.078 6.085 14.053 5.619zm6.675 3.191c-1.475-1.03-22.288-3.177-25.421-3.078-3.134.099-9.332 1.963-12.564 3.036-2.46.819-7.996 3.106-9.43 5.323 16.499-1.807 32.646-3.473 49.186-1.412.169-.127-1.588-3.756-1.771-3.869zm4.567 16.577c-6.661-4.998-13.547-12.821-22.484-11.268 5.059 6.185 14.292 11.748 22.484 11.268zm33.362-9.503c-.253-.338-4.862-3.459-3.822.311l4.188 7.78c-4.582.749-1.841-6.41-6.985-.692l11.214 4.928c-2.838-3.318-2.389-9.404-4.581-12.327h-.014zm-27.74 16.591c-2.052-.141-4.076-.042-6.127.17-2.052.212-8.545.734-9.303 2.626l12.521 4.208 2.923-7.004h-.014zm5.621 0c-2.108-2.555-3.036 1.85-3.513 2.754-2.122 3.967-13.154 25.656-2.797 18.426-1.152-4.01 7.027-20.318 6.324-21.166l-.014-.014zm95.546 16.93c.899-6.679-3.148-13.131-8.404-16.944-1.237 7.088 2.6 13.174 8.404 16.944zm-105.383-8.458c-7.041-1.609-12.24-7.046-19.674-4.236-.745 4.039 1.11 2.26 3.077 3.191 3.724 1.765 16.92 8.727 16.597 1.059v-.014zm126.462 50.818c.618-2.655-1.461-3.361-2.796-4.942-10.034-12.002-23.876-18.638-33.039-28.932-6.31-7.088-8.642-17.17-16.133-22.606 1.673 6.425 3.991 14.233 7.8 19.683 2.67 3.813 16.624 15.476 17.06 17.707.042.197-1.096 3.798-1.686 3.558l-14.756-16.93 6.914 12.172-2.698 2.64 18.269 6.34-4.202-4.928 2.08-.692 23.187 16.93zm-19.674-29.652c-.759-7.427-4.89-14.318-11.214-18.356-1.968 8.896 5.27 13.344 11.214 18.356zm-57.603-15.518c-4.89-.437-8.249 2.994-11.214 6.34l4.834 3.53 6.38-9.87zm9.837 12.68c-.112-3.657-11.959-9.234-12.633-4.914 1.236 6.241 7.799 5.027 12.633 4.914zm75.872 31.078c-2.249-12.581 1.799-25.557-11.214-32.476l11.214 32.476zm-54.792-23.99c-8.25-1.991-14.897-5.789-23.876-4.236-.352 1.921 2.515 2.146 3.864 2.429 4.624.974 10.751 2.09 15.458 2.852 1.49.24 4.891 1.497 4.554-1.045zm2.81 9.856c-1.026-7.074-11.144-8.627-16.849-8.444l10.23 7.357 6.633 1.101-.014-.014zm74.467 29.652c.716-14.36-1.406-29.483-14.025-38.11 2.74 15.207-7.237 33.761 11.214 40.948l-9.134-29.638 3.808 4.646 8.137 22.168v-.014zm-100.465-22.578c11.678.311 23.44 0 35.132 0 .408 0 7.814-1.497 7.716-2.81-16.274-4.363-31.409-2.923-47.78 0-.759 4.97 3.007 2.768 4.918 2.81h.014zm63.955 18.342c1.335 1.087 7.251-1.582 8.404-3.516-8.095-7.583-17.665-18.37-29.483-14.812 3.949 5.041 12.24 7.06 18.254 8.472l-2.796 2.796 9.823 1.44c.45 1.793-7.027 3.318-4.202 5.634v-.014zm-9.851 8.514l-61.833-25.43c13.828 11.804 37.17 26.433 55.523 28.212 2.797.268 7.448 1.369 6.296-2.782h.014zm-5.621-21.194c-7.055-2.669-13.196-5.408-21.066-4.236-.323 2.033 2.474 1.977 3.921 2.372 3.527 1.003 9.022 2.33 12.592 2.909 1.489.24 4.89 1.497 4.553-1.045zm4.216 4.236c-8.306-.988-13.098-2.203-21.361.409-1.475.466-4.258.353-3.921 2.373l7.491 1.327 17.791-4.123v.014zm5.621 2.824c-5.495-.099-11.861.508-17.173 1.807-1.405.339-4.23.41-3.893 2.401 6.788 4.207 15.206.776 21.066-4.208zm25.295 11.268c.436-4.137-2.009-7.286-4.918-9.87l.702 7.046c-1.405 1.496-6.295-5.917-8.403-.678-1.602 3.953 11.017 3.756 12.633 3.502h-.014zm-36.538-4.208c4.385 5.012 12.69 7.258 16.836.692-4.624-6.707-10.638-2.076-16.836-.692zm2.811 21.152c3.232.621 3.584-.353 5.439-2.288 2.754-2.866 6.928-10.675 8.6-14.642-5.649 4.688-11.973 9.587-14.039 16.93zm1.405-8.444c-8.839 1.172-16.962-6.185-25.281-4.236l21.684 9.954 3.611-5.732-.014.014zm30.917-5.648l-15.908-.071-2.361 4.279 8.797-.325 9.458-3.883h.014zm12.647 12.68c-2.332-3.545-4.482-5.239-3.485-9.828l-14.769 1.398c-.45.579 6.886 6.241-2.853 11.96-2.094 1.228-5.762-.466-5.579 2.132l8.404 2.838c2.459-11.932 9.963-6.269 18.282-8.486v-.014zm-24.142-6.75c-7.8.141-11.285 2.387-15.178 8.882 3.162 6.255 21.768-.932 20.981-5.479-.421-2.443-3.625-3.445-5.803-3.403zm43.817 19.472c-4.933-.706-8.011-5.55-12.241-6.764-1.11-.325-7.405-1.567-6.014 1.793 6.113 5.832 12.577 13.908 21.079 15.532l-1.419 2.838c4.441 6.651 11.341 2.881 16.849 9.178l-2.796-6.368 2.796-2.795-16.849-13.429-.703-1.383-.702 1.383v.015zm-68.86-4.236l-21.782 15.517-10.54 11.282c7.716-3.078 15.529-8.655 21.74-14.148 1.574-1.398 12.156-11.013 10.568-12.665l.014.014zm59.023 14.105c-5.762-6.226-13.266-19.231-21.853-9.94-4.581 4.956-.492 8.754-.632 13.485-.141 4.73-2.6 9.742-1.391 14.825 6.703-7.54 13.462-15.899 23.876-18.37zm-32.322-9.869c-6.155 3.798-13.716.381-18.691 1.397-1.138.226-1.011 2.599-2.67 3.276-3.949 1.624-10.863-.07-10.947 6.608 2.249 2.104 13.941-9.05 11.945-1.397l8.418-2.937 4.202 4.334 7.729-11.281h.014zm-9.851 57.877c4.047-9.884-2.727-14.558-6.423-22.676 5.65-8.43 13.098-16.323 14.854-26.744-10.652 5.422-13.055 21.449-19.632 28.974-2.852 3.262-6.928 6.467-10.567 10.633-.773.875-7.898 2.894-1.42 4.165l16.161-15.518-1.208 7.413 8.235 13.753zm5.635-21.166c.07 5.168-2.192 7.922-2.684 12.129-1.167 10.068-1.082 20.262-2.923 30.217 3.387-2.499 5.129-8.783 6.324-12.694 3.105-10.124 6.394-28.381 7.546-39.013.436-3.996.351-8.529.169-12.553-.071-1.722 1.068-5.238-1.392-4.913.043 9.545-3.457 18.85-7.04 26.827-.056-4.123-.295-8.302-5.579-8.457-5.34 6.862-3.218 11.225 2.754 16.929-1.307-4.207 2.052-6.749 2.825-8.472zm66.063-7.06c4.75-3.332 6.014-11.479 6.998-16.929-6.029 4.038-7.715 9.658-6.998 16.929zm-91.358-7.06c.477-1.397.688-2.88 1.405-4.221-5.523-1.328-6.619 2.584-9.893 4.885-6.549 4.603-3.331 3.361-5.509 5.62-2.178 2.259-7.181 2.993-8.488 6.41 8.713-2.287 15.599-7.342 22.485-12.694-5.622 16.62-18.536 33.535-23.876 50.832l35.09-57.214c1.869-6.495-10.02 5.451-11.214 6.382zm-7.027-5.648c-1.742-1.694-28.963 15.165-30.902 19.754l28.021-14.896 2.895-4.843-.014-.015zm-5.621 16.958c-5.101 1.031-8.671 4.702-13.688 6.707-7.729 3.079-15.669 3.728-23.243 6.298-2.488.847-7.968 3.078-9.43 5.323 16.386.593 33.882-8.133 46.361-18.328zm-12.957 22.253c.351-.522 3.499-11.874 3.106-12.383-6.183 1.822-7.996 8.246-8.404 14.106.52.537 4.806-.988 5.298-1.737v.014zm-33.418-9.559h-25.295l20.433 3.573 4.862-3.573zm-7.026 4.25l-18.255 9.164c1.883 2.923 3.302 1.582 5.579 1.511 7.237-.24 16.54-.593 21.122-6.425l-16.85 2.796 8.418-7.031-.014-.015zm46.375 5.648c-6.858 1.892-13.435 4.378-20.546 5.465-3.893.593-14.165-2.019-13.167 2.993 2.318 1.765 31.295-2.584 33.727-8.458h-.014zm-40.754 5.648c-14.025 4.476-28.991 11.042-40.754 19.74 2.263.254 4.329-.537 6.381-1.341 7.321-2.909 23.875-10.633 30.508-14.53 1.546-.903 3.486-1.934 3.865-3.869zm16.864 4.222c-7.167-3.346-9.346 9.178-4.891 11.268 2.473.748 3.26-4.42 3.738-6.086.478-1.666 1.729-3.064 1.153-5.182zm-54.807 9.898l-21.065-8.486c-.773 3.756.955 2.429 2.768 3.502 3.738 2.217 9.542 5.125 13.716 6.043 1.405.311 4.946 1.412 4.581-1.073v.014zm11.242 8.472c-6.956 1.299-16.062 9.249-15.444 16.93l15.444-16.93zm-21.079 2.824c-10.779 1.003-15.627 12.2-23.89 18.328l20.377-12.694 3.513-5.634z" fill="#CFC7BF"/><path d="M250.525 152.513c-.573-.538-1.691-.61-2.56-1.81-3.826-5.295-1.874-13.609-1.799-19.74 1.166-1.794 1.002-.585 1.956-.12 3.411 1.647 6.907 2.449 10.315 4.066l-.258-8.95 6.247 3.433c-.046-2.366-2.458-3.034-3.608-4.956-1.15-1.922-1.601-4.611-2.895-6.361-1.745-2.369-5.266-2.651-6.429-5.419-1.438-3.41-1.372-9.879-2.613-13.775l11.082 2.028-.193-13.925c1.789-1.937 5.195 5.964 7.006 6.355l.88-7.047 5.004.552c-6.95-6.857-4.093-10.57-3.64-18.177.26-4.225-2.066-8.953 1.483-12.476l12.353 10.86c.247-3.686-4.361-5.279-5.431-8.233-.522-1.439-3.29-14.135-3.132-14.945.256-1.287 1.842-2.47 1.967-3.785.192-2.029-2.453-6.191 2.121-7.503l3.793 3.654c3.33-5.018.137-12.18 4.647-14.931l7.334 3.936-1.079-17.851c2.101-3.837 6.971 2.97 7.653 2.354-.598-2.428 4.148-4.98 5.659-4.045l4.441 17.102c2.628 1.555 4.161-10.567 9.07-9.738.424 6.616 2.868 12.02 1.645 18.768 4.297-3.25 2.989-10.784 10.447-6.222-1.195 5.013.735 11.239.279 15.73-.276 2.663-7.658 10.9-1.928 12.146 3.23-2.271 6.172-7.415 10.353-5.238.037 5.583 1.793 10.72 2.601 16.037.37 2.437-.464 4.969-.16 6.875.525 3.31 4.154 5.186 4.469 8.704.235 2.719-1.66 4.117-1.475 6.591l5.554-4.454c1.217 6.377.388 11.946-1.399 18.036l6.874-6.54c4.588 6.413 1.561 15.847-.499 22.916l12.637-3.066c2.011 1.539-6.03 6.637-6.796 7.55-6.561 7.847 3.321 20.336.113 29.864 6.826-1.238 9.553-8.285 16.067-9.347.502.414-2.139 9.715-2.618 11.061-2.984 8.334-8.993 14.989-11.255 23.5 3.916 2.329 7.153-5.708 9.549-4.312-1.443 2.724.027 5.703-.474 8.296-.362 1.893-11.908 18.139-14.029 19.329-1.535.86-3.196.834-4.876.94.118 7.438 7.156.615 10.835-.939.696.807-1.724 10.944-2.456 12.123-.934 1.495-3.324 1.991-4.651 3.41-1.891 2.026-5.299 7.181.084 6.486-.59 1.674-4.967 2.172-6.58 4.533-2.231 3.26-5.83 13.65-7.578 15.603-2.236 2.514-13.997 6.869-14.95 8.017-.702.847-.169 3.211-.766 4.229-.553.954-2.334.461-2.77 1.046-.436.585.219 2.192-.113 2.599-.234.279-6.261 1.687-7.111 1.731-5.77.241-22.466-11.1-26.744-15.539.646-.116 1.326-.065 1.971-.181l-2.303-3.774 3.023.734-.598-6.909c-1.781.075-.885 2.746-1.866 3.916-.702.838-2.513 1.263-3.611 1.548-.157.242 2.719 3.977 3.385 4.676-10.059 1.757-17.578-3.865-24.744-9.2-6.478-4.836-10.94-5.774-12.158-15.478 1.574-1.67 9.922 6.64 14.886 5.692l.889-7.058c-4.743 1.546-14.933-3.028-17.876-6.498-1.692-1.994-3.45-9.908-5.205-13.421-1.754-3.513-5.817-5.929-5.368-10.489 6.116-.948 12.078 2.858 17.752 3.352 1.131.101 6.212.388 6.243-1.437-4.326-.86-15.288-3.107-18.407-5.864-2.582-2.286-9.491-17.263-7.642-19.773 3.994 1.048 6.517 3.449 11.092 2.027-.389 2.274-2.957 2.218-4.759 2.404l1.242 2.87-6.323-4.422c.231 6.682 6.076 9.143 9.652 14.072l-.909-4.881c3.465 3.544 5.448 1.211 9.604 2.176l-.731-2.934 10.843-.959c-2.053-4.552-3.215-5.019-8.39-5.248l1.835-1.633c-5.482-3.319-9.969-8.677-13.158-14.306l5.347 4.516-4.586-7.081c2.954-.873.433-3.722 1.554-6.488l1.859.247-4.312-5.631c3.837-5.929 6.534 1.695 10.12 3.077 1.13.43 8.404 1.841 8.862-.21-5.448 1.209-17.394-10.224-21.507-6.682-.601.521-1.151 8.734-.979 10.033.203 1.546 2.696 6.588 3.623 8.231l-.003-.03zm49.441-139.762l-.103-1.415c-1.814-1.685-3.41-3.708-6.196-2.969l2.912 10.692c2.02-.304.027-3.239 1.028-5.108.359-.668 1.606-.946 2.349-1.2h.01zm5.521-5.408c-5.871 2.052-3.263 7.851-1.911 12.106l.728-3.06 3.024.743-1.841-9.789zm12.234 14.874l.88-7.047c-3.685 1.494-2.47 4.058-3.505 6.209-1.449 2.993-4.029 2.68-2.52 7.488 1.057 3.374 3.639 4.285 6.879 3.049l1.259-9.43-2.983-.27-.01.001zm-28.21 3.08c-1.156-.846-1.253-3.108-3.519-2.324l-.217 8.971c1.44-.463 7.681-2.607 7.569-4.13-1.003-1.258-2.613-1.616-3.833-2.517zm20.471 22.476c1.753-11.066-6.831-16.596-10.671-25.953-3.724 1.497-2.46 4.047-3.483 6.227-1.023 2.18-5.676 3.618-4.771 7.423 2.187-1.932 5.573.235 4.19 2.615 2.834-.644 3.38-.193 3.236 2.727l1.864-1.177.279 2.993 2.871-1.264-1.191-2.397 1.91-.653 2.002 5.801 1.032-5.058 2.741 8.715h-.009zm19.977-21.646c-3.963-.573-4.27 5.398-7.352 7.09-2.106 1.147-5.418.976-7.735 2.203l1.509 5.844c3.449.378 4.35-2.528 4.51-5.38 4.593 1.654 8.164 5.268 5.851 10.438 2.285.35 1.578-.476 2.161-1.422 3.524-5.763 1.334-12.474 1.057-18.764l-.001-.01zm-17.96 4.572l-1.341 1.6.504.425c.487-.68 1.87-1.457.837-2.025zm-32.972 3.841l-1.92.654-.807 13.504 4.92-.426c-2.405-4.253-.276-4.905 1.304-8.568l-3.497-5.164zm11.382 12.598c-1.425-.972-1.735-3.176-4.612-3.813-7.179-1.59-1.459 5.852-1.146 9.13.314 3.28-1.218 5.544-1.322 8.59l3.1-4.232 2.796 3.721-.599-6.909 3.671 7.639 4.719-2.4c.451 1.654 1.139 3.287 3.234 2.697l-.158-11.797c-3.601-.863-6.444-.427-9.683-2.626zm29.09-4.163c-1.953-1.215-5.122 7.614-6.486 9.176-1.69 1.939-7.253 4.342-6.995 7.437l1.721 2.32 1.298-2.104.675 1.944.814-2.072 2.636 1.763 1.308-2.095 1.764 2.825 2.673-3.21-1.827 13.095c5.143-4.728 2.768-14.61 2.147-21.089l1.499 5.836 1.525-5.102c.784 2.054-1.028 7.857 2.571 6.748 1.497-6.453-4.529-9.167-5.313-15.473l-.01.001zm19.417 6.286c-4.613 1.674-10.051 5.41-8.003 10.93.335.897 3.412 1.327 3.294 3.409l1.213-3.093.76 2.932 1.297-2.114 1.64 1.85-1.564-6.826 2.208 2.787-.855-9.875h.01zm-54.838 23.868c-.376-.436-2.065-.558-2.689-1.57-2.784-4.509-5.092-11.31-11.134-12.38-1.173 1.367 1.59 14.581 2.538 16.919.289.702 3.365 1.242 2.302 4.56l2.511-5.186c.257 4.698 2.397 4.861 6.061 6.446l.491-1.785 1.858.586c-.985-1.28-1.685-7.303-1.939-7.6l.001.01zm19.157-3.133c-1.835-1.225-3.168-4.924-7.552-4.046.8 5.567-2.574 8.24-4.415 12.79l1.197 7.405 2.768-2.221c-.377 7.461 1.802 3.598 4.431 5.053 1.189.654 3.347 7.11 7.527 6.857l-1.309-3.87 3.18 2.194-2.537-6.233 5.603 2.532 1.233-4.12 2.018.821-1.48-5.847 2.122 1.798c-3.006-5.007.383-6.137.459-6.522.272-1.438-1.913-3.738-3.178-4.117-3.027-.893-6.746-.252-10.067-2.474zm39.596 12.783c6.18-3.532-2.718-12.81-4.999-17.472-4.059 3.14-5.099 9.823-8.384 13.075-3.284 3.251-10.462 2.947-9.14 8.807.364.995 7.683.51 7.347 3.865l2.266-2.168 2.892 4.719-.579-6.91 1.812 3.836.557-5.047 2.883 4.739-1.479-5.837 2.208 2.786-.236-2.957.966-.084c-.124 2.69 1.284.945 3.129 1.721l-1.908-10.799c3.194.989 2.198 5.198 2.656 7.737l.009-.01zM304.755 102c-1.205-1.639-3.187-3.419-4.864-4.548-9.16-6.218-9.125-5.235-19.192-6.554-4.099-.541-7.91-1.765-11.895-2.704-.232 5.348-2.339 10.718-.182 16.018.963 1.142 3.865.363 5.559.993 3.788 1.424 14.529 12.703 8.165 1.723l3.109 1.722.815-2.052 2.228 2.784.348-3.097 3.369-.212-.428-4.932 5.754 3.475.236-3.018 6.977.392.001.01zm46.286-15.948c-6.283 2.456-12.367 6.07-10.708 13.872l2.91-.919.52-5.352 3.603 1.69.34-2.032c1.627-.49.748.832 1.093 1.26 1.72 2.201 2.429-7.51 2.242-8.52zm-13.872 23.109c3.923-1.385-1.856-7.786-3.393-9.595-1.371-1.614-3.278-2.644-4.768-4.128-2.076-2.07-3.048-6.298-7.005-5.886-2.648.28-1.812 4.32-3.766 6.869-3.526 4.587-15.742 8.503-15.894 12.26l4.743 2.009.734-1.965 2.912 4.717 1.952-.169-1.403-4.848 2.796 3.731.247-2.999 3.194 2.701.73-3.04c-.719 4.205 2.488 2.124 3.318 3.337 1.363 1.973 2.859 8.356 3.9 10.965 3.237-1.615-.4-4.955-.732-7.415-.255-1.91.388-3.669.606-5.51l2.57 6.738c3.929-2.571-1.124-8.616-.126-12.924l1.584 6.823.966-.083c.088-3.234-1.812-7.272.644-10.004.85 3.391-2.182 10.595 3.395 10.65l-.826-3.922-1.297 2.114-.513-5.921 2.301 2.709 2.276-1.133.865 3.918-.01.001zm-70.057-5.873l-16.108-2.599c.771 4.893.771 10.738 5.644 13.443l.71-3.039 5.764 3.474-2.28-3.268 2.015.324-.172-1.987-2.047-.809 1.791-2.146 4.027.627c-2.282-3.527-.691-1.793.646-4.02h.01zm83.292 9.706c.691-1.086 1.523-2.721 2.691-3.221l-2.477 5.692c1.093 1.269 5.32-3.03 5.888-4.274 1.558-3.451 1.157-8.545.618-12.243-.155-1.101.416-2.764-1.177-2.357-.93 3.944-6.713 7.821-10.129 10.247-4.744 3.369-9.948 5.781-14.531 8.837l-.56 10.963c2.391-1.064.723-6.556 1.492-7.887.129-.23 2.031-.982 2.647-1.434.865.931-2.193 7.36.684 7.897l1.222-9.058 2.798 3.751c1.042-4.253 5.093-4.156 7.299-7.593.442.629-.073 2.147-.248 2.989-.35.319-.578.777-.9 1.074-.322.297-.603.719-.901 1.074-.495.59-1.963.956-1.801 2.137l5.915-.512c-.91-1.226-.059-3.669.559-5.017.27-.323.827-.769.9-1.074l.011.009zm-31.593 13.69c.593.765 1.097 2.115 2.133 1.797-.396-5.941-5.921-11.368-11.324-13.19-2.117-.713-4.41-.236-6.518-.949-3.122-1.065-7.547-5.83-12.222-6.012-2.093 3.357-4.411 6.526-7.077 9.455-5.987 6.573-15.762 10.457-5.248 19.355l1.925-.146 1.296-2.124 3.384 4.676-.427-4.932c.758 3.818 4.196.393 4.478 5.597 3.808-3.397 4.96 5.894 6.825-1.597l5.479 1.567.859-2.006 2.59.652-7.318-15.798c6.619-1.22 6.072 6.117 7.84 10.017.49 1.073 2.112.992 2.475 1.618 1.199 2.037 2.071 5.566 4.151 6.531l1.802-2.128-.259-2.994 2.06.847-.26-3.005 2.059.847c-2.063-2.49-.328-6.544-.685-7.917l.986-.085c.277.673-.318 2.069.665 1.944l.321-2.029.01.009zm37.927-9.26c-3.213 2.479-18.955 4.211-18.928 8.082l.976 2.435 1.865-1.167-.452 6.014 1.545-5.103 1.811 3.827 1.628-4.135.257 2.966 7.593-5.567 3.467 1.602.226-8.972.012.018zm-85.077 15.344c-2.59 1.639-11.781-4.596-12.25-3.928-3.027 4.265 10.608 8.82 12.25 3.928zm87.603 2.362c.882-1.171-6.312-7.4-8.061-7.288-3.722 7.482-12.42 8.325-19.396 11.16l6.794 3.893.237-2.998 1.726 2.848 1.212-3.103.855 3.909 3.44-.297.377-7.004c.34 2.779.388 5.623.739 8.411.152 1.191-.421 3.741 1.274 3.355l.945-12.022c.569 2.898-.601 7.63 2.741 8.715l.73-3.041 1.499 5.836.222-4.083 3.38-.203-1.737-8.812 3.024.734-.001-.01zm-27.598 25.294c.02.347 1.977 2.757.417 4.933l-1.091-1.359c-2.314-.686.419 5.291 3.125 3.055 2.355-1.946 1.082-12.74.742-15.868l2.55 6.74-1.684-8.328 1.91-.644 2.345 9.755.161-3.987 2.208 2.786-1.599-7.34 1.911-.643c.292 2.454.34 4.959.643 7.423.153 1.191-.421 3.741 1.274 3.355.283-4.187 3.272-9.246 1.653-13.368-1.374-3.486-5.325-1.739-8.011-2.473-5.962-1.634-11.639-6.162-16.368-9.965-4.455 1.89-6.126 5.082-7.119 9.559-1.966.808-13.696 7.35-14.091 8.062-2.361 4.277 2.956 8.796 6.397 10.44l-.579-6.911 3.279 3.689.653-4.049.751 2.942 1.904-1.191c.768 2.682.816 5.188 3.547 6.674l-2.162-7.769 5.356 4.505 1.611-4.113 1.605 6.832c3.8.647.83-5.44 3.41-6.27l-1.278 8.067c4.708.578 3.481-1.546 5.574-4.456.268.694-.321 2.029.665 1.944l.321-2.029-.03.002zM294.47 145.88c-4.076-.842-9.235.262-13.043-.245-4.814-.649-7.911-1.197-13.2-1.705-2.864-.27-6.88-1.914-9.602-1.688-2.722.226-.827 8.456.118 10.306.694 1.364 7.764 5.582 9.287 6.884 2.704 2.315 3.838 7.276 9.496 6.656l-1.726-2.838 7.641 2.326-8.315-4.269c.944-4.234 3.184.76 4.929-.427l.239-2.978 8.815 4.186-2.186-2.3 1.929-.665-2.227-2.775 4.028.627-.888-1.417 1.682-.653-2.217-2.776 7.147 2.359c1.085-3.301-.416-5.72-1.899-8.629l-.008.021zm82.421-2.308c-.931-.766-7.062 5.86-8.789 6.786-7.745 4.166-18.924 2.157-21.296 12.738 3.548-2.737.594 1.463 3.109 1.713l1.716-3.126c-.158 3.23 3.299 2.891 2.606 6.705l6.95.424-2.131-1.787 5.896-.511c-1.554-3.948 1.78-4.446 2.505-5.943 1.784-3.709 2.935-7.972 4.941-11.641 1.804-.385 1.036 1.982.782 2.95-.105.388-4.904 10.124-1.426 7.044l5.136-15.362.001.01zm-48.323 27.078c-2.06-.279-3.219 2.4-5.09 2.234-1.222-.114-3.725-2.406-5.703-3.002-4.202-1.259-10.897-1.725-14.663-3.231-2.037-.81-3.251-3.244-5.287-3.127-2.728.156-2.835 3.97-4.749 6.067-1.651 1.806-20.432 11.349-19.12 12.739 2.064.32 5.234-.124 5.196 2.538l1.773-2.125c.441 3.138 3.739 3.032 5.869 4.461-.367-15.364 3.004-1.555 5.979-.588.511.165 2.416.259 2.349-.622l-3.494-6.17 9.034 1.21.428 4.932 2.691-3.221 3.764 7.452 3.832-.133.226-8.982 3.536 6.655 1.865-13.098 1.67 7.812 1.941-6.153 1.983 5.814-.493-5.923 1.641 1.86 1.297-2.114 1.242 2.87.113-4.083 2.502-.127-.341-3.944.009-.001zm23.004 24.886c-.058-2.963 3.35-6.743 2.107-9.514-.702-1.562-3.24-1.163-4.575-2.242-.972-.783-1.646-2.945-2.868-4.213-7.467-7.768-9.94 1.518-15.078 5.617-5.509 4.401-16.255 9.354-23.363 9.163l4.576 7.083.108-4.491 10.799 9.999 3.759-2.357 1.654 1.898.074-4.995 1.898 4.825-2.335-15.721 2.298 3.246 2.9 11.241c1.539-5.282-1.193-10.562-2.336-15.731l1.534.624.354-1.763 2.398 4.751 1.611-4.113 1.528 5.833c3.005 2.468 1.304-7.313 1.288-8.068l1.498 5.835 2.284-2.189 1.073 1.839 3.44-1.224.117 6.97c2.419-3.844-1.063-8.601 3.485-11.256.994 2.533-3.459 7.42-.216 8.972l-.012-.019zm16.119-11.952c.334-.278 1.541.126 2.18-.517 2.293-2.32 2.502-3.921 1.861-7.192-5.61 5.077-14.277.768-20.341 5.755-.034 1.666 2.243.891 3.391 1.648 4.099 2.722 3.351 6.461 9.945 3.58 2-.87 2.241-2.674 2.973-3.285l-.009.011zm-63.345 17.047c-.426-9.623-15.723-5.619-22.452-6.471l-11.221-8.448-4.809 6.75-6.657 3.753 3.258 8.033.775-8.024 2.052 11.772 3.914-.339.387-7.004.533 5.919 1.525-5.101.703 7.895 1.525-5.101 2.997 5.705c.269-2.98 3.136-3.816 1.866-7.132l2.95.691 1.648-5.062c2.579-.951 3.274 3.062 4.768 3.56l.805-2.051 10.467 6.054-.571-2.818 1.742-.759-4.405-5.095 8.21 3.272-.01.001zm-57.864-11.54c-.833-.326-2.519-.758-2.692.343 5.048 4.612 6.289 10.808 9.112 16.448.324.649.666 3.906 2.406 1.973 1.559-1.728-4.327-11.994-5.217-14.476.577-.677 9.628 3.708 10.835-.938-3.618.084-6.341-2.677-9.962-2.971-3.131-.257-1.523.759-4.482-.379zm81.593 23.576c-3.77.057-7.399-4.229-10.122-4.82-3.138-.684-6.261.652-9.487-1.508-2.789 5.878-12.554 7.36-11.368 13.82l-1.242-2.87-7.366.618c-2.011 2.246 1.347 1.915 2.152 2.831 1.279 1.463 1.764 3.512 3.453 4.66l.151-3.986 3.109 1.722.815-2.062 2.484 5.75c-.292-1.887-1.189-3.293-1.509-5.277-.175-1.1-1.138-5.448.559-5.585l1.169 7.876c2.382 2.512 1.071-1.617 1.895-1.17 1.417.763 1.135 3.018 2.711 2.742l1.373-7.079 2.484 5.749c-.389-2.435-2.005-4.466-1.591-7.141.115-.737 1.619-.688 1.821-1.562.304-1.311-1.148-3.396.715-3.328l.447 4.93.644-4.029 2.031 3.379-2.542 1.724 2.437 5.665 1.696-3.125 2.485 5.75.674-4.032 1.241 2.87.774-2.994 5.938.431c.499-.77-3.214-5.109-.086-6.953 2.618-1.541.658 4.275 2.776 3.723l-.734-6.748.013.029zm28.177 2.39l-2.022-11.775-17.899 11.02 2.087.815 1.179 2.368 1.772-2.135.276 1.818 1.779-1.02-.623 4.037c3.05.124 3.393-2.794 3.842-3.111.394-.273 1.671.592 2.238.374 2.577-.98 1.174-7.551 3.803-9.073l.599 6.919 2.968-.257.001.02zm-61.5 12.306c-3.798-.378-9.627-1.736-12.628-4.045-3.182-2.453-4.319-9.275-8.148-6.464 1.467 4.214-4.025 3.764-2.234 8.498l1.696-3.124 1.401 3.792 1.821-1.113.259 2.994 2.807-1.199 1.221 1.836.815-2.062.761 2.932 1.789-2.157 5.065 6.522c.86.523 4.228-3.483 4.91-4.318.683-.836.99-.614.483-2.104l-.018.012zm42.1 4.311c3.573-1.753.416-6.33-2.739-5.598-1.48.347-14.052 9.213-15.638 10.734-1.073 1.039-2.257 1.809-1.727 3.576 3.444-2.788 2.554 2.079 6.977.391l-.386-4.916c3.346 1.015 9.095-3.137 8.393-6.652l4.3-.471.811 2.947.009-.011z" fill="#CFC7BF"/></svg>