<svg width="316" height="419" viewBox="0 0 316 419" fill="none" xmlns="http://www.w3.org/2000/svg"><path d="M221.463 145.634c18.716-4.464 32.497-10.699 49.865-15.717 2.306-.663 4.463.852 6.701.149 3.304-1.042 7.808-7.101 12.19-7.453.135-1.907.634-3.273-1.888-2.569-5.434 1.514-13.794 6.762-19.714 8.656-7.133 2.286-14.711 4.991-20.199-1.988l8.158-.623 13.403-4.788-22.91 4.031 12.123-5.41c.337-2.394-3.021-1.326-4.396-1.028-3.546.771-7.025 2.502-10.423 3.746 4.234-13.254 22.384-10.982 33.697-12.159-2.724 3.936-9.884 3.882-14.145 5.41-2.198 1.867 1.443 1.393 2.535 1.218 8.023-1.326 14.455-4.734 21.71-7.994l-3.358 4.058 31.027 1.339c.661-3.76-.795-2.273-2.953-3.044-5.11-1.825-10.72-2.258-15.911-3.733l14.833-12.132c-9.507 2.137-16.532 11.172-26.969 9.441l4.706-4.058-17.503 4.085.675-2.705-5.408 1.325 21.575-13.538-.687-2.706-12.784 4.072L306.4 68.552l-24.258 9.468 4.019 2.665-24.259 16.23 9.439-10.793-8.09 4.03c3.182-4.504-4.167-15.216-3.911-16.717.297-1.758 5.34-3.8 3.897-7.615-4.045-1.176-3.277 6.587-6.769 3.422-2.886-2.61-2.764-10.509-2.67-14.242-6.324 3.8-.607 12.39-.27 17.272.445 6.33-17.947 21.681-22.64 27.362V65.158c0-.23-1.82-2.124-2.683-2.03-1.847 1.88-2.171 31.826-2.71 37.196-1.012 9.914-6.864 9.819-13.471 15.554l3.371-41.915c-8.266 7.425-9.817 16.338-11.718 26.793l-9.183 1.596c-1.915-2.069 4.908-13.322-1.348-12.172-1.295 15.256-2.94 34.882-14.833 45.323 3.304 2.218 9.506-6.573 12.122-2.056-16.815 8.318-31.971 20.532-45.172 33.827-2.373-3.706 2.737-6.451 4.719-8.791-.431-2.043-5.097 2.935-4.018-1.312 1.766-6.885 7.861-13.823 9.426-20.992 2.386-.04 2.359 3.909 2.103 5.438-.782 4.747-4.14 10.428-6.162 14.823 1.739 1.664 7.254-5.315 8.09-6.749-1.591.379-3.411.474-2.494-1.799 3.533-15.703 10.598-27.591 25.404-34.719 1.861 1.866-6 7.236-6.715 8.805-1.915 4.247 5.272-1.502 4.018 2.664-.472 1.583-5.11 10.996-6.162 12.768-.634 1.055-2.548 4.044-3.951 1.488l-1.321-6.776c-5.246 4.017-5.758 12.416-8.779 17.569 1.16-.27 17.651-11.158 18.177-12.105.567-1.014-.809-3.462-.081-5.437 3.614-9.766 10.316-19.45 12.905-29.783l-29.639 25.698c-3.222-8.48-3.856-18.016-6.553-26.564-.566-1.799-.459-4.111-2.886-4.53l2.684 35.72-9.466 15.676c-3.479 2.461-1.538-11.321-1.2-12.714 1.685-6.898 7.443-13.147 6.593-21.1l-12.796 17.556-3.358-4.03c.391 5.004 3.344 9.251 3.574 14.458.053 1.272-.189 4.761-2.225 4.464.323-7.372-4.1-14.243-5.408-20.965-.795-4.111 3.843 1.488 2.67-2.664-1.443-5.086-5.879-14.432-9.398-18.3-1.672 9.698 8.899 24.589 8.063 33.015-.593 6.019-11.92 22.52-15.048 29.648-2.212 5.032-4.868 11.51-6.189 16.785-.944 3.774 1.078 10.631-3.709 12.525-2.858 1.122-1.874-1.705-1.712-3.071.741-6.302 5.043-13.241 5.097-19.909-4.801 4.342-6.998 11.51-11.435 16.244-1.618 1.731-2.333 2.272-2.022-.676l10.76-18.287-14.806 20.275 4.019-10.158-4.019 2.043c.971-4.883-1.389-9.671-1.47-14.188-.12-7.318 4.14-11.375 4.154-18.26l-6.716 9.455-2.723-31.095-2.67 10.144-2.05 33.11-10.073 12.186c-1.2-7.033-2.737-14.661-6.755-20.274 1.928 7.79 8.522 21.519 2.009 27.05l-4.693-29.742c1.227-.216 1.902 1.61 2.684 2.705-1.524-6.194-3.115-14.201-4.99-20.017-.566-1.745-.93-3.963-3.087-4.328l8.104 54.696c-.756 4.964-12.703 8.616-16.195 12.93l-2.697-17.569c1.443 20.423 2.778 39.508-2.724 59.498l-1.402-75.025 1.416-2.746 1.321 4.721c-.431-4.356 1.659-12.146-2.67-14.865-3.802 15.744 1.08 35.153-1.685 50.396-1.376 7.601-12.837 14.553-15.224 23.953-3.236 12.782 2.9 21.722-8.71 33.192-9.561 9.44-22.816 16.541-31.082 27.064-.755 3.814 3.681 18.922 7.457 19.246 8.872-2.272 16.572-18.286 26.348-15.324 3.681 1.123 6.54 5.992 10.747 6.181-2.495-4.071-7.268-7.858-12.136-8.115-.121-2.421-.647-2.854 2.036-2.732 6.702.325 19.903 10.09 20.874 17.61l-8.077-4.044 2.103 5.424c-4.854 4.341-10.558 7.533-15.75 11.374-1.523 1.123-3.357-.013-2.548 3.476 7.39-.581 14.32-4.815 20.213-8.115-3.438.135-4.382 1.447-6.715 2.043-1.375.351-4.288 1.947-4.059-.677 7.457-3.151 11.462-8.778 20.2-9.481v5.383c-4.814-.947-6.419 1.055-9.426 2.732 10.437-.406 2.522 17.759 1.349 24.332 8.913-3.367 8.077-17.772 8.104-25.684 2.036-.19 2.144 3.313 2.575 4.828.984 3.436 3.803 14.756 3.56 17.543-.445 5.112-11.07 13.133-11.96 19.206-3.399-1.082-8.63 8.642-7.66 9.819 4.234-4.653 10.316-7.412 14.873-11.442 1.794-1.596 4.558-7.155 6.041-7.48 4.747-1.041 4.99 16.501 11.435 16.231 0-7.466-4.005-16.204-2.616-23.616 1.012-5.437 8.9-11.983 9.385-18.313l11.974 10.117c-5.218 8.142-7.362 19.03-11.758 27.308-2.966 5.586-8.59 9.751-9.668 15.973 1.079 5.424 9.493-6.046 10.787-6.749l-6.068 3.381c-.863-3.286 4.288-7.303 6.311-11.253 4.504-8.845 7.403-19.057 11.92-27.957 6.082 4.328-3.169 14.405-2.697 20.275l6.742-16.231c2.064-2.218 5.219 6.547 5.273 7.412.256 4.382-6.635 13.323-6.635 17.61v22.317l5.38-8.818-4.018-.65c-1.47-10.238 3.277-18.029 6.743-27.037 5.245 2.11 4.085 7.453 4.045 12.159 2.805.528-.297-5.477 3.344-4.044 1.47.582 14.213 18.801 16.869 16.217-1.079-5.166-6.634-8.899-9.21-13.065-3.587-5.762-6.661-12.376-5.596-19.396 4.962 1.353 7.619 1.894 10.1 6.763l.674-4.071c.432-.487 4.598.96 5.084 1.677.58.852 6.135 17.299 6.755 19.612.283 1.055.877 4.544-1.051 2.38l-5.381-8.778c1.43 12.119-3.061 23.264-4.045 35.166 7.416-4.585 6.742-15.229 8.091-22.993l8.077 5.397c-2.401-6.222-4.18-11.132-.675-17.57 8.455 4.261 5.812 41.753 7.43 43.282h4.032c.351-11.064 3.115-23.345 0-34.274-.391-1.366-1.308-.825-1.335-.906-.404 8.291.337 16.717 0 25.036-.067 1.636 1.025 5.031-1.335 4.706-1.294-8.913-.256-20.247-1.685-28.741-1.2-7.074-8.32-14.364-9.143-21.952l6.527 8.332c1.038 4.423 4.342 9.414 5.623 12.619.054-1.231-.648-3.733.674-4.058 1.901 2.665 8.374 8.481 9.425 10.834 1.295 2.895.513 6.898 1.632 10.537 3.344 10.766 9.763 20.382 12.567 31.365 4.019 1.082 2.778-3.341 2.738-6.127-.095-5.6-2.117-10.104-2.764-15.5-2.428-.325-1.228 2.948-.998 4.382.62 3.909 2.845 7.669 2.346 11.835-.31.419-1.605-.69-2.023-1.339-2.413-3.747-10.477-24.616-11.353-29.31-.378-2.002 1.092-4.409.525-5.951-1.308-3.611-13.862-12.254-12.742-18.854 7.389 9.549 16.37 17.393 26.294 24.332 2.265-1.447-.566-2.962-1.375-4.031-4.437-5.816-9.156-11.577-14.132-16.933-.216-1.001 1.403-.92 1.996-.663 1.2.541 13.161 12.822 14.873 14.851.836.987 10.275 13.309 6.729 12.186l-5.407-4.044-1.322 2.705-6.081-2.042c3.155 3.908 9.344 3.313 12.85 6.046 3.506 2.732 6.365 11.199 9.399 14.918 1.766-.879.148-3.692-.418-4.991-.445-1.014-7.943-12.281-2.05-8.764 4.976 2.975 5.637 7.168 9.196 11.077 5.097 5.586 11.26 11.97 17.53 16.23 1.443-5.734-8.643-13.227-10.086-16.933-1.295-3.314 3.452-1.488 4.045-2.016-2.13-2.434.081-5.734-.283-7.303-.229-1.001-8.711-7.304-9.169-10.253 4.706 2.205 11.569 6.263 15.533 9.428 7.727 6.154 15.885 15.256 24.879 21.032 1.793 1.149 2.67 2.678 5.434 1.974l-21.561-22.317c-.405-1.853.094-2.556 1.982-1.988 3.735 1.123 14.887 10.523 18.231 8.075-11.017-11.916-27.36-17.461-41.802-24.359l1.376-4.017 36.367 8.101c.701-3.611-.769-2.353-2.697-3.3-4.976-2.448-9.601-3.422-14.819-4.801 1.092.784 2.913 1.46 2.683 2.691l-25.606-6.735c7.793-.46 15.453 2.069 22.923 4.044-7.659-5.519-19.256-6.154-28.722-7.034-8.67-4.395 1.281-7.357 6.23-9.427 2.899-1.217 5.785-2.434 9.008-2.475-6.675-7.195-17.705-.176-24.919 3.557l-14.172-4.91c5.178-6.559 12.661.636 18.864 1.367 1.578-3.977-10.922-6.411-8.077-9.441 2.495-2.651 13.296 1.122 12.136-4.071h-22.923c1.254 2.854 4.867 3.854 7.214 5.613 1.24.933 4.22 2.745.229 2.475l-20.928-12.132c2.05.879 22.816-3.341 18.865-6.763-5.434-1.407-13.296 1.528-17.894 1.068-6.863-.689-20.24-10.725-29.288-9.197.297-2.746 5.07-2.556 6.998-2.394 10.936.92 22.776 6.79 33.442 9.17.755-4.125-1.268-2.069-3.183-2.826-8.144-3.192-14.441-7.723-22.424-10.713 4.989-7.52 18.568 3.017 26.955 1.367-1.241-7.264-14.617-1.678-12.136-12.146-9.183 3.787-17.138 9.941-26.631 13.173-3.156 1.069-8.725 4.586-11.098 1.015.027-.893 13.161-4.734 15.709-5.857 11.341-4.95 21.198-13.363 34.156-12.416-4.949-8.264-14.266 2.638-19.552 2.624-3.884 0-11.772-6.113-16.842-5.302l12.122 5.424c1.012 4.504-3.074 1.893-5.717 3.002-1.996.825-3.857 3.152-5.704 3.233-1.011.04-18.703-3.422-19.889-3.909-2.765-1.123-4.275-3.855-6.392-5.735 3.843-4.923 9.008.568 13.457.663l-4.045-2.719 4.032-4.017c-3.452-.595-17.408 5.938-18.851 2.002-.971-2.651 2.238-2.218 3.722-2.948 2.683-1.326 20.226-9.36 21.386-9.482 1.281-.135 4.854.623 5.879 1.623l-12.123 7.466c.715 2.692 2.886 3.03 5.394 2.678l-1.2-2.502c10.005-7.574 16.006-7.574 28.155-5.613l-9.439-6.073 17.503-10.82c-2.05-3.097-2.562-1.109-4.747-.757-6.283 1.041-17.556 6.357-21.763 6.492-1.632.054-7.808-2.908-11.233-3.72l21.575 12.16c-12.163-.501-22.451-4.004-31-12.836 2.373-1.217 6.85.068 9.425.69l-1.348-2.692 10.005.041.782-1.407c-3.33.176-6.755-.311-10.086.027-6.823.677-30.448 7.52-34.412 12.146 3.142-1.15 21.076-7.682 22.249-7.574.661.067 9.763 6.127 11.098 7.195 1.079.852 2.494-.04 1.699 3.071-3.884.865-7.983 4.436-11.785 5.126-2.387.433-20.2-.69-22.317-1.326-1.51-.446-2.602-1.88-3.533-3.097 1.038-.974 1.672-2.326 2.576-3.381-10.046 3.692-23.288 14.35-32.363 4.071 18.056 1.312 31.81-12.674 48.53-16.934 12.635-3.219 26.281-4.152 39.105-2.002l-10.788 2.692c5.812-.298 12.689.703 18.231 0 1.875-.244 3.938-.744 1.996-2.692-14.563-6.411-29.463-3.016-44.498-4.098 4.22-8.359 15.925-3.003 23.53-2.637 5.394.27 8.185.148 12.877-1.407-8.63.473-16.383-2.002-24.973-1.339l-1.995-2.692c2.899-3.002 25.283 3.558 31 1.339.472 1.015-3.479 2.503-4.032 2.692 2.252-.122 4.625.554 6.769-.649 2.05-1.164.742-2.787-.876-3.219-6.81-1.799-18.433 1.068-26.106-2.908 5.664-6.966 9.52-6.885 17.489-4.68 11.853 3.273 24.124 11.415 36.435 14.147-4.409-5.302-10.504-10.144-17.543-8.642l-24.258-10.266c7.915-3.124 14.361 3.746 21.561 5.383l-14.833-8.115c-1.928-2.611 7.511-7.182 8.765-9.4l12.81 10.752-14.819-16.906c-.027-1.109 2.737-.907 3.331-.717.822.257 8.899 11.645 10.801 13.593 4.935 5.072 10.207 9.549 15.52 14.188l-2.683 2.002 6.728 1.352-28.317-32.434 23.369-3.936c1.672.528 10.099 16.19 13.228 19.288 1.78 1.758 1.995 2.867 5.205 2.204l-12.123-22.317 2.684-2.001-45.861 5.383-.647-2.678-11.475 9.44c7.713-2.569 14.981-8.521 20.227 1.353-5.637-.798-9.655 5.965-14.253 6.749-5.044.866-10.221-2.177-15.413-1.339l4.032-4.03c-3.371-.406-5.717 1.934-8.832 2.61-.513.108-7.363 1.109-5.327-1.285 9.358-6.465 20.025-10.523 29.909-15.987 3.559-1.975 9.6-7.263 11.92-8.332.579-.27 2.211-.338 1.995.663l-5.38 6.087c4.356.243 5.596-5.465 9.035-6.479 4.787-1.407 10.625 1.231 15.223-1.637l1.362 8.116-10.774 1.352c6.217 1.109 12.285-1.407 18.177-1.447 6.769-.041 16.748 4.531 20.928-1.231-6.634-1.799-12.163-1.609-18.811-.068l-2.791-7.357 22.937-6.898 21.575 11.604c-.081-7.303-15.979-11.631-17.516-15.554l2.683-2.015-8.077-2.042c5.232-3.016 10.194-2.597 14.819-6.073-9.857.122-18.487 8.101-28.33.676 9.56-3.571 28.128-22.439 32.268-4.233-.095.324-3.183 2.989-3.938 3.557 1.349-.014 2.71 0 4.059 0l-1.375 2.691c6.418-1.474 4.341 7.169 9.439 9.482l-3.884-11.362 3.897-2.164c.782.852 2.481 16.42 3.304 19.003 1.267 4.031 8.333 8.67 7.483 6.019-3.087-4.247-11.151-25.455-8.791-29.12 1.47-2.286 2.656-.852 4.369-.257 6.553 2.259 12.607 7.588 19.269 9.752-3.385-10.104-20.807-13.363-25.27-17.921-1.2-1.231-1.82-3.706-4.396-6.411.189 1.271-.108 2.745 0 4.057-2.508-1.258-5.191-2.177-7.295-4.166-.998-.946-11.205-13.268-11.556-14.106-2.103-4.924 8.549 2.596 9.426 3.394-.58-2.353.971-2.705 2.009-4.071 3.344-4.355 24.204-24.4 28.33-25.684 1.335 3.881-4.921 8.372-7.47 11.483-.957 1.176-.984 3.016-1.294 3.381.566-1.19 4.153-1.339 5.703-1.123 1.47.203 7.403 1.853 7.767 3.801-3.438 2.664-17.017 4.761-13.47-2.692-3.398 3.99-9.129 7.034-12.136 12.173l-.027-.067zm35.059-68.98c3.506-.65 2.373.663 3.304 2.692 2.548 5.518 2.831 10.455.714 16.23l-4.018-18.922zm-10.787 25.698c3.29-1.853 6.742-3.219 9.439-6.086l-12.136 2.015c3.667-3.354 14.387-26.401 14.738-9.927.297 14.337-8.563 12.118-16.087 20.761 10.558-4.883 20.483-11.997 32.349-13.498l-13.902 9.819c-9.116-1.014-8.239 2.597-13.957 6.181-3.007 1.88-18.109 10.225-20.671 8.332 3.385-9.265 14.887-10.482 20.227-17.57-4.855 2.733-16.815 7.926-20.227 11.578-1.551 1.664-.351 3.693-1.214 5.032-1.078 1.677-4.989 2.732-6.202 5.031l-2.67-4.044-16.856 16.217c7.309-19.652 29.073-28.201 46.535-36.505 3.276-.582 1.618 1.407.647 2.691l-.013-.027zm-12.136-.013c-1.052-1.015 14.226-17.19 16.167-18.922 0 3.314-13.983 21.032-16.167 18.922zm-28.317 17.583c-1.389-6.641 1.496-12.498 2.224-18.449.621-4.95-2.049-13.633 4.491-18.07l-2.684 33.138-4.031 3.381zm53.937-10.793c9.344-2.516 18.595-3.314 28.303-2.705 0 2.272-4.49 2.583-6.054 2.691-6.014.46-11.61.365-17.934.96-1.497.136-4.585 1.596-4.315-.946zm-59.075-2.421c1.146-.677 2.549-.19 3.776-.312l-.607 17.651-16.909 6.695c-.567-.554 3.654-13.133 4.8-14.783 1.524-2.205 4.585-3.571 6.756-5.451 1.105-.947 1.712-3.53 2.184-3.8zm-40.723 29.458c-5.366-4.883-5.474-14.824-5.366-21.627l6.148 14.81-.782 6.83v-.013zm78.223-5.424c2.697-7.141 12.136-1.988 14.833 2.705l-14.833-2.705zm-29.666 13.526c-1.348-1.434 6.999-12.525 9.426-13.512 1.092 2.921-6.877 16.23-9.426 13.512zm-28.303 2.718c1.173-8.683 11.354-11.605 17.502-16.23.715 3.273-.539 3.435-2.197 5.221-1.511 1.609-14.307 12.078-15.305 11.009zm-68.77 44.62l8.765-27.023 12.783-21.654c-1.012 9.116-8.212 16.717-11.934 25.211-2.4 5.478-3.304 10.955-5.326 16.298-.688 1.812-2.427 6.533-4.288 7.182v-.014zm40.439-1.325c-1.389-1.028-12.392 7.709-14.846 8.791-2.454 1.082-2.468.393-4.005-1.366 19.903-14.526 36.866-32.339 53.358-50.598 1.362-1.501 1.995-3.395 4.584-2.827-4.841 14.878-16.909 25.238-26.955 36.492 13.296-.109 29.059 1.23 39.105 10.82-8.212-1.583-15.521-6.614-23.948-7.75-6.837-.92-12.784 1.488-18.339-1.542l-3.56 3.233 6.729.676c-.89 6.641-7.201 7.493-12.797 6.762l.688-2.691h-.014zM86.62 174.037c.903-1.19 1.375-2.894 2.683-2.692l-1.349 33.8c-1.847.325-2.036-2.407-2.319-3.719-2.602-12.078-1.186-16.122.984-27.376-5.15 6.736-15.52 23.21-17.53 31.109 1.134-.879 2.469-1.515 3.372-2.692 1.12 3.098-.337 8.765-1.389 12.133-.445 1.406-1.524 5.464-3.33 5.437-.446-5.316.026-9.752 1.334-14.865-5.879 4.613-8.387 13.093-12.324 19.423-.85 1.379-2.791 4.166-2.481.216 6.148-10.306 10.032-23.75 16.127-33.881 4.086-6.803 13.97-15.662 16.195-22.979.215-.704.377-2.205-.648-1.989l-3.357 2.692 1.348-21.627c2.346-.325 1.281 3.07 1.335 4.707.121 3.584-.256 7.182.054 10.766.378 4.409 2.9 3.205 1.294 11.564v-.027zm36.407 14.878c.634-.46 6.324-3.03 6.729-2.705 3.668 3.002-7.754 3.016-5.38 6.749l9.425-.676c-3.142 3.976-7.133 5.288-12.136 4.747l.782 4.125-7.51 3.977c-1.12-1.177 6.081-9.049 7.038-11.253.836-1.921.675-4.166 1.039-4.978-4.248 3.125-11.988 18.503-17.934 23.927-2.293 2.083-7.727 3.246-9.71 7.168-.997.217-.916-1.42-.66-2.002 3.506-7.709 18.608-18.421 22.128-27.862l22.357-41.807c-3.021 14.31-10.127 27.403-16.168 40.563v.027zm66.06-37.871c4.787.419 9.345-1.975 14.158-1.393 1.848.23 4.154 1.001 2.037 2.732-4.76.149-9.305 2.029-14.172 1.379-1.821-.243-4.275-1.014-2.01-2.718h-.013zm-68.743 24.332c1.888-8.954 8.023-18.408 13.457-25.685l-4.679 12.2-8.778 13.485zm21.548.013c-4.585-4.044-3.681-17.975-.647-22.979 1.928 7.682 2.44 15.216.647 22.979zm45.86-14.891c2.751-5.911 7.659-5.911 13.484-5.383-2.751 4.342-8.711 5.829-13.484 5.383zm-6.405 3.057c1.416-.988 21.386-3.043 24.393-2.949 3.007.095 8.954 1.88 12.055 2.908 2.36.785 7.673 2.976 9.048 5.099-15.831-1.731-31.324-3.327-47.195-1.352-.162-.122 1.524-3.598 1.699-3.706zm-4.383 15.879c6.392-4.788 12.999-12.281 21.575-10.794-4.854 5.924-13.713 11.253-21.575 10.794zm-32.011-9.103c.242-.325 4.665-3.314 3.667.298l-4.018 7.452c4.396.717 1.767-6.14 6.702-.663l-10.761 4.721c2.724-3.179 2.293-9.008 4.396-11.808h.014zm26.618 15.892c1.968-.135 3.91-.04 5.879.163 1.969.203 8.198.703 8.927 2.515l-12.015 4.031-2.805-6.709h.014zm-5.394 0c2.023-2.448 2.913 1.772 3.371 2.638 2.036 3.8 12.621 24.575 2.683 17.65 1.106-3.841-6.742-19.463-6.067-20.274l.013-.014zm-91.68 16.217c-.863-6.397 3.02-12.578 8.064-16.23 1.186 6.79-2.495 12.619-8.064 16.23zm101.119-8.101c6.756-1.542 11.745-6.75 18.878-4.058.715 3.868-1.065 2.164-2.953 3.057-3.573 1.69-16.235 8.358-15.925 1.014v-.013zM54.271 243.016c-.594-2.542 1.402-3.219 2.683-4.733 9.628-11.497 22.91-17.854 31.702-27.714 6.054-6.79 8.292-16.447 15.48-21.654-1.605 6.154-3.83 13.633-7.484 18.854-2.562 3.652-15.952 14.824-16.37 16.961-.04.189 1.052 3.638 1.618 3.408l14.159-16.216-6.635 11.658 2.59 2.53-17.53 6.073 4.032-4.721-1.996-.663-22.25 16.217zm18.878-28.403c.728-7.114 4.692-13.715 10.76-17.583 1.888 8.521-5.056 12.782-10.76 17.583zm55.272-14.864c4.692-.42 7.915 2.867 10.76 6.073l-4.638 3.381-6.122-9.454zm-9.439 12.146c.108-3.504 11.475-8.846 12.122-4.707-1.186 5.978-7.483 4.815-12.122 4.707zM46.18 241.664c2.158-12.051-1.726-24.481 10.76-31.109l-10.76 31.109zm52.575-22.98c7.916-1.907 14.294-5.545 22.91-4.057.337 1.839-2.413 2.055-3.708 2.326-4.436.933-10.315 2.002-14.833 2.732-1.429.23-4.692 1.434-4.369-1.001zm-2.696 9.441c.984-6.776 10.693-8.264 16.167-8.088l-9.816 7.047-6.365 1.054.014-.013zm-71.454 28.403c-.688-13.755 1.349-28.241 13.457-36.505-2.629 14.567 6.945 32.339-10.76 39.224l8.765-28.39-3.654 4.45-7.808 21.235v-.014zm96.4-21.627c-11.206.298-22.492 0-33.711 0-.391 0-7.498-1.434-7.403-2.691 15.615-4.18 30.137-2.8 45.847 0 .728 4.761-2.886 2.651-4.72 2.691h-.013zm-61.368 17.57c-1.28 1.041-6.958-1.515-8.063-3.368 7.767-7.263 16.95-17.597 28.29-14.188-3.79 4.828-11.745 6.762-17.516 8.115l2.683 2.678-9.425 1.38c-.432 1.717 6.742 3.178 4.031 5.396v-.013zm9.453 8.155l59.331-24.359c-13.269 11.307-35.666 25.32-53.277 27.024-2.683.257-7.146 1.312-6.04-2.665h-.014zm5.394-20.301c6.769-2.556 12.661-5.18 20.213-4.058.31 1.948-2.374 1.894-3.763 2.273-3.384.96-8.656 2.231-12.081 2.786-1.43.23-4.693 1.433-4.37-1.001zm-4.046 4.057c7.97-.946 12.568-2.109 20.496.393 1.416.446 4.086.338 3.763 2.272l-7.188 1.271-17.07-3.949v.013zm-5.393 2.706c5.272-.095 11.38.486 16.477 1.731 1.349.324 4.06.392 3.736 2.299-6.513 4.031-14.59.744-20.213-4.03zm-24.272 10.793c-.418-3.963 1.928-6.979 4.72-9.454l-.675 6.749c1.349 1.433 6.041-5.667 8.064-.649 1.537 3.787-10.572 3.597-12.123 3.354h.014zm35.06-4.031c-4.208 4.802-12.177 6.952-16.155.663 4.436-6.425 10.207-1.988 16.154-.663zm-2.698 20.261c-3.101.595-3.438-.338-5.218-2.191-2.643-2.745-6.648-10.225-8.253-14.026 5.421 4.491 11.489 9.184 13.471 16.217zm-1.348-8.088c8.481 1.123 16.275-5.924 24.258-4.058l-20.806 9.536-3.466-5.491.014.013zm-29.666-5.41l15.264-.068 2.266 4.099-8.441-.312-9.075-3.719h-.014zm-12.136 12.146c2.239-3.395 4.302-5.018 3.345-9.414l14.172 1.339c.431.555-6.608 5.978 2.737 11.456 2.009 1.177 5.528-.446 5.353 2.042l-8.063 2.719c-2.36-11.429-9.56-6.005-17.544-8.129v-.013zm23.166-6.465c7.484.135 10.828 2.285 14.563 8.507-3.034 5.992-20.887-.893-20.132-5.248.405-2.34 3.48-3.3 5.57-3.259zm-42.044 18.651c4.733-.676 7.686-5.315 11.745-6.479 1.065-.311 7.106-1.501 5.771 1.718-5.865 5.586-12.068 13.323-20.226 14.878l1.362 2.719c-4.261 6.37-10.882 2.759-16.168 8.791l2.684-6.1-2.684-2.678L9.76 284.932l.674-1.326.674 1.326v.013zm66.073-4.058l20.901 14.865 10.113 10.807c-7.402-2.949-14.9-8.291-20.86-13.553-1.51-1.339-11.664-10.55-10.14-12.132l-.014.013zm-56.634 13.512c5.529-5.964 12.73-18.421 20.968-9.522 4.396 4.748.472 8.386.607 12.917.135 4.531 2.495 9.333 1.335 14.202-6.432-7.223-12.918-15.23-22.91-17.597zm31.014-9.454c5.906 3.638 13.161.365 17.934 1.339 1.093.217.971 2.489 2.563 3.138 3.789 1.555 10.423-.068 10.504 6.33-2.158 2.015-13.377-8.67-11.462-1.339l-8.077-2.813-4.032 4.152-7.416-10.807h-.014zm9.453 55.441c-3.884-9.468 2.616-13.945 6.162-21.722-5.42-8.075-12.567-15.635-14.253-25.617 10.221 5.194 12.527 20.545 18.838 27.754 2.737 3.124 6.648 6.195 10.14 10.185.742.838 7.578 2.772 1.362 3.99l-15.507-14.865 1.16 7.101-7.902 13.174zm-5.407-20.275c-.068 4.95 2.103 7.588 2.575 11.618 1.12 9.644 1.038 19.409 2.805 28.945-3.25-2.394-4.922-8.413-6.068-12.16-2.98-9.697-6.136-27.186-7.241-37.37-.418-3.828-.337-8.17-.162-12.024.067-1.65-1.025-5.018 1.335-4.707-.04 9.143 3.317 18.056 6.756 25.698.053-3.949.283-7.953 5.353-8.102 5.124 6.574 3.088 10.753-2.643 16.217 1.254-4.03-1.969-6.465-2.71-8.115zm-63.39-6.763c-4.558-3.192-5.772-10.996-6.715-16.217 5.784 3.869 7.403 9.252 6.715 16.217zm87.661-6.762c-.458-1.339-.66-2.759-1.348-4.044 5.3-1.272 6.351 2.475 9.493 4.679 6.284 4.41 3.196 3.219 5.286 5.384 2.09 2.164 6.89 2.867 8.144 6.14-8.36-2.191-14.967-7.033-21.575-12.159 5.394 15.919 17.786 32.123 22.91 48.691l-33.67-54.805c-1.794-6.221 9.614 5.221 10.76 6.114zm6.743-5.41c1.672-1.623 27.791 14.526 29.652 18.922l-26.888-14.27-2.778-4.639.014-.013zm5.393 16.244c4.895.987 8.32 4.504 13.134 6.424 7.416 2.949 15.035 3.571 22.303 6.032 2.387.812 7.646 2.949 9.048 5.1-15.723.568-32.511-7.791-44.485-17.556zm12.433 21.316c-.337-.501-3.358-11.375-2.98-11.862 5.933 1.745 7.672 7.899 8.063 13.512-.499.514-4.611-.947-5.083-1.664v.014zm32.066-9.157h24.271l-19.606 3.422-4.665-3.422zm6.742 4.071l17.516 8.778c-1.807 2.8-3.169 1.515-5.353 1.447-6.945-.23-15.871-.568-20.267-6.154l16.167 2.678-8.077-6.735.014-.014zm-44.499 5.41c6.581 1.813 12.891 4.193 19.714 5.235 3.736.568 13.593-1.935 12.635 2.867-2.225 1.691-30.029-2.475-32.362-8.102h.013zm39.105 5.41c13.457 4.288 27.818 10.577 39.104 18.909-2.17.243-4.153-.514-6.121-1.285-7.026-2.786-22.91-10.185-29.275-13.918-1.483-.865-3.344-1.853-3.708-3.706zm-16.181 4.044c6.877-3.205 8.967 8.792 4.692 10.794-2.373.717-3.128-4.234-3.587-5.83-.458-1.596-1.658-2.935-1.105-4.964zm52.589 9.482l20.213-8.129c.741 3.598-.917 2.326-2.657 3.354-3.587 2.124-9.156 4.91-13.161 5.789-1.348.298-4.746 1.353-4.395-1.028v.014zm-10.788 8.115c6.675 1.244 15.413 8.859 14.819 16.217l-14.819-16.217zm20.227 2.705c10.342.96 14.994 11.686 22.923 17.556l-19.552-12.159-3.371-5.397z" fill="#CFC7BF"/><path d="M61.744 265.613c-15.65 10.53-31.47 15.374-50.54 13.496-9.648-.939-12.915-3.888-19.41-5.78-5.264-1.533-14.473 3.514-25.47-1.384-10.999-4.898-14.97-19.908-21.44-26.107-4.38-4.206-11.572-6.682-16.344-12.213-3.153-3.665-9.547-18.684-9.858-23.217-.189-2.825-.39-13.685-.238-16.647.55-10.993 6.393-13.894 7.381-18.552.505-2.395-1.277-5.311-.845-8.06.85-5.504 3.577-16.082 5.705-21.12 2.711-6.361 9.869-9.107 11.266-13.808 1.465-4.957-.492-14.276.788-19.907 3.1-13.618 22.33-22.93 29.526-33.79 8.684-13.111 6.272-24.716 23.055-35.034 5.351-3.29 13.107-1.548 15.594-9.462l.927 7.869 4.367-4.911-.101 6.069 3.206-.695-4.062 9.58 2.57-3.899 3.034 2.398c3.165-4.41 9.605 3.381 11.674-6.047l.432 4.535 5.53 1.62c3.837-20.127-6.54-31.214-24.346-17.193 2.136-10.477 15.125-6.86 20.196-8.763 1.104-.42 2.079-2.521 3.505-3.176 7.384-3.417 10.666.389 16.388 4.483l-2.91 5.225c7.016 1.027 12.038 2.723 18.063 6.425l-2.93 8.314 4.421-7.96 1.298 6.43c1.476-5.793 4.305-10.66 1.355-16.388l3.2 2.35c-3.497 11.455 4.939 13.335 8.7 23.837 1.55 4.348 3.75 9.175 4.933 12.784 1.752 5.362-.813 23.589-.052 24.677 1.012 1.46 7.913 1.892 9.156 7.33.926 4.059-1.96 11.699-1.188 14.512.246.904 3.392 2.768 4.365 5.285 2.965 7.607 1.546 30.668-2.071 38.416l10.354 5.137c-.616 11.464-1.296 24.252-3.877 35.419-1.036 4.493-4.666 9.616-5.452 15.396-.335 2.501 3.786 4.032 1.464 10.588-4.298 12.17-28.303 39.192-41.35 41.884 2.364-1.592 29.27-22.137 19.725-25.167-6.937.443-6.072 5.811-9.76 10.126-4.466 5.221-12.683 10.441-15.838 14.245-.449.535-.98 2.236.133 2.291 1.807-1.848 3.997-1.139 5.744-1.509l.027.068zM49.6 24.976c-3.47-4.359-7.977-2.396-11.888.244l6.383 13.126 5.847-9.864-.342-3.506zm4.009 31.038c1.025-.41 10.623-11.693 10.047-14.439-.147-3.834-7.279-6.766-10.77-6.772-4.73.287-5.124 12.573-6.843 16.258l5.1-7.763-3.02 11.384c1.825-.944 4.817 1.61 5.504 1.322l-.018.01zm20.784 8.74c3.684 2.648 9.888-8.95 9.579-9.673-5.334-6.397-12.825-5.54-20.22-6.636l-7.204 14.59 4.367-4.91.266 4.643c4.93 1.641 5.716-3.513 6.57-7.384l-.859 8.9 5.38-.038 2.596-6.955-.479 7.477.004-.014zM3.85 71.777c-.369-6.591 5.881-10.846 7.364-15.584C15.122 43.827-.2 42.084-8.195 49.894c-1.53 1.496-10.296 13.717-10.545 14.931-.073.33 3.395 2.815 2.233 6.07l7.292-7.176.651 3.208c6.175 2.462 4.19-6.132 7.961-6.997l-2.037 8.401 6.49 3.446zm34.81 12.36c2.624-8.426 11.377-11.888 7.04-21.493-4.336-9.606-21.329-15.53-26.065-4.058-2.339 5.653-.452 12.102-4.772 17.636 5.22 2.724 4.011-8.65 8.328-8.422l-4.82 12.41 3.576-2.075-.794 5.869c5.956-2.702 8.04-9.795 9.554-15.73l-2.929.51-.137-8.937c1.107 6.912 7.262 8.423 13.035 11.129-.388 2.472-3.536.332-5.08 2.617-1.542 2.284-1.549 6.352-2.6 9.027 5.07 3.279 3.524-8.2 5.833-7.597l-.17 9.114zm21.946-7.836c7.211-.156 18.133 12.997 22.167 1.87.917-2.513-3.358-8.475-5.624-9.585-13.979-6.809-19.257.48-25.02 12.363l1.917 2.754 3.325-6.715c-.433 7.993-7.757 13.179-7.107 20.943 3.916.302 3.01-6.966 3.81-8.581.525-1.048 2.798-.195 3.354-1.19 1.279-2.324 2.412-11.394 3.184-11.827l-.006-.032zm35.399 32.133c5.113-23.122-15.385-11.925-14.936 5.357 5.04 1.685 6.218-5.269 8.371-8.411l1.432 3.538 5.137-.498-.004.014zM75.418 94.231c-8.047-5.266-18.309-4.372-22.542 5.162-1.496 3.364.965 1.752 2.66 1.46l-4.191 15.642c1.148 2.777 2.693.539 3.46-1.359 2.14-5.31.623-11.432 2.945-16.738 5.862 11.599 20 9.733 17.672-4.181l-.004.014zM7.905 77.878c-3.754-7.056-24.386-7.54-16.772 4.24 2.383 3.686 11.414 3.058 9.172 8.523-3.034-2.794-7.816-3.222-10.42-6.602-3.047-3.941.277-7.806-3.201-10.765l-7.71 11.636 7.961-6.996-4.008 9.55c5.496.496 4.484 4.218 3.734 8.666l8.673-6.805-2.232 5.483 5.38-3.116-2.94 5.279 6.974 2.783c4.814-4.7 8.535-15.912 5.36-21.883l.029.007zm27.4 35.858c-.453-6.339 6.196-10.319 7.764-14.517 2.797-7.48-12.215-14.307-18.642-13.606-9.777 11.95-1.402 19.865 12.502 16.366-2.842 3.887-6.264 7.039-1.625 11.757zm56.654 10.593l5.23-13.824-9.334 1.416.57 11.477 4.389-7.954-.86 8.899.005-.014zm6.914 14.046c1.774-6.734 5.683-15.517-.334-21.412-.628 5.136-5.79 12.44-1.373 16.397l2.185-2.462-.478 7.477zM-25.4 89.85c-6.02-1.445-11.66-.777-14.544 5.202-2.883 5.979 2.466 7.138 2.378 10.88-.06 2.788-4.118 6.547-3.977 10.06 9.903-4.053 14.03-16.207 16.128-26.146l.014.004zm49.997 24.05l1.697-8.781-6.132-3.076-3.048 11.376 5.143-7.751c3.61 1.669-3.853 8.173 2.34 8.232zm52.474 3.422l-6.86 2.719-1.349-3.394-3.687 5.108-3.78-2.628 2.119-2.389-6.419.841-3.563 19.331 4.752-6.347 4.486 8.822 3.26-3.683-3.017 11.369c2.857.613 2.364-5.006 3.454-7.137.986-1.915 16.39-9.249 19.988-6.395 2.386-1.617-3.334-15.967-5.93-9.179l.439-4.486-6.822 2.745 2.925-5.282.004-.015zm-72.44 14.106C18.71 104.047-19.7 81.44-28.64 113.383l3.22-.691c-3.33 5.6 3.594 3.614 2.408 8.265 4.353.267 4.832-9.663 5.877-10.603 2.771 4.004 6.578 5.512 11.387 6.237 3.537.521 1.733-2.996 4.237-2.035l-3.397 12.792 2.879-2.262 2.404 5.201 5.23-13.824c-.508 4.573-5.286 11.188-.96 14.968l-.014-.003zm23.851-14.947c-5.064-1.311-8.003 3.738-10.975 6.63-.785.766-2.541.432-2.742.668-.448.535-4.848 11.489-5.34 12.987-.847 2.532-1.514 4.396.395 6.721l6.337-15.052-.671 7.913 3.01 3.337 5.791-7.548-.55 13.555c4.302 2.387 4.188-5.157 6.552-7.374l.9 3.015c23.626 6.559 15.873-23.882-1.273-24.453l.438 3.943-3.005-.058 1.144-4.266-.01-.018zm42.306 24.291l-5.906 22.041 2.951-5.321c3.01 1.751 5.683.654 5.614 4.613 4.386 2.532 4.299-2.551 7.555-2.578l-1.873 7.104 3.957-3.497.183 10.703c3.19-5.41 4.513-9.78 2.775-15.992 6.677 1.042.49 7.737 3.397 10.04l4.877-12.395 2.311 2.875c1.371-3.809-.113-19.219-3.03-21.144-5.082-3.008-20.035-1.741-22.819 3.579l.008-.028zm-94.114-13.574c-5.004-4.953-10.358-10.304-18.284-7.993-2.73.793-1.92 3.86-4.288 4.902-1.76.763-2.985-1.272-3.89-.341-2.665 2.715-1.564 8.512-4.576 11.668 3.264 2.277 3.103-1.333 3.756-1.493.854-.229 2.433 1.566 3.408.547 1.796-1.866 1.006-6.147 3.64-5.274l-2.254 8.526 4.338-4.919-3.016 11.37 3.958-3.497c.921 3.051-3.98 12.117 1.24 12.51 1.076-3.507 1.766-7.163 2.86-10.68.533-1.701.337-5.579 2.736-4.571-.82 3.575-2.051 7.087-2.847 10.684-.39 1.739-2.5 5 .083 5.326l3.454-12.777.916 7.851 2.035-13.172 2.652 1.488 4.1-10.119-.021-.036zm82.037 41.567c1.796-22.701-30.94-36.99-35.568-9.53 3.224.437 3.333-9.761 7.041-7.091l5.28 6.597-6.912-2.614-.463 7.481 3.957-3.497-.802 5.897 2.883-2.276-.016 5.468 6.007.695-.073 6.077 5.133-7.77 2.434 2.192 1.552-5.681 1.47 3.565 8.105.495-.028-.008zm50.117-4.861c-10.021-5.413-22.022 10.454-24.573 18.61-.363 1.183-.855 5.41 1.282 5.632l3.325-6.714-2.667 9.954c.977 1.588 8.242-1.328 10.419-1.766l1.348 3.395 2.311-8.511.916 7.851c5.35-9.205 5.239-18.471 7.621-28.44l.018-.011zm-96.913 3.021c8.542-12.068-5.079-23.232-15.235-28.483l-2.243 5.526.439-4.485-2.12-.569-2.208 2.488-.643-3.236c-10.189 3.808-5.434 9.121-6.422 13.947-.319 1.53-2.344 3.167-2.646 5.434-.065.47 3.78 8.267 4.22 8.675.985.934 3.756 1.067 5.009 2.485l2.584-3.895-1.593 11.751c4.727-.731-.02-9.715 5.482-9.185l.284 4.633 2.667-9.954c-4.413 1.042-7.632-4.026-9.97.376l-4.9-7.393 15.901 5.617-1.09 7.481 2.571-3.899 3.857 2.573 1.93-7.089-.116 6.066 4.256 1.14-.014-.004zm-71.574 5.178c1.594-9.708 17.794-19.725 10.546-30.705-5.383-8.149-19.057 2.407-19.994 8.863-.743 5.165 12.245 5.597 12.5 10.451-3.044.602-13.028-6.203-14.453-3.049l1.172 7.127 2.567-3.885c5.266 2.661 2.884 6.427 3.025 11.48l3.325-6.715 1.298 6.429.014.004zm134.09 17.64c11.528-19.682-32.939-26.628-30.703-8.669.05.379 2.403 6.801 4.265 6.172l-.015 4.553 4.338-4.919-.802 5.897 4.701-3.312-.11 6.051 2.943-5.292-.097 6.055 6.552-7.374-1.212 10.329c2.278 1.006 2.496-3.05 2.811-4.627.754-3.669.202-7.414 1.377-11.001l.284 4.633 4.69-3.331.978 4.835zm-110.267-32.595c-6.937-1.553-7.466 3.212-12.409 6.628 2.27 4.678 4.627 3.968 8.982 6.217l-6.066-.132-1.905 7.11-2.06-3.585-1.902 7.096 4.31-1.908L-45.53 182l.492-7.473 2.797 3.797 2.886-2.29c-.857 3.596-3.437 8.331.183 10.703l1.865-4.058 3.727 11.653.612-13.554 3.378 10.05 1.269-10.313 2.72 6.81 1.93-7.088.7 6.269c19.621 6.476.556-22.058-5.012-27.238l-2.189 2.477-.632-3.279c-5.65-3.053-2.445 2.865-6.132 2.96l1.105-4.292-.004.014zm63.362 38.789c1.11-1.121 3.972.606 5.38-4.305 1.407-4.912-3.694-14.966-7.6-17.415-5.326-3.347-24.922-8.72-23.552 2.164l-2.444-2.21-7.052 14.876 5.897.254.82 3.085 3.325-6.714-2.258 8.539 5.284 2.94 2.185-2.462.284 4.633 1.93-7.088 1.395.373-1.873 7.104 1.395.374 3.324-6.715.579 9.285.492-7.474 2.725 6.796 1.396-2.308 1.824 1.677 1.933-7.102-.478 7.477c2.681.414 3.236-3.934 5.075-5.788l.014.004zm68.353 16.349c5.993-11.776 2.674-15.501-9.766-17.92-15.604-3.022-16.471 8.07-19.94 20.614 5.187 1.938 6.496-8.7 7.696-11.64l-2.002 13.165c2.738 6.632 5.634-11.689 6.276-12.035l4.248 1.168-3.496 1.548-2.377 9.041 4.03-6.556 1.635 8.074 3.705-8.137c.788 2.071-5.916 12.117-2.696 12.965 3.623.94 2.36-9.717 3.767-11.154l2.72 6.811 4.878-12.395-.877 8.909 5.693 1.526-.367-4.61-3.127.626zm-48.686 5.213c10.2 7.077 10.005-11.265 3.913-16.083-8.248-6.508-26.22-4.51-26.336 8.566l-2.433-2.191-1.525 5.688 3.735-1.697 2.307 1.807 1.524-5.688c5.779 4.566 9.53 6.165 17.08 4.576-2.829 4.805-7.46 2.391-7.29 10.24l5.38-3.116 1.327 6.437 2.318-8.539zm50.376-.188l-2.107-.565-5.869 7.557-2.06-3.585c-.2 2.797-9.2 7.807-2.095 7.821l-5.704 9.903 4.526.298.419 4.075c8.322-4.872 14.945-15.184 17.16-24.36l-4.31 1.908.054-3.049-.014-.003zm-140.657-10.27c1.055-17.657-25.629-47.988-33.267-18.059l4.457.447-2.092 7.807-2.074-3.588-1.52 5.674 4.626-.3.005 5.503c1.228 1.564 5.192-1.672 5.547 5.144l2.433-17.622 8.548 2.26c-1.43 4.936-3.722 9.336.129 13.752l1.908-7.125c.847 4.525 4.743 7.749 8.752 9.981l-1.592-11.08 4.14 7.206zm44.649.746c-.9-5.012.326-9.301-5.916-12.879-12.908-7.391-34.026-1.222-32.36 16.873l5-1.693c-.917 4.556 2.023 5.541 5.987 6.177l3.314-6.733-2.254 8.526 4.338-4.919-.91 11.934 4.827-9.36 2.722 6.81 4.086-9.559-1.961 8.345 3.568 2.739 1.592-8.733c.271 4.112.26 5.922 3.81 8.611l2.864-2.205-2.343-8.278.266 4.643 4.482.409c-.664-2.815.755-6.062.596-8.543-.08-1.241-1.648-1.707-1.73-2.201l.022.036zm70.007 26.912c7.646 8.755 11.644-8.555 7.904-12.361-3.74-3.806-21.848-3.461-25.804-.879-4.72 3.095-6.11 11.989-7.543 17.107l3.267-3.712 2.412 5.234 2.24-5.512-.803 5.897 3.573-2.061-.37 2.462 3.736 1.199 3.478-6.43-3.207.696c-1.498-4.258 8.18-6.389 9.007-5.208 2.095 3-3.512 2.291-3.859 2.96l-.552 5.019 2.08-2.354 3.287 2.252 1.15-4.294.004-.015zm-129.812-39.355l-4.255-1.14c-1.605 5.133-4.522 12.094 2.25 14.32l2.005-13.18zm93.252 44.8c.286-11.598-14.338-21.354-24.6-19.714-1.689.264-2.342 2.36-3.179 2.638-.966.305-2.219-1.966-5.101.706-2.635 2.434-4.2 6.45-5.146 9.87l9.061 6.375c1.406-1.147.745-10.18 4.087-9.559-1.17 5.052 4.803 5.418 6.839 8.692-1.2 1.004-5.156-.285-6.386-.934-1.576-.834.934-3.484-1.568-3.484l.155 10.695 2.562-3.87c-1.407 4.911-.51 2.073 1.743 2.037 2.817-.038 5.44-.265 8.224.618l-2.078-3.574 15.384-.481.003-.015zM-22.8 233.8c3.226-12.777-10.38-23.373-21.756-15.813-4.435 2.942-9.738 9.584-5.387 14.636l4.087-9.558-3.43 12.798c3.1 1.074 4.488 1.812 5.057-1.678l.665 3.211c3.67.252 5.509-4.56 2.585-6.913-2.924-2.353-1.933 3.171-4.274 1.888l1.52-5.674c3.404 3.579 6.903 2.932 11.358 3.043l-.514 10.516 3.77-11.167-.478 7.477 4.4-1.047.348-5.286 2.06 3.585-.01-.018zm70.995 8.369c-9.755-2.477-22.653 3.928-26.27 12.759l5.068-4.738.597 6.256 4.435-7.956-1.564 8.741 5.003-1.708 2.085 3.607 3.072-11.355-2.002 13.166 4.367-4.911 3.12 5.378 1.902-7.096 10.864 4.145 2.538-2.871-8.197-12.103-3.566-.925-4.838 12.421 3.397-12.792-.01-.018zm-120.653-28.961c-.114-.259-5.783-4.948-5.511-1.065 1.866 6.871 5.805 12.834 10.54 17.99.85.928 3.206.447 4.12 1.363.859.839 1.076 4.982 3.658 6.162l2.175-2.481c.085 4.123 1.764 3.719 5.642 4.56l-4.783-13.459-2.865 2.265c1.719-7.724-4.999-8.67-9.462-13.25l-4.289 1.945c.21-1.239 1.25-2.957.79-4.026l-.015-.004zm77.146 43.198l3.783-5.067c-3.769-11.496-21.058-23.033-29.948-11.089l-1.348-3.394c-4.318 1.541-5.575 4.694-6.222 8.987l7.483.481-1.118 4.288c6.97-.221 10.852 2.938 16.673 5.976l-2.077-3.574c4.778-1.097 4.453 2.336 8.148 3.692l4.05-6.52-2.066 4.75 2.652 1.488-.01-.018zm13.564.617c-9.217-3.918-12.67 3.387-15.15 11.166l3.957-3.496c-1.908 4.503 2.815 2.247 5.565 4.508l2.342-5.438 2.721 6.81 2.31-8.51-.858 8.899 5.449-6.16c1.216.356-2.843 9.358 4.481 8.837 3.737-8.083 1.203-12.801-7.64-14.409-3.507-.634-1.806 3.037-4.278 2.07l1.097-4.263.004-.014zm-33.782 12.271c3.414-7.164-3.755-12.743-9.733-14.801l-2.286 8.532 4.256 1.14 2.933-5.311c-2.643 6.105.106 7.345 4.834 10.425l-.004.015z" fill="#CFC7BF"/></svg>