<svg width="1919" height="433" viewBox="0 0 1919 433" fill="none" xmlns="http://www.w3.org/2000/svg"><g clip-path="url(#clip0_2005_36)" fill="#fff"><path d="M646 343.883c1.49-.34 6.24-18.023 8.99-14.969-.49 3.532 6.86 20.727 10.49 19.948 2.64-.559.47-4.59.74-6.217.56-3.363 4.33-7.913 6.16-10.857l5.6-12.853c.96 3.921 2.37 8.761 4.13 12.344 2.03 4.121 9.77 10.797 4.88 15.098 1.54 1.447 5.32-3.023 6.43-4.56 1.24-1.707 3.87-6.257 3.07-7.914l-8.5 3.972c1.97-5.448 9.97-6.975 10-12.953l-4.99-.499c9.44-7.394 9.07-20.737 16.5-29.438 3.76 10.398 6.9 23.321 17.49 28.949.27 1.637-1.35.928-2.47.988-2.5.12-5.03-.1-7.52 0l10.99 11.466H721c2.45 5.16 6.32 8.772 10.99 11.975l-6.49.489-.5 1.986 12.97 8.632c1.82.848 5.65-3.173 6.43-4.62.78-1.447-.57-3.243-.27-4.471 1.5-6.147 4.36-8.073 6.41-12.434 1.53-3.253 3.18-10.588 4.76-12.713 1.37-1.857 4.95-3.004 6.89-6.587 2.74-5.059 5.48-14.959 6.8-20.667 4.85 5.03 5.1 13.562 8.6 19.839 3.69 6.616 4.54 4.141 6.68 12.444.38 1.467 2.44 2.106 2.75 4.181.44 2.924-2.27 4.92-1.33 7.135.46 1.088 5.97 6.946 6.81 7.265 1.55.589 5.06-6.436 6.31-7.644-4.02-5.698-.77-5.927.6-9.36 2.82-6.996 4.63-7.076 7.43-12.544 2.8-5.469 5.29-14.091 7.13-20.328l9 21.945c2.78 2.604 3.72-9.99 5.97-9.97.89 3.733 2.45 10.019 4.24 13.243 1.97 3.552 9.87 9.849 4.78 14.2 2.94 1.108 6.25-3.463 8.99-5.009l-3.99-1.976c4.15-4.701 10.71-8.483 10.98-15.468l-7.5 4.98c-1.08-4.88 6.85-8.563 9.5-12.484l-5.98-2.465c8.41-.829 11.28-27.832 17.48-27.962 2.73 10.738 7.43 21.705 16.5 28.451l-8.99.499 9.99 11.466-6.99-.499c1.57 2.026 7.09 12.434 10.03 10.508l5.96-12.504 4.93 12.344c3.44 3.792 6.18-9.65 9.48-11.456l4.59-10.867c.34 7.903 9.63 16.655 10.81 22.742.39 2.016-.92 3.533-.31 5.15.52 1.367 5.3 5.718 5.5 6.556l-2.96 3.932 3.48 3.482c4.88-2.963 2.37-4.55 2.62-7.494.42-5.019 5.51-10.488 7.73-15.068 1.43-2.944 2.29-6.188 3.16-9.331l5.78 13.671 7.2 11.257c-.88-5.04 4.34-6.327 5.91-10.578l6.09-16.356c2.33 5.429 3.46 11.915 6.48 16.985 1.35 2.265 4.96 5.388 5.32 6.686.28 1.018-.61 2.305-.22 3.303.39.998 2.39 1.577 2.43 3.433.03 1.606-1.9 2.934-1.57 4.6.72 3.623 6.37 6.147 6.56.918l-3.99-.499c3.86-4.6 11.5-8.831 10.5-15.467-.15 1.257-9.09 6.356-7.5 2.504l9.98-10.009-5.98-2.465c9.44-5.428 10.04-20.078 16.01-28.949 1.51.139 1.54 1.497 1.94 2.544 3.85 9.97 6.49 20.577 16.04 26.904l-8.99.509 6.38 6.916 8.61-15.907c.87 3.722 2.46 10.039 4.24 13.242 2.18 3.922 9.79 9.7 4.79 14.201l2.98 1.497 4.51-12.963 4 9.969 3.48-7.974c.07 7.136 6.5 12.564 8.23 18.262.61 1.996-1.01 4.122 1.28 5.679l7.99-16.975c2.01 5.608 4.12 10.568 7.42 15.548.56.848-.1 2.844 2.1.928 1.09-.948-.06-2.336.5-3.433 1.11-2.166 4.28-4.77 5.96-8.063 2.06-4.032 3.67-9.471 4.53-13.951l8.49 17.932c4-2.195 1.31-4.6 1.63-6.516.97-5.988 3.73-7.475 6.08-11.716s2.56-8.911 5.3-12.683c1.51 3.961 2.24 8.951 4.29 12.673 2.27 4.122 5.51 5.249 6.8 11.297.49 2.305-1.64 2.804-1.16 3.952.42.997 3.35 3.572 4.09 4.999l6.47-4.98-4.99-1.995c3.28 1.506 13.85-15.069 10.5-13.981l-7.5 3.981c-1.42-1.397 9-9.929 9.99-11.486l-1.55-2.425-4.44.45c9.39-7.245 9.94-19.869 16.01-29.439 1.51-1.048 4.92 11.626 5.51 12.953 2.73 6.197 7.13 13.222 13.47 15.997l-9.98 1.467 9.99 10.997c-1.01 1.606-7.01-2.495-5.98.978l8.49 9.5 5.51-14.959 6.5 14.949c6.56 2.634 3.29-5.189 3.66-8.253.33-2.674 2.85-2.724 2.84-3.283-.01-1.008-1.2-2.246-.87-3.722.14-.649 5.72-6.547 7.04-9.002 2.67-5.019 4.51-12.065 5.84-17.633l9.13 21.306c4.97 3.413 6.14 8.931 7.87 14.609 2.5-.469.84-2.744 1.51-3.932.67-1.187 2.3-1.975 2.92-3.113 2.52-4.67 4.95-9.52 5.56-14.899l7.12 15.328c6.21 5.588 3.64.21 4.3-2.405.61-2.395 3.79-4.042 5.01-6.007 3.63-5.868 5.88-13.223 7.57-19.899 2.56-.399 1.55.23 2.09 1.397 2.76 6.087 4.31 15.368 8.5 20.467 1.02 1.248 3.32 1.847 3.97 3.114.94 1.826-1.58 4.76 2.44 5.968v156.673H646V343.883z"/><path d="M1963.95 231.482c5.14-5.013 9.18-15.551 11.48-24.049 4.03-14.914 2.37-38.283 12.38-43.913-2.5 17.676-6.77 83.471 3.65 93.265 3 2.825 8.43 1.848 8.88 2.485 2.78 3.888-1.04 44.296 12.7 34.842 3.28-2.252 4.22-9.518 7.03-11.621.81 9.921 6.41 17.994 9.05 25.6 2.64 7.605.35 18.483 10.62 16.889-3.02 8.179 1.19 15.679 4.2 22.307 2.09 2.974 1.85-6.203 5.1-7.159 8.51-2.486 6.91 23.411 7.86 30.018 2.01 13.958 16.36 74.019-2.57 78.077-19.89 4.27-48.44-2.91-70.09-2.018-49.23 2.061-99.27 13.83-148.67 8.562-184.45-19.652-378.72 4.27-564.15-2.019-13.86-5.396-52.24-.425-62.79-12.725-5.9-6.862-3.57-64.225-.33-72.638 1.45-3.761 1.7-.935 2.81.063 4.63 4.186 8.27 12.386 14.75 10.623-3.72-17.91 9.33-25.027 12.37-33.333 1.79-4.865.93-12.959 2.94-16.805 2-3.845 6.65-2.613 9.6-4.589 5.36-3.569 12.85-22.03 15.82-30.231 4.06-1.912 6.53 10.325 7.96 10.75l19.27-6.267.95-3.421c.45-3.909-4.32-18.865.52-18.015 12.44 2.167 9.34 19.439 12.82 21.117 11.16-8.349 13.04-.616 22.29 6.459l2.16-5.29c-7.9-9.199 6.69-27.449 6.66-29.722 0-1.232-2.82-3.93-2.59-8.434.21-4.121 3.64-5.842 4.29-10.75 1.4-10.707-4.17-22.455 3.54-30.741l3.43 15.976c1.17 15.296-4.32 31.166 11.23 28.787l.07 6.161 3.55-2.103-.06-25.494c4.33 6.522-.71 20.522 7.71 21.223l4.21-21.223 4.3 48.757 4.12.106 1.43-14.872 3.49 8.477 2.01-5.417 4.29 1.189.7-27.618c5.97 6.586-.04 29.488 9.14 24.41v-13.809h4.17c1.74 8.519.94 17.442 1.78 26.025.18 1.827.63 6.395 2.43 5.8.04-7.712 7.26-5.099 10.51-10.644 3.24-5.545 1.58-18.313 9.14-16.974l-4.11-9.242 5.5-11.939-4.16-3.229c3.12-5.758 6.38-15.891 5.58-23.221-.34-3.123-2.68-5.608-2.55-8.285.22-4.61 6.02-12.938 3.97-20.523 2.37.85 2.28 6.331 4.14 9.688 1.16 2.124 4.23 2.571 4.29 4.27.14 3.718-1.68 15.679-.98 20.777.85 6.14 4.85 12.471 5.05 19.588.2 7.117-2.81 17.718-2.4 24.835.95 16.401 10.31 10.091 5.35-3.781l2.05-2.847 3.41 1.827 3.6-14.85c1.78 6.246 1.64 14.34 7.69 12.747 1.14-5.906.9-12.322 1.45-18.037.28-2.911.54-6.395 2.75-3.187.32 14.744 5.99 26.259 5.64 40.365 9.67 2.719 7.27-13.703 11.92-21.223 3.05 5.672 3.69 13.065 7.79 17.909 6.65 7.86 3.66-1.147 8.32-.935.37 8.625 9.66 11.812 12.03 4.207.73-2.337-.98-9.136-.2-14.935.79-5.8 5.63-27.767 8.56-29.637 6.36 6.267.79 19.482 1.33 21.266.29.892 6.92 13.639 8.02 15.551 1.25 2.21 1.37 4.44 3.97 3.527-.32-18.143 1.15-32.398 12.68-41.47v-4.206l-2.89-2.103.04-4.271c.86-3.25 5.63-1.614 4.21-7.414-10.94-.977-2.76-10.899-1.71-18.547 1.05-7.648-1.74-17.951 3.1-21.839 2.04 11.174-1.27 18.631 7.05 22.349-2.58 3.059-3.08 19.8-2.08 22.35 1.99 5.141 11.32 5.842 3.51 20.097 1.65 5.035 6.44 1.891 8.17 3.484 1.93 1.785.61 15.148 2.28 20.905 5.52 19.057 11.61 8.285 11.89-7.754.15-8.604-2.3-7.67-4.13-14.489 7.5-5.885 4.18-7.117 4.77-14.51 1.45-18.122 3.05-38.05 5.19-55.406.76-6.14 2.43-11.983 2.68-18.25 2.03-.51 1.9 3.676 2.38 5.906 3.94 18.504 5.19 38.326 5.97 56.639.38 8.88 4.97 19.12-2.75 23.475 2.32 6.395 16.14 8.328 15.31.255l-4.08-11.897 6.4-4.249-2.11-13.639 5.52-6.565-4.21-8.455c5.51-9.326 2.27-13.235 2.72-21.266.58-10.516 2.55-20.841 1.52-31.91l2.79-3.144c-.4 7.053 3.55 14.638 3.98 20.756.33 4.568-1.41 8.732-.95 11.77.24 1.593 10.07 18.525 10.99 23.773-2 5.906-4.61-.999-6.99 2.103 10.09 9.199 7.46 47.099 12 56.192 1.68 3.378 4.93 4.674 7.63 4.355-4.46-14.552 2.62-24.686.74-38.495l6.26-20.969c-1.09 9.815 4.66 18.377 5.54 26.684 1.01 9.624-4.68 35.308 5 26.428 1.4-6.883 1.43-14.361 2.83-21.245.41-2.018.24-4.843 2.08-4.227 3.04 12.3 8.85 22.243 9.13 36.095l6.35-21.224c3.62 1.7 2.78 8.222 2.8 12.747 6.7-7.011 12.7-1.827 18.99-12.662 6.28-10.835 4.21-17.888-4.97-10.729.94-4.015.87-11.727 2.12-14.828 2.01-4.929 8.22-3.442 8.92-4.547.41-.637-.04-6.267 2.15-10.558 2.84-5.524 11.14-6.204 11.79-11.791l-1.17-7.096c-1.54-1.721-15.81 10.644-19.59 1.041 8.75-6.564 9.97-17.208 14.65-26.641 2.32-4.652 9.03-9.9 9.92-12.64 1.97-5.991-.98-10.623-.53-13.661.45-3.038 14.58-12.3-2.78-14.34l-1.65-8.115c9.4-.574 10.93-13.533 16.5-22.286l-2.43-8.37 5.52-8.71c-6.94-5.376-11.83-18.569-1.35-20.183l-3.99-9.135c6.23-12.429 1.56-25.154 4-39.707h4.2c.45 10.431.18 24.984 1.47 34.969.82 6.373 7.44 18.228 8.08 26.046.36 4.249.33 17.25.43 22.902.05 3.93-1.69 8.498-1.59 10.452.1 1.955 4.46 2.04 5.43 6.968 1.23 6.268-1.92 13.087.24 19.758 10.96-11.876 6.17-33.375 11.91-48.82 2.54-.149 2.86 25.663 3.85 30.252.52 2.38 3.14 7.903 4.6 3.739-.24-10.155 4.91-21.924 4.84-31.166-.04-5.29-2.97-7.18-2.57-11.876.69-7.796 5.91-24.176 7.54-33.46 1.2-6.862 2.07-14.106 2.1-21.245 4.37-7.711 7.3 27.534 7.69 29.764.56 3.25 3.13 5.651 3.54 9.688.6 5.927-2.08 11.727-1.22 16.38.5 2.74 3.2 4.29 3.46 6.734.34 3.187-1.22 11.302-.85 17.123.43 6.756 2.93 12.067 2.93 19.099 0 5.524-2.67 13.023-2.51 14.935.25 3.187 3.67 3.973 4.78 5.885 4.69 8.116-3.93 15.296-2.38 18.462l6.92 5.566c-6.82 22.285 6.84 13.002 4.5-5.205l9.6-.319c4.57-15.848-7.29-20.055 5.61-30.826-10.38-12.98-1.11-21.372 1.82-31.485.94-3.271-.49-7.01.99-8.901 2.58-3.293 2.19-1.339 2.99 1.848 2.65 10.601-.93 22.626 6.17 31.081 4.85 1.891 5.77-24.92 6.31-29.742 5.03 7.244 7.97 10.303 15.41 8.476.86-7.35-7.3-3.293-6.79-11.28 7.52-17.06 5.92-35.586 8.22-54.557 2.7 4.228 5.99 19.184 6.68 24.941.98 8.158-2.29 32.335 6.64 32.505 2.92.063 1.61-.404 2.27-3.017 1.7-6.82 4.41-39.515 7.55-41.661 4.79 6.246.97 22.817 7.7 23.348L1912.04 0c5.68 6.352.21 24.304 9.1 27.682 1.36-3.144-.15-5.396 3.51-4.313v31.867l3.52-.191 4.9 32.058 4.92-4.206 10.5-21.266-1.42 22.137c9.57 8.222 1.6 21.202.33 30.38-1.93 13.809 6.6 32.695 7.71 48.969.85 12.301-4.12 38.963 8.82 32.356v36.116l.02-.107zm-593.6 38.304c-6.73-.764-10.32 8.987-14.72 14.766 5.19 29.721 21.51 6.968 14.72-14.766zM-45.953 231.482c-5.136-5.013-9.177-15.551-11.478-24.049-4.028-14.914-2.372-38.283-12.377-43.913 2.498 17.676 6.764 83.471-3.648 93.265-3.003 2.825-8.433 1.848-8.882 2.485-2.779 3.888 1.038 44.296-12.699 34.842-3.283-2.252-4.224-9.518-7.03-11.621-.814 9.921-6.413 17.994-9.051 25.6-2.638 7.605-.351 18.483-10.622 16.889 3.017 8.179-1.193 15.679-4.195 22.307-2.091 2.974-1.853-6.203-5.108-7.159-8.503-2.486-6.904 23.411-7.858 30.018-2.007 13.958-16.361 64.019 2.568 68.077 19.897 4.27 48.438-2.91 70.09-2.018 49.238 2.061 99.276 13.83 148.668 8.562 184.45-19.652 378.723 4.27 564.155-2.019 13.863-5.396 52.241-.425 62.793-12.725 5.893-6.862 3.564-54.225.323-62.638-1.446-3.761-1.698-.935-2.807.063-4.63 4.186-8.265 12.386-14.747 10.623 3.718-17.91-9.332-25.027-12.377-33.333-1.782-4.865-.926-12.959-2.932-16.805-2.007-3.845-6.651-2.613-9.598-4.589-5.36-3.569-12.853-22.03-15.828-30.231-4.055-1.912-6.525 10.325-7.956 10.75l-19.266-6.267-.954-3.421c-.449-3.909 4.322-18.865-.519-18.015-12.447 2.167-9.346 19.439-12.826 21.117-11.155-8.349-13.035-.616-22.282 6.459l-2.161-5.29c7.9-9.199-6.694-27.449-6.666-29.722 0-1.232 2.821-3.93 2.596-8.434-.21-4.121-3.648-5.842-4.293-10.75-1.404-10.707 4.167-22.455-3.536-30.741l-3.438 15.976c-1.165 15.296 4.322 31.166-11.226 28.787l-.07 6.161-3.55-2.103.056-25.494c-4.322 6.522.716 20.522-7.703 21.223l-4.21-21.223-4.308 48.757-4.111.106-1.432-14.872-3.493 8.477-2.007-5.417-4.294 1.189-.701-27.618c-5.964 6.586.042 29.488-9.135 24.41v-13.809h-4.168c-1.74 8.519-.94 17.442-1.782 26.025-.182 1.827-.631 6.395-2.427 5.8-.042-7.712-7.269-5.099-10.51-10.644-3.242-5.545-1.586-18.313-9.149-16.974l4.111-9.242-5.5-11.939 4.167-3.229c-3.129-5.758-6.384-15.891-5.584-23.221.336-3.123 2.68-5.608 2.553-8.285-.224-4.61-6.019-12.938-3.971-20.523-2.371.85-2.287 6.331-4.139 9.688-1.165 2.124-4.238 2.571-4.294 4.27-.14 3.718 1.684 15.679.982 20.777-.856 6.14-4.855 12.471-5.051 19.588-.197 7.117 2.806 17.718 2.399 24.835-.954 16.401-10.313 10.091-5.346-3.781l-2.049-2.847-3.409 1.827-3.607-14.85c-1.782 6.246-1.641 14.34-7.689 12.747-1.137-5.906-.898-12.322-1.445-18.037-.281-2.911-.548-6.395-2.751-3.187-.322 14.744-5.991 26.259-5.64 40.365-9.668 2.719-7.269-13.703-11.928-21.223-3.045 5.672-3.69 13.065-7.787 17.909-6.651 7.86-3.663-1.147-8.321-.935-.365 8.625-9.654 11.812-12.026 4.207-.729-2.337.983-9.136.197-14.935-.786-5.8-5.627-27.767-8.56-29.637-6.356 6.267-.785 19.482-1.333 21.266-.28.892-6.918 13.639-8.012 15.551-1.249 2.21-1.375 4.44-3.971 3.527.323-18.143-1.151-32.398-12.685-41.47v-4.206l2.891-2.103-.042-4.271c-.856-3.25-5.627-1.614-4.21-7.414 10.945-.977 2.764-10.899 1.712-18.547-1.053-7.648 1.74-17.951-3.101-21.839-2.035 11.174 1.277 18.631-7.044 22.349 2.582 3.059 3.073 19.8 2.076 22.35-1.992 5.141-11.323 5.842-3.507 20.097-1.656 5.035-6.441 1.891-8.167 3.484-1.936 1.785-.617 15.148-2.287 20.905-5.515 19.057-11.605 8.285-11.885-7.754-.155-8.604 2.301-7.67 4.125-14.489-7.493-5.885-4.181-7.117-4.771-14.51-1.445-18.122-3.045-38.05-5.192-55.406-.757-6.14-2.427-11.983-2.68-18.25-2.02-.51-1.894 3.676-2.371 5.906-3.943 18.504-5.192 38.326-5.978 56.639-.379 8.88-4.967 19.12 2.75 23.475-2.315 6.395-16.136 8.328-15.308.255l4.083-11.897-6.399-4.249 2.105-13.639-5.514-6.565 4.209-8.455c-5.514-9.326-2.273-13.235-2.722-21.266-.575-10.516-2.554-20.841-1.516-31.91l-2.792-3.144c.393 7.053-3.55 14.638-3.985 20.756-.323 4.568 1.417 8.732.954 11.77-.238 1.593-10.075 18.525-10.987 23.773 1.993 5.906 4.603-.999 6.988 2.103-10.089 9.199-7.465 47.099-11.997 56.192-1.684 3.378-4.939 4.674-7.634 4.355 4.463-14.552-2.624-24.686-.743-38.495L260 201.803c1.094 9.815-4.659 18.377-5.543 26.684-1.01 9.624 4.687 35.308-4.996 26.428-1.403-6.883-1.431-14.361-2.834-21.245-.407-2.018-.239-4.843-2.077-4.227-3.045 12.3-8.854 22.243-9.135 36.095l-6.342-21.224c-3.62 1.7-2.778 8.222-2.806 12.747-6.694-7.011-12.699-1.827-18.986-12.662-6.286-10.835-4.209-17.888 4.968-10.729-.94-4.015-.87-11.727-2.119-14.828-2.007-4.929-8.223-3.442-8.924-4.547-.407-.637.042-6.267-2.147-10.558-2.835-5.524-11.142-6.204-11.787-11.791l1.165-7.096c1.543-1.721 15.814 10.644 19.588 1.041-8.742-6.564-9.963-17.208-14.649-26.641-2.315-4.652-9.023-9.9-9.921-12.64-1.964-5.991.982-10.623.533-13.661-.449-3.038-14.579-12.3 2.779-14.34l1.655-8.115c-9.401-.574-10.93-13.533-16.501-22.286l2.427-8.37-5.514-8.71c6.932-5.376 11.829-18.569 1.347-20.183l3.985-9.135c-6.23-12.429-1.558-25.154-3.999-39.707h-4.196c-.449 10.431-.182 24.984-1.473 34.969-.814 6.373-7.437 18.228-8.082 26.046-.351 4.249-.323 17.25-.421 22.902-.056 3.93 1.683 8.498 1.585 10.452-.098 1.955-4.462 2.04-5.43 6.968-1.235 6.268 1.922 13.087-.239 19.758-10.959-11.876-6.174-33.375-11.913-48.82-2.54-.149-2.862 25.663-3.845 30.252-.519 2.38-3.143 7.903-4.602 3.739.239-10.155-4.911-21.924-4.841-31.166.042-5.29 2.975-7.18 2.568-11.876-.688-7.796-5.908-24.176-7.535-33.46-1.207-6.862-2.077-14.106-2.105-21.245-4.364-7.711-7.297 27.534-7.69 29.764-.561 3.25-3.129 5.651-3.536 9.688-.603 5.927 2.077 11.727 1.221 16.38-.505 2.74-3.199 4.29-3.466 6.734-.337 3.187 1.221 11.302.856 17.123-.435 6.756-2.933 12.067-2.933 19.099 0 5.524 2.667 13.023 2.512 14.935-.252 3.187-3.676 3.973-4.785 5.885-4.686 8.116 3.929 15.296 2.386 18.462l-6.918 5.566c6.819 22.285-6.848 13.002-4.504-5.205l-9.598-.319c-4.575-15.848 7.282-20.055-5.613-30.826 10.384-12.98 1.109-21.372-1.824-31.485-.94-3.271.491-7.01-.982-8.901-2.582-3.293-2.19-1.339-2.99 1.848-2.651 10.601.927 22.626-6.173 31.081-4.855 1.891-5.767-24.92-6.315-29.742-5.023 7.244-7.97 10.303-15.407 8.476-.856-7.35 7.297-3.293 6.792-11.28-7.521-17.06-5.922-35.586-8.223-54.557-2.694 4.228-5.992 19.184-6.68 24.941-.981 8.158 2.288 32.335-6.636 32.505-2.919.063-1.614-.404-2.274-3.017-1.697-6.82-4.405-39.515-7.549-41.661-4.785 6.246-.968 22.817-7.703 23.348L5.965 0c-5.683 6.352-.21 24.304-9.107 27.682-1.36-3.144.155-5.396-3.508-4.313v31.867l-3.522-.191-4.897 32.058-4.925-4.206L-30.49 61.63l1.417 22.137c-9.57 8.222-1.6 21.202-.323 30.38 1.923 13.809-6.609 32.695-7.717 48.969-.842 12.301 4.125 38.963-8.812 32.356v36.116l-.028-.107zm593.608 38.304c6.721-.764 10.313 8.987 14.719 14.766-5.192 29.721-21.511 6.968-14.719-14.766z"/></g><defs><clipPath id="clip0_2005_36"><path fill="#fff" d="M0 0h1920v433H0z"/></clipPath></defs></svg>