<svg width="1920" height="319" viewBox="0 0 1920 319" fill="none" xmlns="http://www.w3.org/2000/svg"><path d="M959.306 0c.282 2.984.568 6.678 1.186 9.575.618 2.897 2.221 4.49 5.297 4.376.571.466-1.909 2.495-2.668 2.265l.478.84 1.426.287c-1.118 1.849-2.598.89-4.193.375l.064 3.327c1.153.96 2.836.549 3.885.87.866.265.848 3.502.546 4.017-.333.567-4.51 1.603-3.728 2.71 2.48.973 4.522 3.325 7.395 3 .992-.11 3.118-1.422 3.881-.374.762 1.047-1.153 4.344-2.148 5.09-.573.43-3.194 1.123-2.259 1.898 2.755 2.288 6.433 1.384 9.524.575l-4.194 2.45 1.904.938c-2.324.246-5.506.314-7.83.023-1.129-.143-1.652-.98-2.312-1.052-.901-.094-2.106.76-3.198-.098 1.618 7.2 9.517 10.657 16.393 8.676-2.915 2.008-6.166 5.051-9.913 4.522-.897.635 5.853 2.58 6.712 2.595 1.926.034 3.891-1.271 5.868-1.09.027 3.04-2.614 2.757-4.571 3.96l2.664.56c-2.145.71-4.213.896-6.476.763l1.523 1.123c-3.53 1.033-5.683.912-8.766-1.127-.233.28 1.496 6.389 1.82 7.058 1.443 2.976 7.347 5.165 10.376 6.144l-1.141 1.123c1.575.008 3.068 1.26 4.571.383.595.605-2.841 2.578-3.426 2.643-.099.503.145.39.572.383 5.388-.084 12.848-6.029 15.439-10.567-2.518.987-3.851 3.294-6.228 4.583-1.488.806-3.083 1.468-4.827 1.442l2.286-1.88c-1.335-.095-3.098 1.15-4.335 1.021-1.015-.106-4.483-1.928-5.197-2.908 3.656.216 6.914.238 9.15-3.018-2.659 1.062-5.159 1.55-8.005.745l1.9-.934-2.285-2.08h5.91c.744 0 3.839-.692 4.77-.942 4.869-1.293 8.319-4.625 9.147-9.613l-5.522 2.265c-.312-.545 1.256-.995 1.679-1.357.424-.363.939-.587.79-1.29-3.392 1.09-6.441 2.376-9.91.75 1.66-1.63 5.724.207 6.48-3.011-3.862.563-6.556-.946-8.388-4.145 4.201 1.38 6.781 3.044 11.055.366l-1.9-.744 6.094-3.025c.038-.723-1.096-.231-1.672-.42-.465-.155-.569-.658-.618-1.078h-.748c-.126.9-.851 1.584-1.645 1.963-.878.42-5.578 1.675-5.601.109 1.877-.802 3.366-1.558 4.186-3.577-1.301-.39-2.401-.027-3.614.01-.607.02-.653.069-.588-.581l2.29-3.026c2.45.942 7.819.06 9.895-1.516.961-.73 1.934-2.016 1.504-3.309-.313-.919-2.226-.772-2.248-1.936 2.198-2.901 1.522-5.854 3.268-8.853l.93-5.677c.63 1.377.18 2.882.47 4.251.16.78.86 1.418 1.04 2.363.15.802-.15 1.732.09 2.545.33 1.131 2.36 1.196 1.03 3.427-.58.976-1.69.68-1.48 1.732 1.36.049 2.44.926 3.04 2.08-.92 1.274-2.29.083-3.42.374.3 1.648 2.82 1.562 3 1.744.23.228-.15 2.053 1.43 2.927 1.58.873 3.38-.212 4.71.987-.81 1.437-2.32 1.599-3.39 2.29-1.77 1.147-2.49 3.098-5.36 1.665-1.03.836 2 5.07 2.84 5.665.94.666 2.13.787 3.25.745v1.509l2.67-.374c-.5 2.042-2.98 3.017-4.96 3.017l3.81 1.123c-2.34.62-4.91.572-7.23 0 .17 1.082-1.1 1.835-1.06 2.761.05 1.044 2.31 5.193 3.2 5.863.59.438 3.98 1.64 4.71 1.757 1.31.212 2.78-.865 4.2-.574.94.794-4.74 4.17-5.72 3.774l3.43 1.123-5.34 1.516 1.91 1.131c-1.34 2.882-5.69-2.324-6.1-1.887.51 5.646 4.06 9.201 6.85 13.773 1.6.987 1.86-1.808 2.3-2.836-2.3.507-4.84-1.589-4.95-3.775l4.95-.006c-2.67-3.85-.05-3.041 2.1-4.52 1.01-.7 1.96-2.08 1.67-3.358l-1.48-.602c.32-1.198 2.15-1.667 2.47-2.079.17-.23 1.5-4.677 1.33-4.901l-3.43.188c.7-1.308 3.41-2.204 3.91-3.293.51-1.089.13-2.284.37-3.41.17-.837.97-1.846 1.26-2.905.42-1.596.61-3.29.95-4.905.68-.087.37.846.33 1.27-.36 3.865-.88 7.775-.64 11.66.36 1.55 2.96 3.323 4.5 3.667.23 1.58-2.61.458-3.43.375l2.47 2.643c1.22 2.598-2.46 3.139-2.47 3.574 1.96 1.138 2.01 3.056 4.25 3.706 2 .575 4.01.287 6.04.257-.69 1.497-2.31 1.733-3.81 1.887-.14.821 3.59 1.498 2.67 2.258l-7.24.382c-.89.662 2.14 1.252 2.2 2.065.12 1.406-3.16 1.516-2.59 3.21 3.67 1.328 5.97 1.278 9.53-.37-1.16 1.856-2.98 2.73-4.86 3.675-.85.428-.79.556.09.469 3.52-.34 6.11-3.26 8.97-4.904l-6.1 9.995 2.29 1.312c-2.28.102-5.15-.503-6.86 1.324l3.56.17c1.01.242.34 2.867-.11 3.517-.21.295-2.97 1.796-1.93 2.348 1.52-.253 3.37.847 4.41.923.93.071 2.53-.658 3.78-.756 2.29-.178 7.77 1.349 8.98.204.92-.862-1.05-3.283-.39-4.716 1.37.695 2.83-.42 3.51-1.618 1.78-3.12 2.29-9.504 3.35-13.089.7.14.72.741.78 1.305.29 2.65.65 5.99-.02 8.497l3.05-2.632-1.71 4.523c.93-.113 2.54-.125 3.35-.462.7-.295.81-1.16 1.42-1.614.6-.454 1.52-.522 2.3-1.116 1.95-1.475 1.12-3.173 2.19-5 1.5-2.57 3.99-1.278 6.35-1.64 1.12-.175 2.05-1.157 2.87-1.32.82-.163 1.41.423 2.29.037.48-.213 1.88-2.122 1.53-2.462-2.73.81-5.46 1.8-8.38 1.502l1.32-.745c1.95-1.331-5.87-1.796-5.14-3.4h6.68c.99 0 5.74-2.817 6.67-3.766l-10.48 1.913-7.43-2.288c2.39-.945 4.93-.522 7.33-.858 5.33-.745 9.32-4.9 14.01-7.072l-.19-.753c-1.85.307-4.26.68-6.1.756-.57.023-1.1.258-.94-.555 1.78-1.736 4.37-3.15 5.88-5.12 1.01-1.313 3.48-5.057 4.1-6.51.58-1.364 1.03-2.91 1.07-4.4-3.26 3.308-5.94 6.938-10.42 8.739-1.19.48-2.23.514-3.3.877-1.01.344-2.19 1.505-3.05 1.13 3-3.02 7.36-4.916 8-9.612-.51-.492-6.57 1.925-7.44 2.636l.96-2.455-3.43.008c.98-1.46 2.57-1.097 3.95-1.748 1.24-.586 2.67-2.567 3.77-3.055 1.19-.526 2.71-.295 3.91-1.032.67-.405 3.76-3.265 4.39-3.96 1.46-1.608 2.7-2.904-.59-2.47-1.42.186-2.53 1.18-3.99 1.139l1.52-1.875-2.26-.795c-.27-3.373 5.32-3.506 6.83-5.064.74-.768.41-2.174 1.91-2.632-4.89-3.191.59-3.86 1.07-5.358.65-2.076 2.02-5.586 2.27-7.557.23-1.83-.11-3.713.18-5.471.09-.507 1.73-5.167 2.01-5.174.72.457.52 1.01.58 1.676.26 2.73.04 6.656.73 9.084.14.463 1.45 3.913 1.58 4.098.8 1.165 4.65.98 3.72 4.096-.3 1.361-2.78 1.206-3.21 1.75-.78.992 1.89 3.302 2.02 4.57 1.72 1.285 3.12 2.14 5.39 1.916.78 1.346.32 2.516-.54 3.692l-3.59 2.094c2.29 3.521 4.85 7.386 9.15 8.495-1.87 1.663-5.57.79-7.44-.757-.26-.08-.28.36-.18.56.18.392 5.28 5.748 5.9 6.225 2.42 1.85 7.88 3.509.57 4.526l2.29 1.501c-4.22.54-7.41-2.775-9.91-5.653.44 1.463 1.03 3.86 1.96 5.037.69.87 2.75 1.593 2.96 2.387.41 1.516-2.62 2.004-1.87 2.753 2.16.491 4.19 1.153 6.42.506 1.56-.453 2.64-2.03 4.26-2.382l-1.14 3.207c-.28.847 2.93-1.733 3.22-2.092.29-.361 1.95-3.818 2.11-4.33.29-.975-1.42-.423-2.08-.578-1.19-.28-2.24-.95-3.64-.92 5-4.053 9.17-8.448 10.67-14.892l-5.91 6.781-.57-1.506-2.66 1.127c.26-.862 5.58-5.1 4.95-5.649-2.38.083-4.47-.863-6.29-2.262h4.38c.22-1.092-.31-.605-.83-.854-1.3-.62-2.67-1.15-3.36-2.538l6.48.37-1.52-1.5c4.36.722 1.88-2.765 2.86-4.898.43-.93 2.94-2.552 3.62-3.592l-.73-.345.34-1.728-1.13-.181c1.77-3.328 3.22-6.275 2.67-10.185l.75-3.585c.07 2.201.97 3.99 1.44 5.93.22.866 0 1.792.27 2.753.63 2.307 3.92 4.709 3.28 7.7l-1.12.234c-.57 1.721.7 1.415 1.32 2.198.65.832.99 2.132 1.82 2.919.91.87 3.33 1.233 2.17 2.968l1.13.186c-.02.499-1.03.836-1.45 1.017-1.53.67-2.92.957-4.6.923l-.8 2.19 1.51 1.141h-3.43c-.73 5.28 4.77 6.059 8.91 5.613 3.73-.401 6.03-2.428 8.63-4.856-.39 5.132-3.29 8.615-8.39 9.81l3.78 2.068c1.03.166 2.31-1.33 3.05.046-.3 3.502-4.14 3.83-6.83 4.86l4.57 1.504c-1.76 2.228-8.9-1.41-9.12 1.865-.14 2.034 1.18 1.668 2.22 2.322 3.38 2.114 5.15 4.031 9.57 2.79.4 3.484-1.35 4.433-3.8 6.222 1.87 2.102 4.7 2.919 7.24 3.962l-.38 1.124c1.37-.53 2.83.59 3.68.673.97.095 4.66-3.018 2.98 1.955-1.18 3.48-3.1 4.364-6.66 4.92.92 1.437 3 .118 3.91 1.982.92 1.864-1.09 1.728-1.24 3.294 2.35.227 4.5 1.285 6.49-.639l1.13-3.506c-2.64.473-2.16-2.095-4.96-1.698 3.46-2.265 5.87-5.915 6.48-9.995l-3.43 1.505 1.14-2.261-4.95.748.38-1.123c-.82.117-4.82-.454-4.57-1.694.19-.93 3.43.083 4.17-.779l4.21-2.247c.21-.794-.49-.332-.87-1.024-1.68-3.033.61-4.428 2.75-6.13-1.54-1.388-.88-1.96-.35-3.582-1.77-.257-4.43-.87-4.57-3.018 2.74 1.24 5.68.915 8.42-.242l.34-2.775-3.04.945 1.9-1.895-.76-.37c3.15-3.945 3.04-9.258 3.81-13.955.09-.56.02-1.165.76-1.316-.52 1.512.62 2.863.74 3.978.4 3.57-.74 9.995 2.67 12.45 1.31.945 2.95.337 3.29 2.401.29 1.793-1.74 3.801-1.58 4.172.61.503 1.34 1.53 2.11 1.727 1.21.31 2.1-1.11 2.87.905l3.24-2.632c.63.726-3 4.907-3.81 5.472-.07.994.16.385.66.264.22-.053.47-.14.72-.224.59-.614 1.59-.44 2.45-1.019 2.98-2.011 2.2-7.577 2.64-10.639.14-.956 1.15-2.085.76-3.402.63.152.55.671.61 1.155.51 4.067.26 8.638 2.83 12.127l-.66.297 1.57 1.688-2.57-.905.21 2.4c2.3 1.078 4.8 1.446 7.18.46-.19 1.845-2.48 2.293-4 2.462.41 1.412.96 1.923-.4 3.072 1.77 1.529 3.68 2.798 2.16 5.36-.35.584-.93.166-.77.856l3.52 2.06c.61.764 3.41-.012 3.54.794.18 1.076-3.26 1.448-3.95 1.323l.29.978-3.88-.73a2.67 2.67 0 01-.17.27l.75 1.648-1.72-.83c-.31.185-.66.334-1 .456.01.082.03.164.05.247h1.38l-1.14.915a12.375 12.375 0 001.89 3.762l.78-.154c-.23.163-.41.306-.57.434.75.976 1.66 1.845 2.67 2.57-2.27-.408-2.06 1.627-4.02 1.358-.06.067-.12.134-.19.2l.79 2.808c1.64 1.716 3.51.87 5.53.744-.08-1.352-1.8-1.295-.97-2.873.84-1.578 2.58-.38 3.4-1.59-3.02-.585-4.64-1.403-5.54-4.433-1.28-4.33 1.78-1.543 2.6-1.595.74-.046 2.02-.966 3.17-.47l-.29-.978c2.2-.823 4.64-1.442 6.29-3.197-2.03-1.612-3.49-2.481-3.05-5.468 3.73 1.2 5.3-.398 8.25-2.117.91-.532 2.02-.178 1.97-1.933-.09-2.826-6.3.093-7.73-1.877l3.94-1.16c-2.26-.966-5.53-1.363-5.68-4.387.67-1.163 1.72.164 2.61.052l3.28-1.668c-4.31-1.18-6.69-4.266-6.86-8.695 2.15 2.167 4.04 3.98 7.22 4.437 3.52.508 8.23 0 7.77-4.565l-2.93-.103 1.33-.938-.62-1.91c-1.44-.02-2.61-.31-3.9-.931-.35-.169-1.21-.489-1.2-.92l.97-.124c-.94-1.53 1.13-1.77 1.94-2.491.73-.653 1.06-1.763 1.64-2.46.55-.655 1.62-.354 1.19-1.852l-.95-.235c-.46-2.595 2.43-4.564 3.03-6.532.26-.818.11-1.622.31-2.36.47-1.657 1.29-3.17 1.41-5.063l.54 3.11c-.59 3.349.56 5.928 1.97 8.846l-.97.123.24 1.498-.63.274c.55.916 2.64 2.387 2.97 3.2.78 1.866-1.44 4.794 2.3 4.302l-1.34 1.247 5.54-.126c-.63 1.175-1.81 1.59-2.94 2.085-.45.2-.89-.236-.74.711l3.74.13c-1.6 1.15-3.41 1.902-5.43 1.76-.56.453 3.85 4.261 4.05 5.012l-2.24-1.05-.53 1.28-4.84-6.015c1.08 5.593 4.51 9.5 8.66 13.14-1.2-.069-2.11.476-3.14.682-.56.113-2.01-.412-1.78.436.11.445 1.43 3.47 1.66 3.79.24.318 2.9 2.634 2.69 1.897l-.87-2.795c1.36.35 2.24 1.741 3.56 2.178 1.88.624 3.64.114 5.49-.245.67-.622-1.9-1.132-1.51-2.425.2-.678 1.98-1.239 2.6-1.967.83-.985 1.4-3.032 1.82-4.279-2.22 2.404-5.04 5.164-8.63 4.573l2-1.225c-6.2-1.093-1.49-2.36.62-3.88.55-.391 5.07-4.852 5.23-5.182.09-.17.09-.548-.13-.488-1.65 1.276-4.83 1.918-6.38.43 3.71-.826 6-4.077 8.07-7.04l-3-1.91c-.71-1.038-1.06-2.058-.36-3.194 1.93.26 3.16-.434 4.66-1.49.15-1.086 2.5-2.997 1.86-3.873-.35-.481-2.47-.422-2.69-1.603-.69-2.71 2.59-2.436 3.31-3.414.11-.153 1.34-3.089 1.46-3.483.67-2.07.6-5.456.9-7.799.07-.57-.08-1.052.55-1.424.24.014 1.5 4.074 1.56 4.513.2 1.523-.15 3.134-.01 4.717.15 1.704 1.21 4.765 1.71 6.572.37 1.304 5.02 2.044.75 4.646 1.27.439.95 1.64 1.56 2.323 1.23 1.386 6.01 1.667 5.67 4.563l-1.95.616 1.24 1.66c-1.25-.008-2.17-.897-3.37-1.099-2.8-.472-1.78.681-.58 2.109.52.618 3.07 3.17 3.63 3.539 1 .67 2.3.518 3.3 1.006.93.453 2.09 2.201 3.13 2.743 1.16.6 2.53.335 3.32 1.62l-2.93-.108.75 2.142c-.72-.638-5.82-2.898-6.27-2.491.41 4.063 4.07 5.824 6.54 8.514-.75.297-1.72-.738-2.57-1.064-.9-.344-1.79-.404-2.8-.853-3.77-1.684-5.94-4.89-8.62-7.835-.01 1.284.32 2.63.78 3.822.48 1.269 2.48 4.565 3.3 5.725 1.23 1.74 3.4 3.036 4.87 4.584.11.704-.34.486-.82.45-1.57-.12-3.62-.514-5.19-.833l-.19.642c3.95 2.009 7.23 5.706 11.75 6.506 2.05.362 4.22.072 6.24.957l-6.41 1.748-8.9-1.96c.77.845 4.74 3.413 5.59 3.443l5.7.198c.57 1.402-6.12 1.57-4.49 2.774l1.1.68c-2.5.17-4.8-.764-7.11-1.542-.3.283.83 1.967 1.24 2.165.74.358 1.26-.128 1.95.036.7.165 1.46 1.039 2.42 1.222 2 .383 4.16-.656 5.36 1.602.86 1.605.1 3.042 1.72 4.369.65.535 1.43.621 1.94 1.03.5.409.57 1.157 1.16 1.432.67.314 2.06.372 2.84.497l-1.32-3.945 2.52 2.357c-.49-2.179-.09-5.043.24-7.316.07-.483.11-1 .7-1.1.8 3.118 1.05 8.629 2.47 11.368.55 1.052 1.76 2.056 2.95 1.498.53 1.253-1.23 3.279-.47 4.049 1 1.022 5.72-.13 7.67.091 1.06.122 2.41.798 3.21.764.88-.034 2.5-.926 3.79-.663.9-.444-1.41-1.819-1.58-2.079-.36-.574-.86-2.853.01-3.031l3.05-.04c-1.41-1.624-3.88-1.189-5.82-1.345l1.99-1.062-4.9-8.786c2.38 1.502 4.51 4.093 7.5 4.49.76.102.81-.008.09-.4-1.57-.87-3.1-1.677-4.04-3.31 3 1.525 4.96 1.637 8.13.603.54-1.441-2.25-1.634-2.11-2.842.08-.698 2.68-1.116 1.94-1.712l-6.17-.545c-.76-.681 2.45-1.152 2.35-1.863-1.28-.178-2.66-.428-3.2-1.738 1.73.086 3.44.393 5.16-.042 1.94-.493 2.04-2.142 3.74-3.064.01-.374-3.12-.95-2-3.15l2.19-2.202c-.7.047-3.16.93-2.91-.424 1.32-.25 3.59-1.7 3.94-3.024.32-3.337 0-6.72-.19-10.057-.02-.366-.26-1.179.32-1.084.24 1.4.35 2.864.67 4.25.21.92.86 1.814.98 2.539.17.977-.19 1.995.21 2.947.4.953 2.68 1.806 3.24 2.953l-2.92-.265c-.15.187.85 4.056.99 4.26.26.364 1.81.822 2.05 1.864l-1.29.473c-.28 1.091.48 2.308 1.33 2.94 1.79 1.337 4.05.72 1.66 3.954l4.22.154c-.16 1.878-2.39 3.606-4.34 3.102.35.899.48 3.311 1.88 2.51 2.52-3.853 5.66-6.808 6.26-11.653-.34-.39-4.21 3.963-5.26 1.443l1.66-.917-4.51-1.464 2.96-.865c-.84.312-5.6-2.765-4.77-3.42 1.22-.209 2.44.763 3.57.62.63-.08 3.56-1.013 4.07-1.373.78-.55 2.84-4.054 2.91-4.951.07-.797-1-1.483-.82-2.409-2 .423-4.19.388-6.17-.216l3.28-.853c-1.69-.059-3.77-.972-4.14-2.745l2.27.401.04-1.299c.95.07 1.98 0 2.8-.544.73-.487 3.45-4.042 2.6-4.793-2.5 1.149-3.05-.552-4.53-1.591-.89-.628-2.17-.813-2.83-2.075 1.17-.992 2.68-.004 4.06-.709 1.37-.704 1.1-2.287 1.3-2.477.16-.15 2.31-.002 2.62-1.412-.96-.285-2.16.7-2.91-.424.55-.975 1.49-1.698 2.66-1.7.21-.899-.75-.678-1.21-1.535-1.07-1.96.66-1.956.98-2.92.22-.692 0-1.502.15-2.188.19-.808.8-1.338.96-2.004.29-1.17-.05-2.48.53-3.645l.62 4.915c1.4 2.634.73 5.156 2.53 7.719-.06 1.002-1.69.818-1.98 1.6-.41 1.1.38 2.236 1.18 2.893 1.73 1.42 6.28 2.338 8.4 1.6l1.87 2.673c.03.562 0 .519-.52.485-1.04-.07-1.96-.415-3.09-.118.64 1.762 1.89 2.458 3.47 3.205-.07 1.347-4.04.125-4.78-.262-.66-.35-1.26-.96-1.34-1.739l-.64-.022c-.06.36-.16.79-.56.91-.5.145-1.45-.312-1.44.31l5.11 2.787-1.65.585c3.57 2.432 5.83 1.077 9.45.014-1.66 2.7-4 3.918-7.28 3.318.55 2.793 4.07 1.332 5.44 2.785-3.01 1.297-5.57.098-8.44-.94-.15.6.29.808.64 1.133.35.326 1.67.76 1.39 1.22l-4.65-2.115c.56 4.318 3.41 7.29 7.52 8.548.79.242 3.41.93 4.05.953l5.04.177-2.01 1.721 1.59.862c-2.45.608-4.57.114-6.81-.88 1.81 2.87 4.6 2.947 7.72 2.87-.64.822-3.65 2.288-4.52 2.349-1.06.073-2.53-1.05-3.67-1.008l1.89 1.686c-1.49-.029-2.83-.647-4.07-1.385-2-1.18-3.06-3.207-5.18-4.131 2.07 3.984 8.26 9.324 12.86 9.556.36.02.57.125.5-.311-.5-.073-3.37-1.875-2.85-2.378 1.26.8 2.57-.233 3.92-.193l-.94-1c2.61-.754 7.72-2.463 9.04-4.982.3-.569 1.96-5.772 1.77-6.02-2.7 1.662-4.54 1.703-7.52.709l1.33-.922c-1.93.046-3.69-.175-5.5-.851l2.29-.402c-1.64-1.094-3.9-.928-3.79-3.545 1.7-.098 3.34 1.084 4.98 1.112.74.012 6.56-1.46 5.81-2.033-3.21.344-5.9-2.374-8.33-4.19 5.81 1.911 12.66-.829 14.26-6.98-.96.707-1.96-.064-2.73-.01-.57.042-1.04.746-2.01.836-1.99.181-4.71.028-6.68-.253l1.65-.75-3.51-2.235c2.62.789 5.73 1.676 8.15-.211.82-.64-1.39-1.313-1.87-1.701-.83-.671-2.36-3.567-1.68-4.447.68-.879 2.46.314 3.3.438 2.44.365 4.26-1.599 6.4-2.361.7-.93-2.83-1.948-3.1-2.446-.24-.452-.16-3.24.59-3.441.9-.245 2.33.16 3.34-.633l.16-2.863c-1.38.395-2.67 1.178-3.57-.447l1.22-.206.44-.708c-.66.176-2.71-1.647-2.21-2.03 2.62.19 4.04-1.133 4.65-3.608.62-2.476.97-5.648 1.3-8.208l.84 3.145c-.78 1.883 1.23 7.306 2.68 8.494.52.422 1.25.754 1.91.904.25.944-.81.543-1.02 1.256l2.58.748c.05.569-.75.276-1.15.279-1.76.01-3.07-.14-4.7-.813.16 2.402 4.51 2.489 3.58 4.68l-3.4-.45c-.19 1.027.23 1.763 1.14 2.241.28.15 2.66 1.143 2.82 1.149l4.88.17c.13.004 1.36-1.103.48.18l-2.15 1.066c1.3 1.535 2.92.844 4.53 1.129.39.072.62-.135.47.508-.47 1.995-2.79 1.81-4.32 2.445.85 1.379 3.02.81 3.47 2.402-.12.99-4.55.777-5.39.637-1.16-.194-1.23-1.158-2.39-1.075-.62 2.247 1.26 3.862 2.99 4.916.69.422 3.83 1.822 4.43 1.843l5.7.2c-.08.482-1.18.721-1.59.828-.88.233-1.76.413-2.68.326l2.24 1.053c-.95 1.352-3.01.178-4.4.14-1.32-.037-2.91.583-4.24.54-.75-.027-4.23-.97-4.39-.815.56 2.496 2.63 4.091 4.87 5.05.77.33 3.9 1.429 4.52 1.45l7.32.257c-.48 3.008-4.9 2.7-7.26 2.673-.28 1.604 3.56 1.145 3.51 1.91-.82.942-1.53 1.119-2.75 1.011-1.55-.135-4.67-1.346-5.87-1.345-.6.001-1.81.865-2.78.424-.26.19 1.53 2.417 1.73 2.626 3 3.032 6.28 1.582 8.43 4.874-2.94.774-5.73-.07-8.42-1.262-.28.241 1.36 2.032.11 1.62-1.76-.579-3.45-2.822-4.8-4.03l-2.1.543c-.23.198 1.22 2.484 1.52 2.83.92 1.063 4.58 4.15 5.81 4.963 2.58 1.71 6.65 2.888 9.76 2.57 1.52-.156 1.64-1.566 2.84-2.356a15.09 15.09 0 01-4.04-.953c-.33-.125-.61.23-.47-.498.25-1.693 2.5-1.787 3.51-2.98.18-.206 2.47-4.422 2.56-4.68.41-1.247.1-3.853.3-5.404.09-.753 1.01-4.612 1.63-4.722 2.35-.42 1.75 3.784 2.03 5.313.57 3.093 2.86 5.85 6.14 6.072.33 1.237-.82 1.673-1.37 2.52l2.93.11c-1.03 1.196-2.87.87-4.27.822.1 1.099-.13 1.782-1.05 2.401l2.86 1.886-.85-1.493c.8-1.403 1.64-.227 2.73-.09 4.82.594 9.25-1.754 12.37-5.23l-1.29-.208.69-1.27c-1.45.033-8.33-.106-7.37-2.657.21-.563 3.74-1.15 4.43-2.017 3.22-.435 6.08-3.001 8.5-5.052.16-.734-.31-.457-.79-.51-1.09-.119-2.31.131-3.08-.912-1.32-1.807 2.85-.035 2.69-2.029-2.16.59-4.44.04-4.8-2.442 1.13-.01 2.35.313 3.39-.243.94-.499.89-1.407 1.43-2.177.83-1.17 1.93-.797.89-2.583-1.93 1.288-3.78.275-2.21-1.867 1.49-2.04 2.5-3.172 3.37-5.822.73-2.246.55-5.763 2.78-7.123.77.21 1.17 5.83 1.53 7.059.39 1.344 2.52 5.71 3.59 6.396.95.61 2.92.732 3.24 2.018.13.477.14 1.273-.3 1.57-.57.384-2.61-.73-2.62.208-.01 1.033 6.07 3.094 7.33 4.168 1.32 1.132.37 2.839 3.22 1.237-.09.567-.07 1.077.62 1.007-1.58 1.42-4.56.83-6.57 1.55 1.57 2.176 4.26 1.81 6.32 2.92.67.358 3.45 2.29 2.6 3.08-2.27-.028-4.18 1.358-6.51.443l-.93 1.897c.48 1.25 3.17.975 2.95 2.223-.23 1.321-4.2.654-5.13.305-.17.555.2.657.45.99 1.36 1.89 5.18 4.824 7.46 5.317.55.117.58.21.99-.31-.61-1.987-1.04-1.23-2.48-1.772-.99-.373-2.16-.823-1.94-2.122 3.2.262 5.91-2.375 7.8-4.634.79-.953 1.22-2.603 2.23-2.822l-.14-.65c-.85.061-3.4-.54-3.37-1.576.04-1.35 2.93-1.133 3.81-2.002.88-.869.54-2.096.76-2.542.15-.304.74-.524.82-.841.07-.337-.52-.798-.57-1.288-.17-1.653.34-5.282.65-7.025.06-.327.19-1.525.76-1.2.57.329 1.22 5.533 2.14 6.494.51.882-.12 3.526.09 3.977.68 1.49 3.4.803 3.75 1.304.62 1.596-1.36 1.86-2.4 2.485 2.02 2.352 4.7 1.885 7.45 1.401l-2.67 1.86 2.56 1.38c-2.06.765-4.08.392-6.21.598 1.86 1.698 5.82 3.89 8.25 4.294 1.29.214 4.03-1.212 5.63-.72-1.44 2.636-4.58 4.091-7.49 4.286-.84.055-1.94-.341-2.47-.246-.52.096-1.37.985-2.26.889 1.9 1.98 4.18 3.627 6.89 4.266 1.35.318-.89-1.866-.45-2.251 4.01 1.574 6.28 2.69 10.76 1.908 2.72-.476 7.04-1.792 9.17-3.488-4.01 1.057-8.52.416-12.34-1.09 1.47-1.427 3.38.451 4.7-1.866l3.57-1.736c-2.04.32-4.2.43-6.18-.223l3.03-2.977c-2.31-.948-4.78-1.905-6.38-3.955 5.28-1 11.12-2.142 15.2-5.813-3.58-.291-10.28-1.011-9.24-6.007 2.78.915 6 .659 8.8-.182.49-.146 1.17-.152 1.33-.762-1.42-.16-3.2-.732-2.2-2.352-3.56.312-7.49.765-10.02-2.302l4.72.164c.46.016 3.19-.586 3.46-1.176-.75.57-4.96-1.48-4.16-2.097 3.27-.203 6.65-.173 9.81-.965.19-.75-.08-.521-.39-.738-.69-.47-2.82-1.184-2.42-2.402.25-.732 4.45-1.484 4.97-2.796-1.25-.197-2.37 1.019-3.57-.125 2.07-2.06 4.76-4.038 5.27-7.081.21-1.248.06-1.403.53-2.87.32-.996-.24-2.274 1.45-1.983-.37 1.681.66 2.992 1.07 4.502.17.612-.04 1.343.16 2.05.8 2.854 3.79 6.11 4.75 9.094-.74.57-3.07-2.043-3.19-1.9.66 2.363 1.86 5.078 3.65 6.806.9.866 3.07 1.147 2.51 2.643-.22.576-1.28.207-1 1.126l6.08 3.308c-.63 1.745-3.54 1.467-5.07 1.254-.99-.139-4.47-1.766-1.51 1.092 2.24 2.171 8.15 4.334 11.2 5.128-.14.585-.66.58-1.15.618-3.98.304-8.8-1.256-12.46-2.72 1.94 4.207 5.52 6.343 9.82 7.666.82.25 3.58.256 3.85 1.136.22 3.639-4.7 3.48-7.27 3.769-.18.746.07.524.39.744.87.59 3.49 1.07 3.72 1.89.86 3.054-3.81 2.25-3.93 3.38l2.3 3.437c.56-.212 7.54-1.96 6.42-2.963-.9.164-3.59-.644-3.17-1.871 2.53-1.277 5.36-2.023 6.98-4.662-1.1-.404-2.79-.486-2.83-2.016.22-.703 3.96-.95 4.29-2.314-1.53.08-3.67-.151-3.5-2.069 1.99-.442 3.94-.947 5.29-2.589l-2.7-.58-.18-.648c3.03-1.064 3.47-4.185 4.45-6.856l.9-6.612c1.25 3.447-.85 9.915 3.19 11.49l-.21.658-1.13.427c1.18 1.306 3.2 1.915 4.84 2.435.43.135.57-.024.94-.118.68.825-3.34 1.915-3.96 1.49-.19 1.847 2.93.802 2.52 2.519-.15.668-2.43.068-2.63.72 1.8 1.281 3.71 1.08 5.81 1.51.7.692-2.52 1.886-2.99 1.847-.5 1.032 2.01.537 1.42 1.347-.53.731-1.76.428-2.47.722.75 1.796 7.86 2.726 8.02 3.537.27 1.362-3.81 1.484-3.97 1.648-.13.132.3.821.26 1.159-.11 1.163-1.57.9.69 2.509 1.1.781 4.61 1.591 4.7 2.25.09.753-4.6 2.958-5.62 2.532.51.755 3.54 2.483 4.24 2.364.55-.095 3.55-2.486 4.1-3.048l4.6-6.016c-1.21.717-10.12.715-10.07-.515l3.45-1.018-.76-1.649c5.65.39 10.53-6.4 12.76-10.934-4.39 3.915-10.34 8.12-16.49 5.764l6.63-3.187c-1.52-1.533-3.65-2.328-3.09-4.982 3.9.264 7.41-1.491 10.24-4.03-1.32-.922-2.83-2.55-2.16-4.267 2.37-.318 4.49-.714 6.31-2.414l-3.17-.97c-.8-2.34 2.47-2.219 2.95-3.656.44-1.324-.59-1.686-.77-2.625-.43-2.182 1.66-3.635 2.42-5.36.83-1.867.86-4.028 1.33-5.986.09-.35.06-1.047.53-.947.02.565-.15 1.221-.04 1.766.52 2.622 1.18 6.723 3.02 8.655.34.361 1.29.333 1.48 1.004.12 1.419-.48 1.79-1.67 2.161.31 1.145 6.31 3.533 4.19 4.897-1.26.816-3.23.968-4.53.125l-.18.641c1.18.234 1.59 1.575 2.62 2.117 1.72.9 4.03.646 5.34 2.878l-5.94 2.228c1.84-.548 1.87 1.206 2.55 1.563.62.324 1.38.093 2.03.305.58.187 1.14.923 1.82 1.133 3.15.957 9.82-.251 12.47-2.339l-2.75 3.95-5.96 3.224c.17.563 1.67.886 2.16.962 1.15.177 1.6.062 2.66-.022.5-.04 1.08-.369.34.367-1.62.697-3.71 1.795-5.48 1.896-2.19.129-4.21-1.106-6.3-.507 2.46 2.388 5.47 4.694 8.74 6.16-.15-.498-.23-1.022-.09-1.507.47-1.738 1.81-1.07 3.01-1.763 3.11-1.799 2.73-7.405 3.38-10.428.21-.945 1.29-2 .99-3.342.62.196.5.708.53 1.196.23 4.092-.34 8.634 1.98 12.295l-.68.249 1.45 1.793-2.5-1.082.04 2.41c2.22 1.235 4.69 1.776 7.13.959-.31 1.827-2.63 2.115-4.16 2.176.31 1.438.82 1.986-.62 3.037 1.67 1.65 3.49 3.05 1.79 5.498-.39.558-.94.101-.84.8l3.38 2.3c.55.805 3.4.227 3.47 1.04.1 1.085-3.35 1.218-4.03 1.044l.22.996-2.86-.75a5.8 5.8 0 01-.8.948l.28.757-.69-.4c-.55.42-1.16.711-1.81.905.6 2.744 2.14 5.242 4.33 7.041-2.34-.589-2.17 1.652-4.36 1.012l.64 3.103c1.51 1.827 3.44 1.113 5.46 1.128.01-1.354-1.71-1.417-.76-2.932.94-1.516 2.59-.2 3.5-1.349-2.97-.794-4.53-1.724-5.21-4.809-.99-4.411 1.87-1.415 2.7-1.41.73.005 2.08-.824 3.19-.248l-.22-.996c2.25-.667 4.72-1.115 6.5-2.749-1.92-1.75-3.31-2.72-2.67-5.669 3.65 1.457 5.32-.027 8.38-1.536.95-.467 2.03-.036 2.1-1.79.11-2.826-6.28-.348-7.58-2.413l4.02-.88c-2.19-1.122-5.43-1.747-5.37-4.774.75-1.113 1.71.284 2.6.234l3.39-1.435c-4.22-1.479-6.37-4.722-6.23-9.153 1.99 2.312 3.75 4.254 6.89 4.93 3.47.752 8.21.575 8.07-4.012l-2.91-.306 1.39-.844-.49-1.948c-1.43-.12-2.59-.49-3.82-1.2-.34-.193-1.17-.573-1.14-1.002l.98-.057c-.84-1.591 1.25-1.686 2.11-2.35.77-.6 1.18-1.684 1.81-2.339.59-.615 1.64-.24 1.31-1.764l-.93-.301c-.28-2.62 2.74-4.384 3.48-6.304.31-.799.22-1.612.48-2.335.58-1.619 1.5-3.072 1.75-4.951l.32 3.14c-.82 3.3.15 5.954 1.35 8.963l-.98.053.14 1.512-.65.23c.49.951 2.47 2.565 2.75 3.4.64 1.915-1.78 4.68 1.99 4.451l-1.43 1.15 5.54.262c-.71 1.127-1.92 1.46-3.08 1.874-.47.167-.87-.298-.79.657l3.73.392c-1.68 1.035-3.54 1.66-5.55 1.376-.59.413 3.55 4.52 3.7 5.282l-2.16-1.203-.63 1.238-4.41-6.337c.7 5.655 3.85 9.792 7.73 13.711-1.19-.15-2.14.33-3.18.463-.57.074-1.97-.551-1.81.31.09.453 1.19 3.565 1.4 3.898.21.334 2.71 2.83 2.55 2.08l-.68-2.85c1.34.446 2.12 1.894 3.4 2.422 1.84.752 3.62.367 5.5.138.7-.574-1.82-1.262-1.34-2.525.25-.661 2.07-1.097 2.73-1.78.89-.925 1.61-2.927 2.11-4.141-2.38 2.242-5.38 4.8-8.92 3.96l2.08-1.083c-6.12-1.524-1.33-2.458.89-3.826.57-.353 5.39-4.488 5.58-4.806.09-.163.12-.54-.11-.496-1.72 1.158-4.94 1.577-6.38-.016 3.75-.565 6.27-3.648 8.53-6.46l-2.86-2.115c-.63-1.085-.91-2.127-.13-3.21 1.91.393 3.18-.214 4.75-1.162.23-1.073 2.71-2.814 2.13-3.733-.31-.505-2.44-.594-2.57-1.787-.51-2.753 2.75-2.25 3.53-3.176.13-.144 1.56-2.989 1.71-3.372.81-2.018.97-5.4 1.44-7.717.11-.565-.01-1.055.64-1.383.24.028 1.21 4.17 1.24 4.611.1 1.534-.36 3.117-.33 4.706.03 1.71.88 4.838 1.25 6.675.27 1.326 4.86 2.389.42 4.686 1.23.526.83 1.702 1.39 2.426 1.14 1.469 5.88 2.082 5.34 4.947l-1.99.48 1.13 1.742c-1.25-.096-2.1-1.046-3.29-1.331-2.76-.667-1.82.555-.73 2.062.48.653 2.85 3.379 3.37 3.784.96.74 2.27.677 3.23 1.234.9.516 1.93 2.342 2.93 2.955 1.12.68 2.5.51 3.2 1.848l-2.92-.312.6 2.188c-.67-.686-5.6-3.296-6.08-2.922.13 4.08 3.66 6.093 5.93 8.95-.77.243-1.66-.856-2.49-1.24-.87-.407-1.75-.529-2.73-1.047-3.64-1.943-5.59-5.293-8.06-8.418-.1 1.28.15 2.645.52 3.867.39 1.3 2.15 4.727 2.89 5.941 1.11 1.823 3.18 3.266 4.54 4.912.06.711-.37.463-.85.393-1.56-.229-3.57-.766-5.12-1.193l-.23.627c3.79 2.279 6.81 6.196 11.27 7.31 2.01.503 4.2.367 6.15 1.391l-6.52 1.296-8.73-2.576c.71.897 4.48 3.734 5.33 3.824l5.67.595c.47 1.439-6.21 1.139-4.67 2.454l1.05.756c-2.51-.005-4.73-1.097-6.98-2.035-.33.261.69 2.022 1.08 2.246.71.409 1.26-.04 1.95.172.68.213 1.38 1.139 2.32 1.388 1.97.521 4.2-.364 5.24 1.972.74 1.661-.11 3.041 1.41 4.479.61.578 1.38.719 1.86 1.162.47.443.49 1.194 1.06 1.51.65.36 2.02.514 2.8.694l-1.05-4.028 2.36 2.527c-.35-2.207.26-5.036.75-7.281.1-.477.17-.991.77-1.049.59 3.167.44 8.681 1.67 11.513.48 1.088 1.62 2.174 2.84 1.7.44 1.287-1.45 3.184-.75 4.005.92 1.09 5.71.27 7.65.628 1.05.196 2.34.963 3.14.985.88.028 2.56-.75 3.83-.397.93-.38-1.28-1.913-1.43-2.184-.32-.597-.66-2.906.22-3.023l3.04.172c-1.29-1.717-3.78-1.456-5.71-1.747l2.06-.919-4.28-9.108c2.28 1.664 4.23 4.398 7.18 5.003.74.154.8.048.12-.394-1.51-.977-2.98-1.889-3.8-3.583 2.88 1.73 4.83 1.979 8.06 1.168.64-1.4-2.13-1.787-1.91-2.982.13-.69 2.75-.926 2.06-1.571l-6.12-.975c-.71-.733 2.52-.979 2.47-1.695-1.26-.267-2.61-.613-3.06-1.957 1.72.207 3.4.633 5.15.318 1.96-.357 2.18-1.994 3.94-2.795.03-.373-3.04-1.165-1.77-3.282l2.34-2.044c-.71-.002-3.22.707-2.88-.627 1.33-.157 3.71-1.444 4.15-2.741.55-3.306.46-6.702.51-10.045 0-.366-.18-1.194.39-1.059.14 1.414.15 2.881.37 4.287.14.932.73 1.868.8 2.6.1.987-.33 1.977.01 2.955.33.978 2.55 1.988 3.02 3.171l-2.89-.468c-.17.179.56 4.101.69 4.318.23.381 1.75.947 1.91 2.003l-1.32.382c-.36 1.069.32 2.337 1.12 3.027 1.69 1.458 3.99.999 1.38 4.058l4.21.45c-.3 1.862-2.64 3.43-4.55 2.791.28.921.25 3.337 1.7 2.634 2.78-3.667 6.12-6.396 7.06-11.187-.31-.413-4.48 3.66-5.35 1.072l1.72-.799-4.4-1.775 3.01-.656c-.86.252-5.39-3.149-4.51-3.744 1.23-.123 2.38.931 3.51.867.63-.035 3.62-.763 4.16-1.086.82-.495 3.11-3.845 3.25-4.736.12-.79-.9-1.549-.65-2.46-2.03.282-4.21.095-6.15-.645l3.34-.622c-1.68-.177-3.7-1.234-3.94-3.028l2.23.56.14-1.294c.94.135 1.97.138 2.83-.348.76-.434 3.72-3.79 2.93-4.6-2.58.972-3.01-.764-4.41-1.904-.85-.689-2.11-.962-2.68-2.266 1.24-.908 2.68.183 4.1-.425 1.42-.607 1.25-2.207 1.47-2.38.17-.14 2.3.16 2.71-1.225-.94-.35-2.2.547-2.87-.626.61-.934 1.61-1.59 2.77-1.511.27-.882-.7-.728-1.1-1.616-.93-2.03.8-1.904 1.18-2.844.27-.675.1-1.499.31-2.172.23-.794.88-1.279 1.09-1.931.37-1.148.12-2.477.78-3.6l.28 4.945c1.21 2.725.37 5.196 1.98 7.877-.12.996-1.73.699-2.08 1.458-.49 1.07.22 2.258.98 2.969 1.62 1.536 6.1 2.77 8.26 2.183l1.68 2.796c-.01.563-.04.517-.55.447-1.03-.141-1.93-.55-3.07-.333.51 1.803 1.71 2.584 3.23 3.438-.16 1.34-4.04-.155-4.75-.593-.64-.395-1.19-1.046-1.22-1.829l-.63-.067c-.08.355-.22.777-.63.868-.5.11-1.42-.411-1.45.211l4.9 3.136-1.68.469c3.39 2.675 5.73 1.48 9.42.672-1.84 2.578-4.27 3.63-7.49 2.802.35 2.825 3.97 1.613 5.23 3.157-3.09 1.084-5.57-.29-8.35-1.526-.19.59.22.827.55 1.176.33.349 1.62.874 1.31 1.312l-4.49-2.433c.25 4.347 2.88 7.51 6.9 9.052.77.297 3.34 1.166 3.97 1.233l5.02.528-2.13 1.577 1.53.97c-2.49.436-4.57-.205-6.73-1.352 1.61 2.989 4.38 3.26 7.5 3.402-.69.775-3.8 2.027-4.67 2.027-1.07 0-2.45-1.223-3.6-1.262l1.78 1.815c-1.49-.133-2.78-.843-3.97-1.666-1.91-1.317-2.83-3.412-4.88-4.482 1.79 4.119 7.59 9.878 12.16 10.43.36.045.56.164.52-.276-.49-.107-3.23-2.105-2.67-2.571 1.2.886 2.58-.053 3.92.082l-.87-1.065c2.66-.569 7.87-1.917 9.37-4.338.33-.544 2.35-5.616 2.18-5.883-2.8 1.471-4.64 1.383-7.55.183l1.4-.826c-1.94-.089-3.68-.433-5.44-1.234l2.32-.241c-1.56-1.205-3.83-1.198-3.53-3.8 1.69.021 3.25 1.314 4.89 1.457.73.064 6.64-1 5.93-1.624-3.23.12-5.72-2.779-8.01-4.76 5.66 2.312 12.68.056 14.71-5.968-1.01.638-1.96-.202-2.73-.201-.57.002-1.09.672-2.06.694-2 .042-4.7-.3-6.65-.719l1.7-.633-3.34-2.474c2.55.97 5.6 2.072 8.14.358.87-.58-1.3-1.407-1.74-1.828-.78-.727-2.11-3.723-1.37-4.553.74-.829 2.43.485 3.26.667 2.41.535 4.36-1.296 6.55-1.908.77-.88-2.69-2.14-2.92-2.656-.21-.468.07-3.242.83-3.392.92-.181 2.31.322 3.38-.398l.35-2.846c-1.4.298-2.75.99-3.53-.694l1.24-.12.48-.676c-.66.13-2.59-1.83-2.06-2.179 2.6.372 4.11-.849 4.89-3.275.79-2.427 1.36-5.567 1.87-8.098l.62 3.197c-.91 1.823.71 7.372 2.08 8.66.49.457 1.19.84 1.84 1.035.18.96-.84.485-1.11 1.18l2.52.927c.02.572-.76.225-1.16.2-1.76-.114-3.05-.355-4.63-1.14-.01 2.407 4.33 2.797 3.24 4.917l-3.35-.684c-.27 1.01.1 1.774.97 2.315.28.17 2.58 1.325 2.74 1.341l4.85.511c.14.014 1.43-1.006.47.213l-2.22.912c1.19 1.623 2.85 1.047 4.44 1.444.39.1.63-.091.44.54-.61 1.957-2.92 1.61-4.49 2.136.76 1.436 2.96 1.02 3.3 2.64-.19.978-4.59.457-5.42.259-1.15-.274-1.15-1.241-2.31-1.239-.78 2.198.99 3.94 2.64 5.112.66.469 3.69 2.085 4.29 2.148l5.67.596c-.11.476-1.23.638-1.64.716-.9.17-1.79.29-2.7.138l2.16 1.206c-1.04 1.283-3.01-.03-4.4-.167-1.31-.127-2.94.38-4.27.243-.74-.078-4.14-1.261-4.32-1.12.39 2.53 2.34 4.266 4.51 5.377.74.384 3.79 1.7 4.4 1.764l7.29.766c-.68 2.968-5.08 2.353-7.43 2.161-.39 1.58 3.47 1.39 3.37 2.148-.88.884-1.61 1.011-2.81.819-1.54-.244-4.57-1.669-5.77-1.752-.6-.04-1.87.736-2.8.229-.27.172 1.35 2.516 1.55 2.741 2.77 3.233 6.15 2.015 8.07 5.45-2.99.566-5.72-.47-8.32-1.847-.29.222 1.22 2.123 0 1.624-1.72-.701-3.25-3.056-4.51-4.354l-2.13.395c-.24.182 1.04 2.563 1.32 2.929.84 1.123 4.28 4.459 5.45 5.354 2.45 1.886 6.43 3.347 9.56 3.246 1.52-.049 1.74-1.448 2.99-2.152a15.03 15.03 0 01-3.96-1.231c-.32-.149-.63.185-.44-.532.37-1.671 2.62-1.608 3.72-2.727.19-.194 2.77-4.242 2.87-4.49.5-1.215.37-3.837.68-5.371.15-.744 1.33-4.529 1.95-4.596 2.37-.255 1.49 3.897 1.66 5.442.35 3.126 2.45 6.035 5.7 6.485.25 1.257-.93 1.612-1.54 2.419l2.92.313c-1.11 1.122-2.93.669-4.32.523.02 1.103-.26 1.768-1.22 2.322l2.73 2.082-.75-1.55c.89-1.344 1.66-.11 2.73.1 4.76.93 9.35-1.103 12.71-4.353l-1.28-.299.78-1.218c-1.45-.067-8.3-.686-7.17-3.165.25-.546 3.81-.886 4.56-1.702 3.24-.209 6.28-2.57 8.83-4.447.22-.72-.27-.478-.75-.564-1.08-.195-2.31-.03-3.01-1.125-1.19-1.894 2.85.165 2.83-1.835-2.2.437-4.44-.27-4.62-2.772 1.13.07 2.32.476 3.4-.007.97-.432.98-1.34 1.58-2.071.9-1.11 1.97-.66 1.06-2.515-2.01 1.15-3.79.01-2.07-2.016 1.63-1.932 2.72-2.99 3.77-5.573.89-2.19.95-5.71 3.27-6.91.75.263.76 5.896 1.03 7.147.3 1.367 2.12 5.873 3.14 6.632.9.674 2.85.932 3.09 2.238.09.484.05 1.28-.41 1.546-.59.344-2.56-.911-2.63.024-.08 1.03 5.84 3.51 7.02 4.67 1.24 1.22.18 2.858 3.13 1.458-.13.56-.15 1.068.55 1.047-1.68 1.307-4.61.51-6.66 1.088 1.41 2.28 4.11 2.104 6.09 3.353.65.405 3.28 2.527 2.38 3.254-2.26-.185-4.26 1.065-6.52-.011l-1.06 1.828c.39 1.279 3.09 1.193 2.79 2.423-.32 1.302-4.24.36-5.15-.053-.2.542.17.669.39 1.019 1.23 1.98 4.83 5.172 7.07 5.824.54.155.56.249 1.01-.241-.47-2.024-.95-1.299-2.35-1.94-.96-.442-2.1-.971-1.79-2.252 3.18.484 6.07-1.957 8.1-4.078.86-.896 1.41-2.512 2.43-2.66l-.09-.66c-.86.002-3.36-.775-3.26-1.806.13-1.345 3-.925 3.94-1.731.94-.805.68-2.054.94-2.483.17-.293.78-.471.87-.782.1-.33-.46-.831-.48-1.325-.05-1.66.71-5.245 1.14-6.961.09-.322.3-1.51.85-1.144.54.366.83 5.603 1.68 6.626.45.916-.37 3.51-.19 3.974.58 1.534 3.33 1.038 3.65 1.563.5 1.634-1.49 1.76-2.56 2.312 1.84 2.486 4.55 2.207 7.33 1.916l-2.8 1.669 2.46 1.554c-2.11.621-4.1.108-6.24.164 1.74 1.824 5.53 4.287 7.93 4.86 1.27.304 4.11-.928 5.67-.324-1.62 2.528-4.86 3.76-7.77 3.752-.85-.004-1.91-.476-2.44-.418-.53.059-1.45.887-2.33.729 1.76 2.108 3.92 3.91 6.59 4.737 1.32.411-.77-1.924-.3-2.278 3.89 1.85 6.08 3.121 10.6 2.653 2.74-.285 7.15-1.295 9.39-2.838-4.07.774-8.53-.18-12.24-1.948 1.57-1.322 3.35.685 4.83-1.534l3.68-1.483c-2.06.176-4.23.135-6.15-.654l3.23-2.759c-2.24-1.106-4.64-2.232-6.09-4.389 5.34-.628 11.24-1.362 15.57-4.739-3.56-.541-10.19-1.725-8.8-6.637 2.71 1.107 5.94 1.076 8.79.433.5-.112 1.18-.07 1.38-.669-1.4-.258-3.14-.951-2.03-2.498-3.58.062-7.53.24-9.84-2.997l4.7.494c.46.047 3.22-.363 3.54-.932-.79.516-4.85-1.823-4.01-2.383 3.28.027 6.65.292 9.85-.278.25-.734-.03-.525-.33-.763-.66-.517-2.73-1.377-2.24-2.564.29-.713 4.54-1.17 5.15-2.443-1.24-.284-2.44.85-3.56-.374 2.21-1.91 5.04-3.696 5.75-6.697.3-1.23.16-1.395.74-2.824.38-.972-.08-2.286 1.58-1.878-.49 1.652.45 3.031.75 4.566.12.622-.13 1.336.02 2.056.6 2.903 3.35 6.36 4.1 9.402-.78.519-2.92-2.251-3.05-2.118.5 2.405 1.51 5.197 3.17 7.045.83.926 2.98 1.358 2.31 2.811-.25.56-1.28.118-1.06 1.054l5.83 3.725c-.76 1.696-3.64 1.216-5.15.897-.98-.208-4.33-2.073-1.58.984 2.08 2.322 7.83 4.891 10.82 5.896-.19.573-.7.532-1.19.536-4 .026-8.7-1.867-12.25-3.583 1.65 4.333 5.07 6.714 9.26 8.334.8.307 3.56.505 3.77 1.402-.04 3.644-4.93 3.143-7.52 3.252-.23.732.04.527.34.769.82.65 3.4 1.311 3.58 2.145.65 3.107-3.96 1.979-4.15 3.097l2.05 3.59c.57-.173 7.65-1.429 6.61-2.509-.91.101-3.54-.892-3.04-2.088 2.62-1.097 5.49-1.644 7.3-4.163-1.08-.479-2.75-.679-2.69-2.209.27-.685 4.02-.671 4.45-2.008-1.54-.027-3.66-.407-3.36-2.308 2.02-.302 4.01-.671 5.47-2.214l-2.66-.767-.14-.66c3.1-.85 3.76-3.932 4.93-6.528l1.35-6.533c1.01 3.525-1.54 9.832 2.38 11.685l-.26.642-1.15.347c1.08 1.384 3.06 2.133 4.66 2.766.41.165.57.017.94-.051.62.87-3.46 1.676-4.05 1.209-.31 1.83 2.87 1.005 2.34 2.689-.2.656-2.43-.101-2.67.534 1.7 1.404 3.62 1.338 5.68 1.911.65.74-2.64 1.707-3.11 1.635-.57.995 1.97.676 1.33 1.443-.58.693-1.79.304-2.52.548.62 1.844 7.65 3.267 7.75 4.087.18 1.378-3.9 1.215-4.07 1.367-.14.123.24.842.18 1.176-.2 1.152-1.63.788.51 2.55 1.05.856 4.49 1.908 4.53 2.571.04.758-4.79 2.632-5.78 2.135.46.788 3.35 2.724 4.06 2.654.56-.056 3.72-2.232 4.31-2.754l5.01-5.68c-1.26.631-10.15.007-10.02-1.217l3.52-.773-.64-1.7c5.61.784 10.94-5.649 13.49-10.016-4.66 3.598-10.88 7.379-16.86 4.599l6.84-2.717c-1.41-1.636-3.47-2.577-2.73-5.185 3.87.535 7.49-.971 10.49-3.306-1.25-1.013-2.65-2.742-1.86-4.408 2.39-.152 4.53-.398 6.47-1.967l-3.1-1.19c-.63-2.389 2.63-2.04 3.2-3.44.53-1.291-.47-1.724-.58-2.672-.28-2.207 1.9-3.512 2.79-5.178.95-1.806 1.13-3.96 1.74-5.88.11-.343.13-1.04.59-.907-.01.565-.23 1.207-.16 1.758.34 2.653.71 6.79 2.41 8.845.32.384 1.27.422 1.4 1.105.03 1.424-.59 1.751-1.81 2.039.23 1.164 6.05 3.964 3.84 5.177-1.32.725-3.3.741-4.53-.191l-.23.627c1.17.316 1.48 1.682 2.47 2.294 1.66 1.019 3.98.927 5.13 3.245l-6.08 1.808c1.87-.42 1.78 1.333 2.43 1.736.6.368 1.37.19 2.01.446.56.227 1.07 1 1.73 1.257 3.08 1.175 9.81.436 12.61-1.462l-3.03 3.747-6.17 2.8c.13.574 1.61 1.002 2.1 1.111 1.13.257 1.58.174 2.65.165.5-.006 1.11-.293.31.389-1.66.582-3.83 1.531-5.6 1.509-2.19-.024-4.12-1.397-6.24-.945 3.41 3.817 8.07 7.543 13.18 8.568-2.62 2.794-6.95 1.97-10.28 1.207-.17.509.12.673.37 1.024.55.735 1.34.813 1.66 1.469l-5.6.39c1.67.599 2.34 2.36 3.67 3.393 1.4 1.094 3.17 1.533 4.68 2.428 2.63 1.56 3.31 2.985 6.85 3.632 1.19.217 4.83-.104 4.93 1.043-2.25 4.621-6.86 3.644-11.02 2.552-.26.752.08.536.34.763 1.36 1.162 3.03 2.036 4.31 3.314l-.1.977c-1.17 1.728-5.93-.312-7.53-1.03-1.17-.529-2.27-1.3-3.29-2.069-1.1 3.052-3.28.494-5.02-.527-.24.205 1.54 2.789 1.79 3.133 1.46 1.994 4.02 4.713 6.1 6.019 1.48.932 6.71 2.809 7.38 3.642.2.247.3.726.23 1.03-.15 1.095-2.38 1.6-3.19 1.515l-4.7-.493c-.2.549.17.672.38 1.023 1.91 3.119 7.08 8.146 10.65 9.137 1.53.424 3.08.202 4.46.924l-.1.962c-4.01 2.412-8.96 1.513-13.09-.065-.4 1.982.4 1.562 1.34 2.905.46.668 1.06 2.094 1.46 2.506.96.995 4.32 2.193 5.75 3.195.3.208.94.631 1.22 1.061l3.58.441v136H-54V183l3.56-.419c.275-.438.938-.871 1.24-1.083 1.435-1.002 4.786-2.2 5.747-3.195.399-.412 1-1.838 1.468-2.506.933-1.343 1.735-.923 1.34-2.905-4.138 1.578-9.08 2.477-13.093.065l-.103-.962c1.382-.722 2.931-.5 4.46-.924 3.573-.991 8.737-6.018 10.648-9.137.215-.351.582-.474.38-1.023l-4.696.493c-.807.085-3.044-.42-3.188-1.515-.072-.304.03-.783.226-1.03.667-.833 5.903-2.71 7.385-3.642 2.075-1.306 4.637-4.025 6.093-6.019.252-.344 2.037-2.928 1.79-3.133-1.734 1.021-3.92 3.579-5.014.527-1.02.769-2.126 1.54-3.296 2.069-1.593.718-6.36 2.758-7.528 1.03l-.103-.977c1.285-1.278 2.95-2.152 4.312-3.314.264-.227.606-.011.347-.763-4.163 1.092-8.773 2.069-11.026-2.552.102-1.147 3.742-.826 4.932-1.043 3.54-.647 4.223-2.072 6.851-3.632 1.506-.895 3.279-1.334 4.681-2.428 1.324-1.033 1.994-2.794 3.671-3.393l-5.603-.39c.318-.656 1.113-.734 1.655-1.469.258-.351.548-.515.374-1.024-3.332.763-7.663 1.587-10.277-1.207 5.107-1.025 9.769-4.751 13.18-8.568-2.12-.452-4.053.921-6.246.945-1.767.022-3.933-.927-5.597-1.509-.795-.682-.195-.395.314-.389 1.063.009 1.514.092 2.65-.165.483-.109 1.963-.537 2.093-1.111l-6.17-2.8-3.027-3.747c2.798 1.898 9.533 2.637 12.605 1.462.668-.257 1.173-1.03 1.736-1.257.635-.256 1.408-.078 2.008-.446.656-.403.564-2.156 2.43-1.736l-6.077-1.808c1.146-2.318 3.47-2.226 5.126-3.245.994-.612 1.306-1.978 2.47-2.294l-.23-.627c-1.233.932-3.207.916-4.53.191-2.205-1.213 3.613-4.013 3.844-5.177-1.219-.288-1.843-.615-1.816-2.04.138-.682 1.087-.72 1.404-1.104 1.702-2.055 2.073-6.192 2.41-8.844.07-.552-.148-1.194-.162-1.76.462-.133.483.565.591.908.608 1.92.789 4.074 1.745 5.88.883 1.666 3.062 2.97 2.79 5.178-.117.948-1.113 1.38-.585 2.671.574 1.4 3.83 1.052 3.197 3.44l-3.093 1.191c1.934 1.569 4.074 1.815 6.463 1.967.791 1.666-.604 3.395-1.858 4.408 3.002 2.335 6.619 3.841 10.496 3.306.739 2.608-1.325 3.549-2.733 5.185l6.834 2.717c-5.974 2.78-12.2-1.001-16.854-4.599 2.547 4.367 7.88 10.8 13.494 10.016l-.645 1.7 3.517.773c.135 1.224-8.76 1.848-10.017 1.217l5.012 5.68c.586.522 3.745 2.698 4.305 2.754.708.07 3.602-1.866 4.06-2.654-.987.497-5.821-1.377-5.776-2.135.043-.663 3.48-1.715 4.524-2.571 2.148-1.762.712-1.398.512-2.55-.058-.334.32-1.053.182-1.176-.171-.152-4.253.011-4.074-1.367.11-.82 7.132-2.243 7.754-4.087-.727-.244-1.938.145-2.515-.548-.642-.767 1.896-.448 1.326-1.443-.47.072-3.76-.895-3.114-1.635 2.06-.573 3.984-.507 5.688-1.911-.247-.635-2.47.122-2.675-.534-.527-1.684 2.655-.859 2.34-2.689-.592.467-4.67-.339-4.054-1.209.378.068.53.216.943.051 1.605-.633 3.58-1.382 4.66-2.766l-1.152-.347-.255-.642c3.921-1.853 1.374-8.16 2.377-11.685l1.355 6.533c1.168 2.596 1.823 5.678 4.924 6.528l-.134.66-2.659.767c1.46 1.543 3.446 1.912 5.467 2.214.297 1.901-1.822 2.281-3.357 2.308.426 1.337 4.18 1.323 4.45 2.008.059 1.53-1.618 1.73-2.692 2.209 1.808 2.519 4.678 3.066 7.294 4.163.5 1.196-2.123 2.189-3.035 2.088-1.044 1.08 6.044 2.336 6.61 2.509l2.053-3.59c-.197-1.118-4.8.01-4.15-3.097.174-.834 2.753-1.495 3.573-2.145.305-.242.573-.037.339-.769-2.584-.109-7.477.392-7.516-3.252.21-.897 2.969-1.095 3.766-1.402 4.198-1.62 7.618-4.001 9.26-8.334-3.549 1.716-8.246 3.609-12.244 3.583-.492-.004-1.005.037-1.19-.536 2.991-1.005 8.735-3.574 10.821-5.896 2.75-3.057-.604-1.192-1.585-.984-1.51.32-4.393.799-5.144-.897l5.829-3.725c.216-.936-.812-.494-1.068-1.053-.664-1.454 1.48-1.886 2.317-2.812 1.66-1.848 2.669-4.64 3.17-7.045-.136-.133-2.277 2.636-3.05 2.118.746-3.042 3.5-6.5 4.1-9.402.147-.72-.105-1.434.016-2.056.3-1.535 1.24-2.914.752-4.566 1.665-.408 1.197.906 1.584 1.878.573 1.43.44 1.594.733 2.824.716 3 3.544 4.787 5.754 6.697-1.12 1.225-2.324.09-3.56.374.61 1.273 4.86 1.73 5.151 2.443.486 1.187-1.585 2.047-2.238 2.564-.3.238-.58.029-.339.763 3.206.57 6.577.305 9.852.278.838.56-3.213 2.9-4.004 2.383.315.57 3.078.98 3.536.932l4.697-.494c-2.308 3.237-6.26 3.06-9.839 2.996 1.113 1.547-.623 2.24-2.028 2.5.204.597.878.556 1.378.668 2.857.643 6.079.674 8.794-.433 1.384 4.912-5.245 6.096-8.797 6.637 4.327 3.377 10.225 4.111 15.561 4.739-1.448 2.157-3.844 3.283-6.08 4.389l3.23 2.759c-1.93.789-4.092.83-6.153.654l3.68 1.483c1.482 2.219 3.253.212 4.824 1.534-3.704 1.768-8.163 2.722-12.239 1.948 2.244 1.543 6.65 2.553 9.394 2.838 4.522.468 6.706-.803 10.598-2.653.47.354-1.618 2.689-.295 2.278 2.666-.827 4.827-2.629 6.585-4.737-.881.158-1.794-.67-2.325-.729-.53-.058-1.599.414-2.447.418-2.91.008-6.149-1.224-7.772-3.752 1.566-.604 4.403.628 5.675.324 2.398-.573 6.194-3.036 7.929-4.86-2.143-.056-4.128.457-6.235-.164l2.456-1.554-2.795-1.669c2.773.291 5.487.57 7.33-1.916-1.077-.552-3.066-.678-2.567-2.312.319-.525 3.075-.029 3.655-1.563.174-.464-.64-3.058-.189-3.974.85-1.023 1.132-6.26 1.68-6.626.548-.365.759.822.842 1.144.436 1.716 1.195 5.302 1.14 6.962-.017.493-.577.994-.476 1.324.095.31.703.49.875.782.251.429-.004 1.678.933 2.483.937.806 3.81.386 3.945 1.731.102 1.031-2.402 1.808-3.258 1.806l-.095.66c1.025.148 1.571 1.764 2.429 2.66 2.035 2.121 4.924 4.562 8.099 4.078.311 1.281-.826 1.81-1.79 2.252-1.397.641-1.877-.084-2.35 1.94.452.49.473.396 1.013.241 2.236-.652 5.843-3.844 7.074-5.824.218-.35.585-.477.38-1.019-.907.413-4.825 1.355-5.146.053-.303-1.23 2.4-1.144 2.793-2.423l-1.06-1.828c-2.263 1.076-4.263-.174-6.524.011-.902-.727 1.736-2.849 2.378-3.254 1.98-1.249 4.689-1.073 6.098-3.353-2.05-.577-4.985.219-6.66-1.088.697.021.673-.487.545-1.047 2.953 1.4 1.893-.238 3.131-1.459 1.176-1.159 7.104-3.64 7.022-4.669-.076-.935-2.042.32-2.635-.024-.457-.267-.498-1.062-.408-1.546.236-1.306 2.192-1.564 3.095-2.239 1.014-.758 2.835-5.264 3.133-6.631.275-1.251.28-6.884 1.035-7.148 2.319 1.201 2.381 4.722 3.27 6.911 1.048 2.583 2.137 3.641 3.769 5.573 1.717 2.027-.058 3.167-2.073 2.016-.912 1.855.161 1.405 1.064 2.515.594.73.608 1.64 1.578 2.071 1.083.483 2.272.077 3.402.007-.183 2.502-2.425 3.21-4.618 2.772-.022 2 4.018-.06 2.821 1.835-.694 1.095-1.927.93-3.004 1.125-.476.087-.968-.157-.754.564 2.557 1.877 5.591 4.238 8.835 4.447.744.816 4.306 1.156 4.557 1.702 1.132 2.479-5.721 3.098-7.173 3.165l.781 1.218-1.277.299c3.357 3.25 7.946 5.283 12.712 4.353 1.073-.21 1.835-1.444 2.73-.1l-.748 1.55 2.724-2.082c-.963-.554-1.242-1.219-1.22-2.322-1.388.146-3.205.599-4.313-.523l2.913-.313c-.606-.807-1.786-1.162-1.535-2.419 3.249-.45 5.343-3.359 5.696-6.485.175-1.545-.713-5.697 1.66-5.442.62.067 1.804 3.852 1.954 4.596.309 1.534.175 4.156.676 5.371.102.248 2.683 4.296 2.874 4.49 1.098 1.119 3.35 1.056 3.716 2.727.19.717-.118.383-.436.532-1.322.61-2.525.985-3.964 1.231 1.253.704 1.466 2.103 2.992 2.152 3.127.101 7.107-1.36 9.563-3.246 1.165-.895 4.606-4.231 5.449-5.354.272-.366 1.558-2.747 1.314-2.929l-2.126-.395c-1.263 1.298-2.792 3.653-4.508 4.354-1.222.499.288-1.402-.004-1.624-2.598 1.377-5.324 2.413-8.317 1.847 1.92-3.435 5.293-2.217 8.07-5.45.194-.225 1.814-2.569 1.547-2.741-.933.507-2.2-.269-2.803-.229-1.194.083-4.226 1.508-5.764 1.752-1.206.192-1.927.065-2.81-.819-.101-.758 3.758-.568 3.369-2.148-2.356.192-6.748.807-7.43-2.161l7.287-.766c.612-.064 3.66-1.38 4.406-1.764 2.161-1.111 4.119-2.847 4.502-5.376-.174-.142-3.577 1.04-4.316 1.119-1.33.136-2.96-.37-4.271-.243-1.385.136-3.361 1.45-4.4.167l2.164-1.207c-.915.152-1.806.034-2.702-.137-.415-.078-1.533-.24-1.642-.716l5.67-.596c.596-.063 3.632-1.679 4.294-2.148 1.65-1.173 3.416-2.914 2.635-5.112-1.157-.002-1.161.965-2.305 1.239-.831.198-5.23.72-5.422-.259.334-1.62 2.541-1.204 3.298-2.64-1.573-.525-3.879-.18-4.484-2.136-.194-.631.045-.44.434-.54 1.587-.397 3.247.179 4.443-1.444l-2.226-.912c-.961-1.219.337-.199.47-.213l4.858-.51c.152-.017 2.458-1.172 2.733-1.342.871-.54 1.241-1.304.977-2.315l-3.353.684c-1.088-2.12 3.245-2.51 3.239-4.916-1.576.784-2.872 1.025-4.633 1.139-.394.025-1.176.372-1.161-.2l2.521-.927c-.266-.695-1.291-.22-1.104-1.18.645-.196 1.349-.578 1.835-1.035 1.369-1.288 2.994-6.837 2.082-8.66l.618-3.197c.509 2.531 1.084 5.671 1.87 8.098.786 2.426 2.291 3.647 4.894 3.275.527.348-1.397 2.309-2.063 2.179l.482.677 1.238.119c-.783 1.684-2.128.992-3.529.694l.354 2.846c1.066.72 2.459.217 3.379.398.759.15 1.035 2.924.825 3.392-.231.516-3.687 1.777-2.923 2.656 2.195.612 4.141 2.444 6.552 1.908.833-.182 2.521-1.496 3.264-.667.742.83-.588 3.826-1.367 4.553-.448.42-2.612 1.248-1.748 1.828 2.546 1.714 5.589.611 8.142-.358l-3.342 2.474 1.702.633c-1.951.418-4.649.761-6.649.72-.972-.023-1.492-.693-2.06-.695-.773 0-1.721.839-2.725.2 2.023 6.025 9.045 8.281 14.708 5.97-2.296 1.98-4.784 4.878-8.015 4.76-.704.624 5.205 1.687 5.936 1.623 1.64-.142 3.192-1.436 4.887-1.457.297 2.602-1.972 2.595-3.527 3.8l2.314.241c-1.758.801-3.499 1.145-5.433 1.234l1.395.826c-2.906 1.2-4.746 1.288-7.548-.183-.17.267 1.846 5.339 2.181 5.883 1.494 2.421 6.706 3.769 9.368 4.338l-.868 1.065c1.34-.135 2.72.804 3.918-.082.559.466-2.183 2.464-2.674 2.571-.039.44.16.321.522.276 4.57-.552 10.372-6.311 12.164-10.43-2.051 1.07-2.975 3.165-4.878 4.482-1.192.823-2.487 1.533-3.971 1.666l1.773-1.815c-1.143.039-2.529 1.262-3.591 1.262-.872 0-3.982-1.252-4.677-2.027 3.125-.142 5.896-.413 7.502-3.402-2.164 1.147-4.243 1.788-6.734 1.352l1.53-.97-2.129-1.577 5.022-.528c.632-.067 3.198-.936 3.966-1.233 4.02-1.542 6.651-4.705 6.906-9.052l-4.488 2.433c-.313-.438.978-.963 1.305-1.312.327-.349.745-.587.555-1.176-2.784 1.236-5.259 2.61-8.352 1.526 1.264-1.544 4.882-.332 5.234-3.157-3.23.828-5.654-.224-7.498-2.802 3.693.808 6.034 2.003 9.423-.672l-1.681-.47 4.905-3.135c-.033-.622-.951-.1-1.458-.21-.409-.092-.542-.514-.622-.869l-.636.067c-.026.783-.58 1.434-1.22 1.829-.709.438-4.588 1.932-4.749.593 1.523-.854 2.719-1.635 3.234-3.438-1.14-.218-2.041.192-3.068.333-.514.07-.549.116-.552-.447l1.673-2.796c2.166.587 6.647-.647 8.268-2.183.751-.711 1.462-1.9.976-2.969-.346-.76-1.956-.462-2.08-1.458 1.609-2.681.767-5.151 1.981-7.877l.277-4.945c.661 1.123.414 2.452.781 3.6.209.652.857 1.137 1.094 1.931.202.673.037 1.497.311 2.172.381.94 2.11.813 1.18 2.844-.405.888-1.375.734-1.102 1.616 1.162-.08 2.155.577 2.771 1.51-.67 1.174-1.934.276-2.87.627.404 1.385 2.534 1.086 2.708 1.224.214.174.052 1.774 1.472 2.381 1.421.608 2.86-.483 4.096.425-.564 1.304-1.831 1.578-2.676 2.266-1.404 1.14-1.835 2.876-4.408 1.905-.796.808 2.162 4.165 2.929 4.599.854.486 1.883.483 2.826.348l.136 1.293 2.231-.56c-.241 1.795-2.256 2.852-3.936 3.029l3.336.622c-1.934.74-4.117.927-6.145.645.246.911-.769 1.67-.65 2.46.134.891 2.429 4.241 3.248 4.736.535.323 3.525 1.051 4.162 1.086 1.131.064 2.282-.99 3.51-.867.876.595-3.652 3.996-4.515 3.744l3.011.656-4.395 1.775 1.72.799c-.875 2.588-5.04-1.485-5.351-1.072.943 4.791 4.275 7.52 7.063 11.187 1.447.703 1.413-1.713 1.696-2.634-1.909.639-4.254-.929-4.548-2.791l4.207-.45c-2.612-3.059-.313-2.6 1.376-4.058.799-.69 1.482-1.958 1.121-3.027l-1.318-.382c.164-1.056 1.684-1.622 1.913-2.003.129-.217.855-4.139.69-4.318l-2.894.468c.475-1.183 2.693-2.192 3.026-3.17.333-.98-.098-1.97.001-2.956.074-.731.663-1.668.808-2.6.219-1.406.223-2.873.366-4.287.572-.135.39.693.395 1.059.044 3.343-.041 6.739.509 10.045.441 1.297 2.812 2.584 4.15 2.741.34 1.334-2.177.625-2.878.627l2.336 2.044c1.271 2.117-1.805 2.909-1.773 3.282 1.762.801 1.977 2.438 3.945 2.795 1.743.315 3.43-.111 5.152-.318-.452 1.344-1.806 1.69-3.069 1.957-.05.716 3.184.962 2.472 1.695l-6.118.975c-.692.645 1.93.881 2.06 1.571.224 1.195-2.551 1.582-1.912 2.982 3.231.811 5.185.562 8.064-1.168-.818 1.694-2.289 2.606-3.799 3.583-.684.442-.627.548.12.394 2.952-.605 4.896-3.339 7.173-5.003l-4.277 9.108 2.06.919c-1.926.291-4.421.03-5.709 1.747l3.036-.172c.881.117.547 2.426.223 3.023-.145.271-2.36 1.804-1.426 2.184 1.268-.353 2.942.425 3.827.397.801-.022 2.094-.789 3.145-.985 1.935-.358 6.725.462 7.649-.628.7-.821-1.19-2.718-.755-4.005 1.226.474 2.364-.612 2.836-1.7 1.23-2.832 1.09-8.346 1.671-11.513.6.058.673.572.776 1.049.488 2.245 1.093 5.074.752 7.281l2.353-2.527-1.048 4.028c.778-.18 2.151-.334 2.801-.694.573-.316.586-1.067 1.061-1.51.474-.443 1.246-.584 1.857-1.162 1.524-1.438.668-2.818 1.411-4.479 1.046-2.336 3.269-1.451 5.242-1.972.938-.249 1.64-1.175 2.323-1.388.682-.212 1.234.237 1.948-.172.389-.224 1.404-1.985 1.082-2.246-2.251.938-4.477 2.03-6.987 2.035l1.051-.756c1.543-1.315-5.143-1.015-4.666-2.454l5.67-.595c.844-.09 4.622-2.927 5.33-3.824l-8.735 2.576-6.518-1.296c1.951-1.024 4.141-.888 6.153-1.391 4.458-1.114 7.475-5.031 11.266-7.31l-.229-.627c-1.545.427-3.563.964-5.115 1.193-.484.07-.914.318-.851-.393 1.358-1.646 3.431-3.089 4.537-4.912.741-1.214 2.498-4.642 2.893-5.941.37-1.221.613-2.587.514-3.867-2.47 3.125-4.416 6.475-8.059 8.418-.975.518-1.857.64-2.732 1.047-.821.384-1.718 1.483-2.488 1.24 2.276-2.857 5.807-4.87 5.932-8.95-.478-.374-5.405 2.236-6.08 2.922l.595-2.188-2.917.312c.702-1.338 2.084-1.168 3.199-1.848 1.004-.614 2.037-2.439 2.93-2.955.964-.557 2.272-.494 3.23-1.234.524-.405 2.893-3.131 3.368-3.784 1.097-1.507 2.037-2.73-.725-2.062-1.185.285-2.039 1.235-3.288 1.33l1.124-1.741-1.987-.48c-.537-2.865 4.203-3.478 5.34-4.947.56-.724.158-1.9 1.39-2.426-4.442-2.297.151-3.36.422-4.686.371-1.837 1.216-4.965 1.249-6.675.033-1.59-.428-3.172-.334-4.706.029-.441 1.003-4.583 1.24-4.61.65.327.534.817.646 1.382.463 2.316.632 5.699 1.438 7.717.155.383 1.583 3.228 1.707 3.372.785.926 4.04.423 3.533 3.176-.134 1.193-2.255 1.282-2.572 1.787-.575.919 1.902 2.66 2.13 3.733 1.574.948 2.841 1.555 4.75 1.161.779 1.084.498 2.126-.132 3.211l-2.859 2.116c2.265 2.811 4.782 5.894 8.535 6.46-1.438 1.592-4.658 1.173-6.385.015-.228-.045-.202.333-.106.496.188.318 5.006 4.453 5.578 4.806 2.219 1.368 7.007 2.302.895 3.826l2.077 1.083c-3.537.84-6.542-1.718-8.925-3.96.505 1.215 1.22 3.216 2.116 4.14.662.684 2.478 1.12 2.731 1.78.48 1.264-2.046 1.952-1.34 2.526 1.872.23 3.659.614 5.494-.138 1.285-.528 2.064-1.976 3.404-2.421l-.681 2.85c-.156.748 2.34-1.747 2.551-2.08.21-.334 1.312-3.446 1.399-3.898.165-.862-1.24-.237-1.811-.31-1.04-.134-1.989-.615-3.176-.464 3.881-3.919 7.029-8.056 7.722-13.71l-4.41 6.336-.622-1.238-2.161 1.203c.147-.763 4.286-4.869 3.698-5.282-2.012.283-3.87-.34-5.549-1.376l3.729-.392c.083-.955-.324-.49-.787-.657-1.161-.415-2.369-.747-3.081-1.874l5.537-.262-1.429-1.15c3.77.23 1.353-2.536 1.994-4.451.28-.835 2.26-2.449 2.746-3.4l-.65-.23.137-1.512-.98-.053c1.201-3.01 2.171-5.663 1.349-8.963l.319-3.14c.257 1.88 1.179 3.332 1.759 4.951.26.723.162 1.536.476 2.335.742 1.92 3.755 3.684 3.48 6.304l-.934.3c-.325 1.525.723 1.15 1.319 1.765.629.655 1.034 1.74 1.808 2.34.853.663 2.945.758 2.11 2.349l.978.057c.032.43-.799.809-1.136 1.001-1.24.71-2.394 1.08-3.824 1.201l-.489 1.948 1.393.844-2.918.306c-.14 4.587 4.601 4.764 8.078 4.012 3.131-.676 4.896-2.618 6.889-4.93.134 4.43-2.019 7.674-6.239 9.153l3.393 1.435c.893.05 1.848-1.347 2.6-.234.06 3.027-3.175 3.652-5.368 4.773l4.019.881c-1.294 2.065-7.686-.413-7.579 2.412.066 1.755 1.148 1.324 2.095 1.791 3.063 1.51 4.739 2.993 8.381 1.536.648 2.949-.748 3.918-2.668 5.669 1.778 1.634 4.253 2.082 6.506 2.749l-.226.996c1.116-.576 2.458.253 3.192.248.829-.005 3.686-3.001 2.704 1.41-.685 3.085-2.239 4.015-5.217 4.809.911 1.149 2.559-.167 3.505 1.349.946 1.515-.775 1.578-.761 2.932 2.021-.015 3.944.699 5.463-1.128l.638-3.103c-2.194.64-2.023-1.601-4.36-1.012a12.683 12.683 0 004.326-7.041 5.532 5.532 0 01-1.807-.905l-.694.4.282-.757a5.647 5.647 0 01-.798-.948l-2.862.75.224-.996c-.684.174-4.136.041-4.037-1.044.076-.813 2.921-.235 3.476-1.04l3.374-2.3c.107-.699-.446-.242-.832-.8-1.699-2.449.12-3.849 1.782-5.498-1.434-1.05-.921-1.6-.617-3.037-1.53-.061-3.845-.349-4.158-2.176 2.439.817 4.912.276 7.132-.96l.042-2.409-2.502 1.082 1.45-1.793-.682-.25c2.323-3.66 1.75-8.202 1.979-12.294.027-.488-.088-1 .527-1.196-.301 1.342.786 2.397.99 3.342.656 3.023.268 8.63 3.384 10.428 1.2.692 2.543.025 3.014 1.763.13.485.059 1.008-.091 1.507 3.269-1.466 6.279-3.772 8.732-6.16-2.082-.599-4.107.636-6.296.507-1.765-.101-3.858-1.2-5.477-1.896-.746-.736-.167-.408.34-.367 1.059.084 1.504.199 2.655.022.49-.076 1.994-.399 2.164-.962l-5.96-3.225-2.757-3.949c2.66 2.088 9.325 3.296 12.472 2.339.684-.21 1.242-.946 1.819-1.133.652-.212 1.411.02 2.036-.305.681-.357.712-2.111 2.543-1.563l-5.934-2.228c1.305-2.232 3.616-1.977 5.339-2.878 1.034-.542 1.442-1.883 2.624-2.117l-.186-.641c-1.294.843-3.263.69-4.531-.125-2.115-1.364 3.884-3.752 4.196-4.897-1.197-.372-1.797-.742-1.671-2.16.186-.672 1.136-.644 1.479-1.005 1.84-1.932 2.5-6.033 3.021-8.655.109-.545-.065-1.2-.039-1.766.469-.1.442.597.526.947.473 1.958.502 4.119 1.331 5.987.764 1.724 2.847 3.177 2.421 5.36-.183.938-1.207 1.3-.77 2.624.474 1.437 3.748 1.317 2.949 3.655l-3.169.971c1.821 1.7 3.939 2.096 6.311 2.414.673 1.717-.839 3.345-2.16 4.268 2.831 2.538 6.334 4.293 10.238 4.03.556 2.653-1.569 3.448-3.088 4.98l6.628 3.188c-6.153 2.356-12.099-1.849-16.492-5.764 2.236 4.535 7.108 11.324 12.763 10.934l-.762 1.65 3.454 1.017c.049 1.23-8.867 1.232-10.076.515l4.603 6.016c.549.562 3.548 2.953 4.102 3.048.702.119 3.723-1.61 4.235-2.364-1.019.426-5.709-1.779-5.613-2.532.088-.659 3.592-1.469 4.693-2.25 2.266-1.608.808-1.346.689-2.51-.034-.337.39-1.025.263-1.158-.159-.164-4.243-.286-3.968-1.648.164-.81 7.27-1.74 8.019-3.537-.708-.294-1.943.01-2.47-.722-.586-.81 1.923-.315 1.423-1.347-.471.04-3.689-1.155-2.993-1.848 2.095-.428 4.01-.228 5.808-1.51-.202-.651-2.473-.05-2.631-.72-.409-1.716 2.709-.671 2.521-2.519-.621.426-4.635-.664-3.959-1.49.371.095.514.254.937.119 1.645-.52 3.669-1.129 4.843-2.435l-1.127-.427-.209-.657c4.041-1.576 1.94-8.044 3.186-11.49l.897 6.61c.984 2.672 1.421 5.793 4.456 6.857l-.18.648-2.706.58c1.349 1.642 3.304 2.147 5.299 2.59.165 1.917-1.976 2.148-3.509 2.068.332 1.364 4.078 1.611 4.298 2.314-.048 1.53-1.734 1.612-2.839 2.016 1.628 2.639 4.453 3.385 6.987 4.662.413 1.227-2.272 2.035-3.174 1.871-1.115 1.004 5.865 2.75 6.418 2.963l2.299-3.438c-.118-1.13-4.789-.325-3.923-3.38.232-.82 2.85-1.298 3.714-1.89.321-.219.574.003.391-.743-2.57-.289-7.487-.13-7.271-3.769.272-.88 3.037-.885 3.854-1.136 4.301-1.323 7.88-3.459 9.82-7.666-3.66 1.464-8.478 3.024-12.464 2.72-.491-.038-1.006-.033-1.151-.618 3.055-.794 8.964-2.957 11.207-5.128 2.956-2.858-.519-1.23-1.512-1.092-1.529.213-4.438.49-5.07-1.254l6.075-3.308c.281-.92-.776-.55-.992-1.126-.56-1.496 1.608-1.777 2.507-2.643 1.786-1.728 2.986-4.443 3.653-6.806-.125-.143-2.454 2.47-3.188 1.9.956-2.983 3.944-6.24 4.744-9.094.197-.707-.004-1.438.16-2.05.407-1.51 1.441-2.82 1.07-4.502 1.688-.29 1.13.987 1.448 1.983.472 1.467.327 1.622.534 2.87.504 3.043 3.202 5.022 5.273 7.081-1.202 1.144-2.324-.072-3.576.125.519 1.312 4.725 2.064 4.967 2.796.401 1.218-1.723 1.932-2.411 2.402-.315.217-.581-.012-.392.738 3.159.792 6.54.762 9.808.965.798.617-3.407 2.667-4.16 2.097.275.59 3.003 1.192 3.463 1.176l4.719-.164c-2.528 3.067-6.457 2.614-10.023 2.302 1.002 1.62-.778 2.192-2.197 2.352.161.61.836.616 1.327.762 2.805.84 6.017 1.097 8.803.181 1.038 4.997-5.658 5.717-9.239 6.008 4.081 3.671 9.913 4.814 15.193 5.813-1.595 2.05-4.064 3.007-6.372 3.955l3.03 2.977c-1.98.653-4.14.543-6.183.223l3.567 1.736c1.323 2.317 3.231.439 4.706 1.867-3.819 1.505-8.333 2.146-12.346 1.09 2.13 1.695 6.456 3.011 9.173 3.487 4.479.782 6.746-.334 10.758-1.908.444.385-1.802 2.569-.453 2.251 2.717-.639 4.998-2.286 6.899-4.266-.89.096-1.743-.793-2.269-.889-.525-.095-1.623.301-2.469.246-2.903-.195-6.049-1.65-7.492-4.286 1.604-.492 4.348.934 5.638.72 2.432-.404 6.39-2.596 8.248-4.294-2.133-.206-4.149.167-6.208-.599l2.559-1.38-2.671-1.859c2.747.484 5.434.95 7.445-1.401-1.036-.626-3.011-.889-2.398-2.485.355-.5 3.069.186 3.754-1.304.205-.451-.425-3.095.089-3.977.918-.96 1.565-6.165 2.137-6.493.573-.326.7.872.76 1.2.315 1.742.824 5.371.653 7.024-.051.49-.645.951-.568 1.288.073.317.667.537.818.841.221.446-.12 1.673.758 2.542.878.87 3.773.651 3.814 2.002.029 1.036-2.523 1.637-3.376 1.576l-.14.65c1.012.22 1.444 1.869 2.237 2.822 1.883 2.259 4.594 4.896 7.794 4.634.222 1.3-.95 1.749-1.941 2.122-1.439.543-1.866-.215-2.479 1.772.416.52.442.427.992.31 2.276-.493 6.098-3.427 7.463-5.316.243-.334.618-.436.452-.99-.934.348-4.909 1.015-5.138-.306-.217-1.248 2.473-.974 2.955-2.223l-.931-1.897c-2.332.915-4.24-.47-6.509-.444-.849-.788 1.931-2.72 2.6-3.08 2.062-1.108 4.752-.743 6.316-2.92-2.004-.718-4.988-.128-6.567-1.55.694.07.706-.439.617-1.006 2.848 1.602 1.905-.105 3.225-1.237 1.254-1.073 7.34-3.135 7.33-4.168-.01-.938-2.058.176-2.626-.208-.438-.297-.423-1.093-.3-1.57.327-1.286 2.296-1.407 3.243-2.018 1.066-.685 3.197-5.052 3.59-6.396.362-1.228.759-6.85 1.531-7.059 2.23 1.36 2.046 4.877 2.78 7.123.865 2.65 1.877 3.781 3.37 5.822 1.572 2.142-.278 3.155-2.208 1.867-1.04 1.786.062 1.412.886 2.583.542.77.492 1.678 1.429 2.177 1.047.556 2.262.234 3.394.243-.357 2.483-2.643 3.032-4.8 2.442-.162 1.994 4.012.222 2.687 2.029-.769 1.043-1.988.793-3.077.913-.48.052-.953-.225-.791.51 2.42 2.05 5.282 4.616 8.503 5.051.686.866 4.216 1.454 4.428 2.017.956 2.551-5.923 2.69-7.376 2.656l.693 1.27-1.294.209c3.122 3.476 7.558 5.824 12.377 5.23 1.085-.137 1.931-1.313 2.73.09l-.855 1.493 2.864-1.886c-.922-.62-1.155-1.302-1.056-2.401-1.394.049-3.239.374-4.266-.822l2.928-.11c-.548-.847-1.701-1.283-1.363-2.52 3.273-.222 5.564-2.979 6.135-6.073.282-1.528-.314-5.732 2.036-5.312.613.11 1.531 3.969 1.629 4.722.201 1.55-.116 4.157.299 5.404.087.258 2.377 4.474 2.554 4.68 1.017 1.193 3.268 1.287 3.516 2.98.139.728-.144.373-.472.498a15.072 15.072 0 01-4.04.953c1.202.79 1.316 2.2 2.835 2.356 3.113.318 7.185-.86 9.767-2.57 1.224-.813 4.888-3.9 5.807-4.962.298-.347 1.748-2.633 1.516-2.83l-2.093-.544c-1.35 1.208-3.04 3.451-4.801 4.03-1.253.412.386-1.379.111-1.62-2.689 1.192-5.481 2.036-8.427 1.262 2.155-3.292 5.435-1.842 8.431-4.874.208-.209 1.988-2.436 1.734-2.626-.966.441-2.177-.423-2.78-.424-1.197 0-4.321 1.21-5.872 1.345-1.216.108-1.928-.069-2.746-1.011-.05-.765 3.789-.306 3.511-1.91-2.363.027-6.789.335-7.262-2.673l7.323-.256c.616-.022 3.747-1.121 4.518-1.451 2.234-.959 4.308-2.553 4.867-5.05-.162-.154-3.642.788-4.385.814-1.336.044-2.926-.576-4.242-.54-1.392.039-3.454 1.213-4.402-.14l2.243-1.052c-.923.087-1.804-.093-2.686-.326-.408-.107-1.512-.346-1.588-.828l5.697-.2c.6-.02 3.74-1.42 4.434-1.843 1.728-1.054 3.612-2.669 2.985-4.916-1.154-.083-1.225.88-2.386 1.075-.843.14-5.268.353-5.39-.637.447-1.593 2.619-1.023 3.474-2.402-1.532-.635-3.857-.45-4.325-2.445-.149-.643.077-.436.472-.508 1.611-.285 3.227.406 4.533-1.13l-2.157-1.065c-.873-1.283.348-.176.482-.18l4.883-.17c.153-.006 2.535-.998 2.82-1.149.907-.478 1.329-1.214 1.136-2.24l-3.393.448c-.938-2.19 3.414-2.277 3.575-4.679-1.627.673-2.937.823-4.701.813-.395-.003-1.2.29-1.145-.28l2.579-.747c-.217-.713-1.272-.312-1.018-1.256.656-.15 1.385-.481 1.902-.904 1.455-1.188 3.465-6.61 2.682-8.494l.839-3.145c.33 2.56.686 5.732 1.3 8.208.615 2.475 2.032 3.797 4.654 3.608.502.383-1.554 2.206-2.209 2.03l.432.708 1.227.206c-.899 1.625-2.192.842-3.569.447l.156 2.863c1.012.792 2.436.388 3.342.633.747.202.828 2.99.586 3.441-.266.498-3.801 1.515-3.101 2.446 2.146.762 3.96 2.726 6.403 2.36.844-.123 2.619-1.316 3.302-.437.683.88-.853 3.776-1.681 4.447-.476.388-2.692 1.061-1.871 1.7 2.421 1.888 5.534 1 8.148.212l-3.506 2.234 1.653.751c-1.976.281-4.691.434-6.683.253-.969-.09-1.441-.794-2.006-.836-.772-.054-1.775.717-2.733.01 1.598 6.151 8.445 8.891 14.255 6.98-2.428 1.816-5.112 4.534-8.327 4.19-.746.573 5.072 2.045 5.808 2.033 1.646-.028 3.284-1.21 4.977-1.112.114 2.616-2.148 2.451-3.783 3.545l2.291.402c-1.809.676-3.57.897-5.506.85l1.334.922c-2.982.995-4.823.954-7.517-.709-.189.25 1.468 5.452 1.766 6.021 1.321 2.52 6.426 4.228 9.042 4.981l-.939 1.001c1.345-.04 2.657.993 3.914.193.525.503-2.351 2.305-2.847 2.378-.07.436.136.33.501.311 4.597-.232 10.786-5.572 12.861-9.556-2.12.924-3.187 2.95-5.177 4.131-1.247.738-2.589 1.356-4.079 1.385l1.896-1.686c-1.143-.042-2.611 1.081-3.67 1.007-.87-.06-3.886-1.526-4.524-2.348 3.127.077 5.909 0 7.72-2.87-2.238.994-4.357 1.488-6.811.88l1.594-.862-2.014-1.721 5.046-.177c.635-.022 3.256-.71 4.044-.953 4.117-1.259 6.961-4.23 7.518-8.548l-4.645 2.114c-.283-.46 1.042-.893 1.392-1.219.351-.325.784-.532.636-1.133-2.863 1.038-5.427 2.237-8.437.94 1.368-1.453 4.893.008 5.441-2.785-3.28.6-5.625-.619-7.285-3.319 3.628 1.064 5.88 2.42 9.448-.013l-1.644-.585 5.111-2.786c.01-.623-.942-.166-1.44-.312-.402-.12-.505-.549-.56-.909l-.638.023c-.08.778-.679 1.389-1.345 1.738-.737.387-4.712 1.609-4.779.261 1.579-.746 2.826-1.442 3.466-3.204-1.122-.297-2.05.049-3.085.118-.517.034-.554.077-.519-.485l1.864-2.673c2.119.738 6.676-.18 8.401-1.6.799-.657 1.591-1.793 1.181-2.893-.292-.782-1.919-.598-1.974-1.6 1.792-2.563 1.124-5.085 2.526-7.72l.621-4.914c.582 1.166.243 2.475.528 3.645.163.666.775 1.196.957 2.004.154.686-.068 1.496.158 2.189.314.963 2.049.958.98 2.919-.466.857-1.423.636-1.212 1.535 1.164.002 2.109.725 2.658 1.7-.75 1.124-1.949.14-2.907.424.307 1.41 2.454 1.261 2.616 1.412.202.19-.072 1.773 1.303 2.477 1.375.705 2.886-.283 4.055.71-.654 1.26-1.935 1.446-2.826 2.074-1.48 1.04-2.031 2.74-4.53 1.591-.851.75 1.866 4.306 2.601 4.792.818.546 1.844.614 2.793.545l.046 1.3 2.266-.402c-.365 1.773-2.45 2.686-4.138 2.745l3.285.853c-1.981.604-4.172.639-6.176.216.182.926-.883 1.612-.82 2.409.071.897 2.127 4.401 2.91 4.95.511.361 3.444 1.295 4.076 1.374 1.123.143 2.345-.829 3.562-.62.832.655-3.924 3.732-4.766 3.42l2.96.865-4.509 1.464 1.659.917c-1.054 2.52-4.923-1.833-5.262-1.443.607 4.846 3.74 7.8 6.265 11.653 1.394.801 1.528-1.611 1.875-2.51-1.949.504-4.178-1.224-4.342-3.102l4.229-.154c-2.393-3.235-.131-2.617 1.655-3.953.845-.633 1.615-1.85 1.329-2.941l-1.288-.473c.237-1.042 1.794-1.5 2.049-1.864.143-.204 1.142-4.073.989-4.26l-2.92.265c.557-1.147 2.84-2 3.24-2.953.401-.952.039-1.97.207-2.947.125-.725.778-1.618.988-2.538.316-1.387.422-2.85.664-4.251.579-.095.341.718.321 1.084-.19 3.338-.512 6.72-.193 10.057.349 1.324 2.624 2.773 3.947 3.024.246 1.353-2.215.471-2.914.424l2.187 2.202c1.121 2.2-2.003 2.776-1.997 3.15 1.702.922 1.802 2.57 3.74 3.064 1.718.435 3.43.128 5.162.042-.545 1.31-1.919 1.56-3.198 1.738-.098.71 3.11 1.182 2.348 1.863l-6.171.545c-.736.596 1.864 1.014 1.944 1.712.14 1.208-2.654 1.4-2.115 2.842 3.167 1.034 5.134.922 8.127-.603-.934 1.633-2.466 2.44-4.04 3.31-.713.392-.663.502.093.4 2.986-.397 5.117-2.988 7.504-4.49l-4.902 8.786 1.991 1.062c-1.942.156-4.413-.279-5.818 1.345l3.041.04c.871.178.377 2.457.012 3.031-.164.26-2.48 1.635-1.574 2.079 1.289-.263 2.905.629 3.79.663.8.034 2.143-.642 3.205-.764 1.956-.221 6.676.931 7.675-.091.756-.77-.999-2.796-.475-4.049 1.19.558 2.401-.446 2.948-1.498 1.425-2.739 1.669-8.25 2.47-11.368.594.1.632.617.701 1.1.331 2.273.737 5.137.242 7.316l2.524-2.357-1.326 3.945c.788-.125 2.169-.183 2.842-.497.594-.275.659-1.023 1.164-1.432.504-.409 1.283-.495 1.933-1.03 1.62-1.327.863-2.764 1.72-4.369 1.206-2.258 3.363-1.22 5.368-1.602.952-.183 1.718-1.057 2.413-1.222.696-.164 1.215.322 1.956-.036.405-.198 1.539-1.882 1.236-2.165-2.312.778-4.608 1.713-7.112 1.543l1.101-.68c1.631-1.205-5.061-1.373-4.484-2.775l5.698-.198c.847-.03 4.815-2.598 5.585-3.443l-8.895 1.96-6.411-1.748c2.017-.885 4.193-.596 6.235-.957 4.525-.8 7.808-4.497 11.749-6.506l-.185-.642c-1.571.319-3.622.713-5.187.833-.488.036-.933.254-.821-.45 1.469-1.548 3.638-2.843 4.869-4.584.824-1.16 2.816-4.456 3.3-5.725.454-1.193.792-2.538.783-3.822-2.682 2.946-4.857 6.151-8.627 7.835-1.008.449-1.897.509-2.798.853-.846.326-1.818 1.361-2.569 1.064 2.47-2.69 6.133-4.451 6.542-8.514-.45-.407-5.548 1.853-6.27 2.491l.748-2.141-2.932.108c.793-1.286 2.16-1.02 3.319-1.621 1.044-.542 2.203-2.29 3.13-2.743 1.001-.488 2.301-.335 3.308-1.006.551-.368 3.104-2.921 3.624-3.54 1.199-1.426 2.222-2.58-.579-2.108-1.203.202-2.121 1.091-3.373 1.099l1.243-1.66-1.949-.616c-.336-2.896 4.436-3.177 5.672-4.563.609-.683.29-1.884 1.556-2.323-4.272-2.602.386-3.342.748-4.646.498-1.807 1.559-4.868 1.711-6.572.144-1.583-.206-3.194-.005-4.717.06-.44 1.32-4.5 1.558-4.513.626.372.477.853.549 1.424.3 2.343.233 5.73.895 7.8.128.393 1.356 3.33 1.469 3.482.719.978 3.999.704 3.302 3.414-.217 1.18-2.338 1.122-2.69 1.603-.638.877 1.711 2.787 1.863 3.873 1.505 1.056 2.726 1.75 4.658 1.49.701 1.136.349 2.155-.355 3.194l-2.999 1.91c2.064 2.963 4.359 6.214 8.064 7.04-1.547 1.488-4.73.846-6.372-.43-.224-.06-.223.318-.139.488.165.33 4.684 4.79 5.229 5.182 2.118 1.52 6.829 2.787.625 3.88l1.996 1.225c-3.586.591-6.406-2.17-8.626-4.573.418 1.247.993 3.294 1.823 4.279.612.728 2.393 1.29 2.599 1.967.391 1.293-2.177 1.803-1.513 2.425 1.852.36 3.608.869 5.491.246 1.319-.438 2.196-1.828 3.563-2.18l-.878 2.796c-.209.737 2.457-1.579 2.691-1.897.234-.32 1.549-3.345 1.668-3.79.225-.848-1.221-.323-1.786-.436-1.028-.206-1.941-.75-3.136-.683 4.145-3.639 7.574-7.546 8.66-13.139l-4.842 6.014-.534-1.28-2.239 1.05c.199-.75 4.615-4.558 4.058-5.011-2.027.142-3.838-.61-5.44-1.76l3.746-.13c.15-.947-.289-.511-.739-.71-1.129-.496-2.311-.912-2.942-2.086l5.542.126-1.345-1.247c3.745.492 1.526-2.436 2.299-4.302.336-.813 2.425-2.284 2.977-3.2l-.633-.274.242-1.498-.973-.123c1.408-2.918 2.56-5.497 1.971-8.847l.537-3.11c.125 1.893.943 3.407 1.409 5.063.208.74.055 1.543.311 2.361.607 1.968 3.49 3.937 3.033 6.532l-.953.235c-.431 1.498.641 1.197 1.192 1.853.582.696.911 1.806 1.642 2.459.804.721 2.884.962 1.939 2.49l.974.126c.002.43-.855.75-1.205.919-1.286.622-2.463.91-3.897.931l-.625 1.91 1.331.938-2.932.103c-.459 4.566 4.258 5.073 7.779 4.565 3.17-.456 5.067-2.27 7.216-4.437-.175 4.429-2.55 7.514-6.863 8.695l3.284 1.668c.888.112 1.937-1.215 2.611-.052-.152 3.024-3.422 3.421-5.688 4.387l3.948 1.16c-1.435 1.97-7.639-.949-7.73 1.877-.056 1.755 1.054 1.4 1.966 1.933 2.95 1.719 4.519 3.316 8.254 2.117.44 2.987-1.02 3.856-3.058 5.469 1.66 1.754 4.098 2.373 6.299 3.196l-.295.978c1.154-.496 2.435.424 3.167.47.828.052 3.887-2.736 2.6 1.595-.899 3.03-2.515 3.848-5.54 4.433.828 1.21 2.563.013 3.401 1.59.838 1.578-.883 1.52-.963 2.873 2.017.125 3.886.972 5.528-.744l.853-3.052c-2.233.486-1.907-1.74-4.279-1.314 2.886-2.053 4.832-5.267 5.227-8.798l-2.88 1.398.903-1.98-4.205.792.292-.978c-.694.125-4.129-.248-3.954-1.323.131-.806 2.931-.03 3.541-.795l3.525-2.06c.155-.69-.427-.271-.774-.856-1.524-2.56.389-3.83 2.162-5.36-1.358-1.148-.809-1.66-.405-3.071-1.522-.169-3.812-.617-3.997-2.462 2.376.986 4.882.618 7.183-.46l.21-2.4-2.571.905 1.571-1.688-.662-.297c2.572-3.49 2.317-8.06 2.831-12.127.061-.484-.019-1.003.608-1.155-.394 1.317.617 2.446.755 3.402.443 3.062-.334 8.628 2.648 10.64 1.149.774 2.536.201 2.884 1.969.301 1.534-1.371 3.323-1.22 3.638.529.414 1.19 1.278 1.847 1.424 1.042.23 1.762-1.02 2.484.693l2.682-2.363c.327.353-.541 1.75-1.457 2.961 1.205-.38 2.416-.75 3.496-1.419 1.668-1.032 2.664-2.983 4.691-3.471l-6.476-1.13c.45-.719 1.385-.712 2.107-1.494.343-.375.701-.53.56-1.139-3.972.477-9.117.904-11.818-2.64 6.071-.563 11.955-4.3 16.393-8.293-2.411-.779-4.831.572-7.387.333-2.061-.189-4.465-1.547-6.33-2.42-.844-.885-.18-.48.412-.413 1.236.14 1.751.292 3.105.133.576-.068 2.35-.382 2.572-1.028l-6.841-3.983-3.065-4.693c3.026 2.53 10.777 4.202 14.497 3.219.809-.216 1.492-1.048 2.175-1.241.771-.22 1.649.08 2.393-.272.812-.386.919-2.42 3.041-1.71l-6.854-2.825c1.618-2.537 4.312-2.147 6.365-3.123 1.233-.586 1.763-2.125 3.156-2.349l-.191-.753c-1.549.927-3.846.67-5.296-.329-2.419-1.668 4.698-4.194 5.11-5.51-1.386-.48-2.073-.933-1.867-2.575.245-.771 1.355-.7 1.771-1.104 2.232-2.167 3.171-6.898 3.889-9.92.148-.627-.027-1.395.026-2.049.553-.098.492.71.576 1.12.473 2.29.42 4.798 1.313 7 .824 2.03 3.201 3.8 2.614 6.315-.252 1.081-1.466 1.46-1.008 3.014.497 1.687 4.331 1.68 3.301 4.36l-3.747.999c2.06 2.045 4.522 2.59 7.284 3.055.717 2.02-1.118 3.846-2.701 4.864 3.209 3.059 7.234 5.237 11.813 5.09.542 3.1-1.976 3.937-3.815 5.654l7.624 3.967c-7.296 2.484-14.081-2.636-19.061-7.356 2.431 5.351 7.854 13.425 14.486 13.202l-.958 1.883 3.999 1.32c.005 1.43-10.424 1.07-11.81.189l5.14 7.167c.619.673 4.03 3.57 4.675 3.702.817.166 4.422-1.718 5.051-2.572-1.209.454-6.609-2.296-6.463-3.165.13-.76 4.262-1.558 5.583-2.42 2.716-1.774.999-1.528.908-2.882-.027-.393.499-1.176.354-1.335-.179-.197-4.952-.503-4.575-2.072.225-.934 8.578-1.725 9.528-3.779-.816-.37-2.274-.067-2.862-.937-.652-.964 2.262-.287 1.721-1.505-.555.026-4.269-1.49-3.426-2.266 2.469-.412 4.701-.102 6.856-1.516-.21-.764-2.892-.159-3.048-.942-.409-2.008 3.197-.67 3.052-2.82-.744.468-5.394-.957-4.571-1.888.431.125.592.314 1.092.174 1.946-.537 4.338-1.161 5.765-2.629l-1.301-.54-.217-.771c4.792-1.664 2.598-9.254 4.197-13.202l.778 7.707c1.042 3.138 1.427 6.777 4.934 8.134l-.236.745-3.191.564c1.511 1.959 3.779 2.624 6.095 3.218.115 2.231-2.401 2.413-4.19 2.258.332 1.595 4.704 2.034 4.934 2.858-.118 1.774-2.095 1.801-3.404 2.225 1.797 3.127 5.072 4.107 7.983 5.691.434 1.44-2.741 2.269-3.79 2.042-1.345 1.12 6.749 3.43 7.388 3.698l2.832-3.895c-.092-1.316-5.59-.571-4.453-4.08.305-.942 3.387-1.392 4.422-2.042.385-.242.672.026.489-.848-2.995-.439-8.754-.453-8.354-4.666.355-1.01 3.592-.904 4.557-1.161 5.087-1.362 9.36-3.696 11.802-8.498-4.343 1.55-10.043 3.165-14.694 2.651-.573-.064-1.176-.08-1.321-.764 3.606-.797 10.608-3.067 13.321-5.495 3.575-3.195-.556-1.448-1.724-1.327-1.797.186-5.213.39-5.881-1.66l7.243-3.593c.366-1.055-.885-.67-1.114-1.346-.595-1.759 1.953-1.997 3.041-2.965 2.159-1.933 3.674-5.033 4.552-7.748-.142-.17-2.972 2.767-3.808 2.076 1.24-3.422 4.869-7.08 5.922-10.358.259-.814.054-1.668.271-2.372.538-1.735 1.801-3.214 1.435-5.18 1.988-.269 1.282 1.19 1.614 2.36.493 1.72.316 1.894.507 3.35.466 3.55 3.542 5.956 5.881 8.43-1.454 1.278-2.717-.178-4.19 0 .553 1.542 5.445 2.586 5.697 3.445.419 1.429-2.095 2.17-2.919 2.688-.378.238-.679-.037-.488.84 3.663 1.048 7.62 1.15 11.436 1.517.906.749-4.094 2.956-4.953 2.264.298.696 3.465 1.505 4.003 1.505h5.528c-3.083 3.457-7.662 2.772-11.821 2.266 1.107 1.92-1 2.51-2.667 2.64.164.714.954.748 1.522.937 3.248 1.089 6.995 1.516 10.291.567 1.012 5.84-6.853 6.403-11.054 6.596 4.625 4.425 11.402 5.987 17.538 7.36-1.95 2.314-4.877 3.324-7.616 4.33l3.422 3.577c-2.342.676-4.865.461-7.243.007l4.103 2.16c1.454 2.741 3.762.639 5.43 2.355-4.53 1.592-9.837 2.153-14.489.765 2.423 2.053 7.43 3.755 10.589 4.417 5.209 1.089 7.907-.114 12.665-1.778.503.466-2.213 2.908-.622 2.594 3.205-.631 5.941-2.45 8.246-4.67-1.045.076-2.007-.99-2.618-1.123-.611-.132-1.911.283-2.899.185-3.389-.344-7.01-2.16-8.59-5.276 1.896-.506 5.048 1.26 6.567 1.063 2.862-.37 7.582-2.753 9.825-4.648-2.487-.325-4.861.027-7.238-.945l3.049-1.497-3.049-2.266c3.194.673 6.319 1.324 8.769-1.323-1.187-.768-3.488-1.154-2.705-2.98.435-.567 3.582.34 4.445-1.362.259-.514-.37-3.608.267-4.61 1.114-1.079 2.084-7.09 2.767-7.446.683-.355.782 1.04.839 1.422.298 2.035.745 6.267.477 8.176-.08.567-.793 1.078-.717 1.471.072.37.759.65.923 1.01.241.525-.209 1.937.783 2.98.992 1.044 4.387.908 4.38 2.477-.008 1.202-3.018 1.796-4.014 1.69l-.191.75c1.175.294 1.614 2.226 2.503 3.364 2.111 2.697 5.174 5.866 8.929 5.692.206 1.516-1.183 1.99-2.358 2.383-1.706.57-2.175-.325-2.972 1.955.466.62.5.515 1.148.401 2.683-.48 7.274-3.73 8.949-5.866.297-.378.739-.48.568-1.13-1.106.367-5.785.98-5.999-.563-.202-1.456 2.935-1.03 3.549-2.46l-1.011-2.238c-2.766.968-4.942-.719-7.598-.779-.961-.95 2.37-3.078 3.167-3.468 2.458-1.202 5.591-.669 7.51-3.13-2.316-.916-5.83-.353-7.62-2.066.809.11.843-.48.763-1.142 3.266 1.974 2.233-.045 3.824-1.304 1.511-1.195 8.715-3.34 8.746-4.538.027-1.09-2.415.12-3.064-.348-.5-.363-.45-1.286-.286-1.834.435-1.479 2.743-1.54 3.877-2.209 1.274-.753 3.945-5.733 4.46-7.276.474-1.412 1.168-7.915 2.08-8.127 2.552 1.667 2.194 5.74 2.96 8.377.905 3.108 2.043 4.462 3.707 6.89 1.75 2.549-.455 3.65-2.661 2.076-1.289 2.03.016 1.641.932 3.033.603.915.507 1.966 1.583 2.583 1.202.688 2.637.363 3.961.42-.519 2.866-3.217 3.41-5.716 2.64-.271 2.306 4.685.419 3.06 2.461-.943 1.18-2.358.84-3.636.935-.565.041-1.107-.3-.946.56 2.747 2.476 5.99 5.569 9.741 6.204.767 1.033 4.872 1.857 5.099 2.519 1.014 2.999-7.04 2.882-8.739 2.784l.759 1.501-1.522.19c3.51 4.16 8.604 7.063 14.267 6.568 1.275-.114 2.313-1.445 3.191.216l-1.061 1.698 3.426-2.073c-1.053-.757-1.297-1.558-1.137-2.828-1.633 0-3.805.302-4.957-1.127l3.431-.008c-.607-1.006-1.938-1.558-1.492-2.98 3.838-.125 6.632-3.23 7.425-6.796.393-1.762-.133-6.663 2.599-6.08.714.15 1.63 4.666 1.714 5.543.171 1.808-.306 4.818.129 6.281.088.3 2.599 5.286 2.798 5.533 1.141 1.425 3.769 1.626 3.991 3.6.133.851-.183.428-.572.56a17.793 17.793 0 01-4.767.941c1.374.965 1.45 2.606 3.221 2.848 3.629.495 8.441-.706 11.532-2.586 1.465-.893 5.88-4.326 6.998-5.521.362-.39 2.152-2.985 1.889-3.223l-2.427-.714c-1.63 1.346-3.698 3.88-5.781 4.48-1.485.428.507-1.583.194-1.874-3.194 1.274-6.494 2.14-9.909 1.123 2.656-3.733 6.433-1.918 10.062-5.314.253-.235 2.427-2.746 2.137-2.976-1.149.472-2.53-.578-3.236-.605-1.401-.049-5.106 1.229-6.926 1.323-1.427.076-2.252-.159-3.171-1.286-.025-.888 4.446-.2 4.186-2.072-2.766-.064-7.956.114-8.387-3.396h8.578c.721 0 4.429-1.149 5.346-1.5 2.652-1.022 5.143-2.789 5.899-5.663-.188-.183-4.292.769-5.162.769-1.565-.004-3.401-.788-4.942-.799-1.63-.011-4.091 1.267-5.144-.34l2.667-1.13c-1.084.063-2.106-.183-3.129-.489-.473-.14-1.755-.461-1.823-1.024h6.674c.703 0 4.433-1.498 5.261-1.96 2.065-1.153 4.336-2.95 3.695-5.581-1.347-.144-1.47.972-2.836 1.15-.993.128-6.177.196-6.281-.957.588-1.83 3.107-1.082 4.164-2.648-1.767-.797-4.496-.676-4.961-3.01-.149-.752.106-.503.572-.57 1.896-.265 3.758.6 5.35-1.128l-2.481-1.323c-.969-1.524.417-.19.573-.19h5.72c.181 0 3.007-1.054 3.347-1.217 1.079-.518 1.602-1.354 1.419-2.553l-3.988.382c-1.007-2.579 4.087-2.504 4.373-5.283-1.93.715-3.468.836-5.533.753-.462-.019-1.416.287-1.328-.371l3.049-.764c-.225-.835-1.476-.412-1.141-1.497.775-.148 1.641-.504 2.263-.973 1.751-1.32 4.324-7.529 3.484-9.745L959.306 0zM-53.841 171.995l-.043.022.043-.028v.006zm1998.721.022c-.01-.008-.03-.014-.04-.022v-.006l.04.028zM-3.55 152.359c-.528.613 2.691 1.994 3.072 2.222l2.79-2.511-5.862.289zm1895.03 2.222c.38-.228 3.6-1.609 3.07-2.222l-5.86-.289 2.79 2.511zM-9.413 146.438c-.174-.562-2.922-1.49-3.083-1.305l1.164 1.692 1.919-.387zm1912.913-1.305c-.16-.185-2.91.743-3.09 1.305l1.92.387 1.17-1.692zm-1758.961-7.985c.016.683.452 2.088 1.269 1.468.289-.221 2.676-2.187 2.197-2.513h-.003l-3.463 1.045zM1743 136.103c-.48.326 1.9 2.292 2.19 2.513.82.62 1.25-.785 1.27-1.468l-3.46-1.045zM58.652 128.844c-1.036 1.114-1.522 1.509-.826 3.021l.003-.003 2.786-1.436-1.963-1.582zm1771.728 1.582l2.79 1.436v.003c.7-1.512.21-1.907-.82-3.021l-1.97 1.582zM125.852 118.509c-1.525.524-3.228.974-4.856.51l.982 3.163c-1.658-.707-3.539-.673-5.283-.421l2.913 2.799-1.581.484 3.9 2.862-.595.547 4.372 2.466 1.157-2.559c-.112-.63-4.192-.749-3.827-2.792 1.232-2.281 4.508-1.773 5.765-3.939l-5.812.774c-.676-.482 2.732-3.317 2.866-3.888l-.001-.006zm1639.298.006c.13.571 3.54 3.406 2.86 3.888l-5.81-.774c1.26 2.166 4.53 1.658 5.77 3.939.36 2.043-3.72 2.162-3.83 2.792l1.16 2.559 4.37-2.466-.6-.547 3.9-2.862-1.58-.484 2.91-2.799c-1.74-.252-3.62-.286-5.28.421l.98-3.163c-1.62.464-3.33.014-4.85-.51v.006zm-1607.205 3.149c-2.381 2.38-4.738 4.412-7.716 6.035-.474-1.299 1.545-2.256 1.082-3.704-2.102 2.111-5.434 2.069-7.786 3.764-.517.926 4.396 3.37 5.953 2.898.762-.231 4.802-3.393 5.535-4.122.567-.561 3.529-4.327 2.932-4.871zm1575.105 0c-.59.544 2.37 4.31 2.94 4.871.73.729 4.77 3.891 5.53 4.122 1.56.472 6.47-1.972 5.95-2.898-2.35-1.695-5.68-1.653-7.78-3.764-.46 1.448 1.56 2.405 1.08 3.704-2.98-1.623-5.33-3.655-7.72-6.035zm-1588.28 2.367l-4.09 1.567 1.195.985c.935-.832 2.367-1.396 2.897-2.556l-.002.004zm1601.46-.004c.53 1.16 1.96 1.724 2.89 2.556l1.2-.985-4.09-1.567v-.004zm-1570.537 1.321c.241-.389-5.572-2.236-5.775-2.001l2.278 3.187 3.493-1.186h.004zm1545.387-2.001c-.2-.235-6.01 1.612-5.77 2.001l3.49 1.186 2.28-3.187zM373.699 112.976c-.569.574 2.544 2.175 2.909 2.43l2.959-2.309-5.868-.121zm1137.731.121l2.96 2.309c.37-.255 3.48-1.856 2.91-2.43l-5.87.121zm-988.942-4.965c-.031.682.306 2.114 1.163 1.553.303-.2 2.824-1.996 2.368-2.355h-.003l-3.528.802zm842.492-.802c-.45.359 2.07 2.155 2.37 2.355.86.561 1.19-.871 1.16-1.553l-3.53-.802zm-996.716-.671c-.134-.572-2.815-1.692-2.986-1.516l1.044 1.769 1.942-.253zm1157.456-1.516c-.17-.176-2.85.944-2.98 1.516l1.94.253 1.04-1.769zM347.012 104.8c-.833.415-1.785 1.148-2.655 1.512.546.068 1.147.14 1.659.195.565-.759 1.126-1.584.996-1.707zm1196.978 0c-.13.123.43.948.99 1.707.52-.055 1.12-.127 1.66-.195-.87-.364-1.82-1.098-2.65-1.512zM536.942 93.62c-2.541 2.208-5.034 4.07-8.119 5.483-.382-1.33 1.699-2.143 1.338-3.62-2.244 1.96-5.564 1.684-8.028 3.211-.582.888 4.148 3.668 5.734 3.307.777-.177 5.028-3.05 5.81-3.727.605-.52 3.822-4.07 3.265-4.654zm817.118 0c-.56.585 2.66 4.134 3.26 4.654.79.676 5.04 3.55 5.81 3.727 1.59.361 6.32-2.42 5.74-3.307-2.47-1.526-5.79-1.252-8.03-3.21-.36 1.476 1.72 2.289 1.34 3.619-3.09-1.412-5.58-3.275-8.12-5.483zm-848.914-5.387c-1.557.416-3.286.748-4.878.171l.757 3.224c-1.604-.82-3.482-.919-5.239-.79l2.711 2.997-1.611.372 3.69 3.128-.632.504 4.19 2.765 1.333-2.472c-.068-.637-4.13-1.04-3.623-3.052 1.388-2.19 4.619-1.455 6.024-3.528l-5.85.367c-.642-.528 2.957-3.119 3.129-3.679l-.001-.007zm880.704.007c.18.56 3.77 3.15 3.13 3.679l-5.85-.367c1.41 2.073 4.64 1.338 6.03 3.528.5 2.013-3.56 2.415-3.63 3.052l1.34 2.472 4.19-2.765-.64-.504 3.69-3.128-1.61-.372 2.71-2.996c-1.75-.13-3.63-.032-5.24.789l.76-3.224c-1.59.577-3.32.246-4.88-.17v.006zm-837.082 7.894l2.05 3.338 3.569-.94h.003c.265-.372-5.408-2.62-5.622-2.398zm793.462 0c-.21-.222-5.88 2.026-5.62 2.398l3.57.94 2.05-3.338zm-579.321-.37c-.69.644 2.889 2.63 3.305 2.94l3.557-2.561-6.862-.378zm174.279.409c-.064.79.272 2.466 1.298 1.85.363-.22 3.384-2.202 2.866-2.637h-.004l-4.16.787zm-413.555-1.11l-4.189 1.277 1.123 1.065c.991-.764 2.46-1.226 3.07-2.345l-.004.002zm843.727-.003c.61 1.12 2.08 1.58 3.07 2.345l1.13-1.065-4.19-1.278-.01-.002zm-929.969-1.204c-1.112 1.04-1.625 1.4-1.036 2.958l.003-.004 2.879-1.239-1.846-1.715zm1014.369 1.715l2.88 1.239v.004c.59-1.558.08-1.918-1.03-2.958l-1.85 1.715zM342.168 91.082l-3.789 1.961c.64.817 1.292 1.064 1.973 1.117.556-.227 1.098-.485 1.602-.824 1.393-.939 2.184-2.649 3.9-3.129l-2.254-.316-1.432 1.191zm1202.982-.875c1.71.48 2.5 2.19 3.9 3.129a8.5 8.5 0 001.6.824c.68-.053 1.33-.3 1.97-1.117l-3.79-1.961-1.43-1.191-2.25.316zm-813.13-5.009c-1.744.787-3.958 2.71-5.209 1.44-1.771.493-5.261.718-5.17 2.622.012.254.633 1.632.75 1.698.156.092 2.667.575 3.845.77 1.257-1.046 2.43-2.16 3.315-3.13.336-.368 2.732-3.135 2.469-3.4zm-390.77 4.363c-.233.301-.428.528-.549.633.028.859.171.317.578.17.446-.16.994-.491 1.529-.585l-1.558-.218zm1206.94.218c.54.093 1.08.425 1.53.584.41.148.55.69.58-.169a4.945 4.945 0 01-.55-.633l-1.56.218zm-593.498-9.856c-3.064 2.458-6.056 4.518-9.723 6.031-.393-1.558 2.076-2.416 1.714-4.144-2.706 2.182-6.579 1.728-9.525 3.4-.716 1.006 4.704 4.423 6.574 4.068.916-.174 6.007-3.335 6.95-4.088.729-.579 4.639-4.567 4.01-5.267zm-197.884 8.293c-.135-.67-3.225-2.076-3.431-1.88l1.148 2.096 2.283-.216zm-416.103-.886c.073.105.148.23.224.38l.461-.467c-.226.031-.454.06-.685.087zm1209.365.38c.08-.149.15-.275.22-.38-.23-.027-.45-.056-.68-.087l.46.468zm-581.644-4.392l2.262 3.956 4.213-.945h.004c.327-.42-6.214-3.257-6.479-3.01zm-50.714-10.932c-1.839.42-3.877.733-5.716 0l.756 3.77c-1.843-1.017-4.037-1.206-6.098-1.127l3.049 3.585-1.9.367 4.189 3.778-.76.56 4.789 3.376 1.661-2.813c-.055-.741-4.789-1.373-4.114-3.687 1.714-2.484 5.464-1.501 7.193-3.85l-6.861.19c-.728-.64 3.586-3.498 3.812-4.141v-.008zM1181.94 84.74l.09-.027-.1-.048c0 .025 0 .05.01.075zm1.99-.596c.04-.01.08-.022.13-.033l-.16-.028.03.061zm-244.868-3.086l-4.953 1.311 1.271 1.282c1.19-.847 2.927-1.323 3.686-2.597l-.004.004zm-100.854-4.894c-1.343 1.16-1.957 1.558-1.331 3.388l.003-.003 3.42-1.32-2.092-2.065zm330.062-7.39c1.38 2.176 3.13 1.388 5.02 1.783.07-.059.13-.112.19-.16.14-.282-1.19-1.75-1.25-3.158l-3.96 1.535z" fill="url(#paint0_linear_6_4)"/><defs><linearGradient id="paint0_linear_6_4" x1="945.5" y1="26.5" x2="945.5" y2="319" gradientUnits="userSpaceOnUse"><stop stop-color="#F5DDBB"/><stop offset="1" stop-color="#F8E6CD"/></linearGradient></defs></svg>