<svg width="130" height="140" viewBox="0 0 130 140" fill="none" xmlns="http://www.w3.org/2000/svg"><path d="M57.11.072C71.156-1.213 65.32 15.047 65.32 24c11.66 2.99 21.615 8.94 27.453 19.905 8.873 16.664-2.288 30.982 14.932 47.814 11.162 10.909 37.201 15.379 10.968 30.549-15.127 8.744-21.186 7.543-36.299 10.909-3.535.782-5.782 4.554-10.08 5.238-6.932 1.09-11.91-2.751-16.61-2.57-3.855.14-5.505 4.344-10.982 4.148-4.644-.167-6.336-3.589-9.802-4.246-14.323-2.723-13.602 4.289-27.662-7.053-3.23-2.612-6.752-1.02-7.223-7.935-.36-5.21 7.085-6.914 10.662-10.923C23.93 95.03 18.01 67.568 24.736 48.571c4.506-12.767 12.616-18.327 24.776-23.23 2.301-.936 6.628-1.201 6.878-1.453.79-.785-1.247-17.908 5.601-20.883-11.619-1.09-9.248 4.89-9.706 13.326-.138 2.682 1.442 5.602-2.773 4.82v-.015c.055-7.291-3.313-20.073 7.599-21.064zm10.44 29.46c-6.252-.81-6.807-3.074-13.17 1.396-8.057 5.657-10.358 15.715-14.56 23.747l-.013-.014H38.42c1.54-5.77 2.523-11.482 5.546-16.762 1.525-2.654 4.853-5.336 6.933-7.683-4.313-1.187-11.744 1.467-9.706 7.683-7.293.111-11.064 6.886-13.56 13.577-3.147 8.479-3.702 19.346-3.078 28.328-1.9.657-1.22 2.71-1.387 4.19-1.192 10.365-3.23 21.414-10.343 29.39-3.369 3.772-8.055 2.92-6.295 8.325 1.442 4.386 2.053 2.85 6.933 4.191.042.126 1.428.614 1.955 1.62 1.622 3.101-.68 4.261 4.187 3.981 9.067-.503 6.24-2.067 9.11-6.998.596-1.019.942-1.662 1.386-2.794 1.47-3.785 1.83-3.659 2.773-8.381 1.387-.111 1.9.545 2.774 1.397.762 3.269-5.796 13.396-4.105 15.296.378.42 9.843 4.161 10.454 4.246 6.753.922 9.29-3.814 13.838-4.135 5.13-.363 8.43 4.442 13.74 4.275 7.14-.238 11.231-7.572 15.599-8.27 3.44-.544 20.382 7.57 14.697-6.9-.582-1.467-14.004-13.41-5.99-12.879l2.787 4.19c.638 3.674.624 4.47 4.159 6.985 2.593 1.843 2.066 3.631 7.709 2.933 2.995-.363 1.554-1.467 1.997-2.933.874.139 2.038-.21 2.773 0 .319.097.694 1.257 1.831 1.089 1.054-.154 2.62-1.76 3.716-2.486 4.007-2.654 7.625-5.183 3.41-9.778-1.22-1.327-2.98-1.062-3.41-1.397-3.869-3.101-20.784-16.635-22.157-19.234-4.798-9.08-1.22-25.2-4.811-35.313-.998-2.807-6.78-9.945-9.082-12.502-3.522-3.925-7.127-7.78-12.548-9.218-1.927-.517-2.565.852-2.704.838zm19.398 65.636c.347 4.777 1.069 3.674 4.16 6.985v1.396c-.18.028-1.844 2.249-2.746 1.411-.389-.366-3.146-8.576-4.186-9.792h2.772zM38.42 65.834c-.36 4.903-.693 14.374-.11 18.955.332 2.585 2.55 1.817 2.841 2.962 1.83 7.292-4.325 7.376-2.73 14.402l-2.773-4.19c.776-10.407-.721-21.694 0-32.129h2.772zm40.207-13.968c-.263 2.599.014 5.672 0 8.381 0 2.32-.11 4.68 0 6.985.139 3.058 1.234 5.223 1.387 6.983.236 2.836.818 8.06-1.387 9.778-2.773-10.937-.194-21.552-1.387-32.126h1.387z" fill="#CFC7BF"/></svg>