<svg width="118" height="130" viewBox="0 0 118 130" fill="none" xmlns="http://www.w3.org/2000/svg"><path d="M91.453 1.821c3.201-2.673 5.935-2.213 9.523.144 7.743 5.091.924 16.345 3.13 23.385 1.839 5.867 12.805 5.97 13.811 15.743v.032c.671 6.55-2.866 21.212-4.573 28.11-2.927 11.845-8.221 29.803-12.683 41.333-6.778 17.509-40.081 21.478-56.199 18.56-14.553-2.633-32.937-11.928-31.26-29.324 19.665 9.856 48.028 9.509 69.288 5.795 3.16-.551 14.339-2.582 16.412-3.745 1.382-.775.53-1.856.671-3.08-18.597 6.305-38.587 5.091-57.906 4.07-3.81-2.917 7.805-1.703 8.13-2.03l-1.016-18.377-18.302-2.04c.782 2.786.345 18.713 1.026 19.397.986.979 7.642-3.255 7.104 2.03-4.665-.52-22.052-2.704-24.319-6.214-.254-.388 1.727-6.693-.061-9.08 4.207-.052 1.626 6.744 4.522 9.254.67.581 2.022.561 2.784 1.05.823.521.905 1.653.996 1.684.529.184 4.99-1.347 6.921.245L28 80.335c-.762-1.082-10.904-1.51-13.8-2.47-3.608-1.193-5.63-6.325-4.777 1.735.539 5.153 1.778 10.407 4.807 14.56l-4.076-.5C8.192 82.723-2.945 48.88.743 40.849c1.84-4 6.402-1.561 6.362-5.346-.265-.185-3.09-4.898-3.05-5.663.113-1.867 1.962-2.419 3.05-3.52-.051-.664-.03-1.378 0-2.04.487-10.286 8.465-4.399 9.136-5.103C13.802 8.464 4.128 15.708 6.09 24.28c-4.542 5.55-2.795-6.03-1.332-8.907.813-1.602 5.152-4.153 6.87-4.235 10.894-.51 11.453 13.468 10.731 21.304 21.108-6.856 43.405-7.03 65.386-5.254 3.801-1.183-2.398-13.02-2.398-16.693 0-2.806 1.108-3.582 2.043-5.602h1.016c.163 2.684-.132 5.46 0 8.153 2.216 1.469 3.038-5.693 3.038-6.112 12.561-3.724 9.797 14.948.752 10.173-.528-.275-1.29-3.744-2.784-2-.996 1.163 9.593 24.723-13.212 15.805l3.04-1.01c-3.618-3.071-9.686-.939-14.218-1.52.894 2.918 8.15-1.398 7.103 3.04-10.904.184-21.9-.949-32.51 2.04l4.553-2.03V29.37l-10.65 2.071c-.996 1.235 4.025.777 1.006 2.531-8.079 4.694-17.245-3.591-9.126 13.775l2.003-2.02c-.519 2.968 5.904 5.132 7.123 4.07.214-.183-.965-4.152-1.067-5.55-.091-1.327-.721-6.398 1.057-6.684 1.412 2.357.58 12.5 1.138 13.153.743.867 11.62 1.601 12.093 1.132l-.995-7.672 2.012-.49c.264 2.672-1.382 9.172 2.55 9.172H79.26V34.492l2.032 7.663v9.683c.529.52 11.687-.654 12.113-1.113.986-1.071 1.19-14.742 1.109-17.253 1.158-1.54 1.91 0 2.062 1.54.407 4.153-2.205 10.081-1.047 14.775 5.122-1.51 8.883-3.99 13.964-4.847 10.914-7.866-6.665-11.907-8.434-17.549-1.992-6.366 2.102-17.202-1.383-22.855-1.24-2.01-6.24-1.286-8.222-2.715zM20.326 105.905c-.02 2.224.183 8.958 1.667 10.295 3.74 3.367 23.708 7.694 29.278 8.112l-.01-.01c12.164.918 27.845.377 38.14-6.673-3.344-1.03-7.337 2.55-11.168 2.55-1.057-3.438 5.355-2.295 6.056-3.101.803-.918-1.453-6.326-.985-8.122-3.984 1.724-27.367 1.694-28.314 3.214-.843 1.367.295 6.907-.141 9.04 2.195.081 4.42-.102 6.626 0 1.25.061 3.769-.775 3.546 1.02H48.253c-.163 0-2.967-1-2.53-2.03 9.603 1.092 6.92-1.031 7.113-9.203-6.29 1.326-14.136-1.735-19.888-1.112-2.449.265-.63 2.336-2.46 2.132.691-3.306-1.575-4.041-4.583-4.102-3.2-.061-.152 3.123-2.53 3.082l-3.049-5.092zm23.362 13.265c1.088 4.05-7.691.388-9.42-.255-1.066-.398-3.018-.347-2.774-1.776l12.194 2.031zm-13.718-3.061c.66.337.66.684 0 1.021v-1.021zm-3.557-.011c-.69-.357.599-1.734 2.022-1 .69.357-.6 1.735-2.022 1zm71.128-10.203c-1.92.51-11.544 1.5-12.083 2.143-.68.806.244 6.335-.102 8.05.326.367 5.02-1.54 5.458-1.949 1.209-1.122.416-2.857.64-3.153.182-.224 2.693 2.286 5.132-1.469v-.01c.803-1.245 1.24-2.051.955-3.612zm-4.563 3.072c.66.336.66.683 0 1.02v-1.02zm-23.811-26.09c-1.992-1.408-6.118.622-8.7.663-8.688.132-10.649-4.581-9.643 8.58.244 3.205 1.484 6.53 2.012 9.704h16.26c.427-3.52 2.46-17.243.071-18.947zm3.028-.378c-.376 6.122.753 12.376-1.066 18.304 4.35-.153 8.983.735 13.068-1.163l1.149-19.233-13.15 2.092zm35.519-8.214c-9.634-2.592-7.917 15.254-10.163 17.346-.083.071-2.144.367-2.002-.49l4.045-13.785c-.793-.591-11.136 2.183-11.728 3.01-1.26 1.775-2.154 18.703-1.483 19.417 3.638-.714 12.957-1.806 15.294-4.53 1.473-1.704 7.063-19.876 6.037-20.968zm-5.539 6.112c.325-.816.884-3.795 2.49-2.03.426.472-2.867 10.928-3.354 12.448-.346 1.061-.254 3.08-1.717 2.836.132-4.102 1.077-9.468 2.581-13.254zM17.268 27.34c-3.537 3.336-4.91 3.908-9.137 1.02.335 2.378.508 4.786 1.017 7.143 1.006 4.662 3.516 3.928 2.032 10.203l-2.032-5.102-6.057 2.122c.559 3.98 3.963 2.521 6.057 5.02-.326.042-.682-.02-1.017 0-1.341.082-2.713-.07-4.065 0-1.097 2.114 2.46 17.805 3.557 17.346 3.78-1.602-2.225-7.632 2.541-7.142.701 5.101-.63 9.325 5.081 8.162.864.46 2.094 1.102 3.049 1.02.132 1.806-.518 4.694.457 6.194.904 1.388 2.764.633 3.607.95 4.147 1.54 6.698 2.386 11.18 3.06 4.664.704 10.03 1.02 14.736 1.02h31.502c4.279 0 18.833-4.204 23.883-6.122 1.059-.398 10.06-3.285 7.114-6.111-1.057-1.01-8.556 2.744-10.163 3.05-1.473.286-3.486-.193-5.082 0 2.277-2.938 15.021-4.673 16.139-6.234 1.169-1.642-1.047-5.203-.936-6.428.061-.734 2.074-.775 2.867-2.316h-.01c.782-1.51.996-4.622 1.229-6.438-1.29-1.45-5.559 4.653-6.616 5.091-1.869.776-1.9-1.704-1.513-2.02.539-.439 5.05.122 4.583-4.071l-8.649 3.05c-.315.286 5.609 6.224-1.016 5.081-.353-.227 2.925-4.478-.488-4.07-2.754.327-7.134 2.132-10.468 2.775-3.516.683-6.147-1.224-5.314 3.346-5.64-4.734-12.825.011-19.299-1.02-1.666 1.245.02 1.847 1.504 2.04 3.811.49 8.374-.54 12.195.042 2.348.357 2.673 1.611 3.578 1.989-7.886-.54-16.626.734-24.39 0l6.097-2.05c.274-2.041.193-1.684-1.26-2.306-4.146-1.776-10.437-.266-14.99-.746-.782 1.827 3.08 3.399 4.634 3.93-1.9-.5-3.495.917-4.633 1.162-.183.041-.986.041-1.017 0-.173-.275.477-1.846-.64-2.101-1.992-.46-4.197.969-6.016.938-.854-.02-1.28-.847-1.474-.878v-1.02h3.049c1.351 0 2.703.021 4.055 0 .71-3.346-1.931-1.623-4.055-2.03-1.362-.256-2.714-.836-4.066-1.02-2.215-.306-7.214-1.51-8.13-.001 4.339-.52 2.449.51 3.048 2.04-4.358.909-2.704-1.752-3.048-2.04-.232-.192-3.894.295-5.813-1.316-.407-.338-5.395-8.121-5.762-8.989-2.215-5.275-1.595-10.652-1.635-16.223zm49.795 33.67c1.28-1.683 1.849.102 2.032 1.51h.02c.427 3.316-1.747 11.07 2.023 10.744v1c-3.283-1.163-6.799 2.704-8.659 3.081-.599.113.081-1.866-1.93-2.142-7.774-1.04-18.7-.082-27.013-.929-3.77-.388-7.225-3.1-11.188-1.02v-3.06c6.23.724 5.477-.368 5.09-6.123l2.034-2.04c.294 3-.244 6.162 0 9.172 6.056 1.183 12.174.735 18.282 1.031.204.01 1.118 1 2.032 1.02 2.388.062 16.454-.245 17.267-1.03.436-.433-.305-9.387.01-11.213zM85.356 61c.416.214 1.758-.633 2.073.633.63 2.54-1.36 8.249-1.058 8.55h.01c.285.275 5.824-2.398 7.104 1.02-5.497.724-10.66 1.878-16.26 2.04v-2.04c1.536-.184 7.347-.327 8.018-1.122.701-.837-.253-7.214.113-9.081zm-78.24 5.111c.162 1.092-.397 3.368.1 3.97.27.317 7.733 2.458 8.009 2.142l.01.01c.09-.112.091-2.87-.02-3.02-.274-.336-6.86-1.418-8.1-3.102zm46.288-7.295c.153.03.295.082.448.143a9.539 9.539 0 01-.448-.143zM14.198 28.35c.844-.643 2.185-7.561-1.494-7.133-3.343 1.5-.945 8.98 1.494 7.133zm3.059-6.122c.732-1.428-.64-2.724-.996-2.03-.731 1.428.64 2.723.996 2.03zM97.54 8.964c-5.295-1.306-4.929 7.663 0 6.132V8.964z" fill="#CFC7BF"/></svg>