<svg width="96" height="180" viewBox="0 0 96 180" fill="none" xmlns="http://www.w3.org/2000/svg"><path d="M46.608 0c3.099 3.57 5.726 7.41 7.72 11.69 2.434 5.216-.064 5.292-.129 10.325-.053 3.774 1.03 7.313 3.722 10.034.268-1.366 1.662-5.85 1.587-6.69.214.495 1.115 1.957 1.748 1.376.911-.677-.868-1.43-.9-2.032-.14-2.258 1.403-4.903 1.404-5.183 2.198 4.226 2.177 9.152.568 13.507-.686 1.882-4.375 3.528-.91 4.463 1.554-3.581 4.46-6.42 7.592-8.625.074.008.244.248.471.624.997-3.06-2.242-5.416-2.123-9.249.064-1.882 3.71-11.84 5.534-11.561 4.268 2.484 7.452 16.023 3.774 18.852-.547-5.56-.322-11.453-3.303-16.497-3.506 3.474-3.142 9.281-2.841 13.809l2.187-2.399c.761.12 1.79 6.754 3.957 5.087.225 2.312 1.909 7.808 1.04 10.088 6.917-6.356 12.097-7.485 8 3.302-5.79 2.172-1.898-.215-4.14-3.57l-5.93 4.603c-.428-.462.998-2.797 1.706-3.829-.558.57-1.555 1.086-1.974-.01 2.8-2.593-2.53-8.142-3.216-11.132-.831.915-1.671 1.865-2.484 2.822.827 1.441 2.134 4.105 2.451 4.803.772 1.7 2.23 6.776 3.41 9.26 2.07 4.377 3.185 1.914 5.159 4.452l2.337-3.151c2.092 4.248 2.929.688 6.028.753-.375.559-1.843 2.664-1.877 2.828-9.062 3.108-12.28 12.368-7.143 20.553 4.569-2.743 3.454-7.722 6.017-11.497 1.04 1.097 1.33.656.847-.657.214-.236.58-.472.847-.655 1.534-1.022 6.971-4.259 8.204-1.667.375.789-1.223 12.539-5.287 8.926-3.582-4.55.976-2.893.944-7.54-2.08 1.453-3.936 3.303-5.266 5.465-2.391 3.892-1.019 2.15.097 5.377.396 1.172.332 1.667 1.126 3.205 3.764 7.334 3.731 3.85 5.147 4.85 5.383 3.818-7.25 12.27-8.622 14.12-.654.872 1.17 2.453 1.009 4.066-.333 3.237-6.757 10.238-10.456 10.238 2.026 1.635 1.63 1.98 2.209 3.7-.697.248-1.76.172-2.349.473-.568.29-1.115.925-1.694 1.323-.3.194-.558.451-.848.656-1.147.828-2.327 1.721-3.389 2.646-.536.462-1.19.828-1.694 1.322-.504.495-1.287.84-1.694 1.324-1.855 2.193-.837 2.355-1.223 3.677-.118.42-1.737.603-1.19 2.56.9 3.226 4.021 5.281 4.568 8.98.086.583.225 10.944.183 11.539-.108 1.571-1.77 2.345-1.845 3.765-.268 5.216 6.423 22.133 5.147 26.51l.011-.054c-.665 2.259-4.01 5.216-6.177 5.377-2.38.172-1.597-3.129-6.026 2.668-3.496-7.84-2.939-2.603-6.06-3.398-1.855-.463-6.091-4.69-6.499-6.895.644-7.937 4.151-20.412 3.229-28.026-.622-5.152-4.107-7.851-2.82-14.163.879-4.292 2.948-1.334.364-6.454-1.77-3.505-.516-4.183-.665-4.441-.837-1.484-3.431-2.474-4.836-3.539l2.852 4.582-5.534 1.603c-1.522-1.528-3.345-4.152-3.914-6.217-.45-1.645 1.426-2.463.859-2.957-1.352-1.162-6.113-2.226-8.622-4.517-2.467-2.247-4.204-5.141-6.295-7.7 2.23-2.989 5.016-.132 5.35-.098-.237.023-2.015 1.119-1.361 1.753 3.442 5.41 8.268 8.625 14.616 8.335-3.604-2.311-8.499-10.22-13.054-10.099.663-.1 1.706-.854 2.373-.795 2.123.193 2.07 3.613 4.29.904-1.963-4.044-3.679-3.85-6.95-5.464 1.158-.548 2.981-.334 4.032-1.796-4.202-2.258-2.542-6.451-2.766-6.99-1.459-3.517-4.869-8.314-8.054-10.443.247-1.226 4.707-.678-.097-5.388.633.054 1.738-1.935 1.877-2.828.998.85 2.842.882 5.641 3.774-2.294-.956-2.413 4.784-2.36 5.066.923 4.947 5.16 9.69 9.867 11.379 4.407 1.58.912-.56 2.177-2.195l2.81 1.882c-2.059-5.668-6.467-9.378-10.52-13.583l5.158 1.42c-2.027-2.237-2.392-6.496-4.01-8.625-2.038-2.7-7.4-2.539-10.65-5.443-4.161-3.72-8.901-11.507-5.19-16.755 1.972-.076 6.552 8.495 9.78 7.345-2.628-6.162-8.064-7.593-11.71-13.346-3.732-5.883-4.312-13.69-4.312-20.466l6.714 4.29c-.3.205-.526 2.357-1.03 2.163L9.18 18.293c1.565 7.786 2.766 15.863 8.739 21.778 1.737-.763-.514-1.72-.375-2.344.183-.807 2.982-.828 3.078-1.108.579-1.667-5.253-11.515-5.255-12.184.011-.355 1.115-.936 1.598-1.313 1.684 1.334 1.737 3.323 2.445 4.904 1.212 2.71 4.782 9.497 5.383 11.766 1.083 4.044-1.33 10.227 3.668 13.884 1.019-3.624 1.823.505 4.032-1.796-1.426 2.28-4.353 4.485-4.407 4.818-.063.431 4.043 5.905 4.418 7.443.279.075.804-1.657 1.03-2.163.471 2.625 3.4 11.035 4.88 13.261 2.616 3.925 1.136.817 3.816-.302l-1.061 5.604-4.129-3.581 3.218 7.69c.557.827 1.319-.452 2.037-.893-.772 4.044 1.244 12.626 4.15 15.842 1.04-3.775.054-8.1-.128-11.896-.097-1.957-.697-3.215 1.136-.623l1.438 17.422c2.938.343 1.415-14.453 2.723-15.744.676.828 1.308 1.72 1.973 2.549 4.847-1.7 5.427-6.647 7.603-9.27.976-1.184 6.295-3.97 6.338-5.852.033-1.85-5.03-3.366-3.035-11.109.322.904 2.789 5.679 3.11 5.743 2.993-.752-.857-8.174 3.09-6.507-3.346 2.528 1.339 7.679.76 9.68-1.008 3.495-6.048 3.452.687 9.668l1.007-2.173c1.19 1.065 1.052 2.84 1.802 4.055-1.19.667-2.198 1.903-3.388 2.635l-3.582-8.099c-1.555.7.332 1.754-.076 2.84-.482 1.29-1.833 2.172-2.176 3 .075-1.075-.311-2.312.043-3.441-2.853-.161-8.043 13.883-5.202 14.282.311-2.549 2.982-4.205 3.754-5.656-1.297 3.71-2.681 5.42-3.764 8.344-1.116 3.011.204 9.088-.375 12.594 4.332-5.076 6.23-11.41 9.78-17.164.365.602.901 1.119 1.32 1.688 2.026-1.968 5.221-3.42 6.98-5.496.107-.14.987-3.28.966-3.463-.269-2.989-2.682.517-4.28-2.075 5.534-3.119 2.51-2.635 4.837-6 1.147-1.646 2.766-1.463 3.303-1.958.214-.193-1.04-3.56 2.585-4.507-1.866-3.775-6.102 2.571-7.743 4.034-1.073.957-1.737 3.677-3.217 1.14 4.643-5.055 4.492-6.356 1.329-12.11-.622-1.14-2.498-1.742-3.023-2.764-.923-1.807.793-4.227.793-5.56 2.509 2.473 3.871-5.442 3.506-6.84l-6.144-8.819c-1.512-16.217-10.07-5.57-9.866 4.517.032 1.742 1.587 5.184 1.34 5.926-.278.839-2.638 4.871-3.603 7.205-.805-3.162-5.02-7.043-7.089-2.387-.278.603 1.008 2.462.88 3.14-.118.634-.955 1.248-1.223 3.679-.043.483-.225 1.064-.182 1.504.043.42-.236 1.012-.183 1.506-.225.57-2.1 4.105-2.07 4.345-.557-2.27-3.699-6.7-4.546-9.378l-1.373 1.742c-1.791-1.56-4.29-10.334-7.26-9.335.01-.247-1.265-.936-1.072-1.688.408-1.634 4.214-1.13-.022-4.958-.45-.344-.804-.096-1.169.226-.01-1.14-1.716-4.205-1.2-5.517.653-1.656 2.883-1.602 2.615-4.646-.772-8.894-6.905-1.85-8.868-4.893-2.616-4.065 2.08-5.335 2.188-6.614.042-.518-2.681-9.314-3.025-10.013l8.29 7.152-2.552-10.27c1.715 2.656 4.118 5.011 5.93 7.625 1.652-1.205-1.522-3.033-.504-5.034 1.04-2.021 3.915 1.893 5.77-.42l2.177 1.011.826-.633c-3.11-3.13-1.309-5.734-1.212-8.584-.022 1.689 3.624 10.701 5.372 12.165L47.196 7.732c1.48-1.462 1.663 1.193 2.06 2.172.997 2.506 1.362 5.302 2.81 7.625 2.777-1.42.847-1.71.471-3.344-1.008-4.344-2.52-7.023-5.651-10.314-.3-.053-2.72 3.255-2.724 3.484.096-2.699-2.069-4.742 2.446-7.355zm7.173 154.555c-.858-.957-.964.741-.932 1.419l.05 1.127c.28 5.724.923 11.996 2.18 17.521.3-1.602 1.019-2.71 1.148-4.441.15-2.044-.57-8.894-.934-11.206-.257-1.581-.107-3.119-1.512-4.42zm5.856 1.494c-.258-1.054-1.373-4.484-2.982-3.054h.011c1.93 7.023.129 15.045 3.775 21.541.31-5.162.375-13.637-.804-18.487zm-9.201 9.97c-1.394-.151-2.52 4.892-.751 6.022 1.394.151 2.52-4.893.75-6.022zm14.542-4.141c-3.271 4.474-1.31 5.819 1.962 9.647h.01c.472.817 1.972-.718 2.006-.892.58-2.839-4.172-19.112-5.545-22.919l1.567 14.164zm-15.507 2.861l.707.086.654-5.27-.708-.086-.653 5.27zm14.81-27.263c1.769-10.798-6.736-13.346-15.175-9.937 4.278 1.861-.622 4.313 5.265 6.786-7.946 2.409 3.784 5.151 6.07 3.452h-.011c.665-.656-1.062-2.495-1.555-2.893 1.448.548 3.4-.118 5.405 2.592zm-10.05-17.347c.708.333.998.118.848-.656l-.848.656zm.162-13.776c-.644-2.098-2.649-.431-2.649.053.002.291 1.48 1.291 1.501 2.441v.011c.032 2.549-1.394 5.947 1.244 9.001-.525-2.892.611-9.215-.096-11.506zm-23.808-20.24c2.306 3.763 5.77 6.398 8.74 9.528-1.061-.312-2.188-1.313-3.003-.377 1.555 2.172 3.379 4.194 4.934 6.378.761 1.064 3.088 2.656 1.458 3.613l-8.58-11.013v-.01c-1.522 6.291 4.73 12.464 10.96 13.228 1.352-4.528.076-6.604-2.948-9.938l-2.713-10.647-8.848-.763zm21.855 17.691c.708.333.998.118.848-.657l-.847.657zm29.288-11.293c.943-4.065-5.92 1.828-6.788 2.613l-.011-.01c-1.823 1.655-5.834 5.495-5.244 8.152l12.043-10.755zm-12.042-1.484c2.809 2.796 1.307 2.194.289 3.86-.665-1.118-1.372-2.763-.29-3.86zM57.632 64.98c.033.387 1.565 1.225 1.555 2.483-.022 2.312-.536 9.97-2.713 10.013l.547-4.528c-2.82.452-5.953 10.078-5.33 12.368 1.158 4.29 3.904-4.915 4.483-5.57 2.595-.13.289 6.097-.398 6.893h-.021c-1.18 1.355-3.184 1.183-4.139 2.119-2.305-2.807-4.826-4.711-6.778-6.98-.026-.047.868-.55.505-1.065l-1.158.226c.385-.539.107-2.313 1.876-2.829 1.404 1.764 1.716 3.506 3.646 1.226-1.92-1.871-.31-6.765-.547-7.743.032.215 1.82 2.533 1.984 2.538 2.766.15 3.668-8.097 6.488-9.151zm32.321 13.636c-4.343-.516-6.98 3.356-8.514 6.625-.355.743-2.456 3.323.01 3.41.655.02 7.002-8.948 8.504-10.035zm-76.505-2.29c2.917 1.881 8.043 3.075 10.477 4.904l.01.01c1.792 1.334-.203 2.527-.686 2.44-.228-.045-2.252-2.01-3.495-2.73-2.134-1.248-7.711-5.152-3.861.28l-1.695 1.322c-.504-1.742-4.342-3.678-.75-6.227zm-6.595-8.487c-1.92-3.7-8.514-12.561.933-7.55 1.716.903 2.413 2.044 3.486 2.733-.236-.011-.998 1.289-1.652 1.128-1.587-.387-1.877-4.893-4.365-1.87l1.598 5.559zm60.375-18.52c.16 0 2.477-1.785 2.542-1.967-.708 1.87-.537 3.689-2.907 5l4.88-2.452c2.24 1.753 1.394 3.636 1.598 5.56-.504-.892-1.395-1.666-1.974-2.537h.011c-2.177-.205-6.305 9.99-6.863 12.163-2.145-6.098 2.744-8.786 2.552-10.41-.28-2.355-4.815-4.797-1.18-9.723l1.34 4.366zM55.57 57.075c.226 1.399.011 5.356-1.404 5.173-.354-.57-1.318-1.44-1.32-1.688 0-.226 2.145-2.892 2.724-3.485zM36.838 41.706c-1.115 5.7 2.616 13.067 6.702 16.928v-.011c.697.667 2.348 2.269 3.27 1.183-4.481-2.721-2.402-7.388-3.73-10.044-1.373-2.743-4.58-5.324-6.242-8.056zM2.703 39.727c7.41 5.539 6.8 9.367 11.014 15.938l-1.17.893-.01.01c1.555 5.464-1.845 2.14-3.067 2.41C4.72 55.417-2.423 48.879.816 42.566c1.908 1.42 4.965 6.592 6.927 8.915.837 1 1.813 3.657 3.132 2.302-3.206-4.076-6.66-9.033-8.172-14.056zm51.358-7.367c-.569 1.807.632 3.603.76 6.216-.461-1.184-2.863-6.936-4.353-4.764-3.41 4.958-6.66 15.842-3.078 21.456 1.49-3.033 5.255-4.732 6.96-6.787-.6 2.485-2.434 4.453-.751 6.034.74-2.216 6.596-6.012 6.746-6.819.096-.473-1.148-1.806-1.201-2.785l.01-.01c-.364-6.045.322-7.39-5.093-12.54zm-8.205-14.046c-.932 2.13 1.694 4.98 2.048 7.529.247 1.699.719 3.087-1.19 4.055-.73-.11-1.48-8.078-2.316-9.874-.644-1.376-1.212-1.548-2.123-.257-1.713 2.426-2.325 10.586-.172 12.7l.328.31c6.782 6.243 7.46-4.079 8.97-3.826.707.119 1.383 3.463 2.82 1.893-1.609-4.883-5.351-8.486-8.364-12.53zm-9.104 9.357c-.536-.656-3.603-3.72-4.687-2.667 1.673 2.075 3.207 4.324 4.933 6.378.837.99 1.813 3.656 3.132 2.302-1.255-2.022-1.812-4.099-3.378-6.013z" fill="#CFC7BF"/></svg>