<svg width="603" height="222" fill="none" xmlns="http://www.w3.org/2000/svg"><g filter="url(#filter0_b)"><path d="M193.859 168.3v3h3v-3h-3zm-37.2 0v-3h-3v3h3zm0 47.7v3h3v-3h-3zm-37.8 0h-3v3h3v-3zm0-47.7h3v-3h-3v3zm-115.2 0h-3v3h3v-3zm0-27l-2.383-1.823-.617.807v1.016h3zM107.159 6V3h-1.482l-.901 1.177L107.159 6zm41.7 0l2.395 1.806L154.878 3h-6.019v3zm-97.5 129.3l-2.395-1.806-3.624 4.806h6.019v-3zm68.7 0v3h3v-3h-3zm0-42.3v-3h-3v3h3zm36.6 0h3v-3h-3v3zm0 42.3h-3v3h3v-3zm37.2 0h3v-3h-3v3zm0 30h-37.2v6h37.2v-6zm-40.2 3V216h6v-47.7h-6zm3 44.7h-37.8v6h37.8v-6zm-34.8 3v-47.7h-6V216h6zm-3-50.7H3.659v6h115.2v-6zm-112.2 3v-27h-6v27h6zm-.617-25.177l103.5-135.3-4.766-3.646-103.5 135.3 4.766 3.646zM107.159 9h41.7V3h-41.7v6zm39.305-4.806l-97.5 129.3 4.79 3.612 97.5-129.3-4.79-3.612zM51.359 138.3h68.7v-6h-68.7v6zm71.7-3V93h-6v42.3h6zm-3-39.3h36.6v-6h-36.6v6zm33.6-3v42.3h6V93h-6zm3 45.3h37.2v-6h-37.2v6zm34.2-3v33h6v-33h-6zm62.013 71.1l-1.637 2.514.013.008.014.009 1.61-2.531zm-31.2-37.2l-2.722 1.261.006.013 2.716-1.274zm0-116.1l2.716 1.274.006-.013-2.722-1.261zm31.2-37.2l1.611 2.531.013-.009.014-.008-1.638-2.514zm90 0l-1.637 2.514.022.014.022.014 1.593-2.542zm31.5 37.2l-2.722 1.261.006.013 2.716-1.274zm0 116.1l2.716 1.274.006-.013-2.722-1.261zm-31.5 37.2l1.611 2.531.01-.006-1.621-2.525zm-9.6-39.9l-2.446-1.736-.01.013-.009.013 2.465 1.71zm0-111l-2.465 1.71.009.013.01.013 2.446-1.736zm-70.8 0l-2.446-1.736-.01.013-.009.013 2.465 1.71zm0 111l-2.465 1.71.009.013.01.013 2.446-1.736zm35.4 49.5c-16.273 0-30.706-4.06-43.389-12.131l-3.221 5.062C264.979 217.66 280.546 222 297.872 222v-6zm-43.362-12.114c-12.671-8.255-22.726-20.195-30.122-35.96l-5.432 2.548c7.804 16.635 18.55 29.495 32.279 38.44l3.275-5.028zm-30.116-35.947c-7.378-15.922-11.122-34.873-11.122-56.939h-6c0 22.734 3.857 42.583 11.678 59.461l5.444-2.522zM213.272 111c0-22.067 3.744-40.912 11.116-56.626l-5.432-2.548c-7.828 16.686-11.684 36.441-11.684 59.174h6zm11.122-56.639c7.397-15.961 17.445-27.884 30.089-35.93l-3.221-5.062c-13.756 8.754-24.509 21.632-32.312 38.47l5.444 2.522zm30.116-35.947C267.19 10.152 281.613 6 297.872 6V0c-17.341 0-32.917 4.448-46.637 13.386l3.275 5.028zM297.872 6c16.259 0 30.683 4.152 43.363 12.414l3.275-5.028C330.79 4.448 315.213 0 297.872 0v6zm43.407 12.442c12.84 8.049 22.98 19.97 30.371 35.92l5.444-2.523c-7.808-16.85-18.668-29.73-32.628-38.48l-3.187 5.083zm30.377 35.932c7.372 15.714 11.116 34.559 11.116 56.626h6c0-22.733-3.856-42.488-11.684-59.174l-5.432 2.548zM382.772 111c0 22.066-3.743 41.017-11.122 56.939l5.444 2.522c7.822-16.878 11.678-36.727 11.678-59.461h-6zm-11.116 56.926c-7.39 15.753-17.537 27.691-30.404 35.949l3.241 5.05c13.933-8.942 24.786-21.804 32.595-38.451l-5.432-2.548zm-30.394 35.943C328.579 211.94 314.146 216 297.872 216v6c17.327 0 32.894-4.34 46.611-13.069l-3.221-5.062zm-43.39-15.769c15.991 0 28.709-6.688 37.865-19.89l-4.93-3.42c-8.043 11.598-18.925 17.31-32.935 17.31v6zm37.847-19.864c9.321-13.134 13.753-32.366 13.753-57.236h-6c0 24.33-4.367 42.098-12.646 53.764l4.893 3.472zM349.472 111c0-24.87-4.432-44.102-13.753-57.236l-4.893 3.472c8.279 11.666 12.646 29.434 12.646 53.764h6zm-13.735-57.21c-9.156-13.202-21.874-19.89-37.865-19.89v6c14.01 0 24.892 5.712 32.935 17.31l4.93-3.42zM297.872 33.9c-15.803 0-28.502 6.697-37.846 19.864l4.893 3.472c8.255-11.633 19.157-17.336 32.953-17.336v-6zm-37.865 19.89c-9.105 13.129-13.435 32.35-13.435 57.21h6c0-24.34 4.271-42.119 12.365-53.79l-4.93-3.42zM246.572 111c0 24.86 4.33 44.081 13.435 57.21l4.93-3.42c-8.094-11.671-12.365-29.45-12.365-53.79h-6zm13.454 57.236c9.344 13.167 22.043 19.864 37.846 19.864v-6c-13.796 0-24.698-5.703-32.953-17.336l-4.893 3.472zm339.302.064v3h3v-3h-3zm-37.2 0v-3h-3v3h3zm0 47.7v3h3v-3h-3zm-37.8 0h-3v3h3v-3zm0-47.7h3v-3h-3v3zm-115.2 0h-3v3h3v-3zm0-27l-2.383-1.823-.617.807v1.016h3zM512.628 6V3h-1.482l-.901 1.177L512.628 6zm41.7 0l2.395 1.806L560.347 3h-6.019v3zm-97.5 129.3l-2.396-1.806-3.624 4.806h6.02v-3zm68.7 0v3h3v-3h-3zm0-42.3v-3h-3v3h3zm36.6 0h3v-3h-3v3zm0 42.3h-3v3h3v-3zm37.2 0h3v-3h-3v3zm0 30h-37.2v6h37.2v-6zm-40.2 3V216h6v-47.7h-6zm3 44.7h-37.8v6h37.8v-6zm-34.8 3v-47.7h-6V216h6zm-3-50.7h-115.2v6h115.2v-6zm-112.2 3v-27h-6v27h6zm-.618-25.177l103.5-135.3-4.765-3.646-103.5 135.3 4.765 3.646zM512.628 9h41.7V3h-41.7v6zm39.304-4.806l-97.5 129.3 4.791 3.612 97.5-129.3-4.791-3.612zM456.828 138.3h68.7v-6h-68.7v6zm71.7-3V93h-6v42.3h6zm-3-39.3h36.6v-6h-36.6v6zm33.6-3v42.3h6V93h-6zm3 45.3h37.2v-6h-37.2v6zm34.2-3v33h6v-33h-6z" fill="#fff"/></g><defs><filter id="filter0_b" x="-29.341" y="-30" width="661.669" height="282" filterUnits="userSpaceOnUse" color-interpolation-filters="sRGB"><feFlood flood-opacity="0" result="BackgroundImageFix"/><feGaussianBlur in="BackgroundImage" stdDeviation="15"/><feComposite in2="SourceAlpha" operator="in" result="effect1_backgroundBlur"/><feBlend in="SourceGraphic" in2="effect1_backgroundBlur" result="shape"/></filter></defs></svg>