<svg width="163" height="104" viewBox="0 0 163 104" fill="none" xmlns="http://www.w3.org/2000/svg"><path d="M0 .718c0 .267 8.865 9.043 10.709 10.62.565.475 1.904 1.636 2.975 2.528 1.07.892 1.993 1.696 2.082 1.815.565.624 7.02 5.681 9.995 7.793 3.51 2.47 10.084 6.753 10.411 6.753.09 0 .536.267.982.565.952.684 9.37 4.997 11.631 5.92 1.785.773 1.904.803 4.76 1.933 2.409.982 7.258 2.588 8.626 2.886.565.119 2.053.505 3.272.803 1.22.327 3.243.743 4.462.952 1.22.208 2.886.476 3.66.624.773.179 3.599.447 6.306.625 4.997.327 11.898.03 15.765-.654 6.664-1.19 11.096-2.29 14.279-3.54.327-.12 1.071-.387 1.636-.595a74.134 74.134 0 002.32-.922 78.58 78.58 0 012.469-1.071c2.648-1.041 7.943-3.897 11.126-5.98 1.16-.773 2.35-1.517 2.677-1.695 1.695-.952 9.638-7.288 12.613-10.084 5.919-5.593 12.999-13.327 12.672-13.892-.357-.565-1.012-.238-1.993.982-1.517 1.993-5.414 6.336-7.08 7.942-6.604 6.366-10.53 9.52-16.956 13.624-5.949 3.808-14.992 8.002-20.733 9.638-5.504 1.547-8.389 2.201-13.773 3.064-5.95.952-17.819.893-23.352-.149-.981-.178-2.528-.446-3.42-.624-3.51-.625-12.018-3.035-12.613-3.57-.179-.119-.565-.238-.922-.238-.357 0-.744-.119-.922-.238-.15-.149-1.28-.625-2.5-1.07-2.498-.953-11.75-5.415-14.1-6.813-6.841-4.105-9.43-5.83-15.051-9.995-3.719-2.766-9.4-7.377-11.72-9.549-2.737-2.498-5.92-5.503-7.527-7.08C1.34.659 0 .035 0 .719zm158.7.685c-.238.327.03 14.338.327 19.008.298 4.522.595 32.276.357 32.573-.149.179-1.16.12-2.707-.119a471.209 471.209 0 01-4.075-.654c-.893-.149-2.886-.357-4.373-.446-1.517-.12-2.766-.328-2.766-.506 0-.149.148-.833.327-1.517.178-.655.505-2.023.743-3.005.268-.981.595-2.2.744-2.707.149-.505.268-1.19.268-1.517 0-.327.178-1.279.416-2.052.238-.803.625-2.261.863-3.243.268-.981.625-2.38.833-3.123a33.94 33.94 0 00.595-2.529c.149-.654.446-2.022.714-3.063.238-1.012.654-2.678.892-3.719.268-1.011.565-2.38.714-3.034.119-.654.357-1.666.565-2.231.298-.982.803-3.034 1.16-4.849.09-.476.03-.803-.178-.803-.506 0-1.071 1.16-1.636 3.272a210.889 210.889 0 01-1.071 3.719c-.298.981-.684 2.38-.892 3.123a45.287 45.287 0 01-.744 2.677c-.208.744-.506 1.874-.684 2.529-.744 2.796-1.339 4.819-1.607 5.652-.178.476-.416 1.368-.535 1.933-.119.565-.387 1.428-.536 1.934-.178.476-.505 1.636-.743 2.528-.536 1.904-1.339 4.76-1.755 6.247a30.17 30.17 0 01-.595 1.934c-.179.476-.446 1.606-.595 2.498-.417 2.202.059 2.767 4.164 4.79 2.737 1.338 3.332 1.755 3.273 2.23-.09.566-.328.596-4.581.625-6.664.06-8.746.447-8.746 1.577 0 1.041 2.38 2.38 8.478 4.79 6.752 2.647 9.965 4.402 9.965 5.413 0 1.1-2.32 2.558-6.693 4.254-5.176 1.993-8.18 3.897-8.18 5.176 0 .922 2.26 3.004 4.938 4.521 1.219.685 3.034 1.607 6.663 3.362 5.206 2.528 7.437 4.105 7.437 5.265 0 .922-1.161 1.963-2.975 2.648-3.451 1.308-6.247 3.182-6.247 4.194 0 .833 1.815 3.212 2.469 3.242.625 0 .625 0 .06-1.071-.833-1.606-.447-3.064.981-3.807.446-.238 1.874-.774 3.183-1.22 2.796-.922 4.76-1.993 5.325-2.915.357-.565.357-1.19 0-4.075-.208-1.875-.387-4.641-.417-6.099 0-1.487-.148-3.688-.327-4.908-.297-2.171-.714-8.329-1.071-15.617-.178-3.748-.416-4.61-1.219-3.956-.357.327-.417 1.011-.268 4.253.119 2.113.297 8.865.387 14.934.238 12.285.327 11.75-1.666 10.41-.565-.386-2.915-1.695-5.206-2.885-5.83-3.034-6.693-3.51-7.942-4.521-2.291-1.815-1.19-3.064 4.967-5.563 1.309-.535 2.797-1.16 3.273-1.368a21.6 21.6 0 011.636-.684c1.398-.536 3.183-2.083 3.51-3.005.297-.833.238-1.011-.655-1.933-.505-.566-1.874-1.458-3.004-1.964-1.16-.535-2.32-1.07-2.588-1.22-.298-.148-.655-.267-.833-.267-.149 0-.982-.327-1.844-.714-.863-.387-3.183-1.339-5.147-2.142-3.45-1.368-4.134-1.784-3.837-2.23.06-.12 2.648-.15 5.712-.06 5.116.119 5.651.09 6.603-.446.566-.328 1.101-.803 1.131-1.101.148-.744-2.261-2.915-3.957-3.51-.833-.298-1.725-.655-1.993-.833-.297-.149-.743-.268-.981-.268-.506 0-1.934-1.279-1.934-1.725 0-.506 1.16-.625 3.213-.327 2.707.386 7.347 1.13 9.073 1.487.803.149 1.844.268 2.32.268 1.19 0 2.647-.774 2.677-1.428.089-2.588-.119-10.5-.357-13.595-.178-2.141-.416-7.287-.565-11.452-.535-15.29-.922-24.571-1.13-25.85-.209-1.309-.714-1.844-1.101-1.19z" fill="#fff"/><path d="M31.828 2.087c0 .565 5.95 6.544 9.4 9.43 4.046 3.42 10.352 7.972 13.356 9.638.328.208 1.518.922 2.678 1.636 2.974 1.814 12.434 6.544 13.118 6.544.09 0 .595.179 1.1.417 1.19.565 6.277 2.26 7.646 2.588 4.224.981 5.622 1.22 8.775 1.487 3.838.327 10.56.149 13.237-.357 4.909-.922 6.634-1.339 10.412-2.558 2.647-.863 2.38-.744 7.288-3.064 2.112-1.012 4.254-2.172 4.759-2.558.536-.387 1.042-.714 1.161-.714.178 0 3.718-2.41 5.503-3.748.059-.06.029-.298-.06-.536-.148-.357-.714-.09-2.647 1.25-3.451 2.38-9.162 5.413-10.203 5.413-.209 0-.506.12-.595.298-.09.149-.476.297-.863.297-.357 0-.773.09-.892.209-.357.357-2.975 1.279-3.659 1.279-.357 0-.744.119-.833.297-.089.149-.595.298-1.071.298-.506 0-1.16.148-1.487.327-1.547.803-6.961 1.457-13.952 1.666-5.533.148-8.002-.03-11.006-.803-1.993-.536-6.396-1.875-7.288-2.232-.476-.178-1.368-.535-1.934-.743-1.19-.417-1.755-.625-3.42-1.339-.655-.268-1.458-.595-1.785-.743-.952-.387-4.64-2.083-5.95-2.737-4.521-2.29-7.466-3.867-7.883-4.254-.267-.238-.595-.446-.684-.446-.446 0-7.942-4.968-11.006-7.288-3.808-2.886-4.433-3.421-8.002-6.872-2.558-2.469-3.213-2.885-3.213-2.082z" fill="#fff"/><path d="M59.195 2.355c0 .506 6.515 4.879 11.453 7.675 1.606.922 7.972 4.075 9.668 4.819.565.238 1.814.773 2.766 1.22.952.416 1.874.773 2.112.773.208 0 .476.09.595.208.208.208 1.339.655 4.64 1.726 12.643 4.194 20.704 4.491 32.276 1.13.833-.238 1.755-.535 2.082-.684.328-.12 1.16-.447 1.845-.714 2.29-.833 5.205-2.231 7.972-3.748 3.599-1.993 4.551-2.559 6.038-3.54 3.808-2.47 4.849-3.362 4.492-3.778-.267-.327-.773-.12-2.677 1.07-1.279.834-2.469 1.488-2.647 1.488-.149 0-.298.09-.298.208 0 .15-.297.387-.684.566-.357.178-1.993 1.011-3.629 1.814-3.332 1.696-5.236 2.558-7.08 3.243-.684.267-1.517.565-1.844.713-2.767 1.101-7.735 2.35-11.691 2.945-4.462.685-12.761.268-16.926-.832-.625-.15-1.785-.447-2.618-.655-2.022-.446-6.455-1.755-6.99-2.052a7.027 7.027 0 00-1.428-.417c-.506-.119-1.011-.357-1.1-.506-.12-.148-.447-.267-.774-.267-.297 0-.803-.12-1.1-.268-.268-.149-1.042-.506-1.696-.774-2.083-.862-2.35-.981-3.57-1.487-2.528-1.1-10.47-5.116-10.858-5.503-.089-.09-.624-.416-1.19-.714-.565-.297-1.665-1.011-2.468-1.547-.774-.565-1.547-1.011-1.696-1.011a.298.298 0 01-.297-.298c0-.178-.179-.297-.417-.297-.208 0-.565-.208-.773-.446-.447-.536-1.488-.595-1.488-.06zM28.11 49.237c-.773.148-1.07.565-2.29 2.945-1.457 2.915-2.707 6.514-3.212 9.28-.179.893-.774 4.255-1.34 7.438-1.784 10.173-3.628 16.182-5.74 18.502-1.815 2.023-2.856 1.28-3.45-2.41-.21-1.338-.477-2.498-.566-2.587-.327-.328-1.368.505-2.499 2.022-1.011 1.399-1.13 1.726-1.13 3.392 0 1.517.119 1.963.833 2.885.535.684 1.25 1.22 1.993 1.428 1.844.565 3.212 0 5.057-2.023 3.153-3.45 4.64-7.853 6.99-20.763.595-3.272 1.398-7.259 1.815-8.865.714-2.826 1.874-6.306 2.052-6.098.03.06-.148 1.25-.446 2.677-.773 3.66-1.13 8.716-1.338 17.789-.12 4.343-.328 9.162-.476 10.709a431.65 431.65 0 00-.447 4.819l-.208 2.023h1.1c3.868 0 5.504-3.154 10.442-20.169 2.112-7.317 3.48-11.214 4.908-14.19 1.577-3.271 2.261-4.074 1.28-1.486-2.291 6.068-3.927 14.813-4.165 22.161-.238 7.377.535 11.185 2.647 12.94 1.785 1.517 4.73.506 7.556-2.588 2.648-2.915 3.153-3.837 3.034-5.622l-.09-1.606-1.278 1.873c-2.975 4.314-5.652 3.838-6.188-1.07-.535-4.998 1.845-21.775 4.224-29.688.387-1.338.715-2.796.715-3.242v-.833l-1.696.208c-.922.12-2.023.357-2.44.565-1.16.566-2.885 3.005-4.64 6.604-1.993 4.075-3.123 7.348-6.098 17.58-1.28 4.433-2.558 8.508-2.796 9.073l-.476 1.012.149-1.041c.565-4.106.803-8.716.892-18.295.03-6.068.178-12.047.297-13.326l.238-2.29-1.16.029c-.624.03-1.547.119-2.052.238zm36.171.208c-3.361.892-6.366 3.213-8.567 6.604-2.975 4.61-3.63 11.066-1.368 13.773.922 1.1 1.398 1.1 3.212-.12 1.934-1.249 2.112-2.17.655-3.569-3.272-3.064-.357-10.976 5.027-13.624 1.666-.833 2.112-.922 3.659-.773 2.975.267 5.235 2.171 6.99 5.86 1.517 3.153 2.053 6.128 2.053 11.304 0 6.336-1.011 11.69-3.064 15.914-1.428 2.975-2.915 4.135-4.998 3.927-1.01-.12-4.967-1.845-5.681-2.47-.06-.059.565-.832 1.368-1.725 1.964-2.141 2.915-3.807 3.6-6.336.565-2.022.743-3.093 1.695-11.244.387-3.242.625-4.224 1.517-6.128.893-1.904 1.012-2.38.744-2.915-.208-.327-.476-.625-.654-.625-.744 0-2.648 1.28-3.897 2.618-2.797 2.975-3.689 5.8-4.581 14.338-.595 5.89-.923 7.585-1.785 9.31-.655 1.25-.833 1.429-1.398 1.25-.357-.119-1.398-.268-2.29-.357-3.065-.238-5.653 1.845-5.653 4.552 0 1.695.476 2.677 1.517 3.093 1.22.506 2.678.149 4.254-1.07l1.368-1.042.804.595c1.04.833 4.313 1.815 6.009 1.815 3.629-.03 6.544-1.399 9.697-4.581 3.689-3.749 5.741-7.824 6.99-13.892.566-2.618.625-3.778.506-7.407-.089-2.618-.327-5.027-.624-6.098-1.13-4.195-3.778-8.032-6.783-9.787-2.707-1.577-7.02-2.082-10.322-1.19zm45.337 1.308l-3.57 1.755-1.16 2.766c-3.093 7.377-4.967 14.903-5.83 23.44-.327 3.451-.684 4.195-3.302 6.872-1.606 1.666-2.945 2.053-4.67 1.428-.893-.327-1.25-.743-1.904-2.052-.446-.893-.863-2.053-.982-2.559-.178-.892-.089-.952 1.458-1.725 3.659-1.785 6.395-4.403 7.258-6.99.892-2.618.03-6.04-1.785-7.17-3.064-1.874-7.05.625-9.757 6.099-1.606 3.272-2.171 5.83-2.201 9.965-.03 4.045.506 5.89 2.29 7.913 1.34 1.517 2.708 2.052 4.73 1.814 2.083-.268 3.689-1.309 6.307-4.105l2.26-2.44v2.946c0 1.606.12 3.123.238 3.302.179.267.536.297 1.25.089.565-.149 1.576-.387 2.261-.565l1.219-.328.179-5.86c.238-6.425.297-6.633 2.022-6.633.595 0 1.012.267 1.518.952.624.922.684 1.279.713 5.146 0 3.391.119 4.373.536 5.295.654 1.368 1.904 2.29 3.064 2.29 1.636 0 4.254-2.141 6.485-5.265.505-.714.981-1.279 1.071-1.279.119 0 .267.506.386 1.1.268 1.637 1.666 3.987 2.826 4.76 3.391 2.29 7.645-1.16 9.965-8.031.893-2.648 1.994-9.49 2.053-12.762.059-3.123.03-3.213-.773-4.016-.744-.773-1.012-.833-3.124-.833-1.963 0-2.499.12-3.867.893-.892.476-2.201 1.546-2.915 2.35-2.41 2.647-4.581 8.27-4.581 11.78 0 1.368-1.607 4.075-3.272 5.473-1.815 1.517-2.38.922-2.38-2.558 0-2.916-.417-4.284-1.577-5.176l-.743-.595 1.903-.982c3.035-1.576 4.552-4.224 4.165-7.169-.208-1.457-1.101-2.41-2.707-2.915l-.922-.268.03 2.261c0 2.142-.06 2.38-1.309 4.462-1.19 2.023-1.428 2.231-3.183 3.034-2.291 1.041-5.027 1.22-4.76.327.09-.267.298-1.457.476-2.588.179-1.16.446-2.558.595-3.123.149-.565.565-2.529.922-4.313.833-4.224 2.142-8.865 3.094-11.036.417-.923 1.487-2.797 2.38-4.135 1.636-2.41 1.844-2.826 1.428-2.826-.149 0-1.845.803-3.808 1.785zm21.567 17.104c0 .06-.447.982-1.012 1.993-.565 1.041-1.16 2.588-1.368 3.48-.565 2.38-.238 6.247.744 8.925.803 2.171.803 2.2.267 3.361-.565 1.25-1.963 2.618-2.677 2.618-1.636 0-2.707-3.778-2.409-8.538.475-7.288 2.706-11.869 5.8-11.958.357-.03.655.03.655.12zm-38.344 1.1c.565 1.042.387 4.493-.327 6.099-.744 1.695-2.112 3.213-3.57 3.956l-1.07.536.118-1.964c.208-3.837 1.636-8.18 2.945-8.954.863-.505 1.517-.386 1.904.328z" fill="#fff"/></svg>