<svg id="menu-options" xmlns="http://www.w3.org/2000/svg" width="33.263" height="24.234"><g id="Сгруппировать_65" data-name="Сгруппировать 65"><path id="Контур_123" data-name="Контур 123" d="M1.426 56.684h30.411a1.426 1.426 0 000-2.851H1.426a1.426 1.426 0 100 2.851z" transform="translate(0 -53.833)"/><path id="Контур_124" data-name="Контур 124" d="M.95 184.184h20.275c.523 0 .95-.641.95-1.426s-.428-1.426-.95-1.426H.95c-.523 0-.95.641-.95 1.426s.428 1.426.95 1.426z" transform="translate(0 -170.641)"/><path id="Контур_125" data-name="Контур 125" d="M1.426 311.684h30.411a1.426 1.426 0 000-2.851H1.426a1.426 1.426 0 000 2.851z" transform="translate(0 -287.45)"/></g></svg>