<svg xmlns="http://www.w3.org/2000/svg" width="45.866" height="35.125"><g id="Сгруппировать_325" data-name="Сгруппировать 325" transform="translate(-1638 -4483)"><g id="Прямоугольник_312" data-name="Прямоугольник 312" transform="translate(1640.322 4493.45)" fill="none" stroke="#000" stroke-linecap="round" stroke-linejoin="round" stroke-width="2"><rect width="31.351" height="23.223" rx="5" stroke="none"/><rect x="1" y="1" width="29.351" height="21.223" rx="4"/></g><g id="Эллипс_55" data-name="Эллипс 55" transform="translate(1650.773 4500.417)" fill="none" stroke="#000" stroke-linecap="round" stroke-width="2"><circle cx="5.225" cy="5.225" r="5.225" stroke="none"/><circle cx="5.225" cy="5.225" r="4.225"/></g><path id="Линия_80" data-name="Линия 80" fill="none" stroke="#000" stroke-linecap="round" stroke-width="2" d="M1640.322 4486.483h31.351"/><path id="Многоугольник_5" data-name="Многоугольник 5" d="M2.626 1.429a1 1 0 011.715 0l1.717 2.862A1 1 0 015.2 5.806H1.766a1 1 0 01-.857-1.515z" transform="rotate(-90 3063.984 1425.983)"/><path id="Многоугольник_6" data-name="Многоугольник 6" d="M2.626 1.429a1 1 0 011.715 0l1.717 2.862A1 1 0 015.2 5.806H1.766a1 1 0 01-.857-1.515z" transform="rotate(90 -1404.502 3078.498)"/><g id="Сгруппировать_325-2" data-name="Сгруппировать 325" transform="rotate(90 -1404.067 3087.932)"><path id="Линия_81" data-name="Линия 81" fill="none" stroke="#000" stroke-linecap="round" stroke-width="2" d="M2.322 3.483h21.481"/><path id="Многоугольник_7" data-name="Многоугольник 7" d="M2.626 1.429a1 1 0 011.715 0l1.717 2.862A1 1 0 015.2 5.806H1.766a1 1 0 01-.857-1.515z" transform="rotate(-90 3.484 3.483)"/><path id="Многоугольник_8" data-name="Многоугольник 8" d="M2.626 1.429a1 1 0 011.715 0l1.717 2.862A1 1 0 015.2 5.806H1.766a1 1 0 01-.857-1.515z" transform="rotate(90 13.063 13.063)"/></g></g></svg>