<svg id="Сгруппировать_111" data-name="Сгруппировать 111" xmlns="http://www.w3.org/2000/svg" width="40" height="40"><path id="Контур_196" data-name="Контур 196" d="M131.492 145.729l-12.762 11.322-6.73-5.144a1.778 1.778 0 00-2.119.04 1.031 1.031 0 00.05 1.688l7.827 6a1.682 1.682 0 001.047.338h.05a1.669 1.669 0 001.047-.4l13.808-12.236a1.034 1.034 0 00-.125-1.688 1.712 1.712 0 00-2.093.08z" transform="translate(-101.793 -132.639)" fill="#12f022"/><path id="Контур_197" data-name="Контур 197" d="M20 0a20 20 0 1020 20A20.016 20.016 0 0020 0zm0 37.276A17.276 17.276 0 1137.276 20 17.284 17.284 0 0120 37.276z" fill="#12f022"/></svg>