<svg xmlns="http://www.w3.org/2000/svg" width="18.073" height="21"><g id="uploading-file" transform="translate(5)"><g id="Сгруппировать_4" data-name="Сгруппировать 4" transform="translate(-5)"><path id="Контур_4" data-name="Контур 4" d="M67.573 6.976a.663.663 0 00.992.038l4.445-4.472v11.64a.7.7 0 101.4 0V2.5l4.445 4.523a.659.659 0 00.992-.038.82.82 0 00-.037-1.085L74.211.217a.7.7 0 00-.257-.166.839.839 0 00-.245-.051.7.7 0 00-.583.345L67.608 5.89a.82.82 0 00-.035 1.086z" transform="translate(-64.384)"/><path id="Контур_5" data-name="Контур 5" d="M20.6 252.167a.771.771 0 00-.769.769v6.921a.771.771 0 00.769.769h16.537a.771.771 0 00.769-.769v-6.921a.769.769 0 00-1.538 0v6.152h-15v-6.152a.771.771 0 00-.768-.769z" transform="translate(-19.833 -239.627)"/></g></g></svg>