<svg width="95" height="100" viewBox="0 0 95 100" fill="none" xmlns="http://www.w3.org/2000/svg"><g clip-path="url(#clip0_337_21132)"><path d="M35.762 91.317a3.32 3.32 0 00-2.806-.921l-8.325 1.19a8.314 8.314 0 01-1.175.083c-3.923 0-7.341-2.819-8.041-6.85l-1.453-8.365a3.367 3.367 0 00-1.732-2.406l-7.427-3.98C.876 67.962-.673 63.154 1.282 59.115l3.692-7.63a3.395 3.395 0 000-2.971l-3.692-7.63c-1.955-4.039-.406-8.848 3.521-10.952l7.427-3.98a3.367 3.367 0 001.732-2.406l1.453-8.365c.769-4.428 4.817-7.395 9.216-6.767l8.325 1.19a3.322 3.322 0 002.806-.92l6.044-5.906a8.096 8.096 0 0111.389 0l6.043 5.905a3.32 3.32 0 002.806.92l8.326-1.19c4.396-.627 8.446 2.34 9.215 6.767l1.453 8.365a3.366 3.366 0 001.732 2.407l7.427 3.98c3.927 2.104 5.476 6.913 3.521 10.952l-3.692 7.63a3.394 3.394 0 000 2.97l3.692 7.63c1.955 4.04.406 8.848-3.52 10.952l-7.428 3.98a3.367 3.367 0 00-1.732 2.407l-1.453 8.365c-.769 4.428-4.817 7.395-9.215 6.766l-8.326-1.19a3.325 3.325 0 00-2.806.922l-6.044 5.904a8.123 8.123 0 01-5.694 2.341 8.12 8.12 0 01-5.694-2.34l-6.044-5.905zm35.284-4.576c1.806.257 3.464-.964 3.777-2.77l1.453-8.364a8.22 8.22 0 014.23-5.883l7.428-3.98a3.389 3.389 0 001.442-4.477l-3.693-7.63a8.302 8.302 0 010-7.275l3.693-7.63a3.389 3.389 0 00-1.442-4.475l-7.427-3.98c-2.25-1.206-3.791-3.348-4.232-5.884l-1.452-8.365c-.314-1.805-1.972-3.026-3.778-2.768l-8.325 1.189a8.083 8.083 0 01-6.841-2.246L49.836 6.3a3.325 3.325 0 00-4.672 0l-6.043 5.904a8.084 8.084 0 01-6.842 2.246l-8.325-1.19c-1.806-.257-3.464.964-3.778 2.77l-1.452 8.364a8.218 8.218 0 01-4.231 5.883l-7.427 3.98a3.389 3.389 0 00-1.442 4.477l3.692 7.63a8.302 8.302 0 010 7.274l-3.692 7.63a3.389 3.389 0 001.442 4.476l7.427 3.98a8.224 8.224 0 014.231 5.884l1.453 8.365c.314 1.805 1.972 3.026 3.777 2.769l8.326-1.19a8.085 8.085 0 016.841 2.246l6.043 5.904a3.325 3.325 0 004.672 0l6.043-5.904a8.082 8.082 0 016.841-2.246l8.326 1.19z" fill="#114335"/><path d="M35.457 91.63l.305-.313m0 0a3.32 3.32 0 00-2.806-.921l-8.325 1.19a8.314 8.314 0 01-1.175.083c-3.923 0-7.341-2.819-8.041-6.85l-1.453-8.365a3.367 3.367 0 00-1.732-2.406m23.532 17.269l6.044 5.904a8.12 8.12 0 005.694 2.341 8.124 8.124 0 005.694-2.34M12.23 74.047s0 0 0 0zm0 0l-7.427-3.98C.876 67.962-.673 63.154 1.282 59.115l3.692-7.63a3.395 3.395 0 000-2.971m0 0l-.394.19m.394-.19l-3.692-7.63c-1.955-4.039-.406-8.848 3.521-10.952l7.427-3.98a3.367 3.367 0 001.732-2.406l1.453-8.365c.769-4.428 4.817-7.395 9.216-6.767l8.325 1.19a3.322 3.322 0 002.806-.92m0 0l-.288-.296m.288.295l6.044-5.905m0 0l-.273-.28m.273.28a8.096 8.096 0 0111.389 0m0 0l.306-.313m-.306.313l6.043 5.905a3.32 3.32 0 002.806.92l8.326-1.19m0 0l-.062-.432m.061.433c4.397-.628 8.447 2.338 9.216 6.766l1.453 8.365a3.366 3.366 0 001.732 2.407l7.427 3.98c3.927 2.104 5.476 6.913 3.521 10.952l-3.692 7.63a3.394 3.394 0 000 2.97m0 0l.393-.19m-.393.19l3.692 7.63c1.955 4.04.406 8.848-3.52 10.952m0 0l.18.337m-.18-.337l-7.428 3.98m0 0l.202.379m-.202-.378a3.367 3.367 0 00-1.732 2.406m0 0l.418.073m-.418-.073l-1.453 8.365c-.769 4.428-4.817 7.395-9.215 6.766l-8.326-1.19a3.325 3.325 0 00-2.806.922m0 0l.297.304m-.297-.304l-6.044 5.904m0 0l.296.303m35.886-36.257a3.389 3.389 0 01-1.442 4.477l-7.427 3.98a8.22 8.22 0 00-4.231 5.883l-1.453 8.365a3.35 3.35 0 01-3.777 2.769l-8.326-1.19a8.082 8.082 0 00-6.841 2.246L49.836 93.7a3.325 3.325 0 01-4.672 0l-6.043-5.904a8.085 8.085 0 00-6.841-2.246m57.096-24.284l-.394.19m.394-.19l-3.693-7.63a8.302 8.302 0 010-7.275l3.693-7.63m0 0l-.37-.178m.37.179a3.389 3.389 0 00-1.442-4.476l-7.427-3.98m0 0l-.207.385m.207-.386c-2.25-1.205-3.791-3.347-4.232-5.883l-1.452-8.365c-.314-1.805-1.972-3.026-3.778-2.768l-8.325 1.189a8.083 8.083 0 01-6.841-2.246L49.836 6.3a3.325 3.325 0 00-4.672 0l-6.043 5.904a8.084 8.084 0 01-6.842 2.246l-8.325-1.19c-1.806-.257-3.464.964-3.778 2.77l-1.452 8.364a8.218 8.218 0 01-4.231 5.883l-7.427 3.98a3.389 3.389 0 00-1.442 4.477m0 0l.39-.189m-.39.189l3.692 7.63a8.302 8.302 0 010 7.274l-3.692 7.63m0 0l.326.158m-.326-.158a3.389 3.389 0 001.442 4.476l7.427 3.98m0 0l.207-.385m-.207.386c2.248 1.205 3.79 3.347 4.231 5.883l1.453 8.365m0 0l.429-.075m-.43.075c.315 1.805 1.973 3.026 3.779 2.769m0 0l-.062-.434m.061.433l8.326-1.189m0 0l-.062-.43" stroke="#fff" stroke-width=".7"/><path d="M68.361 28.929a2.835 2.835 0 00-4.037 0L26.638 66.993a2.904 2.904 0 000 4.078 2.832 2.832 0 004.037 0l37.686-38.064a2.904 2.904 0 000-4.078zM36.08 24.046c-5.773 0-10.47 4.744-10.47 10.574s4.697 10.574 10.47 10.574c5.772 0 10.468-4.744 10.468-10.574S41.852 24.046 36.08 24.046zm0 15.38c-2.625 0-4.76-2.156-4.76-4.806s2.135-4.806 4.76-4.806c2.623 0 4.758 2.156 4.758 4.806s-2.135 4.806-4.759 4.806zm22.84 15.38c-5.773 0-10.469 4.744-10.469 10.574s4.697 10.574 10.469 10.574c5.772 0 10.469-4.743 10.469-10.574 0-5.83-4.697-10.574-10.469-10.574zm0 15.38c-2.624 0-4.759-2.156-4.759-4.806s2.135-4.806 4.759-4.806c2.624 0 4.758 2.156 4.758 4.806s-2.134 4.806-4.758 4.806z" fill="#FA7616"/></g><defs><clipPath id="clip0_337_21132"><path fill="#fff" d="M0 0h95v100H0z"/></clipPath></defs></svg>