<svg width="114" height="145" viewBox="0 0 114 145" fill="none" xmlns="http://www.w3.org/2000/svg"><g clip-path="url(#clip0_337_21162)"><path d="M111.162 16.17H97.2v5.665h11.124v117.501H22.477v-10.507H16.8v13.339A2.843 2.843 0 0019.639 145h91.523a2.843 2.843 0 002.838-2.832V19.003a2.843 2.843 0 00-2.838-2.832z" fill="#114335"/><path d="M94.362 0H2.838A2.843 2.843 0 000 2.832v123.165a2.843 2.843 0 002.838 2.832h91.524a2.843 2.843 0 002.837-2.832V2.832A2.843 2.843 0 0094.362 0zm-2.838 21.835v101.302H5.676V5.664h85.848v16.171z" fill="#114335"/><path d="M76.937 27.47H56.872a2.843 2.843 0 01-2.838-2.831 2.843 2.843 0 012.838-2.832h20.065a2.843 2.843 0 012.838 2.832 2.825 2.825 0 01-2.838 2.832zm0 17.163H56.872a2.843 2.843 0 01-2.838-2.832 2.843 2.843 0 012.838-2.832h20.065a2.843 2.843 0 012.838 2.832 2.843 2.843 0 01-2.838 2.832zm0 17.134H56.872a2.843 2.843 0 01-2.838-2.832 2.843 2.843 0 012.838-2.833h20.065a2.843 2.843 0 012.838 2.833 2.843 2.843 0 01-2.838 2.832zM76.936 78.9H20.263a2.843 2.843 0 01-2.838-2.832 2.843 2.843 0 012.838-2.832h56.673a2.844 2.844 0 012.838 2.832 2.843 2.843 0 01-2.838 2.832zm0 17.134a2.843 2.843 0 01-2.837-2.832 2.843 2.843 0 012.837-2.832 2.843 2.843 0 012.839 2.832 2.825 2.825 0 01-2.839 2.832zm-10.018 0H20.263a2.843 2.843 0 01-2.838-2.832 2.843 2.843 0 012.838-2.832h46.655a2.843 2.843 0 012.838 2.832 2.825 2.825 0 01-2.838 2.832z" fill="#114335"/><path d="M46.003 34.636c0-7.873-6.385-14.245-14.275-14.245-7.89 0-14.275 6.372-14.275 14.245 0 3.2 1.05 6.145 2.838 8.524v21.155c-.028.765.256 1.501.823 2.096a2.83 2.83 0 004.002 0l6.612-6.599 6.613 6.6a2.83 2.83 0 004.001 0 2.81 2.81 0 00.823-2.097V43.162a14.121 14.121 0 002.838-8.525zm-14.275-7.902c4.37 0 7.918 3.54 7.918 7.902 0 4.361-3.547 7.901-7.918 7.901-4.37 0-7.918-3.54-7.918-7.901 0-4.362 3.548-7.902 7.918-7.902zm1.987 27.103a2.83 2.83 0 00-4.002 0l-3.774 3.766v-9.912c1.76.793 3.718 1.218 5.79 1.218 2.07 0 4-.425 5.789-1.218v9.912l-3.803-3.766z" fill="#FA7616"/></g><defs><clipPath id="clip0_337_21162"><path fill="#fff" d="M0 0h114v145H0z"/></clipPath></defs></svg>