<svg width="100" height="100" viewBox="0 0 100 100" fill="none" xmlns="http://www.w3.org/2000/svg"><g clip-path="url(#clip0_337_21172)"><path d="M92.434 59.835c-.82-.974-1.62-1.901-2.391-2.857-.088-.106-.088-.328-.059-.492.537-3.05.791-6.12.567-9.218-.098-1.284-.206-2.568-.41-3.832-.098-.58-.381-1.159-.703-1.67-.46-.724-1.23-.966-2.04-.85-.899.126-1.777.348-2.656.55-.995.232-1.962.541-2.967.724-.762.136-1.357-.231-1.855-.82-.888-1.052-2.118-1.4-3.446-1.37-.771.019-1.25.935-.927 1.67.224.501.517.974.693 1.486.176.511.332 1.052.37 1.583.089 1.12-.526 1.93-1.454 2.422-2.118 1.13-4.597.802-6.423-.743-.049-.038-.107-.058-.166-.087-.43 1.718.742 3.948 2.538 4.75.898.405 1.845.704 2.763 1.08.85.348 1.396.956 1.562 1.921-1.494 0-2.958-.067-4.413.02-1.073.067-1.747-.222-2.43-1.12-1.826-2.413-4.442-3.407-7.429-3.523a81.38 81.38 0 00-4.344-.01c-1.386.02-2.548.58-3.504 1.602-.967-.695-2.001-1.225-3.173-1.428a12.977 12.977 0 00-1.933-.174c-2.635-.02-5.27-.01-7.907-.01h-.39c0-.569-.01-1.11 0-1.65.078-3.214-1.22-5.695-4.012-7.375-.03-.019-.04-.048-.088-.106a12.204 12.204 0 013.446-2.452c2.909-1.38 5.964-1.467 9.059-.907 1.571.29 3.114.782 4.676 1.13.995.221 2 .405 3.016.501 1.376.136 2.763.242 4.139.213 2.216-.049 2.44-.666 1.952-2.664-.253-1.053-1.083-1.603-2.06-1.95-1.17-.425-2.4-.57-3.64-.57-2.49 0-4.979.087-7.468.068-.771-.01-1.552-.155-2.294-.367-1.699-.502-2.47-1.863-2.03-3.552.37-1.438 1.093-2.684 2.557-3.273 1.054-.415 1.406-1.206 1.533-2.2.058-.444.068-.898.136-1.342.283-1.786 1.504-2.751 3.095-3.33 1.942-.705 3.963-.82 6.003-.714.82.048.986-.107.869-.937-.117-.859-.352-1.699-.459-2.558-.205-1.68.332-3.166 1.318-4.517.088-.116.166-.232.293-.405a41.33 41.33 0 00-11.86-1.178c0 .82.019 1.612 0 2.394-.04 1.438-.303 2.818-1.455 3.803-.615.521-1.367.907-2.099 1.274-1.337.676-2.724 1.274-4.06 1.95-.44.222-.82.57-1.221.878-.303.232-.469.512-.449.936.02.676-.547 1.284-1.23 1.439-.634.135-1.347-.164-1.67-.734-.546-.984-.37-1.93.235-2.818.83-1.197 1.991-2.037 3.26-2.693 1.182-.609 2.411-1.12 3.622-1.66.176-.078.361-.155.537-.223.869-.318 1.367-.907 1.376-1.843.01-.782 0-1.564 0-2.414-6.16.782-11.782 2.838-16.917 6.11.986 2.327 1.338 4.74 1.299 7.192-.04 2.22-1.133 3.977-2.988 5.193-1.112.733-2.342 1.293-3.514 1.94-.029-.038-.068-.077-.097-.116.283-.415.556-.83.849-1.235.752-1.023 1.445-2.066 1.494-3.388 0-.097.087-.203.156-.28.868-.869 1.122-1.96.986-3.108-.157-1.303-.42-2.597-.645-3.89-.02-.136-.087-.27-.166-.502-1.103.946-2.167 1.834-3.201 2.76-.303.27-.537.406-.977.31-.517-.117-1.054-.107-1.64-.155 0-.618-.019-1.236.01-1.863.01-.135.147-.28.264-.377 4.256-4.006 9.107-7.075 14.593-9.16a43.057 43.057 0 0112.212-2.722c7.214-.531 14.164.57 20.793 3.446 8.834 3.842 15.687 9.923 20.538 18.166 2.655 4.508 4.383 9.363 5.232 14.518.615 3.755.772 7.52.352 11.293-.215 1.93-.635 3.832-.967 5.744-.058.115-.107.212-.165.366z" fill="#114335"/><path d="M67.415 58.3h3.798c4.12 0 8.229-.009 12.348.01 1.65.01 3.065.637 4.12 1.883 3.621 4.256 7.204 8.542 10.786 12.838 1.016 1.216 1.513 2.654 1.513 4.237.01 4.855-.039 9.72.02 14.576.019 2.017-1.591 3.658-3.622 3.552-1.21-.068-2.44-.01-3.64-.01.087-1.023.175-2.017.263-3.089h2.606c1.24 0 1.24 0 1.24-1.216 0-4.517-.01-9.044 0-13.562 0-1.062-.352-1.979-1.025-2.79-3.475-4.14-6.94-8.281-10.406-12.403-.488-.589-1.142-.927-1.904-.927-5.105-.01-10.22-.01-15.325-.01a.87.87 0 00-.205.03v30.85h4.607c.088 1.061.176 2.065.264 3.078H42.767c.088-1.013.176-2.017.264-3.06h21.788V75.29H1.66c-.78-.01-1.317-.377-1.561-1.034-.224-.617-.068-1.293.478-1.689.274-.193.645-.357.977-.357 5.076-.02 10.152-.01 15.228-.01 1.786 0 3.573-.01 5.359-.01 13.988 0 27.986 0 41.975.01h.722v-.617c0-3.302.03-6.593-.039-9.894a9.057 9.057 0 00-.498-2.684c-.517-1.506-1.708-2.21-3.299-2.249-1.337-.029-2.665-.01-4.002-.01-1.094 0-1.767-.598-1.757-1.553.01-.937.683-1.526 1.737-1.526h3.612c3.329 0 5.457 1.41 6.716 4.44.03.059.059.107.107.194z" fill="#114335"/><path d="M4.58 26.66l6.393 9.227c2.128-3.07 4.237-6.11 6.404-9.228h-2.343c-1.113 0-1.728-.598-1.728-1.689 0-7.751.02-15.502-.019-23.253C13.277.539 14.41-.368 15.523.163c.663.309.907.869.907 1.573v21.796c.137.01.264.038.381.038 1.123 0 2.245.01 3.368 0 .673 0 1.21.223 1.532.83.332.618.215 1.198-.185 1.757a5546.67 5546.67 0 00-8.502 12.24c-.215.309-.42.618-.625.917-.82 1.168-2.05 1.178-2.86.01-1.143-1.641-2.275-3.292-3.417-4.933-1.894-2.732-3.778-5.463-5.681-8.195-.4-.57-.566-1.158-.215-1.805s.927-.85 1.63-.84c1.191.02 2.372 0 3.631 0V1.978c0-.29-.01-.59.06-.86.185-.724.917-1.187 1.668-1.11a1.565 1.565 0 011.396 1.439c.01.125.01.26.01.386v22.152c0 .358.01.705 0 1.062-.02.956-.664 1.603-1.63 1.603-.771.01-1.552.01-2.411.01z" fill="#FA7616"/><path d="M51.602.018c11.07.483 20.86 3.967 29.421 10.685 8.278 6.497 13.92 14.779 16.956 24.789a45.139 45.139 0 011.835 9.778c.098 1.36.157 2.731.147 4.092 0 .985-.644 1.622-1.445 1.603-1.054-.03-1.63-.618-1.64-1.68-.03-5.618-1.025-11.052-3.055-16.293-2.509-6.497-6.306-12.163-11.392-16.97-6.501-6.139-14.154-10.145-22.97-11.97-3.084-.636-6.198-.935-9.341-.955-.986-.01-1.67-.656-1.66-1.563.01-.879.693-1.516 1.65-1.526.556 0 1.113.01 1.494.01zm31.5 80.677h-6.589c-1.562 0-2.811-1.062-2.997-2.597a18.115 18.115 0 01-.097-2.056c-.01-2.027-.01-4.054 0-6.081.01-1.516 1.005-2.78 2.42-3.108a2.82 2.82 0 01.576-.058c1.318 0 2.636.02 3.954-.01 1.454-.019 2.606.58 3.553 1.612 2.49 2.742 4.96 5.493 7.439 8.234.43.473.712.994.78 1.622.147 1.351-.849 2.432-2.264 2.432-2.255.01-4.51.01-6.775.01zM82.77 100c-3.933-.01-7.018-3.118-7.008-7.066.01-3.784 3.192-6.843 7.096-6.834 3.886.01 6.97 3.137 6.96 7.066-.01 3.755-3.192 6.834-7.047 6.834zM32.85 86.1a6.96 6.96 0 016.989 6.989c0 3.841-3.153 6.921-7.068 6.911-3.885-.01-6.999-3.118-6.989-6.989.01-3.841 3.153-6.92 7.067-6.91zM22.6 92.307c.087 1.013.165 2.008.253 3.03-.058.01-.185.03-.302.03h-9.274c-.703 0-1.25-.406-1.483-1.043-.215-.608-.05-1.284.497-1.68.244-.183.586-.337.889-.337 3.094-.02 6.179-.02 9.273-.01.069-.02.127 0 .147.01zm20.363-9.296h-3.026c-.957 0-1.65-.646-1.66-1.515-.01-.917.674-1.564 1.66-1.564h6.052c.956 0 1.65.637 1.66 1.516.009.907-.674 1.563-1.66 1.563h-3.026zm-27.363 0c-1.005 0-2.01.01-3.025 0-.996-.01-1.63-.646-1.63-1.65 0-.782.751-1.439 1.65-1.439h6.042c.985 0 1.678.647 1.669 1.555 0 .897-.693 1.534-1.689 1.534h-3.016zm16.683-36.496c.81 0 1.464.646 1.464 1.448v18.224H11.56V47.963c0-.802.654-1.448 1.464-1.448h19.26zm0-2.896h-19.26c-2.43 0-4.392 1.94-4.392 4.344v21.12h28.045v-21.12c0-2.394-1.962-4.344-4.393-4.344z" fill="#114335"/><path d="M35.641 53.667h13.08c2.432 0 4.394 1.94 4.394 4.344v11.072H31.248V58.01c0-2.404 1.963-4.344 4.393-4.344zM7.528 50.588h16.204c2.43 0 4.393 1.94 4.393 4.344v14.15H3.135v-14.15c0-2.394 1.962-4.344 4.393-4.344z" fill="#FA7616"/></g><defs><clipPath id="clip0_337_21172"><path fill="#fff" d="M0 0h100v100H0z"/></clipPath></defs></svg>