<svg width="100" height="59" viewBox="0 0 100 59" fill="none" xmlns="http://www.w3.org/2000/svg"><g clip-path="url(#clip0_337_21147)"><path d="M84.73 36.458H72.158c-2.732 0-4.955-1.958-5.28-4.645-.115-.927-.127-1.83-.127-2.665a767.302 767.302 0 010-7.31c.012-2.618 1.748-4.843 4.226-5.41a5 5 0 011.065-.116h1.748c.96 0 1.945.011 2.917-.012 2.142-.035 4.006.811 5.534 2.514 1.517 1.692 3.045 3.406 4.526 5.075 1.401 1.575 2.86 3.209 4.296 4.807.787.88 1.25 1.865 1.366 2.92.138 1.263-.232 2.467-1.054 3.383-.833.938-2.026 1.46-3.357 1.46H84.73zm-4.712-3.475h7.977c.324 0 .602-.104.775-.301.15-.174.22-.418.197-.696-.023-.208-.104-.533-.498-.973a1425.226 1425.226 0 01-4.306-4.82c-1.482-1.656-3.01-3.382-4.527-5.062-.845-.95-1.771-1.378-2.894-1.355-.996.011-2.014.011-2.987.011H72.03c-.173 0-.266.012-.3.024-.904.208-1.517 1.03-1.529 2.038a753.473 753.473 0 000 7.276c0 .741.012 1.53.105 2.27.115.962.833 1.588 1.829 1.588h7.883z" fill="#114335"/><path d="M99.977 30.596c0-1.9-.59-3.626-1.795-5.086A2063.758 2063.758 0 0085.39 10.102c-1.25-1.483-2.93-2.247-4.886-2.259-4.885-.023-9.759-.011-14.644-.011h-7.606s-.023 2.988 0 4.066c.07 3.962.035 18.084.046 22.046v.742h-.856c-16.59 0-12.77 0-29.37-.012-2.12 0-4.238.012-6.356.012-6.02 0-12.04-.012-18.06.011-.092 0-.197.012-.29.035a1.713 1.713 0 00-1.018.533 1.66 1.66 0 00-.521 1.344v13.775c0 .88.544 1.645 1.262 1.876v.035h.116a1.785 1.785 0 00.81 0h6.379c.903 3.638 4.144 6.314 8.046 6.314h.011c3.936 0 7.224-2.676 8.116-6.314h9.006c.903 3.638 4.145 6.314 8.046 6.314h.012c3.936 0 7.223-2.676 8.115-6.314H71.52c.915 3.661 4.121 6.302 8.046 6.314h.023c3.913 0 7.224-2.711 8.104-6.314h3.693v.023c.683 0 1.366-.011 2.049-.023h.578c.568 0 1.124.012 1.69.035 2.42.127 4.319-1.83 4.296-4.264-.07-5.815-.012-11.643-.023-17.47zM22.91 52.306a4.8 4.8 0 01-.995 1.426c-.915.915-2.154 1.413-3.473 1.413h-.012a4.768 4.768 0 01-3.415-1.425 4.89 4.89 0 01-.973-1.413 4.955 4.955 0 01-.44-2.063c0-.556.093-1.1.278-1.61a4.901 4.901 0 011.146-1.807c.915-.915 2.154-1.413 3.474-1.413 1.296 0 2.5.51 3.415 1.425a4.72 4.72 0 011.123 1.795c.185.533.289 1.1.289 1.692a4.608 4.608 0 01-.417 1.98zm25.18 0a4.801 4.801 0 01-.996 1.426c-.915.915-2.153 1.413-3.473 1.413h-.012a4.768 4.768 0 01-3.415-1.425 4.89 4.89 0 01-.972-1.413 4.955 4.955 0 01-.44-2.063c0-.556.093-1.1.278-1.61a4.901 4.901 0 011.146-1.807c.914-.915 2.153-1.413 3.473-1.413 1.296 0 2.5.51 3.415 1.425.51.51.891 1.123 1.123 1.795.185.533.29 1.1.29 1.692a4.61 4.61 0 01-.417 1.98zm10.176-3.672h-6.449c-.764-3.823-4.098-6.684-8.127-6.696h-.011c-4.087 0-7.456 2.861-8.208 6.696h-8.833c-.764-3.823-4.098-6.684-8.127-6.696H18.5c-4.087 0-7.456 2.861-8.208 6.696h-4.77v-10.23h52.744v10.23zm25.77 3.673a4.841 4.841 0 01-1.008 1.425 4.878 4.878 0 01-3.45 1.413h-.011c-1.32 0-2.535-.51-3.438-1.425a4.85 4.85 0 01-.961-1.413 5.357 5.357 0 01-.452-2.155c0-.545.093-1.054.266-1.541.672-1.854 2.501-3.197 4.654-3.197h.012a4.69 4.69 0 013.38 1.425 5.127 5.127 0 011.412 3.58 4.231 4.231 0 01-.405 1.888zm12.236-5.144c0 1.46 0 1.46-1.47 1.46h-1.089v-.012h-5.95c-.787-3.835-4.063-6.661-8.069-6.673h-.023c-4.087 0-7.502 2.873-8.243 6.673H62.04V11.585c.104-.012.173-.035.243-.035 6.054 0 12.12-.011 18.175.012.915 0 1.679.405 2.258 1.112L95.045 27.55c.81.974 1.227 2.074 1.215 3.348 0 5.422.012 10.844.012 16.266z" fill="#114335"/><path d="M52.512 20.841v8.075H32.623v-8.075h19.889zm3.473-3.475H29.15v15.026h26.835V17.366zm-32.623 3.475v8.075H3.473v-8.075h19.889zm3.473-3.475H0v15.026h26.835V17.366zm25.677-13.89v8.074H32.623V3.476h19.889zM55.985 0H29.15v15.026h26.835V0zM23.362 3.476v8.074H3.473V3.476h19.889zM26.835 0H0v15.026h26.835V0z" fill="#FA7616"/><path d="M38.713 4.715h-.116c-.012 0-.023 0-.047.012-.011 0-.023.011-.034.011-.012 0-.023 0-.035.012-.012 0-.023.011-.035.011-.011 0-.023.012-.034.012-.012 0-.023.012-.035.012-.012 0-.023.011-.035.011-.011 0-.023.012-.035.023-.011.012-.023.012-.034.024-.012.011-.024.011-.035.023-.012.011-.023.011-.023.023-.023.011-.035.035-.058.046l-1.61 1.61a.77.77 0 000 1.09c.151.15.348.22.545.22a.76.76 0 00.544-.22l.301-.302v2.19a.776.776 0 101.551 0V7.345l.301.301c.15.15.347.22.544.22a.76.76 0 00.544-.22.77.77 0 000-1.089l-1.609-1.61c-.023-.023-.034-.035-.058-.047-.011-.011-.023-.011-.023-.023-.011-.011-.023-.011-.034-.023-.012-.011-.024-.011-.035-.023-.012-.012-.023-.012-.035-.023-.011-.012-.023-.012-.035-.012-.011 0-.023-.011-.034-.011-.012 0-.024-.012-.035-.012-.012 0-.023-.012-.035-.012-.011 0-.023-.011-.035-.011-.011 0-.023-.012-.034-.012-.012 0-.023 0-.047-.011h-.034c-.035-.012-.058-.012-.081-.012zm7.721 0h-.116c-.011 0-.023 0-.046.012-.011 0-.023.011-.035.011-.011 0-.023 0-.034.012-.012 0-.023.011-.035.011-.012 0-.023.012-.035.012-.011 0-.023.012-.034.012-.012 0-.024.011-.035.011-.012 0-.023.012-.035.023-.012.012-.023.012-.035.024-.011.011-.023.011-.034.023-.012.011-.023.011-.023.023-.024.011-.035.035-.058.046l-1.61 1.61a.77.77 0 000 1.09c.151.15.348.22.544.22a.76.76 0 00.545-.22l.3-.302v2.19a.776.776 0 101.552 0V7.345l.3.301c.151.15.348.22.545.22a.76.76 0 00.544-.22.77.77 0 000-1.089l-1.609-1.61a.218.218 0 00-.058-.047c-.012-.011-.023-.011-.023-.023-.012-.011-.023-.011-.035-.023-.011-.011-.023-.011-.035-.023-.011-.012-.023-.012-.034-.023-.012-.012-.023-.012-.035-.012-.012 0-.023-.011-.035-.011-.011 0-.023-.012-.034-.012-.012 0-.024-.012-.035-.012-.012 0-.023-.011-.035-.011-.012 0-.023-.012-.035-.012-.011 0-.023 0-.046-.011h-.035c-.034-.012-.057-.012-.08-.012zm-36.686 0h-.116c-.012 0-.023 0-.046.012-.012 0-.024.011-.035.011-.012 0-.023 0-.035.012-.011 0-.023.011-.035.011-.011 0-.023.012-.034.012-.012 0-.023.012-.035.012-.012 0-.023.011-.035.011-.011 0-.023.012-.035.023-.011.012-.023.012-.034.024-.012.011-.023.011-.035.023-.012.011-.023.011-.023.023-.023.011-.035.035-.058.046L7.594 6.557a.77.77 0 000 1.09c.15.15.348.22.545.22a.76.76 0 00.544-.22l.3-.302v2.19a.776.776 0 101.552 0v-2.19l.3.301c.151.15.348.22.545.22a.76.76 0 00.544-.22.77.77 0 000-1.089l-1.632-1.61a.218.218 0 00-.058-.047c-.012-.011-.023-.011-.023-.023-.012-.011-.023-.011-.035-.023-.012-.011-.023-.011-.035-.023-.011-.012-.023-.012-.034-.023-.012-.012-.024-.012-.035-.012-.012 0-.023-.011-.035-.011-.012 0-.023-.012-.035-.012-.011 0-.023-.012-.034-.012-.012 0-.024-.011-.035-.011-.012 0-.023-.012-.035-.012-.011 0-.023 0-.046-.011h-.035c-.011-.012-.035-.012-.07-.012zm7.722 0h-.116c-.012 0-.023 0-.047.012-.011 0-.023.011-.034.011-.012 0-.023 0-.035.012-.012 0-.023.011-.035.011-.011 0-.023.012-.034.012-.012 0-.024.012-.035.012-.012 0-.023.011-.035.011-.012 0-.023.012-.035.023-.011.012-.023.012-.035.024-.011.011-.023.011-.034.023-.012.011-.023.011-.023.023-.024.011-.035.035-.058.046l-1.61 1.61a.77.77 0 000 1.09c.151.15.348.22.545.22.197 0 .393-.07.544-.22l.3-.302v2.19a.776.776 0 101.552 0V7.345l.301.301c.15.15.347.22.544.22a.76.76 0 00.544-.22.77.77 0 000-1.089l-1.609-1.61a.202.202 0 00-.058-.047c-.011-.011-.023-.011-.023-.023-.011-.011-.023-.011-.035-.023-.011-.011-.023-.011-.034-.023-.012-.012-.023-.012-.035-.023-.012-.012-.023-.012-.035-.012-.011 0-.023-.011-.035-.011-.011 0-.023-.012-.034-.012-.012 0-.023-.012-.035-.012-.012 0-.023-.011-.035-.011-.011 0-.023-.012-.035-.012-.011 0-.023 0-.046-.011h-.035c-.023-.012-.046-.012-.08-.012zm21.243 17.366h-.116c-.012 0-.023 0-.047.012-.011 0-.023.011-.034.011-.012 0-.023 0-.035.012-.012 0-.023.012-.035.012-.011 0-.023.011-.034.011-.012 0-.023.012-.035.012-.012 0-.023.011-.035.011-.011 0-.023.012-.035.024-.011.011-.023.011-.034.023-.012.011-.024.011-.035.023-.012.011-.023.011-.023.023-.023.012-.035.035-.058.046l-1.61 1.61a.77.77 0 000 1.09c.151.15.348.22.545.22a.76.76 0 00.544-.22l.301-.302v2.19a.776.776 0 101.551 0v-2.19l.301.302c.15.15.347.22.544.22a.76.76 0 00.544-.22.77.77 0 000-1.09l-1.609-1.61a.199.199 0 00-.058-.046c-.011-.012-.023-.012-.023-.023-.011-.012-.023-.012-.034-.023-.012-.012-.024-.012-.035-.023-.012-.012-.023-.012-.035-.024-.011-.011-.023-.011-.035-.011-.011 0-.023-.012-.034-.012-.012 0-.024-.011-.035-.011-.012 0-.023-.012-.035-.012-.011 0-.023-.012-.035-.012-.011 0-.023-.011-.034-.011-.012 0-.023 0-.047-.012h-.115zm7.721 0h-.116c-.011 0-.023 0-.046.012-.011 0-.023.011-.035.011-.011 0-.023 0-.034.012-.012 0-.023.012-.035.012-.012 0-.023.011-.035.011-.011 0-.023.012-.034.012-.012 0-.024.011-.035.011-.012 0-.023.012-.035.024-.012.011-.023.011-.035.023-.011.011-.023.011-.034.023-.012.011-.023.011-.023.023-.024.012-.035.035-.058.046l-1.61 1.61a.77.77 0 000 1.09c.151.15.348.22.544.22a.76.76 0 00.545-.22l.3-.302v2.19a.776.776 0 101.552 0v-2.19l.3.302c.151.15.348.22.545.22a.76.76 0 00.544-.22.77.77 0 000-1.09l-1.609-1.61a.207.207 0 00-.058-.046c-.012-.012-.023-.012-.023-.023-.012-.012-.023-.012-.035-.023-.011-.012-.023-.012-.035-.023-.011-.012-.023-.012-.034-.024-.012-.011-.023-.011-.035-.011-.012 0-.023-.012-.035-.012-.011 0-.023-.011-.034-.011-.012 0-.024-.012-.035-.012-.012 0-.023-.012-.035-.012-.012 0-.023-.011-.035-.011-.011 0-.023 0-.046-.012h-.115zm-36.686 0h-.116c-.012 0-.023 0-.047.012-.011 0-.023.011-.034.011-.012 0-.023 0-.035.012-.012 0-.023.012-.035.012-.011 0-.023.011-.034.011-.012 0-.024.012-.035.012-.012 0-.023.011-.035.011-.011 0-.023.012-.035.024-.011.011-.023.011-.034.023-.012.011-.024.011-.035.023-.012.011-.023.011-.023.023-.023.012-.035.035-.058.046l-1.61 1.61a.77.77 0 000 1.09c.151.15.348.22.545.22A.76.76 0 008.67 25l.3-.302v2.19a.776.776 0 101.552 0v-2.19l.301.302c.15.15.348.22.544.22a.76.76 0 00.544-.22.77.77 0 000-1.09l-1.609-1.61a.204.204 0 00-.058-.046c-.011-.012-.023-.012-.023-.023-.011-.012-.023-.012-.035-.023-.011-.012-.023-.012-.034-.023-.012-.012-.023-.012-.035-.024-.012-.011-.023-.011-.035-.011-.011 0-.023-.012-.034-.012-.012 0-.024-.011-.035-.011-.012 0-.023-.012-.035-.012-.012 0-.023-.012-.035-.012-.011 0-.023-.011-.034-.011-.012 0-.024 0-.047-.012h-.115zm7.722 0h-.116c-.012 0-.023 0-.047.012-.011 0-.023.011-.034.011-.012 0-.023 0-.035.012-.012 0-.023.012-.035.012-.011 0-.023.011-.034.011-.012 0-.024.012-.035.012-.012 0-.023.011-.035.011-.012 0-.023.012-.035.024-.011.011-.023.011-.035.023-.011.011-.023.011-.034.023-.012.011-.023.011-.023.023-.024.012-.035.035-.058.046l-1.61 1.61a.77.77 0 000 1.09c.151.15.348.22.545.22.197 0 .393-.07.544-.22l.3-.302v2.19a.776.776 0 101.552 0v-2.19l.301.302c.15.15.347.22.544.22a.76.76 0 00.544-.22.77.77 0 000-1.09l-1.609-1.61a.204.204 0 00-.058-.046c-.011-.012-.023-.012-.023-.023-.011-.012-.023-.012-.035-.023-.011-.012-.023-.012-.034-.023-.012-.012-.023-.012-.035-.024-.012-.011-.023-.011-.035-.011-.011 0-.023-.012-.035-.012-.011 0-.023-.011-.034-.011-.012 0-.023-.012-.035-.012-.012 0-.023-.012-.035-.012-.011 0-.023-.011-.035-.011-.011 0-.023 0-.046-.012h-.115z" fill="#FA7616"/></g><defs><clipPath id="clip0_337_21147"><path fill="#fff" d="M0 0h100v58.75H0z"/></clipPath></defs></svg>