<svg width="269" height="61" viewBox="0 0 269 61" fill="none" xmlns="http://www.w3.org/2000/svg"><g clip-path="url(#clip0_0_627)"><path d="M48.665 3.784c.097 4.132-3.01 8.452-6.895 9.86-2.914 1.127-3.982.47-4.273-2.63-.389-3.85 2.525-8.638 6.312-10.329 3.399-1.502 4.759-.563 4.856 3.1zM14.19 41.627c1.845.094 3.399.94 3.399.94s1.942 1.596 1.068 3.192c-2.137 3.756-7.963 5.916-12.042 4.414-2.233-.846-2.816-1.972-1.36-4.038 2.234-3.005 7.09-4.601 8.935-4.508zm-9.517-4.131c1.65.188 3.884.47 3.787 2.16-.097 2.16-2.428 2.63-4.467 2.63-1.845 0-4.176-.47-3.982-2.255.195-1.971 2.622-2.441 4.662-2.535zM52.84 8.667c-1.165-.188-1.845-.657-1.554-1.69.68-2.348 2.234-3.756 4.759-4.038 1.165-.094 1.748.563 1.457 1.69-.583 2.348-2.331 3.475-4.662 4.038zM4.382 56.84c-1.166-.282-2.914-.282-2.817-1.69.098-1.503 1.846-1.878 3.205-1.972 1.263-.094 3.01.375 3.01 1.596.098 1.69-1.845 1.878-3.398 2.066z" fill="#9DC55B"/><path d="M65.27 46.792c-1.456-5.447-4.66-9.672-9.71-12.49-1.749-.938-3.594-1.69-5.633-2.723 5.438-3.944 9.129-8.639 10.002-14.93.777-5.634-1.165-7.418-6.992-6.292-1.748.376-3.593 1.033-5.244 1.69-3.69 1.597-6.312 4.414-9.031 7.419-2.525-6.198-6.506-10.799-13.013-12.865-4.079-1.314-4.759-.939-6.021 3.005-1.65 4.977-.194 9.672 1.942 14.555h-3.302c-4.467.282-8.545 1.596-12.041 4.414-1.651 1.314-1.845 2.535-.68 4.32 2.525 3.943 6.215 6.197 10.682 7.417 1.942.564 3.982.846 6.118 1.221-1.748 3.38-3.302 6.667-3.399 10.33-.097 3.286-.194 7.23 2.914 8.733 2.622 1.314 5.923-.846 8.546-2.63 5.34-3.568 8.06-8.733 9.42-15.212 1.068 1.127 1.844 2.066 2.718 2.723 5.924 4.977 12.43 7.512 20.394 5.165 2.234-.47 3.01-1.597 2.33-3.85zM23.319 13.268c.68-2.629 1.942-3.756 4.953-2.535 5.341 2.066 9.517 7.888 9.517 13.616v1.033c-.388 5.07-2.234 6.01-6.895 3.568-5.633-3.005-9.031-10.047-7.575-15.682zM11.373 34.115c-1.845-2.16-1.456-3.662.875-5.07 2.525-1.503 5.147-2.442 7.089-2.255 6.118.094 10.294 1.785 13.304 5.916.874 1.127.971 2.066-.291 3.1-5.536 4.882-16.315 3.943-20.977-1.691zm26.415 8.357c0 6.573-4.856 12.677-10.682 14.086-1.846.47-2.817.094-3.496-1.597C20.793 48.482 26.814 38.06 34 36.838c1.554-.282 2.428 0 2.914 1.502.486 1.503 1.165 3.005.874 4.132zm-.097-7.043c-1.068.658-2.234.47-3.108-.469-.874-.939-.97-1.972-.194-3.005 1.068-1.408 2.428-1.408 3.884-.47l.098.095c.874 1.408 1.068 2.817-.68 3.85zm1.554-3.85c0-.094 0-.094 0 0-.486-7.042 2.136-12.489 8.74-15.775 2.622-1.315 6.02-2.63 8.06-.47 1.845 1.878.68 5.071-.486 7.606-2.816 6.104-8.545 9.109-16.314 8.64zm19.908 16.152c-1.36.47-2.622.657-4.08.563-6.7 0-12.72-4.883-14.566-11.362-.485-1.69.389-2.254 1.457-2.63 7.089-2.817 17.771 3.287 18.937 10.612.194 1.69-.389 2.347-1.748 2.817zm17.285 2.816v-36.81h10.488c13.402 0 20.103 6.01 20.103 17.936 0 5.728-1.846 10.235-5.633 13.71-3.69 3.474-8.74 5.164-14.956 5.164H76.439zm4.467-32.866v29.016h5.73c4.952 0 8.837-1.314 11.653-3.85 2.817-2.629 4.176-6.291 4.176-10.986 0-9.39-5.147-14.18-15.538-14.18h-6.02zm52.539 32.867h-4.37v-4.132h-.098c-1.942 3.193-4.661 4.695-8.351 4.695-2.719 0-4.856-.657-6.41-2.066-1.553-1.408-2.33-3.192-2.33-5.54 0-4.883 3.01-7.794 8.934-8.545l8.157-1.127c0-4.507-1.845-6.667-5.632-6.667-3.302 0-6.215 1.033-8.837 3.193v-4.32c2.719-1.69 5.729-2.441 9.225-2.441 6.41 0 9.614 3.286 9.614 9.766v17.184h.098zm-4.37-13.24l-6.604.845c-2.039.281-3.496.75-4.564 1.408-1.069.657-1.554 1.878-1.554 3.662 0 1.315.485 2.348 1.457 3.193.971.845 2.233 1.22 3.787 1.22 2.136 0 3.982-.75 5.341-2.159 1.36-1.502 2.137-3.286 2.137-5.54v-2.63z" fill="#7B5891"/><path d="M155.099 15.334c-.874-.47-1.845-.657-2.913-.657-3.01 0-4.564 1.878-4.564 5.54v4.038h6.409v3.568h-6.409v22.725h-4.37V27.823h-4.564v-3.568h4.661v-4.226c0-2.723.777-4.976 2.428-6.573 1.651-1.596 3.69-2.441 6.118-2.441 1.359 0 2.428.187 3.204.47v3.85zm7.963 35.214h-4.37V11.672h4.37v38.876zm20.2.657c-3.982 0-7.186-1.22-9.614-3.662-2.428-2.442-3.593-5.728-3.593-9.766 0-4.413 1.262-7.888 3.787-10.33 2.525-2.44 5.827-3.756 10.1-3.756 4.078 0 7.186 1.221 9.517 3.663 2.233 2.441 3.399 5.728 3.399 10.047 0 4.226-1.263 7.512-3.691 10.048-2.525 2.441-5.826 3.756-9.905 3.756zm.291-24.04c-2.816 0-5.05.94-6.603 2.724-1.651 1.878-2.428 4.414-2.428 7.606 0 3.099.777 5.54 2.428 7.419 1.651 1.784 3.884 2.723 6.603 2.723 2.816 0 4.953-.845 6.507-2.63 1.554-1.784 2.233-4.32 2.233-7.512 0-3.286-.777-5.822-2.233-7.606-1.554-1.784-3.691-2.723-6.507-2.723zm34.378 1.41c-.777-.564-1.845-.846-3.302-.846-1.845 0-3.399.846-4.661 2.536-1.263 1.69-1.846 4.038-1.846 6.949v13.428h-4.37V24.349h4.37v5.446h.098c.582-1.878 1.553-3.286 2.816-4.32 1.262-1.032 2.719-1.596 4.273-1.596 1.165 0 2.039.094 2.622.376v4.32zm6.215 22.536c-.777 0-1.554-.281-2.04-.845-.582-.563-.874-1.22-.874-2.066 0-.845.292-1.502.874-2.065.583-.564 1.263-.845 2.04-.845.874 0 1.554.281 2.136.845.583.563.874 1.22.874 2.066 0 .75-.291 1.502-.874 2.065-.582.564-1.262.846-2.136.846zm11.751-3.098l-.097 2.535h-2.914V24.631h2.914v11.456h.097c1.456-2.348 3.496-3.474 6.215-3.474 2.331 0 4.176.75 5.438 2.347 1.36 1.597 1.942 3.663 1.942 6.292 0 2.91-.777 5.258-2.233 7.042-1.457 1.785-3.496 2.63-6.021 2.63-2.234.094-4.079-.94-5.341-2.911zm0-7.043v2.441c0 1.41.485 2.724 1.456 3.663.972.939 2.234 1.502 3.691 1.502 1.748 0 3.107-.657 4.175-1.972.972-1.314 1.457-3.099 1.457-5.446 0-1.972-.485-3.474-1.359-4.601-.972-1.127-2.234-1.69-3.788-1.69-1.651 0-3.01.563-4.079 1.69-1.068 1.314-1.553 2.723-1.553 4.413zm32.824-7.889l-8.352 20.284c-1.457 3.662-3.593 5.446-6.215 5.446-.777 0-1.36-.094-1.845-.188v-2.535a5.662 5.662 0 001.748.282c1.456 0 2.525-.846 3.302-2.536l1.456-3.287-7.089-17.465h3.205l4.855 13.522c.097.187.195.657.389 1.314h.097c.097-.282.194-.751.388-1.314l5.147-13.523h2.914z" fill="#9DC55B"/></g><defs><clipPath id="clip0_0_627"><path fill="#fff" d="M0 0h269v61H0z"/></clipPath></defs></svg>