<svg width="171" height="39" viewBox="0 0 171 39" fill="none" xmlns="http://www.w3.org/2000/svg"><g clip-path="url(#clip0_0_548)"><path d="M30.935 2.42c.062 2.641-1.913 5.403-4.383 6.303-1.852.72-2.53.3-2.716-1.68C23.59 4.58 25.441 1.518 27.85.437c2.16-.96 3.025-.36 3.086 1.981zM9.02 26.614c1.173.06 2.161.6 2.161.6s1.235 1.02.68 2.041c-1.36 2.402-5.063 3.783-7.656 2.822-1.42-.54-1.79-1.26-.864-2.581 1.42-1.922 4.506-2.942 5.68-2.882zm-6.05-2.641c1.05.12 2.47.3 2.408 1.38-.062 1.381-1.543 1.681-2.84 1.681-1.173 0-2.654-.3-2.53-1.44.123-1.261 1.666-1.561 2.962-1.621zM33.59 5.54c-.74-.12-1.173-.42-.988-1.08.433-1.5 1.42-2.401 3.025-2.581.741-.06 1.111.36.926 1.08-.37 1.501-1.481 2.222-2.963 2.582zM2.785 36.34c-.74-.18-1.852-.18-1.79-1.08.062-.961 1.173-1.201 2.037-1.261.803-.06 1.914.24 1.914 1.02.062 1.08-1.173 1.201-2.16 1.321z" fill="#9DC55B"/><path d="M41.492 29.916c-.926-3.482-2.963-6.184-6.173-7.985-1.112-.6-2.285-1.08-3.58-1.741 3.456-2.522 5.802-5.524 6.357-9.546.494-3.602-.74-4.743-4.444-4.022-1.111.24-2.284.66-3.334 1.08-2.346 1.02-4.012 2.822-5.741 4.743-1.605-3.962-4.136-6.904-8.272-8.225-2.593-.84-3.025-.6-3.828 1.921-1.05 3.182-.123 6.184 1.235 9.306h-2.099c-2.84.18-5.432 1.02-7.655 2.822-1.05.84-1.173 1.62-.432 2.761 1.605 2.522 3.951 3.963 6.79 4.743 1.235.36 2.532.54 3.89.78-1.111 2.162-2.099 4.263-2.16 6.605-.063 2.1-.124 4.623 1.851 5.583 1.667.84 3.766-.54 5.433-1.681 3.395-2.281 5.124-5.583 5.988-9.726.679.72 1.173 1.32 1.728 1.741 3.766 3.182 7.902 4.803 12.964 3.302 1.42-.3 1.914-1.02 1.482-2.461zM14.823 8.483c.432-1.681 1.235-2.402 3.149-1.621 3.395 1.32 6.05 5.043 6.05 8.705v.66c-.247 3.242-1.42 3.843-4.384 2.282-3.58-1.921-5.74-6.424-4.815-10.026zM7.23 21.81c-1.173-1.381-.926-2.342.556-3.242 1.605-.96 3.272-1.561 4.506-1.441 3.89.06 6.544 1.14 8.458 3.782.555.72.617 1.321-.186 1.981-3.518 3.122-10.37 2.522-13.334-1.08zm16.791 5.343c0 4.203-3.086 8.105-6.79 9.005-1.173.3-1.79.06-2.223-1.02-1.79-4.143 2.038-10.807 6.606-11.587.988-.18 1.543 0 1.852.96.308.961.74 1.922.555 2.642zm-.061-4.503c-.68.42-1.42.3-1.976-.3-.555-.6-.617-1.26-.123-1.921.679-.9 1.543-.9 2.47-.3l.06.06c.556.9.68 1.8-.431 2.461zm.987-2.461c0-.06 0-.06 0 0-.308-4.503 1.359-7.985 5.556-10.086 1.667-.84 3.828-1.681 5.124-.3 1.173 1.2.432 3.242-.308 4.862-1.79 3.903-5.433 5.824-10.372 5.524zm12.656 10.326c-.865.3-1.667.42-2.593.36-4.26 0-8.087-3.122-9.26-7.264-.309-1.08.247-1.441.926-1.681 4.507-1.801 11.297 2.101 12.038 6.784.123 1.08-.247 1.5-1.111 1.801zm10.987 1.803V8.783h6.668c8.52 0 12.779 3.843 12.779 11.467 0 3.662-1.173 6.544-3.58 8.765-2.346 2.222-5.557 3.303-9.508 3.303h-6.358zm2.84-21.013v18.551h3.643c3.148 0 5.617-.84 7.408-2.462 1.79-1.68 2.654-4.022 2.654-7.024 0-6.003-3.271-9.065-9.877-9.065H51.43zm33.398 21.012H82.05v-2.641h-.061c-1.235 2.041-2.964 3.002-5.31 3.002-1.728 0-3.086-.42-4.074-1.321-.988-.9-1.481-2.041-1.481-3.542 0-3.122 1.913-4.983 5.679-5.464l5.186-.72c0-2.882-1.173-4.263-3.581-4.263-2.099 0-3.95.66-5.618 2.042v-2.762c1.729-1.08 3.643-1.561 5.865-1.561 4.074 0 6.111 2.101 6.111 6.244v10.986h.062zm-2.778-8.465l-4.198.54c-1.296.18-2.222.48-2.901.901-.68.42-.988 1.2-.988 2.341 0 .841.309 1.501.926 2.042.618.54 1.42.78 2.408.78 1.358 0 2.53-.48 3.395-1.38.864-.961 1.358-2.102 1.358-3.543v-1.68z" fill="#7B5891"/><path d="M98.595 9.804c-.556-.3-1.173-.42-1.852-.42-1.914 0-2.901 1.2-2.901 3.541v2.582h4.074v2.281H93.84v14.53h-2.777v-14.53h-2.902v-2.28h2.963v-2.702c0-1.742.494-3.182 1.544-4.203 1.05-1.02 2.346-1.561 3.889-1.561.864 0 1.543.12 2.037.3v2.462zm5.062 22.513h-2.778V7.462h2.778v24.855zm12.84.421c-2.531 0-4.568-.78-6.111-2.341-1.544-1.561-2.284-3.662-2.284-6.244 0-2.822.802-5.043 2.407-6.604s3.704-2.401 6.42-2.401c2.593 0 4.569.78 6.05 2.34 1.42 1.562 2.161 3.663 2.161 6.425 0 2.701-.803 4.803-2.346 6.424-1.605 1.56-3.704 2.401-6.297 2.401zm.185-15.37c-1.79 0-3.21.601-4.197 1.742-1.05 1.2-1.544 2.822-1.544 4.863 0 1.981.494 3.542 1.544 4.743 1.049 1.14 2.469 1.74 4.197 1.74 1.791 0 3.149-.54 4.137-1.68.987-1.14 1.419-2.762 1.419-4.803 0-2.101-.493-3.722-1.419-4.863-.988-1.14-2.346-1.741-4.137-1.741zm21.854.902c-.494-.36-1.173-.54-2.099-.54-1.173 0-2.161.54-2.963 1.62-.803 1.08-1.173 2.582-1.173 4.443v8.585h-2.778v-16.81h2.778v3.482h.062c.37-1.2.987-2.101 1.79-2.762.802-.66 1.728-1.02 2.716-1.02.741 0 1.297.06 1.667.24v2.761zm3.951 14.407c-.494 0-.988-.18-1.297-.54a1.74 1.74 0 01-.555-1.32c0-.541.185-.961.555-1.322.371-.36.803-.54 1.297-.54.555 0 .987.18 1.358.54.37.36.555.78.555 1.321 0 .48-.185.96-.555 1.321-.371.36-.803.54-1.358.54zm7.47-1.981l-.062 1.621h-1.852v-16.57h1.852v7.325h.062c.926-1.501 2.222-2.222 3.951-2.222 1.481 0 2.654.48 3.457 1.501.864 1.02 1.234 2.341 1.234 4.023 0 1.86-.494 3.362-1.42 4.502-.926 1.141-2.222 1.681-3.827 1.681-1.42.06-2.593-.6-3.395-1.86zm0-4.503v1.561c0 .9.308 1.741.926 2.342.617.6 1.42.96 2.346.96 1.111 0 1.975-.42 2.654-1.26.617-.84.926-1.982.926-3.482 0-1.261-.309-2.222-.864-2.942-.618-.72-1.42-1.08-2.408-1.08-1.049 0-1.914.36-2.593 1.08-.679.84-.987 1.74-.987 2.821zm20.865-5.043l-5.309 12.968c-.926 2.342-2.284 3.482-3.951 3.482a5.85 5.85 0 01-1.173-.12v-1.62c.371.12.741.18 1.112.18.926 0 1.605-.54 2.099-1.622l.926-2.1-4.507-11.168h2.037l3.087 8.646c.062.12.123.42.247.84h.062c.061-.18.123-.48.246-.84l3.272-8.646h1.852z" fill="#9DC55B"/></g><defs><clipPath id="clip0_0_548"><path fill="#fff" d="M0 0h171v39H0z"/></clipPath></defs></svg>