<svg width="243" height="34" viewBox="0 0 243 34" fill="none" xmlns="http://www.w3.org/2000/svg">
<path fill-rule="evenodd" clip-rule="evenodd" d="M18 1.5C14.3152 1.5 11.0364 3.25291 8.93903 5.97692L4.4467 2.14924H0.998657L5.85771 11.1613L4.42759 14.756L6.49363 15.4309L5.27924 18.4913C5.27924 18.4913 6.0501 19.2214 6.8781 19.9856C7.5203 20.5781 8.19693 21.1907 8.57492 21.499L9.51327 26.9621C9.76255 27.1228 16.0258 31.1824 18 32.5C19.9742 31.1824 26.2375 27.1228 26.4867 26.9621L27.4251 21.499C28.2904 20.793 30.7208 18.4913 30.7208 18.4913L29.5064 15.4309L31.5724 14.756L30.1423 11.1613L35.0013 2.14924H31.5533L27.061 5.97692C24.9636 3.25291 21.6848 1.5 18 1.5ZM18 17.6221L8.93797 14.1163L9.34217 16.9151L18 21.8319L26.6578 16.9151L27.062 14.1163L18 17.6221Z" fill="white"/>
<path d="M59.324 9.03181H60.556V12.1678H59.52C58.8853 12.1678 58.3813 12.2985 58.008 12.5598C58.4187 13.0825 58.624 13.7918 58.624 14.6878C58.624 16.0318 58.0733 17.1705 56.972 18.1038C55.8893 19.0371 54.2933 19.8771 52.184 20.6238C53.3413 20.5305 54.368 20.5585 55.264 20.7078C56.16 20.8571 56.916 21.2118 57.532 21.7718C58.148 22.3318 58.456 23.0878 58.456 24.0398C58.456 24.6931 58.3347 25.2625 58.092 25.7478C57.868 26.2331 57.4667 26.6345 56.888 26.9518C56.328 27.2878 55.6933 27.5585 54.984 27.7638C54.2747 27.9691 53.332 28.1185 52.156 28.2118C50.98 28.3238 49.776 28.3985 48.544 28.4358C47.312 28.4731 45.7813 28.4918 43.952 28.4918V25.3558C45.5573 25.3558 46.836 25.3465 47.788 25.3278C48.7587 25.3278 49.7013 25.2998 50.616 25.2438C51.5307 25.1878 52.2213 25.1225 52.688 25.0478C53.1547 24.9731 53.5653 24.8518 53.92 24.6838C54.2933 24.5345 54.536 24.3571 54.648 24.1518C54.7787 23.9465 54.844 23.6945 54.844 23.3958C54.844 23.0038 54.7133 22.6865 54.452 22.4438C54.1907 22.2011 53.78 22.0518 53.22 21.9958C52.6787 21.9398 52.1467 21.9118 51.624 21.9118C51.1013 21.9118 50.4013 21.9865 49.524 22.1358C48.6653 22.2665 47.9747 22.3878 47.452 22.4998C46.948 22.5931 46.248 22.7331 45.352 22.9198L44.876 20.7638C48.3293 20.2225 50.952 19.7091 52.744 19.2238V18.2998C51.512 18.6918 50.3173 18.9158 49.16 18.9718C48.0027 19.0091 46.9573 18.8878 46.024 18.6078C45.1093 18.3091 44.372 17.7958 43.812 17.0678C43.2707 16.3211 43 15.4065 43 14.3238C43 12.5131 43.7093 11.1318 45.128 10.1798C46.5653 9.22781 48.404 8.75181 50.644 8.75181C52.8093 8.75181 54.564 9.23715 55.908 10.2078C56.7293 9.42381 57.868 9.03181 59.324 9.03181ZM50.84 17.1238C53.6213 17.1238 55.012 16.2558 55.012 14.5198C55.012 12.7651 53.6213 11.8878 50.84 11.8878C48.0213 11.8878 46.612 12.7651 46.612 14.5198C46.612 16.2558 48.0213 17.1238 50.84 17.1238Z" fill="white"/>
<path d="M61.7305 19.2238C61.7305 18.0105 62.1318 17.0491 62.9345 16.3398C63.7558 15.6305 65.0998 15.1638 66.9665 14.9398L71.8385 14.3518C71.7825 12.5971 70.6998 11.7198 68.5905 11.7198C67.6011 11.7198 66.8078 11.9438 66.2105 12.3918C65.6318 12.8211 65.3425 13.4745 65.3425 14.3518H61.9265C61.9265 12.6905 62.5425 11.3465 63.7745 10.3198C65.0065 9.27448 66.6118 8.75181 68.5905 8.75181C70.6251 8.75181 72.2771 9.31181 73.5465 10.4318C74.8158 11.5331 75.4505 13.1198 75.4505 15.1918V19.9518H77.4945V23.0878H74.6385C74.0225 23.0878 73.5465 22.9198 73.2105 22.5838C72.8931 22.2478 72.7345 21.7811 72.7345 21.1838V20.7078L73.2945 19.1118H72.3425C71.6705 21.9491 69.7851 23.3678 66.6865 23.3678C65.6785 23.3678 64.8198 23.2278 64.1105 22.9478C63.4198 22.6678 62.9158 22.2945 62.5985 21.8278C62.2811 21.3611 62.0571 20.9225 61.9265 20.5118C61.7958 20.0825 61.7305 19.6531 61.7305 19.2238ZM65.3425 18.6078C65.3425 19.1491 65.5198 19.5598 65.8745 19.8398C66.2478 20.1011 66.7331 20.2318 67.3305 20.2318C68.6931 20.2318 69.7851 19.8958 70.6065 19.2238C71.4278 18.5331 71.8385 17.6371 71.8385 16.5358L67.6105 17.0678C66.8078 17.1611 66.2291 17.3198 65.8745 17.5438C65.5198 17.7491 65.3425 18.1038 65.3425 18.6078Z" fill="white"/>
<path d="M97.7724 8.75181C99.3404 8.75181 100.488 9.33981 101.216 10.5158C101.944 11.6918 102.308 13.2411 102.308 15.1638V23.0878H98.6964V15.5558C98.6964 14.1745 98.5284 13.2225 98.1924 12.6998C97.8564 12.1585 97.2217 11.8878 96.2884 11.8878C93.9177 11.8878 92.7324 13.8105 92.7324 17.6558V23.0878H89.1204V15.5558C89.1204 14.1745 88.9524 13.2225 88.6164 12.6998C88.2804 12.1585 87.6457 11.8878 86.7124 11.8878C84.3417 11.8878 83.1564 13.8105 83.1564 17.6558V23.0878H79.5444V9.03181H83.1564V10.8518L82.5124 12.9798H83.4364C84.071 10.1611 85.6577 8.75181 88.1964 8.75181C90.5297 8.75181 91.9204 10.1611 92.3684 12.9798H93.0404C93.675 10.1611 95.2524 8.75181 97.7724 8.75181Z" fill="white"/>
<path d="M104.551 15.8918C104.551 13.6891 105.213 11.9531 106.539 10.6838C107.864 9.39581 109.591 8.75181 111.719 8.75181C113.847 8.75181 115.555 9.36781 116.843 10.5998C118.149 11.8318 118.803 13.5025 118.803 15.6118V16.7878H107.967C108.004 17.8891 108.359 18.7758 109.031 19.4478C109.721 20.1011 110.757 20.4278 112.139 20.4278C114.136 20.4278 115.321 19.6718 115.695 18.1598H119.307C119.064 19.4478 118.336 20.6425 117.123 21.7438C115.909 22.8265 114.248 23.3678 112.139 23.3678C109.656 23.3678 107.771 22.6585 106.483 21.2398C105.195 19.8211 104.551 18.0385 104.551 15.8918ZM107.967 14.6038H115.387C115.387 13.7638 115.079 13.0731 114.463 12.5318C113.865 11.9905 112.951 11.7198 111.719 11.7198C110.487 11.7198 109.553 11.9998 108.919 12.5598C108.284 13.1011 107.967 13.7825 107.967 14.6038Z" fill="white"/>
<path d="M121.626 23.0878V2.50781H125.238V10.3758L124.594 12.5318H125.518C126.358 10.0118 128.225 8.75181 131.118 8.75181C133.078 8.75181 134.618 9.44248 135.738 10.8238C136.877 12.2051 137.446 13.9505 137.446 16.0598C137.446 18.1691 136.877 19.9145 135.738 21.2958C134.618 22.6771 133.078 23.3678 131.118 23.3678C128.225 23.3678 126.358 22.1171 125.518 19.6158H124.594L125.238 21.7438V23.0878H121.626ZM126.386 12.9238C125.621 13.6145 125.238 14.6598 125.238 16.0598C125.238 17.4598 125.621 18.5051 126.386 19.1958C127.17 19.8865 128.234 20.2318 129.578 20.2318C132.416 20.2318 133.834 18.8411 133.834 16.0598C133.834 13.2785 132.416 11.8878 129.578 11.8878C128.234 11.8878 127.17 12.2331 126.386 12.9238Z" fill="white"/>
<path d="M145.924 6.76381C145.495 7.13715 144.916 7.32381 144.188 7.32381C143.46 7.32381 142.881 7.13715 142.452 6.76381C142.023 6.37181 141.808 5.84915 141.808 5.19581C141.808 4.54248 142.023 4.02915 142.452 3.65581C142.881 3.26381 143.46 3.06781 144.188 3.06781C144.897 3.06781 145.476 3.26381 145.924 3.65581C146.372 4.04781 146.596 4.56115 146.596 5.19581C146.596 5.84915 146.372 6.37181 145.924 6.76381ZM138.84 23.0878V19.9518H142.816V11.9718L139.596 12.1678V9.03181L144.076 8.75181C144.785 8.71448 145.327 8.88248 145.7 9.25581C146.073 9.62915 146.26 10.1611 146.26 10.8518V19.9518H150.236V23.0878H138.84Z" fill="white"/>
<path d="M156.426 20.2318L161.494 19.9518V23.0878L154.998 23.3678C154.289 23.3865 153.748 23.2091 153.374 22.8358C153.001 22.4625 152.814 21.9118 152.814 21.1838V12.1678H149.566V9.03181H152.814V6.00781L156.426 4.88781V9.03181H160.934V12.1678H156.426V20.2318Z" fill="white"/>
<path d="M172.732 23.0878V10.9638C172.732 10.2545 172.919 9.71315 173.292 9.33981C173.684 8.96648 174.235 8.78914 174.944 8.80781L183.596 9.03181V12.1678L176.344 11.9718V23.0878H172.732Z" fill="white"/>
<path d="M186.906 21.4078C185.469 20.1011 184.75 18.3185 184.75 16.0598C184.75 13.8011 185.469 12.0185 186.906 10.7118C188.343 9.40514 190.201 8.75181 192.478 8.75181C194.737 8.75181 196.585 9.40514 198.022 10.7118C199.459 12.0185 200.178 13.8011 200.178 16.0598C200.178 18.3185 199.459 20.1011 198.022 21.4078C196.585 22.7145 194.737 23.3678 192.478 23.3678C190.201 23.3678 188.343 22.7145 186.906 21.4078ZM189.454 13.0078C188.726 13.7545 188.362 14.7718 188.362 16.0598C188.362 17.3478 188.726 18.3651 189.454 19.1118C190.182 19.8585 191.19 20.2318 192.478 20.2318C193.766 20.2318 194.774 19.8585 195.502 19.1118C196.23 18.3651 196.594 17.3478 196.594 16.0598C196.594 14.7718 196.23 13.7545 195.502 13.0078C194.774 12.2611 193.766 11.8878 192.478 11.8878C191.19 11.8878 190.182 12.2611 189.454 13.0078Z" fill="white"/>
<path d="M204.215 21.4078C202.777 20.1011 202.059 18.3185 202.059 16.0598C202.059 13.8011 202.777 12.0185 204.215 10.7118C205.652 9.40514 207.509 8.75181 209.787 8.75181C212.045 8.75181 213.893 9.40514 215.331 10.7118C216.768 12.0185 217.487 13.8011 217.487 16.0598C217.487 18.3185 216.768 20.1011 215.331 21.4078C213.893 22.7145 212.045 23.3678 209.787 23.3678C207.509 23.3678 205.652 22.7145 204.215 21.4078ZM206.763 13.0078C206.035 13.7545 205.671 14.7718 205.671 16.0598C205.671 17.3478 206.035 18.3651 206.763 19.1118C207.491 19.8585 208.499 20.2318 209.787 20.2318C211.075 20.2318 212.083 19.8585 212.811 19.1118C213.539 18.3651 213.903 17.3478 213.903 16.0598C213.903 14.7718 213.539 13.7545 212.811 13.0078C212.083 12.2611 211.075 11.8878 209.787 11.8878C208.499 11.8878 207.491 12.2611 206.763 13.0078Z" fill="white"/>
<path d="M238.155 8.75181C239.723 8.75181 240.871 9.33981 241.599 10.5158C242.327 11.6918 242.691 13.2411 242.691 15.1638V23.0878H239.079V15.5558C239.079 14.1745 238.911 13.2225 238.575 12.6998C238.239 12.1585 237.605 11.8878 236.671 11.8878C234.301 11.8878 233.115 13.8105 233.115 17.6558V23.0878H229.503V15.5558C229.503 14.1745 229.335 13.2225 228.999 12.6998C228.663 12.1585 228.029 11.8878 227.095 11.8878C224.725 11.8878 223.539 13.8105 223.539 17.6558V23.0878H219.927V9.03181H223.539V10.8518L222.895 12.9798H223.819C224.454 10.1611 226.041 8.75181 228.579 8.75181C230.913 8.75181 232.303 10.1611 232.751 12.9798H233.423C234.058 10.1611 235.635 8.75181 238.155 8.75181Z" fill="white"/>
</svg>
