<svg width="702" height="645" viewBox="0 0 702 645" fill="none" xmlns="http://www.w3.org/2000/svg">
<path d="M341.164 637.606C301.559 611.383 182.968 535.252 181.774 534.486L175.092 530.189L156.488 422.771C138.852 408.045 105.063 376.395 98.1539 369.898L89.0846 361.38L111.632 304.963L70.921 291.77L101.068 216.406L0 29.9558H87.2381L147.457 78.3683C159.528 64.3207 174.162 54.7337 191.911 49.1926L203.681 45.5363L206.344 48.9539C247.294 17.4286 298.494 0.114258 351 0.114258C403.506 0.114258 454.706 17.4286 495.656 48.9539L498.319 45.5363L510.076 49.1926C527.838 54.7337 542.459 64.3207 554.531 78.3683L614.762 29.9558H702L600.932 216.406L631.066 291.758L590.368 304.976L612.915 361.38L604.06 369.697C599.852 373.655 564.014 407.329 545.499 422.771L526.908 530.201L519.585 534.875C483.12 558.309 394.65 615.215 360.823 637.606L351 644.114L341.164 637.606Z" fill="#10E1FD"/>
<path d="M346.429 629.673C307.527 603.915 191.837 529.619 186.926 526.478L183.76 524.442L165.27 417.666C147.672 403.418 106.257 364.454 104.448 362.758L100.328 358.875L124.258 299.054L83.5464 285.861L111.093 216.942L112.412 217.369L15.9792 39.4509H83.9232L149.028 91.7836C160.936 75.11 175.947 64.1283 194.764 58.2605L200.253 56.5517L204.8 62.3818C206.069 61.3264 207.489 60.1578 209.084 58.8887C248.865 27.1122 299.274 9.60931 351.026 9.60931C402.766 9.60931 453.187 27.1122 492.969 58.8887C494.564 60.1578 495.984 61.3264 497.24 62.3818L501.787 56.5517L507.276 58.2605C526.093 64.1283 541.104 75.11 553.012 91.7836L618.13 39.4509H686.061L589.628 217.369L590.947 216.942L618.506 285.848L577.795 299.054L601.712 358.875L597.579 362.758C595.783 364.454 554.381 403.418 536.77 417.666L518.28 524.442L515.202 526.415C502.779 534.394 393.785 604.393 355.611 629.673L351.026 632.714L346.429 629.673Z" fill="#101012"/>
<path d="M350.98 360.089L99.239 278.481L117.955 231.664L200.872 258.54L349.874 306.852L350.98 307.204L501.087 258.553L584.004 231.664L602.721 278.481L350.98 360.089ZM587.634 355.767C578.904 363.959 540.354 399.958 526.913 410.299L525.808 411.14L507.431 517.263C497.193 523.847 429.89 567.083 382.747 597.716L372.233 445.015L415.934 394.253L525.77 345.715L527.34 345.024L537.339 307.166L564.672 298.308L587.634 355.767ZM176.152 411.14L175.046 410.299C161.618 399.958 123.055 363.959 114.325 355.78L137.3 298.308L164.621 307.166L174.619 345.024L286.025 394.253L329.726 445.015L319.212 597.716C272.07 567.083 204.766 523.847 194.529 517.263L176.152 411.14ZM79.7062 51.3328L158.064 114.333C150.992 125.227 126.673 166.276 125.668 216.975L35.8799 51.3328H79.7062ZM216.448 68.1823C294.391 5.91077 407.556 5.91077 485.524 68.1823C489.079 71.0219 491.742 73.3213 493.488 74.8668L424.225 163.663C385.8 127.036 353.605 103.603 353.065 103.213L350.98 101.718L348.895 103.213C348.354 103.603 316.16 127.036 277.735 163.663L208.472 74.8668C210.218 73.3213 212.881 71.0219 216.448 68.1823ZM622.253 51.3328H666.08L576.292 216.975C575.287 166.276 550.968 125.227 543.896 114.333L622.253 51.3328ZM468.591 209.776L538.846 119.736C547.137 133.067 571.92 177.647 568.943 229.063L501.376 250.964C491.139 236.589 479.997 222.793 468.591 209.776ZM133.016 229.063C130.039 177.647 154.81 133.08 163.113 119.736L233.368 209.776C221.963 222.793 210.821 236.589 200.583 250.964L133.016 229.063ZM388.387 287.59L350.98 180.437L313.572 287.59L207.706 253.275C260.978 179.356 337.426 120.653 350.98 110.538C364.533 120.653 440.981 179.356 494.254 253.275L388.387 287.59Z" fill="#173744"/>
<path d="M350.998 618.479C344.315 614.069 335.736 608.452 326.064 602.17L337.055 442.596L301.218 400.968L350.998 422.957L400.778 400.968L364.941 442.596L375.932 602.17C366.26 608.452 357.681 614.069 350.998 618.479Z" fill="#0C1C22"/>
<path d="M176.071 345.791L174.564 345.162L164.515 307.216L150.195 302.567L164.917 360.177L267.304 409.18L298.079 452.529L296.81 572.335L257.833 548.437L262.342 485.713L260.345 484.092C243.915 471.502 205.402 442.289 177.566 419.86L179.99 433.732C205.678 454.024 236.843 477.634 252.557 490.086L248.701 542.845L192.903 508.631L194.411 517.427C200.465 521.272 226.291 537.832 256.099 557.044C256.451 557.27 256.803 557.496 257.167 557.735C277.73 570.991 300.076 585.428 319.144 597.842L329.696 445.179L285.983 394.417L176.071 345.791ZM527.247 345.175L525.74 345.803L415.829 394.429L372.115 445.191L382.667 597.854C401.735 585.44 424.081 570.991 444.657 557.735C447.747 555.737 450.787 553.802 453.776 551.854C480.055 534.93 501.886 520.932 507.4 517.439L508.908 508.644L453.123 542.845L449.267 490.098C464.981 477.646 496.146 454.037 521.833 433.757L524.258 419.886C496.422 442.301 457.909 471.527 441.479 484.117L439.482 485.726L443.991 548.437L404.988 572.348L403.732 452.542L434.507 409.205L536.882 360.19L551.616 302.58L537.296 307.229L527.247 345.175ZM157.971 114.459L79.6007 51.4583H35.812L75.5685 62.2892L144.568 139.061C150.032 127.237 155.257 118.63 157.971 114.459ZM622.198 51.4457L543.841 114.446C546.541 118.618 551.767 127.225 557.231 139.048L626.243 62.2767L665.987 51.4457H622.198ZM350.924 35.6768C410.289 41.1425 452.407 62.3771 482.328 89.2157L493.395 75.0049C491.686 73.4468 488.986 71.16 485.468 68.3078C407.488 6.03625 294.311 6.03625 216.368 68.3078C212.813 71.16 210.15 73.4468 208.392 75.0049L219.508 89.2157C249.429 62.3771 291.547 41.1425 350.924 35.6768ZM568.863 229.176C571.852 177.773 547.069 133.205 538.753 119.862L523.177 139.814C547.019 180.763 553.199 220.908 554.669 233.775L568.863 229.176ZM132.923 229.176L147.168 233.775C148.65 220.908 154.818 180.763 178.609 139.852L163.033 119.862C154.717 133.205 129.984 177.773 132.923 229.176ZM350.912 127.614C409.988 183.339 457.582 242.067 472.153 260.55L494.198 253.426C440.926 179.52 364.528 120.816 350.924 110.677V110.639C337.333 120.766 260.923 179.482 207.625 253.401L229.67 260.525C244.241 242.042 291.836 183.339 350.912 127.614ZM583.899 231.84L590.179 247.546L350.887 339.772L111.594 247.546L117.875 231.84L200.779 258.728L349.756 306.978L350.887 307.355L500.994 258.728L583.899 231.84Z" fill="#2B6386"/>
<path d="M434.28 482.573L439.883 560.726C442.973 558.779 446.013 556.781 449.002 554.883L444.066 486.995C461.212 473.4 496.635 446.612 523.378 425.277L525.802 411.267C497.778 434.16 454.09 467.319 436.278 481.002L434.28 482.573ZM176.259 411.242L178.683 425.264C205.426 446.587 240.849 473.388 257.995 486.97L253.059 554.858C256.048 556.756 259.088 558.753 262.178 560.701L267.78 482.547L265.783 480.989C247.971 467.306 204.283 434.148 176.259 411.242ZM172.717 309.743L180.681 339.848L351.024 415.124L521.368 339.848L529.332 309.743L351.024 367.541L172.717 309.743ZM272.617 168.576L195.968 70.3317C180.103 75.7974 167.416 85.7362 157.317 100.626L238.211 204.311C249.692 191.495 261.362 179.495 272.617 168.576ZM544.732 100.626C534.632 85.7362 521.946 75.7974 506.081 70.3317L429.432 168.576C440.687 179.495 452.356 191.495 463.837 204.311L544.732 100.626ZM351.024 299.666L320.4 289.739L351.024 202.012L381.649 289.739L351.024 299.666Z" fill="#10E1FD"/>
<path d="M350.981 202.028L320.331 289.731L324.099 290.988L350.981 227.158L377.862 290.988L381.63 289.731L350.981 202.028ZM183.287 75.9774L265.313 175.742C267.699 173.23 270.212 170.968 272.598 168.581L195.849 70.3232C191.452 71.831 187.181 73.7157 183.287 75.9774ZM506.113 70.3483L429.363 168.606C431.75 170.993 434.262 173.255 436.649 175.768L518.674 76.0025C514.78 73.7408 510.509 71.8561 506.113 70.3483ZM529.351 309.709L526.713 319.384L350.981 382.962L175.248 319.384L172.736 309.709L350.981 367.508L529.351 309.709Z" fill="#C5FEFE"/>
</svg>
