<svg width="135" height="40" viewBox="0 0 135 40" fill="none" xmlns="http://www.w3.org/2000/svg">
<g clip-path="url(#clip0_204_4469)">
<path d="M124.249 -0.000114141H10.7566C10.3429 -0.000114141 9.9342 -0.000114141 9.5216 0.00188586C9.17621 0.00388586 8.83358 0.00969586 8.48488 0.0145859C7.72733 0.0224877 6.97157 0.0815621 6.22416 0.191296C5.4778 0.303418 4.75482 0.514802 4.07967 0.818296C3.40534 1.12436 2.7892 1.52205 2.25357 1.99696C1.71514 2.47052 1.26632 3.0179 0.924356 3.61805C0.581453 4.21699 0.343683 4.85882 0.219258 5.52137C0.0936495 6.18307 0.0260586 6.85241 0.0170916 7.52337C0.00662229 7.82997 0.00551669 8.13759 0 8.44423V31.5585C0.00551669 31.869 0.00662229 32.1698 0.0170916 32.4804C0.0260614 33.1513 0.0936522 33.8206 0.219258 34.4823C0.343339 35.1452 0.581124 35.7874 0.924356 36.3866C1.26616 36.9848 1.71505 37.53 2.25357 38.0009C2.78717 38.4779 3.40371 38.8759 4.07967 39.1796C4.75481 39.4839 5.47772 39.6965 6.22416 39.8104C6.9717 39.9192 7.72738 39.9783 8.48488 39.9872C8.83358 39.994 9.17621 39.9979 9.5216 39.9979C9.93419 39.9999 10.343 39.9999 10.7566 39.9999H124.249C124.655 39.9999 125.067 39.9999 125.472 39.9979C125.816 39.9979 126.169 39.994 126.512 39.9872C127.268 39.9788 128.023 39.9197 128.769 39.8104C129.518 39.6957 130.243 39.4831 130.921 39.1796C131.597 38.8757 132.213 38.4777 132.746 38.0009C133.283 37.5281 133.733 36.9833 134.079 36.3866C134.42 35.787 134.655 35.1448 134.777 34.4823C134.903 33.8205 134.973 33.1514 134.987 32.4804C134.991 32.1698 134.991 31.869 134.991 31.5585C135 31.1952 135 30.8339 135 30.4647V9.53602C135 9.16981 135 8.80653 134.991 8.44423C134.991 8.13759 134.991 7.82997 134.987 7.52333C134.973 6.85231 134.903 6.18312 134.777 5.52133C134.655 4.85917 134.419 4.21739 134.079 3.61801C133.383 2.41508 132.278 1.43591 130.921 0.818206C130.243 0.515453 129.518 0.304126 128.769 0.191206C128.023 0.0809886 127.269 0.0218936 126.512 0.0144459C126.169 0.00956586 125.816 0.00370586 125.472 0.00175586C125.067 -0.000244141 124.655 -0.000244141 124.249 -0.000244141V-0.000114141Z" fill="#A6A6A6"/>
<path d="M9.43001 39.1279C9.08569 39.1279 8.74969 39.124 8.40807 39.1172C7.70037 39.109 6.99433 39.0545 6.29574 38.954C5.64433 38.8547 5.0133 38.67 4.42345 38.406C3.839 38.1442 3.30594 37.8009 2.84469 37.3892C2.37676 36.9824 1.98718 36.5106 1.6914 35.9924C1.39236 35.4709 1.18541 34.9119 1.07775 34.3349C0.961494 33.7149 0.898592 33.0879 0.889592 32.4595C0.882427 32.2485 0.873047 31.5462 0.873047 31.5462V8.4408C0.873047 8.4408 0.883037 7.74924 0.889648 7.54607C0.898266 6.91862 0.960802 6.29266 1.07671 5.67361C1.18457 5.09501 1.39168 4.53439 1.69088 4.01116C1.98557 3.49337 2.37299 3.02118 2.8381 2.61292C3.30269 2.20077 3.83745 1.85568 4.42289 1.59023C5.01139 1.32706 5.64123 1.14366 6.29132 1.04618C6.99221 0.944725 7.7007 0.889873 8.41085 0.882086L9.43056 0.869873H125.57L126.602 0.882576C127.306 0.889976 128.008 0.944339 128.702 1.0452C129.359 1.14391 129.995 1.32858 130.59 1.59316C131.763 2.12812 132.718 2.97448 133.32 4.0136C133.614 4.53322 133.818 5.08926 133.924 5.66287C134.042 6.287 134.107 6.91788 134.121 7.55047C134.124 7.83373 134.124 8.13799 134.124 8.4408C134.133 8.81587 134.133 9.17288 134.133 9.53281V30.4659C134.133 30.8292 134.133 31.1838 134.124 31.5413C134.124 31.8666 134.124 32.1645 134.12 32.4712C134.107 33.0925 134.042 33.7121 133.927 34.3251C133.821 34.9063 133.615 35.4696 133.316 35.9954C133.018 36.5079 132.631 36.9757 132.169 37.3814C131.707 37.7953 131.173 38.1406 130.587 38.4041C129.994 38.6702 129.358 38.8556 128.702 38.954C128.004 39.055 127.297 39.1096 126.59 39.1172C126.259 39.124 125.912 39.1279 125.576 39.1279L124.35 39.1299L9.43001 39.1279Z" fill="#18191F"/>
<path d="M32.7973 20.3006C32.8081 19.4659 33.0298 18.6475 33.4418 17.9216C33.8538 17.1956 34.4428 16.5857 35.1539 16.1485C34.7021 15.5034 34.1062 14.9724 33.4134 14.5979C32.7205 14.2233 31.9499 14.0155 31.1627 13.9908C29.4835 13.8146 27.8555 14.9957 26.9998 14.9957C26.1275 14.9957 24.81 14.0083 23.3913 14.0375C22.4736 14.0672 21.5793 14.334 20.7954 14.8121C20.0115 15.2901 19.3649 15.9631 18.9184 16.7654C16.9844 20.1138 18.427 25.0349 20.2796 27.7415C21.2065 29.0668 22.2898 30.5473 23.7072 30.4948C25.0943 30.4372 25.6123 29.6103 27.2866 29.6103C28.9454 29.6103 29.4314 30.4948 30.8776 30.4614C32.366 30.4372 33.3038 29.1302 34.1981 27.7923C34.8641 26.8479 35.3766 25.8042 35.7166 24.6997C34.8518 24.334 34.1139 23.7218 33.5948 22.9395C33.0757 22.1572 32.7983 21.2394 32.7973 20.3006Z" fill="white"/>
<path d="M30.0659 12.2108C30.8774 11.2366 31.2772 9.98445 31.1804 8.72021C29.9406 8.85044 28.7953 9.44299 27.9728 10.3798C27.5707 10.8375 27.2627 11.3699 27.0664 11.9467C26.8702 12.5235 26.7896 13.1333 26.8291 13.7412C27.4493 13.7476 28.0628 13.6132 28.6234 13.3481C29.1841 13.083 29.6773 12.6942 30.0659 12.2108Z" fill="white"/>
<path d="M50.3306 27.1397H45.5972L44.4604 30.4961H42.4556L46.939 18.0781H49.022L53.5054 30.4961H51.4663L50.3306 27.1397ZM46.0874 25.5908H49.8394L47.9898 20.1436H47.938L46.0874 25.5908Z" fill="white"/>
<path d="M63.188 25.9697C63.188 28.7832 61.6822 30.5908 59.4097 30.5908C58.834 30.6209 58.2615 30.4883 57.7578 30.2082C57.254 29.928 56.8392 29.5117 56.5611 29.0068H56.5181V33.4912H54.6597V21.4423H56.4585V22.9482H56.4927C56.7837 22.4457 57.2054 22.0316 57.713 21.7497C58.2207 21.4679 58.7952 21.3289 59.3755 21.3476C61.6733 21.3476 63.188 23.164 63.188 25.9697ZM61.2779 25.9697C61.2779 24.1367 60.3306 22.9316 58.8853 22.9316C57.4654 22.9316 56.5103 24.1621 56.5103 25.9697C56.5103 27.7939 57.4654 29.0156 58.8853 29.0156C60.3306 29.0156 61.2779 27.8193 61.2779 25.9697Z" fill="white"/>
<path d="M73.1529 25.9697C73.1529 28.7832 71.647 30.5908 69.3745 30.5908C68.7989 30.6209 68.2264 30.4883 67.7226 30.2081C67.2188 29.928 66.8041 29.5117 66.5259 29.0068H66.4829V33.4912H64.6245V21.4423H66.4233V22.9482H66.4575C66.7485 22.4457 67.1702 22.0315 67.6778 21.7497C68.1855 21.4679 68.76 21.3289 69.3403 21.3476C71.6382 21.3476 73.1529 23.164 73.1529 25.9697ZM71.2427 25.9697C71.2427 24.1367 70.2954 22.9316 68.8501 22.9316C67.4302 22.9316 66.4751 24.1621 66.4751 25.9697C66.4751 27.7939 67.4302 29.0156 68.8501 29.0156C70.2954 29.0156 71.2427 27.8193 71.2427 25.9697H71.2427Z" fill="white"/>
<path d="M79.7388 27.0362C79.8765 28.2676 81.0728 29.0762 82.7076 29.0762C84.274 29.0762 85.4009 28.2676 85.4009 27.1572C85.4009 26.1934 84.7212 25.6162 83.1118 25.2207L81.5025 24.833C79.2222 24.2822 78.1636 23.2158 78.1636 21.4854C78.1636 19.3428 80.0308 17.8711 82.6822 17.8711C85.3062 17.8711 87.105 19.3428 87.1656 21.4854H85.2896C85.1773 20.2461 84.1528 19.4981 82.6558 19.4981C81.1587 19.4981 80.1343 20.2549 80.1343 21.3565C80.1343 22.2344 80.7886 22.751 82.3892 23.1465L83.7573 23.4824C86.3052 24.0849 87.3638 25.1084 87.3638 26.9248C87.3638 29.248 85.5132 30.7031 82.5698 30.7031C79.8159 30.7031 77.9565 29.2822 77.8364 27.0361L79.7388 27.0362Z" fill="white"/>
<path d="M91.3745 19.2998V21.4424H93.0962V22.9141H91.3745V27.9053C91.3745 28.6807 91.7192 29.042 92.4761 29.042C92.6805 29.0384 92.8845 29.0241 93.0874 28.999V30.4619C92.7471 30.5255 92.4013 30.5543 92.0552 30.5478C90.2222 30.5478 89.5073 29.8593 89.5073 28.1035V22.9141H88.1909V21.4424H89.5073V19.2998H91.3745Z" fill="white"/>
<path d="M94.0933 25.9697C94.0933 23.1211 95.771 21.3311 98.3872 21.3311C101.012 21.3311 102.682 23.1211 102.682 25.9697C102.682 28.8262 101.021 30.6084 98.3872 30.6084C95.7543 30.6084 94.0933 28.8262 94.0933 25.9697ZM100.789 25.9697C100.789 24.0156 99.8931 22.8623 98.3872 22.8623C96.8813 22.8623 95.9868 24.0244 95.9868 25.9697C95.9868 27.9316 96.8813 29.0762 98.3872 29.0762C99.8931 29.0762 100.789 27.9316 100.789 25.9697H100.789Z" fill="white"/>
<path d="M104.214 21.4425H105.987V22.9835H106.03C106.15 22.5022 106.432 22.0769 106.828 21.779C107.225 21.4811 107.712 21.3288 108.208 21.3478C108.422 21.347 108.635 21.3703 108.844 21.4171V23.1554C108.574 23.0728 108.292 23.0348 108.009 23.0431C107.739 23.0321 107.47 23.0797 107.22 23.1826C106.97 23.2855 106.746 23.4412 106.562 23.6391C106.378 23.837 106.239 24.0724 106.154 24.3291C106.07 24.5857 106.042 24.8576 106.073 25.1261V30.4962H104.214L104.214 21.4425Z" fill="white"/>
<path d="M117.413 27.8369C117.163 29.4805 115.562 30.6084 113.514 30.6084C110.88 30.6084 109.246 28.8437 109.246 26.0127C109.246 23.1729 110.889 21.3311 113.436 21.3311C115.941 21.3311 117.516 23.0518 117.516 25.7969V26.4336H111.122V26.5459C111.092 26.8791 111.134 27.2148 111.244 27.5306C111.354 27.8464 111.53 28.1352 111.761 28.3778C111.991 28.6203 112.27 28.8111 112.58 28.9374C112.89 29.0637 113.223 29.1226 113.557 29.1103C113.996 29.1515 114.437 29.0498 114.814 28.8203C115.19 28.5909 115.483 28.246 115.648 27.8369L117.413 27.8369ZM111.13 25.1348H115.657C115.673 24.8352 115.628 24.5354 115.523 24.2541C115.419 23.9729 115.257 23.7164 115.048 23.5006C114.84 23.2849 114.589 23.1145 114.312 23.0003C114.034 22.8861 113.736 22.8305 113.436 22.8369C113.133 22.8351 112.833 22.8933 112.553 23.008C112.273 23.1227 112.019 23.2918 111.804 23.5054C111.59 23.7191 111.42 23.973 111.304 24.2527C111.189 24.5323 111.13 24.8321 111.13 25.1348V25.1348Z" fill="white"/>
</g>
<path d="M44.5273 11.4375H45.3438C46.1836 11.4375 46.668 11.8164 46.668 12.457V12.4648C46.668 13.0586 46.1562 13.4453 45.3711 13.4453C44.5742 13.4453 44.0625 13.125 43.9922 12.5625L43.9883 12.5312H43.293L43.2969 12.582C43.3672 13.4844 44.1641 14.0938 45.3789 14.0938C46.5234 14.0938 47.3867 13.3945 47.3867 12.4844V12.4766C47.3867 11.7148 46.9336 11.1758 46.1836 11.0781V11.0469C46.8008 10.8945 47.2227 10.3672 47.2227 9.74219V9.73438C47.2227 8.875 46.4727 8.26953 45.3906 8.26953C44.2578 8.26953 43.5156 8.82812 43.4492 9.75391L43.4453 9.80859H44.1406L44.1484 9.75C44.2188 9.22656 44.6562 8.91797 45.3633 8.91797C46.0859 8.91797 46.5039 9.25 46.5039 9.79688V9.80469C46.5039 10.3906 46.0312 10.8047 45.3125 10.8047H44.5273V11.4375ZM49.3477 14.0781C49.8906 14.0781 50.3789 13.7852 50.6172 13.3398H50.6328V14H51.3125V11.1914C51.3125 10.3789 50.7109 9.85938 49.75 9.85938C48.793 9.85938 48.2109 10.3984 48.1523 11.0664L48.1484 11.1094H48.8047L48.8125 11.0742C48.8906 10.7109 49.2188 10.4609 49.7422 10.4609C50.3086 10.4609 50.6328 10.7617 50.6328 11.2578V11.5977L49.4688 11.6641C48.5352 11.7188 47.9961 12.1523 47.9961 12.8438V12.8516C47.9961 13.5898 48.5391 14.0781 49.3477 14.0781ZM48.6914 12.8516V12.8438C48.6914 12.4648 49.0039 12.2227 49.5469 12.1914L50.6328 12.125V12.457C50.6328 13.0469 50.1406 13.4883 49.5 13.4883C49.0117 13.4883 48.6914 13.2422 48.6914 12.8516ZM54.8633 10.5V9.9375H52.25V14H52.9297V10.5H54.8633ZM55.6055 15.3672H56.2852V13.3203H56.3008C56.5547 13.7891 57.0273 14.0781 57.6016 14.0781C58.6211 14.0781 59.3164 13.2539 59.3164 11.9727V11.9688C59.3164 10.6875 58.6289 9.85938 57.5898 9.85938C57.0078 9.85938 56.5547 10.1523 56.3008 10.625H56.2852V9.9375H55.6055V15.3672ZM57.457 13.4766C56.7734 13.4766 56.2812 12.8789 56.2812 11.9727V11.9688C56.2812 11.0586 56.7695 10.4609 57.457 10.4609C58.1758 10.4609 58.6211 11.0352 58.6211 11.9688V11.9727C58.6211 12.8984 58.1758 13.4766 57.457 13.4766ZM60.3555 15.3672C61.0898 15.3672 61.4453 15.0312 61.7344 14.2539L63.3203 9.9375H62.6055L61.4805 13.3203H61.4648L60.3438 9.9375H59.6172L61.125 14.0039L61.043 14.2344C60.8789 14.6953 60.6406 14.8047 60.2109 14.8047C60.1289 14.8047 60.0508 14.793 59.9922 14.7812V15.3359C60.0781 15.3516 60.2227 15.3672 60.3555 15.3672ZM65.2852 14.0781C66.2344 14.0781 66.8711 13.5703 66.8711 12.8164V12.8086C66.8711 12.3398 66.582 12.0156 66.0586 11.9023V11.8711C66.4727 11.7773 66.7578 11.4141 66.7578 10.9805V10.9727C66.7578 10.2852 66.2148 9.85938 65.3281 9.85938C64.4844 9.85938 63.8945 10.2812 63.8008 10.9375L63.7969 10.9648H64.457L64.4609 10.9453C64.5234 10.6289 64.8633 10.4219 65.3281 10.4219C65.8086 10.4219 66.0938 10.6484 66.0938 11.0273V11.0352C66.0938 11.4375 65.8242 11.6406 65.2852 11.6406H64.6758V12.2031H65.2852C65.9062 12.2031 66.2031 12.4062 66.2031 12.8398V12.8477C66.2031 13.2578 65.8477 13.5156 65.2852 13.5156C64.8008 13.5156 64.4766 13.3242 64.3789 12.9844L64.3672 12.9453H63.6797L63.6836 12.9766C63.7656 13.6406 64.4023 14.0781 65.2852 14.0781ZM67.6484 14H68.3203L70.3438 10.9805H70.375V14H71.0547V9.9375H70.3828L68.3594 12.957H68.3281V9.9375H67.6484V14ZM74.9805 9.9375H71.6836V10.5H72.9922V14H73.6719V10.5H74.9805V9.9375ZM77.207 14.0781C78.0938 14.0781 78.7578 13.5469 78.8906 12.875L78.8984 12.8359H78.2305L78.2188 12.8711C78.1016 13.2188 77.7383 13.4766 77.2227 13.4766C76.5 13.4766 76.0391 12.9883 76.0234 12.1523H78.9492V11.9023C78.9492 10.6836 78.2734 9.85938 77.1641 9.85938C76.0547 9.85938 75.3359 10.7227 75.3359 11.9805V11.9844C75.3359 13.2617 76.0391 14.0781 77.207 14.0781ZM77.1602 10.4609C77.7539 10.4609 78.1914 10.832 78.2578 11.6211H76.0352C76.1094 10.8633 76.5703 10.4609 77.1602 10.4609ZM81.3516 14H83.1016C83.9648 14 84.4961 13.5508 84.4961 12.8359V12.8281C84.4961 12.332 84.1602 11.9727 83.6484 11.9023V11.8711C84.0234 11.793 84.3164 11.4102 84.3164 10.9922V10.9844C84.3164 10.3398 83.8516 9.9375 83.0898 9.9375H81.3516V14ZM82.0312 11.6367V10.5H82.9883C83.4141 10.5 83.6406 10.6914 83.6406 11.0547V11.0625C83.6406 11.4531 83.3984 11.6367 82.8867 11.6367H82.0312ZM82.0312 13.4375V12.1992H82.9219C83.5156 12.1992 83.8008 12.3945 83.8008 12.8125V12.8203C83.8008 13.2266 83.5352 13.4375 83.043 13.4375H82.0312Z" fill="white"/>
<defs>
<clipPath id="clip0_204_4469">
<rect width="135" height="40" fill="white"/>
</clipPath>
</defs>
</svg>
