<svg width="135" height="40" viewBox="0 0 135 40" fill="none" xmlns="http://www.w3.org/2000/svg">
<path d="M130 0H5C2.23858 0 0 2.23858 0 5V35C0 37.7614 2.23858 40 5 40H130C132.761 40 135 37.7614 135 35V5C135 2.23858 132.761 0 130 0Z" fill="#18191F"/>
<path d="M130 0.800044C131.114 0.801331 132.181 1.24427 132.968 2.03169C133.756 2.81911 134.199 3.8867 134.2 5.00024V35.0002C134.199 36.1138 133.756 37.1814 132.968 37.9688C132.181 38.7562 131.114 39.1991 130 39.2004H5C3.88645 39.1992 2.81888 38.7562 2.0315 37.9688C1.24412 37.1814 0.801231 36.1138 0.8 35.0002V5.00024C0.801212 3.88669 1.24409 2.81909 2.03148 2.03166C2.81886 1.24424 3.88644 0.801309 5 0.800044H130ZM130 0.000244141H5C3.67511 0.00412224 2.40559 0.532152 1.46875 1.46899C0.531908 2.40584 0.0038781 3.67535 0 5.00024L0 35.0002C0.0038781 36.3251 0.531908 37.5947 1.46875 38.5315C2.40559 39.4683 3.67511 39.9964 5 40.0002H130C131.325 39.9964 132.594 39.4683 133.531 38.5315C134.468 37.5947 134.996 36.3251 135 35.0002V5.00024C134.996 3.67535 134.468 2.40584 133.531 1.46899C132.594 0.532152 131.325 0.00412224 130 0.000244141Z" fill="#A6A6A6"/>
<path d="M68.1359 21.7517C67.2954 21.7549 66.4746 22.007 65.7773 22.4763C65.08 22.9456 64.5374 23.611 64.2179 24.3884C63.8985 25.1659 63.8166 26.0205 63.9825 26.8445C64.1484 27.6685 64.5548 28.4248 65.1503 29.018C65.7457 29.6112 66.5036 30.0147 67.3282 30.1775C68.1528 30.3403 69.0071 30.2551 69.7834 29.9327C70.5596 29.6103 71.2229 29.0652 71.6895 28.3661C72.1561 27.667 72.4052 26.8453 72.4052 26.0048C72.4134 25.4426 72.3085 24.8845 72.0967 24.3637C71.8849 23.8429 71.5704 23.37 71.1721 22.9732C70.7738 22.5764 70.2997 22.2638 69.7781 22.0539C69.2565 21.8441 68.698 21.7413 68.1359 21.7517ZM68.1359 28.5825C67.6182 28.6194 67.1015 28.4996 66.6529 28.2387C66.2043 27.9778 65.8447 27.5879 65.6208 27.1198C65.3969 26.6516 65.3191 26.1269 65.3976 25.6139C65.4761 25.101 65.7072 24.6235 66.0609 24.2438C66.4145 23.864 66.8743 23.5995 67.3804 23.4847C67.8865 23.3699 68.4154 23.4101 68.8983 23.6001C69.3812 23.7902 69.7957 24.1212 70.0879 24.5501C70.38 24.979 70.5363 25.4859 70.5363 26.0048C70.552 26.3326 70.5019 26.6603 70.3891 26.9685C70.2763 27.2767 70.1029 27.5593 69.8792 27.7994C69.6555 28.0396 69.3861 28.2327 69.0867 28.3671C68.7873 28.5016 68.464 28.5749 68.1359 28.5825ZM58.8225 21.7517C57.982 21.7549 57.1612 22.007 56.4639 22.4763C55.7666 22.9455 55.2239 23.6109 54.9045 24.3884C54.585 25.1658 54.5031 26.0205 54.669 26.8444C54.8349 27.6684 55.2413 28.4248 55.8367 29.018C56.4322 29.6112 57.1901 30.0147 58.0147 30.1775C58.8393 30.3403 59.6936 30.2551 60.4698 29.9327C61.2461 29.6103 61.9094 29.0652 62.376 28.3661C62.8426 27.667 63.0917 26.8453 63.0917 26.0048C63.0999 25.4426 62.995 24.8845 62.7832 24.3637C62.5714 23.8429 62.257 23.3701 61.8586 22.9733C61.4603 22.5765 60.9863 22.2638 60.4647 22.054C59.9431 21.8441 59.3846 21.7413 58.8225 21.7517ZM58.8225 28.5825C58.3048 28.6194 57.7881 28.4996 57.3395 28.2387C56.8909 27.9778 56.5313 27.5879 56.3074 27.1198C56.0835 26.6516 56.0057 26.1269 56.0842 25.6139C56.1627 25.101 56.3938 24.6235 56.7475 24.2438C57.1011 23.864 57.5609 23.5995 58.067 23.4847C58.5731 23.3699 59.102 23.4101 59.5849 23.6001C60.0678 23.7902 60.4823 24.1212 60.7745 24.5501C61.0666 24.979 61.2229 25.4859 61.2229 26.0048C61.2386 26.3326 61.1886 26.6603 61.0757 26.9685C60.9629 27.2767 60.7895 27.5593 60.5658 27.7995C60.3422 28.0397 60.0727 28.2327 59.7733 28.3672C59.4739 28.5016 59.1506 28.5749 58.8225 28.5825ZM47.7437 23.0567V24.861H52.0614C51.9991 25.7073 51.6528 26.5078 51.0786 27.1326C50.6459 27.5736 50.1256 27.9191 49.5511 28.1466C48.9767 28.3741 48.361 28.4787 47.7437 28.4536C46.4816 28.4365 45.2771 27.9232 44.3907 27.0247C43.5043 26.1262 43.0073 24.9148 43.0073 23.6527C43.0073 22.3906 43.5043 21.1792 44.3907 20.2807C45.2771 19.3822 46.4816 18.8689 47.7437 18.8518C48.9559 18.836 50.1254 19.2991 50.9981 20.1406L52.2708 18.8679C51.6753 18.2784 50.9682 17.8137 50.1908 17.5011C49.4134 17.1885 48.5814 17.0343 47.7437 17.0474C46.8682 17.0347 45.9988 17.1961 45.1863 17.5223C44.3737 17.8485 43.6341 18.3331 43.0105 18.9477C42.3868 19.5623 41.8916 20.2948 41.5536 21.1025C41.2156 21.9102 41.0415 22.7771 41.0415 23.6527C41.0415 24.5283 41.2156 25.3952 41.5536 26.2029C41.8916 27.0106 42.3868 27.7431 43.0105 28.3577C43.6341 28.9724 44.3737 29.4569 45.1863 29.7831C45.9988 30.1093 46.8682 30.2708 47.7437 30.258C48.5991 30.2935 49.4524 30.1466 50.2467 29.8272C51.0411 29.5078 51.7585 29.0231 52.3513 28.4053C53.4037 27.2566 53.9646 25.7415 53.9141 24.1844C53.9182 23.8063 53.8858 23.4286 53.8173 23.0567H47.7437ZM93.052 24.4582C92.7964 23.6878 92.3098 23.0148 91.6584 22.5306C91.007 22.0464 90.2223 21.7744 89.411 21.7517C88.8645 21.7551 88.3244 21.8693 87.8233 22.0873C87.3222 22.3053 86.8705 22.6227 86.4956 23.0203C86.1206 23.4178 85.8302 23.8873 85.6418 24.4002C85.4534 24.9132 85.371 25.4591 85.3996 26.0048C85.3873 26.564 85.4878 27.1199 85.6951 27.6394C85.9025 28.1588 86.2124 28.6312 86.6064 29.0282C87.0004 29.4252 87.4703 29.7387 87.9882 29.95C88.5061 30.1613 89.0612 30.2661 89.6205 30.258C90.3211 30.2619 91.0118 30.0917 91.6304 29.7627C92.249 29.4337 92.7762 28.9562 93.1647 28.3731L91.7148 27.4065C91.4976 27.7672 91.1903 28.0653 90.8231 28.2715C90.456 28.4776 90.0415 28.5848 89.6205 28.5825C89.1872 28.5991 88.7589 28.4851 88.3912 28.2553C88.0234 28.0254 87.7333 27.6904 87.5583 27.2937L93.2454 24.9416L93.052 24.4582ZM87.2523 25.876C87.2322 25.5664 87.2742 25.256 87.3755 24.9628C87.4769 24.6697 87.6358 24.3997 87.8428 24.1687C88.0498 23.9376 88.3008 23.7502 88.5812 23.6174C88.8615 23.4845 89.1655 23.4089 89.4754 23.395C89.7981 23.3738 90.1198 23.448 90.4006 23.6084C90.6814 23.7689 90.9087 24.0084 91.0543 24.2972L87.2523 25.876ZM82.6285 30.0002H84.4973V17.4986H82.6285V30.0002ZM79.5675 22.7022H79.5031C79.2189 22.3935 78.8722 22.149 78.486 21.9851C78.0998 21.8212 77.6831 21.7416 77.2637 21.7517C76.167 21.7984 75.1307 22.2669 74.3712 23.0594C73.6117 23.8519 73.1877 24.9072 73.1877 26.0049C73.1877 27.1025 73.6117 28.1578 74.3712 28.9503C75.1307 29.7428 76.167 30.2113 77.2637 30.258C77.6847 30.2692 78.1032 30.1885 78.4899 30.0216C78.8767 29.8547 79.2224 29.6055 79.5031 29.2914H79.5675V29.9036C79.5675 31.5308 78.6976 32.4007 77.2959 32.4007C76.8287 32.3895 76.3755 32.2395 75.9939 31.9698C75.6124 31.7001 75.3197 31.3229 75.1533 30.8863L73.5261 31.563C73.8328 32.3097 74.3554 32.9478 75.027 33.3955C75.6987 33.8433 76.4887 34.0803 77.2959 34.0762C79.487 34.0762 81.3397 32.7874 81.3397 29.6458V22.0094H79.5675V22.7022ZM77.4249 28.5825C76.7789 28.5277 76.1771 28.2324 75.7385 27.7551C75.2999 27.2777 75.0565 26.6531 75.0565 26.0049C75.0565 25.3566 75.2999 24.732 75.7385 24.2546C76.1771 23.7773 76.7789 23.482 77.4249 23.4272C77.7462 23.4429 78.0611 23.5231 78.3508 23.6631C78.6405 23.8031 78.899 24 79.111 24.242C79.323 24.4841 79.4841 24.7663 79.5846 25.0719C79.6852 25.3776 79.7232 25.7003 79.6964 26.0209C79.7215 26.3395 79.6821 26.66 79.5805 26.963C79.479 27.2661 79.3173 27.5455 79.1053 27.7847C78.8932 28.0238 78.6351 28.2177 78.3464 28.3548C78.0576 28.4919 77.7442 28.5693 77.4249 28.5825ZM101.806 17.4988H97.3347V30.0002H99.2004V25.2638H101.806C102.334 25.2927 102.862 25.2138 103.358 25.0317C103.854 24.8497 104.308 24.5684 104.692 24.205C105.076 23.8417 105.381 23.4038 105.59 22.9184C105.799 22.4329 105.907 21.9099 105.907 21.3813C105.907 20.8528 105.799 20.3298 105.59 19.8443C105.381 19.3588 105.076 18.921 104.692 18.5576C104.308 18.1942 103.854 17.9129 103.358 17.7309C102.862 17.5488 102.334 17.4699 101.806 17.4988ZM101.854 23.524H99.2004V19.2387H101.854C102.139 19.2328 102.423 19.2839 102.688 19.3889C102.953 19.4939 103.194 19.6508 103.398 19.8503C103.602 20.0499 103.764 20.2881 103.874 20.551C103.985 20.8139 104.042 21.0962 104.042 21.3814C104.042 21.6665 103.985 21.9488 103.874 22.2117C103.764 22.4746 103.602 22.7128 103.398 22.9124C103.194 23.1119 102.953 23.2688 102.688 23.3738C102.423 23.4789 102.139 23.5299 101.854 23.524ZM113.386 21.7287C112.705 21.6889 112.027 21.8489 111.436 22.1889C110.844 22.5288 110.365 23.0341 110.056 23.6426L111.713 24.3342C111.877 24.0322 112.126 23.7846 112.429 23.6218C112.732 23.4589 113.075 23.3879 113.418 23.4174C113.891 23.3712 114.364 23.5145 114.731 23.816C115.099 24.1175 115.332 24.5525 115.38 25.0257V25.1544C114.781 24.8361 114.112 24.6704 113.434 24.6719C111.649 24.6719 109.831 25.653 109.831 27.4865C109.849 27.8729 109.944 28.2519 110.11 28.601C110.277 28.9501 110.512 29.2621 110.801 29.5186C111.091 29.7751 111.429 29.9709 111.795 30.0942C112.162 30.2176 112.55 30.266 112.935 30.2367C113.405 30.2644 113.874 30.1656 114.292 29.9506C114.711 29.7356 115.064 29.4123 115.316 29.0144H115.38V29.9794H117.181V25.1866C117.181 22.9671 115.525 21.7287 113.386 21.7287ZM113.161 28.5801C112.549 28.5801 111.697 28.2746 111.697 27.5186C111.697 26.5537 112.758 26.1837 113.675 26.1837C114.271 26.1678 114.86 26.3123 115.38 26.6019C115.312 27.1441 115.049 27.6432 114.641 28.0069C114.233 28.3705 113.707 28.5742 113.161 28.5801ZM123.743 22.0021L121.604 27.4221H121.54L119.32 22.0021H117.31L120.639 29.5773L118.741 33.7911H120.687L125.818 22.0021H123.743ZM106.936 30.0002H108.802V17.4988H106.936V30.0002Z" fill="white"/>
<path d="M10.4352 7.53818C10.1073 7.93025 9.9417 8.43287 9.97238 8.94308V31.0592C9.94161 31.5694 10.1072 32.072 10.4352 32.4641L10.5092 32.5362L22.8982 20.1473V19.855L10.5092 7.46558L10.4352 7.53818Z" fill="url(#paint0_linear_204_4468)"/>
<path d="M27.0278 24.2787L22.8984 20.1473V19.855L27.0288 15.7246L27.1219 15.7777L32.0147 18.5578C33.4123 19.3518 33.4123 20.651 32.0147 21.4455L27.1219 24.2256L27.0278 24.2787Z" fill="url(#paint1_linear_204_4468)"/>
<path d="M27.1216 24.2251L22.8981 20.0012L10.4351 32.4641C10.7198 32.7153 11.0835 32.8589 11.463 32.8701C11.8426 32.8813 12.2141 32.7594 12.5132 32.5255L27.1216 24.2251Z" fill="url(#paint2_linear_204_4468)"/>
<path d="M27.1216 15.7771L12.5132 7.47666C12.2141 7.24275 11.8426 7.12084 11.463 7.13206C11.0835 7.14327 10.7198 7.2869 10.4351 7.53806L22.8981 20.0011L27.1216 15.7771Z" fill="url(#paint3_linear_204_4468)"/>
<path opacity="0.2" d="M27.0285 24.1321L12.5132 32.3794C12.2256 32.5983 11.8746 32.7178 11.5131 32.7197C11.1517 32.7216 10.7995 32.6059 10.5096 32.3901L10.4351 32.4646L10.5091 32.5367L10.5096 32.5362C10.7994 32.7521 11.1517 32.8679 11.5131 32.866C11.8746 32.864 12.2256 32.7445 12.5132 32.5255L27.1216 24.2251L27.0285 24.1321Z" fill="#18191F"/>
<path opacity="0.12" d="M10.4352 32.3185C10.1073 31.9264 9.94171 31.4238 9.97236 30.9136V31.0597C9.94169 31.5699 10.1073 32.0725 10.4352 32.4646L10.5097 32.3901L10.4352 32.3185Z" fill="#18191F"/>
<path opacity="0.12" d="M32.0147 21.2988L27.0288 24.132L27.1219 24.225L32.0147 21.4449C32.3025 21.32 32.5516 21.1202 32.736 20.8663C32.9203 20.6125 33.0333 20.3138 33.063 20.0015C33.0011 20.2843 32.8742 20.5488 32.6922 20.774C32.5102 20.9992 32.2783 21.1789 32.0147 21.2988Z" fill="#18191F"/>
<path opacity="0.25" d="M12.5136 7.62334L32.0148 18.7033C32.2784 18.8232 32.5105 19.0029 32.6925 19.2282C32.8744 19.4535 33.0013 19.7182 33.0631 20.0011C33.0335 19.6887 32.9207 19.3899 32.7363 19.1359C32.5519 18.8819 32.3027 18.6821 32.0148 18.5572L12.5136 7.47724C11.116 6.68314 9.97266 7.34274 9.97266 8.94354V9.08964C9.97266 7.48894 11.116 6.82934 12.5136 7.62334Z" fill="white"/>
<path d="M42.5273 11.4375H43.3438C44.1836 11.4375 44.668 11.8164 44.668 12.457V12.4648C44.668 13.0586 44.1562 13.4453 43.3711 13.4453C42.5742 13.4453 42.0625 13.125 41.9922 12.5625L41.9883 12.5312H41.293L41.2969 12.582C41.3672 13.4844 42.1641 14.0938 43.3789 14.0938C44.5234 14.0938 45.3867 13.3945 45.3867 12.4844V12.4766C45.3867 11.7148 44.9336 11.1758 44.1836 11.0781V11.0469C44.8008 10.8945 45.2227 10.3672 45.2227 9.74219V9.73438C45.2227 8.875 44.4727 8.26953 43.3906 8.26953C42.2578 8.26953 41.5156 8.82812 41.4492 9.75391L41.4453 9.80859H42.1406L42.1484 9.75C42.2188 9.22656 42.6562 8.91797 43.3633 8.91797C44.0859 8.91797 44.5039 9.25 44.5039 9.79688V9.80469C44.5039 10.3906 44.0312 10.8047 43.3125 10.8047H42.5273V11.4375ZM45.8164 14H46.5547L47.125 12.3867H49.3945L49.9648 14H50.7031L48.6094 8.36328H47.9141L45.8164 14ZM48.2539 9.20703H48.2695L49.1836 11.7891H47.3398L48.2539 9.20703ZM52.1328 14V8.99609H54.7734V8.36328H51.4297V14H52.1328ZM55.6172 14H56.3203V11.9883H57.625C58.6836 11.9883 59.4336 11.2422 59.4336 10.1719V10.1641C59.4336 9.09375 58.6836 8.36328 57.625 8.36328H55.6172V14ZM57.4453 8.98828C58.25 8.98828 58.7148 9.42969 58.7148 10.1719V10.1797C58.7148 10.9219 58.25 11.3633 57.4453 11.3633H56.3203V8.98828H57.4453ZM60.8359 14.0391C61.6641 14.0391 62.1016 13.6367 62.6367 12.3867L64.3633 8.36328H63.6328L62.1562 12.0156H62.0938L60.582 8.36328H59.832L61.7578 12.7969C61.5352 13.2109 61.2578 13.3906 60.8359 13.3906C60.7148 13.3906 60.6016 13.3789 60.5234 13.3594V13.9883C60.5859 14.0195 60.707 14.0391 60.8359 14.0391ZM65.9102 11.4375H66.7266C67.5664 11.4375 68.0508 11.8164 68.0508 12.457V12.4648C68.0508 13.0586 67.5391 13.4453 66.7539 13.4453C65.957 13.4453 65.4453 13.125 65.375 12.5625L65.3711 12.5312H64.6758L64.6797 12.582C64.75 13.4844 65.5469 14.0938 66.7617 14.0938C67.9062 14.0938 68.7695 13.3945 68.7695 12.4844V12.4766C68.7695 11.7148 68.3164 11.1758 67.5664 11.0781V11.0469C68.1836 10.8945 68.6055 10.3672 68.6055 9.74219V9.73438C68.6055 8.875 67.8555 8.26953 66.7734 8.26953C65.6406 8.26953 64.8984 8.82812 64.832 9.75391L64.8281 9.80859H65.5234L65.5312 9.75C65.6016 9.22656 66.0391 8.91797 66.7461 8.91797C67.4688 8.91797 67.8867 9.25 67.8867 9.79688V9.80469C67.8867 10.3906 67.4141 10.8047 66.6953 10.8047H65.9102V11.4375ZM69.6484 14H70.332L73.4297 9.53516H73.4531V14H74.1484V8.36328H73.4648L70.3672 12.8438H70.3438V8.36328H69.6484V14ZM76.7461 14H77.4492V8.99609H79.2266V8.36328H74.9688V8.99609H76.7461V14ZM80.0469 14H82.1367C83.1992 14 83.9414 13.2695 83.9414 12.2344V12.2266C83.9414 11.1875 83.1914 10.4531 82.1289 10.4531H80.75V8.36328H80.0469V14ZM81.9531 11.0859C82.7578 11.0859 83.2227 11.5 83.2227 12.2266V12.2344C83.2227 12.957 82.7617 13.3672 81.9531 13.3672H80.75V11.0859H81.9531ZM86.4609 14H87.1641V11.4336H90.2578V14H90.9609V8.36328H90.2578V10.8008H87.1641V8.36328H86.4609V14ZM91.6836 14H92.4219L92.9922 12.3867H95.2617L95.832 14H96.5703L94.4766 8.36328H93.7812L91.6836 14ZM94.1211 9.20703H94.1367L95.0508 11.7891H93.207L94.1211 9.20703Z" fill="white"/>
<defs>
<linearGradient id="paint0_linear_204_4468" x1="21.7995" y1="8.70989" x2="5.01711" y2="25.4923" gradientUnits="userSpaceOnUse">
<stop stop-color="#00A0FF"/>
<stop offset="0.00657" stop-color="#00A1FF"/>
<stop offset="0.2601" stop-color="#00BEFF"/>
<stop offset="0.5122" stop-color="#00D2FF"/>
<stop offset="0.7604" stop-color="#00DFFF"/>
<stop offset="1" stop-color="#00E3FF"/>
</linearGradient>
<linearGradient id="paint1_linear_204_4468" x1="33.8344" y1="20.0017" x2="9.63752" y2="20.0017" gradientUnits="userSpaceOnUse">
<stop stop-color="#FFE000"/>
<stop offset="0.4087" stop-color="#FFBD00"/>
<stop offset="0.7754" stop-color="#FFA500"/>
<stop offset="1" stop-color="#FF9C00"/>
</linearGradient>
<linearGradient id="paint2_linear_204_4468" x1="24.8266" y1="22.2963" x2="2.06833" y2="45.0546" gradientUnits="userSpaceOnUse">
<stop stop-color="#FF3A44"/>
<stop offset="1" stop-color="#C31162"/>
</linearGradient>
<linearGradient id="paint3_linear_204_4468" x1="7.29699" y1="0.176237" x2="17.4595" y2="10.3388" gradientUnits="userSpaceOnUse">
<stop stop-color="#32A071"/>
<stop offset="0.0685" stop-color="#2DA771"/>
<stop offset="0.4762" stop-color="#15CF74"/>
<stop offset="0.8009" stop-color="#06E775"/>
<stop offset="1" stop-color="#00F076"/>
</linearGradient>
</defs>
</svg>
