<svg width="32" height="32" viewBox="0 0 32 32" fill="none" xmlns="http://www.w3.org/2000/svg">
<path d="M16 11.8347C13.7063 11.8347 11.8344 13.7066 11.8344 16.0003C11.8344 18.2941 13.7063 20.166 16 20.166C18.2938 20.166 20.1657 18.2941 20.1657 16.0003C20.1657 13.7066 18.2938 11.8347 16 11.8347ZM28.4938 16.0003C28.4938 14.2753 28.5094 12.566 28.4125 10.8441C28.3157 8.84409 27.8594 7.06909 26.3969 5.60659C24.9313 4.14097 23.1594 3.68784 21.1594 3.59097C19.4344 3.49409 17.725 3.50972 16.0031 3.50972C14.2781 3.50972 12.5688 3.49409 10.8469 3.59097C8.8469 3.68784 7.0719 4.14409 5.6094 5.60659C4.14378 7.07222 3.69065 8.84409 3.59378 10.8441C3.4969 12.5691 3.51253 14.2785 3.51253 16.0003C3.51253 17.7222 3.4969 19.4347 3.59378 21.1566C3.69065 23.1566 4.1469 24.9316 5.6094 26.3941C7.07503 27.8597 8.8469 28.3128 10.8469 28.4097C12.5719 28.5066 14.2813 28.491 16.0031 28.491C17.7282 28.491 19.4375 28.5066 21.1594 28.4097C23.1594 28.3128 24.9344 27.8566 26.3969 26.3941C27.8625 24.9285 28.3157 23.1566 28.4125 21.1566C28.5125 19.4347 28.4938 17.7253 28.4938 16.0003ZM16 22.4097C12.4532 22.4097 9.59065 19.5472 9.59065 16.0003C9.59065 12.4535 12.4532 9.59097 16 9.59097C19.5469 9.59097 22.4094 12.4535 22.4094 16.0003C22.4094 19.5472 19.5469 22.4097 16 22.4097ZM22.6719 10.8253C21.8438 10.8253 21.175 10.1566 21.175 9.32847C21.175 8.50034 21.8438 7.83159 22.6719 7.83159C23.5 7.83159 24.1688 8.50034 24.1688 9.32847C24.169 9.52511 24.1305 9.71987 24.0553 9.90159C23.9802 10.0833 23.8699 10.2484 23.7309 10.3875C23.5919 10.5265 23.4267 10.6368 23.245 10.7119C23.0633 10.787 22.8685 10.8256 22.6719 10.8253Z" fill="white"/>
</svg>
