<svg width="510" height="547" viewBox="0 0 510 547" fill="none" xmlns="http://www.w3.org/2000/svg">
<g filter="url(#filter0_ii_732_1692)">
<path fill-rule="evenodd" clip-rule="evenodd" d="M192.936 401.336C173.774 443.473 154.951 484.939 136.129 526.516L136.242 526.404C136.356 526.516 136.469 526.628 136.583 526.628C136.809 526.292 137.149 525.956 137.49 525.62C161.527 495.139 185.592 464.658 209.657 434.177C233.725 403.692 257.793 373.208 281.833 342.724V342.5L281.606 342.275C277.297 343.732 272.96 345.217 268.623 346.702C264.286 348.187 259.949 349.672 255.64 351.129C247.023 354.155 238.405 357.181 229.787 359.982C229.744 359.897 229.701 359.827 229.664 359.768C229.604 359.672 229.561 359.603 229.561 359.534C250.575 330.467 271.588 301.377 292.634 272.243C317.921 237.238 343.254 202.169 368.688 167C368.309 167.102 367.993 167.183 367.721 167.254C367.096 167.415 366.702 167.516 366.307 167.672C346.805 174.34 327.332 181.008 307.859 187.675C288.384 194.344 268.908 201.012 249.404 207.681C247.93 208.129 247.022 208.914 246.342 210.259C230.921 239.957 215.387 269.655 199.853 299.353C179.103 338.913 158.466 378.361 137.83 417.922L137.829 417.924C137.489 418.708 137.149 419.492 136.583 420.723L140.015 419.538C157.656 413.446 175.046 407.44 192.936 401.336ZM152.118 266.517C149.51 260.577 146.902 254.638 144.18 248.698L144.067 248.586H102C102.34 250.491 146.108 348.775 148.489 352.81C148.943 352.138 149.283 351.578 149.623 351.017L149.623 351.017C151.989 346.532 154.354 342.035 156.724 337.528C161.284 328.859 165.861 320.158 170.486 311.457C171.28 310 171.053 308.879 170.486 307.534L152.118 266.517Z" fill="#352B72"/>
<path fill-rule="evenodd" clip-rule="evenodd" d="M192.936 401.336C173.774 443.473 154.951 484.939 136.129 526.516L136.242 526.404C136.356 526.516 136.469 526.628 136.583 526.628C136.809 526.292 137.149 525.956 137.49 525.62C161.527 495.139 185.592 464.658 209.657 434.177C233.725 403.692 257.793 373.208 281.833 342.724V342.5L281.606 342.275C277.297 343.732 272.96 345.217 268.623 346.702C264.286 348.187 259.949 349.672 255.64 351.129C247.023 354.155 238.405 357.181 229.787 359.982C229.744 359.897 229.701 359.827 229.664 359.768C229.604 359.672 229.561 359.603 229.561 359.534C250.575 330.467 271.588 301.377 292.634 272.243C317.921 237.238 343.254 202.169 368.688 167C368.309 167.102 367.993 167.183 367.721 167.254C367.096 167.415 366.702 167.516 366.307 167.672C346.805 174.34 327.332 181.008 307.859 187.675C288.384 194.344 268.908 201.012 249.404 207.681C247.93 208.129 247.022 208.914 246.342 210.259C230.921 239.957 215.387 269.655 199.853 299.353C179.103 338.913 158.466 378.361 137.83 417.922L137.829 417.924C137.489 418.708 137.149 419.492 136.583 420.723L140.015 419.538C157.656 413.446 175.046 407.44 192.936 401.336ZM152.118 266.517C149.51 260.577 146.902 254.638 144.18 248.698L144.067 248.586H102C102.34 250.491 146.108 348.775 148.489 352.81C148.943 352.138 149.283 351.578 149.623 351.017L149.623 351.017C151.989 346.532 154.354 342.035 156.724 337.528C161.284 328.859 165.861 320.158 170.486 311.457C171.28 310 171.053 308.879 170.486 307.534L152.118 266.517Z" fill="url(#paint0_linear_732_1692)" fill-opacity="0.2"/>
<path fill-rule="evenodd" clip-rule="evenodd" d="M192.936 401.336C173.774 443.473 154.951 484.939 136.129 526.516L136.242 526.404C136.356 526.516 136.469 526.628 136.583 526.628C136.809 526.292 137.149 525.956 137.49 525.62C161.527 495.139 185.592 464.658 209.657 434.177C233.725 403.692 257.793 373.208 281.833 342.724V342.5L281.606 342.275C277.297 343.732 272.96 345.217 268.623 346.702C264.286 348.187 259.949 349.672 255.64 351.129C247.023 354.155 238.405 357.181 229.787 359.982C229.744 359.897 229.701 359.827 229.664 359.768C229.604 359.672 229.561 359.603 229.561 359.534C250.575 330.467 271.588 301.377 292.634 272.243C317.921 237.238 343.254 202.169 368.688 167C368.309 167.102 367.993 167.183 367.721 167.254C367.096 167.415 366.702 167.516 366.307 167.672C346.805 174.34 327.332 181.008 307.859 187.675C288.384 194.344 268.908 201.012 249.404 207.681C247.93 208.129 247.022 208.914 246.342 210.259C230.921 239.957 215.387 269.655 199.853 299.353C179.103 338.913 158.466 378.361 137.83 417.922L137.829 417.924C137.489 418.708 137.149 419.492 136.583 420.723L140.015 419.538C157.656 413.446 175.046 407.44 192.936 401.336ZM152.118 266.517C149.51 260.577 146.902 254.638 144.18 248.698L144.067 248.586H102C102.34 250.491 146.108 348.775 148.489 352.81C148.943 352.138 149.283 351.578 149.623 351.017L149.623 351.017C151.989 346.532 154.354 342.035 156.724 337.528C161.284 328.859 165.861 320.158 170.486 311.457C171.28 310 171.053 308.879 170.486 307.534L152.118 266.517Z" fill="url(#paint1_linear_732_1692)" fill-opacity="0.4"/>
</g>
<g filter="url(#filter1_f_732_1692)">
<ellipse cx="306.941" cy="251.14" rx="6.67292" ry="108.729" transform="rotate(35.7502 306.941 251.14)" fill="#BAEEFF" fill-opacity="0.8"/>
</g>
<g filter="url(#filter2_f_732_1692)">
<ellipse cx="306.923" cy="251.127" rx="0.665011" ry="70.8237" transform="rotate(35.7502 306.923 251.127)" fill="white"/>
</g>
<g filter="url(#filter3_f_732_1692)">
<ellipse cx="213.238" cy="429.504" rx="6.67292" ry="108.729" transform="rotate(38.2018 213.238 429.504)" fill="#BAEEFF" fill-opacity="0.8"/>
</g>
<g filter="url(#filter4_f_732_1692)">
<ellipse cx="213.221" cy="429.49" rx="0.665011" ry="70.8237" transform="rotate(38.2018 213.221 429.49)" fill="white"/>
</g>
<g filter="url(#filter5_f_732_1692)">
<ellipse cx="288.685" cy="244.307" rx="67.7536" ry="143.431" transform="rotate(35.7502 288.685 244.307)" fill="#E8A842"/>
</g>
<g filter="url(#filter6_f_732_1692)">
<ellipse cx="288.569" cy="244.223" rx="23.3756" ry="57.6815" transform="rotate(35.7502 288.569 244.223)" fill="white"/>
</g>
<g filter="url(#filter7_f_732_1692)">
<ellipse cx="197.12" cy="441.75" rx="18.18" ry="91.3393" transform="rotate(38.9443 197.12 441.75)" fill="#F351BE"/>
</g>
<g filter="url(#filter8_f_732_1692)">
<ellipse cx="211.601" cy="425.961" rx="3.99635" ry="71.0386" transform="rotate(37.2872 211.601 425.961)" fill="#FFAFF8"/>
</g>
<g filter="url(#filter9_f_732_1692)">
<ellipse cx="139.863" cy="265.045" rx="29.6462" ry="15.14" transform="rotate(66.0725 139.863 265.045)" fill="#DD766A"/>
</g>
<g filter="url(#filter10_f_732_1692)">
<ellipse cx="139.821" cy="264.952" rx="16.5667" ry="9.86186" transform="rotate(66.0725 139.821 264.952)" fill="white"/>
</g>
<defs>
<filter id="filter0_ii_732_1692" x="102" y="165" width="266.688" height="361.628" filterUnits="userSpaceOnUse" color-interpolation-filters="sRGB">
<feFlood flood-opacity="0" result="BackgroundImageFix"/>
<feBlend mode="normal" in="SourceGraphic" in2="BackgroundImageFix" result="shape"/>
<feColorMatrix in="SourceAlpha" type="matrix" values="0 0 0 0 0 0 0 0 0 0 0 0 0 0 0 0 0 0 127 0" result="hardAlpha"/>
<feOffset/>
<feGaussianBlur stdDeviation="15"/>
<feComposite in2="hardAlpha" operator="arithmetic" k2="-1" k3="1"/>
<feColorMatrix type="matrix" values="0 0 0 0 0.216799 0 0 0 0 0.700985 0 0 0 0 0.908493 0 0 0 1 0"/>
<feBlend mode="normal" in2="shape" result="effect1_innerShadow_732_1692"/>
<feColorMatrix in="SourceAlpha" type="matrix" values="0 0 0 0 0 0 0 0 0 0 0 0 0 0 0 0 0 0 127 0" result="hardAlpha"/>
<feOffset dy="-2"/>
<feGaussianBlur stdDeviation="6.5"/>
<feComposite in2="hardAlpha" operator="arithmetic" k2="-1" k3="1"/>
<feColorMatrix type="matrix" values="0 0 0 0 0.691649 0 0 0 0 0.981499 0 0 0 0 1 0 0 0 1 0"/>
<feBlend mode="normal" in2="effect1_innerShadow_732_1692" result="effect2_innerShadow_732_1692"/>
</filter>
<filter id="filter1_f_732_1692" x="232.182" y="151.811" width="149.519" height="198.659" filterUnits="userSpaceOnUse" color-interpolation-filters="sRGB">
<feFlood flood-opacity="0" result="BackgroundImageFix"/>
<feBlend mode="normal" in="SourceGraphic" in2="BackgroundImageFix" result="shape"/>
<feGaussianBlur stdDeviation="5.5" result="effect1_foregroundBlur_732_1692"/>
</filter>
<filter id="filter2_f_732_1692" x="263.54" y="191.647" width="86.7646" height="118.96" filterUnits="userSpaceOnUse" color-interpolation-filters="sRGB">
<feFlood flood-opacity="0" result="BackgroundImageFix"/>
<feBlend mode="normal" in="SourceGraphic" in2="BackgroundImageFix" result="shape"/>
<feGaussianBlur stdDeviation="1" result="effect1_foregroundBlur_732_1692"/>
</filter>
<filter id="filter3_f_732_1692" x="134.789" y="332.959" width="156.898" height="193.09" filterUnits="userSpaceOnUse" color-interpolation-filters="sRGB">
<feFlood flood-opacity="0" result="BackgroundImageFix"/>
<feBlend mode="normal" in="SourceGraphic" in2="BackgroundImageFix" result="shape"/>
<feGaussianBlur stdDeviation="5.5" result="effect1_foregroundBlur_732_1692"/>
</filter>
<filter id="filter4_f_732_1692" x="167.418" y="371.833" width="91.6055" height="115.315" filterUnits="userSpaceOnUse" color-interpolation-filters="sRGB">
<feFlood flood-opacity="0" result="BackgroundImageFix"/>
<feBlend mode="normal" in="SourceGraphic" in2="BackgroundImageFix" result="shape"/>
<feGaussianBlur stdDeviation="1" result="effect1_foregroundBlur_732_1692"/>
</filter>
<filter id="filter5_f_732_1692" x="67.4443" y="0.32251" width="442.481" height="487.969" filterUnits="userSpaceOnUse" color-interpolation-filters="sRGB">
<feFlood flood-opacity="0" result="BackgroundImageFix"/>
<feBlend mode="normal" in="SourceGraphic" in2="BackgroundImageFix" result="shape"/>
<feGaussianBlur stdDeviation="60.5" result="effect1_foregroundBlur_732_1692"/>
</filter>
<filter id="filter6_f_732_1692" x="212.889" y="158.446" width="151.36" height="171.554" filterUnits="userSpaceOnUse" color-interpolation-filters="sRGB">
<feFlood flood-opacity="0" result="BackgroundImageFix"/>
<feBlend mode="normal" in="SourceGraphic" in2="BackgroundImageFix" result="shape"/>
<feGaussianBlur stdDeviation="18.5" result="effect1_foregroundBlur_732_1692"/>
</filter>
<filter id="filter7_f_732_1692" x="86.9775" y="318.787" width="220.284" height="245.927" filterUnits="userSpaceOnUse" color-interpolation-filters="sRGB">
<feFlood flood-opacity="0" result="BackgroundImageFix"/>
<feBlend mode="normal" in="SourceGraphic" in2="BackgroundImageFix" result="shape"/>
<feGaussianBlur stdDeviation="25.5" result="effect1_foregroundBlur_732_1692"/>
</filter>
<filter id="filter8_f_732_1692" x="161.445" y="362.389" width="100.311" height="127.144" filterUnits="userSpaceOnUse" color-interpolation-filters="sRGB">
<feFlood flood-opacity="0" result="BackgroundImageFix"/>
<feBlend mode="normal" in="SourceGraphic" in2="BackgroundImageFix" result="shape"/>
<feGaussianBlur stdDeviation="3.5" result="effect1_foregroundBlur_732_1692"/>
</filter>
<filter id="filter9_f_732_1692" x="0.529297" y="116.254" width="278.666" height="297.583" filterUnits="userSpaceOnUse" color-interpolation-filters="sRGB">
<feFlood flood-opacity="0" result="BackgroundImageFix"/>
<feBlend mode="normal" in="SourceGraphic" in2="BackgroundImageFix" result="shape"/>
<feGaussianBlur stdDeviation="60.5" result="effect1_foregroundBlur_732_1692"/>
</filter>
<filter id="filter10_f_732_1692" x="107.577" y="228.286" width="64.4873" height="73.3323" filterUnits="userSpaceOnUse" color-interpolation-filters="sRGB">
<feFlood flood-opacity="0" result="BackgroundImageFix"/>
<feBlend mode="normal" in="SourceGraphic" in2="BackgroundImageFix" result="shape"/>
<feGaussianBlur stdDeviation="10.5" result="effect1_foregroundBlur_732_1692"/>
</filter>
<linearGradient id="paint0_linear_732_1692" x1="37.5882" y1="148.209" x2="492.279" y2="638.765" gradientUnits="userSpaceOnUse">
<stop offset="0.389203" stop-color="#90F8FF"/>
<stop offset="0.389302" stop-color="white" stop-opacity="0"/>
</linearGradient>
<linearGradient id="paint1_linear_732_1692" x1="37.5882" y1="148.209" x2="191.225" y2="503.538" gradientUnits="userSpaceOnUse">
<stop offset="0.389203" stop-color="white"/>
<stop offset="0.389302" stop-color="white" stop-opacity="0"/>
</linearGradient>
</defs>
</svg>
