<svg width="134" height="165" viewBox="0 0 134 165" fill="none" xmlns="http://www.w3.org/2000/svg">
<path d="M133.644 164.517C132.51 164.517 131.83 164.517 131.15 164.629C117.543 164.629 104.05 164.629 90.4433 164.629C88.7425 164.629 87.722 164.068 86.8149 162.612C76.4966 147.146 66.0649 131.681 55.7466 116.215C55.4064 115.767 55.0663 115.319 54.7262 114.758H39.6455C39.6455 120.25 39.6455 125.741 39.6455 131.12C39.6455 136.724 39.6455 142.215 39.6455 147.818C39.6455 153.422 39.6455 158.801 39.6455 164.405C26.6059 164.405 13.793 164.405 0.980157 164.405C0.526605 162.724 0.299829 3.02585 0.980157 0C1.66049 0 2.45425 0 3.24797 0C21.6168 0 39.8723 -8.12014e-06 58.2412 0.11206C68.5595 0.11206 78.5376 2.35343 87.9489 6.72411C104.39 14.3448 114.482 27.0085 117.77 44.7154C120.945 61.7498 117.77 77.5515 108.132 92.1204C104.73 97.1635 100.535 101.534 95.319 105.12C108.132 124.844 120.831 144.569 133.758 164.517H133.644ZM39.7589 37.543V77.1032C47.2425 77.1032 54.6128 77.4394 61.983 77.1032C70.1469 76.6549 75.8163 71.3877 77.9706 63.5429C78.9911 59.7326 78.8778 55.8102 78.1975 51.8878C76.7234 44.043 71.054 37.0947 60.2821 37.543C54.386 37.7671 48.3764 37.543 42.4802 37.543H39.7589Z" fill="white"/>
</svg>
