<svg width="165" height="171" viewBox="0 0 165 171" fill="none" xmlns="http://www.w3.org/2000/svg">
<path d="M164.623 0.224132V170.681H127.545C127.545 168.103 127.545 165.525 127.545 162.836C127.545 160.146 127.545 154.879 127.545 154.879V111.732C127.545 111.732 127.205 111.62 127.092 111.508C126.638 112.181 126.071 112.853 125.618 113.413L84.6848 166.87C83.6643 168.327 78.5617 168.327 77.6546 167.206C72.6655 160.258 67.6765 153.422 62.6875 146.586C54.5235 135.491 46.473 124.396 38.309 113.301C37.8555 112.741 37.5153 112.181 37.0617 111.62C36.835 111.62 36.6082 111.844 36.4948 111.844C36.4948 111.844 36.4948 112.181 36.4948 112.293C36.4948 112.517 36.4948 112.741 36.4948 112.965C36.4948 131.905 36.4948 150.732 36.4948 169.672C36.4948 169.672 36.4948 169.784 36.4948 169.896C36.4948 170.008 36.4948 170.344 36.4948 170.344C36.4948 170.344 36.4948 170.456 36.268 170.681H0.550781L0.550781 0.224132C0.550781 0.224132 1.00431 0.56034 1.23108 0.784477C1.57125 1.12068 1.79802 1.56896 2.02479 1.90517C28.3308 38.4395 54.6369 74.8618 80.943 111.396C80.943 111.508 81.1697 111.62 81.2831 111.732C81.2831 111.732 81.3964 111.732 81.7366 111.957C109.29 74.6377 136.73 37.3189 164.283 0C164.396 0 164.623 -8.12015e-06 164.737 0.112061L164.623 0.224132Z" fill="white"/>
</svg>
