<svg width="174" height="172" viewBox="0 0 174 172" fill="none" xmlns="http://www.w3.org/2000/svg">
<path d="M0.242188 85.5084C0.242188 38.2154 39.0209 0 86.8707 0C134.72 0 173.613 38.4395 173.499 85.7325C173.499 133.138 134.494 171.353 86.4171 171.241C38.9075 171.241 0.242212 132.689 0.3556 85.5084H0.242188ZM133.246 87.3015C133.246 74.5256 129.731 64.3274 122.475 55.3619C108.641 38.3275 84.8297 33.2844 65.7805 43.3706C38.1138 58.0516 31.764 95.4825 53.1944 118.457C70.316 136.836 98.2095 138.405 117.032 121.819C127.804 112.293 133.02 100.077 133.246 87.3015Z" fill="white"/>
</svg>
