<svg width="36" height="36" viewBox="0 0 36 36" fill="none" xmlns="http://www.w3.org/2000/svg"><g clip-path="url(#clip0_6314_1674)"><rect width="36" height="36" rx="18" fill="#fff"/><path fill="#fff" stroke="#B7B7B7" stroke-linejoin="round" d="M3 31h30v6H3zm9-2h16v2H12zm0-2h15v2H12zm0-5H8v9h4z"/><path fill="#fff" stroke="#B7B7B7" stroke-linejoin="round" d="M14 19H6v4h8z"/><path fill="#fff" stroke="#B7B7B7" stroke-linejoin="round" d="M14 21H6v2h8zm-2-4H8v2h4z"/><path d="M19 14h-4a3 3 0 01-3-3V8h1l2 3h13.5a1.5 1.5 0 010 3H23l-3 5h-1v-5z" fill="#fff"/><path d="M19 14h.5a.5.5 0 00-.5-.5v.5zm-4 0v.5-.5zm-3-6v-.5a.5.5 0 00-.5.5h.5zm1 0l.416-.277A.5.5 0 0013 7.5V8zm2 3l-.416.277A.5.5 0 0015 11.5V11zm13.5 3v.5-.5zM23 14v-.5a.5.5 0 00-.429.243L23 14zm-3 5v.5a.5.5 0 00.429-.243L20 19zm-1 0h-.5a.5.5 0 00.5.5V19zm0-5v-.5h-4v1h4V14zm-4 0v-.5a2.5 2.5 0 01-2.5-2.5h-1a3.5 3.5 0 003.5 3.5V14zm-3-3h.5V8h-1v3h.5zm0-3v.5h1v-1h-1V8zm1 0l-.416.277 2 3L15 11l.416-.277-2-3L13 8zm2 3v.5h13.5v-1H15v.5zm13.5 0v.5a1 1 0 011 1h1a2 2 0 00-2-2v.5zm1.5 1.5h-.5a1 1 0 01-1 1v1a2 2 0 002-2H30zM28.5 14v-.5H23v1h5.5V14zM23 14l-.429-.257-3 5L20 19l.429.257 3-5L23 14zm-3 5v-.5h-1v1h1V19zm-1 0h.5v-5h-1v5h.5z" fill="#B7B7B7"/><path d="M19 6h1l3 5h-4V6z" fill="#fff" stroke="#B7B7B7" stroke-linejoin="round"/><path d="M7 17h6m-3-2v2m14 8v2m-7-2v2" stroke="#B7B7B7" stroke-linecap="round" stroke-linejoin="round"/></g><rect x=".5" y=".5" width="35" height="35" rx="17.5" stroke="#B7B7B7"/><defs><clipPath id="clip0_6314_1674"><rect width="36" height="36" rx="18" fill="#fff"/></clipPath></defs></svg>