<svg width="90" height="46" viewBox="0 0 90 46" fill="none" xmlns="http://www.w3.org/2000/svg"><path d="M46.36 45.438a5.423 5.423 0 01-.871 0c-.943-.113-1.77-.802-1.972-1.733-.402-1.85.896-3.172 2.725-3.111 3.158.104 3.09 4.525.118 4.844zm-.347-4.443c-1.798.071-1.921 3.508-.475 3.983 2.314.76 2.675-4.07.475-3.983zM8.388 45.437a5.332 5.332 0 01-.872 0c-1.71-.205-2.553-1.979-1.826-3.496.834-1.742 3.93-1.86 4.707.011.651 1.57-.309 3.281-2.01 3.486zm-.396-4.443c-1.897.072-1.964 4.06-.016 4.06 1.969 0 2.102-4.139.016-4.06zm64.136 4.444c-.45-.054-1.07-.346-1.317-.741-.082-.13-.282-.653-.282-.785v-3.171h1.017v3.075c0 .083.113.475.156.57.319.701 1.432.812 1.928.254.16-.18.387-.69.387-.921V40.74h.532v3.123c0 .819-.841 1.483-1.598 1.573a5.008 5.008 0 01-.823 0zm-13.223 0c-.075-.01-.7-.217-.72-.249l.19-.864h.142c.164 1.144 2.124.81 1.593-.31-.292-.618-1.556-.596-1.85-1.492-.518-1.585 1.314-2.407 2.527-1.629-.01.12-.156.822-.332.67-.005-.004-.001-.09-.029-.139-.457-.81-1.76-.367-1.4.478.25.584 1.611.644 1.936 1.6.328.966-.445 1.816-1.38 1.935-.152.02-.525.02-.677 0zm28.237 0c-.082-.01-.693-.209-.72-.25l.14-.864c.192-.05.147.143.249.306.43.691 1.76.511 1.579-.465-.13-.707-1.558-.725-1.887-1.6-.59-1.569 1.282-2.493 2.485-1.656l-.153.653-.138-.003c-.24-.907-1.841-.63-1.461.324.224.562 1.674.725 1.944 1.59.3.968-.398 1.842-1.36 1.965a4.04 4.04 0 01-.678 0zm-63.497 0c-.232-.109-.498-.123-.706-.29l.173-.824c.204-.048.206.24.317.385.444.578 1.631.384 1.562-.444-.075-.887-1.836-.761-2.012-1.963-.224-1.522 1.381-2.107 2.532-1.416.041.065-.097.656-.124.678-.127.106-.171-.134-.219-.191-.794-.968-2.055.125-1.085.842.446.33 1.057.433 1.426.898.567.713.253 1.785-.572 2.14l-.566.184h-.727zm16.855-.001c-.083-.01-.693-.208-.72-.249l.139-.865c.204-.047.206.24.317.385.472.617 1.714.39 1.512-.591-.135-.655-1.579-.67-1.892-1.595-.545-1.614 1.3-2.383 2.532-1.634l-.194.676c-.196.045-.13-.085-.219-.191-.565-.683-1.654-.352-1.405.483.178.598 1.652.706 1.95 1.634.309.96-.391 1.826-1.342 1.948a4.04 4.04 0 01-.678 0zm26.687.001c-.12-.016-.654-.189-.704-.291l.123-.823c.214-.045.183.169.268.289.489.685 1.696.53 1.619-.356-.073-.834-1.714-.761-1.971-1.858-.365-1.548 1.352-2.234 2.533-1.513.03.049-.113.578-.149.63-.109.159-.265-.21-.344-.286-.497-.482-1.5-.153-1.304.578.167.62 1.635.767 1.953 1.63.36.977-.369 1.883-1.346 2a4.04 4.04 0 01-.678 0zM15.338 33.623l-4.14-8.619c-.857 1.992-1.741 3.998-2.802 5.892C7.2 33.032 5.654 35.588 2.85 35.36c-.869-.07-2.072-.432-2.74-.992l2.475-4.08 1.472.19c3.646-.421 5.208-4.489 6.551-7.374l-3.572-7.755 4.333-2.251L17.42 26.02l1.42-2.92-3.283-7.44 4.21-2.031 9.061 19.873-5.183-.048-3.995-8.643-1.465 3.018 2.555 5.794h-5.4zm23.612-2.13h-3.802c-.477-.394-.678-.969-.824-1.55-1.1.883-2.99 2.176-4.45 1.544-2.453-1.063-3.287-4.449-2.024-6.709 1.098-1.964 3.35-2.355 5.238-3.189.464-.205 1.171-.495 1.251-1.077.107-.778-.789-.934-1.37-.934-1.739 0-3.207 1.2-4.48 2.23.22-1.11.37-2.493 1.163-3.363.66-.724 3.116-1.068 4.089-1.094 2.746-.072 4.357 1.14 4.484 3.947.106 2.325-.063 4.736-.004 7.074.018.723-.009 1.638.27 2.297.123.292.334.534.459.824zm-5.63-8.268c-.817.112-1.698 1.01-2.08 1.698-.771 1.395-1.066 4.785 1.451 4.114 1.556-.415 1.671-1.751 1.611-3.139-.021-.508-.083-1.832-.208-2.26-.108-.372-.415-.461-.774-.412zm35.697-5.906c1-.12 1.44.183 2.206.721.863.607 2.312 1.855 2.673 2.848.543 1.495.735 5.385.17 6.853-.605 1.572-3.165 3.716-4.834 3.98-2.002.317-4.954-1.933-5.554-3.814-.281-.88-.286-3.002-.27-3.994.017-1.103.132-3.105.826-3.968.727-.905 3.644-2.49 4.783-2.626zm-.196 2.08c-.98.159-1.348 1.662-1.44 2.482-.21 1.878-.179 4.187.207 6.04.382 1.834 1.913 2.343 2.652.4.674-1.772.519-4.606.289-6.488-.048-.391-.113-.832-.253-1.2-.21-.55-.782-1.343-1.455-1.234zm10.959-6.355v4.334l.073.073h1.768l-.436 1.258h-1.332l-.073.073v10.943c0 .048.055.338.07.415.102.513.343.977.705 1.352h-3.608c-.052 0-.47-.41-.529-.488-.511-.677-.535-1.731-.658-2.538l-.049-9.757h-2.13l.435-1.162h1.696V14.57l4.068-1.525zm8.331 0v4.334l.073.073H90l-.509 1.258h-1.308l-.072.073v11.04c0 .194.151.684.233.88.129.31.315.55.542.79h-3.609c-.04 0-.405-.345-.459-.412-.67-.841-.745-2.854-.778-3.919-.07-2.234.013-4.501.053-6.73.01-.574-.012-1.149-.002-1.722h-2.228l.484-1.162h1.671l.073-.072v-2.978l4.02-1.453zM44.568 31.493h-3.656c-.617-.501-.976-1.267-1.04-2.059-.1-1.214-.04-2.765-.053-4.016-.022-2.073.154-4.412.005-6.444a3.315 3.315 0 00-.146-.726c-.072-.215-.216-.393-.292-.604h3.802c.157 0 .425.715.46.872.07.05.733-.546.856-.621 1.124-.688 2.82-.447 3.641.604l-1.619 2.534c-.81-.598-2.02-.802-2.771-.014l-.01 8.076c.08.618.15 1.273.444 1.832.105.2.297.36.38.566zm9.203 0h-3.705c-.667-.544-.979-1.41-1.041-2.252-.2-2.694.055-5.731.002-8.476-.003-.138-.05-.256-.053-.383-.024-.952.185-1.931-.434-2.738h3.85c.236.23.322.566.413.872.077.056.683-.491.807-.572.826-.537 1.956-.571 2.843-.148.189.09.86.529.852.744l-1.626 2.492c-.814-.613-2.006-.786-2.77-.012L52.9 28.9c.087.93.2 1.89.872 2.591zm35.454 5.277v.678H.081c-.148-.167-.042-.462-.072-.677h89.216zm-26.3-5.229h-3.802c-.826-.823-.869-1.838-.894-2.931-.017-.713-.047-1.457-.053-2.175-.02-2.426.216-5.076.053-7.461-.032-.473-.164-.987-.438-1.378h3.56c.019 0 .23.232.258.274.213.323.414 1.011.444 1.397l.054 10.55c.132.635.424 1.216.818 1.724zM43.841 1.182c.553 1.363 1.35 2.621 1.898 3.986.358.89.453 1.203.077 2.127-.25.618-.753 1.205-1.36 1.497-1.05.505-2.67.277-3.56-.478-.473-2.133.19-4.433 1.637-6.044.133-.148 1.194-1.171 1.308-1.088zm10.22 9.102L49.316.02c.236.077.485.105.725.17 4.268 1.154 6.303 6.318 4.02 10.095zm-11.914.63c2.017.107 4.053-1.345 4.492-3.33.03-.135-.043-.338.108-.399l2.642 6.008c-.158.486-.747.716-1.218.765-2.135.223-4.951-1.174-6.024-3.044zm9.352 1.982L45.703.259c.204-.197.971-.376 1.137-.162L52.346 12.1c.01.273-.55.813-.847.795zM1.171 40.741v1.768l.073.072H3.18l.073-.072V40.74H4.27v4.6H3.254v-2.203l-.073-.073H1.244l-.073.073v2.203H.154v-4.6h1.017zm32.718 0c1.084.154 1.2 1.654.299 2.14-.126.067-.23.085-.354.132-.05.018-.086-.026-.062.071l1.4 2.257-1.203-.008-1.267-2.122v2.13h-1.017v-4.6c.681.07 1.545-.093 2.204 0zm-1.187 2.18c1.404.172 1.48-2.12 0-1.84v1.84zm19.204-2.18c1.314.177 1.179 2.111-.07 2.278l.006.109 1.396 2.212-1.251-.007-1.13-2.042-.138-.08v2.13h-.968v-4.6c.67.065 1.505-.087 2.155 0zm-1.186.34v1.766c.434.215.972-.104 1.054-.592.145-.863-.162-1.272-1.054-1.175zm-11.915-.34l-.049.533-1.55-.049v1.38c.043.07.097.067.167.076.448.052.935-.066 1.383-.051-.052.178-.078.33 0 .507l-1.55-.023v1.67l.08.065 1.47-.089v.533H36.19V40.74h2.616zm-20.875 0a.77.77 0 000 .533l-1.599-.048v1.38c.241.12.663.084.947.074.092-.003.59-.115.604-.022v.505l-1.55-.049v1.67l.08.065 1.517-.088a.773.773 0 000 .532h-2.567v-4.551h2.567zm67.469-.001v.534l-1.55-.049v1.453l1.55-.049c-.04.187-.065.321 0 .508l-1.55-.024v1.67l.08.066 1.47-.09v.533H82.88v-4.551h2.52zm-28.092.001v.533l-1.163-.097v4.164h-1.017V41.25c0-.02-.076-.082-.116-.07l-1.143.094v-.533h3.439zm24.507 0a.653.653 0 000 .532l-1.094-.094c-.04-.01-.116.05-.116.07v4.092h-1.017V41.25c0-.02-.076-.082-.117-.07l-1.143.094a.773.773 0 000-.533h3.488zm-67.517 0v.533l-1.162-.097v4.164h-1.018V41.25c0-.02-.075-.082-.116-.07l-1.143.094a.773.773 0 000-.533h3.44-.001zm5.909 0v4.044l.08.064 1.47-.088c-.038.193-.076.338 0 .532h-2.567V40.74h1.017zm56.959 0h-1.017v4.6h1.017v-4.6zM28.07 43.29c-.432-.43.26-1.154.71-.638.386.443-.308 1.04-.71.638zm35.326-.796c.632-.142.822.723.307.889-.675.217-.862-.764-.307-.889z" fill="#95A6AF"/></svg>