<svg width="122" height="15" viewBox="0 0 122 15" fill="none" xmlns="http://www.w3.org/2000/svg"><path d="M95.304 3.597h-3.16c.113-1.837-3.363-1.764-2.976-.059.203.897 2.633 1.189 3.41 1.412 1.512.433 2.898 1.075 3.058 2.844.32 3.547-3.4 4.33-6.193 4.027-2.215-.24-3.894-1.421-3.786-3.821h3.16c-.29 2.16 3.949 2.195 3.476.141-.21-.908-2.898-1.25-3.725-1.513-1.333-.423-2.471-1.01-2.707-2.53-.415-2.672 1.727-3.912 4.08-4.074 2.48-.17 5.507.504 5.363 3.572v.001zM81.749 10.16l-.671.7c-3.725 2.016-6.544-1.906-5.05-5.376.954-2.214 4.352-2.865 5.72-.724l.084-1.08h2.91v7.85c0 3.656-7.081 4.237-8.362 1.708-.099-.194-.431-1.25-.163-1.25h2.662c.16.136.12.353.218.53.356.642 1.766.597 2.237.095.135-.143.414-.821.414-1V10.16zm-2.466-4.54c-.977 1.028-.72 4.493 1.47 3.92 1.298-.34 1.385-3.903-.08-4.246-.476-.112-1.041-.042-1.39.325v.001zM29.44 7.584v4.071h-3.16V.273h6.362c.401 0 1.498.339 1.875.537 2.352 1.235 2.227 5.336-.28 6.374-.317.131-1.286.401-1.595.401H29.44zm0-2.243h2.12c.035 0 .583-.22.654-.261.732-.431.773-1.733.095-2.232-.126-.093-.715-.332-.832-.332H29.44v2.825zm70.19 5.401v3.905h-2.994l.041-10.967h2.827c.257.11.035 1.074.167 1.081.705-1.108 1.818-1.372 3.076-1.246 3.774.376 3.827 7.829-.175 8.298-1.274.15-2.075-.16-2.944-1.07h.001zm1.384-5.535c-1.46.03-1.478 2.123-1.388 3.17.202 2.343 2.605 2.34 2.829.08.107-1.076.086-3.28-1.441-3.25zM10.312.273v4.155c1.442-1.377 4.228-1.312 5.146.634.052.111.26.668.26.737v5.857h-2.994V7.045c0-.062-.095-.616-.12-.711-.214-.847-.968-1.18-1.738-.73-.193.113-.553.572-.553.777v5.276H7.236V.273h3.077-.001zm44.408 0V7.17l2.787-3.49h3.202l-2.64 3.364 3.055 4.612H57.59l-2.87-4.32v4.32h-2.993V.273h2.994zm19.96 11.382h-3.077V6.463c0-.135-.251-.677-.373-.791-.416-.391-1.279-.337-1.669.08-.118.126-.37.653-.37.793v5.11h-2.993l-.084-7.976h3.077v.831c1.246-1.376 3.796-1.45 4.941.09.202.271.549 1.05.549 1.364v5.691h-.001zm-30.604 0h-2.91l-.124-.914c-1.261 1.848-5.025 1.54-5.28-.956-.324-3.156 2.995-3.334 5.322-3.281.065-.93-.051-1.757-1.202-1.574-.609.097-.625.74-.836 1.158H36.26c-.027-.89.39-1.612 1.162-2.038 1.63-.901 6.16-.945 6.482 1.505.18 1.366-.074 3.136.003 4.566.028.497.2 1.025.17 1.533v.001zm-2.994-3.738h-1.206c-.134 0-.75.33-.876.454-.884.873.153 2.167 1.312 1.642.655-.296.788-1.462.77-2.096z" fill="#95A6AF"/><path d="M114.402 4.707c2.173 2.169 1.109 6.285-2.049 6.992-3.634.813-6.994-1.358-5.929-5.342.863-3.227 5.872-3.752 7.977-1.65h.001zm-3.566.49c-1.621.056-1.688 2.661-1.336 3.784.291.93 1.168 1.466 2.08.948 1.044-.593 1.011-3.215.426-4.117-.235-.362-.739-.63-1.17-.615zM19.46 8.333c.1 1.2.394 2.012 1.78 1.82.58-.08.967-.503 1.047-1.073h2.827c-.355 2.63-3.38 3.15-5.576 2.704-4.156-.842-3.992-7.849.712-8.269 3.157-.282 4.857 1.192 4.953 4.36.005.168.025.354-.13.458h-5.614zm2.827-1.662c-.063-2.19-2.638-2.22-2.745 0h2.745zM4.574 1.436v2.202l.124.125H6.32v1.91H4.574c.084.93.093 1.853.087 2.788-.003.442-.193.797.06 1.261.241.443 1.167.275 1.599.189v1.786l-.138.111c-1.074.1-3.238.334-4.065-.482-.162-.16-.537-.838-.537-1.041V5.674H0V3.762h1.58V2.517l2.994-1.08zm115.68 2.244H122v1.911h-1.746v3.863c0 .733 1.289.508 1.746.457v1.703c-.178.158-.541.191-.787.21-.811.065-2.47.08-3.15-.348-.309-.195-.804-.827-.804-1.192V5.59h-1.58V3.804l.125-.125h1.455l.083-1.204 2.912-1.122V3.68zm-69.275-.167V6.09c-.792-.197-1.907.023-2.347.772-.09.156-.315.786-.315.931v3.863h-2.993l-.042-7.975h2.91l.125.124V5.01l.416-.705c.56-.678 1.4-.855 2.245-.79zM64.7 3.68v7.975h-3.077v-7.85l.125-.126h2.953zm0-3.407v2.16h-2.952l-.125-.124V.273h3.078z" fill="#95A6AF"/></svg>