<svg width="80" height="24" viewBox="0 0 80 24" fill="none" xmlns="http://www.w3.org/2000/svg"><path fill-rule="evenodd" clip-rule="evenodd" d="M80 2.86h-3.96c.386.321.661 1.017.661 1.98v6.17l-7.149-8.15h-3.96c.385.321.66 1.017.66 1.98v9.664c0 .963-.275 1.338-.66 1.623h3.96c-.385-.285-.66-.98-.66-1.944v-7.06l6.416 7.328c.66.784 1.93 1.608 3.263 1.712.916.07.77-.606.77-1.017V4.84c0-.962.275-1.658.659-1.979zm-15.855 0h-4.62c.386.321.66 1.017.66 1.98v9.664c0 .963-.274 1.338-.66 1.622h4.62c-.386-.284-.661-.98-.661-1.943V4.84c0-.962.275-1.658.66-1.979zm-16.948 0L46.5 5.072c1.027-.606 4.474-1.248 4.474-.232v9.665c0 .963-.275 1.337-.66 1.622h4.619c-.386-.285-.661-.98-.661-1.943V4.839c0-.374 2.713-.98 3.886.161l.733-2.14H47.197zm-8.156 7.347c.66.285 2.97 1.177 3.63 1.498.66.32 1.1.677 1.1 1.39 0 .714-.807 1.855-3.117 1.855s-3.482-.785-3.922-1.034l.77 2.354c.953.143 2.97.356 3.63.356.66 0 6.095-.381 6.305-4.35.11-2.069-2.31-3.353-3.005-3.602-.697-.25-2.97-1.213-3.52-1.427a1.592 1.592 0 01-1.027-1.498c0-.748 1.21-1.604 2.896-1.604s2.346.534 2.97.856V3.075c-1.393-.464-2.604-.428-3.41-.428-.807 0-4.986.035-5.939 2.96-.954 2.924 1.98 4.316 2.639 4.6zm-7.682 4.778c-1.577 0-1.723-.534-1.906-1.033V9.458h2.125c.661 0 1.32.178 1.65.5V8.21h-3.775V4.108h3.52c.66 0 1.319.428 1.65.75V2.86h-9.13c.386.286.66 1.017.66 1.98v9.664c0 .963-.274 1.338-.66 1.622h9.13l.99-2.068c-.697.393-2.457.927-4.254.927zM20.053 16.12L26.066 0H21.08c.477.463 1.1 1.034.66 2.175l-3.336 8.916L14.298 0h-3.813c.513.428 1.173 1.213.697 2.39l-3.153 8.38L4.033 0H0c.367.285.697.606.917 1.141l4.546 12.233c.513 1.355 1.723 2.354 4.106 2.745l3.593-9.628 2.639 6.99c.44 1.283 2.09 2.638 4.252 2.638zm6.014 6.87l-.003-3.14c0-.333.094-.572.228-.682H24.7c.132.11.227.35.227.681v3.33c0 .332-.095.462-.227.56h3.148l.342-.713c-.24.135-.847.32-1.466.32-.544 0-.594-.185-.657-.357zm35.068-4.021c-1.561 0-2.826 1.118-2.826 2.496 0 1.379 1.265 2.497 2.826 2.497 1.56 0 2.825-1.118 2.825-2.497 0-1.378-1.265-2.496-2.825-2.496zm0 4.59c-.974 0-1.763-.938-1.763-2.094s.789-2.093 1.763-2.093c.973 0 1.762.937 1.762 2.093s-.789 2.094-1.762 2.094zm-45.221-3.63c.354-.21 1.542-.43 1.542-.08v3.33c0 .332-.095.461-.228.56h1.59c-.131-.099-.226-.339-.226-.67v-3.22c0-.13.935-.338 1.34.055l.251-.737h-4.03l-.24.762zm40.848 1.23c-.239-.086-1.023-.418-1.212-.492a.548.548 0 01-.354-.516c0-.259.418-.553.999-.553.58 0 .808.184 1.023.295v-.664c-.48-.16-.897-.147-1.175-.147-.277 0-1.718.013-2.047 1.02-.327 1.008.683 1.487.91 1.586.228.098 1.023.406 1.252.517.226.11.377.233.377.478 0 .247-.277.64-1.073.64-.797 0-1.2-.271-1.352-.357l.265.811c.329.05 1.024.123 1.251.123.227 0 2.1-.131 2.173-1.5.037-.713-.797-1.155-1.037-1.241zm-5.492 1.83V21.44h.732c.228 0 .455.063.568.173v-.602h-1.3v-1.413h1.212c.227 0 .454.147.568.258v-.688l-3.142-.002c.134.098.224.352.224.683v3.33c0 .332-.095.462-.227.56h3.145l.341-.713c-.239.135-.845.32-1.465.32-.543 0-.593-.185-.656-.357zm17.886-3.06c.354-.21 1.541-.43 1.541-.08v3.33c0 .332-.095.461-.228.56h1.593c-.132-.099-.228-.339-.228-.67v-3.22c0-.13.936-.338 1.34.055l.252-.737h-4.03l-.24.762zm7.263 1.23c-.24-.086-1.023-.418-1.213-.492a.549.549 0 01-.353-.516c0-.259.416-.553.999-.553.58 0 .808.184 1.023.295v-.664c-.48-.16-.897-.147-1.175-.147-.279 0-1.718.013-2.047 1.02-.329 1.008.683 1.487.91 1.586.228.098 1.023.406 1.25.517.228.11.38.233.38.478 0 .247-.278.64-1.075.64-.795 0-1.2-.271-1.352-.357l.266.811c.327.05 1.023.123 1.25.123.227 0 2.1-.131 2.173-1.5.039-.713-.795-1.155-1.036-1.241zm-45.191 0c-.239-.086-1.023-.418-1.212-.492a.548.548 0 01-.355-.516c0-.259.418-.553.999-.553s.809.184 1.023.295v-.664c-.48-.16-.897-.147-1.174-.147-.278 0-1.718.013-2.047 1.02-.328 1.008.682 1.487.91 1.586.227.098 1.024.406 1.251.517.226.11.378.233.378.478 0 .247-.278.64-1.073.64-.797 0-1.2-.271-1.352-.357l.264.811c.33.05 1.024.123 1.252.123.227 0 2.1-.131 2.173-1.5.037-.713-.797-1.155-1.037-1.241zm-9.214 1.83V21.44h.732c.228 0 .455.063.568.173v-.602h-1.3v-1.413h1.212c.228 0 .455.147.568.258v-.688l-3.145.012c.132.098.227.338.227.67v3.33c0 .332-.095.462-.227.56h3.145l.341-.713c-.239.135-.845.32-1.465.32-.543-.002-.593-.186-.656-.358zm-12.28-4.645H8.14c.133.111.228.35.228.682l-.004 1.528H5.67l.004-1.528c0-.332.095-.571.227-.681h-1.59c.132.11.226.35.226.681v4.15c0 .333-.094.462-.227.56h1.592c-.132-.098-.227-.338-.227-.67l-.005-1.978h2.695l.004 2.089c0 .332-.095.46-.227.56h1.592c-.133-.1-.228-.339-.228-.67v-4.04c0-.332.095-.572.227-.683zm3.225.625c-1.56 0-2.826 1.118-2.826 2.496 0 1.379 1.265 2.497 2.826 2.497 1.56 0 2.825-1.118 2.825-2.497 0-1.378-1.265-2.496-2.825-2.496zm0 4.59c-.974 0-1.763-.938-1.763-2.094s.79-2.093 1.763-2.093c.973 0 1.763.937 1.763 2.093s-.79 2.094-1.763 2.094zm35.29-.65l-1.449-1.8c1.283-.59 1.356-1.07 1.356-1.57s-.53-1.195-1.546-1.193h-3.15c.133.11.228.35.228.681v4.151c0 .332-.095.46-.227.56h1.592c-.134-.1-.228-.338-.228-.67v-1.872h.472l1.796 2.176c.678.838 2.052.624 2.31.428-.495-.25-.806-.607-1.155-.891zm-2.846-2.111h-.582v-1.974c.802-.201 1.865.101 1.865.886 0 .784-.77 1.088-1.282 1.088zm23.149 2.273l-1.211-1.48c1.155-.392 1.12-.856 1.12-1.355s-.533-1.07-1.547-1.068H64.46c.133.11.227.35.227.682v3.33c0 .332-.094.462-.227.56h1.592c-.132-.099-.228-.338-.228-.67v-1.354h.427l1.31 1.623c.568.677 1.668.642 1.924.445-.495-.25-.585-.428-.933-.713zm-2.395-1.627h-.334v-1.796c.802-.201 1.552.012 1.552.797 0 .784-.705.999-1.218.999zm-26.474 1.072l-2.25-2.088.326-.302c.55-.517 1.062-1.944-1.009-1.944-2.071 0-1.723 1.498-1.154 2.033.057.054.174.162.332.305l-.553.462c-.568.535-1.045 1.64-.128 2.515.825.786 2.764.619 3.678-.268l.098.09c.459.338 1.613.749 2.585.41-.697-.34-1.522-.857-1.925-1.213zm-2.904-3.825c.25.017.794.338-.02 1.11-.837-.83-.393-1.128.02-1.11zm.167 4.74c-.972 0-1.027-.785-1.027-1.105 0-.322.148-.66.643-1.088l.07-.066c.634.572 1.401 1.266 1.892 1.707-.346.31-.795.552-1.578.552z" fill="#95A6AF"/></svg>