<svg width="80" height="35" viewBox="0 0 80 35" fill="none" xmlns="http://www.w3.org/2000/svg"><path d="M51.329 9.012c.003.019.046.133.093.116.031-.062.076-.286.106-.312.025-.024.094-.013.125-.037.037-.03.251-.344.284-.369.034-.024.115-.011.131-.03.03-.034-.016-.142.013-.174.015-.016.091.007.12-.015.022-.018.099-.263.154-.339.041-.058.299-.235.329-.285.042-.07.024-.193.067-.247a8.04 8.04 0 01.189-.181c.077-.068.242-.163.343-.145-.042-.249.121-.186.177-.242.235-.238.404-.625.632-.854.038-.04.337-.234.353-.252.058-.062-.11-.23.193-.178-.053-.25.08-.15.16-.233.044-.045.114-.246.12-.323h6.29v.185h-.187l.001.186-.187-.001v.186h-.187l.001.185h-.187v.186l-.187-.001v.184c-.25-.047-.189.12-.245.175-.029.028-.118.01-.151.057-.008.011-.109.21-.114.223-.046.12.092.166-.184.155.028.17-.191.189-.33.226l.092.092c-.08.05-.414.158-.452.2-.31.337-.609.61-.933.925-.03.03-.013.12-.056.152-.103.072-.237-.085-.189.207-.266-.078-.188.198-.306.322-.046.05-.289.202-.333.246-.045.045-.23.332-.266.363-.041.034-.11.03-.16.048l-.01.197c.27.043.158.233.234.37.03.054.119.002.143.059.029.066.002.203.06.28.026.038.116.043.149.107.028.055.008.154.032.178.02.02.1-.005.12.014.027.023.125.646.16.681.02.021.103-.01.135.034.014.021.172.271.18.287.039.074.028.246.058.28.023.024.124.008.156.051.046.062-.003.195.027.229.018.02.115 0 .157.051.09.112-.026.348.187.322-.025.193.145.218.186.282.05.081-.004.218.043.282.033.044.133.027.156.052.031.033.019.207.058.28.035.066.105.165.162.27.025.045.111-.005.14.04.05.08.032.234.068.298.028.05.11.016.131.037.038.035.026.306.068.352.018.02.087.013.122.04.066.052.175.11.183.118.04.046.098.568.176.684.154.228.343.455.49.683.056.09.025.257.051.286.02.02.115.001.156.052.05.063.032.233.067.296.03.052.113.015.133.036.028.03-.004.132.03.182.034.05.14.03.159.05.03.034-.019.167.027.229.033.043.134.027.156.052.031.033.019.206.058.28.025.048.203.264.247.309.034.035.05.023.031.096l-5.822.044c-.017-.073-.026-.323-.06-.359-.026-.029-.14.002-.17-.084-.06-.165.111-.296-.172-.338l-.027-.23-.159-.048-.017-.3c-.015-.052-.13-.018-.168-.072-.053-.071-.095-.536-.163-.662-.199-.37-.369-.73-.56-1.111-.053-.108-.292-.208-.313-.232-.042-.046-.026-.265-.056-.33-.025-.056-.108-.015-.131-.038-.036-.032-.027-.271-.055-.334-.026-.055-.108-.014-.132-.036-.035-.033-.026-.272-.055-.334-.025-.056-.107-.015-.131-.037-.036-.033-.02-.33-.1-.39-.07.021-.302.015-.323.033-.017.016.002.102-.054.153-.08.072-.409.23-.451.271-.046.045-.076.249-.133.31-.128.133-.39.302-.52.43-.04.04-.207.297-.247.333-.034.03-.186.05-.186.095v3.313h-5.172V0l5.172.023v8.99z" fill="#95A6AF"/><path d="M12.511 12.603c.037.009.093-.015.135.005l.097.475c.228.046.176.199.194.397.255-.038.128.28.2.378.035.046.14.028.159.05.021.024.006.183.038.26.028.069.126.067.148.134.02.06-.01.166.014.195.018.02.125 0 .159.05s.003.148.03.18c.02.022.114.004.154.053.05.063.032.233.068.296.029.05.11.015.131.037.037.037.112.455.148.52.029.05.113.014.133.035.028.03-.004.132.03.181.035.05.135.029.157.053.027.03-.004.13.03.179.034.048.132.029.155.054.033.035.019.218.055.283.027.049.111.026.162.08.212.23.29.424.536.625.04.032.25.343.285.369.078.058.182-.04.136.21l.187-.002v.187c.302-.054.135.115.193.178.016.017.306.21.352.252.043.039.076.249.133.31.195.204.505.418.707.615.056.055-.005.222.245.174l.004.182c.078-.002.315.064.356.109.028.03.01.101.063.146.028.025.099.013.124.038.03.03.013.12.058.152.05.034.152.002.182.03.018.018-.005.095.015.118.035.04.208.025.271.082.05.044.034.138.053.154.034.029.139-.015.172.014.02.017 0 .109.054.154.034.027.105.022.14.05.035.03.286.335.307.35.071.048.3.145.368.229.025.031.012.106.034.127.042.04.311.027.353.066.022.021.01.096.034.127.042.053.124.033.152.062.025.026-.012.103.04.127.057.025.327.032.341.047l.002.184.208-.004c.052.01-.003.114.055.145.125.067.512.137.67.183l-.093.092c.214-.024.208.197.239.225.036.034.212-.015.291.012.086.03.056.144.085.17.036.033.288.042.361.06l-.002.113c.121.078.37-.017.334.201l.233.027c.037.27.18.116.36.196.09.04.026.131.086.156.072.03.218.011.31.056.066.031.061.105.143.137.182.07.314-.051.352.202l.335.042.036.142.35.018.071.168.35.018c.052.01-.003.112.056.144.152.084.681.12.875.143l.07.157c.216.032.398-.052.451.211l.501.041.056.144.504.042.055.144.552.04.057.144.527.05c-.024.24.368.157.558.208.098.027.095.09.135.105.16.06.373.054.543.048l.056.144c.202.074.464.01.647.043.108.02.088.109.151.14.184.087.524.022.727.054l.031.13c.287.086.635 0 .908.091.078.026.077.082.105.093.317.117.704-.017 1.013.091.107.038.077.126.184.145.424.08.55-.044 1.04.134.283.104.659.03.965.05 1.015.07 2.031.144 3.052.14l-.004.117 7.207.025c.13.033.138-.112.17-.132.11-.067 2.25-.042 2.578-.055.637-.024 1.376-.047 2.004-.093.227-.016.352-.134.415-.143.566-.08 1.141.003 1.703-.09l-.14-.092c.455-.093.982.01 1.42-.05.168-.023.142-.107.201-.132.326-.134 1.019 0 1.422-.095.052-.013.032-.12.148-.142.323-.06.793.059 1.143-.045l-.14-.092c.372-.122.92.035 1.27-.094.06-.023.037-.118.15-.14.236-.044.62.035.876-.045.058-.017.034-.118.149-.14.253-.048.696.022.971-.043.048-.012.044-.113.107-.134.201-.067.653-.037.878-.05l.051-.145.835-.04.051-.146c.26-.034.634-.006.87-.093.029-.011.036-.071.074-.084.217-.076.453-.038.678-.058.297-.356-.159-.349-.27-.506-.055-.078-.05-.232-.084-.264-.028-.026-.122-.009-.154-.055-.034-.05-.003-.148-.03-.178-.021-.024-.116-.005-.155-.054-.041-.053-.024-.178-.067-.248-.03-.05-.122-.033-.143-.146-.014-.075-.012-.445.022-.491.026-.035.203-.053.24-.224l.349-.026-.004-.117h.187l-.047.091c.12.049.55.022.61.068.044.035.027.135.05.156.032.026.13-.004.18.03.019.013.222.324.24.34.03.027.13-.004.18.03.044.031.376.453.442.535.067.082.22-.02.161.232h.187v.185c.296-.069.093.211.397.19.167-.012.121-.11.227-.152.17-.07.38-.001.512-.045.057-.02.052-.105.14-.14.192-.078.487-.014.698-.083l.056-.144.713-.052.032-.133.691-.041.056-.144.481-.05.03-.136.695-.04.053-.144c.172-.03.383-.023.546-.055.124-.024.11-.103.161-.125.15-.061.381-.05.543-.047.034-.261.31-.178.514-.185.032-.27.441-.14.66-.226.088-.035.083-.122.14-.14.187-.063.477.076.605-.186.196-.039.829-.066.967-.144.058-.034.004-.135.055-.144l.504-.042.055-.144.504-.04.056-.145c.13 0 .392.009.503-.041.061-.028 0-.122.06-.143.118-.042.386-.013.496-.044.048-.013.054-.102.106-.134.102-.063.231-.04.337-.083.061-.025.053-.11.145-.134.16-.042.329-.014.492-.017l.051-.145c.166.028.394-.03.547.005.034.007.031.076.097.099.087.03.26.022.312.06.045.034.026.125.057.154.024.022.1-.002.117.017.029.029-.003.13.03.18.037.053.154.02.17.072.026.092-.002.882-.048.962-.032.055-.12.016-.136.033-.034.035.022.189-.012.225-.013.014-.093-.017-.137.032-.051.055-.067.251-.1.284-.051.05-.268.032-.307.067-.025.024-.006.123-.054.155-.05.034-.154.002-.182.03-.022.02.02.106-.036.132-.11.05-.375.041-.503.041-.025.272-.337.14-.508.196-.072.023-.079.126-.124.155-.093.058-.242-.003-.343.03-.074.025-.079.147-.153.171-.115.038-.314-.018-.447.055-.052.028-.054.111-.111.13-.178.06-.53-.087-.556.196l-.578.046c.082.196-.162.118-.3.142-.226.039-.45.099-.676.138l-.05 6.229-.143.506-.042 1.483-.138.027-.061.5c-.205-.02-.094.111-.151.195-.031.045-.124.028-.153.056-.035.032-.05.222-.102.281-.042.046-.118.026-.165.08-.024.03-.014.1-.037.125-.04.043-.24.048-.312.06l-.002.183-.367.053-.035.127c-.124.011-.562.029-.624-.073-.09-.268-.003-.56-.089-.827-.15-.468-.135-.804-.278-1.263-.114-.365 0-.789-.098-1.168l-.093.047-.094-1.344-.133-.029c-.036-.309.043-.706-.057-1-.014-.041-.075-.044-.085-.073-.151-.41.082-1.045-.238-1.375l-.042-1.112-.147-.05c-.024-.123.071-.483-.073-.528l-.296.044.046.091c-.145.08-.358.013-.483.055-.057.018-.052.104-.14.14-.19.076-.48-.006-.646.085-.051.028-.054.11-.111.13-.137.048-.59-.025-.714.057-.008.006.084.113-.072.137-.206.031-.44-.01-.648.043l-.053.145c-.162 0-.447-.01-.592.044-.061.023-.039.119-.15.139-.178.032-.451-.013-.65.043l-.053.144c-.251.02-.545.016-.79.044-.166.018-.618.055-.74.1-.067.026-.06.12-.109.132-.227.055-.587.036-.827.042l-.054.145-.95.09.047.092c-.266.06-.605.006-.849.098-.401.15-.436.088-.841.147-.17.025-.177.135-.348.16-.225.034-.496-.025-.69.012-.108.02-.088.108-.151.138-.226.109-.667 0-.952.099-.471.164-.778.102-1.238.27-.312.113-.872.038-1.222.096.044.086.033.123-.07.14-.327.05-.8-.002-1.168.042-.059.007-.115.123-.324.142-.435.038-.91.041-1.348.044l-.051.145-2.002.089.023.093c-.44-.042-.9.037-1.326.049-.416.01-3.016-.063-3.148.022-.042.028-.011.105-.114.119-.228.029-2.29.048-2.392-.015-.021-.013-.026-.084-.056-.104-.126-.081-2.6-.056-3.004-.072-.31-.013-.622.01-.932.005l-.05-.146-2-.04-.051-.145-1.534-.04-.05-.145c-.396-.055-1.083.03-1.43-.094-.475-.17-.627-.056-1.04-.134-.108-.02-.088-.108-.151-.138-.217-.104-.98.003-1.082-.095l.047-.092c-.276-.083-.621.002-.88-.076-.13-.04-.115-.128-.175-.148-.136-.047-.423.023-.587-.056-.063-.03-.044-.119-.15-.138-.171-.031-.414.024-.602-.044l-.055-.144c-.154.002-.387.026-.52-.058-.028-.017-.033-.098-.09-.116-.11-.037-.34.014-.454-.052-.054-.032-.015-.117-.033-.134-.02-.019-.352-.015-.432-.052-.062-.027 0-.122-.059-.143-.214-.074-.671-.07-.873-.145-.062-.023-.057-.102-.114-.129-.077-.037-.355-.033-.378-.056.033-.21-.196-.116-.345-.188-.063-.03-.067-.102-.115-.127-.122-.066-.306-.024-.435-.07l-.036-.142-.28-.027-.048-.159-.334-.04c-.044-.278-.165-.114-.34-.173-.057-.02-.06-.103-.111-.13-.085-.047-.308-.033-.332-.056-.02-.019.018-.103-.035-.133-.134-.077-.405.042-.395-.223l-.324-.027c-.025-.282-.244-.102-.388-.207-.043-.032-.017-.105-.038-.13-.078-.098-.463-.2-.566-.243-.058-.025-.001-.117-.06-.143-.131-.056-.388-.084-.572-.166-.031-.014-.041-.086-.086-.11-.074-.038-.247-.026-.281-.056-.029-.026.002-.14-.085-.17-.08-.029-.208.005-.297-.005v-.186l-.207.003c-.018-.236-.214-.125-.355-.212-.043-.027-.002-.105-.041-.138-.069-.058-.199-.05-.227-.082-.02-.023.003-.1-.015-.118-.03-.028-.132.004-.183-.03-.047-.032-.028-.131-.053-.154-.036-.033-.222-.02-.287-.055-.053-.028-.012-.115-.058-.145-.048-.033-.163-.017-.196-.054-.02-.022.003-.1-.016-.118-.029-.027-.13.005-.182-.03-.046-.031-.029-.124-.055-.152-.049-.052-.266-.032-.306-.069-.015-.014-.242-.288-.202-.308-.317-.061-.725-.252-.864-.53-.03-.058-.002-.15-.018-.167-.013-.014-.12.005-.183-.029-.308-.165-.545-.49-.76-.703-.094-.095-.292-.172-.36-.22-.056-.038-.353-.442-.431-.521a17.305 17.305 0 00-.408-.405c-.056-.052-.302-.108-.317-.127-.024-.033.005-.11-.01-.14-.034-.06-.14-.057-.091-.222-.303.05-.134-.115-.193-.179-.016-.017-.316-.213-.354-.25-.028-.03-.01-.11-.06-.15-.035-.025-.116-.011-.132-.03-.03-.034.016-.142-.014-.174-.014-.016-.09.008-.119-.015-.04-.032-.077-.261-.12-.3-.033-.03-.12-.014-.152-.058-.034-.05-.003-.149-.03-.178-.015-.017-.28-.182-.304-.204-.066-.06.017-.277-.2-.223l.093-.091c-.18.007-.11-.17-.15-.223-.01-.014-.244-.086-.302-.162-.064-.084-.039-.21-.083-.266-.038-.049-.133-.03-.154-.054-.032-.035.017-.143-.057-.2-.03-.024-.112-.01-.131-.03-.023-.024-.092-.562-.145-.658-.027-.049-.092-.023-.137-.033.05-.308-.102-.189-.169-.273-.05-.063-.032-.233-.068-.296-.028-.051-.11-.016-.131-.037-.036-.034-.027-.271-.056-.333-.025-.056-.108-.015-.131-.037-.03-.029-.009-.184-.052-.245-.03-.042-.115-.013-.134-.034-.045-.048-.038-.377-.065-.404-.017-.017-.096.006-.12-.014-.047-.04-.037-.256-.069-.33-.027-.065-.101-.065-.128-.114-.063-.114-.046-.317-.045-.446-.287-.052-.182-.345-.19-.584-.32-.075-.139-.148-.139-.417.204-.003.135.272.14.417h.001z" fill="#95A6AF"/><path d="M13.48 1.54c.021.012.026.084.056.103.167.108.88-.08 1.007.204l1.25.142.03.135c.11.02.244.012.348.053.104.04.097.113.151.138.077.035.235.017.306.047.06.024-.005.114.086.155.112.051.242.017.358.037l.081.174.292.012c-.006.22.14.14.237.206.042.027.044.103.105.128.079.032.238.016.262.038.021.019.002.114.053.154.063.05.234.032.298.068.051.029.015.112.036.132.03.027.132-.005.182.03.047.032.029.131.054.154.039.036.258.016.305.068.023.025.011.095.036.125.042.051.117.033.15.063.012.012.141.274.166.296.213.2.334.201.572.337.278.158.681.69.907.95.061.07.192.194.206.212.078.101.139.255.186.324.031.046.125.029.153.056.052.047.032.263.069.303.021.023.108.005.15.057.033.039.02.118.076.16.032.025.106.013.126.034.035.037.04.346.1.424.036.05.138.028.169.073.05.073-.008.22.041.285.035.046.138.028.159.05.026.03.01.26.052.334.033.056.124.002.144.058.023.067-.003.236.042.313.031.052.115.015.134.034.023.024.01.246.056.33.027.052.113.054.131.111.027.081-.011.186.015.265.023.074.146.078.171.154.047.138-.06.42.188.39.018.16.001.416.056.563.018.048.085.041.105.091.1.248.026.593.077.793.013.051.12.03.142.147.063.337-.01.778.044 1.068.023.12.133.075.145.182.042.348.043 1.42 0 1.765-.008.063-.117.096-.138.28-.029.254.012.905-.099 1.099-.016.028-.084.025-.092.064-.04.189-.021.524-.044.73l-.136.03-.05.572-.145.055c-.024.102-.017.268-.055.356-.048.112-.253.414-.316.53-.056.106-.04.355-.091.445-.03.053-.116.016-.134.035-.025.026-.01.263-.053.336-.034.057-.191-.03-.163.265l-.113.002c-.033.081-.028.26-.076.32-.039.049-.13.03-.153.054-.034.037-.04.346-.099.425-.034.045-.123.026-.166.075-.068.08-.05.288-.081.317-.02.018-.093-.004-.117.018-.1.096-.157.27-.22.362-.031.044-.12.029-.152.058-.044.04-.08.269-.12.3-.058.047-.165-.063-.13.194l-.295.046c-.08-.022-.056-.15-.084-.174-.031-.026-.13.004-.179-.03-.046-.032-.029-.123-.056-.152-.048-.051-.266-.032-.305-.068-.021-.02-.01-.095-.034-.127-.041-.052-.122-.034-.15-.061-.03-.03-.013-.12-.056-.152-.102-.072-.237.084-.189-.207-.256.05-.153-.076-.229-.165-.053-.062-.151-.047-.18-.08-.021-.023 0-.095-.019-.114-.017-.018-.29-.058-.364-.129-.053-.052-.036-.137-.054-.153-.064-.058-.232.108-.179-.192-.253.058-.153-.095-.234-.16-.197-.16-.227-.212-.385-.383-.036-.04-.19-.025-.202-.127-.043-.364.136-.28.204-.36.044-.052.026-.216.07-.257.027-.026.12-.009.152-.055.093-.134-.04-.048.158-.212.174-.144.225-.464.441-.655.025-.021.09-.008.109-.025.05-.05.03-.25.083-.316.04-.05.135-.031.155-.052.026-.029.01-.26.053-.334.031-.054.119-.003.143-.06.075-.175.05-.546.097-.682.018-.052.082-.074.134-.076l-.092-.091.142-.027.042-.407.145-.055.04-.597.146-.052.04-1.061.146-.051c-.061-.598.07-1.319.001-1.9-.013-.106-.122-.06-.145-.182-.05-.266.008-.724-.042-1.018l-.138-.028-.05-.572-.134-.032c-.028-.15-.028-.358-.086-.495-.027-.062-.109-.053-.134-.144-.11-.397-.046-.392-.253-.782-.04-.075-.023-.231-.07-.29-.075-.095-.23.03-.17-.364-.229.01-.142-.158-.202-.24-.037-.049-.134-.029-.155-.053-.027-.03.003-.13-.03-.178-.033-.05-.14-.03-.159-.051-.028-.033.016-.138-.013-.172-.016-.018-.104 0-.154-.054-.186-.201-.272-.497-.458-.681-.175-.173-.564-.44-.707-.618-.042-.051-.248-.344-.267-.36-.033-.026-.132.004-.18-.03-.073-.05.025-.227-.231-.163l-.001-.184-.558-.095v-.185c-.09-.006-.273-.004-.343-.044-.051-.03-.015-.112-.037-.132-.027-.025-.122 0-.178-.032-.044-.027-.054-.114-.094-.14-.083-.05-.265-.005-.346-.064-.05-.037 0-.13-.055-.146-.088-.026-.306.002-.408-.043-.056-.025-.006-.111-.06-.142-.074-.043-.314-.029-.338-.053-.014-.042.018-.108-.035-.132-.118-.054-.617-.04-.67-.092l.048-.092c-.197-.067-.612 0-.764-.054-.057-.02-.055-.102-.112-.13-.172-.083-2.992-.08-3.189.003-.39.163-.557.071-.853.176-.104.037-.087.118-.144.137-.18.058-.53-.07-.56.194l-.456.042-.031.135c-.08.022-.365.024-.408.063-.021.019.008.103-.034.133-.06.043-.215.022-.246.052-.02.02.009.1-.034.133-.085.064-.308.021-.34.05-.02.017 0 .124-.05.157-.05.034-.153.002-.183.03-.02.02.016.104-.035.132-.069.038-.474.106-.52.147-.138.125.035.066-.279.207-.123.055-.267.306-.297.333-.064.058-.228-.11-.181.19-.25-.046-.187.116-.245.174-.025.026-.102.013-.147.06-.058.061-.09.266-.145.323-.05.052-.138.036-.154.053-.059.064.109.231-.193.179.044.248-.058.15-.137.21a5.042 5.042 0 00-.192.24c-.043.072-.026.195-.067.247-.04.052-.14.03-.157.051-.028.033.016.137-.013.172-.015.018-.11.007-.156.052-.063.06-.046.193-.082.224-.024.02-.1-.003-.118.016a6.19 6.19 0 00-.166.281c-.034.08-.013.217-.052.27-.036.05-.14.031-.158.05-.03.032.014.207-.013.289-.025.073-.14.073-.171.154-.039.099-.007.282-.066.4-.118.235-.117.316-.208.531-.026.062-.11.054-.134.145-.034.13-.02.263-.017.396l-.144.055c-.174 1.44-.192 2.9-.04 4.344.03.283.14.248.172.337.037.096.01.297.057.396.028.057.111.054.13.112.051.149-.048.52.187.486.018.124.023.254.06.376.006.02.145.171.15.184.037.098.011.21.04.284.027.073.125.077.154.125.033.056.008.15.033.177.02.021.102-.015.132.037.043.073.027.305.053.333.02.021.101.007.13.03.075.057.026.165.057.2.022.025.123.006.157.053.072.1-.086.232.206.19-.042.193.092.19.157.29.044.066.046.212.055.22.085.085.071.035.187.18.027.034.29.209.334.248.065.059.1.339.113.352.024.022.131-.01.183.027.044.03.027.122.057.151.035.034.309.214.335.247.14.174.22.158.249.196.018.023-.002.094.018.114.03.031.464.134.494.16.072.064-.006.23.34.197l.048.158.201.003c.01.24.243.123.354.212.082.065-.03.205.282.182l.049.16c.027.024.368-.013.477.05.055.031.016.117.034.134.02.02.281 0 .379.054.052.028.054.112.112.13.121.04.34-.005.493.058.052.021.039.103.162.125.232.043.541.046.781.054l.051.145h3.165l.05-.145.742-.04.051-.146c.177-.004.457-.013.617-.075.071-.027.156-.225.378-.16-.039-.222.263-.13.395-.177.057-.02.002-.111.058-.143.088-.048.325-.037.436-.091l-.092-.092.367-.054c-.036-.22.227-.117.333-.2.049-.04.032-.131.055-.153.034-.031.208-.019.28-.057.074-.039.079-.198.27-.139v.186c.25-.045.151.06.21.137.039.05.117.033.149.061.035.032.132.313.167.344.03.029.11.01.148.062.027.035.013.114.031.13.063.06.228-.109.181.19.196-.04.193.093.29.159.091.063.375.236.43.31.026.034.012.113.032.13.033.028.139-.016.172.012.019.017.005.097.031.131.04.051.12.033.15.06.028.03.01.108.059.148.12.097.252.141.345.206.04.029.015.103.039.13.04.043.49.192.502.222.044.175-.102.082-.163.164-.149.2-.207.144-.248.197-.018.023.001.093-.019.113-.048.052-.268.033-.307.069-.025.023-.007.122-.054.154-.05.034-.153.002-.182.03-.021.02.015.103-.036.132-.062.035-.258.023-.29.055-.02.022.015.1-.037.13-.074.043-.305.026-.335.053-.025.352-.394.003-.423.342l-.335.042c-.007.238-.157.117-.274.188-.048.029-.052.13-.125.154-.132.044-.537-.028-.46.147l-.575.1-.031.134c-.383.066-1.04.028-1.386.136-.057.018-.033.119-.149.14-.174.033-.459-.014-.655-.003a20.26 20.26 0 01-2.513 0c-.172-.01-.41.032-.563.003-.116-.022-.096-.13-.147-.141-.165-.04-.494-.026-.685-.051-.264-.035-.512-.134-.795-.084-.038-.296-.354-.142-.557-.195l-.102-.173c-.1-.026-.223.018-.316-.013-.058-.02-.06-.104-.112-.131-.104-.057-.356-.04-.447-.091-.054-.03-.016-.118-.034-.135-.032-.03-.17.02-.233-.027-.045-.033-.027-.137-.05-.157-.029-.026-.262-.01-.335-.052-.058-.034.03-.19-.268-.163l-.036-.142-.256-.027c-.084-.02-.056-.143-.085-.17-.04-.036-.259-.017-.308-.068-.021-.023.006-.103-.036-.132-.049-.033-.163-.016-.197-.054-.02-.022.003-.1-.015-.117-.03-.028-.131.004-.182-.03-.046-.032-.03-.124-.056-.153-.047-.05-.22-.03-.283-.057-.051-.023-.03-.113-.08-.16-.085-.081-.355-.11-.368-.123-.02-.024.012-.11-.006-.145-.022-.044-.073-.032-.089-.072-.016-.04.012-.134-.002-.15-.018-.018-.145.025-.18-.006-.018-.017-.003-.097-.03-.131-.024-.031-.3-.21-.336-.246-.037-.037-.216-.31-.248-.334-.034-.026-.114-.012-.131-.031-.03-.033.015-.138-.014-.171-.016-.02-.096-.006-.13-.031-.055-.041-.042-.123-.075-.161-.029-.034-.315-.22-.337-.242-.036-.04-.017-.256-.068-.304-.029-.026-.121-.009-.153-.055-.034-.05-.004-.149-.03-.179-.022-.024-.123-.005-.157-.053s-.003-.148-.03-.179c-.021-.024-.122-.004-.156-.052-.035-.049-.003-.149-.03-.18-.022-.024-.124-.006-.157-.05-.05-.066.008-.22-.042-.286-.034-.046-.138-.028-.158-.05-.024-.026-.096-.617-.145-.705-.03-.052-.116-.015-.134-.034-.019-.02-.015-.223-.046-.302-.03-.078-.106-.076-.138-.142-.08-.165.033-.347-.2-.365-.003-.193.042-.433-.185-.466l-.05-.524-.137-.032c-.038-.186-.022-.41-.055-.589-.023-.125-.107-.109-.126-.159-.098-.267.012-.713-.057-.909-.022-.062-.115-.054-.133-.109-.099-.309-.085-2.731 0-3.085.011-.05.12-.03.141-.146.046-.237-.027-.614.043-.878l.138-.03.048-.713.138-.028c.018-.019-.006-.335.05-.431.032-.055.117-.004.143-.06.05-.111.017-.343.053-.45.025-.076.148-.078.172-.152.026-.08-.012-.185.014-.266.019-.057.104-.06.132-.11.046-.085.032-.307.055-.33.019-.02.104.018.134-.035.056-.099.12-.641.186-.69.09-.068.174.058.145-.248.224.003.143-.132.203-.24.024-.045.112.003.14-.04.05-.08.032-.236.068-.299.029-.051.113-.015.132-.036.028-.029-.004-.13.031-.18.03-.045.123-.028.152-.058.028-.027.009-.107.062-.148.032-.025.107-.012.127-.034.037-.039.016-.254.07-.303.026-.025.104-.008.148-.059.033-.038.02-.12.075-.16.034-.026.113-.013.13-.03.058-.063-.108-.232.194-.18l-.001-.185h.187c-.046-.25.06-.15.138-.21.031-.023.226-.323.243-.338.027-.023.112.006.164-.022.07-.039.109-.19.155-.237.03-.03.111-.022.16-.077.028-.03.006-.108.057-.137.065-.036.248-.02.284-.055.023-.02.005-.107.057-.15.04-.032.122-.02.163-.074.025-.034.011-.114.03-.13.034-.03.144.016.176-.013.016-.015-.009-.096.012-.12.039-.045.255-.03.32-.082.049-.04.03-.132.054-.153a6.02 6.02 0 01.28-.164c.079-.033.238-.016.263-.038.021-.02.004-.123.05-.157.066-.05.22.008.287-.041.047-.035.029-.14.05-.158.033-.03.167.018.23-.027.045-.033.027-.137.05-.157.03-.027.31-.02.382-.053.056-.026.015-.107.037-.13.03-.032.26-.027.33-.058.055-.026.05-.106.113-.13.185-.068.492.048.51-.196.315-.078.872-.04 1.153-.145.062-.023.057-.102.114-.129.216-.104.603-.005.827-.047.121-.022.076-.132.183-.144.387-.044 3.05-.095 3.23.015zm15.411 3.372l.072.16-.005 6.908c.287.317.055.83.172 1.22.038.126.113.105.147.176.055.116.06.374.15.49.044.057.123.031.162.082.027.036.014.115.03.131.019.018.238.004.326.027.1.026.072.137.253.161.147.02.96.025 1.046-.021.028-.015.034-.088.082-.113.153-.082.373.038.38-.21.25.074.422-.516.483-.57.023-.02.097.002.117-.016.036-.034.044-.33.063-.406l.136-.03c.037-.2.003-.691.05-.826.023-.063.122-.059.135-.107l-.004-6.897.072-.16h4.893l.07.07v12.834l-.07.07h-4.59v-1.807c-.274-.017-.223.082-.304.183-.111.137-.608.62-.796.782-.077.066-.207.085-.25.126-.08.074.006.196-.238.181l-.002.112c-.2.072-.378-.032-.41.217l-.335.042-.069.157-.502.052-.055.144c-.218.006-.577-.02-.78.043-.057.018-.033.118-.148.14-.437.082-1.118-.066-1.584.002l-.05-.146c-.179-.023-.592 0-.738-.05-.074-.024-.079-.147-.153-.171-.113-.037-.305.019-.436-.054l.093-.091-.344-.045c-.018-.24-.245-.122-.356-.21-.052-.042-.032-.139-.052-.157-.065-.058-.23.11-.18-.191-.19.05-.182-.143-.372-.093v-.186h-.186c.064-.239-.162-.204-.188-.263-.06-.136.046-.288-.187-.322l-.145-.8-.137-.03c-.024-.172-.005-.486-.042-.637-.011-.049-.112-.045-.134-.107a7.717 7.717 0 01-.053-.551c-.177-2.967.133-6.1-.003-9.084l.072-.16h4.894zm15.727 12.974h-5.032V4.912h4.963l.07.07v12.904zm8.342.37v3.846h.14l.002-.135.184-.003c-.044-.25.059-.151.137-.21.191-.142.393-.502.531-.701.11-.16.554-.563.704-.668.026-.017.021-.09.026-.09h2.54c.008 0 .136.046.116.092-.063.002-.101.02-.13.08a3.128 3.128 0 01-.43.546c-.035.026-.115.012-.132.03-.06.063.11.219-.189.185-.044.225-.458.44-.585.599-.038.047-.196.288-.22.311-.096.09-.39-.08-.32.263l.133.032c.035.073.03.316.066.355.024.025.123.006.155.053.035.05.003.152.03.182.02.02.103-.016.133.036.043.073.026.303.053.333.023.026.143-.005.173.082.024.07-.018.212.012.244.016.018.102.004.133.028.073.058.025.17.056.203.02.021.102-.015.133.037.043.073.026.305.052.333.02.02.1.006.13.03.07.054.029.153.071.211.036.05.134.03.155.053.027.03-.003.131.03.179.036.051.141.03.16.05.036.04-.032.24.027.322.03.042.125.027.153.054.052.049.035.275.069.306.029.027.102-.023.13.039.03.068.139.385.023.385h-2.493c-.022-.141-.046-.404-.104-.524-.03-.063-.104-.066-.129-.114-.04-.075-.023-.23-.07-.29-.041-.052-.14-.032-.157-.05-.037-.04.032-.238-.028-.322-.031-.044-.137-.026-.17-.072-.043-.063-.022-.215-.051-.242-.02-.02-.1.005-.12-.014-.034-.031-.027-.267-.056-.332-.026-.058-.23-.025-.19-.216l-.137-.002v.186c-.251-.045-.152.06-.21.138-.026.032-.36.258-.375.278-.035.051-.003.151-.029.181l-.132.005v1.321l-.07.07h-1.957c-.025 0-.104-.072-.163-.047v-4.517c0-.025-.066-.104-.05-.16l-.136-.003c-.02.129-.027.341-.078.453-.032.069-.115.063-.145.135-.028.066-.034.311-.062.335l-.296.008-.055-.144c-.143-.01-.511-.117-.6.003-.021.03-.008.105-.033.127-.023.021-.311.066-.351.114-.036.042-.027.244-.069.328-.035.071-.176.113-.176.286v3.035c-.059-.025-.138.047-.163.047h-2.004l-.07-.07v-5.375c0-.023.112-.138.094-.208h1.91l.091.674.142.021c.006-.07.019-.277.06-.315.023-.023.102.006.131-.037.033-.047.02-.17.052-.196.075-.066.344.044.343-.197.19.045.38-.045.554-.045.102 0 .522.031.61.047.132.025.079.18.231.141a.81.81 0 00.07-.163v-1.923c.127-.037.206-.082.347-.095a11.967 11.967 0 011.59 0c.089.007.168.027.253.049zm-20.224 0c.291-.086.549-.002.813.002 1.336.02 2.913-.124 4.196-.001.282.027.257.153.332.177.082.027.187-.012.267.015.087.028.288.324.32.353.039.037.256.018.305.067.05.049.032.266.067.305.023.024.118.005.154.054.03.042.014.128.05.185.022.034.087.039.112.084.06.112.057.416.098.577.01.038.082.021.093.102.019.15.019.598 0 .748-.01.078-.075.051-.101.133-.06.19-.01.495-.09.639-.028.05-.104.05-.13.113-.03.075-.006.177-.053.261-.084.15-.414.11-.33.354-.255-.049-.194.134-.242.178-.04.037-.268.026-.333.055-.06.026 0 .115-.06.142-.07.031-.362.029-.385.051l-.03.136c-.107-.053-.268.043-.324.043h-2.167l-.044 2.84c-.01.031-.106.079-.119.079h-2.4v-7.692zm3.541 1.483h-.979a7.447 7.447 0 000 1.807h.932c.008 0-.003-.108.075-.133.113-.035.333.017.454-.05.051-.03.02-.1.04-.128.035-.045.133-.03.166-.07.11-.127.126-.942.036-1.058-.031-.042-.123-.027-.152-.056-.034-.033-.008-.145-.088-.167l-.53-.053.046-.092zm31.866-5.409c.02.024-.003.102.013.119.02.019.422.044.525.107.118.073.009.24.263.179l-.001.186.187-.001c-.045.249.059.151.137.21.056.04.042.122.074.16.045.055.138.034.155.054.029.033-.015.138.013.171.016.02.11.003.156.053.067.074.05.288.08.318.02.018.093-.005.117.018.03.027.009.109.062.15.031.026.108.013.128.034.02.022.105.488.162.537.024.021.1-.002.118.016.028.03-.004.13.03.181.032.046.126.029.154.055.037.035.021.144.054.192.033.049.136.023.17.073.032.05.002.152.03.181.018.019.095-.005.118.015.05.044.033.268.07.306.022.025.12.006.154.054s.003.148.03.179c.021.023.117.004.155.053.042.053.024.178.067.248.074.122.248.245.305.309.052.058.037.182.071.244.117.212.347.356.485.548.07.097.052.276.084.311.024.03.137.003.198.104.054.088.058.262.073.368l.185.001.005.182.125.01c.03.027.013.245.08.319.046.05.14.033.156.052.028.034-.016.139.013.172.017.02.116 0 .157.052.05.062.032.233.067.296.03.052.113.015.133.036.028.03-.004.132.03.181.035.05.135.029.157.053.022.026.002.117.034.175.021.038.102.04.13.105.132.3-.002.229-.122.276-.08.031-.045.12-.215.156-.16.034-1.023.11-1.067.173-.024.034.014.116-.035.129-.163-.003-.394-.015-.543.047-.048.02-.04.088-.125.115-.162.05-.412.061-.585.063l-.03.135-.577.05-.029.136-.323.034c-.118-.174-.143-.336-.16-.54l-.159-.05-.027-.229-.159-.048-.004-.337-.169-.07-.04-.332-.16-.049c-.03-.032.014-.206-.014-.29-.02-.056-.103-.058-.132-.11-.046-.084-.078-.444-.103-.467-.024-.022-.107.018-.132-.037-.03-.064-.011-.229-.047-.304-.024-.052-.097-.052-.127-.115-.04-.08-.037-.297-.067-.33-.053-.056-.234.018-.183-.283l-.124-.01c-.033-.1-.022-.24-.067-.332-.03-.063-.103-.068-.128-.114-.046-.086-.033-.307-.056-.33-.018-.02-.103.018-.133-.035-.039-.066-.021-.23-.055-.31-.051-.119-.31-.513-.353-.618-.052-.132-.06-.412-.112-.539-.036-.083-.147-.084-.17-.155-.05-.148.087-.34-.187-.346l-.027-.322-.17-.071c0-.116.003-.354-.041-.452-.027-.06-.116 0-.143-.06-.066-.144.044-.43-.175-.393-.034-.03-.027-.272-.055-.335-.026-.059-.116 0-.143-.06-.024-.052-.06-.348-.04-.403l.04-.056c.24.026.162-.128.218-.161.128-.075 1.473-.07 1.546.014v-.001zm-23.817 5.979c.027.017.028.093.09.116.34.125.132.068.259.184.039.037.257.017.305.069.022.024.012.093.036.124.028.036.296.21.336.246.05.044.037.251.069.328.028.065.104.057.138.142.247.608-.114 2.768.037 3.574.02.106.112.086.15.179.066.163.003.349.035.463.014.054.231.025.189.167l-2.163.05-.083-.367-.125-.01-.006-.183-.16-.002c-.022.242-.206.153-.252.198-.021.019.015.101-.037.131-.073.043-.311.028-.337.053-.02.019.018.101-.036.133-.127.074-.381.01-.5.051-.057.019-.054.103-.112.13-.183.088-1.24.059-1.468.003-.05-.012-.045-.112-.108-.133-.11-.036-.34.016-.454-.051-.053-.031-.015-.112-.037-.132-.03-.028-.132.004-.182-.03-.072-.048.026-.222-.228-.168-.02-.018-.106-.447-.143-.518-.031-.057-.12-.041-.14-.149-.025-.13-.013-.931.031-1.033.028-.064.111-.064.145-.136.034-.069.067-.35.112-.378.042-.026.14.014.172-.013.022-.02.001-.125.051-.158.05-.033.153-.002.182-.03.022-.02-.016-.101.037-.132.114-.067.345-.015.454-.051.056-.02.054-.103.111-.13.19-.092.526-.001.68-.056.064-.022.059-.12.109-.133.167-.04.545-.005.684-.052.056-.019.054-.102.112-.13.189-.091.522-.002.678-.056.088-.03.16-.288.45-.178-.017-.107.037-.341-.021-.42-.03-.041-.123-.026-.153-.055-.03-.03-.014-.122-.056-.152-.107-.079-.816.017-1.002-.024.005.22-.28.142-.356.265-.053.088-.025.258-.05.287-.13.154-.752.01-.946.005-.241-.007-.897.051-1.066-.006-.268-.09-.14-.862-.03-.942.035-.025.115-.01.132-.03.058-.063-.11-.23.193-.178v-.186l.18-.006c-.015-.234.186-.145.232-.188.022-.02-.015-.101.037-.132.114-.067.343-.016.453-.052.07-.023.045-.142.29-.172.404-.05 2.86-.083 3.081.054zm-.919 3.09l-.23.007c.027.257-.459.146-.634.178-.106.019-.091.106-.15.139-.11.06-.4.031-.424.054-.017.015-.004.094-.03.13-.027.035-.285.16-.324.234-.064.124-.008.322-.026.464l.188-.001-.001.186c.256-.037.774.068.99-.048.047-.026.051-.097.114-.127.078-.038.232-.024.295-.081.045-.041.03-.124.06-.15.032-.03.172.011.172-.22V23.4zM44.618 0v3.267c0 .036-.08.17-.116.208h-4.87c.026-.06-.046-.137-.046-.162V0h5.032z" fill="#95A6AF"/></svg>