<svg width="114" height="20" viewBox="0 0 114 20" fill="none" xmlns="http://www.w3.org/2000/svg"><path d="M65.676.42L67.76 8.5c.552.049.336.007.409-.314.215-.948 1.795-7.49 2.098-7.755.096-.083 2.366-.09 2.493.1l2.36 7.968L77.394.611c.31-.417 1.645-.118 2.182-.201-.53 1.155-2.905 9.64-3.347 9.924-.193.123-2.07.116-2.36-.176l-2.28-7.884-2.404 8.069c-.094.078-2.337.058-2.439-.009-.437-.28-2.627-8.692-3.349-9.818l2.275-.098.004.002zm47.909-.008V2.07h-8.294v2.28h5.806v1.66h-5.806v2.488H114v1.866h-10.783V.412h10.368zm-25.505 0c.022.015.033.33.203.512 1.93 2.09 3.569 4.463 5.404 6.634.282.334.576.991 1.028.941V.412h1.867v9.954c-.907-.114-2.238.25-3.02-.195l-6.727-8.1v8.295H84.97V.412c.537.116 2.866-.157 3.11 0zm-43.132 0V2.07h-4.77v8.294h-1.866V2.071h-4.769V.41h11.405zm13.686 14.515c1.315-.438.618 2.084.935 2.076 1.39-.598 2.393-2.223 4.042-2.074l-2.281 1.758 2.488 2.493c.125.406-.255.35-.527.32-1.138-.131-2.312-2.305-2.484-2.298-.929.03-1.663 1.401-1.343 2.287-.148-.03-.83.041-.83 0v-4.562zM25.466 1.75c-.035-.413-.043-.795-.315-1.137L.035.6 0 19.233l24.95.062c.303-.245.527-.527.516-.936-.365-5.374.448-11.303 0-16.61zM12.243 5.447c.954-.954 2.801-.44 2.865 1.078.15 3.559-5.157 1.213-2.865-1.078zm11.938-.205c-.36 1.414-6.536 4.802-8.056 5.331.785.392 4.566 4.309 2.144 4.514-.784.067-1.101-1.037-1.526-1.503-1.13-1.242-2.08-1.937-3.729-2.389-.514.07-1.144-.07-1.659 0-2.158.293-5.113 2.107-6.907 3.357-.601.42-2.36 2.146-2.897 2.012-.742-.187-.925-1.05-.444-1.624 1.286-1.537 5.313-3.842 7.223-4.605.186-.075.3-.374.332-.384-.826-.367-4.25-4.11-1.937-4.307.784-.066 1.1 1.037 1.526 1.503.985 1.083 1.833 1.87 3.314 2.182.939.197 1.175.116 2.073 0 2.188-.284 4.216-1.36 6.04-2.565.753-.498 3.047-2.563 3.603-2.599.555-.035 1.045.51.902 1.077h-.002zm36.12-.38c-.247-3.65-4.578-5.182-7.726-4.807-2.426.29-5.13 1.95-5.354 4.6-.674 8.012 13.603 7.91 13.08.207zm-2.096 1.24c-.512 3.27-6.623 3.728-8.49 1.051-1.466-2.102.077-4.84 2.437-5.24 2.944-.5 6.623.562 6.053 4.189zm-3.316 11.636c0-.096.568-.245.8-.68.567-1.058-.25-1.958-1.306-2.13-1.066-.175-2.513.126-3.629 0v4.562c1.483.47.544-1.377.828-1.661.062-.063 1.524-.044 1.777-.013 1.19.146 1.055 2.088 2.58 1.67.082-.06-1.048-1.309-1.05-1.75v.002zM54.59 17h-3.006v-1.246c.566.048 3.052-.143 3.297.226.153.232-.056 1.018-.29 1.018V17zm-15.137-2.072h-3.629v4.561c1.48.471.545-1.376.83-1.658.113-.114 2.753 0 3.214 0 1.25 0 1.72-2.903-.415-2.903zM39.66 17h-3.006v-1.246c.566.048 3.052-.143 3.297.226.153.232-.056 1.018-.29 1.018V17zm6.906-1.098c-.502-.813-.79-1.497-1.71-.547-.26.271-2.191 3.799-2.191 4.029 0 .935 1.493-.86 1.597-.892.431-.133 2.588-.13 2.872.164.44.454-.023 1.116 1.34.834-.666-1.135-1.226-2.478-1.908-3.586v-.002zm-2.033 1.72c.195-.302.78-1.992 1.242-1.658.075.054.459 1.429.832 1.657h-2.074z" fill="#95A6AF"/></svg>