<svg width="106" height="22" viewBox="0 0 106 22" fill="none" xmlns="http://www.w3.org/2000/svg"><path d="M0 0l3.557.055v12.456c0 .693.863 1.19 1.485 1.19h1.704V0h3.52l-.002 12c.045.655.137 1.259.81 1.536.14.058.539.165.677.165h1.814V0h3.52v15.039c0 .888-1.046 1.647-1.889 1.63-3.491-.114-7.08.151-10.56.001-2.74-.118-4.45-1.127-4.636-4.031V0zm43.372 21.494v-3.147l3.752.002c.637-.054 1.412-.19 1.603-.9.028-.104.115-.652.015-.676-2.855-.173-7.918.982-8.142-3.198v-9.04l.056-.126h3.566v7.884c0 .71.572 1.555 1.349 1.555h3.122V4.464l.055-.055h3.547l.057.126c-.03 4.34.054 8.686-.043 13.021-.159 1.837-1.717 3.266-3.424 3.781l-.747.157h-4.766zm14.632-10.47v5.694h-3.626V.185l8.151-.001c1.231.101 2.607.093 3.67.796 2.222 1.47 2.383 5.633 1.324 7.832-.943 1.956-3.111 2.184-5.067 2.25-1.483.052-2.974-.034-4.452-.037zm0-3.211l4.342.001c1.665-.118 2.435-.791 2.327-2.503-.091-1.434-1.074-1.81-2.363-1.916l-4.306.002v4.416zM96.58.22v8.558l4.25-4.278 4.435-.055-5.685 6.1 5.648 6.173h-4.269l-4.38-4.261v4.26h-3.622V.185l3.622.036zM19.339 4.48l.126-.056c2.424.057 4.873-.088 7.29.04 1.997.105 3.205.604 3.373 2.814l-.001 9.438-8.548.002c-2.748-.151-3.96-2.214-3.469-4.81.363-1.914 2.074-2.669 3.87-2.757l4.863-.003c.02-.088.043-.175.043-.268 0-.3-.05-.81-.213-1.064-.166-.26-.442-.37-.735-.43a4.393 4.393 0 00-.313-.052H19.34V4.48v.001zm7.508 7.29H22.2c-.083 0-.35.072-.444.103-1.154.395-.8 2.225.334 2.225h4.756V11.77zm42.288-7.36h7.907c2.098.147 2.958 1.087 3.055 3.13l-.001 9.176-8.907.002c-2.428-.212-3.533-1.874-3.388-4.197.149-2.375 1.924-3.29 4.129-3.387 1.583-.071 3.221.054 4.81.003.042-.011.063-.228.063-.276 0-.278-.054-.789-.18-1.033-.285-.55-1.128-.499-1.654-.562l-5.834.001V4.411zm7.813 7.362h-4.832c-.084 0-.443.12-.533.169-.963.516-.563 2.175.496 2.175h4.869v-2.344zm14.899-2.014h-3.332v-1.19c0-.156-.139-.544-.239-.674-.085-.113-.37-.297-.503-.297h-2.988l-.036 9.12h-3.55V4.594l7.662-.002c2.35.167 2.91 1.164 2.987 3.388.02.591-.018 1.187-.001 1.778zM34.905 0v16.718h-3.62l-.054-.056V0h3.674zm4.592 0h-3.674v16.718h3.674V0zm59.797 18.187l1.378 2.05-.036-2.05h.588v2.755h-.827l-1.377-2.084.036 2.084h-.588v-2.755h.826zm-30.556-.177c1.237-.098 1.822.845 1.562 2.061-.313 1.466-2.693 1.404-2.86-.184-.109-1.025.257-1.795 1.298-1.877zm.686 2.383c.313-.306.31-1.209.08-1.566-.214-.33-.725-.375-1.04-.187-.449.27-.46 1.26-.186 1.665.236.346.855.374 1.146.089zm35.657.563c-.984.28-2.283.364-2.528-.954-.265-1.428.706-2.172 1.985-1.965.092.015.413.08.47.125.101.08-.144.409-.15.518-.503-.174-1.101-.285-1.468.215-.27.37-.267 1.112.035 1.465.258.302.645.255.994.21v-.654h-.588v-.54h1.25v1.58zm-30.863-.014h-.713l-.66-1.024-.373-.036v1.06h-.642v-2.755h1.301c.026 0 .233.062.278.078.743.265.644 1.219-.045 1.494l.854 1.183zm-1.746-1.518c.294.012.82-.008.82-.407 0-.4-.537-.378-.82-.37v.777zm18.28 1.518h-.713l-.66-1.024-.374-.035v1.06h-.641v-2.756h1.301c.026 0 .232.062.277.078.742.264.637 1.22-.044 1.494l.854 1.183zm-1.747-1.518c1.088.104 1.101-.907 0-.777v.777zm-25.993 1.518h-.67l-.72-1.026-.383-.033v1.06h-.615v-2.756h1.285c.018 0 .215.055.255.069.787.254.699 1.217-.02 1.503l.868 1.183zm-1.773-2.296v.724c.235.135.818.014.834-.318.02-.441-.517-.413-.834-.406zm31.663-.459v1.236l1.154-1.236h.7l-1.06 1.218 1.098 1.537h-.738l-.85-1.15-.304.179v.971h-.68v-2.755h.68zM54.01 20.942l1.07-2.9.795-.039 1.075 2.94h-.69l-.216-.653-1.13.005-.232.647h-.672zm1.887-1.19l-.417-1.264-.381 1.265h.798zm28.242 1.19l1.119-2.939.75.008 1.07 2.931h-.698l-.187-.665-1.176.018-.18.647h-.698zm1.065-1.189h.808c-.11-.382-.217-.773-.358-1.145-.017-.047.017-.098-.064-.082l-.386 1.227zm-20.226.2v.99h-.68v-2.756h1.418c.05 0 .35.111.41.147.47.276.496 1.015.1 1.355-.12.103-.47.264-.624.264h-.624zm0-.459c.36.015.835-.01.835-.442 0-.44-.481-.419-.835-.406v.848zm16.844.459v.99H81.2v-2.756h1.298c.047 0 .32.111.375.147.451.29.463 1.084.04 1.407-.095.073-.41.212-.519.212h-.57zm0-1.307v.848c.329.008.777 0 .777-.442s-.448-.411-.777-.406zm-4.297-.459v.459h-.858v2.296h-.672v-2.296h-.858v-.46h2.388zm19.289 0h-.734v2.755h.734v-2.755zm-37.844 0h-.734v2.755h.735v-2.755z" fill="#95A6AF"/><path d="M105.071 13.418c1.216-.141 1.252 1.738.026 1.643-.976-.076-1.015-1.527-.026-1.643zm-.001.138c-.869.131-.716 1.526.262 1.359.795-.137.638-1.496-.262-1.36z" fill="#95A6AF"/><path d="M104.898 13.782c.265.002.738-.062.735.278-.003.21-.254.22-.258.26l.256.375c-.327.04-.249-.463-.587-.392v.392h-.146v-.913zm.146.391c.584.084.584-.344 0-.261v.261z" fill="#95A6AF"/></svg>