<svg width="278" height="52" viewBox="0 0 278 52" fill="none" xmlns="http://www.w3.org/2000/svg"><path d="M12.53 17.888h4.104c-.08 1.776-.441 3.287-1.086 4.535a6.614 6.614 0 01-2.78 2.832c-1.199.652-2.662.978-4.392.978-1.311 0-2.487-.236-3.527-.708a7.25 7.25 0 01-2.628-2.04C1.498 22.586.944 21.49.56 20.198c-.373-1.293-.56-2.76-.56-4.4v-4.35c0-1.641.192-3.108.576-4.4.396-1.293.961-2.39 1.696-3.288a7.094 7.094 0 012.68-2.04c1.062-.472 2.26-.708 3.594-.708 1.707 0 3.142.326 4.306.977 1.165.652 2.063 1.608 2.696 2.867.633 1.258 1 2.793 1.103 4.602h-4.104c-.056-1.225-.226-2.203-.508-2.933-.272-.742-.69-1.276-1.255-1.602-.554-.326-1.3-.489-2.238-.489-.78 0-1.453.146-2.018.438-.554.293-1.012.73-1.373 1.315-.35.574-.617 1.299-.797 2.175-.17.866-.255 1.883-.255 3.052v4.383c0 1.124.074 2.119.22 2.984.148.866.385 1.602.713 2.209a3.48 3.48 0 001.305 1.366c.543.303 1.221.455 2.035.455.972 0 1.747-.152 2.323-.455.588-.304 1.023-.815 1.306-1.535.282-.719.457-1.697.525-2.933zM23.128 0v25.896h-3.933V0h3.933zm-.695 16.118h-1.255c-.011-1.27.125-2.44.407-3.507.283-1.068.69-2 1.221-2.799.531-.798 1.17-1.41 1.916-1.838a4.92 4.92 0 012.51-.657c.757 0 1.44.13 2.051.388.622.247 1.153.64 1.594 1.18.452.54.797 1.248 1.034 2.124.238.866.356 1.922.356 3.17v11.717h-3.95V14.145c0-.865-.096-1.551-.289-2.057-.18-.506-.452-.87-.813-1.096-.362-.225-.82-.337-1.374-.337-.543 0-1.029.146-1.458.439-.418.28-.774.674-1.068 1.18a5.858 5.858 0 00-.662 1.736 9.57 9.57 0 00-.22 2.108zm20.093 10.115c-1.187 0-2.244-.174-3.17-.522a6.228 6.228 0 01-2.357-1.585c-.645-.708-1.136-1.574-1.476-2.597-.339-1.034-.508-2.23-.508-3.59v-1.754c0-1.54.175-2.866.526-3.979.361-1.124.859-2.045 1.492-2.765A5.909 5.909 0 0139.27 7.84a7.55 7.55 0 012.831-.523c1.153 0 2.154.185 3.002.556a5.05 5.05 0 012.085 1.67c.554.741.96 1.657 1.22 2.748.272 1.09.408 2.343.408 3.76v1.972H36.914v-2.968h8.003v-.421c-.023-.832-.124-1.546-.305-2.141-.181-.607-.475-1.068-.882-1.383-.396-.326-.944-.489-1.645-.489-.508 0-.96.096-1.356.287-.396.191-.724.5-.983.927-.25.427-.441 1-.577 1.72-.136.708-.203 1.585-.203 2.63v1.753c0 .91.079 1.68.237 2.31.17.63.418 1.147.746 1.551a3.02 3.02 0 001.187.877c.475.18 1.023.27 1.645.27.915 0 1.7-.169 2.356-.506a5.974 5.974 0 001.73-1.349l1.746 2.411c-.328.438-.768.871-1.322 1.298-.554.416-1.227.759-2.018 1.029-.78.27-1.696.404-2.747.404zm17.279-4.046V13.1c0-.63-.09-1.135-.272-1.518-.17-.382-.424-.657-.763-.826-.327-.18-.74-.27-1.237-.27-.52 0-.961.107-1.323.32-.35.214-.616.507-.797.878-.18.36-.271.775-.271 1.247h-3.95c0-.73.146-1.433.44-2.107a5.635 5.635 0 011.306-1.804c.565-.528 1.249-.944 2.051-1.248.803-.303 1.696-.455 2.68-.455 1.175 0 2.22.197 3.136.59a4.463 4.463 0 012.154 1.871c.53.855.796 1.979.796 3.372v8.514c0 .843.051 1.596.153 2.26.113.651.266 1.219.458 1.702v.27h-4.019c-.18-.438-.316-1-.407-1.686-.09-.686-.135-1.36-.135-2.023zm.525-7.401l.017 2.545h-1.899a4.66 4.66 0 00-1.526.236 3.19 3.19 0 00-1.153.641c-.305.27-.542.602-.712.995a3.448 3.448 0 00-.237 1.298c0 .573.079 1.04.237 1.4.17.359.413.629.73.809.327.168.723.252 1.186.252.633 0 1.181-.134 1.645-.404.475-.281.836-.618 1.085-1.012.26-.393.362-.753.305-1.079l.899 1.636a5.22 5.22 0 01-.509 1.348 6.142 6.142 0 01-.932 1.35 4.607 4.607 0 01-1.39 1.045c-.543.258-1.17.387-1.883.387-1.029 0-1.944-.213-2.747-.64a4.727 4.727 0 01-1.899-1.838c-.452-.81-.678-1.776-.678-2.9 0-.91.153-1.736.458-2.478a5.087 5.087 0 011.356-1.905c.6-.54 1.351-.956 2.255-1.248.916-.292 1.984-.438 3.205-.438h2.187zm10.734-3.626v21.75H67.13V7.654h3.612l.322 3.507zm9.868 4.89v1.45c0 1.427-.13 2.686-.39 3.777-.26 1.09-.644 2.006-1.153 2.748-.497.73-1.113 1.281-1.848 1.652-.735.37-1.594.556-2.577.556-.927 0-1.735-.202-2.425-.607-.678-.404-1.249-.972-1.712-1.703-.464-.73-.837-1.595-1.12-2.596a21.309 21.309 0 01-.593-3.304v-2.226a23.71 23.71 0 01.576-3.44c.272-1.044.64-1.943 1.103-2.697.474-.753 1.05-1.331 1.73-1.736.677-.405 1.486-.607 2.424-.607.983 0 1.848.174 2.594.523.746.348 1.368.882 1.865 1.601.509.72.887 1.63 1.136 2.731.26 1.09.39 2.383.39 3.878zm-3.95 1.45v-1.45c0-.933-.063-1.736-.187-2.41-.113-.686-.305-1.248-.576-1.687a2.524 2.524 0 00-1-.977c-.396-.214-.888-.32-1.476-.32-.52 0-.978.106-1.373.32-.396.213-.73.51-1 .893-.272.37-.487.815-.645 1.332a7.4 7.4 0 00-.305 1.652v4.13a8.85 8.85 0 00.508 1.99c.238.596.582 1.074 1.035 1.433.463.36 1.068.54 1.814.54.576 0 1.068-.113 1.475-.338a2.49 2.49 0 00.983-1.011c.26-.45.447-1.012.56-1.686.124-.686.186-1.49.186-2.41z" fill="#EEE"/><path d="M93.336 4.72l-5.968 21.176H83.06l7.833-24.547h2.68l-.238 3.372zm4.765 21.176L92.115 4.721l-.288-3.372h2.73l7.867 24.547h-4.323zm.101-9.12v3.438H86.707v-3.439h11.495zm10.208-9.122v18.242h-3.95V7.654h3.95zm-4.154-4.788c0-.63.192-1.152.577-1.568.384-.416.921-.624 1.611-.624.689 0 1.226.208 1.61.624.385.416.577.939.577 1.568 0 .618-.192 1.135-.577 1.551-.384.416-.921.624-1.61.624-.69 0-1.227-.208-1.611-.624-.385-.416-.577-.933-.577-1.55zm11.633 8.312v14.718h-3.951V7.654h3.764l.187 3.524zm4.425-3.642l-.017 3.878a3.673 3.673 0 00-.729-.101 8.274 8.274 0 00-.746-.034c-.543 0-1.012.095-1.407.287-.396.19-.73.466-1.001.826-.271.36-.486.792-.644 1.298a7.568 7.568 0 00-.271 1.72l-.848.033c0-1.146.09-2.208.271-3.186.181-.99.452-1.85.814-2.58.373-.742.836-1.32 1.39-1.736.554-.416 1.199-.624 1.933-.624.204 0 .435.022.695.067.26.045.447.096.56.152zm5.969 3.624v21.75h-3.934V7.654h3.612l.322 3.507zm9.868 4.89v1.45c0 1.427-.13 2.686-.39 3.777-.26 1.09-.644 2.006-1.153 2.748-.497.73-1.113 1.281-1.848 1.652-.735.37-1.594.556-2.577.556-.927 0-1.735-.202-2.425-.607-.678-.404-1.249-.972-1.712-1.703-.464-.73-.837-1.595-1.119-2.596a21.178 21.178 0 01-.594-3.304v-2.226a23.68 23.68 0 01.577-3.44c.271-1.044.638-1.943 1.102-2.697.475-.753 1.051-1.331 1.729-1.736.678-.405 1.487-.607 2.425-.607.983 0 1.848.174 2.594.523.746.348 1.368.882 1.865 1.601.509.72.888 1.63 1.136 2.731.26 1.09.39 2.383.39 3.878zm-3.95 1.45v-1.45c0-.933-.063-1.736-.187-2.41-.113-.686-.305-1.248-.576-1.687a2.524 2.524 0 00-1.001-.977c-.395-.214-.887-.32-1.475-.32-.52 0-.978.106-1.373.32a2.919 2.919 0 00-1.001.893c-.271.37-.486.815-.644 1.332a7.4 7.4 0 00-.305 1.652v4.13a8.83 8.83 0 00.508 1.99c.238.596.583 1.074 1.035 1.433.463.36 1.068.54 1.814.54.576 0 1.068-.113 1.475-.338.407-.224.735-.561.984-1.011.26-.45.446-1.012.559-1.686.124-.686.187-1.49.187-2.41zm6.02.017V16.05c0-1.416.175-2.67.525-3.76.351-1.09.848-2 1.492-2.73a6.327 6.327 0 012.306-1.67c.882-.382 1.854-.573 2.917-.573 1.085 0 2.068.191 2.95.573a6.124 6.124 0 012.306 1.67c.655.73 1.159 1.64 1.509 2.73.35 1.09.526 2.344.526 3.76v1.467c0 1.416-.176 2.67-.526 3.76-.35 1.09-.854 2.006-1.509 2.748a6.245 6.245 0 01-2.289 1.652c-.882.37-1.86.556-2.933.556-1.063 0-2.041-.185-2.934-.556a6.406 6.406 0 01-2.306-1.652c-.655-.742-1.158-1.658-1.509-2.748-.35-1.09-.525-2.344-.525-3.76zm3.95-1.467v1.467c0 .91.079 1.708.238 2.394.158.674.384 1.236.678 1.686.294.45.644.787 1.051 1.011a2.76 2.76 0 001.357.338c.553 0 1.034-.113 1.441-.338a2.695 2.695 0 001.034-1.011c.283-.45.492-1.012.627-1.686.136-.686.204-1.484.204-2.394V16.05c0-.899-.079-1.686-.238-2.36-.158-.686-.384-1.253-.678-1.703-.294-.46-.65-.804-1.068-1.028a2.757 2.757 0 00-1.356-.338c-.486 0-.933.113-1.34.338-.396.224-.74.567-1.034 1.028-.294.45-.52 1.017-.678 1.703-.159.674-.238 1.461-.238 2.36zm17.245-4.872v14.718h-3.951V7.654h3.764l.187 3.524zm4.425-3.642l-.017 3.878a3.673 3.673 0 00-.729-.101 8.274 8.274 0 00-.746-.034c-.542 0-1.012.095-1.407.287a2.726 2.726 0 00-1.001.826c-.271.36-.486.792-.644 1.298a7.624 7.624 0 00-.271 1.72l-.848.033c0-1.146.09-2.208.271-3.186.181-.99.452-1.85.814-2.58.373-.742.837-1.32 1.391-1.736.553-.416 1.198-.624 1.933-.624.203 0 .435.022.695.067.26.045.446.096.559.152zm10.276.118v3.035h-9.003V7.654h9.003zm-6.545-4.468h3.934v17.619c0 .561.062.989.186 1.28.125.293.3.49.526.59.226.102.492.153.797.153.226 0 .446-.017.661-.051a4.53 4.53 0 00.492-.118v3.17a6.537 6.537 0 01-1.017.286 7.05 7.05 0 01-1.391.118c-.802 0-1.52-.163-2.153-.489-.633-.337-1.131-.882-1.492-1.635-.362-.764-.543-1.776-.543-3.035V3.186z" fill="#D6EE19"/><path d="M187.234 16.792h-5.205v-3.423h5.205c.859 0 1.549-.18 2.069-.539.52-.36.898-.854 1.136-1.484.249-.629.373-1.343.373-2.14a6.18 6.18 0 00-.373-2.159c-.238-.674-.616-1.22-1.136-1.635-.52-.416-1.21-.624-2.069-.624h-4.035v21.108h-4.12V1.349h8.155c1.639 0 3.03.337 4.171 1.011a6.758 6.758 0 012.645 2.782c.611 1.169.916 2.512.916 4.03 0 1.584-.305 2.944-.916 4.08a6.328 6.328 0 01-2.645 2.63c-1.141.606-2.532.91-4.171.91zm18.669 5.395V13.1c0-.63-.09-1.135-.271-1.518-.17-.382-.424-.657-.763-.826-.328-.18-.741-.27-1.238-.27-.52 0-.961.107-1.322.32a2.057 2.057 0 00-.797.878c-.181.36-.272.775-.272 1.247h-3.95c0-.73.147-1.433.44-2.107a5.65 5.65 0 011.306-1.804c.565-.528 1.249-.944 2.052-1.248.802-.303 1.695-.455 2.679-.455 1.175 0 2.221.197 3.137.59a4.465 4.465 0 012.153 1.871c.531.855.797 1.979.797 3.372v8.514c0 .843.051 1.596.152 2.26.113.651.266 1.219.458 1.702v.27h-4.018c-.181-.438-.317-1-.407-1.686a15.364 15.364 0 01-.136-2.023zm.526-7.401l.017 2.545h-1.899c-.566 0-1.074.08-1.526.236-.452.147-.837.36-1.153.641a2.76 2.76 0 00-.712.995 3.433 3.433 0 00-.238 1.298c0 .573.079 1.04.238 1.4.169.359.412.629.729.809.327.168.723.252 1.187.252.633 0 1.181-.134 1.644-.404.475-.281.837-.618 1.085-1.012.26-.393.362-.753.306-1.079l.898 1.636c-.09.427-.26.876-.508 1.348a6.18 6.18 0 01-.933 1.35 4.61 4.61 0 01-1.39 1.045c-.543.258-1.17.387-1.882.387-1.029 0-1.945-.213-2.747-.64a4.722 4.722 0 01-1.899-1.838c-.452-.81-.679-1.776-.679-2.9 0-.91.153-1.736.458-2.478a5.087 5.087 0 011.357-1.905c.599-.54 1.351-.956 2.255-1.248.915-.292 1.984-.438 3.204-.438h2.188zm10.733-3.608v14.718h-3.95V7.654h3.764l.186 3.524zm4.426-3.642l-.017 3.878a3.673 3.673 0 00-.729-.101 8.29 8.29 0 00-.746-.034c-.543 0-1.012.095-1.408.287a2.723 2.723 0 00-1 .826c-.271.36-.486.792-.644 1.298a7.621 7.621 0 00-.272 1.72l-.847.033c0-1.146.09-2.208.271-3.186.181-.99.452-1.85.814-2.58.373-.742.836-1.32 1.39-1.736.554-.416 1.198-.624 1.933-.624.204 0 .435.022.695.067.26.045.447.096.56.152zM227.574 0v25.896h-3.951V0h3.951zm9.495 7.654l-6.511 8.818-3.951 4.467-1-3.473 2.899-4.097 3.832-5.715h4.731zm-3.951 18.242l-4.527-8.53 2.476-2.884 6.595 11.414h-4.544zm10.157-18.242v18.242h-3.95V7.654h3.95zm-4.154-4.788c0-.63.193-1.152.577-1.568.384-.416.921-.624 1.611-.624.689 0 1.226.208 1.61.624.385.416.577.939.577 1.568 0 .618-.192 1.135-.577 1.551-.384.416-.921.624-1.61.624-.69 0-1.227-.208-1.611-.624-.384-.416-.577-.933-.577-1.55zm11.582 8.683v14.347h-3.951V7.654h3.713l.238 3.895zm-.712 4.569h-1.255c-.011-1.315.13-2.512.424-3.591.294-1.08.712-2.007 1.254-2.782.543-.776 1.193-1.371 1.95-1.787.769-.427 1.622-.641 2.561-.641.734 0 1.401.124 2 .37a3.65 3.65 0 011.56 1.164c.43.54.758 1.242.984 2.108.237.865.356 1.922.356 3.17v11.767h-3.951V14.094c0-.854-.096-1.528-.288-2.023-.181-.505-.452-.865-.814-1.079-.362-.225-.819-.337-1.373-.337-.509 0-.978.146-1.408.439-.418.28-.78.674-1.085 1.18a6.186 6.186 0 00-.678 1.736 8.93 8.93 0 00-.237 2.108zm22.89-8.464h3.578v18.31c0 1.64-.305 2.984-.916 4.029-.599 1.056-1.435 1.838-2.509 2.343-1.074.506-2.317.759-3.73.759-.52 0-1.136-.084-1.848-.253a10.245 10.245 0 01-2.086-.742c-.678-.326-1.243-.73-1.696-1.214l1.442-2.73a5.495 5.495 0 001.882 1.247c.723.303 1.418.455 2.085.455.724 0 1.334-.124 1.832-.37.508-.237.898-.636 1.17-1.198.271-.55.406-1.298.406-2.242V11.785l.39-4.13zm-10.376 9.863v-1.433c0-1.495.141-2.788.423-3.878.283-1.101.69-2.017 1.221-2.748.532-.73 1.182-1.27 1.95-1.618.769-.349 1.628-.523 2.577-.523.984 0 1.815.208 2.493.624.689.404 1.249.983 1.679 1.736.44.753.785 1.652 1.034 2.698a23.99 23.99 0 01.542 3.473v1.99a20.986 20.986 0 01-.576 3.405c-.271 1.023-.639 1.905-1.102 2.647-.452.742-1.018 1.32-1.696 1.736-.667.405-1.469.607-2.407.607-.939 0-1.786-.185-2.544-.556-.757-.371-1.407-.922-1.95-1.652-.531-.73-.938-1.636-1.221-2.715-.282-1.09-.423-2.354-.423-3.793zm3.95-1.433v1.433c0 .933.062 1.736.187 2.41.135.675.333 1.232.593 1.67.26.427.599.747 1.018.96.418.203.915.304 1.492.304.757 0 1.367-.18 1.831-.54.475-.359.836-.842 1.085-1.45.26-.617.441-1.303.543-2.056v-3.928a7.383 7.383 0 00-.34-1.652 4.41 4.41 0 00-.661-1.35 2.863 2.863 0 00-1.017-.893c-.396-.225-.865-.337-1.407-.337-.566 0-1.063.113-1.493.337-.418.214-.763.545-1.034.995-.271.438-.475 1-.61 1.686-.125.674-.187 1.478-.187 2.41z" fill="#EEE"/><path d="M91.825 43.994h-2.151l-.015-1.12h1.998c.3 0 .567-.067.8-.202a1.4 1.4 0 00.545-.578 1.91 1.91 0 00.203-.91c0-.386-.058-.699-.174-.94a1.051 1.051 0 00-.516-.535c-.228-.115-.518-.173-.872-.173h-1.686v9.379H88.62v-10.52h3.023c.455 0 .862.055 1.22.166.36.106.662.274.91.505.251.227.442.516.573.867.131.352.196.774.196 1.265a2.353 2.353 0 01-1.111 2.03c-.35.222-.751.364-1.207.427l-.4.34zm-.051 4.92H89.12l.778-1.134h1.875c.349 0 .644-.077.886-.23a1.46 1.46 0 00.553-.651 2.4 2.4 0 00.196-1.005c0-.39-.053-.727-.16-1.011a1.318 1.318 0 00-.509-.658c-.232-.154-.537-.23-.915-.23h-1.722l.014-1.12h2.325l.298.404c.436.043.802.188 1.098.433.3.241.525.55.675.925.155.376.233.79.233 1.243 0 .655-.124 1.21-.37 1.662-.243.448-.587.79-1.033 1.026-.445.231-.969.347-1.57.347zm7.31.146c-.47 0-.893-.07-1.271-.21-.378-.14-.7-.352-.967-.636a2.878 2.878 0 01-.61-1.091c-.14-.438-.21-.956-.21-1.554v-.881c0-.689.08-1.272.239-1.749.165-.477.385-.86.661-1.149.276-.293.589-.505.938-.635a2.957 2.957 0 011.075-.203c.494 0 .916.08 1.264.239.349.159.633.395.851.708.218.313.378.698.479 1.156.107.458.16.985.16 1.582v.745h-4.912V44.29h3.626v-.18a4.49 4.49 0 00-.167-1.07c-.087-.308-.233-.549-.436-.722-.204-.178-.492-.267-.865-.267-.237 0-.458.04-.661.122-.199.078-.37.215-.516.412-.14.193-.252.46-.334.802-.078.342-.117.776-.117 1.3v.882c0 .42.04.78.117 1.084.082.299.2.547.356.744.16.193.353.338.581.434.233.091.497.137.792.137.431 0 .787-.082 1.068-.246.281-.168.526-.382.734-.642l.676.802a2.797 2.797 0 01-1.381 1.012c-.324.11-.714.165-1.17.165zm7.682-2.147a.934.934 0 00-.146-.52c-.097-.15-.256-.294-.479-.434a6.185 6.185 0 00-.887-.448c-.363-.149-.69-.296-.981-.44a3.728 3.728 0 01-.727-.484 1.819 1.819 0 01-.457-.6 2.01 2.01 0 01-.153-.817c0-.313.058-.602.174-.867.122-.27.291-.505.509-.708a2.31 2.31 0 01.785-.47 2.875 2.875 0 011.025-.173c.537 0 .995.104 1.373.311.378.207.666.491.865.853.203.356.305.758.305 1.206h-1.279c0-.217-.048-.421-.145-.614a1.178 1.178 0 00-.429-.47 1.222 1.222 0 00-.69-.187c-.286 0-.519.05-.698.151a.939.939 0 00-.392.398 1.18 1.18 0 00-.117.527c0 .145.02.27.058.376a.859.859 0 00.218.289c.102.087.24.178.415.274.179.092.407.198.683.318.533.208.981.417 1.344.629.363.212.639.46.828.744.189.284.284.636.284 1.055 0 .342-.063.653-.189.932-.121.275-.296.51-.523.708a2.38 2.38 0 01-.821.456 3.462 3.462 0 01-1.061.151c-.591 0-1.093-.115-1.505-.347a2.457 2.457 0 01-.93-.917 2.507 2.507 0 01-.312-1.221h1.286c.015.366.097.65.247.852.155.203.342.342.56.42.218.076.436.115.654.115.285 0 .525-.041.719-.123a.943.943 0 00.436-.368c.102-.16.153-.345.153-.557zm5.544-5.816v1.026h-3.669v-1.026h3.669zm-2.47-1.9h1.286v7.781c0 .265.031.465.094.6a.531.531 0 00.255.267.81.81 0 00.327.065 1.633 1.633 0 00.508-.086l-.007 1.09a2.144 2.144 0 01-.349.095 2.5 2.5 0 01-.552.05c-.276 0-.533-.065-.77-.195-.238-.13-.429-.347-.574-.65-.146-.308-.218-.723-.218-1.243v-7.774zm10.37 5.592h-2.311v-1.134h2.311c.436 0 .787-.087 1.054-.26.271-.174.467-.415.588-.723.126-.308.189-.66.189-1.055 0-.361-.063-.7-.189-1.019a1.628 1.628 0 00-.588-.766c-.267-.197-.618-.296-1.054-.296h-2.035v9.379h-1.337v-10.52h3.372c.683 0 1.259.137 1.729.411.47.275.826.655 1.069 1.142.247.482.37 1.033.37 1.655 0 .674-.123 1.25-.37 1.727-.243.476-.599.84-1.069 1.09-.47.246-1.046.369-1.729.369zm8.175 2.789v-4.241c0-.309-.048-.557-.145-.745a.853.853 0 00-.422-.411c-.184-.087-.416-.13-.697-.13-.271 0-.506.055-.705.166a1.2 1.2 0 00-.451.44 1.235 1.235 0 00-.152.607h-1.286c0-.279.06-.556.181-.83.126-.275.306-.523.538-.745.233-.226.511-.404.836-.534a2.886 2.886 0 011.104-.203c.485 0 .913.08 1.286.239.374.154.667.407.88.758.213.352.319.82.319 1.402v3.858c0 .26.02.538.059.831.043.294.104.547.181.76v.115h-1.33a2.557 2.557 0 01-.145-.614 5.601 5.601 0 01-.051-.723zm.204-3.403l.014.94h-.894c-.305 0-.583.033-.835.1-.247.068-.46.166-.64.296a1.289 1.289 0 00-.414.47 1.444 1.444 0 00-.138.643c0 .313.044.564.131.752a.806.806 0 00.392.397c.175.082.395.123.662.123.324 0 .61-.075.857-.224.247-.15.438-.33.574-.542.141-.212.206-.41.196-.592l.284.6c-.02.187-.083.392-.189.613a2.557 2.557 0 01-.429.63 2.374 2.374 0 01-.654.49 1.824 1.824 0 01-.836.188c-.455 0-.855-.087-1.199-.26a1.864 1.864 0 01-.792-.766c-.189-.337-.283-.754-.283-1.25 0-.376.065-.722.196-1.04.131-.318.325-.593.581-.824.257-.236.579-.419.967-.55.392-.13.845-.194 1.359-.194h1.09zm4.069-1.85v6.59h-1.286v-7.818h1.243l.043 1.228zm1.955-1.272l.007 1.243a1.758 1.758 0 00-.29-.043 2.543 2.543 0 00-.291-.015c-.242 0-.455.049-.639.145a1.41 1.41 0 00-.465.404 2.09 2.09 0 00-.313.622 3.738 3.738 0 00-.16.78l-.334.217c0-.472.036-.915.109-1.33.077-.414.196-.78.356-1.098.16-.322.363-.573.61-.751a1.493 1.493 0 011.185-.239.65.65 0 01.225.065zm2.289-3.237v11.099h-1.286V37.816h1.286zm3.99 3.28l-2.798 3.65-1.729 1.98-.087-1.424 3.066-4.205h1.548zm-1.177 7.819l-2.209-3.729.661-1.192 3.045 4.92h-1.497zm3.691-7.818v7.818h-1.278v-7.818h1.278zm-1.351-2.074c0-.217.06-.4.182-.55.121-.148.302-.223.545-.223.242 0 .423.075.545.224.125.15.188.332.188.55a.807.807 0 01-.188.534c-.122.144-.303.217-.545.217-.243 0-.424-.073-.545-.217a.818.818 0 01-.182-.535zm4.375 3.743v6.149h-1.287v-7.818h1.214l.073 1.669zm-.313 1.944l-.523-.022a5.323 5.323 0 01.182-1.481c.13-.458.315-.855.552-1.193a2.59 2.59 0 01.865-.78 2.23 2.23 0 011.112-.282c.319 0 .61.053.871.16.262.1.485.264.669.49.184.227.325.52.422.882.101.356.152.792.152 1.308v5.123h-1.286v-5.138c0-.409-.046-.737-.138-.982-.087-.25-.223-.431-.407-.542-.179-.116-.407-.174-.683-.174-.252 0-.487.07-.705.21a1.99 1.99 0 00-.574.578 3.15 3.15 0 00-.378.845 3.71 3.71 0 00-.131.997zm10.196-3.613h1.155v7.883c0 .689-.121 1.257-.363 1.705a2.243 2.243 0 01-.996.99c-.426.217-.918.325-1.475.325-.199 0-.448-.036-.748-.108a4.236 4.236 0 01-.901-.333 2.282 2.282 0 01-.742-.549l.531-.889c.276.28.569.48.879.6.31.12.606.18.887.18.334 0 .625-.06.872-.18s.438-.318.574-.592c.135-.27.203-.631.203-1.084v-6.229l.124-1.72zm-4.52 4.285v-.73c0-.646.06-1.2.181-1.662.122-.467.296-.85.524-1.149.232-.303.511-.527.835-.672a2.653 2.653 0 011.09-.217c.407 0 .759.082 1.054.246a2 2 0 01.734.715c.199.309.354.684.465 1.127.116.439.196.935.24 1.489v.975a8.447 8.447 0 01-.24 1.482 3.655 3.655 0 01-.472 1.12 2.081 2.081 0 01-.741.708c-.296.163-.647.245-1.054.245-.397 0-.756-.074-1.076-.224a2.302 2.302 0 01-.828-.686 3.462 3.462 0 01-.531-1.149c-.121-.462-.181-1.002-.181-1.618zm1.286-.73v.73c0 .433.032.811.095 1.134.062.318.159.583.29.795.136.207.308.361.516.462.213.101.468.152.763.152.359 0 .652-.087.879-.26.228-.174.41-.402.545-.687.141-.289.252-.6.335-.932v-2.052a3.904 3.904 0 00-.211-.708 2.272 2.272 0 00-.342-.614 1.563 1.563 0 00-.508-.434 1.404 1.404 0 00-.683-.159c-.296 0-.55.053-.763.16a1.303 1.303 0 00-.524.476 2.29 2.29 0 00-.297.802 5.987 5.987 0 00-.095 1.135zm14.796 3.128v1.135h-4.389V47.78h4.389zm-4.15-9.386v10.52h-1.337v-10.52h1.337zm5 6.988v-.745c0-.607.078-1.139.233-1.597a3.26 3.26 0 01.646-1.156c.277-.308.599-.54.967-.693a2.956 2.956 0 011.184-.239c.432 0 .831.08 1.199.239.369.154.691.385.967.693.281.309.499.694.654 1.156.155.458.232.99.232 1.597v.745c0 .606-.077 1.141-.232 1.604a3.27 3.27 0 01-.647 1.148 2.66 2.66 0 01-.966.694 3.059 3.059 0 01-1.192.231c-.426 0-.824-.077-1.192-.231a2.74 2.74 0 01-.974-.694 3.27 3.27 0 01-.646-1.148c-.155-.463-.233-.998-.233-1.604zm1.286-.745v.745c0 .428.044.804.131 1.127.087.322.211.592.371.809.16.217.346.38.559.491.213.106.446.16.698.16.291 0 .545-.054.763-.16.223-.11.407-.274.552-.491a2.36 2.36 0 00.327-.81c.073-.322.109-.698.109-1.127v-.744c0-.428-.043-.802-.131-1.12a2.402 2.402 0 00-.37-.809 1.52 1.52 0 00-.567-.491 1.49 1.49 0 00-.698-.166 1.47 1.47 0 00-.69.166c-.213.106-.4.27-.56.491a2.498 2.498 0 00-.363.81 4.27 4.27 0 00-.131 1.12zm9.026-3.54v1.026h-3.67v-1.026h3.67zm-2.471-1.9h1.286v7.781c0 .265.032.465.095.6a.534.534 0 00.254.267.828.828 0 00.327.065 1.653 1.653 0 00.509-.086l-.007 1.09a2.203 2.203 0 01-.349.095c-.145.033-.33.05-.552.05a1.58 1.58 0 01-.771-.195c-.237-.13-.428-.347-.574-.65-.145-.308-.218-.723-.218-1.243v-7.774zm7.522 7.716a.934.934 0 00-.146-.52c-.097-.15-.257-.294-.479-.434a6.185 6.185 0 00-.887-.448c-.363-.149-.69-.296-.981-.44a3.728 3.728 0 01-.727-.484 1.819 1.819 0 01-.457-.6 2.01 2.01 0 01-.153-.817c0-.313.058-.602.174-.867.122-.27.291-.505.509-.708a2.31 2.31 0 01.785-.47 2.873 2.873 0 011.024-.173c.538 0 .996.104 1.374.311.378.207.666.491.865.853.203.356.305.758.305 1.206h-1.279a1.36 1.36 0 00-.145-.614 1.178 1.178 0 00-.429-.47 1.223 1.223 0 00-.691-.187c-.285 0-.518.05-.697.151a.947.947 0 00-.393.398 1.194 1.194 0 00-.116.527c0 .145.02.27.058.376a.859.859 0 00.218.289c.102.087.24.178.415.274.179.092.406.198.683.318.533.208.981.417 1.344.629.363.212.639.46.828.744.189.284.284.636.284 1.055 0 .342-.063.653-.189.932-.121.275-.296.51-.523.708-.228.198-.502.35-.822.456a3.45 3.45 0 01-1.06.151c-.591 0-1.093-.115-1.505-.347a2.457 2.457 0 01-.93-.917 2.507 2.507 0 01-.312-1.221h1.286c.014.366.097.65.247.852.155.203.342.342.56.42.218.076.436.115.654.115.285 0 .525-.041.719-.123a.943.943 0 00.436-.368c.102-.16.153-.345.153-.557zm9.643.665v-4.241c0-.309-.048-.557-.145-.745a.853.853 0 00-.422-.411c-.184-.087-.416-.13-.697-.13a1.42 1.42 0 00-.705.166 1.2 1.2 0 00-.451.44 1.235 1.235 0 00-.152.607h-1.287c0-.279.061-.556.182-.83.126-.275.305-.523.538-.745.232-.226.511-.404.836-.534a2.886 2.886 0 011.104-.203c.485 0 .913.08 1.286.239.373.154.666.407.88.758.213.352.319.82.319 1.402v3.858c0 .26.02.538.058.831.044.294.105.547.182.76v.115h-1.33a2.557 2.557 0 01-.145-.614 5.601 5.601 0 01-.051-.723zm.204-3.403l.014.94h-.894a3.24 3.24 0 00-.835.1 1.955 1.955 0 00-.64.296 1.289 1.289 0 00-.414.47 1.444 1.444 0 00-.138.643c0 .313.043.564.131.752a.806.806 0 00.392.397c.174.082.395.123.661.123.325 0 .611-.075.858-.224.247-.15.438-.33.574-.542.14-.212.206-.41.196-.592l.283.6a1.88 1.88 0 01-.188.613 2.557 2.557 0 01-.429.63 2.374 2.374 0 01-.654.49 1.824 1.824 0 01-.836.188c-.455 0-.855-.087-1.199-.26a1.864 1.864 0 01-.792-.766c-.189-.337-.283-.754-.283-1.25 0-.376.065-.722.196-1.04.131-.318.324-.593.581-.824.257-.236.579-.419.967-.55.392-.13.845-.194 1.359-.194h1.09zm5.653-3.078v1.026h-3.669v-1.026h3.669zm-2.47-1.9h1.286v7.781c0 .265.031.465.094.6a.531.531 0 00.255.267.81.81 0 00.327.065 1.633 1.633 0 00.508-.086l-.007 1.09a2.144 2.144 0 01-.349.095 2.5 2.5 0 01-.552.05c-.276 0-.533-.065-.77-.195-.238-.13-.429-.347-.574-.65-.146-.308-.218-.723-.218-1.243v-7.774zm12.484 8.583v1.135h-4.389V47.78h4.389zm-4.149-9.386v10.52h-1.337v-10.52h1.337zm5 6.988v-.745c0-.607.077-1.139.233-1.597a3.26 3.26 0 01.646-1.156 2.66 2.66 0 01.967-.693 2.956 2.956 0 011.184-.239c.431 0 .831.08 1.199.239.368.154.691.385.967.693.281.309.499.694.654 1.156.155.458.232.99.232 1.597v.745c0 .606-.077 1.141-.232 1.604a3.27 3.27 0 01-.647 1.148c-.276.309-.598.54-.967.694a3.05 3.05 0 01-1.191.231c-.427 0-.824-.077-1.192-.231a2.74 2.74 0 01-.974-.694 3.27 3.27 0 01-.646-1.148c-.156-.463-.233-.998-.233-1.604zm1.286-.745v.745c0 .428.044.804.131 1.127.087.322.211.592.371.809.159.217.346.38.559.491.213.106.446.16.698.16.29 0 .545-.054.763-.16.223-.11.407-.274.552-.491a2.4 2.4 0 00.327-.81c.073-.322.109-.698.109-1.127v-.744a4.27 4.27 0 00-.131-1.12 2.422 2.422 0 00-.37-.809 1.52 1.52 0 00-.567-.491 1.49 1.49 0 00-.698-.166 1.47 1.47 0 00-.69.166c-.213.106-.4.27-.56.491a2.498 2.498 0 00-.363.81 4.27 4.27 0 00-.131 1.12zm7.769 2.89l1.736-6.43h.836l-.094 1.279-1.744 6.539h-.807l.073-1.388zm-.945-6.43l1.461 6.503.036 1.315h-.85l-1.919-7.818h1.272zm5.007 6.452l1.38-6.452h1.265l-1.919 7.818h-.835l.109-1.366zm-1.308-6.452l1.693 6.322.116 1.496h-.799l-1.802-6.554-.095-1.264h.887zm7.826 7.963c-.47 0-.894-.07-1.271-.21a2.483 2.483 0 01-.967-.636 2.878 2.878 0 01-.61-1.091c-.141-.438-.211-.956-.211-1.554v-.881c0-.689.08-1.272.24-1.749.164-.477.385-.86.661-1.149a2.46 2.46 0 01.937-.635 2.962 2.962 0 011.076-.203c.494 0 .915.08 1.264.239.349.159.632.395.85.708.218.313.378.698.48 1.156.107.458.16.985.16 1.582v.745h-4.912V44.29h3.626v-.18a4.542 4.542 0 00-.167-1.07c-.088-.308-.233-.549-.436-.722-.204-.178-.492-.267-.865-.267-.238 0-.458.04-.661.122a1.16 1.16 0 00-.516.412c-.141.193-.252.46-.335.802-.077.342-.116.776-.116 1.3v.882c0 .42.039.78.116 1.084.083.299.201.547.356.744.16.193.354.338.582.434.232.091.496.137.792.137.431 0 .787-.082 1.068-.246.281-.168.526-.382.734-.642l.676.802a2.93 2.93 0 01-.552.57 2.797 2.797 0 01-.829.441c-.324.11-.714.166-1.17.166zm7.681-2.147a.934.934 0 00-.145-.52c-.097-.15-.257-.294-.48-.434a6.166 6.166 0 00-.886-.448c-.363-.149-.69-.296-.981-.44a3.728 3.728 0 01-.727-.484 1.836 1.836 0 01-.458-.6 2.027 2.027 0 01-.152-.817c0-.313.058-.602.174-.867a2.17 2.17 0 01.509-.708 2.31 2.31 0 01.785-.47 2.87 2.87 0 011.024-.173c.538 0 .996.104 1.374.311.378.207.666.491.864.853.204.356.306.758.306 1.206h-1.279c0-.217-.049-.421-.146-.614a1.168 1.168 0 00-.428-.47 1.223 1.223 0 00-.691-.187c-.285 0-.518.05-.697.151a.941.941 0 00-.393.398 1.194 1.194 0 00-.116.527c0 .145.019.27.058.376a.846.846 0 00.218.289c.102.087.24.178.414.274.18.092.407.198.683.318.533.208.981.417 1.345.629.363.212.639.46.828.744.189.284.284.636.284 1.055 0 .342-.063.653-.189.932-.121.275-.296.51-.524.708a2.37 2.37 0 01-.821.456 3.457 3.457 0 01-1.061.151c-.591 0-1.092-.115-1.504-.347a2.457 2.457 0 01-.93-.917 2.507 2.507 0 01-.312-1.221h1.286c.014.366.097.65.247.852.155.203.341.342.559.42.218.076.436.115.654.115.286 0 .526-.041.72-.123a.943.943 0 00.436-.368c.102-.16.152-.345.152-.557zm5.545-5.816v1.026h-3.669v-1.026h3.669zm-2.47-1.9h1.286v7.781c0 .265.031.465.094.6a.531.531 0 00.255.267.81.81 0 00.327.065 1.633 1.633 0 00.508-.086l-.007 1.09a2.144 2.144 0 01-.349.095 2.5 2.5 0 01-.552.05c-.276 0-.533-.065-.77-.195-.238-.13-.429-.347-.574-.65-.146-.308-.218-.723-.218-1.243v-7.774zm7.005-.802h2.958c.688 0 1.264.12 1.729.36.47.242.824.598 1.061 1.07.242.467.364 1.043.364 1.727 0 .482-.08.922-.24 1.322-.16.395-.393.732-.698 1.012a2.93 2.93 0 01-1.112.614l-.363.152h-2.638l-.014-1.135h1.896c.407 0 .746-.086 1.018-.26.271-.178.474-.416.61-.715a2.36 2.36 0 00.203-.99c0-.405-.06-.759-.181-1.062a1.41 1.41 0 00-.582-.701c-.261-.169-.612-.253-1.053-.253h-1.621v9.379h-1.337v-10.52zm5.08 10.52l-2.108-4.77 1.388-.006 2.151 4.689v.087h-1.431zm6.198-1.337v-4.241c0-.309-.048-.557-.145-.745a.851.851 0 00-.421-.411c-.184-.087-.417-.13-.698-.13-.271 0-.506.055-.705.166a1.19 1.19 0 00-.45.44 1.225 1.225 0 00-.153.607h-1.286c0-.279.06-.556.182-.83.125-.275.305-.523.537-.745.233-.226.511-.404.836-.534a2.89 2.89 0 011.104-.203c.485 0 .914.08 1.287.239.373.154.666.407.879.758.213.352.32.82.32 1.402v3.858c0 .26.019.538.058.831.043.294.104.547.182.76v.115h-1.33a2.552 2.552 0 01-.146-.614 5.601 5.601 0 01-.051-.723zm.204-3.403l.014.94h-.893c-.306 0-.584.033-.836.1a1.95 1.95 0 00-.639.296c-.18.126-.318.282-.415.47a1.444 1.444 0 00-.138.643c0 .313.044.564.131.752a.806.806 0 00.392.397c.175.082.395.123.662.123.324 0 .61-.075.857-.224.247-.15.439-.33.574-.542.141-.212.206-.41.196-.592l.284.6c-.02.187-.082.392-.189.613a2.557 2.557 0 01-.429.63 2.374 2.374 0 01-.654.49 1.82 1.82 0 01-.835.188c-.456 0-.856-.087-1.199-.26a1.86 1.86 0 01-.793-.766c-.188-.337-.283-.754-.283-1.25 0-.376.065-.722.196-1.04.131-.318.325-.593.582-.824a2.64 2.64 0 01.966-.55c.392-.13.845-.194 1.359-.194h1.09zm5.654-3.078v1.026h-3.67v-1.026h3.67zm-2.471-1.9h1.286v7.781c0 .265.032.465.095.6a.53.53 0 00.254.267.828.828 0 00.327.065 1.653 1.653 0 00.509-.086l-.008 1.09a2.157 2.157 0 01-.348.095c-.146.033-.33.05-.553.05-.276 0-.533-.065-.77-.195s-.429-.347-.574-.65c-.145-.308-.218-.723-.218-1.243v-7.774zm6.519 9.863c-.47 0-.894-.07-1.272-.21a2.49 2.49 0 01-.967-.636 2.892 2.892 0 01-.61-1.091c-.14-.438-.211-.956-.211-1.554v-.881c0-.689.08-1.272.24-1.749.165-.477.385-.86.661-1.149.277-.293.589-.505.938-.635a2.956 2.956 0 011.075-.203c.494 0 .916.08 1.265.239.348.159.632.395.85.708.218.313.378.698.479 1.156.107.458.16.985.16 1.582v.745h-4.912V44.29h3.626v-.18a4.49 4.49 0 00-.167-1.07c-.087-.308-.233-.549-.436-.722-.203-.178-.492-.267-.865-.267-.237 0-.458.04-.661.122a1.16 1.16 0 00-.516.412c-.14.193-.252.46-.334.802-.078.342-.116.776-.116 1.3v.882c0 .42.038.78.116 1.084.082.299.201.547.356.744.16.193.354.338.581.434.233.091.497.137.792.137.431 0 .787-.082 1.068-.246.281-.168.526-.382.734-.642l.676.802a2.804 2.804 0 01-1.38 1.012c-.325.11-.715.165-1.17.165zm7.681-2.147a.934.934 0 00-.146-.52c-.096-.15-.256-.294-.479-.434a6.185 6.185 0 00-.887-.448c-.363-.149-.69-.296-.981-.44a3.688 3.688 0 01-.726-.484 1.809 1.809 0 01-.458-.6 2.01 2.01 0 01-.153-.817c0-.313.058-.602.175-.867.121-.27.29-.505.508-.708a2.31 2.31 0 01.785-.47 2.875 2.875 0 011.025-.173c.537 0 .995.104 1.373.311.378.207.666.491.865.853.203.356.305.758.305 1.206h-1.279c0-.217-.048-.421-.145-.614a1.178 1.178 0 00-.429-.47 1.222 1.222 0 00-.69-.187c-.286 0-.519.05-.698.151a.939.939 0 00-.392.398 1.18 1.18 0 00-.117.527c0 .145.02.27.059.376a.833.833 0 00.218.289c.101.087.239.178.414.274.179.092.407.198.683.318.533.208.981.417 1.344.629.364.212.64.46.829.744.189.284.283.636.283 1.055 0 .342-.063.653-.189.932-.121.275-.295.51-.523.708a2.38 2.38 0 01-.821.456 3.462 3.462 0 01-1.061.151c-.591 0-1.093-.115-1.504-.347a2.467 2.467 0 01-.931-.917 2.507 2.507 0 01-.312-1.221h1.286c.015.366.097.65.247.852.155.203.342.342.56.42.218.076.436.115.654.115.286 0 .525-.041.719-.123a.943.943 0 00.436-.368c.102-.16.153-.345.153-.557z" fill="#fff" fill-opacity=".5"/></svg>