<svg width="202" height="38" viewBox="0 0 202 38" fill="none" xmlns="http://www.w3.org/2000/svg"><path d="M9.105 13.072h2.981c-.057 1.298-.32 2.402-.788 3.314a4.82 4.82 0 01-2.02 2.07c-.871.476-1.935.714-3.192.714-.953 0-1.807-.172-2.562-.517a5.274 5.274 0 01-1.91-1.49c-.526-.658-.928-1.459-1.207-2.403C.136 13.815 0 12.743 0 11.544V8.366c0-1.2.14-2.272.419-3.216.287-.945.698-1.745 1.232-2.403a5.158 5.158 0 011.947-1.49C4.37.912 5.24.739 6.209.739c1.24 0 2.284.238 3.13.715.846.476 1.499 1.174 1.959 2.094.46.92.727 2.041.8 3.364H9.117c-.041-.896-.164-1.61-.37-2.144-.197-.542-.5-.932-.911-1.17-.403-.239-.945-.358-1.627-.358-.566 0-1.055.107-1.466.32a2.598 2.598 0 00-.998.962c-.254.418-.447.948-.579 1.589-.123.632-.184 1.376-.184 2.23v3.203c0 .822.053 1.548.16 2.18.106.633.279 1.171.517 1.615.238.435.555.768.949.998.394.221.887.332 1.478.332.707 0 1.27-.11 1.688-.332.427-.222.743-.596.949-1.121.205-.526.332-1.24.382-2.144zM16.805 0v18.924h-2.858V0h2.858zM16.3 11.778h-.911a9.711 9.711 0 01.295-2.562c.206-.78.501-1.462.887-2.046.386-.583.85-1.03 1.392-1.342a3.565 3.565 0 011.824-.481c.55 0 1.047.094 1.49.283a2.84 2.84 0 011.159.863c.328.394.579.912.751 1.552.173.633.259 1.405.259 2.316v8.563h-2.87v-8.587c0-.633-.07-1.134-.21-1.503-.131-.37-.329-.637-.591-.801-.263-.164-.596-.247-.998-.247-.395 0-.748.107-1.06.32a2.564 2.564 0 00-.776.863 4.299 4.299 0 00-.48 1.27c-.107.476-.16.989-.16 1.54zm14.6 7.392c-.862 0-1.63-.127-2.304-.382a4.524 4.524 0 01-1.712-1.158c-.468-.517-.826-1.15-1.072-1.897-.246-.756-.37-1.63-.37-2.624v-1.281c0-1.126.128-2.095.382-2.908.263-.821.625-1.495 1.084-2.02a4.295 4.295 0 011.627-1.171 5.458 5.458 0 012.057-.382c.838 0 1.565.136 2.181.407a3.667 3.667 0 011.515 1.22c.403.541.699 1.21.888 2.008.197.796.295 1.712.295 2.747v1.441h-8.649v-2.168h5.816v-.308c-.017-.608-.09-1.13-.222-1.565-.132-.443-.345-.78-.64-1.01-.288-.238-.687-.357-1.196-.357-.37 0-.698.07-.986.21a1.71 1.71 0 00-.714.677c-.18.312-.32.73-.42 1.257-.098.517-.147 1.158-.147 1.921v1.282c0 .665.058 1.228.172 1.688.124.46.304.837.543 1.133a2.2 2.2 0 00.862.64 3.33 3.33 0 001.195.198c.665 0 1.236-.123 1.713-.37a4.346 4.346 0 001.256-.985l1.27 1.761c-.239.32-.56.637-.962.95a5.227 5.227 0 01-1.466.75c-.566.198-1.232.296-1.996.296zm12.555-2.956V9.573c0-.46-.066-.83-.197-1.109a1.177 1.177 0 00-.554-.604c-.239-.131-.538-.197-.9-.197-.378 0-.698.078-.96.234-.255.156-.448.37-.58.641a2.012 2.012 0 00-.197.912h-2.87c0-.534.106-1.048.32-1.54.222-.493.538-.933.948-1.319.411-.386.908-.69 1.491-.911.583-.222 1.232-.333 1.947-.333.854 0 1.614.144 2.28.431.664.28 1.186.735 1.564 1.368.386.624.579 1.445.579 2.464v6.222c0 .616.037 1.166.11 1.65.083.477.194.892.333 1.245v.197h-2.92c-.131-.32-.23-.731-.295-1.232a11.363 11.363 0 01-.099-1.478zm.382-5.41l.012 1.861h-1.38c-.41 0-.78.058-1.108.173a2.312 2.312 0 00-.838.468c-.222.197-.394.44-.518.727a2.532 2.532 0 00-.172.949c0 .418.058.76.172 1.022.124.263.3.46.53.591.239.124.526.185.863.185.46 0 .858-.098 1.195-.295.345-.206.608-.452.788-.74.19-.287.263-.55.222-.788l.653 1.195a3.85 3.85 0 01-.37.986 4.492 4.492 0 01-.677.985 3.35 3.35 0 01-1.01.764c-.395.189-.85.283-1.368.283-.748 0-1.413-.156-1.996-.468a3.445 3.445 0 01-1.38-1.343c-.328-.591-.493-1.297-.493-2.119 0-.665.111-1.269.333-1.81.222-.543.55-1.007.986-1.393.435-.394.981-.698 1.638-.912.666-.213 1.442-.32 2.329-.32h1.59zm7.799-2.648V24.05h-2.858V5.593h2.624l.234 2.563zm7.17 3.573v1.06c0 1.043-.094 1.963-.283 2.76-.189.796-.468 1.465-.837 2.008-.362.533-.81.936-1.343 1.207-.534.27-1.158.406-1.873.406-.673 0-1.26-.147-1.762-.443a3.753 3.753 0 01-1.244-1.244c-.337-.534-.608-1.167-.813-1.898a15.614 15.614 0 01-.431-2.415v-1.626c.09-.92.23-1.758.418-2.513.198-.764.465-1.421.801-1.971.345-.55.764-.974 1.257-1.27.493-.295 1.08-.443 1.762-.443.714 0 1.343.127 1.885.382s.994.645 1.355 1.17c.37.526.645 1.191.825 1.996.19.797.284 1.742.284 2.834zm-2.87 1.06v-1.06c0-.682-.045-1.269-.135-1.762-.083-.5-.222-.912-.42-1.232a1.838 1.838 0 00-.726-.714c-.288-.157-.645-.235-1.072-.235-.378 0-.71.078-.998.235-.287.156-.53.373-.727.653a3.248 3.248 0 00-.468.973c-.115.37-.189.772-.222 1.207v3.019a6.49 6.49 0 00.37 1.454c.172.435.423.784.751 1.047.337.263.777.394 1.319.394.419 0 .776-.082 1.072-.246.295-.165.533-.411.714-.74.189-.328.325-.739.407-1.232.09-.5.135-1.088.135-1.761z" fill="#fff"/><path d="M67.82 3.45l-4.337 15.474h-3.13L66.047.986h1.946L67.82 3.45zm3.462 15.474L66.932 3.45 66.724.986h1.984l5.717 17.938h-3.142zm.074-6.665v2.513h-8.353V12.26h8.353zm7.417-6.666v13.331h-2.87V5.594h2.87zm-3.018-3.499c0-.46.14-.841.419-1.145.279-.304.669-.456 1.17-.456.5 0 .891.152 1.17.456.28.304.42.686.42 1.145 0 .452-.14.83-.42 1.134-.279.304-.67.456-1.17.456-.501 0-.891-.152-1.17-.456-.28-.304-.42-.682-.42-1.134zm8.452 6.074v10.756h-2.87V5.594h2.734l.136 2.574zm3.215-2.66L87.41 8.34a2.66 2.66 0 00-.53-.074 5.984 5.984 0 00-.542-.025c-.394 0-.735.07-1.022.21-.288.14-.53.34-.727.603a3.11 3.11 0 00-.468.95 5.6 5.6 0 00-.198 1.256l-.616.024c0-.837.066-1.614.197-2.328.132-.723.33-1.351.592-1.885.271-.542.608-.965 1.01-1.27.403-.303.87-.455 1.405-.455.148 0 .316.016.505.05.189.032.324.07.406.11zm4.338 2.648V24.05H88.9V5.593h2.624l.235 2.563zm7.17 3.573v1.06c0 1.043-.094 1.963-.283 2.76-.19.796-.469 1.465-.838 2.008a3.555 3.555 0 01-1.343 1.207c-.534.27-1.158.406-1.873.406-.673 0-1.26-.147-1.761-.443a3.752 3.752 0 01-1.245-1.244c-.337-.534-.608-1.167-.813-1.898a15.734 15.734 0 01-.431-2.415v-1.626c.09-.92.23-1.758.419-2.513.197-.764.464-1.421.8-1.971.346-.55.764-.974 1.257-1.27.493-.295 1.08-.443 1.762-.443.715 0 1.343.127 1.885.382s.994.645 1.355 1.17c.37.526.645 1.191.826 1.996.189.797.283 1.742.283 2.834zm-2.87 1.06v-1.06c0-.682-.046-1.269-.136-1.762-.082-.5-.222-.912-.419-1.232a1.838 1.838 0 00-.727-.714c-.287-.157-.645-.235-1.072-.235-.378 0-.71.078-.998.235-.287.156-.53.373-.727.653a3.25 3.25 0 00-.468.973 5.43 5.43 0 00-.222 1.207v3.019c.074.525.198 1.01.37 1.454.172.435.423.784.752 1.047.336.263.776.394 1.318.394.419 0 .776-.082 1.072-.246.295-.165.534-.411.714-.74.19-.328.325-.739.407-1.232.09-.5.135-1.088.135-1.761zm4.374.011v-1.07c0-1.035.127-1.95.382-2.747.254-.797.616-1.462 1.084-1.996a4.593 4.593 0 011.675-1.22 5.248 5.248 0 012.119-.419c.789 0 1.503.14 2.144.419a4.459 4.459 0 011.676 1.22c.476.534.842 1.199 1.096 1.996.255.796.382 1.712.382 2.747v1.072c0 1.035-.127 1.95-.382 2.747-.254.797-.62 1.466-1.096 2.008a4.541 4.541 0 01-1.664 1.208c-.64.27-1.351.406-2.131.406a5.471 5.471 0 01-2.131-.406 4.65 4.65 0 01-1.676-1.207c-.476-.543-.842-1.212-1.096-2.009-.255-.796-.382-1.712-.382-2.747zm2.87-1.071v1.072c0 .665.058 1.248.173 1.75.115.492.279.903.493 1.231.213.329.468.575.763.74a2 2 0 00.986.246c.402 0 .752-.082 1.047-.246.304-.165.555-.411.752-.74.205-.328.357-.739.456-1.232a9.202 9.202 0 00.147-1.75v-1.07c0-.657-.057-1.232-.172-1.725-.115-.5-.279-.916-.493-1.244a2.11 2.11 0 00-.776-.752 1.996 1.996 0 00-.986-.246 1.97 1.97 0 00-.973.246c-.287.164-.538.415-.751.752-.214.328-.378.743-.493 1.244a7.649 7.649 0 00-.173 1.725zm12.531-3.561v10.756h-2.871V5.594h2.735l.136 2.574zm3.215-2.66l-.012 2.833a2.658 2.658 0 00-.53-.074 5.981 5.981 0 00-.542-.025c-.394 0-.735.07-1.023.21-.287.14-.529.34-.727.603a3.11 3.11 0 00-.468.95 5.596 5.596 0 00-.197 1.256l-.616.024c0-.837.066-1.614.197-2.328.132-.723.329-1.351.592-1.885.271-.542.607-.965 1.01-1.27a2.266 2.266 0 011.404-.455c.148 0 .317.016.506.05.188.032.324.07.406.11zm7.467.085v2.218h-6.542V5.593h6.542zm-4.756-3.264h2.858v12.874c0 .411.046.723.136.937.09.213.218.357.382.43.164.075.357.112.579.112.164 0 .324-.013.48-.037a3.19 3.19 0 00.358-.087v2.317c-.214.082-.46.152-.74.21a5.086 5.086 0 01-1.01.085c-.583 0-1.105-.119-1.565-.357-.459-.246-.821-.645-1.084-1.195-.263-.558-.394-1.298-.394-2.218V2.33z" fill="#D6EE19"/><path d="M136.048 12.271h-3.782V9.77h3.782c.624 0 1.125-.131 1.503-.394.378-.263.653-.624.825-1.084.181-.46.272-.982.272-1.565 0-.559-.091-1.084-.272-1.577a2.59 2.59 0 00-.825-1.195c-.378-.304-.879-.456-1.503-.456h-2.932v15.425h-2.994V.986h5.926c1.191 0 2.201.246 3.031.739a4.937 4.937 0 011.922 2.033c.443.854.665 1.835.665 2.944 0 1.158-.222 2.152-.665 2.982a4.621 4.621 0 01-1.922 1.922c-.83.443-1.84.665-3.031.665zm13.565 3.943V9.573c0-.46-.066-.83-.197-1.109a1.177 1.177 0 00-.554-.604c-.239-.131-.538-.197-.9-.197-.378 0-.698.078-.961.234-.254.156-.447.37-.579.641a2.018 2.018 0 00-.197.912h-2.871c0-.534.107-1.048.321-1.54.221-.493.538-.933.948-1.319a4.47 4.47 0 011.491-.911c.583-.222 1.232-.333 1.947-.333.854 0 1.614.144 2.279.431.665.28 1.187.735 1.565 1.368.386.624.579 1.445.579 2.464v6.222c0 .616.037 1.166.111 1.65.082.477.193.892.332 1.245v.197h-2.92c-.131-.32-.23-.731-.295-1.232a11.312 11.312 0 01-.099-1.478zm.382-5.41l.012 1.861h-1.38c-.41 0-.78.058-1.108.173a2.31 2.31 0 00-.838.468c-.222.197-.394.44-.518.727a2.532 2.532 0 00-.172.949c0 .418.057.76.172 1.022.124.263.3.46.53.591.238.124.526.185.863.185.46 0 .858-.098 1.195-.295.345-.206.607-.452.788-.74.189-.287.263-.55.222-.788l.653 1.195a3.87 3.87 0 01-.37.986 4.482 4.482 0 01-.677.985c-.28.312-.616.567-1.011.764-.394.189-.85.283-1.367.283-.748 0-1.413-.156-1.996-.468a3.448 3.448 0 01-1.38-1.343c-.328-.591-.493-1.297-.493-2.119 0-.665.111-1.269.333-1.81.222-.543.55-1.007.986-1.393.435-.394.981-.698 1.638-.912.665-.213 1.442-.32 2.329-.32h1.589zm7.799-2.636v10.756h-2.87V5.594h2.735l.135 2.574zm3.216-2.66l-.012 2.833a2.668 2.668 0 00-.53-.074 5.998 5.998 0 00-.542-.025c-.395 0-.735.07-1.023.21-.287.14-.53.34-.727.603a3.11 3.11 0 00-.468.95 5.596 5.596 0 00-.197 1.256l-.616.024c0-.837.066-1.614.197-2.328.131-.723.329-1.351.591-1.885.271-.542.608-.965 1.011-1.27.402-.303.87-.455 1.404-.455.148 0 .316.016.505.05a1.6 1.6 0 01.407.11zM165.359 0v18.924h-2.87V0h2.87zm6.9 5.593l-4.731 6.444-2.871 3.265-.727-2.538 2.107-2.994 2.784-4.177h3.438zm-2.871 13.331l-3.289-6.234 1.798-2.107 4.793 8.341h-3.302zm7.381-13.331v13.331h-2.871V5.594h2.871zm-3.019-3.499c0-.46.14-.841.419-1.145.279-.304.669-.456 1.17-.456.501 0 .892.152 1.171.456.279.304.419.686.419 1.145 0 .452-.14.83-.419 1.134-.279.304-.67.456-1.171.456s-.891-.152-1.17-.456c-.279-.304-.419-.682-.419-1.134zm8.415 6.346v10.484h-2.87V5.594h2.698l.172 2.845zm-.517 3.338h-.912c-.008-.96.095-1.835.308-2.624.214-.788.518-1.466.912-2.033a4.184 4.184 0 011.417-1.306 3.744 3.744 0 011.86-.468c.534 0 1.019.09 1.454.271a2.66 2.66 0 011.133.85c.312.394.551.908.715 1.54.172.633.259 1.405.259 2.316v8.6h-2.871V10.3c0-.624-.07-1.117-.209-1.479-.132-.37-.329-.632-.592-.788-.263-.164-.595-.247-.998-.247-.369 0-.71.107-1.022.32a2.685 2.685 0 00-.789.863 4.56 4.56 0 00-.493 1.27 6.545 6.545 0 00-.172 1.54zm16.633-6.185h2.599v13.38c0 1.2-.221 2.181-.665 2.945a4.037 4.037 0 01-1.823 1.712c-.781.37-1.684.555-2.711.555-.378 0-.825-.062-1.343-.185a7.438 7.438 0 01-1.515-.542 4.08 4.08 0 01-1.232-.887l1.047-1.996c.386.394.842.698 1.368.912.525.221 1.03.332 1.515.332.526 0 .969-.09 1.331-.27.369-.173.653-.465.85-.875.197-.403.295-.95.295-1.64V8.613l.284-3.019zm-7.54 7.208v-1.047c0-1.093.102-2.037.308-2.834.205-.805.501-1.474.887-2.008a3.551 3.551 0 011.417-1.183c.558-.255 1.182-.382 1.872-.382.715 0 1.319.152 1.811.456a3.36 3.36 0 011.22 1.269c.32.55.571 1.207.752 1.971.18.756.312 1.602.394 2.538v1.454a15.393 15.393 0 01-.419 2.489c-.197.747-.464 1.392-.801 1.934a3.719 3.719 0 01-1.232 1.269c-.484.296-1.068.443-1.749.443-.682 0-1.298-.135-1.848-.406a3.882 3.882 0 01-1.417-1.207c-.386-.534-.682-1.196-.887-1.984-.206-.797-.308-1.72-.308-2.772zm2.87-1.047V12.8c0 .681.046 1.269.136 1.762.098.492.242.899.431 1.22.189.312.435.545.739.702.304.147.666.221 1.084.221.551 0 .994-.131 1.331-.394.345-.263.608-.616.789-1.06a5.91 5.91 0 00.394-1.503v-2.87a5.371 5.371 0 00-.247-1.208 3.249 3.249 0 00-.48-.985 2.091 2.091 0 00-.739-.653c-.288-.164-.629-.247-1.023-.247-.411 0-.772.083-1.084.247a1.88 1.88 0 00-.752.727c-.197.32-.345.73-.443 1.232a9.943 9.943 0 00-.136 1.762z" fill="#fff"/><path d="M66.722 32.15h-1.563l-.011-.819H66.6c.218 0 .412-.05.58-.148a1.02 1.02 0 00.397-.422 1.4 1.4 0 00.148-.665c0-.282-.042-.51-.127-.687a.766.766 0 00-.375-.39c-.165-.085-.376-.127-.633-.127h-1.225v6.853h-.972v-7.687h2.197c.33 0 .626.04.887.12.26.078.48.202.66.37.183.166.322.377.417.634.095.257.142.565.142.924a1.727 1.727 0 01-.808 1.484 2.153 2.153 0 01-.876.311l-.29.249zm-.037 3.595h-1.928l.565-.829h1.363c.253 0 .468-.056.644-.169.176-.112.31-.27.401-.475a1.75 1.75 0 00.143-.734c0-.285-.04-.531-.117-.739a.962.962 0 00-.37-.48c-.168-.113-.39-.17-.664-.17H65.47l.01-.818h1.69l.217.296c.317.032.582.137.797.317.218.176.382.401.491.676.113.274.17.577.17.908 0 .479-.09.883-.27 1.214a1.79 1.79 0 01-.75.75c-.324.169-.704.253-1.14.253zm5.312.106c-.342 0-.65-.051-.924-.153a1.805 1.805 0 01-.703-.465 2.108 2.108 0 01-.443-.797 3.753 3.753 0 01-.153-1.135v-.645c0-.503.058-.929.174-1.277.12-.349.28-.629.48-.84.201-.215.428-.37.681-.465.254-.098.515-.147.782-.147.359 0 .665.058.919.174.253.116.46.289.617.517.159.23.275.51.349.845.077.335.116.72.116 1.157v.543h-3.57v-.797h2.636v-.132a3.31 3.31 0 00-.122-.781 1.046 1.046 0 00-.317-.528c-.148-.13-.357-.196-.628-.196-.172 0-.333.03-.48.09a.846.846 0 00-.375.301 1.66 1.66 0 00-.243.586c-.057.25-.085.567-.085.95v.645c0 .306.028.57.085.792.06.218.146.4.258.544.117.14.257.246.423.316.169.067.36.1.575.1.314 0 .572-.06.777-.179a1.99 1.99 0 00.533-.47l.49.586a2.028 2.028 0 01-1.003.74 2.63 2.63 0 01-.85.121zm5.581-1.568a.686.686 0 00-.106-.38 1.11 1.11 0 00-.348-.317 4.474 4.474 0 00-.644-.328 10.672 10.672 0 01-.713-.322 2.7 2.7 0 01-.528-.353 1.329 1.329 0 01-.333-.439 1.478 1.478 0 01-.11-.596c0-.23.041-.44.126-.634.088-.197.211-.37.37-.517a1.65 1.65 0 01.57-.344c.222-.084.47-.126.744-.126.391 0 .724.075.998.227.275.151.484.359.629.623.147.26.221.554.221.882h-.929a.99.99 0 00-.106-.45.884.884 0 00-.813-.48 1.02 1.02 0 00-.507.111.687.687 0 00-.285.29.872.872 0 00-.084.386c0 .106.014.197.042.275a.617.617 0 00.158.21c.074.064.175.131.301.201.13.067.296.145.497.233a6.8 6.8 0 01.977.46c.264.154.464.335.602.543.137.208.206.465.206.77 0 .25-.046.478-.138.682a1.46 1.46 0 01-.38.517 1.725 1.725 0 01-.597.333 2.49 2.49 0 01-.77.111c-.43 0-.794-.084-1.094-.254a1.792 1.792 0 01-.675-.67 1.84 1.84 0 01-.227-.892h.934c.01.267.07.475.18.623a.87.87 0 00.406.306c.159.056.317.084.475.084.208 0 .382-.03.523-.09a.687.687 0 00.317-.269.741.741 0 00.11-.406zm4.029-4.251v.75H78.94v-.75h2.667zm-1.795-1.388h.934v5.686c0 .194.023.34.069.439.05.098.11.163.185.195a.597.597 0 00.237.047 1.187 1.187 0 00.37-.063l-.005.797a1.578 1.578 0 01-.254.069c-.105.025-.24.037-.401.037-.2 0-.387-.047-.56-.143-.172-.095-.311-.253-.417-.475-.106-.225-.158-.528-.158-.908v-5.681zm7.535 4.086h-1.68v-.829h1.68c.317 0 .572-.063.765-.19.198-.126.34-.302.428-.528.092-.225.137-.482.137-.77a2 2 0 00-.137-.745 1.19 1.19 0 00-.428-.56c-.193-.144-.448-.216-.765-.216h-1.479v6.853h-.971v-7.687h2.45c.496 0 .915.1 1.256.3.342.201.6.48.777.835.18.352.269.755.269 1.209 0 .493-.09.913-.27 1.262a1.807 1.807 0 01-.776.797c-.341.18-.76.27-1.256.27zm5.94 2.039v-3.1c0-.225-.035-.407-.106-.544a.62.62 0 00-.306-.3 1.184 1.184 0 00-.507-.096c-.197 0-.367.04-.512.122a.871.871 0 00-.327.322.9.9 0 00-.111.443h-.935a1.5 1.5 0 01.132-.607 1.852 1.852 0 01.998-.934 2.09 2.09 0 01.803-.148c.352 0 .663.058.934.174.272.113.485.297.64.554.154.257.232.599.232 1.025v2.82c0 .19.014.392.042.606.032.215.076.4.132.555v.084h-.966a1.872 1.872 0 01-.106-.448 4.135 4.135 0 01-.037-.528zm.148-2.487l.01.686h-.649c-.222 0-.424.025-.607.074-.18.05-.334.121-.465.216a.94.94 0 00-.3.344 1.044 1.044 0 00-.101.47c0 .228.032.411.095.549.063.133.158.23.285.29.127.06.287.09.48.09.236 0 .444-.055.624-.164.18-.109.318-.24.417-.396.102-.155.15-.299.142-.433l.206.438a1.38 1.38 0 01-.137.45 1.862 1.862 0 01-.311.459 1.725 1.725 0 01-.476.359c-.18.091-.382.137-.607.137a1.9 1.9 0 01-.871-.19 1.357 1.357 0 01-.576-.56c-.137-.246-.206-.55-.206-.913 0-.275.048-.528.143-.76a1.64 1.64 0 01.422-.602c.187-.173.421-.307.703-.402a3.12 3.12 0 01.987-.142h.792zm2.957-1.352v4.815h-.934v-5.713h.902l.032.898zm1.42-.93l.006.909a1.28 1.28 0 00-.212-.032c-.06-.007-.13-.01-.21-.01a.984.984 0 00-.465.105c-.13.07-.243.17-.338.296a1.52 1.52 0 00-.227.454 2.718 2.718 0 00-.117.57l-.242.159c0-.345.026-.67.079-.972.056-.303.142-.57.259-.803a1.47 1.47 0 01.443-.549 1.079 1.079 0 01.86-.174.44.44 0 01.164.048zm1.664-2.365v8.11h-.935v-8.11h.935zm2.899 2.397l-2.033 2.667-1.257 1.447-.063-1.04 2.228-3.074h1.125zm-.856 5.713l-1.605-2.724.481-.871 2.212 3.595h-1.088zm2.683-5.713v5.713h-.929v-5.713h.929zm-.982-1.515c0-.159.044-.292.132-.401.088-.11.22-.164.396-.164.176 0 .308.054.396.164a.603.603 0 01.137.4.59.59 0 01-.137.392c-.088.105-.22.158-.396.158-.176 0-.308-.053-.396-.158a.603.603 0 01-.132-.391zm3.179 2.735v4.493h-.935v-5.713h.882l.053 1.22zm-.227 1.42l-.381-.015a3.96 3.96 0 01.132-1.083c.095-.334.229-.625.402-.871.176-.247.385-.437.628-.57.243-.138.512-.206.808-.206.232 0 .443.038.633.116.191.074.352.193.486.359.134.165.236.38.306.644.074.26.111.58.111.956v3.743h-.934v-3.754c0-.299-.034-.538-.101-.718a.71.71 0 00-.295-.396.896.896 0 00-.497-.127.929.929 0 00-.512.154 1.456 1.456 0 00-.417.422c-.116.18-.208.385-.274.618a2.694 2.694 0 00-.095.728zm7.408-2.64h.839v5.76c0 .504-.088.92-.264 1.247a1.629 1.629 0 01-.723.723c-.31.159-.667.238-1.072.238a2.4 2.4 0 01-.544-.08 3.11 3.11 0 01-.655-.242 1.663 1.663 0 01-.538-.401l.385-.65c.201.204.414.35.639.438.226.088.44.132.644.132.243 0 .454-.044.634-.132a.903.903 0 00.417-.433c.099-.197.148-.46.148-.792v-4.55l.09-1.257zm-3.284 3.131v-.533c0-.472.044-.876.132-1.214.088-.342.214-.622.38-.84.169-.222.371-.385.607-.49.236-.106.5-.16.792-.16.296 0 .551.06.766.18.214.12.392.294.533.523.144.225.257.5.338.824.084.32.142.683.174 1.087v.713a6.24 6.24 0 01-.174 1.083 2.7 2.7 0 01-.343.818 1.516 1.516 0 01-.539.517c-.215.12-.47.18-.766.18-.288 0-.549-.055-.781-.164a1.67 1.67 0 01-.602-.501 2.535 2.535 0 01-.385-.84 4.722 4.722 0 01-.132-1.183zm.934-.533v.533c0 .317.023.594.069.83.045.232.116.425.211.58a.93.93 0 00.375.338c.155.074.34.111.554.111.261 0 .474-.063.639-.19.166-.127.298-.294.396-.502a3.48 3.48 0 00.243-.68v-1.5a2.804 2.804 0 00-.153-.518 1.668 1.668 0 00-.248-.449 1.143 1.143 0 00-.37-.317 1.014 1.014 0 00-.496-.116c-.215 0-.4.04-.555.116a.958.958 0 00-.38.349 1.68 1.68 0 00-.216.586 4.378 4.378 0 00-.069.83zm10.751 2.286v.83h-3.189v-.83h3.189zm-3.015-6.858v7.687h-.972v-7.687h.972zm3.633 5.105v-.543c0-.444.056-.833.169-1.167.112-.338.269-.62.47-.845.2-.226.434-.394.702-.507a2.14 2.14 0 01.861-.174c.313 0 .603.058.871.174.267.113.502.282.702.507.204.225.363.507.475.845.113.334.169.723.169 1.167v.543a3.7 3.7 0 01-.169 1.173 2.377 2.377 0 01-.47.84 1.93 1.93 0 01-.702.506 2.205 2.205 0 01-.866.169c-.31 0-.598-.056-.866-.169a1.99 1.99 0 01-.707-.507 2.377 2.377 0 01-.47-.84 3.696 3.696 0 01-.169-1.172zm.934-.543v.543c0 .314.032.588.095.824.064.236.154.433.27.591.116.159.251.279.406.36.155.077.324.116.507.116.211 0 .396-.039.555-.117.162-.08.295-.2.401-.358a1.75 1.75 0 00.238-.592c.052-.236.079-.51.079-.824v-.543c0-.314-.032-.587-.095-.819a1.763 1.763 0 00-.27-.591 1.104 1.104 0 00-.411-.36 1.078 1.078 0 00-.507-.12c-.18 0-.347.04-.502.12-.155.078-.29.198-.407.36-.112.158-.2.355-.264.591a3.146 3.146 0 00-.095.819zm6.559-2.588v.75h-2.667v-.75h2.667zm-1.796-1.388h.935v5.686c0 .194.023.34.069.439.049.098.11.163.184.195a.597.597 0 00.238.047 1.185 1.185 0 00.37-.063l-.006.797a1.576 1.576 0 01-.253.069c-.106.025-.24.037-.401.037a1.14 1.14 0 01-.56-.143 1.01 1.01 0 01-.417-.475c-.106-.225-.159-.528-.159-.908v-5.681zm5.465 5.639a.689.689 0 00-.105-.38 1.118 1.118 0 00-.349-.317 4.454 4.454 0 00-.644-.328 10.908 10.908 0 01-.713-.322 2.743 2.743 0 01-.528-.353 1.326 1.326 0 01-.332-.439 1.478 1.478 0 01-.111-.596c0-.23.042-.44.127-.634a1.588 1.588 0 01.939-.86 2.08 2.08 0 01.745-.127c.391 0 .723.075.998.227.274.151.484.359.628.623.148.26.222.554.222.882h-.929a.996.996 0 00-.106-.45.856.856 0 00-.311-.343.887.887 0 00-.502-.137 1.02 1.02 0 00-.507.111.689.689 0 00-.285.29.877.877 0 00-.085.386.81.81 0 00.043.275.606.606 0 00.158.21c.074.064.174.131.301.201.13.067.296.145.496.233.388.151.713.304.977.46.264.154.465.335.602.543.137.208.206.465.206.77 0 .25-.046.478-.137.682a1.46 1.46 0 01-.38.517 1.735 1.735 0 01-.597.333 2.5 2.5 0 01-.771.111c-.429 0-.794-.084-1.093-.254a1.79 1.79 0 01-.676-.67 1.842 1.842 0 01-.227-.892h.935c.01.267.07.475.179.623.113.148.248.25.407.306.158.056.317.084.475.084.208 0 .382-.03.523-.09a.69.69 0 00.317-.269.74.74 0 00.11-.406zm7.008.486v-3.1a1.2 1.2 0 00-.106-.544.623.623 0 00-.306-.3 1.185 1.185 0 00-.507-.096c-.197 0-.368.04-.512.122a.876.876 0 00-.328.322.9.9 0 00-.111.443h-.934a1.5 1.5 0 01.132-.607c.091-.2.222-.382.391-.544.169-.165.371-.295.607-.39.239-.1.507-.148.802-.148.352 0 .664.058.935.174.271.113.484.297.639.554.155.257.232.599.232 1.025v2.82c0 .19.014.392.042.606.032.215.076.4.132.555v.084h-.966a1.838 1.838 0 01-.105-.448 4.063 4.063 0 01-.037-.528zm.147-2.487l.011.686h-.649a2.35 2.35 0 00-.608.074 1.43 1.43 0 00-.464.216.929.929 0 00-.301.344 1.059 1.059 0 00-.101.47c0 .228.032.411.095.549a.59.59 0 00.286.29c.126.06.286.09.48.09a1.233 1.233 0 001.04-.56c.102-.155.15-.299.143-.433l.206.438c-.014.138-.06.287-.138.45a1.827 1.827 0 01-.311.459 1.728 1.728 0 01-.475.359 1.32 1.32 0 01-.607.137c-.331 0-.622-.063-.872-.19a1.357 1.357 0 01-.575-.56c-.138-.246-.206-.55-.206-.913 0-.275.047-.528.142-.76.095-.233.236-.434.423-.602.186-.173.42-.307.702-.402a3.12 3.12 0 01.987-.142h.792zm4.109-2.25v.75h-2.667v-.75h2.667zm-1.796-1.388h.935v5.686c0 .194.023.34.069.439.049.098.11.163.184.195a.6.6 0 00.238.047 1.185 1.185 0 00.37-.063l-.006.797a1.547 1.547 0 01-.253.069 1.805 1.805 0 01-.401.037 1.14 1.14 0 01-.56-.143 1.01 1.01 0 01-.417-.475c-.106-.225-.159-.528-.159-.908v-5.681zm9.072 6.272v.83h-3.189v-.83h3.189zm-3.015-6.858v7.687h-.971v-7.687h.971zm3.633 5.105v-.543c0-.444.056-.833.169-1.167.113-.338.269-.62.47-.845.201-.226.435-.394.702-.507a2.14 2.14 0 01.861-.174c.313 0 .604.058.871.174.268.113.502.282.702.507.205.225.363.507.476.845.112.334.169.723.169 1.167v.543c0 .444-.057.835-.169 1.173a2.42 2.42 0 01-.47.84 1.941 1.941 0 01-.703.506 2.205 2.205 0 01-.866.169c-.309 0-.598-.056-.865-.169a1.985 1.985 0 01-.708-.507 2.393 2.393 0 01-.47-.84 3.696 3.696 0 01-.169-1.172zm.935-.543v.543c0 .314.031.588.095.824.063.236.153.433.269.591.116.159.252.279.407.36.154.077.323.116.506.116.212 0 .396-.039.555-.117.162-.08.296-.2.401-.358a1.75 1.75 0 00.238-.592 3.79 3.79 0 00.079-.824v-.543c0-.314-.032-.587-.095-.819a1.762 1.762 0 00-.269-.591 1.114 1.114 0 00-.919-.48c-.18 0-.347.04-.502.12-.155.078-.29.198-.406.36a1.82 1.82 0 00-.264.591 3.104 3.104 0 00-.095.819zm5.644 2.112l1.262-4.7h.607l-.068.935-1.267 4.778h-.586l.052-1.013zm-.686-4.7l1.061 4.752.027.961h-.618l-1.394-5.713h.924zm3.638 4.715l1.003-4.715h.919l-1.394 5.713h-.607l.079-.998zm-.951-4.715l1.231 4.62.084 1.093h-.581l-1.309-4.789-.069-.924h.644zm5.687 5.819c-.341 0-.649-.051-.924-.153a1.812 1.812 0 01-.702-.465 2.114 2.114 0 01-.443-.797 3.723 3.723 0 01-.154-1.135v-.645c0-.503.059-.929.175-1.277.119-.349.28-.629.48-.84a1.79 1.79 0 01.681-.465 2.14 2.14 0 01.782-.147c.359 0 .665.058.919.174.253.116.459.289.617.517.159.23.275.51.349.845.077.335.116.72.116 1.157v.543h-3.569v-.797h2.634v-.132a3.302 3.302 0 00-.121-.781 1.043 1.043 0 00-.317-.528c-.148-.13-.357-.196-.628-.196-.173 0-.333.03-.481.09a.85.85 0 00-.375.301c-.102.14-.183.336-.242.586-.057.25-.085.567-.085.95v.645c0 .306.028.57.085.792.059.218.146.4.258.544.116.14.257.246.423.316.169.067.36.1.575.1.313 0 .572-.06.776-.179.205-.123.382-.28.534-.47l.491.586a2.01 2.01 0 01-1.004.74 2.625 2.625 0 01-.85.121zm5.582-1.568a.681.681 0 00-.106-.38 1.102 1.102 0 00-.348-.317 4.527 4.527 0 00-.645-.328 10.633 10.633 0 01-.712-.322 2.682 2.682 0 01-.528-.353 1.316 1.316 0 01-.333-.439 1.478 1.478 0 01-.111-.596c0-.23.042-.44.127-.634a1.588 1.588 0 01.94-.86c.221-.085.47-.127.744-.127.391 0 .724.075.998.227.275.151.484.359.628.623.148.26.222.554.222.882h-.929a.983.983 0 00-.106-.45.856.856 0 00-.311-.343.887.887 0 00-.502-.137c-.208 0-.376.037-.507.111a.689.689 0 00-.285.29.876.876 0 00-.084.386c0 .106.014.197.042.275a.618.618 0 00.158.21c.074.064.175.131.301.201.131.067.296.145.497.233.387.151.712.304.976.46.264.154.465.335.602.543.138.208.206.465.206.77 0 .25-.045.478-.137.682a1.46 1.46 0 01-.38.517 1.726 1.726 0 01-.597.333 2.5 2.5 0 01-.771.111c-.429 0-.793-.084-1.093-.254a1.798 1.798 0 01-.676-.67 1.842 1.842 0 01-.227-.892h.935c.011.267.07.475.18.623a.87.87 0 00.406.306c.158.056.317.084.475.084.208 0 .382-.03.523-.09a.69.69 0 00.317-.269.74.74 0 00.111-.406zm4.029-4.251v.75h-2.667v-.75h2.667zm-1.796-1.388h.935v5.686c0 .194.023.34.069.439a.388.388 0 00.184.195.6.6 0 00.238.047 1.185 1.185 0 00.37-.063l-.006.797a1.547 1.547 0 01-.253.069 1.805 1.805 0 01-.401.037 1.14 1.14 0 01-.56-.143 1.01 1.01 0 01-.417-.475c-.106-.225-.159-.528-.159-.908v-5.681zm5.091-.586h2.149c.5 0 .919.087 1.257.264.341.175.598.436.77.781.176.341.264.762.264 1.262 0 .352-.058.674-.174.966a2.007 2.007 0 01-.507.74c-.221.2-.491.35-.808.448l-.264.111h-1.916l-.011-.829h1.378c.296 0 .542-.063.74-.19.197-.13.345-.305.443-.523a1.73 1.73 0 00.148-.723c0-.296-.044-.554-.132-.776a1.033 1.033 0 00-.422-.512c-.191-.124-.446-.185-.766-.185h-1.178v6.853h-.971v-7.687zm3.691 7.687l-1.532-3.484 1.009-.006 1.563 3.427v.063h-1.04zm4.504-.976v-3.1c0-.225-.035-.407-.106-.544a.623.623 0 00-.306-.3 1.185 1.185 0 00-.507-.096c-.197 0-.368.04-.512.122a.866.866 0 00-.327.322.9.9 0 00-.111.443h-.935a1.5 1.5 0 01.132-.607c.092-.2.222-.382.391-.544.169-.165.371-.295.607-.39.239-.1.507-.148.803-.148.352 0 .663.058.934.174.271.113.484.297.639.554.155.257.232.599.232 1.025v2.82c0 .19.015.392.043.606.031.215.075.4.132.555v.084h-.967a1.885 1.885 0 01-.105-.448 4.063 4.063 0 01-.037-.528zm.148-2.487l.01.686h-.649a2.33 2.33 0 00-.607.074 1.41 1.41 0 00-.465.216.938.938 0 00-.301.344c-.067.137-.1.294-.1.47 0 .228.031.411.095.549.063.133.158.23.285.29.127.06.287.09.48.09.236 0 .444-.055.623-.164.18-.109.319-.24.418-.396.102-.155.149-.299.142-.433l.206.438c-.014.138-.06.287-.137.45a1.86 1.86 0 01-.312.459 1.728 1.728 0 01-.475.359 1.32 1.32 0 01-.607.137c-.331 0-.622-.063-.871-.19a1.354 1.354 0 01-.576-.56c-.137-.246-.206-.55-.206-.913 0-.275.048-.528.143-.76a1.62 1.62 0 01.422-.602c.187-.173.421-.307.702-.402.285-.095.615-.142.988-.142h.792zm4.108-2.25v.75h-2.667v-.75h2.667zm-1.795-1.388h.934v5.686c0 .194.023.34.069.439a.386.386 0 00.185.195.595.595 0 00.237.047 1.176 1.176 0 00.37-.063l-.005.797a1.592 1.592 0 01-.254.069 1.799 1.799 0 01-.401.037c-.201 0-.387-.047-.56-.143-.172-.095-.311-.253-.417-.475-.106-.225-.158-.528-.158-.908v-5.681zm4.736 7.207c-.341 0-.649-.051-.924-.153a1.804 1.804 0 01-.702-.465 2.102 2.102 0 01-.444-.797 3.756 3.756 0 01-.153-1.135v-.645c0-.503.058-.929.174-1.277.12-.349.28-.629.481-.84a1.79 1.79 0 01.681-.465c.253-.098.514-.147.782-.147.359 0 .665.058.918.174.254.116.46.289.618.517.158.23.275.51.349.845.077.335.116.72.116 1.157v.543h-3.57v-.797h2.635v-.132a3.302 3.302 0 00-.121-.781 1.05 1.05 0 00-.317-.528c-.148-.13-.357-.196-.628-.196-.173 0-.333.03-.481.09a.85.85 0 00-.375.301c-.102.14-.183.336-.243.586a4.46 4.46 0 00-.084.95v.645c0 .306.028.57.084.792.06.218.146.4.259.544a1.1 1.1 0 00.422.316c.169.067.361.1.576.1.313 0 .572-.06.776-.179a1.99 1.99 0 00.533-.47l.491.586a2.022 2.022 0 01-1.003.74 2.629 2.629 0 01-.85.121zm5.581-1.568a.689.689 0 00-.105-.38 1.118 1.118 0 00-.349-.317 4.454 4.454 0 00-.644-.328 10.908 10.908 0 01-.713-.322 2.743 2.743 0 01-.528-.353 1.326 1.326 0 01-.332-.439 1.478 1.478 0 01-.111-.596c0-.23.042-.44.127-.634a1.588 1.588 0 01.939-.86 2.08 2.08 0 01.745-.127c.391 0 .723.075.998.227.274.151.484.359.628.623.148.26.222.554.222.882h-.929a.996.996 0 00-.106-.45.882.882 0 00-.813-.48 1.02 1.02 0 00-.507.111.689.689 0 00-.285.29.877.877 0 00-.085.386c0 .106.014.197.043.275a.606.606 0 00.158.21c.074.064.174.131.301.201.13.067.296.145.496.233.388.151.713.304.977.46.264.154.465.335.602.543.137.208.206.465.206.77 0 .25-.046.478-.137.682a1.46 1.46 0 01-.38.517 1.735 1.735 0 01-.597.333 2.5 2.5 0 01-.771.111c-.429 0-.794-.084-1.093-.254a1.79 1.79 0 01-.676-.67 1.842 1.842 0 01-.227-.892h.935c.01.267.07.475.179.623.113.148.248.25.407.306.158.056.317.084.475.084.208 0 .382-.03.523-.09a.69.69 0 00.317-.269.748.748 0 00.11-.406z" fill="#fff" fill-opacity=".5"/></svg>