<svg width="277" height="53" viewBox="0 0 277 53" fill="none" xmlns="http://www.w3.org/2000/svg"><path d="M14.871 18.65h4.254c-.082 1.852-.457 3.428-1.125 4.729a6.877 6.877 0 01-2.883 2.953c-1.242.68-2.76 1.02-4.553 1.02-1.359 0-2.578-.247-3.656-.739a7.524 7.524 0 01-2.724-2.127c-.75-.937-1.325-2.08-1.723-3.427-.387-1.348-.58-2.877-.58-4.588v-4.536c0-1.71.2-3.24.598-4.587.41-1.348.996-2.49 1.757-3.428a7.36 7.36 0 012.778-2.127c1.101-.492 2.343-.738 3.726-.738 1.77 0 3.258.34 4.465 1.02 1.207.679 2.139 1.675 2.795 2.987.656 1.313 1.037 2.913 1.143 4.8h-4.254c-.059-1.278-.235-2.298-.528-3.06-.28-.773-.715-1.33-1.3-1.67-.575-.339-1.348-.509-2.32-.509-.81 0-1.507.152-2.093.457-.574.305-1.048.762-1.423 1.371-.364.598-.64 1.354-.827 2.268-.175.902-.263 1.963-.263 3.181v4.57c0 1.173.076 2.21.228 3.112.153.902.399 1.67.739 2.303.34.62.79 1.095 1.353 1.424.563.316 1.266.474 2.11.474 1.007 0 1.81-.158 2.408-.474.609-.317 1.06-.85 1.353-1.6.293-.75.475-1.77.545-3.059zM25.498 0v27H21.42V0h4.078zm-.72 16.805h-1.301c-.012-1.325.128-2.543.421-3.657.294-1.113.715-2.085 1.266-2.918.55-.832 1.213-1.47 1.986-1.916a5.077 5.077 0 012.602-.685c.785 0 1.494.135 2.127.404a4.036 4.036 0 011.652 1.23c.47.563.827 1.302 1.073 2.216.246.902.369 2.003.369 3.304V27h-4.096V14.748c0-.902-.1-1.617-.299-2.144-.187-.528-.468-.909-.843-1.143-.375-.234-.85-.352-1.424-.352-.563 0-1.067.153-1.512.457-.434.293-.803.704-1.107 1.23a6.134 6.134 0 00-.686 1.811c-.152.68-.229 1.413-.229 2.198zm20.47 10.547c-1.23 0-2.326-.182-3.287-.545a6.454 6.454 0 01-2.443-1.653c-.668-.738-1.178-1.64-1.53-2.707-.351-1.078-.527-2.326-.527-3.744v-1.828c0-1.605.182-2.988.545-4.148.375-1.172.89-2.133 1.547-2.883a6.127 6.127 0 012.32-1.67 7.796 7.796 0 012.936-.545c1.195 0 2.232.193 3.111.58.879.387 1.6.967 2.162 1.74.574.774.996 1.729 1.266 2.866.281 1.136.422 2.443.422 3.92v2.056H39.43v-3.094h8.297v-.44c-.024-.866-.13-1.61-.317-2.232-.187-.632-.492-1.113-.914-1.441-.41-.34-.978-.51-1.705-.51-.527 0-.996.1-1.406.299-.41.2-.75.522-1.02.967-.257.445-.457 1.043-.597 1.793-.14.738-.211 1.652-.211 2.742v1.828c0 .95.082 1.752.246 2.408.176.657.434 1.196.773 1.617.34.41.75.715 1.23.915.493.187 1.061.28 1.706.28.95 0 1.764-.175 2.443-.526a6.196 6.196 0 001.793-1.407l1.81 2.514c-.34.457-.796.908-1.37 1.353-.575.434-1.272.791-2.092 1.073-.809.28-1.758.422-2.848.422zm17.553-4.22v-9.474c0-.656-.094-1.183-.281-1.582-.176-.398-.44-.685-.791-.861-.34-.188-.768-.281-1.283-.281-.54 0-.996.11-1.371.334a2.15 2.15 0 00-.827.914c-.187.375-.281.808-.281 1.3h-4.096c0-.761.153-1.494.457-2.197a5.871 5.871 0 011.354-1.88c.586-.551 1.295-.985 2.127-1.301.832-.317 1.758-.475 2.777-.475 1.219 0 2.303.205 3.252.615a4.634 4.634 0 012.232 1.951c.551.89.827 2.063.827 3.516v8.877c0 .879.052 1.664.158 2.355.117.68.275 1.272.474 1.776V27h-4.165c-.188-.457-.329-1.043-.422-1.758a16.221 16.221 0 01-.141-2.11zm.545-7.716l.018 2.654h-1.97a4.77 4.77 0 00-1.581.246 3.3 3.3 0 00-1.196.668 2.888 2.888 0 00-.738 1.037c-.164.41-.246.862-.246 1.354 0 .598.082 1.084.246 1.459.176.375.428.656.756.844.34.175.75.263 1.23.263.657 0 1.225-.14 1.706-.421.492-.293.867-.645 1.125-1.055.27-.41.375-.785.316-1.125l.932 1.705a5.5 5.5 0 01-.528 1.406 6.412 6.412 0 01-.966 1.406 4.781 4.781 0 01-1.442 1.09c-.563.27-1.213.405-1.951.405-1.067 0-2.016-.223-2.848-.668a4.914 4.914 0 01-1.969-1.916c-.468-.844-.703-1.852-.703-3.024 0-.95.159-1.81.475-2.584a5.303 5.303 0 011.406-1.986c.621-.563 1.4-.996 2.338-1.301.95-.305 2.057-.457 3.322-.457h2.268zm10.768-3.78v22.677h-4.079V7.98h3.745l.334 3.657zm10.23 5.098v1.512c0 1.488-.135 2.8-.404 3.938-.27 1.136-.668 2.091-1.195 2.865-.516.762-1.155 1.336-1.917 1.723-.761.386-1.652.58-2.671.58-.961 0-1.8-.211-2.514-.633-.703-.422-1.295-1.014-1.775-1.776-.481-.761-.868-1.664-1.16-2.707a22.333 22.333 0 01-.616-3.445v-2.32a24.83 24.83 0 01.598-3.586c.281-1.09.662-2.028 1.142-2.813.493-.785 1.09-1.388 1.793-1.81.703-.422 1.541-.633 2.514-.633 1.02 0 1.916.182 2.69.545.773.363 1.417.92 1.933 1.67.527.75.92 1.699 1.178 2.847.27 1.137.404 2.485.404 4.043zm-4.096 1.512v-1.512c0-.972-.064-1.81-.193-2.513-.117-.715-.316-1.301-.598-1.758-.27-.457-.615-.797-1.037-1.02-.41-.222-.92-.334-1.53-.334-.538 0-1.013.112-1.423.334-.41.223-.756.534-1.037.932-.281.387-.504.85-.668 1.389a7.757 7.757 0 00-.316 1.722v4.307a9.27 9.27 0 00.527 2.074c.246.621.603 1.12 1.072 1.494.48.375 1.108.563 1.881.563.598 0 1.108-.117 1.53-.352.421-.234.761-.586 1.019-1.054.27-.47.463-1.055.58-1.758.129-.715.193-1.553.193-2.514z" fill="#fff"/><path d="M97.057 3.674L90.06 27h-3.305L95 1.406h2.074l-.017 2.268zM102.717 27L95.721 3.674l-.035-2.268h2.091L106.021 27h-3.304zm0-9.475v2.778h-12.34v-2.778h12.34zm8.658-9.545V27h-3.094V7.98h3.094zm-3.269-5.044c0-.528.146-.973.439-1.336.293-.364.732-.545 1.318-.545.586 0 1.026.181 1.319.545.304.363.457.808.457 1.336 0 .503-.153.937-.457 1.3-.293.352-.733.528-1.319.528s-1.025-.176-1.318-.528c-.293-.363-.439-.797-.439-1.3zm10.222 8.033V27h-3.111V7.98h3.006l.105 2.989zm4.729-3.094l.017 3.023a4.252 4.252 0 00-.703-.105 6.083 6.083 0 00-.703-.035c-.586 0-1.101.117-1.547.351a3.465 3.465 0 00-1.125.985 5.095 5.095 0 00-.756 1.511 9.08 9.08 0 00-.386 1.899l-.809.527c0-1.148.088-2.226.264-3.234.187-1.008.474-1.899.861-2.672.387-.785.879-1.395 1.477-1.828.609-.445 1.336-.668 2.179-.668.188 0 .416.03.686.088.281.047.463.1.545.158zm5.16 3.762v22.675h-3.111V7.98h2.83l.281 3.657zm10.635 4.992v1.775c0 1.5-.141 2.813-.422 3.938-.27 1.113-.674 2.045-1.213 2.795a5.123 5.123 0 01-1.951 1.67c-.774.363-1.658.545-2.654.545-.997 0-1.864-.188-2.602-.563a5.215 5.215 0 01-1.846-1.67c-.492-.726-.884-1.6-1.177-2.619-.282-1.031-.475-2.186-.581-3.463V16.33c.106-1.348.299-2.555.581-3.621.281-1.078.668-1.992 1.16-2.742.504-.762 1.119-1.342 1.845-1.74.739-.399 1.6-.598 2.584-.598 1.02 0 1.916.176 2.69.527a4.814 4.814 0 011.969 1.635c.539.727.943 1.658 1.212 2.795.27 1.125.405 2.473.405 4.043zm-3.112 1.775V16.63c0-1.055-.082-1.975-.246-2.76-.152-.785-.398-1.435-.738-1.951a3.281 3.281 0 00-1.283-1.16c-.516-.258-1.137-.387-1.863-.387-.621 0-1.172.129-1.653.387-.468.258-.873.61-1.213 1.055a5.964 5.964 0 00-.843 1.494 8.559 8.559 0 00-.493 1.722v5.326c.2.75.463 1.46.791 2.127a4.43 4.43 0 001.319 1.6c.562.41 1.271.615 2.127.615.715 0 1.33-.129 1.845-.386a3.158 3.158 0 001.266-1.16c.34-.528.586-1.184.738-1.97.164-.796.246-1.722.246-2.777zm5.389 0v-1.81c0-1.477.188-2.772.563-3.885.375-1.125.896-2.063 1.564-2.813a6.458 6.458 0 012.338-1.687 7.118 7.118 0 012.865-.58c1.043 0 2.01.193 2.901.58.89.375 1.67.937 2.338 1.687.679.75 1.207 1.688 1.582 2.813.375 1.113.562 2.408.562 3.885v1.81c0 1.477-.187 2.778-.562 3.903-.375 1.113-.897 2.045-1.565 2.795a6.458 6.458 0 01-2.338 1.687 7.348 7.348 0 01-2.883.563 7.347 7.347 0 01-2.882-.563 6.624 6.624 0 01-2.356-1.687c-.668-.75-1.189-1.682-1.564-2.795-.375-1.125-.563-2.426-.563-3.903zm3.112-1.81v1.81c0 1.043.105 1.957.316 2.742.211.786.51 1.442.896 1.97.387.527.838.925 1.354 1.195a3.72 3.72 0 001.687.386c.704 0 1.319-.129 1.846-.386.539-.27.985-.668 1.336-1.196.352-.527.615-1.183.791-1.968.176-.786.264-1.7.264-2.743v-1.81c0-1.043-.106-1.951-.317-2.725-.211-.785-.509-1.441-.896-1.969-.387-.539-.844-.937-1.371-1.195a3.588 3.588 0 00-1.688-.404c-.597 0-1.154.134-1.67.404-.515.258-.966.656-1.353 1.195-.375.528-.668 1.184-.879 1.97-.211.773-.316 1.68-.316 2.724zm17.64-5.625V27h-3.111V7.98h3.006l.105 2.989zm4.729-3.094l.017 3.023a4.252 4.252 0 00-.703-.105 6.083 6.083 0 00-.703-.035c-.586 0-1.101.117-1.547.351a3.465 3.465 0 00-1.125.985 5.095 5.095 0 00-.756 1.511 9.08 9.08 0 00-.386 1.899l-.809.527c0-1.148.088-2.226.264-3.234.187-1.008.474-1.899.861-2.672.387-.785.879-1.395 1.477-1.828.609-.445 1.336-.668 2.179-.668.188 0 .416.03.686.088.281.047.463.1.545.158zm9.871.105v2.497h-8.877V7.98h8.877zm-5.977-4.623h3.112V22.29c0 .645.076 1.13.228 1.459.164.328.369.545.615.65.247.106.51.159.791.159.211 0 .446-.024.704-.07.257-.06.433-.106.527-.141L176.463 27a5.248 5.248 0 01-.843.229c-.352.082-.797.123-1.336.123a3.804 3.804 0 01-1.864-.475c-.574-.316-1.037-.844-1.388-1.582-.352-.75-.528-1.758-.528-3.024V3.357z" fill="#D6EE19"/><path d="M188.477 16.594h-6.065v-1.881h6.065c1.253 0 2.267-.246 3.041-.738a4.367 4.367 0 001.687-2.022c.363-.855.545-1.81.545-2.865 0-1.043-.182-2.004-.545-2.883a4.531 4.531 0 00-1.687-2.11c-.774-.538-1.788-.808-3.041-.808h-5.432V27h-2.004V1.406h7.436c1.57 0 2.894.323 3.972.967a6.142 6.142 0 012.461 2.69c.563 1.148.844 2.478.844 3.99 0 1.57-.275 2.924-.826 4.06a5.798 5.798 0 01-2.444 2.584c-1.078.598-2.414.897-4.007.897zm19.925 6.996V13.236c0-.89-.152-1.611-.457-2.162a2.727 2.727 0 00-1.336-1.23c-.585-.258-1.318-.387-2.197-.387-.797 0-1.506.164-2.127.492a3.577 3.577 0 00-1.459 1.336c-.351.563-.527 1.213-.527 1.951l-1.951-.017c0-.739.146-1.442.439-2.11a5.488 5.488 0 011.248-1.775 5.912 5.912 0 011.934-1.248c.762-.305 1.611-.457 2.549-.457 1.125 0 2.127.182 3.006.545a4.2 4.2 0 012.056 1.793c.504.832.756 1.933.756 3.304v9.739c0 .656.041 1.336.123 2.039.094.703.223 1.277.387 1.723V27h-2.057c-.129-.41-.228-.938-.299-1.582a20.462 20.462 0 01-.088-1.828zm.422-7.682l.035 1.653h-3.392c-.914 0-1.717.1-2.408.298-.692.2-1.272.487-1.741.862a3.655 3.655 0 00-1.037 1.353c-.234.516-.351 1.102-.351 1.758 0 .844.135 1.535.404 2.074a2.7 2.7 0 001.195 1.178c.528.246 1.155.37 1.881.37.949 0 1.793-.194 2.531-.581a5.237 5.237 0 001.811-1.53 4.993 4.993 0 00.914-2.02l.527 1.177a6.271 6.271 0 01-.65 1.652 7.049 7.049 0 01-1.23 1.582 6.192 6.192 0 01-1.793 1.178c-.692.305-1.471.457-2.338.457-1.043 0-1.957-.2-2.742-.598a4.218 4.218 0 01-1.829-1.793c-.421-.808-.632-1.804-.632-2.988 0-.879.152-1.687.457-2.425a5.393 5.393 0 011.353-1.934c.598-.55 1.348-.973 2.25-1.266.902-.304 1.951-.457 3.147-.457h3.638zm7.727-4.781V27H214.6V7.98h1.898l.053 3.147zm5.537-3.287l-.07 1.969a3.123 3.123 0 00-.563-.088 5.131 5.131 0 00-.633-.035c-.738 0-1.388.164-1.951.492-.551.328-1.019.79-1.406 1.388-.375.586-.668 1.272-.879 2.057a11.936 11.936 0 00-.351 2.514l-.668.299c0-1.23.105-2.38.316-3.446.211-1.066.533-1.998.967-2.795.445-.808 1.002-1.435 1.67-1.88.668-.458 1.465-.686 2.39-.686.211 0 .428.023.651.07.234.035.41.082.527.14zM226.369 0v27h-1.951V0h1.951zm9.967 7.98l-7.365 8.825-3.322 3.691-.246-2.11 2.601-3.304 5.889-7.102h2.443zM234.631 27l-6.486-9.861 1.054-1.846L236.934 27h-2.303zm6.479-19.02V27h-1.951V7.98h1.951zm-2.25-5.484c0-.41.111-.75.334-1.02.234-.28.55-.421.949-.421.41 0 .726.14.949.422.234.27.352.609.352 1.02 0 .398-.118.732-.352 1.001-.223.27-.539.404-.949.404-.399 0-.715-.134-.949-.404-.223-.27-.334-.603-.334-1.002zm8.552 9.545V27h-1.951V7.98h1.864l.087 4.061zm-.439 4.271l-.861-.51c.035-1.124.217-2.179.545-3.163.328-.985.767-1.852 1.318-2.602.562-.762 1.225-1.353 1.986-1.775.762-.422 1.612-.633 2.549-.633.797 0 1.506.129 2.127.387a3.828 3.828 0 011.582 1.23c.445.55.785 1.272 1.02 2.162.234.88.351 1.946.351 3.2V27h-1.933V14.59c0-1.3-.147-2.32-.44-3.059-.293-.738-.715-1.26-1.265-1.564-.54-.317-1.19-.475-1.952-.475-.808 0-1.523.217-2.144.65a5.555 5.555 0 00-1.565 1.688 8.826 8.826 0 00-.966 2.232 8.777 8.777 0 00-.352 2.25zm25.252-8.332h1.793v19.495c0 1.652-.258 3-.773 4.043-.516 1.042-1.248 1.81-2.198 2.302-.949.504-2.074.756-3.375.756-.632 0-1.3-.105-2.004-.316a7.657 7.657 0 01-2.003-.897 6.083 6.083 0 01-1.583-1.406l.915-1.406c.656.738 1.365 1.289 2.127 1.652a5.38 5.38 0 002.408.563c.984 0 1.81-.176 2.478-.528.68-.34 1.196-.89 1.547-1.652.352-.762.527-1.775.527-3.041v-15.38l.141-4.185zm-11.18 10.407V16.61c0-1.593.141-2.959.422-4.095.282-1.149.692-2.08 1.231-2.795.539-.715 1.189-1.242 1.951-1.582.773-.34 1.641-.51 2.601-.51.926 0 1.735.17 2.426.51a5.01 5.01 0 011.793 1.459c.492.632.891 1.388 1.196 2.267.304.88.527 1.858.667 2.936v5.695a12.385 12.385 0 01-.632 2.76c-.293.844-.692 1.57-1.196 2.18a5.121 5.121 0 01-1.81 1.423c-.715.34-1.541.51-2.479.51-.949 0-1.804-.181-2.566-.545-.762-.363-1.412-.914-1.951-1.652-.539-.738-.949-1.67-1.231-2.795-.281-1.125-.422-2.455-.422-3.99zm1.969-1.776v1.776c0 1.23.088 2.29.264 3.181.187.88.469 1.612.844 2.198.375.586.849 1.02 1.423 1.3.586.282 1.278.422 2.075.422.984 0 1.81-.205 2.478-.615a4.802 4.802 0 001.6-1.652 8.178 8.178 0 00.879-2.268V14.45a10.876 10.876 0 00-.51-1.705 6.123 6.123 0 00-.914-1.617 4.112 4.112 0 00-1.424-1.178c-.574-.304-1.272-.457-2.092-.457-.797 0-1.488.147-2.074.44a3.486 3.486 0 00-1.441 1.3c-.375.586-.657 1.325-.844 2.215-.176.88-.264 1.934-.264 3.164z" fill="#fff"/><path d="M93.426 44.012h-2.168l-.014-1.135h2.014c.303 0 .571-.068.806-.205a1.42 1.42 0 00.549-.586 1.95 1.95 0 00.205-.923c0-.39-.059-.708-.176-.952a1.064 1.064 0 00-.52-.542c-.23-.117-.522-.176-.879-.176h-1.699V49h-1.348V38.336h3.047c.46 0 .87.056 1.23.168.362.108.667.279.916.513.254.23.447.523.579.879.132.356.198.784.198 1.282a2.396 2.396 0 01-1.121 2.058 2.988 2.988 0 01-1.216.432l-.403.344zM93.376 49h-2.674l.783-1.15h1.89c.352 0 .65-.078.894-.234.244-.157.43-.376.556-.66.132-.288.198-.627.198-1.018 0-.395-.054-.737-.161-1.025a1.335 1.335 0 00-.513-.666c-.234-.157-.542-.235-.923-.235H91.69l.015-1.135h2.344l.3.41c.44.044.808.19 1.106.44.303.244.53.556.681.937.157.38.235.8.235 1.26 0 .664-.125 1.225-.374 1.684-.244.455-.59.801-1.04 1.04-.45.235-.976.352-1.582.352zm7.218.147c-.474 0-.901-.071-1.282-.213a2.505 2.505 0 01-.974-.644 2.923 2.923 0 01-.615-1.106c-.142-.445-.213-.97-.213-1.575v-.894c0-.698.08-1.289.242-1.772.166-.483.388-.872.666-1.165.279-.297.593-.512.945-.644a2.966 2.966 0 011.084-.205c.498 0 .923.08 1.274.241.352.161.638.4.857.718.22.318.381.708.484 1.172.107.464.161.999.161 1.604v.755h-4.951v-1.106h3.655v-.184a4.603 4.603 0 00-.169-1.084c-.088-.312-.234-.556-.439-.732-.205-.18-.496-.271-.872-.271a1.76 1.76 0 00-.666.124 1.18 1.18 0 00-.52.418c-.142.195-.254.466-.337.813-.079.347-.118.786-.118 1.318v.894c0 .425.04.79.118 1.099.083.302.202.554.358.754.162.195.357.342.587.44.234.092.5.139.798.139.434 0 .793-.083 1.076-.25.284-.17.53-.388.74-.651l.681.813a2.82 2.82 0 01-1.391 1.025c-.327.112-.72.169-1.179.169zm7.592-2.176c0-.2-.049-.376-.147-.527-.098-.152-.259-.298-.483-.44a6.226 6.226 0 00-.894-.454c-.366-.151-.696-.3-.989-.447a3.74 3.74 0 01-.732-.49 1.857 1.857 0 01-.462-.608 2.062 2.062 0 01-.153-.828c0-.317.058-.61.175-.879a2.21 2.21 0 01.513-.717c.22-.206.484-.364.791-.477a2.884 2.884 0 011.033-.175c.542 0 1.003.105 1.384.315.381.21.672.498.872.864.205.361.307.769.307 1.223h-1.289c0-.22-.049-.427-.146-.623a1.196 1.196 0 00-.432-.476 1.23 1.23 0 00-.696-.19c-.288 0-.523.051-.703.154a.95.95 0 00-.396.403c-.078.16-.117.339-.117.534 0 .147.02.274.059.381a.86.86 0 00.219.293c.103.088.242.18.418.278.181.093.41.2.688.323.537.21.989.422 1.355.637.367.215.645.466.835.754.191.288.286.645.286 1.07 0 .346-.064.661-.191.944a2.007 2.007 0 01-.527.718c-.229.2-.505.354-.827.462a3.475 3.475 0 01-1.07.154c-.596 0-1.101-.118-1.516-.352a2.49 2.49 0 01-.937-.93 2.549 2.549 0 01-.315-1.238h1.296c.015.371.098.66.249.864.156.205.344.347.564.425.22.078.439.117.659.117.288 0 .53-.041.725-.124a.953.953 0 00.44-.374c.102-.161.154-.349.154-.564zm5.438-5.896v1.04h-3.699v-1.04h3.699zm-2.49-1.926h1.296v7.888c0 .269.032.471.096.608a.533.533 0 00.256.271.824.824 0 00.33.066 1.638 1.638 0 00.512-.088L113.617 49a2.176 2.176 0 01-.352.095 2.504 2.504 0 01-.556.052c-.279 0-.537-.066-.777-.198-.239-.132-.432-.352-.578-.66-.147-.312-.22-.732-.22-1.26v-7.88zm10.152 5.669h-2.329v-1.15h2.329c.44 0 .794-.088 1.062-.264a1.49 1.49 0 00.593-.732c.127-.313.191-.67.191-1.07 0-.366-.064-.71-.191-1.032a1.645 1.645 0 00-.593-.776c-.268-.2-.622-.3-1.062-.3h-2.051V49h-1.347V38.336h3.398c.689 0 1.27.14 1.743.417.474.279.833.664 1.077 1.158.249.488.374 1.047.374 1.677 0 .684-.125 1.267-.374 1.75a2.506 2.506 0 01-1.077 1.106c-.473.25-1.054.374-1.743.374zm8.09 2.827v-4.3c0-.312-.049-.563-.146-.754a.865.865 0 00-.425-.417c-.186-.088-.42-.132-.703-.132-.274 0-.51.056-.711.168a1.217 1.217 0 00-.454.447c-.102.186-.154.39-.154.616h-1.296c0-.284.061-.565.183-.843a2.45 2.45 0 01.542-.754c.235-.23.515-.41.842-.542a2.907 2.907 0 011.114-.205c.488 0 .92.08 1.296.241.376.157.672.413.886.77.215.356.323.83.323 1.42v3.912c0 .263.019.544.058.842.044.298.105.554.183.769V49h-1.34a2.617 2.617 0 01-.146-.623 5.586 5.586 0 01-.052-.732zm.205-3.45l.015.953h-.901a3.25 3.25 0 00-.842.102 1.972 1.972 0 00-.645.3 1.3 1.3 0 00-.417.476c-.093.19-.139.408-.139.652 0 .318.044.572.131.762.088.186.22.32.396.403.176.083.398.124.667.124.327 0 .615-.075.864-.227a1.72 1.72 0 00.578-.55c.142-.214.208-.414.198-.6l.286.608a1.92 1.92 0 01-.191.623c-.102.22-.246.432-.432.637a2.39 2.39 0 01-.659.498c-.249.127-.53.19-.842.19-.459 0-.862-.087-1.209-.263a1.879 1.879 0 01-.798-.777c-.191-.341-.286-.764-.286-1.267 0-.38.066-.732.198-1.054.132-.323.327-.6.586-.835a2.66 2.66 0 01.974-.557 4.33 4.33 0 011.37-.198h1.098zm3.952-1.875V49h-1.296v-7.925h1.252l.044 1.245zm1.97-1.289l.008 1.26a1.79 1.79 0 00-.293-.044 2.54 2.54 0 00-.293-.015c-.244 0-.459.05-.645.147-.18.098-.337.234-.468.41a2.107 2.107 0 00-.315.63c-.079.24-.132.503-.162.791l-.336.22c0-.479.036-.928.109-1.348.079-.42.198-.791.359-1.113a2.01 2.01 0 01.616-.762 1.494 1.494 0 011.193-.242c.118.02.193.042.227.066zm2.158-3.281V49h-1.297V37.75h1.297zm4.021 3.325l-2.82 3.699-1.743 2.007-.088-1.443 1.201-1.655 1.89-2.608h1.56zM140.495 49l-2.226-3.78.666-1.208L142.004 49h-1.509zm3.571-7.925V49h-1.289v-7.925h1.289zm-1.362-2.102c0-.22.061-.405.183-.556.122-.152.305-.227.549-.227.245 0 .428.075.55.227.127.15.19.336.19.556 0 .21-.063.39-.19.542-.122.147-.305.22-.55.22-.244 0-.427-.073-.549-.22a.837.837 0 01-.183-.542zm4.259 3.794V49h-1.296v-7.925h1.223l.073 1.692zm-.314 1.97l-.528-.022a5.426 5.426 0 01.183-1.501c.132-.464.318-.867.557-1.209.244-.341.535-.605.872-.79.336-.191.71-.286 1.12-.286.322 0 .615.053.879.16.264.103.488.27.674.499.185.23.327.527.425.893.102.362.153.804.153 1.326V49h-1.296v-5.208c0-.415-.046-.747-.139-.996-.088-.254-.225-.437-.41-.549-.181-.117-.41-.176-.689-.176-.254 0-.49.071-.71.213-.22.141-.413.337-.579.586a3.194 3.194 0 00-.381.857 3.767 3.767 0 00-.131 1.01zm10.126-3.662h1.164v7.99c0 .7-.122 1.275-.366 1.73a2.267 2.267 0 01-1.003 1.003c-.43.22-.926.33-1.487.33-.2 0-.452-.037-.755-.11a4.307 4.307 0 01-.908-.337 2.297 2.297 0 01-.747-.557l.535-.9c.278.282.574.485.886.607.313.122.61.183.894.183.337 0 .629-.06.879-.183a1.26 1.26 0 00.578-.6c.137-.274.205-.64.205-1.1v-6.313l.125-1.743zm-4.556 4.343v-.74c0-.654.061-1.215.183-1.684.122-.474.298-.862.527-1.164.235-.308.516-.535.843-.682.327-.146.693-.22 1.098-.22.411 0 .765.084 1.062.25.298.166.545.407.74.725.2.312.357.693.469 1.142a8.6 8.6 0 01.242 1.51v.988a8.568 8.568 0 01-.242 1.501 3.71 3.71 0 01-.476 1.136c-.2.312-.449.551-.747.718-.298.165-.652.248-1.062.248-.401 0-.762-.075-1.084-.227a2.312 2.312 0 01-.835-.695c-.23-.313-.408-.701-.535-1.165-.122-.469-.183-1.015-.183-1.64zm1.296-.74v.74c0 .44.032.823.096 1.15.063.323.161.591.293.806.136.21.31.366.52.469.214.102.471.154.769.154.361 0 .656-.088.886-.264.229-.176.413-.408.549-.696.142-.293.254-.608.337-.945v-2.08a3.922 3.922 0 00-.212-.718 2.317 2.317 0 00-.345-.622 1.57 1.57 0 00-.512-.44 1.41 1.41 0 00-.689-.16c-.298 0-.554.053-.769.16-.215.108-.39.269-.527.484a2.322 2.322 0 00-.3.813 6.05 6.05 0 00-.096 1.15zm14.613 3.172V49h-4.424v-1.15h4.424zm-4.182-9.514V49h-1.348V38.336h1.348zm4.889 7.083v-.755c0-.615.078-1.155.235-1.619.156-.468.373-.859.652-1.172a2.69 2.69 0 01.974-.703 2.965 2.965 0 011.194-.241c.434 0 .837.08 1.208.241.371.157.696.391.974.703.283.313.503.704.659 1.172.157.464.235 1.004.235 1.62v.754c0 .615-.078 1.157-.235 1.625a3.304 3.304 0 01-.652 1.165 2.689 2.689 0 01-.974.703 3.06 3.06 0 01-1.201.235 3.07 3.07 0 01-1.201-.235 2.756 2.756 0 01-.981-.703 3.304 3.304 0 01-.652-1.165c-.157-.468-.235-1.01-.235-1.625zm1.297-.755v.755c0 .434.044.815.132 1.142.087.327.212.6.373.82.161.22.349.386.564.498.215.108.449.162.703.162.293 0 .55-.054.769-.162.225-.112.41-.278.557-.498a2.43 2.43 0 00.329-.82c.074-.327.11-.708.11-1.142v-.755c0-.434-.044-.813-.132-1.135a2.434 2.434 0 00-.373-.82 1.537 1.537 0 00-.571-.499 1.497 1.497 0 00-.703-.168c-.249 0-.481.056-.696.168a1.55 1.55 0 00-.564.498 2.53 2.53 0 00-.366.82 4.35 4.35 0 00-.132 1.136zm8.947-3.589v1.04h-3.699v-1.04h3.699zm-2.491-1.926h1.297v7.888c0 .269.032.471.095.608a.537.537 0 00.256.271.831.831 0 00.33.066 1.64 1.64 0 00.513-.088L179.071 49a2.19 2.19 0 01-.351.095 2.513 2.513 0 01-.557.052c-.278 0-.537-.066-.776-.198s-.432-.352-.579-.66c-.146-.312-.22-.732-.22-1.26v-7.88zm7.431 7.822c0-.2-.048-.376-.146-.527-.098-.152-.259-.298-.484-.44a6.154 6.154 0 00-.893-.454c-.366-.151-.696-.3-.989-.447a3.74 3.74 0 01-.732-.49 1.857 1.857 0 01-.462-.608 2.062 2.062 0 01-.154-.828c0-.317.059-.61.176-.879.122-.273.293-.512.513-.717.22-.206.483-.364.791-.477a2.884 2.884 0 011.033-.175c.542 0 1.003.105 1.384.315.381.21.671.498.872.864.205.361.307.769.307 1.223h-1.289c0-.22-.049-.427-.146-.623a1.224 1.224 0 00-1.128-.666c-.288 0-.523.051-.703.154a.95.95 0 00-.396.403c-.078.16-.117.339-.117.534 0 .147.019.274.058.381.044.103.118.2.22.293.103.088.242.18.418.278.18.093.41.2.688.323.537.21.989.422 1.355.637.366.215.645.466.835.754.191.288.286.645.286 1.07 0 .346-.064.661-.191.944a2.019 2.019 0 01-.527.718c-.23.2-.505.354-.828.462a3.469 3.469 0 01-1.069.154c-.596 0-1.101-.118-1.516-.352a2.5 2.5 0 01-.938-.93 2.549 2.549 0 01-.315-1.238h1.297c.014.371.097.66.249.864.156.205.344.347.564.425.22.078.439.117.659.117.288 0 .53-.041.725-.124a.958.958 0 00.44-.374c.102-.161.153-.349.153-.564zm9.42.674v-4.3c0-.312-.049-.563-.146-.754a.865.865 0 00-.425-.417c-.186-.088-.42-.132-.703-.132a1.43 1.43 0 00-.711.168 1.217 1.217 0 00-.454.447c-.102.186-.154.39-.154.616h-1.296c0-.284.061-.565.183-.843a2.45 2.45 0 01.542-.754c.234-.23.515-.41.842-.542a2.9 2.9 0 011.114-.205c.488 0 .92.08 1.296.241.376.157.671.413.886.77.215.356.323.83.323 1.42v3.912c0 .263.019.544.058.842.044.298.105.554.183.769V49h-1.34a2.612 2.612 0 01-.147-.623 5.753 5.753 0 01-.051-.732zm.205-3.45l.015.953h-.901a3.25 3.25 0 00-.842.102 1.972 1.972 0 00-.645.3 1.3 1.3 0 00-.417.476c-.093.19-.139.408-.139.652 0 .318.043.572.131.762.088.186.22.32.396.403.176.083.398.124.666.124.328 0 .616-.075.865-.227a1.72 1.72 0 00.578-.55c.142-.214.208-.414.198-.6l.286.608a1.92 1.92 0 01-.191.623c-.102.22-.246.432-.432.637a2.39 2.39 0 01-.659.498c-.249.127-.53.19-.842.19-.459 0-.862-.087-1.209-.263a1.879 1.879 0 01-.798-.777c-.191-.341-.286-.764-.286-1.267 0-.38.066-.732.198-1.054.132-.323.327-.6.586-.835a2.66 2.66 0 01.974-.557 4.326 4.326 0 011.37-.198h1.098zm5.549-3.12v1.04h-3.699v-1.04h3.699zm-2.49-1.926h1.296v7.888c0 .269.032.471.095.608a.537.537 0 00.256.271.831.831 0 00.33.066 1.64 1.64 0 00.513-.088L199.185 49a2.16 2.16 0 01-.351.095 2.513 2.513 0 01-.557.052c-.278 0-.537-.066-.776-.198s-.432-.352-.579-.66c-.146-.312-.219-.732-.219-1.26v-7.88zm12.283 8.701V49h-4.424v-1.15h4.424zm-4.182-9.514V49h-1.348V38.336h1.348zm4.889 7.083v-.755c0-.615.078-1.155.235-1.619.156-.468.373-.859.652-1.172a2.69 2.69 0 01.974-.703 2.965 2.965 0 011.194-.241c.434 0 .837.08 1.208.241.371.157.696.391.974.703.283.313.503.704.659 1.172.157.464.235 1.004.235 1.62v.754c0 .615-.078 1.157-.235 1.625a3.318 3.318 0 01-.651 1.165 2.7 2.7 0 01-.975.703 3.06 3.06 0 01-1.201.235 3.07 3.07 0 01-1.201-.235 2.756 2.756 0 01-.981-.703 3.304 3.304 0 01-.652-1.165c-.157-.468-.235-1.01-.235-1.625zm1.297-.755v.755c0 .434.044.815.132 1.142.087.327.212.6.373.82.161.22.349.386.564.498.215.108.449.162.703.162.293 0 .55-.054.769-.162.225-.112.41-.278.557-.498a2.43 2.43 0 00.329-.82c.074-.327.11-.708.11-1.142v-.755c0-.434-.044-.813-.131-1.135a2.455 2.455 0 00-.374-.82 1.537 1.537 0 00-.571-.499 1.497 1.497 0 00-.703-.168c-.249 0-.481.056-.696.168a1.55 1.55 0 00-.564.498 2.53 2.53 0 00-.366.82 4.35 4.35 0 00-.132 1.136zm7.68 2.93l1.75-6.519h.842l-.095 1.297L219.409 49h-.813l.074-1.406zm-.953-6.519l1.473 6.592.036 1.333h-.857l-1.933-7.925h1.281zm5.047 6.54l1.391-6.54h1.275L223.496 49h-.842l.11-1.384zm-1.319-6.54l1.707 6.409.117 1.516h-.805l-1.817-6.643-.095-1.282h.893zm7.739 8.072c-.474 0-.901-.071-1.282-.213a2.507 2.507 0 01-.974-.644 2.923 2.923 0 01-.615-1.106c-.142-.445-.213-.97-.213-1.575v-.894c0-.698.081-1.289.242-1.772.166-.483.388-.872.667-1.165.278-.297.593-.512.945-.644a2.96 2.96 0 011.083-.205c.499 0 .923.08 1.275.241.351.161.637.4.857.718.22.318.381.708.483 1.172.108.464.161.999.161 1.604v.755h-4.951v-1.106h3.655v-.184a4.658 4.658 0 00-.168-1.084c-.088-.312-.235-.556-.44-.732-.205-.18-.496-.271-.872-.271-.239 0-.461.041-.666.124a1.18 1.18 0 00-.52.418c-.142.195-.254.466-.337.813-.078.347-.117.786-.117 1.318v.894c0 .425.039.79.117 1.099.083.302.203.554.359.754.161.195.356.342.586.44.234.092.5.139.798.139.435 0 .794-.083 1.077-.25.283-.17.53-.388.74-.651l.681.813a2.808 2.808 0 01-1.392 1.025c-.327.112-.72.169-1.179.169zm7.592-2.176c0-.2-.049-.376-.147-.527-.097-.152-.258-.298-.483-.44a6.207 6.207 0 00-.893-.454 15.07 15.07 0 01-.989-.447 3.78 3.78 0 01-.733-.49 1.84 1.84 0 01-.461-.608 2.045 2.045 0 01-.154-.828c0-.317.059-.61.176-.879.122-.273.293-.512.513-.717.219-.206.483-.364.791-.477a2.875 2.875 0 011.032-.175c.542 0 1.004.105 1.385.315.38.21.671.498.871.864.205.361.308.769.308 1.223h-1.289c0-.22-.049-.427-.147-.623a1.225 1.225 0 00-1.128-.666c-.288 0-.522.051-.703.154a.953.953 0 00-.395.403c-.078.16-.118.339-.118.534 0 .147.02.274.059.381a.85.85 0 00.22.293c.102.088.242.18.417.278.181.093.41.2.689.323.537.21.989.422 1.355.637.366.215.644.466.835.754.19.288.285.645.285 1.07 0 .346-.063.661-.19.944a2.019 2.019 0 01-.527.718c-.23.2-.506.354-.828.462a3.469 3.469 0 01-1.069.154c-.596 0-1.101-.118-1.517-.352-.41-.24-.722-.55-.937-.93a2.549 2.549 0 01-.315-1.238h1.296c.015.371.098.66.249.864.157.205.345.347.564.425.22.078.44.117.66.117.288 0 .529-.041.725-.124a.95.95 0 00.439-.374c.103-.161.154-.349.154-.564zm5.439-5.896v1.04h-3.699v-1.04h3.699zm-2.491-1.926h1.297v7.888c0 .269.032.471.095.608a.537.537 0 00.256.271.831.831 0 00.33.066 1.649 1.649 0 00.513-.088L242.207 49a2.19 2.19 0 01-.351.095 2.513 2.513 0 01-.557.052 1.58 1.58 0 01-.776-.198c-.24-.132-.432-.352-.579-.66-.146-.312-.22-.732-.22-1.26v-7.88zm6.762-.813h2.98c.694 0 1.275.122 1.744.366.473.244.83.606 1.069 1.084.244.474.366 1.057.366 1.75a3.6 3.6 0 01-.241 1.341c-.162.4-.396.742-.704 1.025a2.945 2.945 0 01-1.12.623l-.366.154h-2.659l-.015-1.15h1.912c.41 0 .752-.088 1.025-.264a1.67 1.67 0 00.615-.725c.137-.303.206-.637.206-1.003 0-.41-.061-.77-.184-1.077a1.43 1.43 0 00-.585-.71c-.264-.171-.618-.257-1.063-.257h-1.633V49h-1.347V38.336zM251.605 49l-2.124-4.834 1.399-.007 2.168 4.753V49h-1.443zm6.098-1.355v-4.3c0-.312-.049-.563-.146-.754a.865.865 0 00-.425-.417c-.186-.088-.42-.132-.703-.132a1.43 1.43 0 00-.711.168 1.21 1.21 0 00-.454.447c-.102.186-.154.39-.154.616h-1.296c0-.284.061-.565.183-.843a2.45 2.45 0 01.542-.754c.234-.23.515-.41.842-.542a2.9 2.9 0 011.114-.205c.488 0 .92.08 1.296.241.376.157.671.413.886.77.215.356.322.83.322 1.42v3.912c0 .263.02.544.059.842.044.298.105.554.183.769V49h-1.34a2.564 2.564 0 01-.147-.623 5.753 5.753 0 01-.051-.732zm.205-3.45l.015.953h-.901c-.308 0-.589.034-.842.102a1.972 1.972 0 00-.645.3 1.29 1.29 0 00-.417.476c-.093.19-.14.408-.14.652 0 .318.044.572.132.762.088.186.22.32.396.403.176.083.398.124.666.124.327 0 .615-.075.865-.227a1.74 1.74 0 00.578-.55c.142-.214.208-.414.198-.6l.286.608a1.92 1.92 0 01-.191.623c-.102.22-.246.432-.432.637a2.4 2.4 0 01-.659.498c-.249.127-.53.19-.842.19-.459 0-.862-.087-1.209-.263a1.879 1.879 0 01-.798-.777c-.191-.341-.286-.764-.286-1.267 0-.38.066-.732.198-1.054.132-.323.327-.6.586-.835a2.66 2.66 0 01.974-.557 4.324 4.324 0 011.369-.198h1.099zm5.549-3.12v1.04h-3.699v-1.04h3.699zm-2.491-1.926h1.297v7.888c0 .269.032.471.095.608a.537.537 0 00.256.271.831.831 0 00.33.066 1.649 1.649 0 00.513-.088L263.449 49a2.19 2.19 0 01-.351.095 2.513 2.513 0 01-.557.052 1.58 1.58 0 01-.776-.198c-.24-.132-.432-.352-.579-.66-.146-.312-.22-.732-.22-1.26v-7.88zm6.421 9.998c-.474 0-.901-.071-1.282-.213a2.5 2.5 0 01-.974-.644 2.924 2.924 0 01-.616-1.106c-.141-.445-.212-.97-.212-1.575v-.894c0-.698.081-1.289.242-1.772.166-.483.388-.872.666-1.165.279-.297.594-.512.945-.644a2.969 2.969 0 011.084-.205c.498 0 .923.08 1.274.241.352.161.638.4.857.718.22.318.381.708.484 1.172.107.464.161.999.161 1.604v.755h-4.951v-1.106h3.655v-.184a4.603 4.603 0 00-.169-1.084c-.088-.312-.234-.556-.439-.732-.205-.18-.496-.271-.872-.271-.239 0-.461.041-.666.124a1.166 1.166 0 00-.52.418c-.142.195-.254.466-.337.813-.079.347-.118.786-.118 1.318v.894c0 .425.039.79.118 1.099.083.302.202.554.359.754.161.195.356.342.585.44.235.092.501.139.799.139.434 0 .793-.083 1.076-.25.284-.17.53-.388.74-.651l.681.813a2.82 2.82 0 01-1.391 1.025c-.327.112-.72.169-1.179.169zm7.592-2.176c0-.2-.049-.376-.147-.527-.098-.152-.259-.298-.483-.44a6.226 6.226 0 00-.894-.454c-.366-.151-.696-.3-.989-.447a3.74 3.74 0 01-.732-.49 1.857 1.857 0 01-.462-.608 2.062 2.062 0 01-.153-.828c0-.317.058-.61.175-.879a2.21 2.21 0 01.513-.717c.22-.206.484-.364.791-.477a2.884 2.884 0 011.033-.175c.542 0 1.003.105 1.384.315.381.21.672.498.872.864.205.361.307.769.307 1.223h-1.289c0-.22-.049-.427-.146-.623a1.196 1.196 0 00-.432-.476 1.23 1.23 0 00-.696-.19c-.288 0-.523.051-.703.154a.95.95 0 00-.396.403c-.078.16-.117.339-.117.534 0 .147.02.274.059.381a.86.86 0 00.219.293c.103.088.242.18.418.278.181.093.41.2.688.323.537.21.989.422 1.355.637.367.215.645.466.835.754.191.288.286.645.286 1.07 0 .346-.064.661-.191.944a2.007 2.007 0 01-.527.718c-.229.2-.505.354-.828.462a3.464 3.464 0 01-1.069.154c-.596 0-1.101-.118-1.516-.352a2.49 2.49 0 01-.937-.93 2.549 2.549 0 01-.315-1.238h1.296c.015.371.098.66.249.864.156.205.344.347.564.425.22.078.439.117.659.117.288 0 .53-.041.725-.124a.953.953 0 00.44-.374c.102-.161.154-.349.154-.564z" fill="#EEE"/></svg>