<svg width="16" height="16" viewBox="0 0 16 16" fill="none" xmlns="http://www.w3.org/2000/svg"><g clip-path="url(#clip0_6302_123)"><path d="M8 8a2.667 2.667 0 100-5.334A2.667 2.667 0 008 8zm0-4a1.333 1.333 0 110 2.667A1.333 1.333 0 018 4zm5.773 2.105l-.48-.16A5.333 5.333 0 008 0a5.329 5.329 0 00-5.276 6.061 3.363 3.363 0 00-1.698.867A3.297 3.297 0 00-.001 9.333v2.717a3.342 3.342 0 002.4 3.2l1.914.6a3.332 3.332 0 001.896.026l3.853-1.14a1.991 1.991 0 011.049 0l1.59.533A2.666 2.666 0 0016 12.681V9.248a3.343 3.343 0 00-2.226-3.144zM5.17 2.508a3.991 3.991 0 015.656 0 4.024 4.024 0 01.008 5.667l-2.37 2.303a.661.661 0 01-.925 0L5.17 8.185a4.027 4.027 0 010-5.677zm9.495 10.173a1.327 1.327 0 01-.51 1.048 1.313 1.313 0 01-1.083.263l-1.564-.525a3.348 3.348 0 00-1.811-.011l-3.856 1.139a2 2 0 01-1.13-.02l-1.929-.6a2.009 2.009 0 01-1.45-1.925V9.333a1.976 1.976 0 01.613-1.442c.305-.29.695-.479 1.113-.537a5.347 5.347 0 001.176 1.78l2.378 2.301a1.988 1.988 0 002.783 0l2.375-2.308a5.307 5.307 0 001.209-1.881l.358.119a2.004 2.004 0 011.328 1.883v3.433z" fill="#A6B72A"/></g><defs><clipPath id="clip0_6302_123"><path fill="#fff" d="M0 0h16v16H0z"/></clipPath></defs></svg>