<svg width="26" height="26" viewBox="0 0 26 26" fill="none" xmlns="http://www.w3.org/2000/svg"><g clip-path="url(#clip0_4664_7634)"><path d="M13 0C5.82 0 0 5.82 0 13c0 6.096 4.197 11.212 9.86 12.617v-8.644H7.18V13h2.68v-1.712c0-4.425 2.002-6.475 6.346-6.475.824 0 2.245.161 2.826.323v3.6c-.306-.032-.84-.048-1.501-.048-2.132 0-2.955.808-2.955 2.907V13h4.246l-.73 3.973h-3.516v8.932C21.013 25.127 26 19.647 26 13c0-7.18-5.82-13-13-13z" fill="#767676"/></g><defs><clipPath id="clip0_4664_7634"><path fill="#fff" d="M0 0h26v26H0z"/></clipPath></defs></svg>